<svg width="192" height="228" viewBox="0 0 192 228" fill="none" xmlns="http://www.w3.org/2000/svg">
<circle cx="94.5" cy="87.5" r="85" stroke="#DB9099" stroke-width="5"/>
<path d="M91.3927 106.769C91.7249 106.499 91.5991 106.233 91.5991 105.993C91.6092 98.7589 91.5991 91.5208 91.6142 84.2865C91.6142 83.7538 91.574 83.472 90.6831 83.3561C81.2255 82.1479 75.8902 77.7741 74.1386 71.0803C72.7947 65.9421 73.0565 60.7847 73.741 55.6196C74.2191 52.0411 74.9792 48.4895 75.8953 44.9612C75.9707 44.6794 76.0261 44.3899 76.1318 44.1158C76.5546 43.0079 77.8029 42.6643 79.0562 43.3012C80.9034 44.2432 82.7657 45.1697 84.5827 46.1463C85.1767 46.4629 85.5139 46.4629 86.0374 46.0498C87.8946 44.5674 89.8123 43.1237 91.7149 41.676C92.8977 40.7766 93.7433 40.7727 94.9412 41.676C96.7935 43.0773 98.6609 44.4632 100.438 45.9186C101.112 46.4706 101.55 46.4204 102.285 46.0112C103.941 45.0847 105.657 44.22 107.384 43.3707C108.808 42.6682 110.268 43.0928 110.585 44.3088C112.462 51.574 113.871 58.8777 113.368 66.3166C113.222 68.5016 112.754 70.6518 112.039 72.775C110.227 78.1408 105.431 81.1403 98.7716 82.6729C98.2129 82.8003 97.6491 82.9315 97.0804 83.0357C95.2382 83.3716 95.2382 83.3639 95.2382 84.8269V114.478C97.332 113.301 99.28 112.274 101.389 111.436C101.902 111.232 101.887 110.784 102.048 110.436C103.307 107.68 105.033 105.128 107.63 102.974C112.064 99.2955 117.551 97.8865 123.988 98.6199C126.017 98.8516 128.04 99.1256 130.064 99.3611C131.025 99.4731 131.725 99.8051 131.951 100.562C132.152 101.245 131.709 101.724 131.04 102.133C128.735 103.546 126.701 105.167 125.02 107.028C121.21 111.239 116.011 113.428 109.311 113.505C108.808 113.509 108.3 113.59 107.806 113.548C104.635 113.266 102.023 114.22 99.6021 115.656C98.2129 116.478 96.3405 117.076 95.6258 118.227C95.0016 119.226 95.4294 120.62 95.4244 121.84C95.4143 125.183 95.4245 128.53 95.4144 131.873C95.4144 132.255 95.4043 132.653 95.2886 133.019C95.0671 133.71 94.3825 134.004 93.5068 134C92.636 133.996 91.9414 133.707 91.7401 133.008C91.6243 132.606 91.6142 132.178 91.6142 131.765C91.6092 125.334 91.5991 118.902 91.6243 112.471C91.6243 111.865 91.4884 111.336 90.9951 110.857C90.2653 110.151 89.6059 109.406 88.8258 108.734C86.6161 106.831 84.3008 105.244 80.5107 105.522C78.0394 105.7 75.4926 105.391 73.0615 104.839C69.1506 103.951 66.2665 101.99 63.8707 99.5619C61.9127 97.5738 59.7031 95.7864 57.1764 94.2269C56.4214 93.7636 55.8023 93.2155 56.059 92.4241C56.3258 91.598 57.2771 91.4706 58.2183 91.3548C60.1209 91.1232 62.0084 90.8259 63.916 90.6252C72.2411 89.745 79.1971 92.4781 83.4905 98.2841C84.5676 99.7394 85.4384 101.26 86.0826 102.862C86.2034 103.156 86.2336 103.484 86.6514 103.685C88.4231 104.534 89.9935 105.58 91.3978 106.785L91.3927 106.769ZM110.293 63.8576C110.182 57.959 109.211 52.7166 108.078 47.4859C107.937 46.8412 107.61 46.957 107.107 47.2349C104.937 48.4355 102.718 49.5936 100.584 50.8328C91.5286 56.0983 83.8227 62.2555 78.8599 70.2233C78.6283 70.5939 78.3515 70.9143 78.4824 71.3891C80.2138 77.4923 87.6832 81.507 95.7465 80.3451C104.278 79.1136 107.942 75.8053 109.437 70.5553C110.122 68.1541 110.237 65.7182 110.288 63.8614L110.293 63.8576ZM77.4304 65.9808C78.4622 64.6837 79.3078 63.5449 80.2491 62.4563C83.0174 59.2483 86.4149 56.465 90.1244 53.8979C90.6428 53.5389 90.8844 53.3536 90.1495 52.9212C86.9584 51.049 83.7925 49.1574 80.4453 47.4511C80.1584 47.3044 79.9068 47.0458 79.4689 47.1307C77.9539 53.2995 77.0327 59.4954 77.4354 65.9769L77.4304 65.9808ZM126.208 101.654C116.348 99.7201 108.873 104.024 106.372 110.606C108.149 110.525 109.9 110.475 111.642 110.359C115.482 110.104 118.512 108.711 120.918 106.437C122.604 104.847 124.185 103.187 126.208 101.654ZM62.3557 93.837C64.9176 95.6822 66.6289 98.0061 69.1557 99.7935C72.2813 102.005 78.0948 103.264 82.2372 102.6C80.7624 99.5889 78.6535 96.9446 75.1151 95.1147C71.2394 93.1112 66.9863 92.9723 62.3557 93.837ZM98.6055 48.2386C97.0955 47.0921 95.6056 45.9765 94.146 44.8415C93.8037 44.5752 93.5923 44.5752 93.25 44.8454C91.9414 45.88 90.6126 46.8991 89.2586 47.9028C88.8358 48.2155 88.9113 48.3699 89.3392 48.6247C90.6579 49.4083 91.9464 50.2228 93.24 51.0335C93.5218 51.2111 93.7333 51.3153 94.0906 51.0837C95.5553 50.1379 97.0502 49.2153 98.6055 48.2386Z" fill="#DB9099"/>
<path d="M1.79667 225.861C0.784981 225.861 0 225.199 0 224.405C0 223.61 0.802424 222.948 1.79667 222.948H15.3149V219.585C15.3149 218.724 16.2743 218.062 17.4953 218.062C18.7163 218.062 19.6756 218.724 19.6756 219.585V222.948H33.1939C34.2056 222.948 34.9904 223.61 34.9904 224.405C34.9904 225.199 34.1881 225.861 33.1939 225.861H1.79667ZM2.93039 212.513C2.93039 209.997 5.32014 207.932 8.45986 207.932H25.7981C26.9319 207.932 27.804 207.164 27.804 206.157C27.804 205.151 26.9319 204.383 25.7981 204.383H8.12845C6.33183 204.383 4.48287 203.88 3.64561 202.635C3.10488 201.84 3.34907 200.887 4.39564 200.41C5.40733 199.96 6.6632 200.185 7.32603 200.953C7.65745 201.337 8.25051 201.523 8.96567 201.523H26.5481C29.6879 201.523 32.0775 203.562 32.0775 206.065C32.0775 208.567 29.6879 210.607 26.5481 210.607H9.2099C8.07611 210.607 7.20392 211.401 7.20392 212.421C7.20392 213.44 8.07611 214.235 9.2099 214.235H30.56C31.5717 214.235 32.2693 214.897 32.2693 215.665C32.2693 216.433 31.5542 217.095 30.56 217.095H8.45986C5.32014 217.095 2.93039 215.029 2.93039 212.513Z" fill="#DB9099"/>
<path d="M43.8688 215.122C40.6942 215.122 38.8453 213.719 38.8453 211.309V203.814C37.8336 203.814 37.0486 203.205 37.0486 202.45C37.0486 201.695 37.851 201.086 38.8453 201.086H52.3286C53.5496 201.086 54.5089 201.814 54.5089 202.741V213.48C54.5089 214.407 53.5496 215.136 52.3286 215.136H43.8688V215.122ZM69.4924 224.524C70.5041 224.524 71.289 225.16 71.289 225.954C71.289 226.749 70.4867 227.385 69.4924 227.385H46.9736C43.799 227.385 41.95 225.981 41.95 223.571V219.122C41.95 218.261 42.9094 217.599 44.1304 217.599C45.3514 217.599 46.3108 218.261 46.3108 219.122V223.253C46.3108 224.074 46.9038 224.524 47.9853 224.524H69.5099H69.4924ZM43.0315 211.11C43.0315 211.931 43.6246 212.381 44.706 212.381H50.3227V203.814H43.0315V211.123V211.11ZM62.2013 207.588H65.9689V201.523C65.9689 200.662 66.9283 200 68.097 200C69.2657 200 70.225 200.662 70.225 201.523V218.777C70.225 219.638 69.2657 220.3 68.097 220.3C66.9283 220.3 65.9689 219.638 65.9689 218.777V210.448H62.2013V217.983C62.2013 218.843 61.2768 219.506 60.1081 219.506C58.9395 219.506 58.015 218.843 58.015 217.983V201.682C58.015 200.821 58.9395 200.159 60.1081 200.159C61.2768 200.159 62.2013 200.821 62.2013 201.682V207.588Z" fill="#DB9099"/>
<path d="M81.4582 211.176C81.4582 211.997 82.0513 212.448 83.1327 212.448H98.4126C99.4243 212.448 100.209 213.057 100.209 213.851C100.209 214.646 99.4069 215.255 98.4126 215.255H82.121C78.9464 215.255 77.0974 213.851 77.0974 211.441V203.867C76.0858 203.867 75.3008 203.258 75.3008 202.463C75.3008 201.668 76.1032 201.059 77.0974 201.059H95.2729C96.2846 201.059 97.0696 201.668 97.0696 202.463C97.0696 203.258 96.2672 203.867 95.2729 203.867H81.4582V211.176ZM80.586 221.095C79.5743 221.095 78.7894 220.459 78.7894 219.664C78.7894 218.87 79.5918 218.234 80.586 218.234H105.32C106.541 218.234 107.5 218.963 107.5 219.89V226.312C107.5 227.173 106.541 227.835 105.32 227.835C104.099 227.835 103.14 227.173 103.14 226.312V221.095H80.5686H80.586ZM84.1443 209.428C83.2199 209.428 82.5047 208.859 82.5047 208.091C82.5047 207.323 83.2199 206.753 84.1443 206.753H94.6101C95.5345 206.753 96.2497 207.323 96.2497 208.091C96.2497 208.859 95.5345 209.428 94.6101 209.428H84.1443ZM107.5 215.626C107.5 216.486 106.541 217.148 105.32 217.148C104.099 217.148 103.14 216.486 103.14 215.626V201.523C103.14 200.662 104.099 200 105.32 200C106.541 200 107.5 200.662 107.5 201.523V215.639V215.626Z" fill="#DB9099"/>
<path d="M127.246 221.042C127.246 221.863 127.839 222.313 128.92 222.313H138.252C139.264 222.313 140.049 222.922 140.049 223.717C140.049 224.511 139.246 225.12 138.252 225.12H127.996C124.821 225.12 122.972 223.717 122.972 221.306V204.184C121.961 204.184 121.176 203.575 121.176 202.781C121.176 201.986 121.978 201.377 122.972 201.377H137.031C138.043 201.377 138.828 201.986 138.828 202.781C138.828 203.575 138.025 204.184 137.031 204.184H127.228V221.028L127.246 221.042ZM146.346 225.557C146.346 226.418 145.421 227.08 144.253 227.08C143.084 227.08 142.159 226.418 142.159 225.557V214.434H136.473C135.461 214.434 134.676 213.798 134.676 213.004C134.676 212.209 135.479 211.574 136.473 211.574H142.159V201.682C142.159 200.821 143.084 200.159 144.253 200.159C145.421 200.159 146.346 200.821 146.346 201.682V225.557ZM154.387 225.875C154.387 226.736 153.428 227.398 152.259 227.398C151.09 227.398 150.131 226.736 150.131 225.875V201.523C150.131 200.662 151.09 200 152.259 200C153.428 200 154.387 200.662 154.387 201.523V225.875Z" fill="#DB9099"/>
<path d="M171.045 201.708C176.365 201.708 180.848 204.476 180.848 208.131V219.439C180.848 223.094 176.365 225.862 171.045 225.862C165.725 225.862 161.242 223.094 161.242 219.439V208.131C161.242 207.045 161.626 206.065 162.289 205.204C162.882 204.436 164.138 204.158 165.132 204.595C166.178 205.045 166.51 206.025 165.934 206.793C165.69 207.177 165.516 207.747 165.516 208.25V219.307C165.516 221.399 167.905 222.988 171.045 222.988C174.185 222.988 176.574 221.399 176.574 219.307V208.263C176.574 206.171 174.185 204.582 171.045 204.582H168.987C167.277 204.582 165.812 204.105 164.8 203.125C164.05 202.397 164.138 201.377 165.097 200.808C166.056 200.238 167.434 200.397 168.115 201.059C168.533 201.47 169.039 201.721 169.824 201.721H171.045V201.708ZM191.645 225.862C191.645 226.722 190.686 227.385 189.465 227.385C188.244 227.385 187.284 226.722 187.284 225.862V201.523C187.284 200.662 188.244 200 189.465 200C190.686 200 191.645 200.662 191.645 201.523V225.875V225.862Z" fill="#DB9099"/>
</svg>
