<svg width="1039" height="654" viewBox="0 0 1039 654" fill="none" xmlns="http://www.w3.org/2000/svg">
<path d="M264.544 72.1907V228.361H506.095V0H340.904C298.731 0 264.544 32.3202 264.544 72.1907ZM430.575 138.951C407.877 176.039 369.347 194.981 344.267 181.338C319.187 167.694 317.366 126.499 339.923 89.543C362.621 52.4542 401.152 33.5124 426.232 47.1558C451.312 60.7991 453.133 101.994 430.575 138.951Z" fill="#E16877"/>
<path d="M520.806 0V228.361H762.357V72.1907C762.357 32.3202 728.17 0 685.997 0H520.806ZM714.719 124.247H667.362L700.848 155.905C705.052 159.879 705.052 166.237 700.848 170.211C696.645 174.185 689.92 174.185 685.716 170.211L652.23 138.553V183.325C652.23 188.888 647.466 193.392 641.582 193.392C635.697 193.392 630.933 188.888 630.933 183.325V138.553L597.447 170.211C593.243 174.185 586.518 174.185 582.315 170.211C578.111 166.237 578.111 159.879 582.315 155.905L615.801 124.247H568.444C562.559 124.247 557.795 119.744 557.795 114.181C557.795 108.617 562.559 104.114 568.444 104.114H615.801L582.315 72.4556C578.111 68.4818 578.111 62.1237 582.315 58.1499C586.518 54.1761 593.243 54.1761 597.447 58.1499L630.933 89.8079V45.0364C630.933 39.4731 635.697 34.9694 641.582 34.9694C647.466 34.9694 652.23 39.4731 652.23 45.0364V89.8079L685.716 58.1499C689.92 54.1761 696.645 54.1761 700.848 58.1499C705.052 62.1237 705.052 68.4818 700.848 72.4556L667.362 104.114H714.719C720.604 104.114 725.368 108.617 725.368 114.181C725.368 119.744 720.604 124.247 714.719 124.247Z" fill="#C60B16"/>
<path d="M264.544 247.302V403.472C264.544 443.343 298.731 475.663 340.904 475.663H506.095V247.302H264.544ZM449.77 413.407C441.504 426.653 426.092 434.203 410.119 434.203C402.553 434.203 394.707 432.481 387.561 428.904C382.377 426.255 380.416 420.295 383.078 415.394C385.88 410.492 392.185 408.638 397.369 411.155C409.559 417.248 424.831 413.672 431.276 403.207C437.581 393.008 432.537 379.762 424.27 373.404C420.627 370.622 416.284 369.032 411.94 368.37C408.438 376.318 402.273 386.12 392.605 389.166C384.759 391.551 377.613 390.623 372.99 386.517C365.704 380.027 367.806 369.297 370.888 363.734C374.951 356.449 384.058 351.018 395.968 348.899C398.49 336.182 396.388 324.791 390.503 318.433C384.619 312.207 374.391 308.366 363.322 308.763C348.891 309.028 335.02 315.651 325.632 326.778C321.989 331.149 315.264 331.811 310.78 328.367C306.157 324.923 305.456 318.565 309.099 314.327C322.41 298.564 342.025 289.159 362.902 288.762C380.415 288.762 396.668 294.59 406.476 305.319C416.144 315.784 420.067 331.679 417.545 349.031C425.111 350.488 431.976 353.535 437.721 357.906C452.993 369.827 461.68 393.803 449.49 413.407H449.77Z" fill="#C60B16"/>
<path d="M520.806 247.302V475.663H685.997C728.17 475.663 762.357 443.343 762.357 403.472V247.302H520.806ZM691.601 306.909C674.227 324.526 642.702 364.661 653.211 417.91C654.192 422.679 649.568 426.785 644.524 426.123L595.205 419.367C592.263 418.97 589.881 417.115 589.04 414.466C584.136 400.426 574.609 353.005 632.755 290.351C634.436 288.497 637.238 287.57 639.9 287.967L687.118 295.12C693.142 296.047 695.804 302.935 691.601 307.174V306.909Z" fill="#E16877"/>
<path d="M962.433 0C962.433 42.6521 933.571 77.0917 897.983 77.0917C862.394 77.0917 833.532 42.6521 833.532 0H777.207V228.361H1018.76V0H962.433Z" fill="#FFCB46"/>
<path d="M962.433 247.302C962.433 289.954 933.571 324.393 897.983 324.393C862.394 324.393 833.532 289.821 833.532 247.302H777.207V475.663H1018.76V247.302H962.433Z" fill="#06564E"/>
<path d="M249.694 0H8.14282V228.361H56.6211C56.6211 207.697 74.4152 190.875 96.2725 190.875H140.688C200.795 190.875 249.694 144.779 249.694 87.821V0Z" fill="#06564E"/>
<path d="M8.14282 247.302V475.663H56.6211C56.6211 454.999 74.4152 438.177 96.2725 438.177H155.539C207.52 438.177 249.694 398.306 249.694 349.164V247.302H8.14282Z" fill="#FFCB46"/>
<path d="M48.9622 615.229C46.472 617.58 47.0771 622.33 46.9375 625.73C46.8909 631.434 46.7513 636.999 49.5905 641.097C50.3353 643.356 59.4581 652.576 55.0596 652.902C43.3302 653.158 14.5421 652.972 4.39525 653.019C-3.81996 653.717 1.69563 648.245 3.32471 643.915C4.04616 642.238 4.23234 641.12 4.25561 639.444C4.13925 625.148 4.53488 565.494 4.09271 551.896C3.69707 548.31 -1.88834 542.326 0.718186 539.788C8.30504 535.271 30.3209 526.796 40.8168 521.86C42.4691 521.301 44.0749 519.974 45.5644 520.859C47.1469 524.025 42.9579 533.013 51.0334 527.867C73.8173 513.454 105.445 522.651 110.751 553.875C113.381 569.15 109.192 586.31 98.2069 596.997C87.0593 608.313 70.4427 613.529 55.2225 613.855C53.1978 613.971 50.7774 613.925 49.2415 615.066L49.032 615.229H48.9622ZM48.3804 539.905C45.8204 541.558 47.2866 550.243 46.9142 554.69C47.0771 567.147 46.5651 584.727 47.1469 596.182C47.5658 600.886 52.6858 607.149 58.0385 604.774C62.5068 602.795 65.7882 596.252 67.4639 586.31C70.2566 573.317 69.6748 529.893 48.5666 539.742L48.3571 539.905H48.3804Z" fill="black"/>
<path d="M118.152 567.357C117.593 537.088 144.822 521.069 171.772 521.534C189.947 521.558 209.939 528.17 219.62 544.702C232.862 568.591 223.134 600.071 196.836 609.199C165.116 621.888 117.337 608.36 118.128 567.916V567.381L118.152 567.357ZM181.825 570.827C181.453 559.813 182.221 542.327 176.31 532.827C173.354 528.589 167.676 528.845 165.139 534.503C162.346 540.883 162.253 548.66 161.857 555.552C161.578 565.378 161.625 572.48 162.323 582.352C163.114 589.593 163.347 597.021 167.559 602.912C170.585 606.684 175.961 606.218 178.358 600.793C181.965 592.131 181.569 580.35 181.802 571.222V570.85L181.825 570.827Z" fill="black"/>
<path d="M232.909 567.357C232.35 537.088 259.602 521.068 286.552 521.511C304.728 521.534 324.719 528.147 334.4 544.678C347.642 568.568 337.914 600.048 311.616 609.175C279.896 621.865 232.117 608.337 232.909 567.893V567.357ZM296.606 570.826C296.233 559.813 297.001 542.327 291.09 532.827C288.134 528.589 282.456 528.845 279.919 534.503C277.126 540.883 277.033 548.66 276.638 555.552C276.358 565.378 276.405 572.48 277.103 582.352C277.894 589.593 278.127 597.021 282.34 602.912C285.365 606.684 290.741 606.218 293.138 600.793C296.745 592.131 296.35 580.35 296.582 571.222V570.85L296.606 570.826Z" fill="black"/>
<path d="M517.02 610.968C517.02 612.505 515.437 612.621 514.041 612.691C505.477 612.784 480.645 612.714 470.428 612.714C469.172 612.714 467.38 612.691 466.588 612.039C464.913 610.619 467.915 606.707 469.148 602.935C470.103 600.211 470.079 597.626 470.079 594.692C470.079 586.566 470.079 573.271 470.079 563.864C469.986 556.646 470.382 552.385 469.544 548.311C469.079 546.238 467.985 544.352 466.239 543.095C461.329 539.532 453.323 542.536 453.858 549.149C453.742 559.533 453.812 587.335 453.812 597.3C453.742 600.676 454.766 603.727 456.302 606.684C460.049 613.646 456.302 612.714 448.18 612.737C437.684 612.737 417.995 612.784 410.176 612.691C403.799 612.9 408.896 606.66 409.803 603.587C411.176 600.141 410.944 597.137 410.944 591.2C410.944 583.446 410.944 575.297 410.944 567.543C410.362 559.277 412.596 551.012 408.756 544.725C406.429 541.465 401.658 540.79 398.214 542.536C395.095 544.096 394.56 547.03 394.653 552.106V564.679C394.653 577.09 394.606 591.759 394.676 598.022C394.606 601.747 396.398 605.147 397.934 608.383C398.353 609.501 399.005 610.851 398.377 611.806C397.865 612.481 396.724 612.621 395.77 612.668C388.486 612.784 369.705 612.691 359.698 612.714C346.944 612.621 345.618 614.111 350.668 603.564C352.064 600.001 351.785 596.811 351.808 590.478C351.436 577.672 352.599 563.911 351.273 551.431C350.179 546.611 345.571 541.744 349.062 539.23C355.439 535.691 362.49 533.269 369.332 530.079C375.663 527.355 386.228 522.582 391.046 520.742C391.884 520.486 392.605 520.323 393.21 520.789C394.909 523.653 392.396 530.428 393.606 533.269C394.327 535.202 395.84 534.317 397.655 533.176C408.756 523.816 426.606 517.622 440.314 523.28C445.946 524.864 448.785 532.175 454.301 533.223C459.141 532.873 462.935 527.984 467.426 526.167C476.526 521.278 489.745 519.625 498.262 522.768C519.301 530.172 511.481 564.656 512.947 582.561C513.273 589.267 511.993 598.651 514.227 603.936C515.065 606.171 516.694 608.5 517.043 610.782V610.991L517.02 610.968Z" fill="black"/>
<path d="M570.919 615.229C568.429 617.581 569.034 622.331 568.894 625.73C568.848 631.435 568.708 637 571.548 641.098C572.292 643.356 581.415 652.577 577.017 652.903C565.287 653.159 536.499 652.972 526.352 653.019C518.137 653.717 523.653 648.246 525.282 643.915C526.003 642.238 526.189 641.121 526.213 639.444C526.096 625.148 526.492 565.494 526.05 551.896C525.654 548.311 520.069 542.327 522.675 539.789C530.262 535.295 552.278 526.82 562.774 521.907C564.426 521.348 566.032 520.021 567.498 520.905C569.081 524.072 564.892 533.06 572.967 527.914C595.751 513.501 627.378 522.698 632.661 553.922C635.291 569.196 631.102 586.357 620.117 597.044C608.97 608.36 592.353 613.576 577.133 613.902C575.108 614.018 572.688 613.972 571.152 615.113L570.942 615.276L570.919 615.229ZM570.337 539.905C567.777 541.558 569.244 550.243 568.871 554.691C569.034 567.147 568.522 584.727 569.104 596.183C569.523 600.886 574.643 607.149 579.996 604.774C584.464 602.795 587.745 596.252 589.421 586.31C592.19 573.318 591.632 529.893 570.524 539.742L570.314 539.905H570.337Z" fill="black"/>
<path d="M640.085 567.357C639.527 537.088 666.756 521.068 693.729 521.511C711.904 521.534 731.896 528.147 741.577 544.678C754.819 568.568 745.091 600.048 718.793 609.175C687.073 621.865 639.294 608.337 640.085 567.893V567.357ZM703.782 570.826C703.41 559.813 704.178 542.327 698.267 532.827C695.311 528.589 689.633 528.845 687.096 534.503C682.418 547.589 683.861 561.583 683.861 575.227C684.606 584.378 684.233 595.158 689.516 602.889C692.542 606.661 697.918 606.195 700.315 600.77C703.922 592.108 703.526 580.326 703.759 571.199V570.826H703.782Z" fill="black"/>
<path d="M754.866 567.357C754.307 537.088 781.536 521.068 808.509 521.511C826.685 521.534 846.676 528.147 856.357 544.678C869.599 568.568 859.871 600.048 833.573 609.175C801.853 621.865 754.074 608.337 754.866 567.893V567.357ZM818.563 570.826C818.19 559.813 818.958 542.327 813.047 532.827C810.091 528.589 804.413 528.845 801.876 534.503C797.198 547.589 798.641 561.583 798.641 575.227C799.386 584.378 799.014 595.158 804.297 602.889C807.322 606.661 812.698 606.195 815.095 600.77C818.702 592.108 818.307 580.326 818.539 571.199V570.826H818.563Z" fill="black"/>
<path d="M1038.98 610.968C1038.98 612.505 1037.39 612.621 1036 612.691C1027.43 612.784 1002.6 612.714 992.385 612.714C991.129 612.714 989.337 612.691 988.545 612.039C986.87 610.619 989.872 606.707 991.105 602.935C992.06 600.211 992.036 597.626 992.036 594.692C992.036 586.566 992.036 573.271 992.036 563.864C991.943 556.646 992.339 552.385 991.501 548.311C991.036 546.238 989.942 544.352 988.196 543.095C983.286 539.532 975.28 542.536 975.815 549.149C975.699 559.533 975.769 587.335 975.769 597.3C975.699 600.676 976.723 603.727 978.259 606.684C982.006 613.646 978.259 612.714 970.137 612.737C959.641 612.737 939.952 612.784 932.133 612.691C925.756 612.9 930.853 606.66 931.76 603.587C933.133 600.141 932.901 597.137 932.901 591.2C932.901 583.446 932.901 575.297 932.901 567.543C932.319 559.277 934.553 551.012 930.713 544.725C928.386 541.465 923.615 540.79 920.171 542.536C917.052 544.096 916.517 547.03 916.61 552.106V564.679C916.61 577.09 916.563 591.759 916.633 598.022C916.563 601.747 918.355 605.147 919.891 608.383C920.31 609.501 920.962 610.851 920.334 611.806C919.822 612.481 918.681 612.621 917.727 612.668C910.443 612.784 891.662 612.691 881.655 612.714C868.901 612.621 867.575 614.111 872.625 603.564C874.021 600.001 873.742 596.811 873.765 590.478C873.393 577.672 874.556 563.911 873.23 551.431C872.136 546.611 867.528 541.744 871.019 539.23C877.396 535.691 884.447 533.269 891.289 530.079C897.62 527.355 908.185 522.582 913.003 520.742C913.841 520.486 914.562 520.323 915.167 520.789C916.866 523.653 914.353 530.428 915.563 533.269C916.284 535.202 917.797 534.317 919.612 533.176C930.713 523.816 948.563 517.622 962.271 523.28C967.903 524.864 970.742 532.175 976.258 533.223C981.098 532.873 984.892 527.984 989.383 526.167C998.483 521.278 1011.7 519.625 1020.22 522.768C1041.26 530.172 1033.44 564.656 1034.9 582.561C1035.23 589.267 1033.95 598.651 1036.18 603.936C1037.02 606.171 1038.65 608.5 1039 610.782V610.991L1038.98 610.968Z" fill="black"/>
</svg>
