<svg width="171" height="227" viewBox="0 0 171 227" fill="none" xmlns="http://www.w3.org/2000/svg">
<path d="M168.5 86C168.5 132.13 131.326 169.5 85.5 169.5C39.6741 169.5 2.5 132.13 2.5 86C2.5 39.8705 39.6741 2.5 85.5 2.5C131.326 2.5 168.5 39.8705 168.5 86Z" stroke="#DB9099" stroke-width="5"/>
<path d="M83.6441 71.2364C82.1747 70.5693 81.1046 69.5195 80.2766 68.1591C78.9643 66.0007 78.8661 63.8194 79.9232 61.5531C80.8493 59.5647 82.1224 57.7988 83.4903 56.1048C84.567 54.7672 86.8185 54.5939 87.9312 55.8726C89.7703 57.9852 91.4786 60.2417 92.2509 63.0018C93.1182 66.1021 91.2037 69.8106 88.1635 71.1579C87.9279 71.2626 87.6169 71.2495 87.45 71.5569C90.6048 72.1325 93.3407 73.4799 95.4155 75.9391C98.2462 79.2945 98.9597 83.0193 97.0779 87.0876C96.875 87.5225 97.0452 87.7907 97.2055 88.1243C99.1527 92.1729 99.4799 96.2935 97.4313 100.375C95.6609 103.897 92.5127 105.62 88.7853 106.431C88.1995 106.559 87.6039 106.713 87.0148 106.709C86.3145 106.706 86.2458 107.033 86.2556 107.609C86.285 109.296 86.3014 110.987 86.249 112.674C86.2294 113.348 86.4061 113.538 87.0934 113.534C94.5057 113.508 101.921 113.518 109.334 113.518C111.569 113.518 113.804 113.508 116.039 113.521C117.243 113.528 117.855 114.077 117.823 115.055C117.796 115.804 117.322 116.334 116.576 116.422C116.307 116.455 116.033 116.445 115.761 116.445C95.674 116.445 75.5871 116.445 55.5001 116.445C54.0929 116.445 53.3795 115.948 53.3926 114.98C53.4025 114.018 54.1322 113.515 55.5263 113.515C64.5193 113.515 73.5156 113.505 82.5085 113.531C83.1827 113.531 83.379 113.381 83.3561 112.691C83.3004 110.977 83.3136 109.26 83.3529 107.543C83.366 107.007 83.1892 106.857 82.6787 106.827C80.1948 106.69 77.8713 105.983 75.6918 104.79C73.9181 103.822 72.9461 102.34 72.9461 100.303C72.9363 93.2227 72.9396 86.1392 72.9461 79.059C72.9461 77.051 74.0555 75.6284 75.5314 74.4642C77.7175 72.7408 80.2308 71.7728 82.9896 71.4294C83.1958 71.4032 83.4314 71.4621 83.6572 71.2266L83.6441 71.2364ZM75.8129 89.6907C75.8129 93.0657 75.8391 96.4406 75.7998 99.8156C75.7867 101.052 76.2547 101.856 77.3805 102.396C82.0013 104.616 86.645 104.486 91.2593 102.481C93.357 101.572 94.7446 99.8777 95.3631 97.6702C96.2565 94.4817 95.962 91.424 94.0639 88.6213C93.596 87.928 93.5926 87.3034 94.0115 86.5807C95.8769 83.366 95.4319 80.0466 92.8269 77.4206C88.7068 73.2706 80.9933 73.1986 76.7848 77.2538C76.114 77.9013 75.7932 78.624 75.7998 79.5626C75.8292 82.9376 75.8096 86.3125 75.8096 89.6875L75.8129 89.6907ZM89.5314 64.686C89.5281 64.1857 89.4922 63.8685 89.3776 63.5545C88.6413 61.5662 87.3781 59.8983 86.1345 58.2207C85.9022 57.91 85.7123 57.9623 85.5029 58.2468C84.3477 59.7904 83.2776 61.3765 82.4234 63.1228C81.4646 65.0785 83.1009 68.0152 84.9662 68.581C85.7942 68.8328 86.5927 68.7576 87.3159 68.2997C88.6969 67.4233 89.3874 66.125 89.5347 64.6893L89.5314 64.686Z" fill="#DB9099"/>
<path d="M44.0134 89.0759C44.0134 84.7722 43.9774 80.4685 44.0233 76.1648C44.0625 72.4464 48.055 70.154 51.3014 71.9559C52.9246 72.8552 53.8115 74.2745 53.8409 76.1419C53.8802 78.5913 53.8736 81.044 53.8409 83.4968C53.8344 84.0822 54.0013 84.2195 54.5674 84.2097C56.7469 84.177 58.9297 84.1803 61.1093 84.2097C61.6361 84.2162 61.8031 84.0854 61.7965 83.536C61.7671 81.1683 61.7638 78.7974 61.79 76.4264C61.8194 73.8821 63.3837 71.9068 65.6778 71.4555C68.8129 70.8374 71.6044 73.0809 71.6469 76.2988C71.6829 78.8595 71.6535 81.4201 71.6535 83.9808C71.6535 89.9196 71.6633 95.8552 71.6502 101.794C71.6437 104.433 69.991 106.395 67.4515 106.843C64.7582 107.318 62.0027 105.283 61.8521 102.546C61.7147 100.022 61.7605 97.4806 61.7998 94.9494C61.8129 94.1808 61.5806 94.0108 60.8508 94.0271C58.7269 94.0762 56.5997 94.0631 54.4726 94.0304C53.9555 94.0239 53.8344 94.1776 53.8409 94.6746C53.8638 97.1274 53.8704 99.5768 53.8409 102.03C53.8115 104.636 51.8741 106.683 49.2757 106.906C46.8442 107.115 44.5567 105.359 44.079 102.886C43.9971 102.465 44.0036 102.02 44.0036 101.585C43.9971 97.4184 44.0036 93.2488 44.0036 89.0824H44.0069L44.0134 89.0759ZM68.7179 89.1838C68.7179 85.6159 68.7179 82.048 68.7179 78.4801C68.7179 77.7182 68.7507 76.9529 68.7016 76.1942C68.6264 75.0692 67.8114 74.2974 66.7479 74.2745C65.6941 74.2516 64.8793 74.9973 64.7418 76.1288C64.7091 76.397 64.7091 76.6717 64.7091 76.9431C64.7091 79.7228 64.7123 82.4993 64.7058 85.2791C64.7025 86.6363 64.1888 87.1333 62.8143 87.1366C59.7348 87.1399 56.6553 87.1366 53.5758 87.1366C51.1476 87.1366 50.9251 86.9142 50.9251 84.4713C50.9251 81.7733 50.9415 79.0786 50.9186 76.3806C50.9022 74.8174 49.5801 73.8919 48.1925 74.4217C47.4038 74.7226 46.9555 75.4126 46.9522 76.4329C46.9456 84.903 46.9489 93.3731 46.9522 101.846C46.9522 102.01 46.9555 102.173 46.9849 102.334C47.178 103.475 48.3038 104.191 49.4263 103.894C50.4178 103.632 50.9186 102.939 50.9251 101.752C50.9349 98.8639 50.9251 95.9762 50.9284 93.0886C50.9284 91.6137 51.4225 91.1068 52.8788 91.1068C56.1775 91.1035 59.473 91.1035 62.7717 91.1068C64.2346 91.1068 64.7091 91.594 64.7123 93.0853C64.7156 95.8356 64.7123 98.5859 64.7156 101.34C64.7156 101.693 64.732 102.049 64.7941 102.396C64.9218 103.128 65.3669 103.609 66.0705 103.848C67.4941 104.329 68.7179 103.351 68.7212 101.689C68.731 97.5231 68.7245 93.3534 68.7245 89.1871L68.7179 89.1838Z" fill="#DB9099"/>
<path d="M113.228 71.6841C114.334 72.0177 115.414 72.2728 116.445 72.6652C122.051 74.8007 125.104 79.0162 126.125 84.7948C126.77 88.4313 126.685 92.0745 125.582 95.6195C123.681 101.738 119.423 105.234 113.195 106.425C110.207 106.997 107.177 107.02 104.156 106.882C101.486 106.761 99.4931 104.619 99.4898 101.941C99.4734 93.3924 99.4734 84.8406 99.4898 76.292C99.4964 73.4861 101.637 71.3604 104.48 71.3309C106.326 71.3113 108.175 71.2328 110.018 71.4454C110.198 71.465 110.505 71.5926 110.574 71.3081C110.643 71.0301 110.322 71.0039 110.149 70.9025C106.676 68.8521 105.462 64.9375 107.193 61.3238C108.103 59.4238 109.334 57.7232 110.656 56.0979C111.801 54.6884 114.118 54.6492 115.283 56.0292C116.811 57.841 118.173 59.7901 119.083 61.991C120.84 66.2358 117.908 71.102 113.235 71.6776L113.228 71.6841ZM102.422 89.1116C102.422 93.3335 102.415 97.5522 102.422 101.774C102.422 103.082 103.188 103.955 104.435 103.965C107.046 103.985 109.667 104.116 112.263 103.658C117.077 102.808 120.699 100.407 122.479 95.6947C123.671 92.5421 123.73 89.262 123.357 85.9557C122.702 80.1869 119.256 76.2593 113.634 74.8498C110.741 74.1238 107.796 74.2742 104.857 74.2611C103.168 74.2546 102.425 75.0068 102.422 76.6975C102.422 80.8377 102.422 84.9746 102.422 89.1148V89.1116ZM116.71 64.5222C116.684 64.2867 116.697 64.0284 116.622 63.8027C115.905 61.6868 114.576 59.9274 113.254 58.1713C113.038 57.8835 112.852 58.0012 112.678 58.2334C111.507 59.7999 110.427 61.4089 109.559 63.1781C108.682 64.9637 110.155 67.9985 112.187 68.597C112.983 68.8292 113.761 68.7474 114.462 68.3027C115.843 67.4295 116.54 66.1377 116.713 64.5189L116.71 64.5222Z" fill="#DB9099"/>
<path d="M57.8367 71.6419C54.97 71.6419 52.2178 69.3101 51.3996 66.1935C51.0102 64.7154 51.1444 63.2862 51.7662 61.8964C52.7185 59.7707 54.0242 57.8641 55.4903 56.0752C56.5474 54.7835 58.776 54.5971 59.8755 55.8365C61.8652 58.0767 63.6652 60.5 64.3557 63.4955C65.2197 67.2466 61.6558 71.6353 57.8367 71.6386V71.6419ZM54.1192 64.3818C54.1192 65.9123 55.0977 67.5867 56.3543 68.316C57.0481 68.7182 57.791 68.8294 58.5535 68.6266C60.6217 68.0707 62.0486 65.255 61.2566 63.2666C60.5137 61.4091 59.3192 59.8263 58.1313 58.2369C57.8401 57.8477 57.6469 58.0407 57.4473 58.3089C56.3543 59.7641 55.294 61.2423 54.525 62.9004C54.2959 63.3909 54.0897 63.8978 54.1159 64.3851L54.1192 64.3818Z" fill="#DB9099"/>
<path d="M79.8381 94.8253C79.8381 93.7886 79.8283 92.7552 79.8381 91.7185C79.8512 90.6425 80.3781 90.0899 81.4286 90.0833C84.0467 90.0702 86.6614 90.0899 89.2795 90.0735C89.9176 90.0702 90.3627 90.3417 90.7357 90.8224C91.9891 92.4379 92.2117 95.5774 91.1841 97.3401C90.7031 98.1675 90.0191 98.7692 89.1191 99.1126C86.4945 100.107 83.8143 100.238 81.0981 99.5737C80.1818 99.3481 79.8447 98.8739 79.8349 97.932C79.8251 96.8954 79.8349 95.8619 79.8349 94.8253H79.8381ZM82.7737 94.9168C82.7737 95.4335 82.7966 95.9535 82.7671 96.4669C82.7442 96.8496 82.862 96.9706 83.2547 97.0033C84.5147 97.1145 85.7582 97.0262 86.9854 96.7515C88.7788 96.3492 89.3776 95.1523 88.7558 93.3831C88.6315 93.0331 88.4384 93.0135 88.1537 93.0168C86.9822 93.0233 85.8139 93.0168 84.6423 93.0168C83.3987 93.0168 82.777 93.6501 82.777 94.9168H82.7737Z" fill="#DB9099"/>
<path d="M84.8614 86.0476C83.7193 86.0476 82.5772 86.0607 81.4318 86.0444C80.3715 86.028 79.8511 85.4917 79.8413 84.419C79.8282 83.2221 79.8512 82.0252 79.8348 80.8315C79.825 80.1317 80.1326 79.6607 80.7151 79.2977C83.1499 77.777 87.4468 78.0452 89.6525 79.87C91.6095 81.4888 91.652 83.8434 89.7637 85.4819C89.3088 85.8743 88.8212 86.0771 88.2092 86.0574C87.0933 86.028 85.9774 86.0476 84.8614 86.0476ZM85.3359 83.1338C86.0428 83.1338 86.7529 83.1338 87.4598 83.1338C87.7314 83.1338 88.0391 83.1828 88.1635 82.8591C88.2878 82.5419 88.0456 82.3456 87.8296 82.1821C86.3832 81.0997 84.7633 80.9754 83.1008 81.4627C82.4136 81.6621 82.8619 82.362 82.7931 82.8231C82.7277 83.2875 83.1499 83.1174 83.3789 83.124C84.0302 83.1469 84.6847 83.1305 85.3392 83.1305L85.3359 83.1338Z" fill="#DB9099"/>
<path d="M109.193 78.2839C110.535 78.3035 111.853 78.4736 113.153 78.8137C116.239 79.6215 118.241 81.5444 119.03 84.6414C119.711 87.3165 119.796 90.0341 119.203 92.7321C118.346 96.6368 115.666 99.0699 111.637 99.7338C110.449 99.93 109.255 99.9954 108.054 99.9692C106.974 99.9464 106.421 99.4329 106.418 98.357C106.401 92.2023 106.401 86.0476 106.418 79.8929C106.418 78.8104 106.971 78.3101 108.044 78.2839C108.424 78.2741 108.807 78.2839 109.19 78.2839H109.193ZM109.34 89.0988C109.34 91.5188 109.337 93.9421 109.347 96.3621C109.347 96.6237 109.196 97.0096 109.723 96.9835C112.992 96.8167 115.551 95.6557 116.32 92.199C116.746 90.2892 116.736 88.3597 116.438 86.44C116.108 84.2947 115.139 82.5843 112.956 81.8191C112.001 81.4823 111.009 81.3449 110.001 81.2501C109.425 81.1945 109.324 81.4038 109.33 81.9205C109.353 84.3143 109.34 86.7082 109.34 89.1021V89.0988Z" fill="#DB9099"/>
<path d="M55.8301 206.714L50.8852 211.456C50.0859 212.204 48.6545 212.303 47.7993 211.767C46.8141 211.16 46.7769 210.172 47.4833 209.466L52.4839 204.696C53.2461 203.991 54.6217 203.878 55.514 204.456C56.4435 205.063 56.4993 206.079 55.8301 206.728V206.714ZM59.2692 226.458C54.7147 226.458 51.0525 223.946 51.0525 220.531C51.0525 217.115 54.7147 214.603 59.2692 214.603H74.3454C78.8999 214.603 82.562 217.115 82.562 220.531C82.562 223.946 78.8999 226.458 74.3454 226.458H59.2692ZM67.0397 209.114C67.7461 209.819 67.7089 210.807 66.7236 211.414C65.8685 211.95 64.4557 211.851 63.6377 211.103L56.8153 204.569C55.7 203.483 54.9935 202.509 54.9935 201.182V199.079C54.9935 198.162 55.9788 197.456 57.2615 197.456C58.5442 197.456 59.5294 198.162 59.5294 199.079V200.914C59.5294 201.591 59.7153 202.1 60.1615 202.537L67.0397 209.114ZM59.6409 217.581C57.1499 217.581 55.6256 218.795 55.6256 220.531C55.6256 222.267 57.1499 223.48 59.6409 223.48H74.0108C76.5018 223.48 78.0261 222.267 78.0261 220.531C78.0261 218.795 76.5018 217.581 74.0108 217.581H59.6409ZM73.5646 203.553H77.58V198.628C77.58 197.711 78.6024 197.005 79.8479 197.005C81.0935 197.005 82.1159 197.711 82.1159 198.628V212.345C82.1159 213.263 81.0935 213.968 79.8479 213.968C78.6024 213.968 77.58 213.263 77.58 212.345V206.616H73.5646V211.499C73.5646 212.416 72.5794 213.122 71.3339 213.122C70.0884 213.122 69.1031 212.416 69.1031 211.499V198.797C69.1031 197.88 70.0884 197.174 71.3339 197.174C72.5794 197.174 73.5646 197.88 73.5646 198.797V203.567V203.553Z" fill="#DB9099"/>
<path d="M98.0846 201.267C96.2628 201.267 94.7013 200.9 93.6231 199.841C92.8237 199.065 92.9167 197.978 93.9391 197.372C94.9615 196.765 96.4301 196.934 97.1551 197.64C97.6013 198.077 98.1404 198.345 98.9769 198.345H102.286C107.194 198.345 111.209 200.984 111.209 204.64C111.209 208.295 107.194 210.934 102.286 210.934H97.4711C92.5635 210.934 88.5481 208.295 88.5481 204.64C88.5481 203.285 89.0872 202.198 89.8494 201.281C90.4814 200.505 91.8571 200.265 92.8423 200.702C93.9577 201.21 94.1436 202.156 93.6417 202.904C93.3257 203.384 93.1026 203.892 93.1026 204.626C93.1026 206.658 94.8872 208.013 97.657 208.013H102.119C104.888 208.013 106.673 206.658 106.673 204.626C106.673 202.593 104.888 201.239 102.119 201.239H98.1032L98.0846 201.267ZM96.4301 226.472C93.4372 226.472 91.2064 224.75 91.2064 222.549C91.2064 220.347 93.4372 218.625 96.4301 218.625H116.247C117.102 218.625 117.715 218.188 117.715 217.539C117.715 216.889 117.083 216.452 116.247 216.452H93.493C92.4148 216.452 91.6712 215.803 91.6712 214.998C91.6712 214.194 92.4333 213.545 93.493 213.545H117.046C120.039 213.545 122.27 215.238 122.27 217.44C122.27 219.641 120.039 221.335 117.046 221.335H97.2295C96.3743 221.335 95.7609 221.815 95.7609 222.45C95.7609 223.085 96.3929 223.565 97.2295 223.565H120.876C121.954 223.565 122.697 224.214 122.697 225.018C122.697 225.823 121.935 226.472 120.876 226.472H96.4301ZM121.824 210.892C121.824 211.809 120.801 212.515 119.5 212.515C118.199 212.515 117.176 211.809 117.176 210.892V198.628C117.176 197.71 118.199 197.005 119.5 197.005C120.801 197.005 121.824 197.71 121.824 198.628V210.892Z" fill="#DB9099"/>
</svg>
