<svg width="413" height="495" viewBox="0 0 413 495" fill="none" xmlns="http://www.w3.org/2000/svg">
<rect x="70" y="54" width="168" height="168" rx="20" fill="#F2F2F2"/>
<rect x="245" y="54" width="168" height="168" rx="20" fill="#F2F2F2"/>
<rect x="70" y="230" width="168" height="167" rx="20" fill="#F2F2F2"/>
<rect x="245" y="230" width="168" height="167" rx="20" fill="#F2F2F2"/>
<path d="M83.888 438.576H86.48C86.48 446.928 83.664 454.608 73.296 459.76L71.856 457.712C81.008 453.2 83.888 446.736 83.888 438.864V438.576ZM73.424 438.576H85.456V440.72H73.424V438.576ZM83.472 445.744V447.792L72.4 448.88L71.984 446.512L83.472 445.744ZM91.152 435.536H93.84V464.496H91.152V435.536ZM93.104 447.28H98.448V449.488H93.104V447.28ZM113.038 446.512H118.478V448.72H113.038V446.512ZM102.094 455.376H103.95C108.398 455.376 111.054 455.28 114.254 454.64L114.51 456.816C111.214 457.456 108.462 457.552 103.95 457.552H102.094V455.376ZM102.094 439.056H112.814V441.2H104.622V456.112H102.094V439.056ZM103.854 446.864H111.502V448.976H103.854V446.864ZM123.022 435.568H125.582V464.496H123.022V435.568ZM117.198 436.24H119.726V463.024H117.198V436.24ZM133.227 438.448H151.851V440.656H133.227V438.448ZM130.475 458.256H156.619V460.464H130.475V458.256ZM140.619 447.92H143.275V459.344H140.619V447.92ZM150.859 438.448H153.483V441.328C153.483 444.912 153.483 448.88 152.427 454.736L149.771 454.384C150.859 448.848 150.859 444.784 150.859 441.328V438.448ZM180.969 435.536H183.625V464.528H180.969V435.536ZM161.577 455.344H163.977C168.809 455.344 173.129 455.152 178.249 454.32L178.537 456.496C173.289 457.36 168.937 457.552 163.977 457.552H161.577V455.344ZM161.513 438.256H174.889V448.592H164.233V456.176H161.577V446.416H172.201V440.432H161.513V438.256ZM189.318 449.008H215.558V451.024H189.318V449.008ZM192.422 453.36H212.262V459.536H195.142V462.928H192.518V457.712H209.67V455.248H192.422V453.36ZM192.518 462.224H213.19V464.144H192.518V462.224ZM192.646 436.4H212.166V442.416H195.334V445.552H192.71V440.624H209.574V438.288H192.646V436.4ZM192.71 444.912H212.71V446.832H192.71V444.912ZM239 453.968H241.624V464.528H239V453.968ZM227.256 453.04H253.4V455.248H227.256V453.04ZM238.968 440.528H241.304V441.264C241.304 446.256 235.896 449.936 229.816 450.864L228.888 448.752C234.104 448.048 238.968 444.88 238.968 441.264V440.528ZM239.32 440.528H241.624V441.264C241.624 444.848 246.52 448.048 251.704 448.752L250.744 450.864C244.696 449.968 239.32 446.192 239.32 441.264V440.528ZM229.784 439.12H250.872V441.296H229.784V439.12ZM239 435.568H241.624V439.888H239V435.568ZM276.246 435.536H278.934V464.496H276.246V435.536ZM278.198 447.28H283.542V449.488H278.198V447.28ZM268.854 438.672H271.446C271.446 446.896 267.67 454.32 258.326 459.024L256.854 456.976C264.854 452.912 268.854 446.736 268.854 439.088V438.672ZM258.198 438.672H270.23V440.848H258.198V438.672ZM286.067 440.496H300.403V442.672H286.067V440.496ZM293.235 444.592C296.851 444.592 299.475 447.312 299.475 451.216C299.475 455.088 296.851 457.808 293.235 457.808C289.651 457.808 287.027 455.088 287.027 451.216C287.027 447.312 289.651 444.592 293.235 444.592ZM293.235 446.864C291.027 446.864 289.427 448.656 289.427 451.216C289.427 453.776 291.027 455.568 293.235 455.568C295.475 455.568 297.107 453.776 297.107 451.216C297.107 448.656 295.475 446.864 293.235 446.864ZM308.051 435.568H310.611V464.496H308.051V435.568ZM303.443 447.728H308.915V449.936H303.443V447.728ZM301.875 436.208H304.371V463.088H301.875V436.208ZM291.955 436.4H294.579V441.84H291.955V436.4ZM327.153 438.416H329.457V439.632C329.457 444.816 323.953 448.624 318.129 449.616L317.105 447.504C322.193 446.768 327.153 443.44 327.153 439.632V438.416ZM327.825 438.416H330.097V439.632C330.097 443.44 335.089 446.768 340.145 447.504L339.153 449.616C333.297 448.624 327.825 444.816 327.825 439.632V438.416ZM327.249 453.456H329.873V464.496H327.249V453.456ZM315.569 452.048H341.713V454.224H315.569V452.048ZM318.001 437.36H339.185V439.504H318.001V437.36ZM356.398 445.904H361.934V448.112H356.398V445.904ZM350.99 438.288H353.07V443.792C353.07 449.84 350.542 455.696 346.318 458.288L344.654 456.272C348.622 453.936 350.99 448.752 350.99 443.792V438.288ZM351.502 438.288H353.55V443.696C353.55 448.336 355.726 453.264 359.534 455.568L357.998 457.648C353.838 455.088 351.502 449.328 351.502 443.696V438.288ZM367.022 435.568H369.582V464.496H367.022V435.568ZM361.166 436.176H363.662V463.056H361.166V436.176ZM380.844 450.448H383.468V459.12H380.844V450.448ZM391.532 450.448H394.188V459.12H391.532V450.448ZM374.444 458.608H400.652V460.816H374.444V458.608ZM387.5 437.392C393.612 437.392 397.996 440.304 397.996 444.848C397.996 449.36 393.612 452.272 387.5 452.272C381.356 452.272 376.972 449.36 376.972 444.848C376.972 440.304 381.356 437.392 387.5 437.392ZM387.5 439.504C382.86 439.504 379.532 441.616 379.532 444.848C379.532 448.048 382.86 450.16 387.5 450.16C392.14 450.16 395.436 448.048 395.436 444.848C395.436 441.616 392.14 439.504 387.5 439.504ZM408.849 438.727L408.554 455.307H405.406L405.111 438.727H408.849ZM406.986 462.216C406.357 462.216 405.819 461.996 405.372 461.557C404.925 461.11 404.705 460.572 404.713 459.943C404.705 459.322 404.925 458.792 405.372 458.352C405.819 457.905 406.357 457.682 406.986 457.682C407.599 457.682 408.13 457.905 408.577 458.352C409.024 458.792 409.251 459.322 409.259 459.943C409.251 460.36 409.141 460.742 408.929 461.091C408.724 461.432 408.452 461.705 408.111 461.909C407.77 462.114 407.395 462.216 406.986 462.216Z" fill="black"/>
<g filter="url(#filter0_d_4871_11)">
<path d="M23 29C23 22.9249 27.9249 18 34 18H65.6923C68.159 18 70.554 18.8291 72.4928 20.354L81.0072 27.051C82.946 28.5759 85.341 29.405 87.8077 29.405H157C163.075 29.405 168 34.3298 168 40.405V127C168 133.075 163.075 138 157 138H34C27.9249 138 23 133.075 23 127V29Z" fill="#C60B16"/>
<path d="M34 16.5C27.0964 16.5 21.5 22.0964 21.5 29V127C21.5 133.904 27.0964 139.5 34 139.5H157C163.904 139.5 169.5 133.904 169.5 127V40.405C169.5 33.5014 163.904 27.905 157 27.905H87.8077C85.6774 27.905 83.6089 27.189 81.9345 25.872L73.4202 19.175C71.217 17.4421 68.4953 16.5 65.6923 16.5H34Z" stroke="white" stroke-width="3"/>
</g>
<rect x="21.5" y="36.5" width="148" height="103" rx="12.5" fill="#C60B16" stroke="white" stroke-width="3"/>
<g filter="url(#filter1_d_4871_11)">
<path d="M128.488 93.0117H108.423L122.611 107.2C124.392 108.981 124.392 111.83 122.611 113.611C120.83 115.392 117.981 115.392 116.2 113.611L102.012 99.4231V119.488C102.012 121.982 99.9933 124 97.5 124C95.0067 124 92.9883 121.982 92.9883 119.488V99.4231L78.8002 113.611C77.0192 115.392 74.1697 115.392 72.3888 113.611C70.6079 111.83 70.6079 108.981 72.3888 107.2L86.5769 93.0117H66.5117C64.0184 93.0117 62 90.9933 62 88.5C62 86.0067 64.0184 83.9883 66.5117 83.9883H86.5769L72.3888 69.8002C70.6079 68.0192 70.6079 65.1697 72.3888 63.3888C74.1697 61.6079 77.0192 61.6079 78.8002 63.3888L92.9883 77.5769V57.5117C92.9883 55.0184 95.0067 53 97.5 53C99.9933 53 102.012 55.0184 102.012 57.5117V77.5769L116.2 63.3888C117.981 61.6079 120.83 61.6079 122.611 63.3888C124.392 65.1697 124.392 68.0192 122.611 69.8002L108.423 83.9883H128.488C130.982 83.9883 133 86.0067 133 88.5C133 90.9933 130.982 93.0117 128.488 93.0117Z" fill="white"/>
</g>
<defs>
<filter id="filter0_d_4871_11" x="0" y="0" width="191" height="166" filterUnits="userSpaceOnUse" color-interpolation-filters="sRGB">
<feFlood flood-opacity="0" result="BackgroundImageFix"/>
<feColorMatrix in="SourceAlpha" type="matrix" values="0 0 0 0 0 0 0 0 0 0 0 0 0 0 0 0 0 0 127 0" result="hardAlpha"/>
<feOffset dy="5"/>
<feGaussianBlur stdDeviation="10"/>
<feComposite in2="hardAlpha" operator="out"/>
<feColorMatrix type="matrix" values="0 0 0 0 0 0 0 0 0 0 0 0 0 0 0 0 0 0 0.25 0"/>
<feBlend mode="normal" in2="BackgroundImageFix" result="effect1_dropShadow_4871_11"/>
<feBlend mode="normal" in="SourceGraphic" in2="effect1_dropShadow_4871_11" result="shape"/>
</filter>
<filter id="filter1_d_4871_11" x="42" y="38" width="111" height="111" filterUnits="userSpaceOnUse" color-interpolation-filters="sRGB">
<feFlood flood-opacity="0" result="BackgroundImageFix"/>
<feColorMatrix in="SourceAlpha" type="matrix" values="0 0 0 0 0 0 0 0 0 0 0 0 0 0 0 0 0 0 127 0" result="hardAlpha"/>
<feOffset dy="5"/>
<feGaussianBlur stdDeviation="10"/>
<feComposite in2="hardAlpha" operator="out"/>
<feColorMatrix type="matrix" values="0 0 0 0 0 0 0 0 0 0 0 0 0 0 0 0 0 0 0.2 0"/>
<feBlend mode="normal" in2="BackgroundImageFix" result="effect1_dropShadow_4871_11"/>
<feBlend mode="normal" in="SourceGraphic" in2="effect1_dropShadow_4871_11" result="shape"/>
</filter>
</defs>
</svg>
