<svg width="191" height="166" viewBox="0 0 191 166" fill="none" xmlns="http://www.w3.org/2000/svg">
<g filter="url(#filter0_d_4588_78)">
<path d="M23 29C23 22.9249 27.9249 18 34 18H65.6923C68.159 18 70.554 18.8291 72.4928 20.354L81.0072 27.051C82.946 28.5759 85.341 29.405 87.8077 29.405H157C163.075 29.405 168 34.3298 168 40.405V127C168 133.075 163.075 138 157 138H34C27.9249 138 23 133.075 23 127V29Z" fill="#C60B16"/>
<path d="M34 16.5C27.0964 16.5 21.5 22.0964 21.5 29V127C21.5 133.904 27.0964 139.5 34 139.5H157C163.904 139.5 169.5 133.904 169.5 127V40.405C169.5 33.5014 163.904 27.905 157 27.905H87.8077C85.6774 27.905 83.6089 27.189 81.9345 25.872L73.4202 19.175C71.217 17.4421 68.4953 16.5 65.6923 16.5H34Z" stroke="white" stroke-width="3"/>
</g>
<rect x="21.5" y="36.5" width="148" height="103" rx="12.5" fill="#C60B16" stroke="white" stroke-width="3"/>
<g filter="url(#filter1_d_4588_78)">
<path d="M128.488 93.0117H108.423L122.611 107.2C124.392 108.981 124.392 111.83 122.611 113.611C120.83 115.392 117.981 115.392 116.2 113.611L102.012 99.4231V119.488C102.012 121.982 99.9933 124 97.5 124C95.0067 124 92.9883 121.982 92.9883 119.488V99.4231L78.8002 113.611C77.0192 115.392 74.1697 115.392 72.3888 113.611C70.6079 111.83 70.6079 108.981 72.3888 107.2L86.5769 93.0117H66.5117C64.0184 93.0117 62 90.9933 62 88.5C62 86.0067 64.0184 83.9883 66.5117 83.9883H86.5769L72.3888 69.8002C70.6079 68.0192 70.6079 65.1697 72.3888 63.3888C74.1697 61.6079 77.0192 61.6079 78.8002 63.3888L92.9883 77.5769V57.5117C92.9883 55.0184 95.0067 53 97.5 53C99.9933 53 102.012 55.0184 102.012 57.5117V77.5769L116.2 63.3888C117.981 61.6079 120.83 61.6079 122.611 63.3888C124.392 65.1697 124.392 68.0192 122.611 69.8002L108.423 83.9883H128.488C130.982 83.9883 133 86.0067 133 88.5C133 90.9933 130.982 93.0117 128.488 93.0117Z" fill="white"/>
</g>
<defs>
<filter id="filter0_d_4588_78" x="0" y="0" width="191" height="166" filterUnits="userSpaceOnUse" color-interpolation-filters="sRGB">
<feFlood flood-opacity="0" result="BackgroundImageFix"/>
<feColorMatrix in="SourceAlpha" type="matrix" values="0 0 0 0 0 0 0 0 0 0 0 0 0 0 0 0 0 0 127 0" result="hardAlpha"/>
<feOffset dy="5"/>
<feGaussianBlur stdDeviation="10"/>
<feComposite in2="hardAlpha" operator="out"/>
<feColorMatrix type="matrix" values="0 0 0 0 0 0 0 0 0 0 0 0 0 0 0 0 0 0 0.25 0"/>
<feBlend mode="normal" in2="BackgroundImageFix" result="effect1_dropShadow_4588_78"/>
<feBlend mode="normal" in="SourceGraphic" in2="effect1_dropShadow_4588_78" result="shape"/>
</filter>
<filter id="filter1_d_4588_78" x="42" y="38" width="111" height="111" filterUnits="userSpaceOnUse" color-interpolation-filters="sRGB">
<feFlood flood-opacity="0" result="BackgroundImageFix"/>
<feColorMatrix in="SourceAlpha" type="matrix" values="0 0 0 0 0 0 0 0 0 0 0 0 0 0 0 0 0 0 127 0" result="hardAlpha"/>
<feOffset dy="5"/>
<feGaussianBlur stdDeviation="10"/>
<feComposite in2="hardAlpha" operator="out"/>
<feColorMatrix type="matrix" values="0 0 0 0 0 0 0 0 0 0 0 0 0 0 0 0 0 0 0.2 0"/>
<feBlend mode="normal" in2="BackgroundImageFix" result="effect1_dropShadow_4588_78"/>
<feBlend mode="normal" in="SourceGraphic" in2="effect1_dropShadow_4588_78" result="shape"/>
</filter>
</defs>
</svg>
