<svg width="135" height="135" viewBox="0 0 135 135" fill="none" xmlns="http://www.w3.org/2000/svg">
<path d="M135 66.2576C135 102.197 104.779 131.332 67.5 131.332C30.2208 131.332 6.83817e-07 102.197 6.83817e-07 66.2576C6.83817e-07 30.318 30.2208 1.18311 67.5 1.18311C104.779 1.18311 135 30.318 135 66.2576Z" fill="black"/>
<path d="M105.576 67.7071C105.576 73.8868 91.6159 114.117 68.6738 99.9781C49.1829 114.117 32.8681 80.2616 34.1567 66.0044C32.1317 52.3979 42.7704 31.4725 68.6738 37.3124C103.52 27.0356 105.576 61.5275 105.576 67.7071Z" fill="white"/>
<path d="M130.398 59.0994C130.398 70.1427 121.276 79.095 110.025 79.095C98.7734 79.095 89.6522 70.1427 89.6522 59.0994C89.6522 48.0561 98.7734 39.1038 110.025 39.1038C121.276 39.1038 130.398 48.0561 130.398 59.0994Z" fill="black"/>
<path d="M78.4328 28.0401C75.1014 32.5717 66.4352 36.043 68.7933 34.058C66.7319 38.1574 67.523 27.0699 70.8544 22.5383C74.1857 18.0067 82.3162 15.3041 80.8573 17.6476C82.1675 15.5431 81.7642 23.5085 78.4328 28.0401Z" fill="white"/>
<ellipse cx="70.2307" cy="112.313" rx="14.4511" ry="12.9853" fill="black"/>
<rect width="0.797727" height="1.65644" transform="matrix(-1 0 0 1 26.3864 0)" fill="white"/>
<ellipse cx="4.62301" cy="1.65285" rx="4.62301" ry="1.65285" transform="matrix(-0.971221 0.238179 -0.255127 -0.966908 65.1086 105.005)" fill="black"/>
<ellipse cx="1.80587" cy="6.19283" rx="1.80587" ry="6.19283" transform="matrix(0.155117 -0.987896 0.989518 0.144407 75.5598 105.255)" fill="black"/>
</svg>
