<svg width="330" height="144" viewBox="0 0 330 144" fill="none" xmlns="http://www.w3.org/2000/svg">
<g filter="url(#filter0_f_4166_3)">
<path d="M106.25 28.8282H14.0097C10.1384 28.8282 7 31.8844 7 35.6542V123.126C7 126.896 10.1384 129.952 14.0097 129.952H106.25C110.121 129.952 113.26 126.896 113.26 123.126V35.6542C113.26 31.8844 110.121 28.8282 106.25 28.8282Z" fill="white" stroke="#767676" stroke-opacity="0.7" stroke-width="5" stroke-miterlimit="10"/>
<path d="M7 47.3748H113.26" stroke="#767676" stroke-opacity="0.7" stroke-width="5" stroke-miterlimit="10"/>
<path d="M27.0945 37.6732C26.0175 38.2759 24.8044 38.6165 23.517 38.6165C19.11 38.6165 15.5386 34.6324 15.5386 29.7201C15.5386 24.8078 19.11 20.8207 23.517 20.8207C27.599 20.8207 30.9661 24.2412 31.4365 28.6532" fill="white"/>
<path d="M27.0945 37.6732C26.0175 38.2759 24.8044 38.6165 23.517 38.6165C19.11 38.6165 15.5386 34.6324 15.5386 29.7201C15.5386 24.8078 19.11 20.8207 23.517 20.8207C27.599 20.8207 30.9661 24.2412 31.4365 28.6532" stroke="#767676" stroke-opacity="0.7" stroke-width="5" stroke-miterlimit="10" stroke-linecap="round"/>
<path d="M50.615 37.6731C49.5381 38.2759 48.3249 38.6164 47.0375 38.6164C42.6305 38.6164 39.0591 34.6323 39.0591 29.72C39.0591 24.8077 42.6305 20.8236 47.0375 20.8236C51.1195 20.8236 54.4866 24.2441 54.957 28.6562" fill="white"/>
<path d="M50.615 37.6731C49.5381 38.2759 48.3249 38.6164 47.0375 38.6164C42.6305 38.6164 39.0591 34.6323 39.0591 29.72C39.0591 24.8077 42.6305 20.8236 47.0375 20.8236C51.1195 20.8236 54.4866 24.2441 54.957 28.6562" stroke="#767676" stroke-opacity="0.7" stroke-width="5" stroke-miterlimit="10" stroke-linecap="round"/>
<path d="M74.1356 37.6731C73.0586 38.2759 71.8454 38.6164 70.558 38.6164C66.151 38.6164 62.5796 34.6323 62.5796 29.72C62.5796 24.8077 66.151 20.8236 70.558 20.8236C74.64 20.8236 78.0071 24.2441 78.4776 28.6562" fill="white"/>
<path d="M74.1356 37.6731C73.0586 38.2759 71.8454 38.6164 70.558 38.6164C66.151 38.6164 62.5796 34.6323 62.5796 29.72C62.5796 24.8077 66.151 20.8236 70.558 20.8236C74.64 20.8236 78.0071 24.2441 78.4776 28.6562" stroke="#767676" stroke-opacity="0.7" stroke-width="5" stroke-miterlimit="10" stroke-linecap="round"/>
<path d="M97.659 37.6731C96.582 38.2759 95.3688 38.6164 94.0814 38.6164C89.6744 38.6164 86.103 34.6323 86.103 29.72C86.103 24.8077 89.6744 20.8236 94.0814 20.8236C98.1634 20.8236 101.531 24.2441 102.001 28.6562" fill="white"/>
<path d="M97.659 37.6731C96.582 38.2759 95.3688 38.6164 94.0814 38.6164C89.6744 38.6164 86.103 34.6323 86.103 29.72C86.103 24.8077 89.6744 20.8236 94.0814 20.8236C98.1634 20.8236 101.531 24.2441 102.001 28.6562" stroke="#767676" stroke-opacity="0.7" stroke-width="5" stroke-miterlimit="10" stroke-linecap="round"/>
<g opacity="0.7">
<mask id="path-11-outside-1_4166_3" maskUnits="userSpaceOnUse" x="25.0781" y="72.2047" width="75" height="26" fill="black">
<rect fill="white" x="25.0781" y="72.2047" width="75" height="26"/>
<path d="M33.6236 96.2047H26.2301V74.3865H33.7727C35.9389 74.3865 37.7997 74.8233 39.3551 75.6969C40.9176 76.5634 42.1179 77.8098 42.956 79.4362C43.794 81.0627 44.2131 83.0087 44.2131 85.2743C44.2131 87.547 43.7905 89.5002 42.9453 91.1337C42.1072 92.7672 40.8963 94.0208 39.3125 94.8943C37.7358 95.7679 35.8395 96.2047 33.6236 96.2047ZM30.1825 92.785H33.4318C34.9517 92.785 36.2195 92.508 37.2351 91.954C38.2507 91.3929 39.0142 90.5584 39.5256 89.4505C40.0369 88.3354 40.2926 86.9433 40.2926 85.2743C40.2926 83.6053 40.0369 82.2203 39.5256 81.1195C39.0142 80.0115 38.2578 79.1841 37.2564 78.6372C36.2621 78.0833 35.0263 77.8063 33.549 77.8063H30.1825V92.785ZM53.7226 92.7104V77.9661H57.0678V92.7104H53.7226ZM48.023 87.0108V83.6656H62.7673V87.0108H48.023ZM66.8996 96.2047L76.1787 77.8382V77.6891H65.4081V74.3865H80.2696V77.7637L71.0011 96.2047H66.8996ZM90.5302 96.503C88.9961 96.503 87.6325 96.2402 86.4393 95.7147C85.2532 95.1891 84.3157 94.4576 83.6268 93.5201C82.9379 92.5826 82.5721 91.4995 82.5295 90.2708H86.5352C86.5707 90.8603 86.766 91.3752 87.1211 91.8155C87.4762 92.2487 87.9485 92.5861 88.538 92.8276C89.1275 93.0691 89.788 93.1898 90.5195 93.1898C91.3008 93.1898 91.9933 93.0549 92.597 92.785C93.2006 92.508 93.6729 92.1245 94.0139 91.6344C94.3548 91.1443 94.5217 90.5797 94.5146 89.9405C94.5217 89.28 94.3512 88.6976 94.0032 88.1933C93.6552 87.6891 93.1509 87.2949 92.4904 87.0108C91.837 86.7267 91.0487 86.5847 90.1254 86.5847H88.1971V83.5378H90.1254C90.8853 83.5378 91.5494 83.4064 92.1176 83.1436C92.6928 82.8808 93.1438 82.5115 93.4705 82.0357C93.7972 81.5527 93.957 80.9952 93.9499 80.3631C93.957 79.7452 93.8185 79.209 93.5345 78.7544C93.2575 78.2928 92.8633 77.9341 92.3519 77.6784C91.8477 77.4228 91.2546 77.2949 90.5728 77.2949C89.9052 77.2949 89.2873 77.4156 88.7191 77.6571C88.1509 77.8986 87.6928 78.2431 87.3448 78.6905C86.9968 79.1308 86.8122 79.6564 86.7908 80.2672H82.9876C83.016 79.0456 83.3676 77.9732 84.0423 77.0499C84.7241 76.1195 85.6332 75.3951 86.7695 74.8766C87.9059 74.351 89.1808 74.0882 90.5941 74.0882C92.0501 74.0882 93.3143 74.3617 94.3867 74.9085C95.4663 75.4483 96.3008 76.1763 96.8903 77.0925C97.4798 78.0087 97.7745 79.0208 97.7745 80.1287C97.7816 81.3574 97.4194 82.3872 96.6879 83.2182C95.9634 84.0492 95.0117 84.5925 93.8327 84.8482V85.0186C95.3668 85.2317 96.5423 85.7999 97.359 86.7232C98.1829 87.6394 98.5913 88.7793 98.5842 90.1429C98.5842 91.3645 98.2362 92.4583 97.5401 93.4242C96.8512 94.383 95.8995 95.1358 94.685 95.6827C93.4776 96.2296 92.0927 96.503 90.5302 96.503Z"/>
</mask>
<path d="M33.6236 96.2047H26.2301V74.3865H33.7727C35.9389 74.3865 37.7997 74.8233 39.3551 75.6969C40.9176 76.5634 42.1179 77.8098 42.956 79.4362C43.794 81.0627 44.2131 83.0087 44.2131 85.2743C44.2131 87.547 43.7905 89.5002 42.9453 91.1337C42.1072 92.7672 40.8963 94.0208 39.3125 94.8943C37.7358 95.7679 35.8395 96.2047 33.6236 96.2047ZM30.1825 92.785H33.4318C34.9517 92.785 36.2195 92.508 37.2351 91.954C38.2507 91.3929 39.0142 90.5584 39.5256 89.4505C40.0369 88.3354 40.2926 86.9433 40.2926 85.2743C40.2926 83.6053 40.0369 82.2203 39.5256 81.1195C39.0142 80.0115 38.2578 79.1841 37.2564 78.6372C36.2621 78.0833 35.0263 77.8063 33.549 77.8063H30.1825V92.785ZM53.7226 92.7104V77.9661H57.0678V92.7104H53.7226ZM48.023 87.0108V83.6656H62.7673V87.0108H48.023ZM66.8996 96.2047L76.1787 77.8382V77.6891H65.4081V74.3865H80.2696V77.7637L71.0011 96.2047H66.8996ZM90.5302 96.503C88.9961 96.503 87.6325 96.2402 86.4393 95.7147C85.2532 95.1891 84.3157 94.4576 83.6268 93.5201C82.9379 92.5826 82.5721 91.4995 82.5295 90.2708H86.5352C86.5707 90.8603 86.766 91.3752 87.1211 91.8155C87.4762 92.2487 87.9485 92.5861 88.538 92.8276C89.1275 93.0691 89.788 93.1898 90.5195 93.1898C91.3008 93.1898 91.9933 93.0549 92.597 92.785C93.2006 92.508 93.6729 92.1245 94.0139 91.6344C94.3548 91.1443 94.5217 90.5797 94.5146 89.9405C94.5217 89.28 94.3512 88.6976 94.0032 88.1933C93.6552 87.6891 93.1509 87.2949 92.4904 87.0108C91.837 86.7267 91.0487 86.5847 90.1254 86.5847H88.1971V83.5378H90.1254C90.8853 83.5378 91.5494 83.4064 92.1176 83.1436C92.6928 82.8808 93.1438 82.5115 93.4705 82.0357C93.7972 81.5527 93.957 80.9952 93.9499 80.3631C93.957 79.7452 93.8185 79.209 93.5345 78.7544C93.2575 78.2928 92.8633 77.9341 92.3519 77.6784C91.8477 77.4228 91.2546 77.2949 90.5728 77.2949C89.9052 77.2949 89.2873 77.4156 88.7191 77.6571C88.1509 77.8986 87.6928 78.2431 87.3448 78.6905C86.9968 79.1308 86.8122 79.6564 86.7908 80.2672H82.9876C83.016 79.0456 83.3676 77.9732 84.0423 77.0499C84.7241 76.1195 85.6332 75.3951 86.7695 74.8766C87.9059 74.351 89.1808 74.0882 90.5941 74.0882C92.0501 74.0882 93.3143 74.3617 94.3867 74.9085C95.4663 75.4483 96.3008 76.1763 96.8903 77.0925C97.4798 78.0087 97.7745 79.0208 97.7745 80.1287C97.7816 81.3574 97.4194 82.3872 96.6879 83.2182C95.9634 84.0492 95.0117 84.5925 93.8327 84.8482V85.0186C95.3668 85.2317 96.5423 85.7999 97.359 86.7232C98.1829 87.6394 98.5913 88.7793 98.5842 90.1429C98.5842 91.3645 98.2362 92.4583 97.5401 93.4242C96.8512 94.383 95.8995 95.1358 94.685 95.6827C93.4776 96.2296 92.0927 96.503 90.5302 96.503Z" fill="#696969" fill-opacity="0.7"/>
<path d="M26.2301 96.2047H25.2301V97.2047H26.2301V96.2047ZM26.2301 74.3865V73.3865H25.2301V74.3865H26.2301ZM39.3551 75.6969L38.8654 76.5688L38.8701 76.5714L39.3551 75.6969ZM42.956 79.4362L42.067 79.8943L42.956 79.4362ZM42.9453 91.1337L42.0571 90.6742L42.0556 90.6772L42.9453 91.1337ZM39.3125 94.8943L38.8295 94.0187L38.8279 94.0196L39.3125 94.8943ZM30.1825 92.785H29.1825V93.785H30.1825V92.785ZM37.2351 91.954L37.7139 92.8319L37.7186 92.8293L37.2351 91.954ZM39.5256 89.4505L40.4335 89.8695L40.4345 89.8673L39.5256 89.4505ZM39.5256 81.1195L38.6176 81.5385L38.6186 81.5408L39.5256 81.1195ZM37.2564 78.6372L36.7697 79.5108L36.7771 79.5149L37.2564 78.6372ZM30.1825 77.8063V76.8063H29.1825V77.8063H30.1825ZM33.6236 95.2047H26.2301V97.2047H33.6236V95.2047ZM27.2301 96.2047V74.3865H25.2301V96.2047H27.2301ZM26.2301 75.3865H33.7727V73.3865H26.2301V75.3865ZM33.7727 75.3865C35.804 75.3865 37.4885 75.7955 38.8654 76.5688L39.8448 74.825C38.1109 73.8512 36.0739 73.3865 33.7727 73.3865V75.3865ZM38.8701 76.5714C40.2554 77.3396 41.3172 78.4391 42.067 79.8943L43.8449 78.9782C42.9186 77.1806 41.5798 75.7871 39.8401 74.8224L38.8701 76.5714ZM42.067 79.8943C42.8168 81.3493 43.2131 83.1308 43.2131 85.2743H45.2131C45.2131 82.8866 44.7713 80.7761 43.8449 78.9782L42.067 79.8943ZM43.2131 85.2743C43.2131 87.4242 42.8135 89.2123 42.0571 90.6742L43.8335 91.5932C44.7675 89.7881 45.2131 87.6699 45.2131 85.2743H43.2131ZM42.0556 90.6772C41.3069 92.1365 40.2363 93.2428 38.8295 94.0187L39.7955 95.77C41.5563 94.7987 42.9076 93.3979 43.835 91.5902L42.0556 90.6772ZM38.8279 94.0196C37.4298 94.7942 35.7084 95.2047 33.6236 95.2047V97.2047C35.9706 97.2047 38.0417 96.7416 39.7971 95.7691L38.8279 94.0196ZM30.1825 93.785H33.4318V91.785H30.1825V93.785ZM33.4318 93.785C35.0682 93.785 36.5125 93.4872 37.7139 92.8319L36.7562 91.0761C35.9264 91.5287 34.8352 91.785 33.4318 91.785V93.785ZM37.7186 92.8293C38.9307 92.1597 39.8378 91.1602 40.4335 89.8695L38.6176 89.0314C38.1906 89.9566 37.5707 90.6261 36.7515 91.0787L37.7186 92.8293ZM40.4345 89.8673C41.0234 88.5833 41.2926 87.0383 41.2926 85.2743H39.2926C39.2926 86.8484 39.0505 88.0875 38.6166 89.0336L40.4345 89.8673ZM41.2926 85.2743C41.2926 83.5111 41.0236 81.9708 40.4325 80.6982L38.6186 81.5408C39.0502 82.4699 39.2926 83.6994 39.2926 85.2743H41.2926ZM40.4335 80.7004C39.8388 79.4119 38.939 78.4167 37.7357 77.7596L36.7771 79.5149C37.5767 79.9515 38.1896 80.6111 38.6176 81.5385L40.4335 80.7004ZM37.7431 77.7637C36.5621 77.1057 35.1473 76.8063 33.549 76.8063V78.8063C34.9053 78.8063 35.9621 79.0608 36.7697 79.5108L37.7431 77.7637ZM33.549 76.8063H30.1825V78.8063H33.549V76.8063ZM29.1825 77.8063V92.785H31.1825V77.8063H29.1825ZM53.7226 92.7104H52.7226V93.7104H53.7226V92.7104ZM53.7226 77.9661V76.9661H52.7226V77.9661H53.7226ZM57.0678 77.9661H58.0678V76.9661H57.0678V77.9661ZM57.0678 92.7104V93.7104H58.0678V92.7104H57.0678ZM48.023 87.0108H47.023V88.0108H48.023V87.0108ZM48.023 83.6656V82.6656H47.023V83.6656H48.023ZM62.7673 83.6656H63.7673V82.6656H62.7673V83.6656ZM62.7673 87.0108V88.0108H63.7673V87.0108H62.7673ZM54.7226 92.7104V77.9661H52.7226V92.7104H54.7226ZM53.7226 78.9661H57.0678V76.9661H53.7226V78.9661ZM56.0678 77.9661V92.7104H58.0678V77.9661H56.0678ZM57.0678 91.7104H53.7226V93.7104H57.0678V91.7104ZM49.023 87.0108V83.6656H47.023V87.0108H49.023ZM48.023 84.6656H62.7673V82.6656H48.023V84.6656ZM61.7673 83.6656V87.0108H63.7673V83.6656H61.7673ZM62.7673 86.0108H48.023V88.0108H62.7673V86.0108ZM66.8996 96.2047L66.007 95.7538L65.274 97.2047H66.8996V96.2047ZM76.1787 77.8382L77.0712 78.2892L77.1787 78.0765V77.8382H76.1787ZM76.1787 77.6891H77.1787V76.6891H76.1787V77.6891ZM65.4081 77.6891H64.4081V78.6891H65.4081V77.6891ZM65.4081 74.3865V73.3865H64.4081V74.3865H65.4081ZM80.2696 74.3865H81.2696V73.3865H80.2696V74.3865ZM80.2696 77.7637L81.1631 78.2127L81.2696 78.0008V77.7637H80.2696ZM71.0011 96.2047V97.2047H71.6177L71.8946 96.6538L71.0011 96.2047ZM67.7921 96.6557L77.0712 78.2892L75.2861 77.3873L66.007 95.7538L67.7921 96.6557ZM77.1787 77.8382V77.6891H75.1787V77.8382H77.1787ZM76.1787 76.6891H65.4081V78.6891H76.1787V76.6891ZM66.4081 77.6891V74.3865H64.4081V77.6891H66.4081ZM65.4081 75.3865H80.2696V73.3865H65.4081V75.3865ZM79.2696 74.3865V77.7637H81.2696V74.3865H79.2696ZM79.3761 77.3146L70.1076 95.7556L71.8946 96.6538L81.1631 78.2127L79.3761 77.3146ZM71.0011 95.2047H66.8996V97.2047H71.0011V95.2047ZM86.4393 95.7147L86.0342 96.6289L86.0362 96.6298L86.4393 95.7147ZM83.6268 93.5201L84.4326 92.9279L83.6268 93.5201ZM82.5295 90.2708V89.2708H81.4942L81.5301 90.3054L82.5295 90.2708ZM86.5352 90.2708L87.5334 90.2106L87.4767 89.2708H86.5352V90.2708ZM87.1211 91.8155L86.3427 92.4433L86.3477 92.4494L87.1211 91.8155ZM88.538 92.8276L88.1589 93.7529L88.538 92.8276ZM92.597 92.785L93.0051 93.6979L93.014 93.6939L92.597 92.785ZM94.0139 91.6344L93.193 91.0633L94.0139 91.6344ZM94.5146 89.9405L93.5146 89.9298L93.5145 89.9407L93.5146 89.9516L94.5146 89.9405ZM94.0032 88.1933L93.1802 88.7614L94.0032 88.1933ZM92.4904 87.0108L92.0917 87.9279L92.0953 87.9295L92.4904 87.0108ZM88.1971 86.5847H87.1971V87.5847H88.1971V86.5847ZM88.1971 83.5378V82.5378H87.1971V83.5378H88.1971ZM92.1176 83.1436L91.702 82.234L91.6978 82.236L92.1176 83.1436ZM93.4705 82.0357L94.295 82.6017L94.2988 82.596L93.4705 82.0357ZM93.9499 80.3631L92.95 80.3516L92.9499 80.363L92.95 80.3743L93.9499 80.3631ZM93.5345 78.7544L92.677 79.2689L92.6816 79.2767L92.6865 79.2844L93.5345 78.7544ZM92.3519 77.6784L91.8997 78.5703L91.9047 78.5729L92.3519 77.6784ZM88.7191 77.6571L89.1103 78.5775L88.7191 77.6571ZM87.3448 78.6905L88.1294 79.3106L88.1342 79.3044L87.3448 78.6905ZM86.7908 80.2672V81.2672H87.7566L87.7902 80.3021L86.7908 80.2672ZM82.9876 80.2672L81.9879 80.244L81.9641 81.2672H82.9876V80.2672ZM84.0423 77.0499L83.2357 76.4588L83.2349 76.4599L84.0423 77.0499ZM86.7695 74.8766L87.1846 75.7864L87.1893 75.7842L86.7695 74.8766ZM94.3867 74.9085L93.9324 75.7994L93.9395 75.803L94.3867 74.9085ZM96.8903 77.0925L96.0493 77.6336L96.8903 77.0925ZM97.7745 80.1287H96.7745L96.7745 80.1345L97.7745 80.1287ZM96.6879 83.2182L95.9373 82.5574L95.9341 82.5611L96.6879 83.2182ZM93.8327 84.8482L93.6208 83.8709L92.8327 84.0418V84.8482H93.8327ZM93.8327 85.0186H92.8327V85.8893L93.6952 86.0091L93.8327 85.0186ZM97.359 86.7232L96.61 87.3858L96.6154 87.3918L97.359 86.7232ZM98.5842 90.1429L97.5842 90.1377V90.1429H98.5842ZM97.5401 93.4242L96.7288 92.8396L96.728 92.8407L97.5401 93.4242ZM94.685 95.6827L94.2744 94.7709L94.2724 94.7718L94.685 95.6827ZM90.5302 95.503C89.1107 95.503 87.8881 95.2601 86.8424 94.7995L86.0362 96.6298C87.3768 97.2203 88.8815 97.503 90.5302 97.503V95.503ZM86.8444 94.8004C85.7989 94.3371 85.0068 93.7093 84.4326 92.9279L82.821 94.1122C83.6246 95.2058 84.7075 96.041 86.0342 96.6289L86.8444 94.8004ZM84.4326 92.9279C83.8698 92.162 83.5649 91.2758 83.5289 90.2361L81.5301 90.3054C81.5793 91.7231 82.006 93.0031 82.821 94.1122L84.4326 92.9279ZM82.5295 91.2708H86.5352V89.2708H82.5295V91.2708ZM85.537 90.3309C85.5844 91.1181 85.8511 91.8337 86.3427 92.4433L87.8995 91.1878C87.6808 90.9166 87.557 90.6024 87.5334 90.2106L85.537 90.3309ZM86.3477 92.4494C86.8217 93.0278 87.4372 93.4573 88.1589 93.7529L88.9171 91.9022C88.4599 91.7149 88.1307 91.4697 87.8945 91.1816L86.3477 92.4494ZM88.1589 93.7529C88.8852 94.0505 89.6771 94.1898 90.5195 94.1898V92.1898C89.8989 92.1898 89.3698 92.0876 88.9171 91.9022L88.1589 93.7529ZM90.5195 94.1898C91.4163 94.1898 92.2518 94.0346 93.0051 93.6979L92.1888 91.872C91.7347 92.0751 91.1853 92.1898 90.5195 92.1898V94.1898ZM93.014 93.6939C93.7613 93.351 94.3806 92.8583 94.8348 92.2055L93.193 91.0633C92.9652 91.3907 92.64 91.665 92.1799 91.8761L93.014 93.6939ZM94.8348 92.2055C95.303 91.5323 95.5238 90.761 95.5145 89.9294L93.5146 89.9516C93.5196 90.3984 93.4065 90.7563 93.193 91.0633L94.8348 92.2055ZM95.5145 89.9513C95.5237 89.1012 95.3009 88.3131 94.8262 87.6253L93.1802 88.7614C93.4016 89.0821 93.5197 89.4588 93.5146 89.9298L95.5145 89.9513ZM94.8262 87.6253C94.354 86.9411 93.6884 86.4375 92.8855 86.0922L92.0953 87.9295C92.6135 88.1523 92.9564 88.4371 93.1802 88.7614L94.8262 87.6253ZM92.8891 86.0938C92.0786 85.7413 91.147 85.5847 90.1254 85.5847V87.5847C90.9503 87.5847 91.5954 87.7121 92.0917 87.9279L92.8891 86.0938ZM90.1254 85.5847H88.1971V87.5847H90.1254V85.5847ZM89.1971 86.5847V83.5378H87.1971V86.5847H89.1971ZM88.1971 84.5378H90.1254V82.5378H88.1971V84.5378ZM90.1254 84.5378C90.9998 84.5378 91.8125 84.3865 92.5373 84.0513L91.6978 82.236C91.2862 82.4263 90.7708 82.5378 90.1254 82.5378V84.5378ZM92.533 84.0532C93.257 83.7225 93.8559 83.2411 94.2949 82.6017L92.6461 81.4697C92.4317 81.7819 92.1287 82.0392 91.7021 82.234L92.533 84.0532ZM94.2988 82.596C94.7493 81.9301 94.9591 81.1695 94.9499 80.3519L92.95 80.3743C92.955 80.8209 92.8452 81.1753 92.6423 81.4754L94.2988 82.596ZM94.9499 80.3746C94.9588 79.5953 94.7827 78.8649 94.3825 78.2244L92.6865 79.2844C92.8544 79.5531 92.9553 79.8951 92.95 80.3516L94.9499 80.3746ZM94.3919 78.2399C94.011 77.6049 93.4696 77.1192 92.7991 76.784L91.9047 78.5729C92.257 78.749 92.504 78.9806 92.677 79.2689L94.3919 78.2399ZM92.8042 76.7865C92.1337 76.4466 91.3798 76.2949 90.5728 76.2949V78.2949C91.1295 78.2949 91.5616 78.3989 91.8997 78.5703L92.8042 76.7865ZM90.5728 76.2949C89.7818 76.2949 89.0296 76.4386 88.328 76.7368L89.1103 78.5775C89.545 78.3927 90.0286 78.2949 90.5728 78.2949V76.2949ZM88.328 76.7368C87.6175 77.0388 87.0171 77.483 86.5555 78.0766L88.1342 79.3044C88.3685 79.0031 88.6844 78.7585 89.1103 78.5775L88.328 76.7368ZM86.5603 78.0705C86.0682 78.693 85.8195 79.4286 85.7915 80.2323L87.7902 80.3021C87.8048 79.8843 87.9254 79.5687 88.1294 79.3106L86.5603 78.0705ZM86.7908 79.2672H82.9876V81.2672H86.7908V79.2672ZM83.9873 80.2905C84.0113 79.2582 84.3038 78.3868 84.8497 77.6399L83.2349 76.4599C82.4313 77.5595 82.0207 78.833 81.9879 80.244L83.9873 80.2905ZM84.8489 77.641C85.4213 76.8598 86.1906 76.2399 87.1846 75.7864L86.3545 73.9668C85.0757 74.5502 84.0269 75.3791 83.2357 76.4588L84.8489 77.641ZM87.1893 75.7842C88.1781 75.3269 89.307 75.0882 90.5941 75.0882V73.0882C89.0545 73.0882 87.6337 73.3751 86.3498 73.969L87.1893 75.7842ZM90.5941 75.0882C91.9249 75.0882 93.0272 75.3378 93.9324 75.7994L94.841 74.0177C93.6014 73.3856 92.1753 73.0882 90.5941 73.0882V75.0882ZM93.9395 75.803C94.8763 76.2714 95.5672 76.8843 96.0493 77.6336L97.7312 76.5514C97.0344 75.4683 96.0563 74.6253 94.8339 74.0141L93.9395 75.803ZM96.0493 77.6336C96.5331 78.3855 96.7745 79.2092 96.7745 80.1287H98.7745C98.7745 78.8323 98.4264 77.6318 97.7312 76.5514L96.0493 77.6336ZM96.7745 80.1345C96.7804 81.147 96.4886 81.9312 95.9373 82.5574L97.4384 83.879C98.3502 82.8433 98.7828 81.5679 98.7745 80.1229L96.7745 80.1345ZM95.9341 82.5611C95.3646 83.2143 94.6104 83.6563 93.6208 83.8709L94.0447 85.8255C95.4131 85.5287 96.5623 84.884 97.4416 83.8753L95.9341 82.5611ZM92.8327 84.8482V85.0186H94.8327V84.8482H92.8327ZM93.6952 86.0091C95.0554 86.198 95.9887 86.6834 96.61 87.3858L98.108 86.0606C97.0958 84.9164 95.6783 84.2654 93.9703 84.0281L93.6952 86.0091ZM96.6154 87.3918C97.2548 88.1028 97.5901 88.9941 97.5842 90.1377L99.5842 90.1481C99.5924 88.5645 99.111 87.1759 98.1026 86.0545L96.6154 87.3918ZM97.5842 90.1429C97.5842 91.1605 97.2988 92.0486 96.7288 92.8396L98.3514 94.0088C99.1735 92.8679 99.5842 91.5685 99.5842 90.1429H97.5842ZM96.728 92.8407C96.1544 93.639 95.3495 94.2868 94.2744 94.7709L95.0956 96.5945C96.4495 95.9849 97.5481 95.1269 98.3522 94.0077L96.728 92.8407ZM94.2724 94.7718C93.2158 95.2504 91.9756 95.503 90.5302 95.503V97.503C92.2098 97.503 93.7395 97.2088 95.0976 96.5936L94.2724 94.7718Z" fill="#767676" fill-opacity="0.7" mask="url(#path-11-outside-1_4166_3)"/>
</g>
</g>
<g filter="url(#filter1_f_4166_3)">
<path d="M297.434 28.5574H208.315C204.575 28.5574 201.542 31.5101 201.542 35.1525V119.665C201.542 123.307 204.575 126.26 208.315 126.26H297.434C301.175 126.26 304.207 123.307 304.207 119.665V35.1525C304.207 31.5101 301.175 28.5574 297.434 28.5574Z" fill="white" stroke="#767676" stroke-opacity="0.7" stroke-width="5" stroke-miterlimit="10"/>
<path d="M201.542 46.4764H304.207" stroke="#767676" stroke-opacity="0.7" stroke-width="5" stroke-miterlimit="10"/>
<path d="M220.957 37.103C219.916 37.6853 218.744 38.0144 217.5 38.0144C213.243 38.0144 209.792 34.1651 209.792 29.419C209.792 24.6729 213.243 20.8207 217.5 20.8207C221.444 20.8207 224.698 24.1255 225.152 28.3882" fill="white"/>
<path d="M220.957 37.103C219.916 37.6853 218.744 38.0144 217.5 38.0144C213.243 38.0144 209.792 34.1651 209.792 29.419C209.792 24.6729 213.243 20.8207 217.5 20.8207C221.444 20.8207 224.698 24.1255 225.152 28.3882" stroke="#767676" stroke-opacity="0.7" stroke-width="5" stroke-miterlimit="10" stroke-linecap="round"/>
<path d="M243.682 37.1026C242.641 37.685 241.469 38.014 240.225 38.014C235.967 38.014 232.517 34.1647 232.517 29.4186C232.517 24.6725 235.967 20.8232 240.225 20.8232C244.169 20.8232 247.422 24.128 247.877 28.3908" fill="white"/>
<path d="M243.682 37.1026C242.641 37.685 241.469 38.014 240.225 38.014C235.967 38.014 232.517 34.1647 232.517 29.4186C232.517 24.6725 235.967 20.8232 240.225 20.8232C244.169 20.8232 247.422 24.128 247.877 28.3908" stroke="#767676" stroke-opacity="0.7" stroke-width="5" stroke-miterlimit="10" stroke-linecap="round"/>
<path d="M266.406 37.1026C265.366 37.685 264.194 38.014 262.95 38.014C258.692 38.014 255.241 34.1647 255.241 29.4186C255.241 24.6725 258.692 20.8232 262.95 20.8232C266.894 20.8232 270.147 24.128 270.601 28.3908" fill="white"/>
<path d="M266.406 37.1026C265.366 37.685 264.194 38.014 262.95 38.014C258.692 38.014 255.241 34.1647 255.241 29.4186C255.241 24.6725 258.692 20.8232 262.95 20.8232C266.894 20.8232 270.147 24.128 270.601 28.3908" stroke="#767676" stroke-opacity="0.7" stroke-width="5" stroke-miterlimit="10" stroke-linecap="round"/>
<path d="M289.134 37.1026C288.093 37.685 286.921 38.014 285.677 38.014C281.419 38.014 277.969 34.1647 277.969 29.4186C277.969 24.6725 281.419 20.8232 285.677 20.8232C289.621 20.8232 292.874 24.128 293.329 28.3908" fill="white"/>
<path d="M289.134 37.1026C288.093 37.685 286.921 38.014 285.677 38.014C281.419 38.014 277.969 34.1647 277.969 29.4186C277.969 24.6725 281.419 20.8232 285.677 20.8232C289.621 20.8232 292.874 24.128 293.329 28.3908" stroke="#767676" stroke-opacity="0.7" stroke-width="5" stroke-miterlimit="10" stroke-linecap="round"/>
<path d="M230.394 93.2346H223V71.4164H230.543C232.709 71.4164 234.57 71.8532 236.125 72.7268C237.688 73.5933 238.888 74.8397 239.726 76.4662C240.564 78.0926 240.983 80.0386 240.983 82.3042C240.983 84.5769 240.561 86.5301 239.715 88.1636C238.877 89.7971 237.666 91.0507 236.083 91.9242C234.506 92.7978 232.61 93.2346 230.394 93.2346ZM226.953 89.8149H230.202C231.722 89.8149 232.989 89.5379 234.005 88.9839C235.021 88.4228 235.784 87.5883 236.296 86.4804C236.807 85.3653 237.063 83.9733 237.063 82.3042C237.063 80.6352 236.807 79.2502 236.296 78.1494C235.784 77.0414 235.028 76.214 234.026 75.6671C233.032 75.1132 231.796 74.8362 230.319 74.8362H226.953V89.8149ZM253.976 80.7382V83.9129H244.154V80.7382H253.976ZM266.354 71.4164V93.2346H262.402V75.2623H262.274L257.171 78.5223V74.9001L262.594 71.4164H266.354ZM271.384 93.2346V90.3795L278.959 82.9541C279.683 82.2225 280.287 81.5727 280.77 81.0045C281.253 80.4363 281.615 79.8859 281.856 79.3532C282.098 78.8206 282.219 78.2524 282.219 77.6487C282.219 76.9598 282.062 76.3703 281.75 75.8802C281.437 75.3831 281.008 74.9995 280.461 74.7296C279.914 74.4598 279.292 74.3248 278.596 74.3248C277.879 74.3248 277.25 74.474 276.711 74.7723C276.171 75.0635 275.752 75.4789 275.454 76.0187C275.162 76.5585 275.017 77.2012 275.017 77.947H271.256C271.256 76.562 271.572 75.3582 272.204 74.3355C272.836 73.3127 273.706 72.5208 274.814 71.9598C275.929 71.3987 277.208 71.1181 278.65 71.1181C280.113 71.1181 281.398 71.3916 282.506 71.9385C283.614 72.4853 284.474 73.2346 285.084 74.1863C285.702 75.138 286.011 76.2247 286.011 77.4463C286.011 78.263 285.855 79.0656 285.542 79.8539C285.23 80.6423 284.679 81.5159 283.891 82.4747C283.11 83.4335 282.013 84.5947 280.599 85.9583L276.839 89.7829V89.9321H286.341V93.2346H271.384ZM290.306 93.2346L299.585 74.8681V74.719H288.814V71.4164H303.676V74.7936L294.407 93.2346H290.306Z" fill="#696969" fill-opacity="0.7"/>
</g>
<path d="M208.343 13.1338H91.6089C86.7095 13.1338 82.7378 17.0014 82.7378 21.7724V132.472C82.7378 137.243 86.7095 141.11 91.6089 141.11H208.343C213.242 141.11 217.214 137.243 217.214 132.472V21.7724C217.214 17.0014 213.242 13.1338 208.343 13.1338Z" fill="white" stroke="#767676" stroke-width="5" stroke-miterlimit="10"/>
<path d="M82.7378 36.6052H217.214" stroke="#767676" stroke-width="5" stroke-miterlimit="10"/>
<path d="M108.168 24.3275C106.805 25.0903 105.27 25.5213 103.64 25.5213C98.0632 25.5213 93.5435 20.4793 93.5435 14.2626C93.5435 8.04584 98.0632 3 103.64 3C108.806 3 113.068 7.32882 113.663 12.9124" fill="white"/>
<path d="M108.168 24.3275C106.805 25.0903 105.27 25.5213 103.64 25.5213C98.0632 25.5213 93.5435 20.4793 93.5435 14.2626C93.5435 8.04584 98.0632 3 103.64 3C108.806 3 113.068 7.32882 113.663 12.9124" stroke="#767676" stroke-width="5" stroke-miterlimit="10" stroke-linecap="round"/>
<path d="M137.934 24.3273C136.571 25.0901 135.036 25.5211 133.407 25.5211C127.829 25.5211 123.31 20.4791 123.31 14.2623C123.31 8.04562 127.829 3.0036 133.407 3.0036C138.572 3.0036 142.834 7.33242 143.429 12.916" fill="white"/>
<path d="M137.934 24.3273C136.571 25.0901 135.036 25.5211 133.407 25.5211C127.829 25.5211 123.31 20.4791 123.31 14.2623C123.31 8.04562 127.829 3.0036 133.407 3.0036C138.572 3.0036 142.834 7.33242 143.429 12.916" stroke="#767676" stroke-width="5" stroke-miterlimit="10" stroke-linecap="round"/>
<path d="M167.7 24.3273C166.337 25.0901 164.802 25.5211 163.173 25.5211C157.595 25.5211 153.076 20.4791 153.076 14.2623C153.076 8.04562 157.595 3.0036 163.173 3.0036C168.339 3.0036 172.6 7.33242 173.195 12.916" fill="white"/>
<path d="M167.7 24.3273C166.337 25.0901 164.802 25.5211 163.173 25.5211C157.595 25.5211 153.076 20.4791 153.076 14.2623C153.076 8.04562 157.595 3.0036 163.173 3.0036C168.339 3.0036 172.6 7.33242 173.195 12.916" stroke="#767676" stroke-width="5" stroke-miterlimit="10" stroke-linecap="round"/>
<path d="M197.47 24.3273C196.107 25.0901 194.572 25.5211 192.943 25.5211C187.365 25.5211 182.846 20.4791 182.846 14.2623C182.846 8.04562 187.365 3.0036 192.943 3.0036C198.109 3.0036 202.37 7.33242 202.965 12.916" fill="white"/>
<path d="M197.47 24.3273C196.107 25.0901 194.572 25.5211 192.943 25.5211C187.365 25.5211 182.846 20.4791 182.846 14.2623C182.846 8.04562 187.365 3.0036 192.943 3.0036C198.109 3.0036 202.37 7.33242 202.965 12.916" stroke="#767676" stroke-width="5" stroke-miterlimit="10" stroke-linecap="round"/>
<rect x="228.313" y="50.8647" width="10.3954" height="82.4207" rx="3" transform="rotate(34.4464 228.313 50.8647)" fill="#767676"/>
<rect x="233.354" y="43.5168" width="10.3954" height="8.16782" rx="3" transform="rotate(34.4464 233.354 43.5168)" fill="#767676"/>
<path d="M182.219 130.66C180.668 131.958 178.391 130.396 179.043 128.482L182.042 119.676C182.469 118.422 183.975 117.922 185.067 118.671L189.203 121.508C190.295 122.257 190.37 123.842 189.355 124.691L182.219 130.66Z" fill="#767676"/>
<path d="M112.318 102H101.228V69.2727H112.542C115.791 69.2727 118.582 69.9279 120.915 71.2383C123.259 72.538 125.06 74.4077 126.317 76.8473C127.574 79.2869 128.202 82.206 128.202 85.6044C128.202 89.0135 127.569 91.9432 126.301 94.3935C125.044 96.8437 123.227 98.7241 120.852 100.034C118.487 101.345 115.642 102 112.318 102ZM107.157 96.8704H112.031C114.31 96.8704 116.212 96.4549 117.735 95.6239C119.259 94.7823 120.404 93.5305 121.171 91.8686C121.938 90.196 122.322 88.108 122.322 85.6044C122.322 83.1009 121.938 81.0234 121.171 79.3722C120.404 77.7102 119.27 76.4691 117.767 75.6488C116.276 74.8178 114.422 74.4023 112.206 74.4023H107.157V96.8704ZM147.692 83.2553V88.0174H132.959V83.2553H147.692ZM151.805 102V97.7173L163.167 86.5792C164.254 85.4819 165.159 84.5071 165.884 83.6548C166.608 82.8026 167.151 81.9769 167.514 81.1779C167.876 80.3789 168.057 79.5266 168.057 78.6211C168.057 77.5877 167.823 76.7035 167.354 75.9684C166.885 75.2227 166.241 74.6474 165.42 74.2425C164.6 73.8377 163.668 73.6353 162.624 73.6353C161.548 73.6353 160.605 73.859 159.795 74.3065C158.986 74.7433 158.357 75.3665 157.91 76.1761C157.473 76.9858 157.254 77.9499 157.254 79.0685H151.613C151.613 76.9911 152.087 75.1854 153.036 73.6513C153.984 72.1172 155.289 70.9293 156.951 70.0877C158.623 69.2461 160.541 68.8253 162.704 68.8253C164.898 68.8253 166.826 69.2354 168.488 70.0558C170.15 70.8761 171.439 72 172.356 73.4276C173.282 74.8551 173.746 76.4851 173.746 78.3175C173.746 79.5426 173.511 80.7464 173.043 81.929C172.574 83.1115 171.748 84.4219 170.566 85.8601C169.394 87.2983 167.748 89.0401 165.628 91.0856L159.987 96.8224V97.0462H174.241V102H151.805ZM180.188 102L194.107 74.4503V74.2266H177.951V69.2727H200.243V74.3384L186.34 102H180.188Z" fill="#696969"/>
<defs>
<filter id="filter0_f_4166_3" x="0.5" y="14.3207" width="119.26" height="122.132" filterUnits="userSpaceOnUse" color-interpolation-filters="sRGB">
<feFlood flood-opacity="0" result="BackgroundImageFix"/>
<feBlend mode="normal" in="SourceGraphic" in2="BackgroundImageFix" result="shape"/>
<feGaussianBlur stdDeviation="2" result="effect1_foregroundBlur_4166_3"/>
</filter>
<filter id="filter1_f_4166_3" x="195.042" y="14.3207" width="115.665" height="118.439" filterUnits="userSpaceOnUse" color-interpolation-filters="sRGB">
<feFlood flood-opacity="0" result="BackgroundImageFix"/>
<feBlend mode="normal" in="SourceGraphic" in2="BackgroundImageFix" result="shape"/>
<feGaussianBlur stdDeviation="2" result="effect1_foregroundBlur_4166_3"/>
</filter>
</defs>
</svg>
