<svg width="99" height="65" viewBox="0 0 99 65" fill="none" xmlns="http://www.w3.org/2000/svg">
<path fill-rule="evenodd" clip-rule="evenodd" d="M5.09793 0C6.50572 0 7.64695 1.14123 7.64695 2.54902V24.0296C11.244 20.1456 15.9979 17.3784 21.6667 16.5686C33.4911 16.5686 45.3287 28.0846 47.913 39.5098H50.2242C52.8085 28.0846 64.646 16.5686 76.4705 16.5686C82.1392 17.3784 86.8932 20.1456 90.4902 24.0295V2.54902C90.4902 1.14123 91.6314 0 93.0392 0C94.447 0 95.5882 1.14123 95.5882 2.54902V31.8733C97.2503 35.6636 98.1371 39.8251 98.1371 43.9706C98.1371 56.6407 87.9327 65 74.5587 65C62.3408 65 51.7044 58.0233 49.9569 47.1569H48.1803C46.4328 58.0233 35.7964 65 23.5784 65C10.2045 65 0 56.6407 0 43.9706C0 39.8251 0.886837 35.6636 2.54891 31.8733L2.54891 2.54902C2.54891 1.14123 3.69015 0 5.09793 0Z" fill="#06564E"/>
</svg>
