<svg width="93" height="76" viewBox="0 0 93 76" fill="none" xmlns="http://www.w3.org/2000/svg">
<path fill-rule="evenodd" clip-rule="evenodd" d="M46.3673 14.7486C54.5835 14.7486 61.3732 9.19617 62.4438 1.99367C62.6062 0.901102 63.4862 0 64.5908 0H75.8428C75.8548 0 75.8645 0.00972716 75.8645 0.0217262C75.8645 0.040921 75.8876 0.050686 75.9014 0.0373242L75.9174 0.0217547C75.9298 0.0097623 75.9495 0.0100671 75.9615 0.0224353L92.001 16.5645C92.7699 17.3575 92.7504 18.6237 91.9574 19.3926L79.3738 31.5938C78.9296 32.0246 78.2202 32.0137 77.7894 31.5694C77.0887 30.8467 75.8645 31.3428 75.8645 32.3494V73.2178C75.8645 74.3224 74.9691 75.2178 73.8645 75.2178H18.8702C17.7656 75.2178 16.8702 74.3224 16.8702 73.2178V32.1647C16.8702 31.0254 15.4846 30.464 14.6915 31.2819C14.2039 31.7848 13.401 31.7972 12.8982 31.3096L0.60777 19.3926C-0.185233 18.6237 -0.204766 17.3575 0.564142 16.5645L16.5547 0.0728242C16.5937 0.0326124 16.6579 0.031622 16.6981 0.0706119L16.7504 0.121289C16.7952 0.164709 16.8702 0.132977 16.8702 0.0706017C16.8702 0.0316095 16.9018 0 16.9408 0H28.1439C29.2485 0 30.1284 0.901101 30.2908 1.99367C31.3615 9.19617 38.1511 14.7486 46.3673 14.7486Z" fill="#06564E"/>
</svg>
