<svg width="195" height="229" viewBox="0 0 195 229" fill="none" xmlns="http://www.w3.org/2000/svg">
<circle cx="96.5" cy="87.5" r="85" stroke="#DB9099" stroke-width="5"/>
<path d="M114.115 100.178C116.39 97.8493 118.513 95.6716 120.644 93.4977C123.3 90.7842 125.934 88.0441 128.634 85.3796C130.735 83.3038 133.295 82.7113 136.062 83.5643C138.84 84.421 140.615 86.4062 141.218 89.3122C141.795 92.09 141 94.5168 139.017 96.5359C134.723 100.91 130.435 105.292 126.141 109.674C122.875 113.006 119.575 116.312 116.346 119.686C114.108 122.023 111.463 123.151 108.26 123.125C102.375 123.076 96.4894 123.125 90.6079 123.098C89.7091 123.098 89.0025 123.366 88.3959 124.03C87.7448 124.744 87.0642 125.427 86.3725 126.099C86.0655 126.393 86.0063 126.631 86.1506 127.072C86.9533 129.533 86.4391 131.711 84.6451 133.556C83.4318 134.805 82.2148 136.058 80.983 137.289C78.4122 139.859 74.8833 139.878 72.3347 137.289C65.854 130.699 59.3807 124.098 52.9259 117.482C50.3402 114.829 50.3698 111.251 52.9443 108.594C54.1576 107.341 55.3746 106.096 56.6027 104.862C58.393 103.065 60.5015 102.537 62.8762 103.356C63.4126 103.541 63.6531 103.36 63.9712 103.031C66.8194 100.114 69.7047 97.2341 72.5196 94.2827C74.7576 91.9315 77.4393 90.8672 80.6279 90.8823C88.7917 90.9163 96.9592 91.0295 105.119 90.8445C110.694 90.7162 114.511 94.6715 114.115 100.174V100.178ZM92.9457 94.9546C88.788 94.9546 84.6266 94.9923 80.4689 94.9395C78.4307 94.913 76.7772 95.5999 75.3568 97.0869C72.6454 99.9213 69.9007 102.722 67.1154 105.477C66.4865 106.1 66.6197 106.371 67.156 106.911C71.8834 111.689 76.5775 116.501 81.2863 121.298C81.9596 121.985 82.6106 123.159 83.3356 123.215C84.1531 123.276 84.7967 122.041 85.4589 121.321C86.8978 119.758 88.6104 119.06 90.7226 119.079C96.5745 119.132 102.43 119.079 108.282 119.109C110.339 119.12 112.025 118.422 113.483 116.92C118.706 111.534 123.969 106.198 129.222 100.838C131.575 98.4381 133.927 96.0377 136.28 93.6374C137.301 92.5995 137.704 91.3654 137.316 89.9425C136.554 87.1459 133.284 86.3194 131.216 88.4178C126.215 93.494 121.217 98.5739 116.253 103.688C114.075 105.933 111.485 107.039 108.4 107.028C103.288 107.009 98.1725 107.028 93.0604 107.02C92.6942 107.02 92.3169 107.002 91.9618 106.915C91.0592 106.696 90.4821 105.926 90.4747 105.009C90.4673 104.095 91.0407 103.303 91.9359 103.08C92.3169 102.986 92.7275 102.967 93.1233 102.967C97.4067 102.959 101.687 102.948 105.97 102.967C107.505 102.975 108.744 102.435 109.569 101.091C110.368 99.793 110.427 98.4192 109.713 97.068C108.985 95.6792 107.812 94.9583 106.262 94.9546C101.827 94.9432 97.392 94.9508 92.9531 94.947L92.9457 94.9546ZM60.8492 107.043C60.2684 106.99 59.7875 107.296 59.3584 107.737C58.2487 108.874 57.1354 110.006 56.0257 111.138C54.5867 112.606 54.583 113.493 56.0108 114.95C60.8011 119.841 65.595 124.729 70.3853 129.62C71.9315 131.197 73.4703 132.783 75.0276 134.349C76.141 135.47 77.1471 135.481 78.2383 134.39C79.4701 133.16 80.6945 131.918 81.8967 130.654C82.8067 129.695 82.8252 128.586 81.9078 127.65C75.4049 120.992 68.8872 114.354 62.3769 107.707C61.97 107.292 61.5039 107.013 60.8492 107.043Z" fill="#DB9099"/>
<path d="M135.439 72.3661C135.054 68.3947 133.657 64.8457 130.809 61.9756C126.971 58.1098 122.24 56.4729 116.85 56.7256C114.023 56.8576 111.415 57.676 109.174 59.4675C109.033 59.5806 108.9 59.7881 108.615 59.6749C109.356 56.5521 110.956 53.9573 113.427 51.9245C116.58 49.3297 120.228 48.2699 124.315 48.6508C125.633 48.7715 126.674 47.9606 126.756 46.7839C126.841 45.5846 125.959 44.6304 124.637 44.5361C123.692 44.4682 122.748 44.4116 121.799 44.4644C118.132 44.6568 114.816 45.8146 111.827 47.9229C110.949 48.5414 110.167 49.2806 109.293 50.0576C109.241 49.7031 109.2 49.4655 109.167 49.2241C108.4 43.6309 103.78 38.5733 98.2493 37.3551C94.8967 36.6159 91.4663 36.4424 88.0692 36.0162C86.9282 35.8729 86.0021 36.6951 85.8725 37.8341C85.5205 40.8928 86.0725 43.7931 87.6062 46.4746C90.129 50.8911 93.978 53.3501 99.0236 53.9724C101.161 54.2364 103.299 54.4816 105.432 54.7456C105.603 54.7682 106.018 54.6626 105.821 55.0737C105.166 56.4427 104.736 57.8835 104.377 59.4147C103.958 59.1092 103.699 58.7585 103.425 58.4266C102.643 57.4761 101.728 56.6615 100.709 55.9713C97.5788 53.8555 94.1039 53.0484 90.3734 53.3501C83.9164 53.8744 79.1153 56.9708 76.2999 62.7714C73.8808 67.7535 73.0769 73.143 73.1214 78.6457C73.1621 83.5863 74.0067 88.395 75.7479 93.0189C77.126 92.6795 78.5189 92.4381 79.9229 92.291C77.4335 85.9473 76.7111 79.3886 77.715 72.6678C78.1633 69.6657 78.8819 66.7201 80.3304 64.0122C82.1123 60.6782 84.913 58.6227 88.5842 57.7741C91.4478 57.1103 94.2707 57.3291 96.975 58.5888C98.1827 59.1545 99.2644 59.9012 100.098 60.946C101.246 62.3791 102.576 63.5558 104.38 64.0989C106.833 64.8344 109.219 64.6232 111.238 63.0806C114.698 60.4406 118.469 60.2671 122.392 61.5607C127.864 63.3597 130.779 67.2557 131.316 72.9394C131.55 75.421 131.516 77.8989 131.235 80.3768C130.909 82.8848 130.39 85.3099 129.66 87.6445C131.127 86.7356 132.761 86.283 134.458 86.0378C135.547 81.6214 135.891 77.0692 135.436 72.3736L135.439 72.3661ZM95.9451 48.8771C92.6332 47.2855 90.6883 44.6304 90.0512 41.0324C90.0178 40.8362 90.0215 40.6326 90.0067 40.361C92.8073 40.8664 95.6451 40.7646 98.3235 41.6735C102.006 42.9181 105.003 46.8367 105.099 50.563C102.043 49.9595 98.8384 50.2688 95.9488 48.8809L95.9451 48.8771Z" fill="#DB9099"/>
<path d="M10.1909 218.016L3.82427 225.802C3.19632 226.57 1.85321 226.782 0.981068 226.372C-0.0306193 225.922 -0.274828 224.875 0.31823 224.174L6.68487 216.387C7.27793 215.685 8.53385 215.434 9.49321 215.884C10.4526 216.334 10.749 217.38 10.2083 218.016H10.1909ZM13.662 211.117C13.662 212.322 13.8364 213.09 14.4121 213.792L22.6626 223.869C23.2556 224.571 22.994 225.617 21.9997 226.067C21.1276 226.478 19.7845 226.253 19.1565 225.498L10.8188 215.328C9.89436 214.189 9.31877 213.236 9.31877 211.448V203.317C9.31877 202.457 10.2781 201.795 11.4991 201.795C12.7201 201.795 13.6795 202.457 13.6795 203.317V211.13L13.662 211.117ZM31.4887 212.838H34.6284C35.64 212.838 36.425 213.501 36.425 214.295C36.425 215.09 35.6226 215.752 34.6284 215.752H31.4887V226.875C31.4887 227.736 30.5293 228.398 29.3083 228.398C28.0873 228.398 27.1279 227.736 27.1279 226.875V202.523C27.1279 201.662 28.0873 201 29.3083 201C30.5293 201 31.4887 201.662 31.4887 202.523V212.825V212.838Z" fill="#DB9099"/>
<path d="M39.1459 225.935C38.1342 225.935 37.3492 225.273 37.3492 224.478C37.3492 223.684 38.1516 223.022 39.1459 223.022H46.0881V213.169C46.0881 212.309 47.0475 211.647 48.2685 211.647C49.4895 211.647 50.4488 212.309 50.4488 213.169V223.022H61.7518C62.7635 223.022 63.5484 223.684 63.5484 224.478C63.5484 225.273 62.7461 225.935 61.7518 225.935H39.1459ZM40.5761 205.026C39.5644 205.026 38.7795 204.363 38.7795 203.569C38.7795 202.774 39.5819 202.112 40.5761 202.112H58.1237C59.3447 202.112 60.304 202.841 60.304 203.768V218.321C60.304 219.181 59.3447 219.843 58.1237 219.843C56.9027 219.843 55.9433 219.181 55.9433 218.321V205.039H40.5761V205.026ZM69.1651 212.997H72.3048C73.3164 212.997 74.1014 213.659 74.1014 214.454C74.1014 215.248 73.299 215.911 72.3048 215.911H69.1651V226.875C69.1651 227.736 68.2057 228.398 66.9847 228.398C65.7637 228.398 64.8043 227.736 64.8043 226.875V202.523C64.8043 201.662 65.7637 201 66.9847 201C68.2057 201 69.1651 201.662 69.1651 202.523V212.984V212.997Z" fill="#DB9099"/>
<path d="M77.2414 225.617C76.2298 225.617 75.4448 224.955 75.4448 224.16C75.4448 223.366 76.2472 222.704 77.2414 222.704H100.266C101.278 222.704 102.063 223.366 102.063 224.16C102.063 224.955 101.26 225.617 100.266 225.617H77.2414ZM83.8523 201.238C84.8639 200.788 86.1199 201.013 86.7827 201.781C87.1141 202.165 87.7072 202.351 88.4223 202.351H89.8875C94.9111 202.351 99.0101 205.688 99.0101 209.793C99.0101 213.898 94.9111 217.235 89.8875 217.235H86.6257C81.6022 217.235 77.5031 213.898 77.5031 209.793C77.5031 207.82 78.4624 206.164 79.5962 205.052C80.3113 204.39 81.5149 204.125 82.4917 204.642C83.3639 205.118 83.7127 205.979 83.0324 206.707C82.2301 207.568 81.7765 208.548 81.7765 209.793C81.7765 212.309 83.8697 214.374 87.0443 214.374H89.4689C92.6435 214.374 94.7367 212.309 94.7367 209.793C94.7367 207.277 92.6435 205.211 89.4689 205.211H87.5851C85.7884 205.211 83.9395 204.708 83.1022 203.463C82.5615 202.668 82.8057 201.715 83.8523 201.238ZM107.679 226.888C107.679 227.749 106.72 228.411 105.499 228.411C104.278 228.411 103.319 227.749 103.319 226.888V202.536C103.319 201.675 104.278 201.013 105.499 201.013C106.72 201.013 107.679 201.675 107.679 202.536V226.888Z" fill="#DB9099"/>
<path d="M131.925 210.746L125.733 215.964C124.983 216.626 123.605 216.626 122.837 216.056C122 215.447 122.087 214.467 122.802 213.832L128.994 208.614C129.71 207.979 131.053 207.979 131.838 208.588C132.623 209.197 132.588 210.177 131.925 210.746ZM153.397 225.564C154.409 225.564 155.194 226.2 155.194 226.994C155.194 227.789 154.391 228.424 153.397 228.424H131.297C128.122 228.424 126.273 227.021 126.273 224.611V220.161C126.273 219.301 127.233 218.639 128.454 218.639C129.675 218.639 130.634 219.301 130.634 220.161V224.293C130.634 225.114 131.227 225.564 132.309 225.564H153.414H153.397ZM144.641 213.514C145.391 214.149 145.443 215.129 144.606 215.739C143.856 216.308 142.513 216.281 141.71 215.646L133.216 208.654C132.204 207.793 131.541 206.84 131.541 205.608V203C131.541 202.139 132.5 201.477 133.721 201.477C134.942 201.477 135.902 202.139 135.902 203V205.357C135.902 205.9 136.024 206.469 136.355 206.76L144.641 213.527V213.514ZM154.147 219.963C154.147 220.823 153.188 221.486 151.967 221.486C150.746 221.486 149.786 220.823 149.786 219.963V209.29H144.763C143.751 209.29 142.966 208.654 142.966 207.86C142.966 207.065 143.769 206.429 144.763 206.429H149.786V202.549C149.786 201.689 150.746 201.027 151.967 201.027C153.188 201.027 154.147 201.689 154.147 202.549V219.963Z" fill="#DB9099"/>
<path d="M179.352 215.156V217.288H186.853C189.661 217.288 191.754 218.784 191.754 220.783C191.754 222.783 189.661 224.279 186.853 224.279H168.259C167.456 224.279 166.881 224.624 166.881 225.167C166.881 225.709 167.474 226.054 168.259 226.054H190.446C191.458 226.054 192.155 226.663 192.155 227.418C192.155 228.173 191.44 228.782 190.446 228.782H167.509C164.7 228.782 162.607 227.259 162.607 225.259C162.607 223.26 164.7 221.737 167.509 221.737H186.103C186.905 221.737 187.481 221.419 187.481 220.876C187.481 220.333 186.888 220.015 186.103 220.015H164.753C163.741 220.015 163.043 219.406 163.043 218.651C163.043 217.897 163.758 217.288 164.753 217.288H175.009V215.156H161.491C160.479 215.156 159.694 214.546 159.694 213.752C159.694 212.957 160.496 212.348 161.491 212.348H192.888C193.9 212.348 194.685 212.957 194.685 213.752C194.685 214.546 193.882 215.156 192.888 215.156H179.37H179.352ZM168.468 210.481C165.293 210.481 163.444 209.077 163.444 206.667V204.377C162.433 204.377 161.648 203.807 161.648 203.013C161.648 202.218 162.45 201.649 163.444 201.649H189.155C190.376 201.649 191.336 202.377 191.336 203.304V208.839C191.336 209.766 190.376 210.494 189.155 210.494H168.468V210.481ZM167.718 206.482C167.718 207.303 168.311 207.753 169.392 207.753H187.062V204.39H167.718V206.482Z" fill="#DB9099"/>
</svg>
