<svg width="172" height="227" viewBox="0 0 172 227" fill="none" xmlns="http://www.w3.org/2000/svg">
<circle cx="86" cy="86" r="83.5" stroke="#DB9099" stroke-width="5"/>
<mask id="path-2-inside-1_3891_2848" fill="white">
<path d="M70.6957 65.3051C75.8822 65.3868 80.7459 66.6674 85.2756 69.1616C85.7598 69.4289 86.1051 69.4846 86.623 69.1988C91.7944 66.3519 97.3412 65.049 103.256 65.3979C104.014 65.4425 104.265 65.2495 104.52 64.5183C105.233 62.4508 105.113 60.569 104.059 58.6055C103.057 56.7347 102.351 54.7081 101.522 52.7446C100.929 51.3416 101.162 50.6326 102.456 49.894C105.106 48.387 107.763 46.8986 110.405 45.3768C111.174 44.9351 111.917 44.8831 112.72 45.2135C118.47 47.5816 124.219 49.9571 129.976 52.3066C130.839 52.6592 131.301 53.2494 131.53 54.1217C132.292 57.0465 133.091 59.964 133.868 62.8851C134.224 64.2287 133.879 64.9265 132.585 65.4351C129.924 66.4818 127.267 67.547 124.58 68.5344C123.626 68.8833 122.887 69.3472 122.452 70.2937C122.129 70.9915 121.356 71.6411 121.378 72.2906C121.401 72.9625 122.407 73.3448 122.943 73.8941C131.211 82.3532 134.194 92.3675 131.031 103.696C127.833 115.143 120.012 122.318 108.341 125.15C100.741 126.994 93.472 125.781 86.6267 122.065C86.1126 121.787 85.756 121.816 85.2719 122.08C67.3031 131.794 45.2436 122.266 40.5938 102.552C37.8767 91.0238 41.2919 81.0875 50.0098 72.9736C50.5277 72.4911 50.5015 72.2313 50.2237 71.6225C49.3418 69.685 47.8819 68.6086 45.8591 67.9628C43.6712 67.2687 41.5696 66.2999 39.4342 65.4388C38.1319 64.9117 37.7754 64.2176 38.1282 62.8925C38.9163 59.9417 39.7344 56.9983 40.5 54.0437C40.7327 53.1492 41.2506 52.6147 42.095 52.2695C47.7956 49.946 53.4925 47.6113 59.1781 45.2506C60.0638 44.8831 60.8369 44.9128 61.6625 45.3916C64.2745 46.9023 66.909 48.3722 69.5286 49.868C70.8346 50.6141 71.0822 51.3416 70.4968 52.7186C69.3747 55.3614 68.2638 58.0079 67.0967 60.6284C66.7627 61.3744 66.6726 62.0648 66.9278 62.8406C67.198 63.6608 67.153 64.7484 67.6934 65.2606C68.2113 65.7543 69.2959 65.2643 70.129 65.3014C70.3166 65.3089 70.5043 65.3014 70.6919 65.3014L70.6957 65.3051ZM77.8562 76.4181C77.0568 76.1768 76.3551 75.9653 75.6495 75.7574C74.3248 75.3714 72.9662 75.1747 71.5926 75.0967C58.5063 74.3469 48.032 85.523 49.7696 98.3693C51.4922 111.108 64.4959 119.148 76.8729 115.154C77.7398 114.872 77.7361 114.69 77.222 113.988C70.3092 104.523 69.0632 94.3495 73.4879 83.5224C74.5312 80.9687 76.0361 78.6637 77.8525 76.4144L77.8562 76.4181ZM101.105 75.0745C99.3377 75.1041 97.1685 75.4605 95.0331 76.1137C94.215 76.3624 94.1813 76.5554 94.6879 77.2124C98.8048 82.5685 100.944 88.626 101 95.3554C101.06 102.322 98.8911 108.588 94.6128 114.122C94.1212 114.76 94.2376 114.913 94.9281 115.132C98.5759 116.286 102.257 116.538 106.014 115.718C116.571 113.42 123.514 103.833 122.167 92.9725C120.864 82.4942 111.925 75.1227 101.109 75.0782L101.105 75.0745ZM83.4668 120.094C82.2771 119.203 81.1775 118.346 80.2205 117.34C79.8227 116.921 79.4925 116.939 78.9971 117.132C75.019 118.676 70.9246 119.122 66.6801 118.498C54.0967 116.653 45.0898 104.408 47.2177 91.9777C49.4994 78.6377 62.2555 70.1304 75.6007 73.0441C85.5196 75.2081 93.1867 84.1163 93.7271 93.9969C94.0686 100.236 92.271 105.752 88.2442 110.551C87.9027 110.956 87.8726 111.167 88.3267 111.472C89.1036 111.988 89.8767 112.515 90.5972 113.101C91.3366 113.703 91.7944 113.558 92.3573 112.819C97.1985 106.468 99.1763 99.3789 98.0392 91.4841C95.9263 76.8153 81.9468 66.2516 67.1154 68.0964C66.0308 68.23 65.5392 67.9256 65.2615 66.8864C64.9951 65.9027 64.7324 64.9191 64.5222 63.9244C64.4209 63.4456 64.2482 63.427 63.8467 63.594C59.9099 65.2235 55.9731 66.8492 52.0213 68.449C51.5072 68.6568 51.541 68.8499 51.7924 69.2359C52.2353 69.9077 52.6368 70.6055 53.0571 71.2922C54.0141 72.8585 53.9766 73.0812 52.5693 74.217C42.5754 82.2641 39.4792 96.4541 45.2324 107.853C50.7942 118.869 62.5032 124.823 74.9214 122.945C77.9012 122.496 80.7122 121.538 83.4705 120.098L83.4668 120.094ZM88.4618 71.1549C89.6778 72.0754 90.7624 72.9142 91.7043 73.9015C92.0909 74.3061 92.4024 74.3432 92.9203 74.1428C96.9584 72.5579 101.117 72.1199 105.417 72.8029C118.309 74.8517 127.177 87.4049 124.587 99.9914C121.517 114.927 105.68 122.919 91.6668 116.613C82.2621 112.377 76.7679 102.126 78.4567 92.0037C79.1585 87.7909 80.866 84.0457 83.6319 80.7794C84.0297 80.3117 84.0259 80.0779 83.5343 79.7178C82.7312 79.1277 81.9093 78.5709 81.0912 78.0067C80.4945 77.5984 80.1755 77.6987 79.7476 78.2443C74.6512 84.7361 72.6697 92.0371 73.9795 100.162C76.584 116.304 92.894 126.671 108.893 122.381C123.187 118.546 132.003 104.408 129.004 90.1256C127.623 83.5558 124.287 78.17 119.014 73.9498C118.053 73.1815 117.963 72.6989 118.59 71.6522C119.097 70.8022 119.6 69.9485 120.136 69.1171C120.354 68.7756 120.324 68.6086 119.926 68.4601C119.025 68.1187 118.136 67.7438 117.243 67.38C114.248 66.1588 111.246 64.9525 108.266 63.6943C107.609 63.4159 107.369 63.505 107.245 64.2065C107.084 65.1158 106.84 66.0141 106.607 66.9086C106.352 67.8922 105.83 68.2152 104.828 68.1224C103.988 68.0444 103.147 67.9739 102.306 67.9516C97.4725 67.8291 92.9128 68.8833 88.4693 71.1623L88.4618 71.1549ZM85.9587 109.178C86.2101 108.888 86.4128 108.658 86.6079 108.421C92.6613 101.012 92.6313 90.1367 86.5779 82.7281C86.0187 82.0451 85.801 82.1899 85.3319 82.7763C79.0646 90.5895 79.2898 101.513 85.9587 109.178ZM123.086 52.7929C123.247 52.2658 122.872 52.2101 122.602 52.0951C121.108 51.4752 119.603 50.8813 118.121 50.2392C117.667 50.0425 117.419 50.1353 117.123 50.5101C115.854 52.1173 114.559 53.7022 113.261 55.2834C113.006 55.5952 112.931 55.9293 112.919 56.3079C112.871 58.2528 112.829 60.2015 112.747 62.1465C112.728 62.6067 112.912 62.7997 113.306 62.9519C114.492 63.4159 115.681 63.8873 116.845 64.3995C117.288 64.5962 117.558 64.5405 117.884 64.1879C119.22 62.7589 120.583 61.3559 121.938 59.9417C122.129 59.7412 122.332 59.5482 122.365 59.2439C122.606 57.0651 122.853 54.8863 123.09 52.7854L123.086 52.7929ZM59.2456 59.2847C59.1893 59.2847 59.1368 59.2847 59.0805 59.2847C59.0805 58.2677 59.0805 57.2507 59.0805 56.2337C59.0805 55.881 58.9905 55.5804 58.7615 55.2983C57.448 53.6911 56.1383 52.0839 54.851 50.4582C54.5696 50.1019 54.3181 50.061 53.9166 50.2355C52.4342 50.8702 50.9405 51.4863 49.4394 52.0839C48.9965 52.2584 48.8464 52.4662 48.9139 52.9673C49.1841 54.9828 49.4018 57.0057 49.6232 59.0286C49.657 59.3478 49.7434 59.615 49.976 59.8563C51.3759 61.3076 52.7719 62.7589 54.1492 64.2325C54.4645 64.5702 54.7347 64.5554 55.125 64.3846C56.2921 63.8798 57.4706 63.3936 58.6602 62.9445C59.1518 62.7589 59.2907 62.4842 59.2607 61.972C59.2044 61.0812 59.2456 60.1829 59.2456 59.2884V59.2847ZM114.976 49.0217C114.83 48.9364 114.777 48.8992 114.721 48.8733C112.797 47.9923 110.924 48.0752 109.103 49.122C107.913 49.8049 106.723 50.4842 105.44 51.2191C107.279 51.9763 108.979 52.6592 110.664 53.3756C111.054 53.5426 111.306 53.5872 111.61 53.1974C112.69 51.8093 113.816 50.4508 114.976 49.0254V49.0217ZM130.821 61.6454C130.198 59.3255 129.631 57.221 129.064 55.1164C129.001 54.8714 128.903 54.6784 128.629 54.5708C127.788 54.2442 126.955 53.8953 126.126 53.5463C125.781 53.4016 125.638 53.4758 125.597 53.873C125.428 55.5024 125.236 57.1282 125.034 58.7539C124.989 59.1177 125.09 59.3181 125.439 59.4592C127.169 60.1495 128.892 60.8622 130.821 61.6491V61.6454ZM66.5938 51.2154C64.496 50.0239 62.5294 48.9067 60.5629 47.7931C60.4053 47.7041 60.2552 47.641 60.0413 47.7338C59.0617 48.1606 58.071 48.5578 57.0164 48.992C58.1986 50.4508 59.3132 51.813 60.409 53.19C60.6642 53.5092 60.8631 53.5798 61.2647 53.4053C62.976 52.6704 64.7061 51.9837 66.5938 51.2117V51.2154ZM41.1793 61.6565C43.1458 60.8511 44.9171 60.1236 46.6885 59.3998C46.9399 59.2958 46.9437 59.1102 46.9174 58.869C46.7335 57.2432 46.5534 55.6175 46.3995 53.988C46.3545 53.5167 46.1894 53.4016 45.7503 53.5983C44.9847 53.9361 44.2041 54.2516 43.4272 54.5671C43.2171 54.6524 43.0595 54.7452 42.9919 54.9902C42.414 57.1467 41.8248 59.2996 41.183 61.6565H41.1793ZM51.935 65.6763C50.7041 64.3846 49.5257 63.156 48.351 61.92C48.1521 61.7085 47.9683 61.6714 47.6905 61.7864C46.058 62.4768 44.4218 63.1486 42.5941 63.9058C44.9472 64.8375 47.1126 65.6912 49.2705 66.5597C49.5032 66.6525 49.6908 66.608 49.8897 66.5263C50.539 66.2591 51.192 65.9844 51.9313 65.6763H51.935ZM104.821 53.7802C105.639 55.7029 106.464 57.388 107.061 59.1474C107.5 60.4391 108.348 61.0626 109.564 61.4412C110.033 61.5897 110.169 61.5266 110.172 61.0404C110.191 59.5297 110.236 58.0153 110.277 56.5046C110.285 56.2485 110.285 56.0258 109.981 55.9033C108.326 55.2315 106.678 54.5485 104.821 53.7802ZM67.2018 53.7839C65.3704 54.5374 63.7641 55.1944 62.1616 55.8513C61.9252 55.9478 61.7188 56.0369 61.7188 56.3598C61.73 58.0673 61.7225 59.7784 61.7225 61.6268C62.368 61.3818 62.7621 61.2816 63.1111 61.0923C63.5802 60.8399 64.1957 60.8436 64.4584 60.2089C65.3141 58.1341 66.2185 56.074 67.2018 53.7839ZM129.402 63.8798C127.623 63.1523 126.039 62.5139 124.463 61.8569C124.159 61.7307 123.927 61.6268 123.638 61.9312C122.478 63.1746 121.288 64.3958 119.994 65.7468C120.999 65.9102 121.709 66.801 122.624 66.4855C124.85 65.7171 127.023 64.8041 129.402 63.8798Z"/>
</mask>
<path d="M70.6957 65.3051C75.8822 65.3868 80.7459 66.6674 85.2756 69.1616C85.7598 69.4289 86.1051 69.4846 86.623 69.1988C91.7944 66.3519 97.3412 65.049 103.256 65.3979C104.014 65.4425 104.265 65.2495 104.52 64.5183C105.233 62.4508 105.113 60.569 104.059 58.6055C103.057 56.7347 102.351 54.7081 101.522 52.7446C100.929 51.3416 101.162 50.6326 102.456 49.894C105.106 48.387 107.763 46.8986 110.405 45.3768C111.174 44.9351 111.917 44.8831 112.72 45.2135C118.47 47.5816 124.219 49.9571 129.976 52.3066C130.839 52.6592 131.301 53.2494 131.53 54.1217C132.292 57.0465 133.091 59.964 133.868 62.8851C134.224 64.2287 133.879 64.9265 132.585 65.4351C129.924 66.4818 127.267 67.547 124.58 68.5344C123.626 68.8833 122.887 69.3472 122.452 70.2937C122.129 70.9915 121.356 71.6411 121.378 72.2906C121.401 72.9625 122.407 73.3448 122.943 73.8941C131.211 82.3532 134.194 92.3675 131.031 103.696C127.833 115.143 120.012 122.318 108.341 125.15C100.741 126.994 93.472 125.781 86.6267 122.065C86.1126 121.787 85.756 121.816 85.2719 122.08C67.3031 131.794 45.2436 122.266 40.5938 102.552C37.8767 91.0238 41.2919 81.0875 50.0098 72.9736C50.5277 72.4911 50.5015 72.2313 50.2237 71.6225C49.3418 69.685 47.8819 68.6086 45.8591 67.9628C43.6712 67.2687 41.5696 66.2999 39.4342 65.4388C38.1319 64.9117 37.7754 64.2176 38.1282 62.8925C38.9163 59.9417 39.7344 56.9983 40.5 54.0437C40.7327 53.1492 41.2506 52.6147 42.095 52.2695C47.7956 49.946 53.4925 47.6113 59.1781 45.2506C60.0638 44.8831 60.8369 44.9128 61.6625 45.3916C64.2745 46.9023 66.909 48.3722 69.5286 49.868C70.8346 50.6141 71.0822 51.3416 70.4968 52.7186C69.3747 55.3614 68.2638 58.0079 67.0967 60.6284C66.7627 61.3744 66.6726 62.0648 66.9278 62.8406C67.198 63.6608 67.153 64.7484 67.6934 65.2606C68.2113 65.7543 69.2959 65.2643 70.129 65.3014C70.3166 65.3089 70.5043 65.3014 70.6919 65.3014L70.6957 65.3051ZM77.8562 76.4181C77.0568 76.1768 76.3551 75.9653 75.6495 75.7574C74.3248 75.3714 72.9662 75.1747 71.5926 75.0967C58.5063 74.3469 48.032 85.523 49.7696 98.3693C51.4922 111.108 64.4959 119.148 76.8729 115.154C77.7398 114.872 77.7361 114.69 77.222 113.988C70.3092 104.523 69.0632 94.3495 73.4879 83.5224C74.5312 80.9687 76.0361 78.6637 77.8525 76.4144L77.8562 76.4181ZM101.105 75.0745C99.3377 75.1041 97.1685 75.4605 95.0331 76.1137C94.215 76.3624 94.1813 76.5554 94.6879 77.2124C98.8048 82.5685 100.944 88.626 101 95.3554C101.06 102.322 98.8911 108.588 94.6128 114.122C94.1212 114.76 94.2376 114.913 94.9281 115.132C98.5759 116.286 102.257 116.538 106.014 115.718C116.571 113.42 123.514 103.833 122.167 92.9725C120.864 82.4942 111.925 75.1227 101.109 75.0782L101.105 75.0745ZM83.4668 120.094C82.2771 119.203 81.1775 118.346 80.2205 117.34C79.8227 116.921 79.4925 116.939 78.9971 117.132C75.019 118.676 70.9246 119.122 66.6801 118.498C54.0967 116.653 45.0898 104.408 47.2177 91.9777C49.4994 78.6377 62.2555 70.1304 75.6007 73.0441C85.5196 75.2081 93.1867 84.1163 93.7271 93.9969C94.0686 100.236 92.271 105.752 88.2442 110.551C87.9027 110.956 87.8726 111.167 88.3267 111.472C89.1036 111.988 89.8767 112.515 90.5972 113.101C91.3366 113.703 91.7944 113.558 92.3573 112.819C97.1985 106.468 99.1763 99.3789 98.0392 91.4841C95.9263 76.8153 81.9468 66.2516 67.1154 68.0964C66.0308 68.23 65.5392 67.9256 65.2615 66.8864C64.9951 65.9027 64.7324 64.9191 64.5222 63.9244C64.4209 63.4456 64.2482 63.427 63.8467 63.594C59.9099 65.2235 55.9731 66.8492 52.0213 68.449C51.5072 68.6568 51.541 68.8499 51.7924 69.2359C52.2353 69.9077 52.6368 70.6055 53.0571 71.2922C54.0141 72.8585 53.9766 73.0812 52.5693 74.217C42.5754 82.2641 39.4792 96.4541 45.2324 107.853C50.7942 118.869 62.5032 124.823 74.9214 122.945C77.9012 122.496 80.7122 121.538 83.4705 120.098L83.4668 120.094ZM88.4618 71.1549C89.6778 72.0754 90.7624 72.9142 91.7043 73.9015C92.0909 74.3061 92.4024 74.3432 92.9203 74.1428C96.9584 72.5579 101.117 72.1199 105.417 72.8029C118.309 74.8517 127.177 87.4049 124.587 99.9914C121.517 114.927 105.68 122.919 91.6668 116.613C82.2621 112.377 76.7679 102.126 78.4567 92.0037C79.1585 87.7909 80.866 84.0457 83.6319 80.7794C84.0297 80.3117 84.0259 80.0779 83.5343 79.7178C82.7312 79.1277 81.9093 78.5709 81.0912 78.0067C80.4945 77.5984 80.1755 77.6987 79.7476 78.2443C74.6512 84.7361 72.6697 92.0371 73.9795 100.162C76.584 116.304 92.894 126.671 108.893 122.381C123.187 118.546 132.003 104.408 129.004 90.1256C127.623 83.5558 124.287 78.17 119.014 73.9498C118.053 73.1815 117.963 72.6989 118.59 71.6522C119.097 70.8022 119.6 69.9485 120.136 69.1171C120.354 68.7756 120.324 68.6086 119.926 68.4601C119.025 68.1187 118.136 67.7438 117.243 67.38C114.248 66.1588 111.246 64.9525 108.266 63.6943C107.609 63.4159 107.369 63.505 107.245 64.2065C107.084 65.1158 106.84 66.0141 106.607 66.9086C106.352 67.8922 105.83 68.2152 104.828 68.1224C103.988 68.0444 103.147 67.9739 102.306 67.9516C97.4725 67.8291 92.9128 68.8833 88.4693 71.1623L88.4618 71.1549ZM85.9587 109.178C86.2101 108.888 86.4128 108.658 86.6079 108.421C92.6613 101.012 92.6313 90.1367 86.5779 82.7281C86.0187 82.0451 85.801 82.1899 85.3319 82.7763C79.0646 90.5895 79.2898 101.513 85.9587 109.178ZM123.086 52.7929C123.247 52.2658 122.872 52.2101 122.602 52.0951C121.108 51.4752 119.603 50.8813 118.121 50.2392C117.667 50.0425 117.419 50.1353 117.123 50.5101C115.854 52.1173 114.559 53.7022 113.261 55.2834C113.006 55.5952 112.931 55.9293 112.919 56.3079C112.871 58.2528 112.829 60.2015 112.747 62.1465C112.728 62.6067 112.912 62.7997 113.306 62.9519C114.492 63.4159 115.681 63.8873 116.845 64.3995C117.288 64.5962 117.558 64.5405 117.884 64.1879C119.22 62.7589 120.583 61.3559 121.938 59.9417C122.129 59.7412 122.332 59.5482 122.365 59.2439C122.606 57.0651 122.853 54.8863 123.09 52.7854L123.086 52.7929ZM59.2456 59.2847C59.1893 59.2847 59.1368 59.2847 59.0805 59.2847C59.0805 58.2677 59.0805 57.2507 59.0805 56.2337C59.0805 55.881 58.9905 55.5804 58.7615 55.2983C57.448 53.6911 56.1383 52.0839 54.851 50.4582C54.5696 50.1019 54.3181 50.061 53.9166 50.2355C52.4342 50.8702 50.9405 51.4863 49.4394 52.0839C48.9965 52.2584 48.8464 52.4662 48.9139 52.9673C49.1841 54.9828 49.4018 57.0057 49.6232 59.0286C49.657 59.3478 49.7434 59.615 49.976 59.8563C51.3759 61.3076 52.7719 62.7589 54.1492 64.2325C54.4645 64.5702 54.7347 64.5554 55.125 64.3846C56.2921 63.8798 57.4706 63.3936 58.6602 62.9445C59.1518 62.7589 59.2907 62.4842 59.2607 61.972C59.2044 61.0812 59.2456 60.1829 59.2456 59.2884V59.2847ZM114.976 49.0217C114.83 48.9364 114.777 48.8992 114.721 48.8733C112.797 47.9923 110.924 48.0752 109.103 49.122C107.913 49.8049 106.723 50.4842 105.44 51.2191C107.279 51.9763 108.979 52.6592 110.664 53.3756C111.054 53.5426 111.306 53.5872 111.61 53.1974C112.69 51.8093 113.816 50.4508 114.976 49.0254V49.0217ZM130.821 61.6454C130.198 59.3255 129.631 57.221 129.064 55.1164C129.001 54.8714 128.903 54.6784 128.629 54.5708C127.788 54.2442 126.955 53.8953 126.126 53.5463C125.781 53.4016 125.638 53.4758 125.597 53.873C125.428 55.5024 125.236 57.1282 125.034 58.7539C124.989 59.1177 125.09 59.3181 125.439 59.4592C127.169 60.1495 128.892 60.8622 130.821 61.6491V61.6454ZM66.5938 51.2154C64.496 50.0239 62.5294 48.9067 60.5629 47.7931C60.4053 47.7041 60.2552 47.641 60.0413 47.7338C59.0617 48.1606 58.071 48.5578 57.0164 48.992C58.1986 50.4508 59.3132 51.813 60.409 53.19C60.6642 53.5092 60.8631 53.5798 61.2647 53.4053C62.976 52.6704 64.7061 51.9837 66.5938 51.2117V51.2154ZM41.1793 61.6565C43.1458 60.8511 44.9171 60.1236 46.6885 59.3998C46.9399 59.2958 46.9437 59.1102 46.9174 58.869C46.7335 57.2432 46.5534 55.6175 46.3995 53.988C46.3545 53.5167 46.1894 53.4016 45.7503 53.5983C44.9847 53.9361 44.2041 54.2516 43.4272 54.5671C43.2171 54.6524 43.0595 54.7452 42.9919 54.9902C42.414 57.1467 41.8248 59.2996 41.183 61.6565H41.1793ZM51.935 65.6763C50.7041 64.3846 49.5257 63.156 48.351 61.92C48.1521 61.7085 47.9683 61.6714 47.6905 61.7864C46.058 62.4768 44.4218 63.1486 42.5941 63.9058C44.9472 64.8375 47.1126 65.6912 49.2705 66.5597C49.5032 66.6525 49.6908 66.608 49.8897 66.5263C50.539 66.2591 51.192 65.9844 51.9313 65.6763H51.935ZM104.821 53.7802C105.639 55.7029 106.464 57.388 107.061 59.1474C107.5 60.4391 108.348 61.0626 109.564 61.4412C110.033 61.5897 110.169 61.5266 110.172 61.0404C110.191 59.5297 110.236 58.0153 110.277 56.5046C110.285 56.2485 110.285 56.0258 109.981 55.9033C108.326 55.2315 106.678 54.5485 104.821 53.7802ZM67.2018 53.7839C65.3704 54.5374 63.7641 55.1944 62.1616 55.8513C61.9252 55.9478 61.7188 56.0369 61.7188 56.3598C61.73 58.0673 61.7225 59.7784 61.7225 61.6268C62.368 61.3818 62.7621 61.2816 63.1111 61.0923C63.5802 60.8399 64.1957 60.8436 64.4584 60.2089C65.3141 58.1341 66.2185 56.074 67.2018 53.7839ZM129.402 63.8798C127.623 63.1523 126.039 62.5139 124.463 61.8569C124.159 61.7307 123.927 61.6268 123.638 61.9312C122.478 63.1746 121.288 64.3958 119.994 65.7468C120.999 65.9102 121.709 66.801 122.624 66.4855C124.85 65.7171 127.023 64.8041 129.402 63.8798Z" fill="#DB9099" stroke="#DB9099" stroke-width="6" mask="url(#path-2-inside-1_3891_2848)"/>
<path d="M57.5142 209.631L51.3982 212.947C50.4687 213.483 49.0373 213.286 48.4053 212.608C47.6989 211.903 47.9591 210.816 48.8514 210.336L54.9674 207.02C55.8969 206.483 57.3283 206.681 57.9604 207.358C58.6296 208.106 58.4065 209.151 57.5142 209.631ZM71.1219 209.998C72.0142 210.477 72.2744 211.55 71.568 212.27C70.936 212.947 69.5231 213.145 68.5751 212.608L59.4289 207.598C58.1277 206.893 57.6443 205.735 57.6443 204.409V203.082H50.32C49.2418 203.082 48.4053 202.433 48.4053 201.586C48.4053 200.74 49.2604 200.09 50.32 200.09H57.6443V198.594C57.6443 197.705 58.6668 197.07 59.9681 197.07C61.2693 197.07 62.2918 197.719 62.2918 198.623V200.119H69.6161C70.6943 200.119 71.5308 200.768 71.5308 201.615C71.5308 202.461 70.6757 203.111 69.6161 203.111H62.2918V204.155C62.2918 204.804 62.5148 205.34 63.0539 205.651L71.1219 210.026V209.998ZM59.336 226.933C54.7815 226.933 51.1194 224.491 51.1194 221.146C51.1194 217.802 54.7815 215.36 59.336 215.36H73.9661C78.5206 215.36 82.1827 217.802 82.1827 221.146C82.1827 224.491 78.5206 226.933 73.9661 226.933H59.336ZM59.6892 218.324C57.1982 218.324 55.6738 219.481 55.6738 221.132C55.6738 222.784 57.1982 223.941 59.6892 223.941H73.6129C76.1039 223.941 77.6282 222.784 77.6282 221.132C77.6282 219.481 76.1039 218.324 73.6129 218.324H59.6892ZM81.7366 213.243C81.7366 214.161 80.7141 214.866 79.4129 214.866C78.1116 214.866 77.0891 214.161 77.0891 213.243V207.683H72.1815C71.1033 207.683 70.2667 207.006 70.2667 206.159C70.2667 205.312 71.1219 204.635 72.1815 204.635H77.0891V199.103C77.0891 198.185 78.1116 197.48 79.4129 197.48C80.7141 197.48 81.7366 198.185 81.7366 199.103V213.258V213.243Z" fill="#DB9099"/>
<path d="M108.599 211.564V214.302H123.006C124.084 214.302 124.921 214.951 124.921 215.798C124.921 216.645 124.066 217.294 123.006 217.294H89.5445C88.4663 217.294 87.6298 216.645 87.6298 215.798C87.6298 214.951 88.4849 214.302 89.5445 214.302H103.952V211.564H98.0586C93.7272 211.564 91.106 210.012 91.106 207.57C91.106 205.129 93.7458 203.576 98.0586 203.576H114.473C118.805 203.576 121.426 205.129 121.426 207.57C121.426 210.012 118.786 211.564 114.473 211.564H108.58H108.599ZM91.8124 199.103H103.952V198.425C103.952 197.579 104.974 197 106.275 197C107.576 197 108.599 197.579 108.599 198.425V199.103H120.738C121.816 199.103 122.56 199.752 122.56 200.556C122.56 201.361 121.798 202.01 120.738 202.01H91.831C90.7528 202.01 90.0092 201.361 90.0092 200.556C90.0092 199.752 90.7714 199.103 91.831 199.103H91.8124ZM120.552 223.828C121.63 223.828 122.467 224.477 122.467 225.324C122.467 226.171 121.612 226.82 120.552 226.82H96.5528C93.1695 226.82 91.199 225.324 91.199 222.756V220.187C91.199 219.27 92.2214 218.564 93.5227 218.564C94.824 218.564 95.8464 219.27 95.8464 220.187V222.487C95.8464 223.362 96.4785 223.842 97.631 223.842H120.571L120.552 223.828ZM114.213 208.714C116.128 208.714 116.89 208.304 116.89 207.556C116.89 206.808 116.128 206.399 114.213 206.399H98.3374C96.4227 206.399 95.6605 206.808 95.6605 207.556C95.6605 208.304 96.4227 208.714 98.3374 208.714H114.213Z" fill="#DB9099"/>
</svg>
