<svg width="51" height="51" viewBox="0 0 51 51" fill="none" xmlns="http://www.w3.org/2000/svg">
<circle cx="25.5" cy="25.5" r="23.5" fill="#F0F0F0" stroke="#6BB2B7" stroke-width="4"/>
<path d="M37.369 21.2463C32.8302 21.2463 29.1537 17.4457 29.1537 12.7537C29.1537 10.6891 27.5198 9 25.5227 9C23.5256 9 21.8917 10.6891 21.8917 12.7537C21.8917 17.4457 18.1698 21.2463 13.6764 21.2463C11.634 21.2463 10 22.9355 10 25C10 27.0645 11.634 28.7537 13.6764 28.7537C18.1698 28.7537 21.8917 32.5543 21.8917 37.2463C21.8917 39.3578 23.4802 41 25.5227 41C27.5652 41 29.1537 39.3578 29.1537 37.2463C29.1537 32.5543 32.8302 28.7537 37.369 28.7537C39.366 28.7537 41 27.0645 41 25C41 22.9355 39.366 21.2463 37.369 21.2463ZM25.5227 26.9707C24.9326 26.2669 24.2972 25.61 23.6164 25C24.2972 24.39 24.9326 23.7801 25.5227 23.0293C26.0673 23.7801 26.7028 24.39 27.3836 25C26.7028 25.61 26.0673 26.2669 25.5227 26.9707Z" fill="#C8C8C8"/>
</svg>
