<svg width="46" height="45" viewBox="0 0 46 45" fill="none" xmlns="http://www.w3.org/2000/svg">
<path d="M35.9004 18.3944C30.776 18.3944 26.6252 14.2375 26.6252 9.10557C26.6252 6.84751 24.7804 5 22.5256 5C20.2709 5 18.4261 6.84751 18.4261 9.10557C18.4261 14.2375 14.224 18.3944 9.15081 18.3944C6.8448 18.3944 5 20.2419 5 22.5C5 24.7581 6.8448 26.6056 9.15081 26.6056C14.224 26.6056 18.4261 30.7625 18.4261 35.8944C18.4261 38.2038 20.2196 40 22.5256 40C24.8316 40 26.6252 38.2038 26.6252 35.8944C26.6252 30.7625 30.776 26.6056 35.9004 26.6056C38.1552 26.6056 40 24.7581 40 22.5C40 20.2419 38.1552 18.3944 35.9004 18.3944Z" fill="#AB194F"/>
<path d="M37.8287 3.82698C36.3646 3.82698 35.1786 2.6393 35.1786 1.17302C35.1786 0.527859 34.6515 0 34.0073 0C33.3631 0 32.836 0.527859 32.836 1.17302C32.836 2.6393 31.6354 3.82698 30.1859 3.82698C29.5271 3.82698 29 4.35484 29 5C29 5.64516 29.5271 6.17302 30.1859 6.17302C31.6354 6.17302 32.836 7.3607 32.836 8.82698C32.836 9.4868 33.3485 10 34.0073 10C34.6662 10 35.1786 9.4868 35.1786 8.82698C35.1786 7.3607 36.3646 6.17302 37.8287 6.17302C38.4729 6.17302 39 5.64516 39 5C39 4.35484 38.4729 3.82698 37.8287 3.82698ZM34.0073 5.61584C33.817 5.39589 33.612 5.19062 33.3924 5C33.612 4.80938 33.817 4.61877 34.0073 4.38416C34.183 4.61877 34.388 4.80938 34.6076 5C34.388 5.19062 34.183 5.39589 34.0073 5.61584Z" fill="#C64B3F"/>
<path d="M44.8287 11.827C43.3646 11.827 42.1786 10.6393 42.1786 9.17302C42.1786 8.52786 41.6515 8 41.0073 8C40.3631 8 39.836 8.52786 39.836 9.17302C39.836 10.6393 38.6354 11.827 37.1859 11.827C36.5271 11.827 36 12.3548 36 13C36 13.6452 36.5271 14.173 37.1859 14.173C38.6354 14.173 39.836 15.3607 39.836 16.827C39.836 17.4868 40.3485 18 41.0073 18C41.6662 18 42.1786 17.4868 42.1786 16.827C42.1786 15.3607 43.3646 14.173 44.8287 14.173C45.4729 14.173 46 13.6452 46 13C46 12.3548 45.4729 11.827 44.8287 11.827ZM41.0073 13.6158C40.817 13.3959 40.612 13.1906 40.3924 13C40.612 12.8094 40.817 12.6188 41.0073 12.3842C41.183 12.6188 41.388 12.8094 41.6076 13C41.388 13.1906 41.183 13.3959 41.0073 13.6158Z" fill="#E37031"/>
<path d="M44.8287 30.827C43.3646 30.827 42.1786 29.6393 42.1786 28.173C42.1786 27.5279 41.6515 27 41.0073 27C40.3631 27 39.836 27.5279 39.836 28.173C39.836 29.6393 38.6354 30.827 37.1859 30.827C36.5271 30.827 36 31.3548 36 32C36 32.6452 36.5271 33.173 37.1859 33.173C38.6354 33.173 39.836 34.3607 39.836 35.827C39.836 36.4868 40.3485 37 41.0073 37C41.6662 37 42.1786 36.4868 42.1786 35.827C42.1786 34.3607 43.3646 33.173 44.8287 33.173C45.4729 33.173 46 32.6452 46 32C46 31.3548 45.4729 30.827 44.8287 30.827ZM41.0073 32.6158C40.817 32.3959 40.612 32.1906 40.3924 32C40.612 31.8094 40.817 31.6188 41.0073 31.3842C41.183 31.6188 41.388 31.8094 41.6076 32C41.388 32.1906 41.183 32.3959 41.0073 32.6158Z" fill="#F09B45"/>
<path d="M37.8287 38.827C36.3646 38.827 35.1786 37.6393 35.1786 36.173C35.1786 35.5279 34.6515 35 34.0073 35C33.3631 35 32.836 35.5279 32.836 36.173C32.836 37.6393 31.6354 38.827 30.1859 38.827C29.5271 38.827 29 39.3548 29 40C29 40.6452 29.5271 41.173 30.1859 41.173C31.6354 41.173 32.836 42.3607 32.836 43.827C32.836 44.4868 33.3485 45 34.0073 45C34.6662 45 35.1786 44.4868 35.1786 43.827C35.1786 42.3607 36.3646 41.173 37.8287 41.173C38.4729 41.173 39 40.6452 39 40C39 39.3548 38.4729 38.827 37.8287 38.827ZM34.0073 40.6158C33.817 40.3959 33.612 40.1906 33.3924 40C33.612 39.8094 33.817 39.6188 34.0073 39.3842C34.183 39.6188 34.388 39.8094 34.6076 40C34.388 40.1906 34.183 40.3959 34.0073 40.6158Z" fill="#E9B648"/>
<circle cx="8" cy="8" r="8" fill="#6BB2B7"/>
<circle cx="8" cy="37" r="8" fill="#5690DC"/>
</svg>
