<svg width="211" height="18" viewBox="0 0 211 18" fill="none" xmlns="http://www.w3.org/2000/svg">
<path d="M15.664 14.168C15.6 14.376 15.568 14.584 15.568 14.792C15.568 14.968 15.592 15.12 15.64 15.248C15.688 15.36 15.736 15.456 15.784 15.536C15.848 15.6 15.888 15.648 15.904 15.68C16.064 15.84 16.144 16 16.144 16.16C16.144 16.192 16.128 16.272 16.096 16.4C16.032 16.624 15.888 16.784 15.664 16.88C15.456 16.96 15.128 17 14.68 17H8.992C8.656 17 8.392 16.944 8.2 16.832C8.024 16.72 7.936 16.568 7.936 16.376C7.936 16.28 7.96 16.176 8.008 16.064C8.056 15.936 8.12 15.84 8.2 15.776C8.296 15.696 8.424 15.608 8.584 15.512C8.84 15.368 9.048 15.208 9.208 15.032C9.368 14.856 9.504 14.568 9.616 14.168L10.24 12.104H6.496L5.848 13.472C5.576 14.064 5.44 14.528 5.44 14.864C5.44 15.056 5.472 15.216 5.536 15.344C5.6 15.456 5.696 15.576 5.824 15.704C5.936 15.832 6.008 15.944 6.04 16.04C6.088 16.12 6.096 16.232 6.064 16.376C6 16.616 5.864 16.784 5.656 16.88C5.464 16.96 5.152 17 4.72 17H1.144C0.776 17 0.496 16.936 0.304 16.808C0.112 16.664 0.016 16.48 0.016 16.256C0.016 16 0.112 15.8 0.304 15.656C0.48 15.496 0.752 15.328 1.12 15.152C1.6 14.912 1.984 14.68 2.272 14.456C2.56 14.216 2.808 13.888 3.016 13.472L7.288 4.616C7.944 3.24 8.712 2.248 9.592 1.64C10.488 1.016 11.664 0.704 13.12 0.704C14.752 0.704 16.016 1.04 16.912 1.712C17.808 2.368 18.256 3.288 18.256 4.472C18.256 4.968 18.176 5.48 18.016 6.008L15.664 14.168ZM10.96 9.704L12.232 5.48C12.296 5.288 12.328 5.088 12.328 4.88C12.328 4.576 12.24 4.352 12.064 4.208C11.904 4.048 11.672 3.968 11.368 3.968C10.984 3.968 10.656 4.08 10.384 4.304C10.112 4.528 9.84 4.928 9.568 5.504L7.6 9.704H10.96ZM31.2754 10.808C31.7234 10.808 32.0594 10.904 32.2834 11.096C32.5234 11.272 32.6434 11.528 32.6434 11.864C32.6434 12.008 32.6194 12.168 32.5714 12.344L31.7794 15.152C31.5714 15.84 31.2754 16.32 30.8914 16.592C30.5234 16.864 29.9714 17 29.2354 17H17.9554C17.6194 17 17.3634 16.944 17.1874 16.832C16.9954 16.72 16.8994 16.568 16.8994 16.376C16.8994 16.28 16.9234 16.176 16.9714 16.064C17.0194 15.936 17.0994 15.832 17.2114 15.752C17.3234 15.656 17.4434 15.568 17.5714 15.488C17.8274 15.328 18.0354 15.168 18.1954 15.008C18.3554 14.832 18.4914 14.552 18.6034 14.168L21.5314 3.824C21.5954 3.616 21.6274 3.416 21.6274 3.224C21.6274 3.048 21.5954 2.904 21.5314 2.792C21.4834 2.664 21.4114 2.52 21.3154 2.36C21.1714 2.152 21.0994 1.984 21.0994 1.856C21.0994 1.808 21.1154 1.72 21.1474 1.592C21.2114 1.384 21.3474 1.24 21.5554 1.16C21.7794 1.064 22.1154 1.016 22.5634 1.016H28.2034C28.5394 1.016 28.7954 1.072 28.9714 1.184C29.1634 1.28 29.2594 1.424 29.2594 1.616C29.2594 1.696 29.2354 1.8 29.1874 1.928C29.1394 2.04 29.0674 2.144 28.9714 2.24C28.8914 2.32 28.8114 2.384 28.7314 2.432C28.6674 2.464 28.6194 2.496 28.5874 2.528C28.3314 2.672 28.1234 2.832 27.9634 3.008C27.8034 3.184 27.6674 3.456 27.5554 3.824L24.4594 14.696H25.9474C26.3154 14.696 26.6274 14.632 26.8834 14.504C27.1554 14.376 27.4354 14.136 27.7234 13.784L29.3794 11.816C29.6834 11.464 29.9714 11.208 30.2434 11.048C30.5314 10.888 30.8754 10.808 31.2754 10.808ZM46.9083 10.808C47.3563 10.808 47.6923 10.904 47.9163 11.096C48.1563 11.272 48.2763 11.528 48.2763 11.864C48.2763 12.008 48.2523 12.168 48.2043 12.344L47.4123 15.152C47.2043 15.84 46.9083 16.32 46.5243 16.592C46.1563 16.864 45.6043 17 44.8683 17H33.5883C33.2523 17 32.9962 16.944 32.8202 16.832C32.6282 16.72 32.5322 16.568 32.5322 16.376C32.5322 16.28 32.5562 16.176 32.6042 16.064C32.6522 15.936 32.7322 15.832 32.8442 15.752C32.9562 15.656 33.0762 15.568 33.2043 15.488C33.4603 15.328 33.6683 15.168 33.8283 15.008C33.9883 14.832 34.1243 14.552 34.2363 14.168L37.1643 3.824C37.2283 3.616 37.2603 3.416 37.2603 3.224C37.2603 3.048 37.2283 2.904 37.1643 2.792C37.1163 2.664 37.0443 2.52 36.9483 2.36C36.8043 2.152 36.7323 1.984 36.7323 1.856C36.7323 1.808 36.7483 1.72 36.7803 1.592C36.8443 1.384 36.9803 1.24 37.1883 1.16C37.4123 1.064 37.7483 1.016 38.1963 1.016H43.8363C44.1723 1.016 44.4283 1.072 44.6043 1.184C44.7963 1.28 44.8923 1.424 44.8923 1.616C44.8923 1.696 44.8683 1.8 44.8203 1.928C44.7723 2.04 44.7003 2.144 44.6043 2.24C44.5243 2.32 44.4443 2.384 44.3643 2.432C44.3003 2.464 44.2523 2.496 44.2203 2.528C43.9643 2.672 43.7563 2.832 43.5963 3.008C43.4363 3.184 43.3003 3.456 43.1883 3.824L40.0923 14.696H41.5803C41.9483 14.696 42.2603 14.632 42.5163 14.504C42.7883 14.376 43.0683 14.136 43.3563 13.784L45.0123 11.816C45.3163 11.464 45.6043 11.208 45.8763 11.048C46.1643 10.888 46.5083 10.808 46.9083 10.808ZM79.3698 1.016C79.7058 1.016 79.9618 1.072 80.1378 1.184C80.3298 1.28 80.4258 1.424 80.4258 1.616C80.4258 1.696 80.4018 1.8 80.3538 1.928C80.3058 2.072 80.2338 2.184 80.1378 2.264C80.0578 2.328 79.9298 2.416 79.7538 2.528C79.4978 2.672 79.2898 2.832 79.1298 3.008C78.9858 3.184 78.8578 3.456 78.7458 3.824L75.8178 14.144C75.7538 14.352 75.7218 14.552 75.7218 14.744C75.7218 14.92 75.7458 15.072 75.7938 15.2C75.8578 15.312 75.9378 15.448 76.0338 15.608C76.0978 15.688 76.1538 15.776 76.2018 15.872C76.2498 15.952 76.2738 16.04 76.2738 16.136C76.2738 16.168 76.2578 16.248 76.2258 16.376C76.1618 16.584 76.0098 16.736 75.7698 16.832C75.5458 16.928 75.2178 16.976 74.7858 16.976H69.1458C68.8098 16.976 68.5458 16.92 68.3538 16.808C68.1778 16.696 68.0898 16.544 68.0898 16.352C68.0898 16.256 68.1138 16.152 68.1618 16.04C68.2098 15.928 68.2738 15.832 68.3538 15.752C68.4498 15.656 68.5298 15.592 68.5938 15.56C68.6738 15.512 68.7298 15.472 68.7618 15.44C69.0178 15.296 69.2258 15.136 69.3858 14.96C69.5458 14.784 69.6818 14.512 69.7938 14.144L71.6178 7.664L65.4018 15.368C64.8898 15.992 64.4738 16.424 64.1538 16.664C63.8498 16.888 63.4978 17 63.0978 17C62.7138 17 62.4098 16.88 62.1858 16.64C61.9778 16.384 61.7858 15.96 61.6098 15.368L59.3538 7.952L57.5778 14.168C57.5138 14.376 57.4818 14.576 57.4818 14.768C57.4818 14.96 57.5058 15.12 57.5538 15.248C57.6178 15.376 57.7058 15.512 57.8178 15.656C57.9618 15.864 58.0338 16.032 58.0338 16.16C58.0338 16.192 58.0178 16.272 57.9858 16.4C57.9218 16.624 57.7778 16.784 57.5538 16.88C57.3298 16.96 56.9938 17 56.5458 17H54.5538C54.2178 17 53.9538 16.944 53.7618 16.832C53.5857 16.72 53.4977 16.568 53.4977 16.376C53.4977 16.28 53.5217 16.176 53.5697 16.064C53.6338 15.888 53.7378 15.752 53.8818 15.656C54.0258 15.56 54.1138 15.504 54.1458 15.488C54.4018 15.328 54.6098 15.168 54.7698 15.008C54.9298 14.832 55.0658 14.552 55.1777 14.168L58.1058 3.8L57.7218 2.528C57.6418 2.288 57.6018 2.056 57.6018 1.832C57.6018 1.544 57.6898 1.336 57.8658 1.208C58.0578 1.08 58.3458 1.016 58.7298 1.016H62.4498C62.9298 1.016 63.2818 1.12 63.5058 1.328C63.7458 1.536 63.9378 1.896 64.0818 2.408L66.4818 10.376L72.9858 2.288C73.4018 1.776 73.8098 1.44 74.2098 1.28C74.6098 1.104 75.1378 1.016 75.7938 1.016H79.3698ZM90.1255 0.655999C92.1415 0.655999 93.7175 1.136 94.8535 2.096C95.9895 3.04 96.5575 4.408 96.5575 6.2C96.5575 7.048 96.4295 7.96 96.1735 8.936C95.6935 10.728 94.9495 12.248 93.9415 13.496C92.9335 14.744 91.7335 15.688 90.3415 16.328C88.9495 16.968 87.4375 17.288 85.8055 17.288C83.8055 17.288 82.2375 16.816 81.1015 15.872C79.9655 14.912 79.3975 13.536 79.3975 11.744C79.3975 10.928 79.5335 9.992 79.8055 8.936C80.2695 7.16 80.9975 5.656 81.9895 4.424C82.9975 3.176 84.1895 2.24 85.5655 1.616C86.9575 0.975999 88.4775 0.655999 90.1255 0.655999ZM89.6935 3.008C89.2135 3.008 88.7815 3.2 88.3975 3.584C88.0135 3.968 87.6295 4.6 87.2455 5.48C86.8775 6.344 86.4775 7.552 86.0455 9.104C85.4055 11.344 85.0855 12.888 85.0855 13.736C85.0855 14.232 85.1735 14.592 85.3495 14.816C85.5255 15.04 85.8055 15.152 86.1895 15.152C86.6695 15.152 87.1015 14.96 87.4855 14.576C87.8695 14.176 88.2455 13.544 88.6135 12.68C88.9815 11.816 89.3895 10.624 89.8375 9.104C90.4615 6.896 90.7735 5.344 90.7735 4.448C90.7735 3.936 90.6855 3.568 90.5095 3.344C90.3335 3.12 90.0615 3.008 89.6935 3.008ZM107.727 0.655999C109.743 0.655999 111.319 1.136 112.455 2.096C113.591 3.04 114.159 4.408 114.159 6.2C114.159 7.048 114.031 7.96 113.775 8.936C113.295 10.728 112.551 12.248 111.543 13.496C110.535 14.744 109.335 15.688 107.943 16.328C106.551 16.968 105.039 17.288 103.407 17.288C101.407 17.288 99.8391 16.816 98.7031 15.872C97.5671 14.912 96.9991 13.536 96.9991 11.744C96.9991 10.928 97.1351 9.992 97.4071 8.936C97.8711 7.16 98.5991 5.656 99.5911 4.424C100.599 3.176 101.791 2.24 103.167 1.616C104.559 0.975999 106.079 0.655999 107.727 0.655999ZM107.295 3.008C106.815 3.008 106.383 3.2 105.999 3.584C105.615 3.968 105.231 4.6 104.847 5.48C104.479 6.344 104.079 7.552 103.647 9.104C103.007 11.344 102.687 12.888 102.687 13.736C102.687 14.232 102.775 14.592 102.951 14.816C103.127 15.04 103.407 15.152 103.791 15.152C104.271 15.152 104.703 14.96 105.087 14.576C105.471 14.176 105.847 13.544 106.215 12.68C106.583 11.816 106.991 10.624 107.439 9.104C108.063 6.896 108.375 5.344 108.375 4.448C108.375 3.936 108.287 3.568 108.111 3.344C107.935 3.12 107.663 3.008 107.295 3.008ZM124.176 1.016C126.576 1.016 128.384 1.48 129.6 2.408C130.816 3.32 131.424 4.664 131.424 6.44C131.424 7.32 131.264 8.336 130.944 9.488C130.416 11.344 129.704 12.816 128.808 13.904C127.912 14.992 126.728 15.784 125.256 16.28C123.8 16.776 121.928 17.016 119.64 17L113.112 16.976C112.776 16.976 112.52 16.92 112.344 16.808C112.152 16.696 112.056 16.544 112.056 16.352C112.056 16.256 112.08 16.152 112.128 16.04C112.176 15.896 112.248 15.792 112.344 15.728C112.424 15.664 112.552 15.576 112.728 15.464C112.984 15.32 113.184 15.16 113.328 14.984C113.488 14.808 113.624 14.528 113.736 14.144L116.664 3.824C116.728 3.616 116.76 3.416 116.76 3.224C116.76 3.048 116.728 2.904 116.664 2.792C116.616 2.664 116.544 2.52 116.448 2.36C116.304 2.152 116.232 1.984 116.232 1.856C116.232 1.808 116.248 1.72 116.28 1.592C116.344 1.384 116.48 1.24 116.688 1.16C116.912 1.064 117.248 1.016 117.696 1.016H124.176ZM124.8 8.96C125.216 7.456 125.424 6.272 125.424 5.408C125.424 4.56 125.248 3.976 124.896 3.656C124.544 3.336 124.04 3.176 123.384 3.176H122.856L119.616 14.84H120.192C120.928 14.84 121.544 14.688 122.04 14.384C122.552 14.064 123.024 13.488 123.456 12.656C123.888 11.808 124.336 10.576 124.8 8.96ZM156.447 3.32C156.447 3.896 156.319 4.392 156.063 4.808C155.823 5.224 155.511 5.544 155.127 5.768C154.743 5.976 154.359 6.08 153.975 6.08C153.591 6.08 153.239 6 152.919 5.84C152.615 5.68 152.359 5.464 152.151 5.192L146.367 14.936C145.935 15.672 145.535 16.2 145.167 16.52C144.799 16.84 144.383 17 143.919 17C143.423 17 143.023 16.84 142.719 16.52C142.431 16.184 142.223 15.656 142.095 14.936L140.079 3.848C140.031 3.56 139.943 3.328 139.815 3.152C139.687 2.976 139.519 2.784 139.311 2.576C139.151 2.432 139.039 2.32 138.975 2.24C138.911 2.144 138.879 2.032 138.879 1.904C138.799 1.312 139.151 1.016 139.935 1.016H145.935C146.303 1.016 146.583 1.096 146.775 1.256C146.967 1.4 147.055 1.6 147.039 1.856C147.039 2 147.007 2.12 146.943 2.216C146.895 2.312 146.807 2.432 146.679 2.576C146.535 2.736 146.423 2.888 146.343 3.032C146.263 3.176 146.223 3.352 146.223 3.56C146.223 3.656 146.231 3.736 146.247 3.8L147.159 9.392L150.351 3.728C150.911 2.704 151.463 1.984 152.007 1.568C152.551 1.136 153.223 0.92 154.023 0.92C154.759 0.92 155.343 1.136 155.775 1.568C156.223 1.984 156.447 2.568 156.447 3.32ZM164.281 1.016C164.617 1.016 164.873 1.072 165.049 1.184C165.241 1.28 165.337 1.424 165.337 1.616C165.337 1.696 165.313 1.8 165.265 1.928C165.217 2.04 165.145 2.144 165.049 2.24C164.969 2.32 164.889 2.384 164.809 2.432C164.745 2.464 164.697 2.496 164.665 2.528C164.409 2.672 164.201 2.832 164.041 3.008C163.881 3.184 163.745 3.456 163.633 3.824L160.729 14.168C160.665 14.376 160.633 14.576 160.633 14.768C160.633 14.96 160.657 15.12 160.705 15.248C160.769 15.376 160.857 15.512 160.969 15.656C161.113 15.864 161.185 16.032 161.185 16.16C161.185 16.192 161.169 16.272 161.137 16.4C161.073 16.624 160.929 16.784 160.705 16.88C160.481 16.96 160.145 17 159.697 17H154.057C153.721 17 153.465 16.944 153.289 16.832C153.097 16.72 153.001 16.568 153.001 16.376C153.001 16.28 153.025 16.176 153.073 16.064C153.137 15.888 153.241 15.752 153.385 15.656C153.529 15.56 153.617 15.504 153.649 15.488C153.905 15.328 154.113 15.168 154.273 15.008C154.433 14.832 154.569 14.552 154.681 14.168L157.609 3.824C157.673 3.616 157.705 3.416 157.705 3.224C157.705 3.048 157.673 2.904 157.609 2.792C157.561 2.664 157.489 2.52 157.393 2.36C157.249 2.152 157.177 1.984 157.177 1.856C157.177 1.808 157.193 1.72 157.225 1.592C157.289 1.384 157.425 1.24 157.633 1.16C157.857 1.064 158.193 1.016 158.641 1.016H164.281ZM179.727 1.016C180.319 1.016 180.775 1.144 181.095 1.4C181.431 1.656 181.599 2.008 181.599 2.456C181.599 2.68 181.567 2.896 181.503 3.104L180.879 5.336C180.767 5.768 180.599 6.072 180.375 6.248C180.167 6.408 179.863 6.488 179.463 6.488C179.079 6.488 178.775 6.408 178.551 6.248C178.343 6.072 178.183 5.792 178.071 5.408L177.687 4.04C177.607 3.752 177.511 3.56 177.399 3.464C177.287 3.368 177.071 3.32 176.751 3.32H174.231L173.031 7.592H174.087C174.199 7.592 174.351 7.512 174.543 7.352L175.359 6.632C175.599 6.424 175.807 6.272 175.983 6.176C176.159 6.08 176.375 6.032 176.631 6.032C176.919 6.032 177.151 6.112 177.327 6.272C177.519 6.416 177.615 6.608 177.615 6.848C177.615 6.912 177.599 7.008 177.567 7.136L176.583 10.472C176.487 10.824 176.319 11.088 176.079 11.264C175.855 11.424 175.607 11.504 175.335 11.504C174.887 11.504 174.551 11.272 174.327 10.808L173.919 9.968C173.807 9.728 173.631 9.608 173.391 9.608H172.455L171.039 14.696H173.151C173.455 14.696 173.719 14.64 173.943 14.528C174.183 14.4 174.439 14.184 174.711 13.88L176.151 12.296C176.407 12.024 176.647 11.832 176.871 11.72C177.111 11.592 177.399 11.528 177.735 11.528C178.087 11.528 178.375 11.608 178.599 11.768C178.823 11.928 178.935 12.168 178.935 12.488C178.935 12.616 178.911 12.768 178.863 12.944L178.167 15.368C177.991 15.976 177.735 16.4 177.399 16.64C177.063 16.88 176.575 17 175.935 17H164.487C164.151 17 163.895 16.944 163.719 16.832C163.527 16.72 163.431 16.568 163.431 16.376C163.431 16.28 163.455 16.176 163.503 16.064C163.567 15.888 163.671 15.752 163.815 15.656C163.959 15.56 164.047 15.504 164.079 15.488C164.335 15.328 164.543 15.168 164.703 15.008C164.863 14.832 164.999 14.552 165.111 14.168L168.063 3.824C168.127 3.616 168.159 3.424 168.159 3.248C168.159 3.056 168.127 2.896 168.063 2.768C168.015 2.64 167.935 2.504 167.823 2.36C167.679 2.152 167.607 1.984 167.607 1.856C167.607 1.808 167.623 1.72 167.655 1.592C167.719 1.384 167.863 1.24 168.087 1.16C168.311 1.064 168.639 1.016 169.071 1.016H179.727ZM210.276 3.32C210.276 3.896 210.14 4.4 209.868 4.832C209.596 5.248 209.252 5.568 208.836 5.792C208.436 6 208.044 6.104 207.66 6.104C207.292 6.104 206.94 6.016 206.604 5.84C206.284 5.648 206.076 5.432 205.98 5.192L200.148 14.936C199.7 15.688 199.292 16.224 198.924 16.544C198.572 16.848 198.164 17 197.7 17C196.628 17 196.02 16.312 195.876 14.936L195.108 7.88L190.26 14.936C189.7 15.752 189.244 16.304 188.892 16.592C188.556 16.864 188.164 17 187.716 17C186.74 17 186.148 16.232 185.94 14.696L184.404 3.848C184.356 3.528 184.26 3.272 184.116 3.08C183.988 2.888 183.82 2.704 183.612 2.528C183.468 2.4 183.364 2.296 183.3 2.216C183.236 2.12 183.204 2.016 183.204 1.904C183.124 1.312 183.476 1.016 184.26 1.016H190.236C190.604 1.016 190.876 1.096 191.052 1.256C191.244 1.4 191.332 1.6 191.316 1.856C191.316 1.984 191.276 2.112 191.196 2.24C191.132 2.352 191.06 2.456 190.98 2.552C190.804 2.744 190.676 2.928 190.596 3.104C190.516 3.28 190.492 3.512 190.524 3.8L191.148 9.584L194.748 4.424L194.676 3.848C194.644 3.544 194.564 3.296 194.436 3.104C194.308 2.912 194.132 2.728 193.908 2.552C193.748 2.408 193.636 2.296 193.572 2.216C193.508 2.12 193.476 2.016 193.476 1.904C193.396 1.312 193.748 1.016 194.532 1.016H200.532C200.9 1.016 201.18 1.096 201.372 1.256C201.564 1.4 201.652 1.6 201.636 1.856C201.636 2.064 201.524 2.296 201.3 2.552C201.14 2.744 201.02 2.928 200.94 3.104C200.86 3.28 200.828 3.512 200.844 3.8L201.132 9.032L204.372 3.368C204.9 2.456 205.412 1.824 205.908 1.472C206.404 1.104 207.052 0.92 207.852 0.92C208.572 0.92 209.156 1.136 209.604 1.568C210.052 2 210.276 2.584 210.276 3.32Z" fill="#0E5649"/>
</svg>
