<svg width="79" height="79" viewBox="0 0 79 79" fill="none" xmlns="http://www.w3.org/2000/svg">
<rect width="79" height="79" rx="10" fill="#F7F7F7"/>
<path fill-rule="evenodd" clip-rule="evenodd" d="M23.7141 23.0679C22.773 23.0679 22.0096 23.8754 22.0096 24.8709V54.3705C22.0096 55.3657 22.7727 56.1726 23.7141 56.1726H56.9879C57.929 56.1726 58.6916 55.366 58.6916 54.3705V24.8709C58.6916 23.8751 57.9288 23.0679 56.9879 23.0679H23.7141ZM21 24.8709C21 23.2856 22.2154 22 23.7141 22H56.9879C58.4869 22 59.7012 23.2859 59.7012 24.8709V54.3705C59.7012 55.9558 58.4866 57.2405 56.9879 57.2405H23.7141C22.2157 57.2405 21 55.956 21 54.3705V24.8709Z" fill="#E6E6E6"/>
<path fill-rule="evenodd" clip-rule="evenodd" d="M37.47 36.4759C36.927 35.7978 35.9388 35.7978 35.3959 36.4759L22.0096 53.1816V54.3704C22.0096 55.3656 22.7727 56.1725 23.7141 56.1725H56.9879C57.929 56.1725 58.6916 55.3659 58.6916 54.3704V53.7057L48.1592 40.5626C48.1592 40.5626 48.1592 40.5626 48.1592 40.5626C47.6163 39.8851 46.6286 39.8851 46.0857 40.5626L45.2225 41.6394C45.2224 41.6394 45.2225 41.6393 45.2225 41.6394C44.2763 42.8199 42.554 42.82 41.6078 41.6394L37.47 36.4759ZM38.2404 35.7858C37.2942 34.604 35.5717 34.604 34.6254 35.7858L21 52.7899V54.3704C21 55.956 22.2157 57.2404 23.7141 57.2404H56.9879C58.4866 57.2404 59.7012 55.9557 59.7012 54.3704V53.314L48.9294 39.872C47.9832 38.6914 46.2618 38.6914 45.3156 39.872C45.3156 39.872 45.3156 39.872 45.3156 39.872L44.4524 40.9488C43.9094 41.6263 42.9209 41.6263 42.3779 40.9488L38.2404 35.7858Z" fill="#E6E6E6"/>
<path fill-rule="evenodd" clip-rule="evenodd" d="M49.6575 28.7017C47.7297 28.7017 46.1668 30.3548 46.1668 32.3939C46.1668 34.4331 47.7297 36.0862 49.6575 36.0862C51.5853 36.0862 53.1482 34.4331 53.1482 32.3939C53.1482 30.3548 51.5853 28.7017 49.6575 28.7017ZM45.1572 32.3939C45.1572 29.765 47.1721 27.6338 49.6575 27.6338C52.1429 27.6338 54.1578 29.765 54.1578 32.3939C54.1578 35.0229 52.1429 37.1541 49.6575 37.1541C47.1721 37.1541 45.1572 35.0229 45.1572 32.3939Z" fill="#E6E6E6"/>
</svg>
