<svg width="25" height="25" viewBox="0 0 25 25" fill="none" xmlns="http://www.w3.org/2000/svg">
<g filter="url(#filter0_d_5064_138)">
<path d="M13.0438 5.98487L16.5391 9.48012C16.9973 9.93836 16.8743 10.7103 16.2946 11.004L15.212 11.5514L14.6262 11.8482L13.3806 12.4787L12.7932 12.7739L11.5153 13.4213L10.9279 13.7166L9.86228 14.2563L9.27333 14.5531L9.25949 14.5608C8.43835 14.9759 7.56492 14.1025 7.98011 13.2814L8.30764 12.634L8.71668 11.8251L9.45786 10.3582L9.92687 9.43091L10.6604 7.97776L11.1401 7.03052L11.5369 6.24628C11.7168 5.89107 12.0766 5.70654 12.4349 5.72346L12.4364 5.72192C12.6533 5.73576 12.8701 5.82034 13.0438 5.98487Z" fill="#ABABAB"/>
</g>
<path d="M8.90112 11.0002C9.33505 12.4211 10.0604 13.691 10.4858 14.3631L9.67112 14.7737C9.30739 14.1845 8.76499 13.2337 8.33532 12.1191L8.90112 11.0002Z" fill="white"/>
<path d="M10.2255 6.37852C10.653 9.3713 12.5121 12.6087 13.3246 13.9147L12.5121 14.3231C11.7485 13.0958 10.2297 10.4327 9.56184 7.68879L10.2255 6.37852Z" fill="white"/>
<path d="M12.2284 3.99961C12.656 6.9924 14.515 10.2298 15.3276 11.5358L14.515 11.9442C13.7514 10.7169 12.2327 8.0538 11.5648 5.30989L12.2284 3.99961Z" fill="white"/>
<path d="M18.9573 9.22656C19.1045 9.14002 19.2582 9.06627 19.4216 9.01173L19.2102 9.08251C19.447 9.00286 19.6941 8.95822 19.9438 8.94841L19.7244 8.95895C19.8969 8.95203 20.07 8.96092 20.2451 8.98883C20.2846 8.99294 20.3228 9.00175 20.3639 9.00906C20.5147 9.03323 20.1439 8.95163 20.3258 9.00025C20.4113 9.02126 20.4955 9.04699 20.5783 9.07742C20.6549 9.10296 20.7317 9.13641 20.804 9.16817C20.8332 9.18151 21.0042 9.26778 20.8516 9.18827C20.699 9.10876 20.8686 9.19974 20.8965 9.21779C21.0509 9.30841 21.1924 9.41768 21.3281 9.53788L21.1564 9.38364C21.1767 9.4015 21.1986 9.42257 21.2189 9.44044C21.3924 9.60579 21.5674 9.72219 21.8029 9.74364C22.0141 9.76135 22.2723 9.68696 22.4188 9.53245C22.7092 9.23286 22.8031 8.62673 22.442 8.28305C21.823 7.69615 21.0914 7.33094 20.2771 7.21658C19.551 7.11382 18.7676 7.25304 18.1476 7.619C17.773 7.84072 17.5608 8.35394 17.807 8.79599C18.0321 9.19645 18.5542 9.45866 18.9571 9.21865L18.9573 9.22656Z" fill="#ABABAB"/>
<path d="M18.3994 5C18.9517 5 19.3994 4.55229 19.3994 4C19.3994 3.44772 18.9517 3 18.3994 3C17.8471 3 17.3994 3.44772 17.3994 4C17.3994 4.55229 17.8471 5 18.3994 5Z" fill="#ABABAB"/>
<path d="M14.3994 4C14.9517 4 15.3994 3.55229 15.3994 3C15.3994 2.44772 14.9517 2 14.3994 2C13.8471 2 13.3994 2.44772 13.3994 3C13.3994 3.55229 13.8471 4 14.3994 4Z" fill="#ABABAB"/>
<defs>
<filter id="filter0_d_5064_138" x="0.373047" y="0.22168" width="23.9453" height="23.9458" filterUnits="userSpaceOnUse" color-interpolation-filters="sRGB">
<feFlood flood-opacity="0" result="BackgroundImageFix"/>
<feColorMatrix in="SourceAlpha" type="matrix" values="0 0 0 0 0 0 0 0 0 0 0 0 0 0 0 0 0 0 127 0" result="hardAlpha"/>
<feOffset dy="2"/>
<feGaussianBlur stdDeviation="3.75"/>
<feComposite in2="hardAlpha" operator="out"/>
<feColorMatrix type="matrix" values="0 0 0 0 1 0 0 0 0 1 0 0 0 0 1 0 0 0 0.5 0"/>
<feBlend mode="normal" in2="BackgroundImageFix" result="effect1_dropShadow_5064_138"/>
<feBlend mode="normal" in="SourceGraphic" in2="effect1_dropShadow_5064_138" result="shape"/>
</filter>
</defs>
</svg>
