<svg width="10" height="12" viewBox="0 0 10 12" fill="none" xmlns="http://www.w3.org/2000/svg">
<path d="M5.02543 7.58811C4.97401 7.58811 4.92259 7.58637 4.87117 7.58289C4.57045 7.56201 4.34141 7.27314 4.3601 6.93728C4.3788 6.60143 4.63745 6.34388 4.93817 6.3665C5.34796 6.39434 5.74529 6.22554 6.03354 5.90361L7.79736 3.93371C8.35361 3.31246 8.35361 2.30315 7.79736 1.68364C7.2411 1.06239 6.33738 1.06239 5.78113 1.68364L4.01731 3.65354C3.80385 3.89194 3.4595 3.89194 3.24604 3.65354C3.03257 3.41513 3.03257 3.03055 3.24604 2.79214L5.00985 0.822242C5.98992 -0.27408 7.58701 -0.27408 8.56707 0.822242C9.5487 1.91856 9.5487 3.70052 8.56707 4.7951L6.80326 6.765C6.32959 7.29402 5.6892 7.58811 5.02387 7.58811H5.02543Z" fill="#ABABAB"/>
<path d="M3.40368 11.635C2.71054 11.635 2.01572 11.3617 1.48705 10.8135C0.431398 9.71701 0.431398 7.93478 1.48705 6.84004L3.3869 4.86984C4.00955 4.22413 4.89738 3.93174 5.76507 4.08838C6.08562 4.14581 6.29877 4.46084 6.24338 4.79152C6.188 5.12221 5.88423 5.34499 5.56535 5.28755C5.07192 5.19879 4.56843 5.36587 4.21766 5.72963L2.31782 7.69982C1.71866 8.32116 1.71866 9.33063 2.31782 9.95023C2.91697 10.5716 3.89039 10.5698 4.48787 9.95023L6.38772 7.98004C6.61765 7.74159 6.98855 7.74159 7.21848 7.98004C7.44841 8.21848 7.44841 8.60312 7.21848 8.84156L5.31863 10.8118C4.78997 11.36 4.09683 11.6332 3.40201 11.6332L3.40368 11.635Z" fill="#ABABAB"/>
</svg>
