<svg width="46" height="45" viewBox="0 0 46 45" fill="none" xmlns="http://www.w3.org/2000/svg">
<path d="M35.7833 18.3944C30.5124 18.3944 26.243 14.2375 26.243 9.10557C26.243 6.84751 24.3455 5 22.0264 5C19.7072 5 17.8097 6.84751 17.8097 9.10557C17.8097 14.2375 13.4876 18.3944 8.2694 18.3944C5.89751 18.3944 4 20.2419 4 22.5C4 24.7581 5.89751 26.6056 8.2694 26.6056C13.4876 26.6056 17.8097 30.7625 17.8097 35.8944C17.8097 38.2038 19.6545 40 22.0264 40C24.3982 40 26.243 38.2038 26.243 35.8944C26.243 30.7625 30.5124 26.6056 35.7833 26.6056C38.1025 26.6056 40 24.7581 40 22.5C40 20.2419 38.1025 18.3944 35.7833 18.3944Z" fill="#0B8DAA"/>
<path d="M36.8287 3.82698C35.3646 3.82698 34.1786 2.6393 34.1786 1.17302C34.1786 0.527859 33.6515 0 33.0073 0C32.3631 0 31.836 0.527859 31.836 1.17302C31.836 2.6393 30.6354 3.82698 29.1859 3.82698C28.5271 3.82698 28 4.35484 28 5C28 5.64516 28.5271 6.17302 29.1859 6.17302C30.6354 6.17302 31.836 7.3607 31.836 8.82698C31.836 9.4868 32.3485 10 33.0073 10C33.6662 10 34.1786 9.4868 34.1786 8.82698C34.1786 7.3607 35.3646 6.17302 36.8287 6.17302C37.4729 6.17302 38 5.64516 38 5C38 4.35484 37.4729 3.82698 36.8287 3.82698ZM33.0073 5.61584C32.817 5.39589 32.612 5.19062 32.3924 5C32.612 4.80938 32.817 4.61877 33.0073 4.38416C33.183 4.61877 33.388 4.80938 33.6076 5C33.388 5.19062 33.183 5.39589 33.0073 5.61584Z" fill="#40B0C9"/>
<path d="M44.8287 11.827C43.3646 11.827 42.1786 10.6393 42.1786 9.17302C42.1786 8.52786 41.6515 8 41.0073 8C40.3631 8 39.836 8.52786 39.836 9.17302C39.836 10.6393 38.6354 11.827 37.1859 11.827C36.5271 11.827 36 12.3548 36 13C36 13.6452 36.5271 14.173 37.1859 14.173C38.6354 14.173 39.836 15.3607 39.836 16.827C39.836 17.4868 40.3485 18 41.0073 18C41.6662 18 42.1786 17.4868 42.1786 16.827C42.1786 15.3607 43.3646 14.173 44.8287 14.173C45.4729 14.173 46 13.6452 46 13C46 12.3548 45.4729 11.827 44.8287 11.827ZM41.0073 13.6158C40.817 13.3959 40.612 13.1906 40.3924 13C40.612 12.8094 40.817 12.6188 41.0073 12.3842C41.183 12.6188 41.388 12.8094 41.6076 13C41.388 13.1906 41.183 13.3959 41.0073 13.6158Z" fill="#2E8288"/>
<path d="M44.8287 30.827C43.3646 30.827 42.1786 29.6393 42.1786 28.173C42.1786 27.5279 41.6515 27 41.0073 27C40.3631 27 39.836 27.5279 39.836 28.173C39.836 29.6393 38.6354 30.827 37.1859 30.827C36.5271 30.827 36 31.3548 36 32C36 32.6452 36.5271 33.173 37.1859 33.173C38.6354 33.173 39.836 34.3607 39.836 35.827C39.836 36.4868 40.3485 37 41.0073 37C41.6662 37 42.1786 36.4868 42.1786 35.827C42.1786 34.3607 43.3646 33.173 44.8287 33.173C45.4729 33.173 46 32.6452 46 32C46 31.3548 45.4729 30.827 44.8287 30.827ZM41.0073 32.6158C40.817 32.3959 40.612 32.1906 40.3924 32C40.612 31.8094 40.817 31.6188 41.0073 31.3842C41.183 31.6188 41.388 31.8094 41.6076 32C41.388 32.1906 41.183 32.3959 41.0073 32.6158Z" fill="#1A575B"/>
<path d="M36.8287 38.827C35.3646 38.827 34.1786 37.6393 34.1786 36.173C34.1786 35.5279 33.6515 35 33.0073 35C32.3631 35 31.836 35.5279 31.836 36.173C31.836 37.6393 30.6354 38.827 29.1859 38.827C28.5271 38.827 28 39.3548 28 40C28 40.6452 28.5271 41.173 29.1859 41.173C30.6354 41.173 31.836 42.3607 31.836 43.827C31.836 44.4868 32.3485 45 33.0073 45C33.6662 45 34.1786 44.4868 34.1786 43.827C34.1786 42.3607 35.3646 41.173 36.8287 41.173C37.4729 41.173 38 40.6452 38 40C38 39.3548 37.4729 38.827 36.8287 38.827ZM33.0073 40.6158C32.817 40.3959 32.612 40.1906 32.3924 40C32.612 39.8094 32.817 39.6188 33.0073 39.3842C33.183 39.6188 33.388 39.8094 33.6076 40C33.388 40.1906 33.183 40.3959 33.0073 40.6158Z" fill="#6F9C80"/>
<circle cx="8" cy="8" r="8" fill="#F0AA48"/>
<circle cx="8" cy="37" r="8" fill="#DC7156"/>
</svg>
