<svg width="173" height="231" viewBox="0 0 173 231" fill="none" xmlns="http://www.w3.org/2000/svg">
<path d="M170.197 86.5C170.197 132.906 132.799 170.5 86.6968 170.5C40.5946 170.5 3.19678 132.906 3.19678 86.5C3.19678 40.0944 40.5946 2.5 86.6968 2.5C132.799 2.5 170.197 40.0944 170.197 86.5Z" stroke="#DB9099" stroke-width="5"/>
<path d="M45.0724 91.4411C45.0724 79.2829 45.1645 67.1247 45.0209 54.9702C44.9731 50.9349 47.4941 48.0195 51.6565 48.3144C53.8242 48.4674 56.0066 48.3144 58.1854 48.3554C58.7669 48.3666 58.892 48.1949 58.8884 47.6313C58.881 46.4852 58.7779 45.3355 59.0208 44.1932C59.7091 40.9567 62.668 38.7282 65.9104 39.0306C69.1049 39.3292 71.637 42.0505 71.74 45.3019C71.7658 46.1418 71.7658 46.9817 71.74 47.8216C71.729 48.2248 71.8431 48.3517 72.2516 48.348C74.9787 48.3293 77.7095 48.3256 80.4366 48.348C80.9482 48.3517 80.9445 48.1128 80.9518 47.7283C80.9813 46.5524 80.8451 45.3691 81.0917 44.1969C81.7762 40.953 84.7242 38.7282 87.9739 39.0268C91.2052 39.3255 93.7336 42.0729 93.8146 45.384C93.833 46.1605 93.844 46.9407 93.8146 47.7171C93.7962 48.1837 93.9066 48.3554 94.4108 48.3517C97.079 48.3256 99.7436 48.3218 102.412 48.3517C102.99 48.3592 103.03 48.1203 103.034 47.6462C103.045 46.5002 102.927 45.3504 103.166 44.2082C103.851 40.9605 106.788 38.7357 110.041 39.0268C113.269 39.318 115.804 42.0692 115.893 45.3766C115.911 46.0298 115.948 46.6868 115.885 47.3326C115.812 48.1053 115.988 48.389 116.846 48.3629C119.205 48.2883 121.568 48.3293 123.927 48.3368C127.342 48.348 129.694 50.7296 129.694 54.205C129.698 79.0178 129.698 103.831 129.694 128.644C129.694 132.16 127.335 134.534 123.857 134.534C99.5485 134.534 75.24 134.534 50.9278 134.534C47.4058 134.534 45.0798 132.156 45.0798 128.561C45.0798 116.187 45.0798 103.812 45.0798 91.4373L45.0724 91.4411ZM87.3777 66.9978C74.8094 66.9978 62.2411 67.0052 49.6728 66.9791C48.911 66.9791 48.7307 67.1545 48.7307 67.931C48.7564 88.0777 48.7491 108.228 48.7491 128.375C48.7491 130.211 49.349 130.809 51.1928 130.809C75.3173 130.809 99.4418 130.809 123.566 130.809C125.406 130.809 126.006 130.211 126.006 128.371C126.006 108.224 126.003 88.074 126.025 67.9273C126.025 67.1433 125.83 66.9791 125.079 66.9791C112.511 67.0052 99.9423 66.9978 87.374 66.9978H87.3777ZM87.2894 63.2648C97.8041 63.2648 108.319 63.2648 118.837 63.2648C121.012 63.2648 123.191 63.2461 125.366 63.276C125.885 63.2835 126.028 63.1342 126.025 62.6078C125.999 59.7782 126.025 56.9487 126.006 54.1191C125.999 52.8275 125.278 52.0772 124.015 52.0735C118.436 52.0623 112.857 52.0734 107.277 52.0548C106.766 52.0548 106.688 52.234 106.685 52.6894C106.666 54.4924 107.649 55.5974 109.507 55.8027C110.612 55.9259 111.351 56.7471 111.285 57.7811C111.222 58.7816 110.428 59.5095 109.371 59.5244C109.066 59.5244 108.757 59.502 108.459 59.446C105.22 58.8525 103.071 56.2655 103.012 52.9208C103.004 52.555 103.251 52.0511 102.474 52.0548C96.711 52.0809 90.9476 52.0735 85.1842 52.0585C84.7573 52.0585 84.6211 52.1556 84.6101 52.6185C84.5586 54.4551 85.5486 55.5862 87.4587 55.8064C88.5186 55.9259 89.2436 56.7098 89.2179 57.7102C89.1921 58.7517 88.3824 59.5169 87.282 59.5281C87.006 59.5281 86.73 59.5132 86.4576 59.4647C83.1858 58.9047 80.9997 56.2917 80.9445 52.9022C80.9372 52.5177 81.1433 52.0511 80.3851 52.0548C74.6217 52.0846 68.8584 52.0772 63.095 52.0585C62.6349 52.0585 62.5503 52.2004 62.5392 52.6371C62.4988 54.4401 63.5071 55.616 65.3105 55.7989C66.4072 55.9109 67.1249 56.6351 67.1433 57.6318C67.158 58.5986 66.433 59.4274 65.4614 59.5095C65.1007 59.5393 64.7217 59.5132 64.3647 59.4497C61.0892 58.8786 58.9068 56.2805 58.8884 52.876C58.8884 52.2526 58.7779 52.0324 58.1044 52.0473C55.7122 52.0921 53.3237 52.0585 50.9315 52.066C49.4263 52.0697 48.7601 52.7566 48.7564 54.302C48.7491 56.9748 48.7859 59.6513 48.7344 62.3241C48.7196 63.1006 48.911 63.2797 49.6765 63.2797C62.2153 63.2536 74.7542 63.2611 87.2931 63.2611L87.2894 63.2648ZM65.4283 48.3368C66.1828 48.2696 67.4598 48.7399 67.8978 48.1763C68.3615 47.579 68.0376 46.3509 68.0597 45.399C68.0597 45.3355 68.0597 45.2758 68.0487 45.2123C67.8279 43.5064 66.1533 42.3715 64.5708 42.8568C62.8153 43.3944 62.0093 45.1152 62.6202 47.9261C62.83 48.893 64.1402 48.1053 64.913 48.3293C65.0271 48.3629 65.1559 48.333 65.4283 48.333V48.3368ZM87.5801 48.3368C88.283 48.2472 89.5565 48.7474 89.9944 48.1613C90.4508 47.5454 90.1232 46.3285 90.1343 45.3728C90.1343 45.343 90.1343 45.3094 90.1306 45.2795C89.9318 43.4168 88.0512 42.2558 86.3583 42.9502C84.8346 43.5736 84.0617 45.4624 84.6947 47.9598C84.934 48.9117 86.1779 48.1128 86.9287 48.333C87.0686 48.3741 87.2305 48.3405 87.5838 48.3405L87.5801 48.3368ZM109.688 48.3368C110.413 48.2621 111.679 48.7325 112.062 48.1688C112.507 47.5155 112.19 46.3285 112.205 45.3766C112.205 45.3467 112.205 45.3131 112.201 45.2832C112.017 43.5288 110.317 42.3603 108.694 42.868C106.942 43.4205 106.103 45.2496 106.769 47.9485C106.994 48.8668 108.3 48.124 109.084 48.3293C109.228 48.3666 109.39 48.333 109.688 48.333V48.3368Z" fill="#DB9099"/>
<path d="M87.4292 72.5933C97.6347 72.5933 107.844 72.5933 118.049 72.5933C119.897 72.5933 120.493 73.1868 120.493 75.0271C120.493 90.9444 120.493 106.865 120.493 122.783C120.493 124.582 119.886 125.213 118.138 125.213C97.631 125.213 77.1243 125.213 56.6212 125.213C54.9062 125.213 54.2732 124.582 54.2732 122.872C54.2732 106.892 54.2732 90.9108 54.2732 74.9301C54.2732 73.2204 54.9062 72.597 56.6286 72.597C66.8967 72.597 77.1648 72.597 87.4329 72.597L87.4292 72.5933ZM87.3335 121.48C96.8692 121.48 106.401 121.472 115.937 121.499C116.647 121.499 116.835 121.331 116.831 120.595C116.809 106.137 116.809 91.6761 116.831 77.2184C116.831 76.4942 116.662 76.3113 115.941 76.3113C96.9024 76.3337 77.864 76.3337 58.8257 76.3113C58.1154 76.3113 57.9278 76.4793 57.9315 77.2146C57.9535 91.6723 57.9535 106.134 57.9315 120.591C57.9315 121.316 58.1008 121.502 58.8221 121.499C68.3247 121.472 77.8309 121.48 87.3335 121.48Z" fill="#DB9099"/>
<path d="M70.8015 94.2333C70.9487 90.1159 72.6159 86.8458 76.2189 84.8226C79.7852 82.8217 83.3772 83.027 86.8367 85.1959C87.2783 85.4721 87.5396 85.4273 87.9665 85.166C91.7205 82.8889 95.5406 82.7881 99.2099 85.2406C102.909 87.7119 104.315 91.3739 103.847 95.7787C103.578 98.291 102.596 100.564 101.241 102.662C98.4149 107.052 94.7494 110.546 90.3109 113.241C88.3603 114.425 86.5533 114.522 84.577 113.294C78.8762 109.759 74.2463 105.264 71.6701 98.8771C71.0739 97.4026 70.8015 95.8422 70.8052 94.2296L70.8015 94.2333ZM100.251 94.838C100.277 91.4784 98.8382 89.0221 96.3945 87.8873C93.8072 86.6853 91.3892 87.0362 89.1921 88.8504C87.5764 90.1868 87.1642 90.2017 85.5927 88.8653C81.8057 85.6401 76.0975 87.3946 74.7689 92.2063C74.2537 94.0728 74.4377 95.9243 75.1701 97.6751C77.5255 103.308 81.6511 107.284 86.8109 110.259C87.2268 110.498 87.6022 110.46 88.0107 110.229C92.7804 107.534 96.5417 103.812 99.0958 98.8995C99.8282 97.4922 100.229 95.9579 100.251 94.8343V94.838Z" fill="#DB9099"/>
<path d="M74.9517 227.8C73.6505 227.8 72.628 227.094 72.628 226.177V216.256C72.628 213.377 70.5274 211.147 66.7351 211.147C62.9428 211.147 60.6191 213.447 60.6191 216.256V226.177C60.6191 227.165 59.5967 227.8 58.2954 227.8C56.9941 227.8 55.9717 227.094 55.9717 226.177V209.538C55.9717 208.621 56.9941 207.915 58.2954 207.915C59.5967 207.915 60.6191 208.564 60.6191 209.538V210.286C61.7345 209.369 64.2255 207.915 67.5345 207.915C73.2415 207.915 77.2568 211.302 77.2568 215.804V226.163C77.2568 227.151 76.2344 227.786 74.9331 227.786L74.9517 227.8Z" fill="#DB9099"/>
<path d="M117.206 218.655C118.284 218.655 119.121 219.361 119.121 220.207C119.121 221.054 118.266 221.76 117.206 221.76H102.799V228.604C102.799 229.522 101.777 230.227 100.475 230.227C99.174 230.227 98.1516 229.522 98.1516 228.604V221.76H83.7446C82.6664 221.76 81.8298 221.054 81.8298 220.207C81.8298 219.361 82.685 218.655 83.7446 218.655H117.206ZM85.3061 212.968L95.1586 209.439C96.181 209.073 97.4266 209.341 97.9657 210.117C98.449 210.865 98.0958 211.881 97.0733 212.248L87.2208 215.776C86.1984 216.143 84.9529 215.875 84.4138 215.099C83.8747 214.351 84.2837 213.335 85.3061 212.968ZM113.73 215.776L100.791 211.105C99.1926 210.526 98.1516 209.341 98.1516 207.718V205.248H87.0907C86.0125 205.248 85.176 204.571 85.176 203.724C85.176 202.877 86.0311 202.2 87.0907 202.2H113.86C114.938 202.2 115.775 202.877 115.775 203.724C115.775 204.571 114.919 205.248 113.86 205.248H102.799V207.45C102.799 208.099 103.059 208.494 103.691 208.706L115.644 212.968C116.667 213.335 117.076 214.351 116.537 215.099C115.998 215.875 114.752 216.143 113.73 215.776Z" fill="#DB9099"/>
<path d="M128.937 217.498C125.553 217.498 123.583 216.002 123.583 213.433V203.47C123.583 202.552 124.605 201.847 125.906 201.847C127.208 201.847 128.23 202.552 128.23 203.47V213.095C128.23 213.97 128.862 214.449 130.015 214.449H144.775C145.853 214.449 146.69 215.127 146.69 215.974C146.69 216.82 145.835 217.498 144.775 217.498H128.937ZM155.445 227.179C156.524 227.179 157.36 227.856 157.36 228.703C157.36 229.55 156.505 230.227 155.445 230.227H131.892C128.509 230.227 126.539 228.731 126.539 226.163V221.689C126.539 220.772 127.561 220.066 128.862 220.066C130.164 220.066 131.186 220.772 131.186 221.689V225.824C131.186 226.699 131.818 227.179 132.971 227.179H155.464H155.445ZM156.245 221.35C156.245 222.268 155.222 222.973 153.921 222.973C152.62 222.973 151.597 222.268 151.597 221.35V212.643H143.79C142.712 212.643 141.875 211.994 141.875 211.147C141.875 210.3 142.73 209.651 143.79 209.651H151.597V207.21H143.79C142.712 207.21 141.875 206.56 141.875 205.714C141.875 204.867 142.73 204.218 143.79 204.218H151.597V202.623C151.597 201.706 152.62 201 153.921 201C155.222 201 156.245 201.706 156.245 202.623V221.322V221.35Z" fill="#DB9099"/>
</svg>
