<svg width="195" height="253" viewBox="0 0 195 253" fill="none" xmlns="http://www.w3.org/2000/svg">
<circle cx="88.3101" cy="87.5" r="85" stroke="#DB9099" stroke-width="5"/>
<path d="M105.925 100.178C108.2 97.8493 110.324 95.6716 112.454 93.4977C115.11 90.7842 117.744 88.0441 120.444 85.3796C122.545 83.3038 125.105 82.7113 127.872 83.5643C130.65 84.421 132.425 86.4062 133.028 89.3122C133.605 92.09 132.81 94.5168 130.827 96.5359C126.533 100.91 122.245 105.292 117.951 109.674C114.685 113.006 111.385 116.312 108.156 119.686C105.918 122.023 103.273 123.151 100.07 123.125C94.1846 123.076 88.2995 123.125 82.418 123.098C81.5191 123.098 80.8126 123.366 80.2059 124.03C79.5549 124.744 78.8743 125.427 78.1826 126.099C77.8756 126.393 77.8164 126.631 77.9606 127.072C78.7633 129.533 78.2492 131.711 76.4552 133.556C75.2419 134.805 74.0249 136.058 72.7931 137.289C70.2223 139.859 66.6934 139.878 64.1448 137.289C57.664 130.699 51.1907 124.098 44.7359 117.482C42.1503 114.829 42.1799 111.251 44.7544 108.594C45.9677 107.341 47.1847 106.096 48.4127 104.862C50.2031 103.065 52.3115 102.537 54.6863 103.356C55.2227 103.541 55.4631 103.36 55.7812 103.031C58.6295 100.114 61.5147 97.2341 64.3297 94.2827C66.5676 91.9315 69.2494 90.8672 72.438 90.8823C80.6017 90.9163 88.7692 91.0295 96.9293 90.8445C102.504 90.7162 106.321 94.6715 105.925 100.174V100.178ZM84.7558 94.9546C80.598 94.9546 76.4366 94.9923 72.2789 94.9395C70.2408 94.913 68.5873 95.5999 67.1668 97.0869C64.4554 99.9213 61.7108 102.722 58.9254 105.477C58.2966 106.1 58.4297 106.371 58.9661 106.911C63.6935 111.689 68.3875 116.501 73.0964 121.298C73.7696 121.985 74.4207 123.159 75.1457 123.215C75.9632 123.276 76.6068 122.041 77.2689 121.321C78.7078 119.758 80.4205 119.06 82.5326 119.079C88.3845 119.132 94.2401 119.079 100.092 119.109C102.149 119.12 103.835 118.422 105.293 116.92C110.516 111.534 115.78 106.198 121.032 100.838C123.385 98.4381 125.737 96.0377 128.09 93.6374C129.111 92.5995 129.514 91.3654 129.126 89.9425C128.364 87.1459 125.094 86.3194 123.026 88.4178C118.025 93.494 113.027 98.5739 108.063 103.688C105.885 105.933 103.295 107.039 100.21 107.028C95.0983 107.009 89.9825 107.028 84.8705 107.02C84.5043 107.02 84.1269 107.002 83.7718 106.915C82.8692 106.696 82.2922 105.926 82.2848 105.009C82.2774 104.095 82.8508 103.303 83.7459 103.08C84.1269 102.986 84.5375 102.967 84.9333 102.967C89.2168 102.959 93.4966 102.948 97.7801 102.967C99.3152 102.975 100.554 102.435 101.379 101.091C102.178 99.793 102.237 98.4192 101.523 97.068C100.795 95.6792 99.6222 94.9583 98.0723 94.9546C93.6372 94.9432 89.202 94.9508 84.7632 94.947L84.7558 94.9546ZM52.6592 107.043C52.0785 106.99 51.5976 107.296 51.1685 107.737C50.0588 108.874 48.9454 110.006 47.8357 111.138C46.3968 112.606 46.3931 113.493 47.8209 114.95C52.6112 119.841 57.4051 124.729 62.1954 129.62C63.7415 131.197 65.2804 132.783 66.8377 134.349C67.9511 135.47 68.9572 135.481 70.0484 134.39C71.2802 133.16 72.5046 131.918 73.7067 130.654C74.6167 129.695 74.6352 128.586 73.7179 127.65C67.215 120.992 60.6972 114.354 54.1869 107.707C53.78 107.292 53.314 107.013 52.6592 107.043Z" fill="#DB9099"/>
<path d="M127.249 72.3661C126.864 68.3947 125.468 64.8457 122.619 61.9756C118.781 58.1098 114.05 56.4729 108.66 56.7256C105.833 56.8576 103.225 57.676 100.984 59.4675C100.843 59.5806 100.71 59.7881 100.425 59.6749C101.166 56.5521 102.766 53.9573 105.237 51.9245C108.39 49.3297 112.039 48.2699 116.125 48.6508C117.443 48.7715 118.484 47.9606 118.566 46.7839C118.651 45.5846 117.769 44.6304 116.447 44.5361C115.502 44.4682 114.558 44.4116 113.609 44.4644C109.942 44.6568 106.626 45.8146 103.637 47.9229C102.759 48.5414 101.977 49.2806 101.103 50.0576C101.051 49.7031 101.01 49.4655 100.977 49.2241C100.21 43.6309 95.5903 38.5733 90.0594 37.3551C86.7068 36.6159 83.2764 36.4424 79.8793 36.0162C78.7383 35.8729 77.8122 36.6951 77.6825 37.8341C77.3306 40.8928 77.8825 43.7931 79.4162 46.4746C81.939 50.8911 85.7881 53.3501 90.8337 53.9724C92.9712 54.2364 95.1087 54.4816 97.2425 54.7456C97.4129 54.7682 97.8279 54.6626 97.6315 55.0737C96.9758 56.4427 96.5461 57.8835 96.1867 59.4147C95.7681 59.1092 95.5088 58.7585 95.2347 58.4266C94.453 57.4761 93.538 56.6615 92.5192 55.9713C89.3889 53.8555 85.914 53.0484 82.1835 53.3501C75.7265 53.8744 70.9254 56.9708 68.1099 62.7714C65.6908 67.7535 64.887 73.143 64.9314 78.6457C64.9722 83.5863 65.8168 88.395 67.5579 93.0189C68.936 92.6795 70.329 92.4381 71.733 92.291C69.2435 85.9473 68.5211 79.3886 69.5251 72.6678C69.9733 69.6657 70.692 66.7201 72.1405 64.0122C73.9224 60.6782 76.723 58.6227 80.3942 57.7741C83.2578 57.1103 86.0807 57.3291 88.785 58.5888C89.9927 59.1545 91.0744 59.9012 91.908 60.946C93.0564 62.3791 94.3863 63.5558 96.1904 64.0989C98.6429 64.8344 101.029 64.6232 103.048 63.0806C106.508 60.4406 110.279 60.2671 114.202 61.5607C119.674 63.3597 122.589 67.2557 123.126 72.9394C123.36 75.421 123.326 77.8989 123.045 80.3768C122.719 82.8848 122.2 85.3099 121.47 87.6445C122.937 86.7356 124.571 86.283 126.268 86.0378C127.357 81.6214 127.701 77.0692 127.246 72.3736L127.249 72.3661ZM87.7552 48.8771C84.4433 47.2855 82.4984 44.6304 81.8612 41.0324C81.8279 40.8362 81.8316 40.6326 81.8168 40.361C84.6174 40.8664 87.4551 40.7646 90.1335 41.6735C93.8158 42.9181 96.8128 46.8367 96.9091 50.563C93.8529 49.9595 90.6484 50.2688 87.7589 48.8809L87.7552 48.8771Z" fill="#DB9099"/>
<path d="M10.1909 242.016L3.82427 249.802C3.19632 250.57 1.85321 250.782 0.981068 250.372C-0.0306193 249.922 -0.274828 248.875 0.31823 248.174L6.68487 240.387C7.27793 239.685 8.53385 239.434 9.49321 239.884C10.4526 240.334 10.749 241.38 10.2083 242.016H10.1909ZM13.662 235.117C13.662 236.322 13.8364 237.09 14.4121 237.792L22.6626 247.869C23.2556 248.571 22.994 249.617 21.9997 250.067C21.1276 250.478 19.7845 250.253 19.1565 249.498L10.8188 239.328C9.89436 238.189 9.31877 237.236 9.31877 235.448V227.317C9.31877 226.457 10.2781 225.795 11.4991 225.795C12.7201 225.795 13.6795 226.457 13.6795 227.317V235.13L13.662 235.117ZM31.4887 236.838H34.6284C35.64 236.838 36.425 237.501 36.425 238.295C36.425 239.09 35.6226 239.752 34.6284 239.752H31.4887V250.875C31.4887 251.736 30.5293 252.398 29.3083 252.398C28.0873 252.398 27.1279 251.736 27.1279 250.875V226.523C27.1279 225.662 28.0873 225 29.3083 225C30.5293 225 31.4887 225.662 31.4887 226.523V236.825V236.838Z" fill="#DB9099"/>
<path d="M39.146 249.935C38.1343 249.935 37.3494 249.273 37.3494 248.478C37.3494 247.684 38.1517 247.022 39.146 247.022H46.0882V237.169C46.0882 236.309 47.0476 235.647 48.2686 235.647C49.4896 235.647 50.4489 236.309 50.4489 237.169V247.022H61.7519C62.7636 247.022 63.5486 247.684 63.5486 248.478C63.5486 249.273 62.7462 249.935 61.7519 249.935H39.146ZM40.5763 229.026C39.5646 229.026 38.7796 228.363 38.7796 227.569C38.7796 226.774 39.582 226.112 40.5763 226.112H58.1238C59.3448 226.112 60.3042 226.841 60.3042 227.768V242.321C60.3042 243.181 59.3448 243.843 58.1238 243.843C56.9028 243.843 55.9434 243.181 55.9434 242.321V229.039H40.5763V229.026ZM69.1652 236.997H72.3049C73.3166 236.997 74.1015 237.659 74.1015 238.454C74.1015 239.248 73.2991 239.911 72.3049 239.911H69.1652V250.875C69.1652 251.736 68.2058 252.398 66.9848 252.398C65.7638 252.398 64.8045 251.736 64.8045 250.875V226.523C64.8045 225.662 65.7638 225 66.9848 225C68.2058 225 69.1652 225.662 69.1652 226.523V236.984V236.997Z" fill="#DB9099"/>
<path d="M77.2414 249.617C76.2298 249.617 75.4448 248.955 75.4448 248.16C75.4448 247.366 76.2472 246.704 77.2414 246.704H100.266C101.278 246.704 102.063 247.366 102.063 248.16C102.063 248.955 101.26 249.617 100.266 249.617H77.2414ZM83.8523 225.238C84.8639 224.788 86.1199 225.013 86.7827 225.781C87.1141 226.165 87.7072 226.351 88.4223 226.351H89.8875C94.9111 226.351 99.0101 229.688 99.0101 233.793C99.0101 237.898 94.9111 241.235 89.8875 241.235H86.6257C81.6022 241.235 77.5031 237.898 77.5031 233.793C77.5031 231.82 78.4624 230.164 79.5962 229.052C80.3113 228.39 81.5149 228.125 82.4917 228.642C83.3639 229.118 83.7127 229.979 83.0324 230.707C82.2301 231.568 81.7765 232.548 81.7765 233.793C81.7765 236.309 83.8697 238.374 87.0443 238.374H89.4689C92.6435 238.374 94.7367 236.309 94.7367 233.793C94.7367 231.277 92.6435 229.211 89.4689 229.211H87.5851C85.7884 229.211 83.9395 228.708 83.1022 227.463C82.5615 226.668 82.8057 225.715 83.8523 225.238ZM107.679 250.888C107.679 251.749 106.72 252.411 105.499 252.411C104.278 252.411 103.319 251.749 103.319 250.888V226.536C103.319 225.675 104.278 225.013 105.499 225.013C106.72 225.013 107.679 225.675 107.679 226.536V250.888Z" fill="#DB9099"/>
<path d="M131.925 234.746L125.733 239.964C124.983 240.626 123.605 240.626 122.837 240.056C122 239.447 122.087 238.467 122.802 237.832L128.994 232.614C129.71 231.979 131.053 231.979 131.838 232.588C132.623 233.197 132.588 234.177 131.925 234.746ZM153.397 249.564C154.409 249.564 155.194 250.2 155.194 250.994C155.194 251.789 154.391 252.424 153.397 252.424H131.297C128.122 252.424 126.273 251.021 126.273 248.611V244.161C126.273 243.301 127.233 242.639 128.454 242.639C129.675 242.639 130.634 243.301 130.634 244.161V248.293C130.634 249.114 131.227 249.564 132.309 249.564H153.414H153.397ZM144.641 237.514C145.391 238.149 145.443 239.129 144.606 239.739C143.856 240.308 142.513 240.281 141.71 239.646L133.216 232.654C132.204 231.793 131.541 230.84 131.541 229.608V227C131.541 226.139 132.5 225.477 133.721 225.477C134.942 225.477 135.902 226.139 135.902 227V229.357C135.902 229.9 136.024 230.469 136.355 230.76L144.641 237.527V237.514ZM154.147 243.963C154.147 244.823 153.188 245.486 151.967 245.486C150.746 245.486 149.786 244.823 149.786 243.963V233.29H144.763C143.751 233.29 142.966 232.654 142.966 231.86C142.966 231.065 143.769 230.429 144.763 230.429H149.786V226.549C149.786 225.689 150.746 225.027 151.967 225.027C153.188 225.027 154.147 225.689 154.147 226.549V243.963Z" fill="#DB9099"/>
<path d="M179.352 239.156V241.288H186.853C189.661 241.288 191.754 242.784 191.754 244.783C191.754 246.783 189.661 248.279 186.853 248.279H168.259C167.456 248.279 166.881 248.624 166.881 249.167C166.881 249.709 167.474 250.054 168.259 250.054H190.446C191.458 250.054 192.155 250.663 192.155 251.418C192.155 252.173 191.44 252.782 190.446 252.782H167.509C164.7 252.782 162.607 251.259 162.607 249.259C162.607 247.26 164.7 245.737 167.509 245.737H186.103C186.905 245.737 187.481 245.419 187.481 244.876C187.481 244.333 186.888 244.015 186.103 244.015H164.753C163.741 244.015 163.043 243.406 163.043 242.651C163.043 241.897 163.758 241.288 164.753 241.288H175.009V239.156H161.491C160.479 239.156 159.694 238.546 159.694 237.752C159.694 236.957 160.496 236.348 161.491 236.348H192.888C193.9 236.348 194.685 236.957 194.685 237.752C194.685 238.546 193.882 239.156 192.888 239.156H179.37H179.352ZM168.468 234.481C165.293 234.481 163.444 233.077 163.444 230.667V228.377C162.433 228.377 161.648 227.807 161.648 227.013C161.648 226.218 162.45 225.649 163.444 225.649H189.155C190.376 225.649 191.336 226.377 191.336 227.304V232.839C191.336 233.766 190.376 234.494 189.155 234.494H168.468V234.481ZM167.718 230.482C167.718 231.303 168.311 231.753 169.392 231.753H187.062V228.39H167.718V230.482Z" fill="#DB9099"/>
</svg>
