<svg width="172" height="231" viewBox="0 0 172 231" fill="none" xmlns="http://www.w3.org/2000/svg">
<circle cx="86" cy="86" r="83.5" stroke="#DB9099" stroke-width="5"/>
<path d="M115.763 66.9004C116.775 67.0684 117.132 67.6806 117.128 68.6773C117.102 72.5633 117.143 76.4492 117.094 80.3352C117.083 81.1416 117.331 81.2871 118.084 81.2834C120.02 81.2685 121.974 81.0632 123.887 81.3991C128.618 82.2316 131.727 85.9944 131.829 90.9443C131.877 93.2736 131.87 95.6067 131.829 97.9398C131.769 101.647 129.886 104.323 126.416 105.645C125.939 105.827 125.827 106.055 125.827 106.518C125.842 111.461 125.849 116.407 125.819 121.349C125.819 121.976 126.059 122.047 126.585 122.04C128.426 122.014 130.272 122.025 132.114 122.032C133.618 122.036 134.053 122.51 133.967 124.022C133.678 129.095 129.383 133.317 124.285 133.541C124.004 133.552 123.722 133.56 123.441 133.56C98.4774 133.56 73.5137 133.563 48.5499 133.56C43.4784 133.56 39.446 130.465 38.2756 125.694C38.1218 125.067 38.0393 124.41 38.0055 123.764C37.9418 122.551 38.4257 122.051 39.6523 122.04C41.5578 122.021 43.4634 122.01 45.369 122.047C45.9767 122.058 46.153 121.894 46.1492 121.278C46.1229 116.366 46.1267 111.453 46.1492 106.541C46.1492 106.007 45.9617 105.809 45.4853 105.622C42.1956 104.346 40.3425 101.938 40.1887 98.4288C40.0649 95.6067 40.0762 92.7659 40.2225 89.9438C40.4663 85.2851 44.48 81.4178 49.1839 81.3058C53.4002 81.205 57.6202 81.2573 61.8364 81.276C62.4666 81.276 62.7329 81.1901 62.8042 80.4622C63.4344 74.049 67.1292 69.6665 72.3733 66.333C72.7559 66.0903 73.3786 65.9821 73.4499 65.5155C73.5699 64.7241 73.5061 63.9066 73.4911 63.1003C73.4836 62.7718 73.1911 62.8501 72.9923 62.8501C68.9936 62.8464 64.9949 62.8501 60.9962 62.8389C60.5723 62.8389 60.471 62.9845 60.4785 63.3765C60.501 64.4329 60.4898 65.4893 60.486 66.5495C60.4785 67.8 60.0434 68.2517 58.8243 68.2592C57.0425 68.2666 55.2607 68.2704 53.4827 68.2592C52.3461 68.2517 51.8697 67.7963 51.8659 66.6913C51.8547 63.985 51.8434 61.2823 51.8659 58.5759C51.8884 56.1271 53.734 54.3017 56.2097 54.2644C57.8602 54.2382 59.507 54.2606 61.285 54.2606C60.5198 53.1296 59.9458 52.0246 59.7133 50.7591C59.4357 49.2473 59.7996 47.8661 60.4298 46.5185C61.8177 43.562 63.817 41.0236 65.9364 38.5673C66.5028 37.9141 67.3131 37.7909 67.8345 38.377C70.4565 41.3409 73.0223 44.3721 74.1701 48.2581C74.8078 50.4157 74.0425 52.3456 72.6846 54.2569C73.5699 54.2569 74.3539 54.2569 75.1416 54.2569C76.0157 54.2569 76.8897 54.2457 77.7674 54.2569C80.1494 54.298 82.025 55.9255 82.0925 58.2736C82.1975 62.126 82.1338 65.9821 82.1413 69.8382C82.1413 70.5475 81.7286 70.9469 81.1322 71.2717C79.3016 72.2684 77.4261 73.1941 75.7231 74.4073C73.5662 75.9416 71.9832 77.8528 71.5031 80.5406C71.3943 81.149 71.5293 81.276 72.1257 81.276C76.7809 81.2536 81.4361 81.2423 86.0912 81.2834C86.8902 81.2909 86.8377 80.8915 86.8339 80.3614C86.8264 73.2427 86.8227 66.1202 86.8339 59.0015C86.8377 55.9815 88.5819 54.2606 91.6016 54.2569C92.8807 54.2569 94.1636 54.2569 95.4427 54.2569H96.2642C96.0917 53.9844 95.9829 53.8089 95.8703 53.6372C94.4749 51.5094 94.1749 49.2697 95.2252 46.9142C96.6206 43.7823 98.7025 41.1132 100.938 38.5487C101.55 37.8469 102.379 37.8245 102.979 38.5151C105.192 41.0535 107.251 43.7001 108.665 46.7873C109.873 49.4227 109.404 51.8529 107.656 54.2644C109.446 54.2644 111.111 54.2494 112.777 54.2681C114.941 54.2942 116.674 55.7538 117.06 57.8517C117.278 59.0313 116.933 59.5763 115.763 59.9011C115.091 59.7705 114.633 59.4196 114.491 58.714C114.183 57.1947 113.789 56.8849 112.21 56.8849C105.432 56.8849 98.6537 56.8849 91.8716 56.8849C89.9623 56.8849 89.4859 57.3552 89.4859 59.2404C89.4859 65.8328 89.4859 72.4214 89.4859 79.0138C89.4859 81.2685 89.4859 81.2274 91.7966 81.2797C92.6406 81.2984 92.8319 81.0482 92.8282 80.2382C92.7944 74.2057 92.8057 68.1771 92.8094 62.1446C92.8094 60.6029 93.1996 60.2296 94.76 60.2296C99.5727 60.2296 104.382 60.2296 109.194 60.2296C110.751 60.2296 111.122 60.6029 111.122 62.1484C111.122 68.2405 111.13 74.3364 111.111 80.4286C111.111 81.0557 111.242 81.3394 111.925 81.2722C112.48 81.2162 113.054 81.2162 113.609 81.2722C114.303 81.3431 114.506 81.1192 114.498 80.4062C114.461 76.4903 114.498 72.5707 114.468 68.6549C114.461 67.7067 114.802 67.102 115.759 66.9041L115.763 66.9004ZM85.9749 122.01H91.9729C102.033 122.01 112.098 121.999 122.158 122.028C122.998 122.028 123.205 121.801 123.182 120.991C123.126 118.814 123.122 116.638 123.182 114.462C123.205 113.618 122.983 113.383 122.113 113.387C108.272 113.417 94.4262 113.409 80.5845 113.405C79.1779 113.405 78.5027 112.969 78.5252 112.08C78.5477 111.173 79.1779 110.774 80.6033 110.774C94.3849 110.774 108.163 110.774 121.944 110.774C122.162 110.774 122.383 110.755 122.601 110.774C123.051 110.818 123.209 110.624 123.197 110.184C123.179 109.127 123.145 108.067 123.209 107.015C123.25 106.309 122.998 106.081 122.316 105.936C118.936 105.234 116.832 103.17 115.958 99.8473C115.691 98.8357 115.819 97.8054 115.766 96.7863C115.688 95.3081 114.693 94.3301 113.339 94.3674C112.03 94.4047 111.119 95.4014 111.092 96.8423C111.077 97.7457 111.111 98.6453 111.077 99.5487C110.939 103.061 108.227 105.936 104.884 106.137C101.129 106.365 98.1585 104.028 97.5621 100.385C97.3558 99.1157 97.5246 97.839 97.4458 96.5661C97.3858 95.5544 96.7931 94.7929 95.8516 94.4831C94.9663 94.1919 93.9948 94.4532 93.3796 95.1513C92.8995 95.7 92.7794 96.357 92.7682 97.0588C92.7494 98.2683 92.9032 99.4927 92.6594 100.691C91.9467 104.23 88.8445 106.458 85.1646 106.122C81.8524 105.82 79.2716 102.916 79.2116 99.4293C79.1966 98.4662 79.2566 97.4956 79.1703 96.54C79.0503 95.1774 78.0038 94.3002 76.7134 94.3711C75.4755 94.4383 74.5677 95.4014 74.5302 96.7191C74.504 97.6188 74.5415 98.5221 74.5152 99.4255C74.4177 102.99 71.7169 105.921 68.3484 106.137C64.5522 106.38 61.5776 104.036 60.9849 100.325C60.7861 99.0895 60.9511 97.8427 60.8799 96.5997C60.8123 95.3865 59.9308 94.4682 58.768 94.3711C57.5826 94.274 56.5586 95.0094 56.3035 96.1965C56.206 96.6445 56.2097 97.1223 56.206 97.5852C56.191 102.095 53.8578 104.995 49.4127 105.981C48.9138 106.093 48.7525 106.294 48.7712 106.787C48.805 107.843 48.82 108.903 48.7675 109.956C48.7338 110.632 48.9851 110.785 49.6227 110.777C51.9972 110.744 54.3717 110.766 56.7461 110.762C57.23 110.762 57.6914 110.792 58.0253 111.195C58.3629 111.606 58.5054 112.062 58.2691 112.577C57.984 113.196 57.4664 113.398 56.8212 113.394C54.5105 113.394 52.196 113.428 49.8854 113.376C49.0676 113.357 48.7525 113.525 48.7825 114.424C48.8538 116.601 48.85 118.777 48.7825 120.953C48.7562 121.831 49.0413 122.017 49.8778 122.014C61.9077 121.987 73.9375 121.995 85.9711 121.995L85.9749 122.01ZM85.9899 83.8778C74.3689 83.8778 62.7479 83.8778 51.127 83.8778C50.4705 83.8778 49.8141 83.8666 49.1614 83.9039C45.9241 84.0831 43.0883 86.7484 42.8595 89.9737C42.6532 92.8555 42.6944 95.756 42.837 98.6416C42.9645 101.206 45.0839 103.297 47.5559 103.517C50.3205 103.763 52.6612 102.18 53.3964 99.6047C53.6665 98.6528 53.5539 97.6897 53.584 96.7341C53.6702 93.8896 55.8121 91.7543 58.5804 91.7543C61.3525 91.7543 63.4719 93.9008 63.5207 96.7639C63.5357 97.5702 63.5132 98.3803 63.5244 99.1903C63.5582 101.703 65.3062 103.532 67.6807 103.539C70.0701 103.547 71.8444 101.744 71.8932 99.2426C71.9119 98.3094 71.8782 97.3761 71.9119 96.4466C72.002 94.0016 73.9901 91.941 76.4095 91.7692C79.0091 91.5826 81.2335 93.2624 81.7136 95.7598C81.9499 96.9954 81.7924 98.2422 81.8374 99.4815C81.9199 101.792 83.6867 103.535 85.9749 103.543C88.2706 103.55 90.0711 101.818 90.1349 99.5114C90.1611 98.5483 90.1161 97.5814 90.1536 96.6221C90.2624 93.8336 92.4268 91.7506 95.1651 91.7618C97.896 91.773 100.019 93.9008 100.079 96.7005C100.098 97.5702 100.068 98.44 100.087 99.3135C100.139 101.751 101.921 103.547 104.265 103.547C106.614 103.547 108.388 101.762 108.452 99.321C108.478 98.328 108.433 97.3313 108.478 96.3384C108.59 93.9231 110.661 91.885 113.084 91.773C116.044 91.6349 118.321 93.7925 118.392 96.8087C118.415 97.8315 118.317 98.8581 118.658 99.8548C119.465 102.21 121.918 103.782 124.356 103.491C126.941 103.185 128.993 101.21 129.132 98.6565C129.293 95.7411 129.263 92.8145 129.124 89.8953C129.113 89.6489 129.057 89.4026 128.997 89.1637C128.175 85.9011 125.523 83.8927 121.978 83.889C109.982 83.8815 97.986 83.889 85.9899 83.889V83.8778ZM85.9899 124.638C71.248 124.638 56.5061 124.638 41.7642 124.638C40.6426 124.638 40.6426 124.642 40.9914 125.72C42.0342 128.931 44.9564 130.946 48.5987 130.946C68.6184 130.946 88.6382 130.946 108.662 130.946C113.692 130.946 118.718 130.961 123.749 130.939C127.053 130.924 129.919 128.856 130.958 125.81C131.352 124.656 131.337 124.634 130.126 124.634C115.414 124.634 100.706 124.634 85.9937 124.634L85.9899 124.638ZM108.485 72.0668C108.485 69.2372 108.463 66.4076 108.5 63.5781C108.508 62.9472 108.309 62.824 107.72 62.8277C103.909 62.8539 100.098 62.8539 96.2867 62.8277C95.6715 62.824 95.439 62.9211 95.4427 63.6154C95.4727 69.2111 95.4727 74.8068 95.4427 80.4062C95.4427 81.1117 95.634 81.2909 96.3317 81.2834C100.113 81.2498 103.894 81.2498 107.671 81.2834C108.328 81.2871 108.508 81.1192 108.497 80.4659C108.459 77.6699 108.482 74.8702 108.482 72.0705L108.485 72.0668ZM67.0317 56.8774C63.5019 56.8774 59.9721 56.87 56.4423 56.8812C55.2457 56.8812 54.5255 57.4859 54.5105 58.5685C54.4767 60.7448 54.5067 62.9211 54.4917 65.0974C54.4917 65.4893 54.5967 65.6573 55.0169 65.6424C55.7671 65.6163 56.5173 65.6013 57.2638 65.6424C57.8002 65.6722 57.8753 65.4259 57.864 64.9816C57.8415 63.9551 57.849 62.9285 57.8565 61.9057C57.864 60.6738 58.3103 60.2259 59.5557 60.2259C64.5222 60.2221 69.4887 60.2221 74.4552 60.2259C75.6931 60.2259 76.1469 60.6701 76.1657 61.9094C76.1845 63.216 76.1357 64.5225 76.1807 65.8253C76.2145 66.7809 75.8468 67.4155 74.9916 67.8411C74.4064 68.1323 73.8588 68.4981 73.3148 68.8564C69.1098 71.6375 66.0752 75.2024 65.4375 80.4062C65.3587 81.037 65.4225 81.3394 66.1502 81.2685C66.7391 81.2125 67.3431 81.2088 67.9282 81.2685C68.5884 81.3394 68.7722 81.0296 68.851 80.4547C69.2599 77.4422 70.7753 75.0569 73.0823 73.1195C74.789 71.686 76.7359 70.6296 78.7015 69.6105C79.3241 69.2895 79.5117 68.9087 79.5042 68.2368C79.4704 65.1608 79.4929 62.0811 79.4854 59.0052C79.4817 57.4336 78.9153 56.8812 77.336 56.8774C73.9 56.8774 70.464 56.8774 67.028 56.8774H67.0317ZM67.0017 41.3596C65.3775 43.3978 63.8883 45.3837 62.7967 47.6384C62.3541 48.5567 62.1027 49.4974 62.3691 50.5202C62.8379 52.3232 63.9633 53.5476 65.7638 54.0255C67.6807 54.5369 69.3649 54.0031 70.6441 52.4838C71.8444 51.0503 72.0957 49.4526 71.2517 47.7168C70.1414 45.4397 68.656 43.4239 67.0055 41.3596H67.0017ZM101.966 41.3559C100.192 43.6255 98.4436 45.8391 97.4158 48.5156C97.2095 49.0532 97.1645 49.6168 97.2695 50.1656C97.6296 52.103 98.7512 53.4506 100.657 53.9993C102.562 54.5518 104.269 54.0404 105.563 52.5435C106.839 51.069 107.064 49.4004 106.175 47.6123C105.061 45.3725 103.598 43.3754 101.97 41.3559H101.966Z" fill="#DB9099"/>
<path d="M68.4572 113.405C67.647 113.405 66.8404 113.428 66.0302 113.398C65.1787 113.368 64.6123 112.831 64.6123 112.11C64.6123 111.322 65.1712 110.792 66.0752 110.781C67.6619 110.763 69.2487 110.766 70.8317 110.781C71.7319 110.792 72.2984 111.326 72.2984 112.11C72.2984 112.831 71.7319 113.368 70.8804 113.402C70.0739 113.432 69.2637 113.409 68.4535 113.409L68.4572 113.405Z" fill="#DB9099"/>
<path d="M38.6032 227.861C37.2647 227.861 36.1865 227.085 36.1865 226.069V205.168H33.1936C31.8551 205.168 31 204.462 31 203.503C31 202.628 31.8551 201.809 33.1936 201.809H38.7333C39.9788 201.809 40.964 202.557 40.964 203.503V226.069C40.964 227.085 39.9416 227.861 38.6032 227.861Z" fill="#DB9099"/>
<path d="M49.8867 210.248C49.8867 204.518 55.4264 201.301 61.4867 201.301C67.5469 201.301 73.0866 204.518 73.0866 210.248V219.026C73.0866 224.756 67.5469 227.974 61.4867 227.974C55.4264 227.974 49.8867 224.756 49.8867 219.026V210.248ZM61.4867 204.631C57.9546 204.631 54.7944 206.353 54.7944 210.361V218.927C54.7944 222.921 57.9546 224.657 61.4867 224.657C65.0187 224.657 68.179 222.935 68.179 218.927V210.361C68.179 206.367 65.0187 204.631 61.4867 204.631Z" fill="#DB9099"/>
<path d="M79.3333 210.248C79.3333 204.518 84.873 201.301 90.9332 201.301C96.9934 201.301 102.533 204.518 102.533 210.248V219.026C102.533 224.756 96.9934 227.974 90.9332 227.974C84.873 227.974 79.3333 224.756 79.3333 219.026V210.248ZM90.9332 204.631C87.4012 204.631 84.2409 206.353 84.2409 210.361V218.927C84.2409 222.921 87.4012 224.657 90.9332 224.657C94.4652 224.657 97.6255 222.935 97.6255 218.927V210.361C97.6255 206.367 94.4652 204.631 90.9332 204.631Z" fill="#DB9099"/>
<path d="M117.609 205.267C115.787 205.267 114.226 204.9 113.148 203.841C112.348 203.065 112.441 201.978 113.464 201.372C114.486 200.765 115.955 200.934 116.68 201.64C117.126 202.077 117.665 202.345 118.502 202.345H121.811C126.718 202.345 130.734 204.984 130.734 208.64C130.734 212.295 126.718 214.934 121.811 214.934H116.996C112.088 214.934 108.073 212.295 108.073 208.64C108.073 207.285 108.612 206.198 109.374 205.281C110.006 204.505 111.382 204.265 112.367 204.702C113.482 205.21 113.668 206.156 113.166 206.904C112.85 207.384 112.627 207.892 112.627 208.626C112.627 210.658 114.412 212.013 117.182 212.013H121.643C124.413 212.013 126.198 210.658 126.198 208.626C126.198 206.593 124.413 205.239 121.643 205.239H117.628L117.609 205.267ZM115.955 230.472C112.962 230.472 110.731 228.75 110.731 226.549C110.731 224.347 112.962 222.625 115.955 222.625H135.771C136.626 222.625 137.24 222.188 137.24 221.539C137.24 220.889 136.608 220.452 135.771 220.452H113.018C111.939 220.452 111.196 219.803 111.196 218.998C111.196 218.194 111.958 217.545 113.018 217.545H136.571C139.564 217.545 141.794 219.238 141.794 221.44C141.794 223.641 139.564 225.335 136.571 225.335H116.754C115.899 225.335 115.286 225.815 115.286 226.45C115.286 227.085 115.918 227.565 116.754 227.565H140.4C141.478 227.565 142.222 228.214 142.222 229.018C142.222 229.823 141.46 230.472 140.4 230.472H115.955ZM141.348 214.892C141.348 215.809 140.326 216.515 139.025 216.515C137.723 216.515 136.701 215.809 136.701 214.892V202.628C136.701 201.71 137.723 201.005 139.025 201.005C140.326 201.005 141.348 201.71 141.348 202.628V214.892Z" fill="#DB9099"/>
</svg>
