<svg width="171" height="230" viewBox="0 0 171 230" fill="none" xmlns="http://www.w3.org/2000/svg">
<path d="M168.5 86C168.5 132.13 131.326 169.5 85.5 169.5C39.6741 169.5 2.5 132.13 2.5 86C2.5 39.8705 39.6741 2.5 85.5 2.5C131.326 2.5 168.5 39.8705 168.5 86Z" stroke="#DB9099" stroke-width="5"/>
<path d="M86.1139 71.2364C84.6446 70.5693 83.5744 69.5195 82.7465 68.1591C81.4342 66.0007 81.336 63.8194 82.393 61.5531C83.3191 59.5647 84.5922 57.7988 85.9601 56.1048C87.0368 54.7672 89.2884 54.5939 90.401 55.8726C92.2402 57.9852 93.9485 60.2417 94.7208 63.0018C95.588 66.1021 93.6736 69.8106 90.6334 71.1579C90.3977 71.2626 90.0868 71.2495 89.9199 71.5569C93.0746 72.1325 95.8105 73.4799 97.8853 75.9391C100.716 79.2945 101.43 83.0193 99.5478 87.0876C99.3449 87.5225 99.515 87.7907 99.6754 88.1243C101.623 92.1729 101.95 96.2935 99.9012 100.375C98.1307 103.897 94.9826 105.62 91.2551 106.431C90.6693 106.559 90.0737 106.713 89.4847 106.709C88.7844 106.706 88.7156 107.033 88.7254 107.609C88.7549 109.296 88.7712 110.987 88.7189 112.674C88.6992 113.348 88.876 113.538 89.5632 113.534C96.9756 113.508 104.391 113.518 111.803 113.518C114.039 113.518 116.274 113.508 118.509 113.521C119.713 113.528 120.325 114.077 120.292 115.055C120.266 115.804 119.792 116.334 119.046 116.422C118.777 116.455 118.502 116.445 118.231 116.445C98.1438 116.445 78.0569 116.445 57.97 116.445C56.5628 116.445 55.8494 115.948 55.8625 114.98C55.8723 114.018 56.6021 113.515 57.9962 113.515C66.9892 113.515 75.9854 113.505 84.9784 113.531C85.6525 113.531 85.8488 113.381 85.8259 112.691C85.7703 110.977 85.7835 109.26 85.8227 107.543C85.8358 107.007 85.6591 106.857 85.1486 106.827C82.6647 106.69 80.3411 105.983 78.1616 104.79C76.3879 103.822 75.416 102.34 75.416 100.303C75.4062 93.2227 75.4094 86.1392 75.416 79.059C75.416 77.051 76.5254 75.6284 78.0013 74.4642C80.1873 72.7408 82.7007 71.7728 85.4594 71.4294C85.6656 71.4032 85.9012 71.4621 86.127 71.2266L86.1139 71.2364ZM78.2827 89.6907C78.2827 93.0657 78.3089 96.4406 78.2696 99.8156C78.2566 101.052 78.7246 101.856 79.8503 102.396C84.4712 104.616 89.1149 104.486 93.7292 102.481C95.8269 101.572 97.2145 99.8777 97.833 97.6702C98.7264 94.4817 98.4319 91.424 96.5338 88.6213C96.0658 87.928 96.0625 87.3034 96.4814 86.5807C98.3467 83.366 97.9017 80.0466 95.2967 77.4206C91.1766 73.2706 83.4632 73.1986 79.2547 77.2538C78.5838 77.9013 78.2631 78.624 78.2696 79.5626C78.2991 82.9376 78.2795 86.3125 78.2795 89.6875L78.2827 89.6907ZM92.0013 64.686C91.998 64.1857 91.962 63.8685 91.8475 63.5545C91.1111 61.5662 89.848 59.8983 88.6044 58.2207C88.372 57.91 88.1822 57.9623 87.9727 58.2468C86.8175 59.7904 85.7474 61.3765 84.8933 63.1228C83.9344 65.0785 85.5707 68.0152 87.4361 68.581C88.264 68.8328 89.0625 68.7576 89.7857 68.2997C91.1668 67.4233 91.8573 66.125 92.0045 64.6893L92.0013 64.686Z" fill="#DB9099"/>
<path d="M46.4832 89.0759C46.4832 84.7722 46.4472 80.4685 46.493 76.1648C46.5323 72.4464 50.5248 70.154 53.7711 71.9559C55.3943 72.8552 56.2812 74.2745 56.3107 76.1419C56.3499 78.5913 56.3434 81.044 56.3107 83.4968C56.3041 84.0822 56.471 84.2195 57.0371 84.2097C59.2167 84.177 61.3995 84.1803 63.579 84.2097C64.1059 84.2162 64.2728 84.0854 64.2662 83.536C64.2368 81.1683 64.2335 78.7974 64.2597 76.4264C64.2891 73.8821 65.8535 71.9068 68.1475 71.4555C71.2826 70.8374 74.0741 73.0809 74.1167 76.2988C74.1527 78.8595 74.1232 81.4201 74.1232 83.9808C74.1232 89.9196 74.133 95.8552 74.1199 101.794C74.1134 104.433 72.4607 106.395 69.9212 106.843C67.2279 107.318 64.4724 105.283 64.3219 102.546C64.1844 100.022 64.2303 97.4806 64.2695 94.9494C64.2826 94.1808 64.0503 94.0108 63.3205 94.0271C61.1966 94.0762 59.0695 94.0631 56.9423 94.0304C56.4252 94.0239 56.3041 94.1776 56.3107 94.6746C56.3336 97.1274 56.3401 99.5768 56.3107 102.03C56.2812 104.636 54.3439 106.683 51.7455 106.906C49.3139 107.115 47.0265 105.359 46.5487 102.886C46.4669 102.465 46.4733 102.02 46.4733 101.585C46.4668 97.4184 46.4733 93.2488 46.4733 89.0824H46.4766L46.4832 89.0759ZM71.1877 89.1838C71.1877 85.6159 71.1877 82.048 71.1877 78.4801C71.1877 77.7182 71.2205 76.9529 71.1714 76.1942C71.0961 75.0692 70.2812 74.2974 69.2176 74.2745C68.1638 74.2516 67.349 74.9973 67.2115 76.1288C67.1788 76.397 67.1788 76.6717 67.1788 76.9431C67.1788 79.7228 67.1821 82.4993 67.1755 85.2791C67.1722 86.6363 66.6585 87.1333 65.284 87.1366C62.2046 87.1399 59.125 87.1366 56.0456 87.1366C53.6173 87.1366 53.3948 86.9142 53.3948 84.4713C53.3948 81.7733 53.4112 79.0786 53.3883 76.3806C53.3719 74.8174 52.0498 73.8919 50.6622 74.4217C49.8735 74.7226 49.4252 75.4126 49.4219 76.4329C49.4154 84.903 49.4186 93.3731 49.4219 101.846C49.4219 102.01 49.4252 102.173 49.4547 102.334C49.6477 103.475 50.7735 104.191 51.896 103.894C52.8876 103.632 53.3883 102.939 53.3948 101.752C53.4047 98.8639 53.3948 95.9762 53.3981 93.0886C53.3981 91.6137 53.8923 91.1068 55.3485 91.1068C58.6473 91.1035 61.9427 91.1035 65.2415 91.1068C66.7043 91.1068 67.1788 91.594 67.1821 93.0853C67.1853 95.8356 67.1821 98.5859 67.1853 101.34C67.1853 101.693 67.2017 102.049 67.2639 102.396C67.3915 103.128 67.8366 103.609 68.5402 103.848C69.9638 104.329 71.1877 103.351 71.1909 101.689C71.2008 97.5231 71.1942 93.3534 71.1942 89.1871L71.1877 89.1838Z" fill="#DB9099"/>
<path d="M115.698 71.6841C116.804 72.0177 117.884 72.2728 118.915 72.6652C124.521 74.8007 127.574 79.0162 128.595 84.7948C129.24 88.4313 129.154 92.0745 128.052 95.6195C126.15 101.738 121.893 105.234 115.665 106.425C112.677 106.997 109.647 107.02 106.626 106.882C103.956 106.761 101.963 104.619 101.96 101.941C101.943 93.3924 101.943 84.8406 101.96 76.292C101.966 73.4861 104.106 71.3604 106.95 71.3309C108.796 71.3113 110.645 71.2328 112.487 71.4454C112.667 71.465 112.975 71.5926 113.044 71.3081C113.112 71.0301 112.792 71.0039 112.618 70.9025C109.146 68.8521 107.932 64.9375 109.663 61.3238C110.573 59.4238 111.803 57.7232 113.126 56.0979C114.271 54.6884 116.588 54.6492 117.753 56.0292C119.281 57.841 120.643 59.7901 121.552 61.991C123.31 66.2358 120.377 71.102 115.704 71.6776L115.698 71.6841ZM104.892 89.1116C104.892 93.3335 104.885 97.5522 104.892 101.774C104.892 103.082 105.658 103.955 106.904 103.965C109.516 103.985 112.137 104.116 114.732 103.658C119.546 102.808 123.169 100.407 124.949 95.6947C126.14 92.5421 126.199 89.262 125.826 85.9557C125.172 80.1869 121.726 76.2593 116.104 74.8498C113.211 74.1238 110.265 74.2742 107.327 74.2611C105.638 74.2546 104.895 75.0068 104.892 76.6975C104.892 80.8377 104.892 84.9746 104.892 89.1148V89.1116ZM119.18 64.5222C119.154 64.2867 119.167 64.0284 119.091 63.8027C118.375 61.6868 117.046 59.9274 115.724 58.1713C115.508 57.8835 115.321 58.0012 115.148 58.2334C113.976 59.7999 112.896 61.4089 112.029 63.1781C111.152 64.9637 112.625 67.9985 114.657 68.597C115.452 68.8292 116.231 68.7474 116.931 68.3027C118.312 67.4295 119.01 66.1377 119.183 64.5189L119.18 64.5222Z" fill="#DB9099"/>
<path d="M60.3063 71.6419C57.4396 71.6419 54.6874 69.3101 53.8693 66.1935C53.4798 64.7154 53.614 63.2862 54.2358 61.8964C55.1881 59.7707 56.4938 57.8641 57.9599 56.0752C59.017 54.7835 61.2456 54.5971 62.3451 55.8365C64.3348 58.0767 66.1348 60.5 66.8253 63.4955C67.6893 67.2466 64.1254 71.6353 60.3063 71.6386V71.6419ZM56.5888 64.3818C56.5888 65.9123 57.5673 67.5867 58.8239 68.316C59.5177 68.7182 60.2606 68.8294 61.0231 68.6266C63.0913 68.0707 64.5182 65.255 63.7262 63.2666C62.9834 61.4091 61.7889 59.8263 60.6009 58.2369C60.3097 57.8477 60.1166 58.0407 59.9169 58.3089C58.8239 59.7641 57.7636 61.2423 56.9946 62.9004C56.7655 63.3909 56.5593 63.8978 56.5855 64.3851L56.5888 64.3818Z" fill="#DB9099"/>
<path d="M82.3079 94.8253C82.3079 93.7886 82.298 92.7552 82.3079 91.7185C82.3209 90.6425 82.8479 90.0899 83.8983 90.0833C86.5164 90.0702 89.1312 90.0899 91.7492 90.0735C92.3873 90.0702 92.8324 90.3417 93.2055 90.8224C94.4589 92.4379 94.6814 95.5774 93.6538 97.3401C93.1728 98.1675 92.4888 98.7692 91.5888 99.1126C88.9643 100.107 86.284 100.238 83.5678 99.5737C82.6515 99.3481 82.3145 98.8739 82.3047 97.932C82.2948 96.8954 82.3047 95.8619 82.3047 94.8253H82.3079ZM85.2434 94.9168C85.2434 95.4335 85.2663 95.9535 85.2369 96.4669C85.2139 96.8496 85.3318 96.9706 85.7245 97.0033C86.9844 97.1145 88.2279 97.0262 89.4551 96.7515C91.2485 96.3492 91.8473 95.1523 91.2256 93.3831C91.1012 93.0331 90.9082 93.0135 90.6235 93.0168C89.4519 93.0233 88.2836 93.0168 87.112 93.0168C85.8684 93.0168 85.2467 93.6501 85.2467 94.9168H85.2434Z" fill="#DB9099"/>
<path d="M87.3313 86.0476C86.1891 86.0476 85.047 86.0607 83.9016 86.0444C82.8413 86.028 82.321 85.4917 82.3111 84.419C82.2981 83.2221 82.321 82.0252 82.3047 80.8315C82.2949 80.1317 82.6025 79.6607 83.185 79.2977C85.6197 77.777 89.9166 78.0452 92.1223 79.87C94.0793 81.4888 94.1218 83.8434 92.2335 85.4819C91.7787 85.8743 91.2911 86.0771 90.6791 86.0574C89.5631 86.028 88.4472 86.0476 87.3313 86.0476ZM87.8058 83.1338C88.5126 83.1338 89.2228 83.1338 89.9297 83.1338C90.2013 83.1338 90.5089 83.1828 90.6333 82.8591C90.7577 82.5419 90.5155 82.3456 90.2995 82.1821C88.853 81.0997 87.2331 80.9754 85.5707 81.4627C84.8834 81.6621 85.3317 82.362 85.263 82.8231C85.1975 83.2875 85.6197 83.1174 85.8488 83.124C86.5 83.1469 87.1545 83.1305 87.809 83.1305L87.8058 83.1338Z" fill="#DB9099"/>
<path d="M111.663 78.2839C113.004 78.3035 114.323 78.4736 115.622 78.8137C118.708 79.6215 120.711 81.5444 121.5 84.6414C122.181 87.3165 122.266 90.0341 121.673 92.7321C120.816 96.6368 118.136 99.0699 114.107 99.7338C112.919 99.93 111.725 99.9954 110.524 99.9692C109.444 99.9464 108.891 99.4329 108.888 98.357C108.871 92.2023 108.871 86.0476 108.888 79.8929C108.888 78.8104 109.441 78.3101 110.514 78.2839C110.894 78.2741 111.276 78.2839 111.659 78.2839H111.663ZM111.81 89.0988C111.81 91.5188 111.807 93.9421 111.816 96.3621C111.816 96.6237 111.666 97.0096 112.193 96.9835C115.462 96.8167 118.021 95.6557 118.79 92.199C119.216 90.2892 119.206 88.3597 118.908 86.44C118.578 84.2947 117.609 82.5843 115.426 81.8191C114.47 81.4823 113.479 81.3449 112.471 81.2501C111.895 81.1945 111.794 81.4038 111.8 81.9205C111.823 84.3143 111.81 86.7082 111.81 89.1021V89.0988Z" fill="#DB9099"/>
<path d="M54.2744 209.714L49.3296 214.456C48.5302 215.204 47.0988 215.303 46.2437 214.767C45.2584 214.16 45.2212 213.172 45.9276 212.466L50.9283 207.696C51.6904 206.991 53.0661 206.878 53.9584 207.456C54.8879 208.063 54.9436 209.079 54.2744 209.728V209.714ZM57.7135 229.458C53.159 229.458 49.4969 226.946 49.4969 223.531C49.4969 220.115 53.159 217.603 57.7135 217.603H72.7897C77.3442 217.603 81.0064 220.115 81.0064 223.531C81.0064 226.946 77.3442 229.458 72.7897 229.458H57.7135ZM65.484 212.114C66.1904 212.819 66.1532 213.807 65.1679 214.414C64.3128 214.95 62.9 214.851 62.0821 214.103L55.2597 207.569C54.1443 206.483 53.4379 205.509 53.4379 204.182V202.079C53.4379 201.162 54.4231 200.456 55.7058 200.456C56.9885 200.456 57.9737 201.162 57.9737 202.079V203.914C57.9737 204.591 58.1596 205.1 58.6058 205.537L65.484 212.114ZM58.0853 220.581C55.5943 220.581 54.0699 221.795 54.0699 223.531C54.0699 225.267 55.5943 226.48 58.0853 226.48H72.4551C74.9461 226.48 76.4705 225.267 76.4705 223.531C76.4705 221.795 74.9461 220.581 72.4551 220.581H58.0853ZM72.009 206.553H76.0243V201.628C76.0243 200.711 77.0468 200.005 78.2923 200.005C79.5378 200.005 80.5602 200.711 80.5602 201.628V215.345C80.5602 216.263 79.5378 216.968 78.2923 216.968C77.0468 216.968 76.0243 216.263 76.0243 215.345V209.616H72.009V214.499C72.009 215.416 71.0237 216.122 69.7782 216.122C68.5327 216.122 67.5474 215.416 67.5474 214.499V201.797C67.5474 200.88 68.5327 200.174 69.7782 200.174C71.0237 200.174 72.009 200.88 72.009 201.797V206.567V206.553Z" fill="#DB9099"/>
<path d="M96.5289 204.267C94.7072 204.267 93.1456 203.9 92.0674 202.841C91.2681 202.065 91.361 200.978 92.3834 200.372C93.4059 199.765 94.8745 199.934 95.5995 200.64C96.0456 201.077 96.5847 201.345 97.4212 201.345H100.73C105.638 201.345 109.653 203.984 109.653 207.64C109.653 211.295 105.638 213.934 100.73 213.934H95.9155C91.0078 213.934 86.9924 211.295 86.9924 207.64C86.9924 206.285 87.5315 205.198 88.2937 204.281C88.9258 203.505 90.3014 203.265 91.2866 203.702C92.402 204.21 92.5879 205.156 92.086 205.904C91.77 206.384 91.5469 206.892 91.5469 207.626C91.5469 209.658 93.3315 211.013 96.1014 211.013H100.563C103.333 211.013 105.117 209.658 105.117 207.626C105.117 205.593 103.333 204.239 100.563 204.239H96.5475L96.5289 204.267ZM94.8745 229.472C91.8815 229.472 89.6508 227.75 89.6508 225.549C89.6508 223.347 91.8815 221.625 94.8745 221.625H114.691C115.546 221.625 116.16 221.188 116.16 220.539C116.16 219.889 115.528 219.452 114.691 219.452H91.9373C90.8591 219.452 90.1155 218.803 90.1155 217.998C90.1155 217.194 90.8777 216.545 91.9373 216.545H115.49C118.483 216.545 120.714 218.238 120.714 220.44C120.714 222.641 118.483 224.335 115.49 224.335H95.6738C94.8187 224.335 94.2052 224.815 94.2052 225.45C94.2052 226.085 94.8373 226.565 95.6738 226.565H119.32C120.398 226.565 121.142 227.214 121.142 228.018C121.142 228.823 120.38 229.472 119.32 229.472H94.8745ZM120.268 213.892C120.268 214.809 119.246 215.515 117.944 215.515C116.643 215.515 115.621 214.809 115.621 213.892V201.628C115.621 200.71 116.643 200.005 117.944 200.005C119.246 200.005 120.268 200.71 120.268 201.628V213.892Z" fill="#DB9099"/>
</svg>
