<svg width="186" height="255" viewBox="0 0 186 255" fill="none" xmlns="http://www.w3.org/2000/svg">
<path d="M183.197 87.5C183.197 134.458 145.351 172.5 98.6968 172.5C52.0422 172.5 14.1968 134.458 14.1968 87.5C14.1968 40.5423 52.0422 2.5 98.6968 2.5C145.351 2.5 183.197 40.5423 183.197 87.5Z" stroke="#DB9099" stroke-width="5"/>
<path d="M110.409 102.256H86.062C86.3317 102.595 86.542 102.854 86.7482 103.117C87.8152 104.451 88.3825 105.924 88.3785 107.626C88.3547 115.843 88.3706 124.06 88.3626 132.277C88.3626 134.667 86.9505 135.997 84.4476 135.997C78.5096 136.001 72.5717 136.001 66.6337 135.997C64.2101 135.997 62.8218 134.63 62.7742 132.311C62.7266 129.877 62.9408 127.438 62.6195 125.011C62.2744 122.407 61.1876 120.104 59.5375 118.018C56.749 114.494 53.9962 110.951 51.1799 107.449C48.8158 104.511 47.6695 101.242 47.6973 97.5335C47.7568 89.7521 47.7131 81.9744 47.7131 74.193C47.7131 70.6686 50.3747 67.7266 53.8613 67.3922C57.3242 67.0578 60.6799 69.5564 61.3899 72.9982C61.6636 74.3245 61.6636 74.3358 63.0043 73.9826C64.3886 73.6181 65.7531 73.6482 67.0661 74.1967C67.6888 74.456 67.8594 74.3508 67.8514 73.7045C67.8197 71.7695 67.8276 69.8307 67.8514 67.892C67.8554 67.4599 67.7206 67.2457 67.2723 67.0691C65.9753 66.5619 65.3803 65.5549 65.3723 64.2586C65.3525 61.3843 65.3644 58.5099 65.3723 55.6356C65.3723 54.9743 65.5072 54.328 65.773 53.7156C66.2172 52.6936 66.9947 52.1337 68.2084 52.1413C70.8145 52.1563 73.4205 52.1187 76.0266 52.16C76.7405 52.1713 76.9032 51.9609 76.8754 51.3184C76.7881 49.4134 76.8992 47.516 77.2086 45.6223C78.0337 40.6176 83.1981 39.171 86.7403 40.4447C89.2194 41.3352 90.9845 43.0147 92.5593 44.9347C93.1066 45.5998 93.4914 46.494 94.1975 46.896C94.9075 47.3018 95.7048 46.4752 96.5258 46.3399C98.2394 46.0506 99.8816 46.1784 101.448 46.8697C101.968 47.0989 102.226 47.0501 102.559 46.6067C103.547 45.2804 104.562 43.9691 105.8 42.8344C106.898 41.8274 108.144 41.0496 109.568 40.4861C113.074 39.1034 118.449 40.6175 119.211 45.7125C119.488 47.5761 119.635 49.4397 119.544 51.3146C119.512 51.9609 119.679 52.1676 120.393 52.1563C122.9 52.115 125.406 52.1337 127.913 52.1413C129.643 52.145 130.523 52.8176 130.872 54.4295C130.983 54.9442 131.047 55.4815 131.047 56.0076C131.063 58.664 131.047 61.3204 131.059 63.9768C131.067 65.4271 130.492 66.5318 129.044 67.1104C128.659 67.2645 128.568 67.4599 128.572 67.8055C128.58 69.8044 128.576 71.8033 128.572 73.806C128.572 74.1366 128.56 74.5124 129.083 74.2794C130.987 73.4378 132.868 73.6782 134.795 74.4372C134.962 72.7089 135.454 71.1871 136.564 69.8758C138.421 67.6853 141.324 66.8286 143.994 67.7116C146.731 68.6171 148.666 71.1308 148.674 73.836C148.69 81.9293 148.702 90.0226 148.694 98.1158C148.694 101.471 147.56 104.477 145.442 107.16C142.598 110.759 139.781 114.378 136.91 117.955C134.672 120.742 133.55 123.846 133.625 127.355C133.665 129.042 133.645 130.729 133.625 132.416C133.605 134.581 132.126 135.99 129.837 135.993C123.832 136.001 117.826 136.001 111.825 135.993C109.489 135.993 108.053 134.656 108.049 132.439C108.033 124.098 108.053 115.753 108.037 107.411C108.033 105.416 108.973 103.831 110.397 102.253L110.409 102.256ZM84.5944 119.491C84.5944 115.554 84.5825 111.616 84.6023 107.678C84.6063 106.664 84.3405 105.785 83.6186 105.014C80.3184 101.482 77.042 97.928 73.7379 94.3999C72.3892 92.9608 70.3901 92.7767 69.089 93.9227C67.6968 95.1513 67.669 96.9887 69.0335 98.4202C71.9093 101.434 74.7969 104.436 77.6648 107.457C78.4541 108.287 78.4501 109.388 77.7044 110.064C76.927 110.767 75.6934 110.718 74.8882 109.88C69.9379 104.725 64.9955 99.5662 60.077 94.3886C58.9544 93.2088 58.2841 91.7848 57.9826 90.218C57.6256 88.3581 57.8279 86.4794 57.812 84.6083C57.7763 81.1403 57.812 77.6723 57.7962 74.2043C57.7882 72.5849 56.4079 71.1233 54.8133 70.9579C53.4012 70.8114 51.9772 71.7845 51.5924 73.2086C51.4814 73.6219 51.4854 74.0728 51.4854 74.5086C51.4814 82.2262 51.5092 89.9437 51.4655 97.6612C51.4497 100.498 52.3461 102.978 54.143 105.225C57.0663 108.884 59.954 112.57 62.8496 116.249C64.5275 118.379 65.6381 120.75 66.1974 123.361C66.7805 126.089 66.4949 128.843 66.5306 131.586C66.5385 132.292 66.7249 132.458 67.4588 132.454C72.8692 132.424 78.2796 132.424 83.69 132.454C84.4198 132.458 84.6221 132.304 84.6142 131.59C84.5745 127.558 84.5944 123.527 84.5944 119.499V119.491ZM144.938 86.3517C144.938 82.2599 144.946 78.1682 144.938 74.0727C144.938 72.7126 144.137 71.5817 142.907 71.1308C140.872 70.3793 138.639 71.9724 138.627 74.2268C138.607 78.8521 138.607 83.4736 138.627 88.0988C138.639 90.6463 137.794 92.8932 136.001 94.7756C131.214 99.8104 126.39 104.819 121.579 109.839C121.265 110.169 120.912 110.447 120.424 110.504C119.584 110.605 118.826 110.466 118.394 109.685C117.945 108.873 118.096 108.133 118.747 107.453C121.654 104.424 124.546 101.388 127.453 98.3601C127.858 97.9355 128.191 97.4884 128.314 96.9135C128.611 95.5158 127.953 94.1143 126.696 93.4869C125.442 92.8631 123.828 93.175 122.753 94.3247C119.361 97.9468 115.994 101.588 112.614 105.221C112.039 105.841 111.825 106.566 111.825 107.378C111.825 115.501 111.833 123.621 111.813 131.744C111.813 132.255 111.924 132.439 112.507 132.435C118.048 132.413 123.59 132.413 129.131 132.435C129.782 132.435 129.885 132.225 129.873 131.684C129.841 130.031 129.873 128.374 129.861 126.717C129.837 122.873 131.067 119.416 133.482 116.339C136.414 112.608 139.345 108.877 142.304 105.165C144.097 102.914 144.97 100.408 144.942 97.5861C144.906 93.8363 144.934 90.0902 144.934 86.3404L144.938 86.3517ZM91.397 85.2433C91.397 81.6851 91.3257 78.1231 91.4288 74.565C91.4804 72.7877 91.1432 71.2059 90.1595 69.688C89.7906 69.1168 89.4614 68.9891 88.8426 69.0943C87.9025 69.2596 86.9585 69.4024 86.0104 69.5038C84.8601 69.6278 83.9875 69.0116 84.1105 68.0159C84.2057 67.2344 83.8249 67.3171 83.3092 67.3171C79.6838 67.3246 76.0583 67.3359 72.4289 67.3058C71.7665 67.302 71.4848 67.4336 71.5324 68.1212C71.5959 68.9929 71.5483 69.8683 71.5483 70.7438C71.5483 76.7367 71.5483 82.7334 71.5483 88.7263C71.5483 89.1283 71.3698 89.6018 72.1354 89.6506C73.7696 89.7558 75.0548 90.5599 76.1218 91.6796C78.1527 93.81 80.1756 95.9516 82.1629 98.1196C82.5476 98.5367 82.9244 98.702 83.5036 98.6945C85.8121 98.6644 88.1207 98.6532 90.4252 98.6983C91.1789 98.7133 91.4209 98.5517 91.4129 97.7927C91.3693 93.6108 91.3931 89.4252 91.3931 85.2433H91.397ZM105.026 85.2019C105.026 89.4214 105.038 93.6409 105.01 97.8566C105.006 98.4878 105.137 98.7133 105.863 98.702C108.271 98.6569 110.679 98.6719 113.09 98.6945C113.566 98.6982 113.864 98.5442 114.173 98.2098C116.22 96.0005 118.279 93.8062 120.353 91.627C121.4 90.5298 122.662 89.7671 124.264 89.6506C124.72 89.6168 124.883 89.4703 124.883 89.0269C124.871 81.997 124.871 74.967 124.883 67.9333C124.883 67.5162 124.796 67.3133 124.288 67.3133C120.46 67.3284 116.632 67.3284 112.805 67.3133C112.368 67.3133 112.285 67.4185 112.289 67.8394C112.305 69.1018 111.619 69.6429 110.282 69.4813C109.334 69.3686 108.394 69.207 107.446 69.0868C107.164 69.053 106.744 68.8839 106.617 69.1619C106.073 70.3455 105.022 71.3262 105.026 72.7276C105.034 76.8832 105.026 81.0388 105.026 85.1944V85.2019ZM101.317 84.4354C101.317 80.0319 101.313 75.6283 101.325 71.2247C101.325 70.6498 101.23 70.1238 100.984 69.5978C99.8538 67.1818 99.8617 67.1743 97.0574 67.3246C96.8432 67.3359 96.5576 67.2382 96.4465 67.5012C95.9943 68.5946 95.1296 69.5827 95.1256 70.7888C95.0899 79.8778 95.1098 88.9668 95.0979 98.052C95.0979 98.5367 95.2367 98.6982 95.7603 98.6907C97.3112 98.6607 98.8621 98.6419 100.409 98.6983C101.147 98.7246 101.345 98.5442 101.341 97.8303C101.302 93.3629 101.321 88.8991 101.321 84.4317L101.317 84.4354ZM107.458 53.7081C108.35 54.3205 109.136 54.839 109.897 55.3801C110.833 56.0451 111.079 57.0446 110.528 57.8336C109.973 58.6264 108.755 58.8331 107.799 58.2582C107.188 57.8937 106.617 57.4654 106.01 57.0897C105.823 56.9732 105.582 56.6313 105.371 56.9206C105.161 57.2099 104.741 57.4842 105.066 57.9876C106.22 59.7724 107.716 61.1739 109.838 61.869C112.654 62.7858 114.427 61.8802 115.24 59.175C115.776 57.3865 115.847 55.5416 115.97 53.7043C116.133 51.2433 116.39 48.7785 115.823 46.3324C115.125 43.3116 112.781 42.406 110.095 44.1494C108.021 45.4946 106.577 47.4145 105.078 49.2782C104.661 49.7929 105.082 50.1048 105.316 50.4279C105.629 50.8638 105.863 50.3903 106.081 50.2588C106.637 49.9244 107.152 49.5299 107.692 49.1767C108.675 48.5305 109.75 48.6469 110.409 49.4585C111.075 50.2814 110.865 51.3597 109.873 52.0661C109.116 52.6072 108.334 53.1182 107.458 53.7081ZM88.8703 53.7682C88.8148 53.6517 88.8108 53.6141 88.791 53.5991C88.0969 53.1257 87.4027 52.6523 86.7086 52.1788C85.5464 51.386 85.2727 50.3753 85.9747 49.4698C86.653 48.5943 87.7875 48.5342 88.9378 49.3082C89.3662 49.5976 89.7827 49.9094 90.2309 50.1687C90.4847 50.3152 90.7346 50.8036 91.0758 50.4279C91.3891 50.0822 91.7342 49.684 91.2463 49.1241C90.2229 47.9406 89.2749 46.6969 88.1326 45.6073C87.2678 44.7844 86.3476 44.033 85.2092 43.5558C83.571 42.8719 82.0359 43.3642 81.1752 44.8483C80.6913 45.6824 80.4969 46.5992 80.3938 47.5348C80.0526 50.6007 80.4136 53.6517 80.6833 56.6989C80.7746 57.7509 81.0007 58.7992 81.3854 59.8024C82.0954 61.6586 83.0434 62.3198 85.1259 62.1207C88.0334 61.8464 89.9651 60.1857 91.3772 57.8862C91.643 57.4504 91.2424 57.1648 91.0361 56.9055C90.8179 56.635 90.5839 56.9882 90.3895 57.1047C89.8104 57.4616 89.263 57.8674 88.6839 58.2206C87.6843 58.833 86.4587 58.6414 85.8756 57.8073C85.3163 57.007 85.5662 56.0602 86.538 55.3726C87.3035 54.8315 88.085 54.3092 88.8783 53.7644L88.8703 53.7682ZM131.753 93.9302C133.657 92.1981 134.918 90.3269 134.859 87.8058C134.803 85.371 134.855 82.9363 134.843 80.5015C134.835 78.6792 133.478 77.3003 131.729 77.3041C129.948 77.3078 128.6 78.6379 128.584 80.4827C128.56 83.6051 128.576 86.7274 128.576 89.846C128.576 90.1616 128.556 90.4396 128.937 90.6313C130.321 91.3189 131.118 92.4874 131.753 93.9302ZM64.6385 93.9114C65.6619 91.9426 65.7928 91.7697 67.4826 90.6388C67.7761 90.4434 67.8435 90.2443 67.8395 89.9437C67.8316 86.7612 67.8633 83.575 67.8237 80.3926C67.7999 78.5853 66.36 77.2665 64.579 77.3078C62.8893 77.3454 61.5803 78.7281 61.5724 80.509C61.5644 82.9738 61.6041 85.4424 61.5605 87.9072C61.5168 90.3908 62.7861 92.2244 64.6385 93.9114ZM116.747 63.7852C120.167 63.7852 123.419 63.7739 126.672 63.7965C127.207 63.8002 127.33 63.6349 127.326 63.1577C127.303 61.0048 127.291 58.8556 127.326 56.7026C127.342 55.9249 127.045 55.6544 126.235 55.6694C124.197 55.7032 122.154 55.707 120.111 55.6694C119.488 55.6581 119.381 55.8422 119.334 56.3945C119.119 58.9946 118.513 61.4895 116.743 63.7852H116.747ZM79.656 63.7852C77.8909 61.4632 77.28 58.9383 77.0737 56.3081C77.038 55.8422 76.9508 55.6656 76.4113 55.6731C74.3051 55.7032 72.1988 55.6994 70.0926 55.6769C69.3865 55.6694 69.0851 55.8948 69.097 56.6012C69.1287 58.7842 69.1208 60.9672 69.097 63.1502C69.093 63.6086 69.1803 63.804 69.7356 63.8002C72.9882 63.7739 76.2447 63.789 79.656 63.789V63.7852ZM102.388 53.6705C102.377 51.4837 100.469 49.714 98.1482 49.7403C95.8713 49.7629 94.0428 51.5213 94.0388 53.693C94.0348 55.9286 95.8634 57.6608 98.2196 57.6533C100.56 57.6495 102.404 55.8873 102.388 53.6705ZM89.4415 65.4685C90.925 65.1266 91.9484 65.6676 92.7774 66.7197C93.6342 64.8711 94.4394 63.1427 95.2446 61.4106C95.3993 61.0762 95.6889 60.6892 95.0423 60.5539C94.5703 60.4562 94.1618 59.6822 93.5747 60.4938C92.7021 61.6961 91.762 62.8684 90.572 63.8115C90.0405 64.2323 89.7152 64.7208 89.4455 65.4647L89.4415 65.4685ZM107.029 65.4647C106.791 64.9951 106.716 64.6005 106.47 64.3939C104.998 63.1727 103.793 61.7375 102.591 60.2871C102.194 59.8099 101.758 60.4825 101.325 60.5727C100.929 60.6553 100.933 60.8921 101.083 61.2114C101.936 63.0149 102.773 64.8297 103.658 66.7272C104.487 65.6037 105.53 65.1566 107.029 65.461V65.4647Z" fill="#DB9099"/>
<path d="M1.79662 252.888C0.784928 252.888 0 252.226 0 251.431C0 250.637 0.802371 249.975 1.79662 249.975H33.1938C34.2055 249.975 34.9904 250.637 34.9904 251.431C34.9904 252.226 34.1881 252.888 33.1938 252.888H1.79662ZM4.18634 238.746L24.4026 237.925C25.4143 237.898 26.1992 238.467 26.2516 239.222C26.2865 239.99 25.5887 240.626 24.577 240.652L4.36072 241.473C3.34903 241.5 2.56411 240.93 2.51178 240.176C2.45945 239.421 3.17465 238.772 4.18634 238.746ZM4.72706 231.277C3.71537 231.277 2.93045 230.641 2.93045 229.847C2.93045 229.052 3.73282 228.417 4.72706 228.417H29.4611C30.6821 228.417 31.6414 229.145 31.6414 230.072V246.532C31.6414 247.393 30.6821 248.055 29.4611 248.055C28.2401 248.055 27.2807 247.393 27.2807 246.532V231.277H4.7096H4.72706Z" fill="#DB9099"/>
<path d="M43.7121 231.529C42.0027 231.529 40.5375 231.145 39.5259 230.231C38.7235 229.503 38.8631 228.457 39.8224 227.874C40.7818 227.305 42.09 227.53 42.84 228.126C43.2586 228.47 43.7645 228.668 44.5494 228.668H52.1196C56.0617 228.668 59.4457 231.502 59.4457 235.184C59.4457 238.865 56.0617 241.725 52.1196 241.725H46.6775C44.5843 241.725 42.8749 243.341 42.8749 245.565C42.8749 247.79 44.5843 249.379 46.6775 249.379H60.7364C61.7481 249.379 62.533 250.015 62.533 250.809C62.533 251.604 61.7307 252.239 60.7364 252.239H45.91C41.9679 252.239 38.584 249.379 38.584 245.658C38.584 241.937 41.9679 239.05 45.91 239.05H51.3521C53.4453 239.05 55.1547 237.461 55.1547 235.263C55.1547 233.065 53.4453 231.515 51.3521 231.515H43.6947L43.7121 231.529ZM69.8416 252.888C69.8416 253.749 68.8822 254.411 67.6612 254.411C66.4402 254.411 65.4809 253.749 65.4809 252.888V228.536C65.4809 227.675 66.4402 227.013 67.6612 227.013C68.8822 227.013 69.8416 227.675 69.8416 228.536V252.888Z" fill="#DB9099"/>
<path d="M77.1501 252.888C76.1384 252.888 75.3535 252.226 75.3535 251.431C75.3535 250.637 76.1559 249.975 77.1501 249.975H108.547C109.559 249.975 110.344 250.637 110.344 251.431C110.344 252.226 109.542 252.888 108.547 252.888H77.1501ZM80.5864 243.672C79.7491 244.215 78.3711 244.056 77.7432 243.38C77.0804 242.718 77.2897 241.725 78.1269 241.222L87.7903 235.25C88.6276 234.707 90.0056 234.866 90.6335 235.541C91.2963 236.203 91.087 237.196 90.2498 237.699L80.5864 243.672ZM93.1453 236.362C91.8545 235.568 90.6684 234.455 90.6684 232.932V229.251C90.6684 228.39 91.6277 227.794 92.8487 227.794C94.0697 227.794 95.0291 228.404 95.0291 229.251V232.681C95.0291 233.29 95.3256 233.793 95.8664 234.111L107.588 241.235C108.46 241.738 108.635 242.731 107.972 243.394C107.344 244.056 106.001 244.188 105.128 243.685L93.1627 236.375L93.1453 236.362Z" fill="#DB9099"/>
<path d="M119.397 252.253C116.222 252.253 114.373 250.849 114.373 248.439V231.277C113.361 231.277 112.576 230.642 112.576 229.847C112.576 229.053 113.379 228.417 114.373 228.417H131.624C132.845 228.417 133.804 229.145 133.804 230.072V250.611C133.804 251.538 132.845 252.266 131.624 252.266H119.397V252.253ZM118.647 248.121C118.647 248.942 119.24 249.392 120.321 249.392H129.531V231.277H118.647V248.121ZM144.357 238.838H147.497C148.509 238.838 149.294 239.501 149.294 240.295C149.294 241.09 148.491 241.752 147.497 241.752H144.357V252.875C144.357 253.736 143.398 254.398 142.177 254.398C140.956 254.398 139.997 253.736 139.997 252.875V228.523C139.997 227.662 140.956 227 142.177 227C143.398 227 144.357 227.662 144.357 228.523V238.825V238.838Z" fill="#DB9099"/>
<path d="M152.503 252.888C151.492 252.888 150.707 252.226 150.707 251.431C150.707 250.637 151.509 249.975 152.503 249.975H183.9C184.912 249.975 185.697 250.637 185.697 251.431C185.697 252.226 184.895 252.888 183.9 252.888H152.503ZM155.939 243.672C155.102 244.215 153.724 244.056 153.096 243.38C152.433 242.718 152.643 241.725 153.48 241.222L163.143 235.25C163.981 234.707 165.359 234.866 165.987 235.541C166.649 236.203 166.44 237.196 165.603 237.699L155.939 243.672ZM168.498 236.362C167.208 235.568 166.021 234.455 166.021 232.932V229.251C166.021 228.39 166.981 227.794 168.202 227.794C169.423 227.794 170.382 228.404 170.382 229.251V232.681C170.382 233.29 170.679 233.793 171.219 234.111L182.941 241.235C183.813 241.738 183.988 242.731 183.325 243.394C182.697 244.056 181.354 244.188 180.482 243.685L168.498 236.375V236.362Z" fill="#DB9099"/>
</svg>
