<svg width="186" height="231" viewBox="0 0 186 231" fill="none" xmlns="http://www.w3.org/2000/svg">
<path d="M176.5 87.5C176.5 134.458 138.655 172.5 92 172.5C45.3454 172.5 7.5 134.458 7.5 87.5C7.5 40.5423 45.3454 2.5 92 2.5C138.655 2.5 176.5 40.5423 176.5 87.5Z" stroke="#DB9099" stroke-width="5"/>
<path d="M103.712 102.256H79.3652C79.635 102.595 79.8452 102.854 80.0514 103.117C81.1185 104.451 81.6857 105.924 81.6817 107.626C81.6579 115.843 81.6738 124.06 81.6658 132.277C81.6658 134.667 80.2537 135.997 77.7508 135.997C71.8129 136.001 65.8749 136.001 59.9369 135.997C57.5134 135.997 56.125 134.63 56.0775 132.311C56.0299 129.877 56.244 127.438 55.9228 125.011C55.5777 122.407 54.4908 120.104 52.8407 118.018C50.0522 114.494 47.2994 110.951 44.4831 107.449C42.1191 104.511 40.9727 101.242 41.0005 97.5335C41.06 89.7521 41.0164 81.9744 41.0164 74.193C41.0164 70.6686 43.6779 67.7266 47.1646 67.3922C50.6274 67.0578 53.9831 69.5564 54.6931 72.9982C54.9668 74.3245 54.9668 74.3358 56.3075 73.9826C57.6918 73.6181 59.0564 73.6482 60.3693 74.1967C60.992 74.456 61.1626 74.3508 61.1547 73.7045C61.1229 71.7695 61.1309 69.8307 61.1547 67.892C61.1586 67.4599 61.0238 67.2457 60.5756 67.0691C59.2785 66.5619 58.6835 65.5549 58.6756 64.2586C58.6557 61.3843 58.6676 58.5099 58.6756 55.6356C58.6756 54.9743 58.8104 54.328 59.0762 53.7156C59.5204 52.6936 60.2979 52.1337 61.5117 52.1413C64.1177 52.1563 66.7237 52.1187 69.3298 52.16C70.0438 52.1713 70.2064 51.9609 70.1786 51.3184C70.0914 49.4134 70.2024 47.516 70.5118 45.6223C71.3369 40.6176 76.5014 39.171 80.0435 40.4447C82.5226 41.3352 84.2878 43.0147 85.8625 44.9347C86.4099 45.5998 86.7946 46.494 87.5007 46.896C88.2107 47.3018 89.008 46.4752 89.8291 46.3399C91.5426 46.0506 93.1848 46.1784 94.7516 46.8697C95.2712 47.0989 95.529 47.0501 95.8622 46.6067C96.8499 45.2804 97.8653 43.9691 99.1029 42.8344C100.202 41.8274 101.447 41.0496 102.871 40.4861C106.378 39.1034 111.752 40.6175 112.514 45.7125C112.792 47.5761 112.938 49.4397 112.847 51.3146C112.815 51.9609 112.982 52.1676 113.696 52.1563C116.203 52.115 118.71 52.1337 121.217 52.1413C122.946 52.145 123.827 52.8176 124.176 54.4295C124.287 54.9442 124.35 55.4815 124.35 56.0076C124.366 58.664 124.35 61.3204 124.362 63.9768C124.37 65.4271 123.795 66.5318 122.347 67.1104C121.962 67.2645 121.871 67.4599 121.875 67.8055C121.883 69.8044 121.879 71.8033 121.875 73.806C121.875 74.1366 121.863 74.5124 122.387 74.2794C124.291 73.4378 126.171 73.6782 128.099 74.4372C128.265 72.7089 128.757 71.1871 129.868 69.8758C131.724 67.6853 134.628 66.8286 137.297 67.7116C140.034 68.6171 141.97 71.1308 141.978 73.836C141.994 81.9293 142.005 90.0226 141.997 98.1158C141.997 101.471 140.863 104.477 138.745 107.16C135.901 110.759 133.085 114.378 130.213 117.955C127.976 120.742 126.853 123.846 126.928 127.355C126.968 129.042 126.948 130.729 126.928 132.416C126.909 134.581 125.429 135.99 123.14 135.993C117.135 136.001 111.13 136.001 105.128 135.993C102.792 135.993 101.356 134.656 101.352 132.439C101.336 124.098 101.356 115.753 101.34 107.411C101.336 105.416 102.276 103.831 103.7 102.253L103.712 102.256ZM77.8976 119.491C77.8976 115.554 77.8857 111.616 77.9055 107.678C77.9095 106.664 77.6437 105.785 76.9218 105.014C73.6216 101.482 70.3452 97.928 67.0411 94.3999C65.6924 92.9608 63.6933 92.7767 62.3922 93.9227C61 95.1513 60.9722 96.9887 62.3367 98.4202C65.2125 101.434 68.1002 104.436 70.968 107.457C71.7573 108.287 71.7534 109.388 71.0077 110.064C70.2302 110.767 68.9966 110.718 68.1914 109.88C63.2411 104.725 58.2987 99.5662 53.3802 94.3886C52.2576 93.2088 51.5873 91.7848 51.2858 90.218C50.9288 88.3581 51.1311 86.4794 51.1153 84.6083C51.0796 81.1403 51.1153 77.6723 51.0994 74.2043C51.0915 72.5849 49.7111 71.1233 48.1165 70.9579C46.7044 70.8114 45.2804 71.7845 44.8957 73.2086C44.7846 73.6219 44.7886 74.0728 44.7886 74.5086C44.7846 82.2262 44.8124 89.9437 44.7687 97.6612C44.7529 100.498 45.6493 102.978 47.4462 105.225C50.3695 108.884 53.2572 112.57 56.1528 116.249C57.8307 118.379 58.9413 120.75 59.5006 123.361C60.0837 126.089 59.7981 128.843 59.8338 131.586C59.8417 132.292 60.0282 132.458 60.762 132.454C66.1724 132.424 71.5828 132.424 76.9932 132.454C77.7231 132.458 77.9254 132.304 77.9174 131.59C77.8778 127.558 77.8976 123.527 77.8976 119.499V119.491ZM138.241 86.3517C138.241 82.2599 138.249 78.1682 138.241 74.0727C138.241 72.7126 137.44 71.5817 136.21 71.1308C134.175 70.3793 131.942 71.9724 131.93 74.2268C131.91 78.8521 131.91 83.4736 131.93 88.0988C131.942 90.6463 131.097 92.8932 129.304 94.7756C124.517 99.8104 119.693 104.819 114.882 109.839C114.569 110.169 114.216 110.447 113.728 110.504C112.887 110.605 112.129 110.466 111.697 109.685C111.249 108.873 111.399 108.133 112.05 107.453C114.957 104.424 117.849 101.388 120.756 98.3601C121.161 97.9355 121.494 97.4884 121.617 96.9135C121.915 95.5158 121.256 94.1143 119.999 93.4869C118.745 92.8631 117.131 93.175 116.056 94.3247C112.665 97.9468 109.297 101.588 105.917 105.221C105.342 105.841 105.128 106.566 105.128 107.378C105.128 115.501 105.136 123.621 105.116 131.744C105.116 132.255 105.227 132.439 105.81 132.435C111.352 132.413 116.893 132.413 122.434 132.435C123.085 132.435 123.188 132.225 123.176 131.684C123.144 130.031 123.176 128.374 123.164 126.717C123.14 122.873 124.37 119.416 126.786 116.339C129.717 112.608 132.648 108.877 135.607 105.165C137.4 102.914 138.273 100.408 138.245 97.5861C138.209 93.8363 138.237 90.0902 138.237 86.3404L138.241 86.3517ZM84.7003 85.2433C84.7003 81.6851 84.6289 78.1231 84.732 74.565C84.7836 72.7877 84.4464 71.2059 83.4627 69.688C83.0938 69.1168 82.7646 68.9891 82.1458 69.0943C81.2057 69.2596 80.2617 69.4024 79.3137 69.5038C78.1634 69.6278 77.2907 69.0116 77.4137 68.0159C77.5089 67.2344 77.1281 67.3171 76.6124 67.3171C72.987 67.3246 69.3615 67.3359 65.7321 67.3058C65.0697 67.302 64.7881 67.4336 64.8357 68.1212C64.8991 68.9929 64.8515 69.8683 64.8515 70.7438C64.8515 76.7367 64.8515 82.7334 64.8515 88.7263C64.8515 89.1283 64.673 89.6018 65.4386 89.6506C67.0728 89.7558 68.358 90.5599 69.425 91.6796C71.4559 93.81 73.4788 95.9516 75.4661 98.1196C75.8508 98.5367 76.2277 98.702 76.8068 98.6945C79.1153 98.6644 81.4239 98.6532 83.7285 98.6983C84.4821 98.7133 84.7241 98.5517 84.7161 97.7927C84.6725 93.6108 84.6963 89.4252 84.6963 85.2433H84.7003ZM98.3294 85.2019C98.3294 89.4214 98.3413 93.6409 98.3136 97.8566C98.3096 98.4878 98.4405 98.7133 99.1664 98.702C101.574 98.6569 103.982 98.6719 106.393 98.6945C106.869 98.6982 107.167 98.5442 107.476 98.2098C109.523 96.0005 111.582 93.8062 113.656 91.627C114.703 90.5298 115.965 89.7671 117.567 89.6506C118.023 89.6168 118.186 89.4703 118.186 89.0269C118.174 81.997 118.174 74.967 118.186 67.9333C118.186 67.5162 118.099 67.3133 117.591 67.3133C113.763 67.3284 109.936 67.3284 106.108 67.3133C105.672 67.3133 105.588 67.4185 105.592 67.8394C105.608 69.1018 104.922 69.6429 103.585 69.4813C102.637 69.3686 101.697 69.207 100.749 69.0868C100.467 69.053 100.047 68.8839 99.92 69.1619C99.3766 70.3455 98.3255 71.3262 98.3294 72.7276C98.3374 76.8832 98.3294 81.0388 98.3294 85.1944V85.2019ZM94.6207 84.4354C94.6207 80.0319 94.6167 75.6283 94.6286 71.2247C94.6286 70.6498 94.5334 70.1238 94.2875 69.5978C93.157 67.1818 93.165 67.1743 90.3606 67.3246C90.1464 67.3359 89.8608 67.2382 89.7497 67.5012C89.2975 68.5946 88.4328 69.5827 88.4289 70.7888C88.3932 79.8778 88.413 88.9668 88.4011 98.052C88.4011 98.5367 88.5399 98.6982 89.0635 98.6907C90.6144 98.6607 92.1654 98.6419 93.7123 98.6983C94.4501 98.7246 94.6485 98.5442 94.6445 97.8303C94.6048 93.3629 94.6246 88.8991 94.6246 84.4317L94.6207 84.4354ZM100.761 53.7081C101.653 54.3205 102.439 54.839 103.2 55.3801C104.136 56.0451 104.382 57.0446 103.831 57.8336C103.276 58.6264 102.058 58.8331 101.102 58.2582C100.491 57.8937 99.92 57.4654 99.3131 57.0897C99.1267 56.9732 98.8848 56.6313 98.6745 56.9206C98.4643 57.2099 98.0438 57.4842 98.3691 57.9876C99.5234 59.7724 101.019 61.1739 103.141 61.869C105.957 62.7858 107.73 61.8802 108.543 59.175C109.079 57.3865 109.15 55.5416 109.273 53.7043C109.436 51.2433 109.694 48.7785 109.126 46.3324C108.428 43.3116 106.084 42.406 103.399 44.1494C101.324 45.4946 99.8804 47.4145 98.381 49.2782C97.9645 49.7929 98.385 50.1048 98.619 50.4279C98.9324 50.8638 99.1664 50.3903 99.3845 50.2588C99.9399 49.9244 100.456 49.5299 100.995 49.1767C101.979 48.5305 103.054 48.6469 103.712 49.4585C104.378 50.2814 104.168 51.3597 103.177 52.0661C102.419 52.6072 101.638 53.1182 100.761 53.7081ZM82.1736 53.7682C82.118 53.6517 82.1141 53.6141 82.0942 53.5991C81.4001 53.1257 80.7059 52.6523 80.0118 52.1788C78.8496 51.386 78.5759 50.3753 79.278 49.4698C79.9562 48.5943 81.0907 48.5342 82.241 49.3082C82.6694 49.5976 83.0859 49.9094 83.5341 50.1687C83.788 50.3152 84.0379 50.8036 84.379 50.4279C84.6923 50.0822 85.0374 49.684 84.5495 49.1241C83.5262 47.9406 82.5782 46.6969 81.4358 45.6073C80.5711 44.7844 79.6508 44.033 78.5124 43.5558C76.8742 42.8719 75.3392 43.3642 74.4784 44.8483C73.9945 45.6824 73.8001 46.5992 73.697 47.5348C73.3559 50.6007 73.7168 53.6517 73.9865 56.6989C74.0778 57.7509 74.3039 58.7992 74.6886 59.8024C75.3987 61.6586 76.3467 62.3198 78.4291 62.1207C81.3366 61.8464 83.2683 60.1857 84.6804 57.8862C84.9462 57.4504 84.5456 57.1648 84.3393 56.9055C84.1212 56.635 83.8871 56.9882 83.6928 57.1047C83.1136 57.4616 82.5663 57.8674 81.9871 58.2206C80.9876 58.833 79.7619 58.6414 79.1788 57.8073C78.6195 57.007 78.8694 56.0602 79.8412 55.3726C80.6068 54.8315 81.3882 54.3092 82.1815 53.7644L82.1736 53.7682ZM125.056 93.9302C126.96 92.1981 128.222 90.3269 128.162 87.8058C128.107 85.371 128.158 82.9363 128.146 80.5015C128.138 78.6792 126.782 77.3003 125.032 77.3041C123.251 77.3078 121.903 78.6379 121.887 80.4827C121.863 83.6051 121.879 86.7274 121.879 89.846C121.879 90.1616 121.859 90.4396 122.24 90.6313C123.624 91.3189 124.422 92.4874 125.056 93.9302ZM57.9417 93.9114C58.9651 91.9426 59.096 91.7697 60.7858 90.6388C61.0793 90.4434 61.1467 90.2443 61.1428 89.9437C61.1348 86.7612 61.1666 83.575 61.1269 80.3926C61.1031 78.5853 59.6632 77.2665 57.8822 77.3078C56.1925 77.3454 54.8835 78.7281 54.8756 80.509C54.8676 82.9738 54.9073 85.4424 54.8637 87.9072C54.82 90.3908 56.0894 92.2244 57.9417 93.9114ZM110.051 63.7852C113.47 63.7852 116.722 63.7739 119.975 63.7965C120.511 63.8002 120.633 63.6349 120.63 63.1577C120.606 61.0048 120.594 58.8556 120.63 56.7026C120.645 55.9249 120.348 55.6544 119.539 55.6694C117.5 55.7032 115.457 55.707 113.414 55.6694C112.792 55.6581 112.684 55.8422 112.637 56.3945C112.423 58.9946 111.816 61.4895 110.047 63.7852H110.051ZM72.9592 63.7852C71.1941 61.4632 70.5832 58.9383 70.377 56.3081C70.3413 55.8422 70.254 55.6656 69.7145 55.6731C67.6083 55.7032 65.502 55.6994 63.3958 55.6769C62.6897 55.6694 62.3883 55.8948 62.4002 56.6012C62.4319 58.7842 62.424 60.9672 62.4002 63.1502C62.3962 63.6086 62.4835 63.804 63.0388 63.8002C66.2914 63.7739 69.548 63.789 72.9592 63.789V63.7852ZM95.6917 53.6705C95.6798 51.4837 93.7718 49.714 91.4514 49.7403C89.1746 49.7629 87.346 51.5213 87.342 53.693C87.338 55.9286 89.1666 57.6608 91.5228 57.6533C93.8631 57.6495 95.7075 55.8873 95.6917 53.6705ZM82.7448 65.4685C84.2282 65.1266 85.2516 65.6676 86.0806 66.7197C86.9374 64.8711 87.7426 63.1427 88.5479 61.4106C88.7026 61.0762 88.9921 60.6892 88.3456 60.5539C87.8735 60.4562 87.465 59.6822 86.8779 60.4938C86.0053 61.6961 85.0652 62.8684 83.8752 63.8115C83.3437 64.2323 83.0184 64.7208 82.7487 65.4647L82.7448 65.4685ZM100.333 65.4647C100.095 64.9951 100.019 64.6005 99.7733 64.3939C98.3017 63.1727 97.0958 61.7375 95.894 60.2871C95.4973 59.8099 95.061 60.4825 94.6286 60.5727C94.232 60.6553 94.2359 60.8921 94.3867 61.2114C95.2395 63.0149 96.0764 64.8297 96.961 66.7272C97.79 65.6037 98.8332 65.1566 100.333 65.461V65.4647Z" fill="#DB9099"/>
<path d="M1.79662 228.888C0.784928 228.888 0 228.226 0 227.431C0 226.637 0.802371 225.975 1.79662 225.975H33.1938C34.2055 225.975 34.9904 226.637 34.9904 227.431C34.9904 228.226 34.1881 228.888 33.1938 228.888H1.79662ZM4.18634 214.746L24.4026 213.925C25.4143 213.898 26.1992 214.467 26.2516 215.222C26.2865 215.99 25.5887 216.626 24.577 216.652L4.36072 217.473C3.34903 217.5 2.56411 216.93 2.51178 216.176C2.45945 215.421 3.17465 214.772 4.18634 214.746ZM4.72706 207.277C3.71537 207.277 2.93045 206.641 2.93045 205.847C2.93045 205.052 3.73282 204.417 4.72706 204.417H29.4611C30.6821 204.417 31.6414 205.145 31.6414 206.072V222.532C31.6414 223.393 30.6821 224.055 29.4611 224.055C28.2401 224.055 27.2807 223.393 27.2807 222.532V207.277H4.7096H4.72706Z" fill="#DB9099"/>
<path d="M43.7121 207.529C42.0027 207.529 40.5375 207.145 39.5259 206.231C38.7235 205.503 38.8631 204.457 39.8224 203.874C40.7818 203.305 42.09 203.53 42.84 204.126C43.2586 204.47 43.7645 204.668 44.5494 204.668H52.1196C56.0617 204.668 59.4457 207.502 59.4457 211.184C59.4457 214.865 56.0617 217.725 52.1196 217.725H46.6775C44.5843 217.725 42.8749 219.341 42.8749 221.565C42.8749 223.79 44.5843 225.379 46.6775 225.379H60.7364C61.7481 225.379 62.533 226.015 62.533 226.809C62.533 227.604 61.7307 228.239 60.7364 228.239H45.91C41.9679 228.239 38.584 225.379 38.584 221.658C38.584 217.937 41.9679 215.05 45.91 215.05H51.3521C53.4453 215.05 55.1547 213.461 55.1547 211.263C55.1547 209.065 53.4453 207.515 51.3521 207.515H43.6947L43.7121 207.529ZM69.8416 228.888C69.8416 229.749 68.8822 230.411 67.6612 230.411C66.4402 230.411 65.4809 229.749 65.4809 228.888V204.536C65.4809 203.675 66.4402 203.013 67.6612 203.013C68.8822 203.013 69.8416 203.675 69.8416 204.536V228.888Z" fill="#DB9099"/>
<path d="M77.1501 228.888C76.1384 228.888 75.3535 228.226 75.3535 227.431C75.3535 226.637 76.1559 225.975 77.1501 225.975H108.547C109.559 225.975 110.344 226.637 110.344 227.431C110.344 228.226 109.542 228.888 108.547 228.888H77.1501ZM80.5864 219.672C79.7491 220.215 78.3711 220.056 77.7432 219.38C77.0804 218.718 77.2897 217.725 78.1269 217.222L87.7903 211.25C88.6276 210.707 90.0056 210.866 90.6335 211.541C91.2963 212.203 91.087 213.196 90.2498 213.699L80.5864 219.672ZM93.1453 212.362C91.8545 211.568 90.6684 210.455 90.6684 208.932V205.251C90.6684 204.39 91.6277 203.794 92.8487 203.794C94.0697 203.794 95.0291 204.404 95.0291 205.251V208.681C95.0291 209.29 95.3256 209.793 95.8664 210.111L107.588 217.235C108.46 217.738 108.635 218.731 107.972 219.394C107.344 220.056 106.001 220.188 105.128 219.685L93.1627 212.375L93.1453 212.362Z" fill="#DB9099"/>
<path d="M119.397 228.253C116.222 228.253 114.373 226.849 114.373 224.439V207.277C113.361 207.277 112.576 206.642 112.576 205.847C112.576 205.053 113.379 204.417 114.373 204.417H131.624C132.845 204.417 133.804 205.145 133.804 206.072V226.611C133.804 227.538 132.845 228.266 131.624 228.266H119.397V228.253ZM118.647 224.121C118.647 224.942 119.24 225.392 120.321 225.392H129.531V207.277H118.647V224.121ZM144.357 214.838H147.497C148.509 214.838 149.294 215.501 149.294 216.295C149.294 217.09 148.491 217.752 147.497 217.752H144.357V228.875C144.357 229.736 143.398 230.398 142.177 230.398C140.956 230.398 139.997 229.736 139.997 228.875V204.523C139.997 203.662 140.956 203 142.177 203C143.398 203 144.357 203.662 144.357 204.523V214.825V214.838Z" fill="#DB9099"/>
<path d="M152.503 228.888C151.492 228.888 150.707 228.226 150.707 227.431C150.707 226.637 151.509 225.975 152.503 225.975H183.9C184.912 225.975 185.697 226.637 185.697 227.431C185.697 228.226 184.895 228.888 183.9 228.888H152.503ZM155.939 219.672C155.102 220.215 153.724 220.056 153.096 219.38C152.433 218.718 152.643 217.725 153.48 217.222L163.143 211.25C163.981 210.707 165.359 210.866 165.987 211.541C166.649 212.203 166.44 213.196 165.603 213.699L155.939 219.672ZM168.498 212.362C167.208 211.568 166.021 210.455 166.021 208.932V205.251C166.021 204.39 166.981 203.794 168.202 203.794C169.423 203.794 170.382 204.404 170.382 205.251V208.681C170.382 209.29 170.679 209.793 171.219 210.111L182.941 217.235C183.813 217.738 183.988 218.731 183.325 219.394C182.697 220.056 181.354 220.188 180.482 219.685L168.498 212.375V212.362Z" fill="#DB9099"/>
</svg>
