<svg width="172" height="231" viewBox="0 0 172 231" fill="none" xmlns="http://www.w3.org/2000/svg">
<path d="M169.5 86.5C169.5 132.906 132.102 170.5 86 170.5C39.8979 170.5 2.5 132.906 2.5 86.5C2.5 40.0944 39.8979 2.5 86 2.5C132.102 2.5 169.5 40.0944 169.5 86.5Z" stroke="#DB9099" stroke-width="5"/>
<path d="M44.0522 91.4411C44.0522 79.2829 44.1442 67.1247 44.0007 54.9702C43.9528 50.9349 46.4738 48.0195 50.6363 48.3144C52.804 48.4674 54.9864 48.3144 57.1651 48.3554C57.7466 48.3666 57.8718 48.1949 57.8681 47.6313C57.8607 46.4852 57.7577 45.3355 58.0006 44.1932C58.6888 40.9567 61.6478 38.7282 64.8901 39.0306C68.0846 39.3292 70.6167 42.0505 70.7198 45.3019C70.7455 46.1418 70.7455 46.9817 70.7198 47.8216C70.7087 48.2248 70.8228 48.3517 71.2313 48.348C73.9585 48.3293 76.6893 48.3256 79.4164 48.348C79.9279 48.3517 79.9242 48.1128 79.9316 47.7283C79.961 46.5524 79.8249 45.3691 80.0714 44.1969C80.756 40.953 83.7039 38.7282 86.9537 39.0268C90.185 39.3255 92.7134 42.0729 92.7943 45.384C92.8127 46.1605 92.8238 46.9407 92.7943 47.7171C92.7759 48.1837 92.8863 48.3554 93.3905 48.3517C96.0588 48.3256 98.7233 48.3218 101.392 48.3517C101.969 48.3592 102.01 48.1203 102.013 47.6462C102.025 46.5002 101.907 45.3504 102.146 44.2082C102.831 40.9605 105.767 38.7357 109.021 39.0268C112.248 39.318 114.784 42.0692 114.873 45.3766C114.891 46.0298 114.928 46.6868 114.865 47.3326C114.792 48.1053 114.968 48.389 115.826 48.3629C118.185 48.2883 120.548 48.3293 122.907 48.3368C126.322 48.348 128.674 50.7296 128.674 54.205C128.677 79.0178 128.677 103.831 128.674 128.644C128.674 132.16 126.315 134.534 122.837 134.534C98.5283 134.534 74.2197 134.534 49.9076 134.534C46.3855 134.534 44.0595 132.156 44.0595 128.561C44.0595 116.187 44.0595 103.812 44.0595 91.4373L44.0522 91.4411ZM86.3574 66.9978C73.7892 66.9978 61.2208 67.0052 48.6526 66.9791C47.8907 66.9791 47.7104 67.1545 47.7104 67.931C47.7362 88.0777 47.7288 108.228 47.7288 128.375C47.7288 130.211 48.3287 130.809 50.1725 130.809C74.297 130.809 98.4215 130.809 122.546 130.809C124.386 130.809 124.986 130.211 124.986 128.371C124.986 108.224 124.982 88.074 125.004 67.9273C125.004 67.1433 124.809 66.9791 124.059 66.9791C111.49 67.0052 98.9221 66.9978 86.3538 66.9978H86.3574ZM86.2691 63.2648C96.7838 63.2648 107.298 63.2648 117.817 63.2648C119.992 63.2648 122.171 63.2461 124.346 63.276C124.865 63.2835 125.008 63.1342 125.004 62.6078C124.979 59.7782 125.004 56.9487 124.986 54.1191C124.979 52.8275 124.257 52.0772 122.995 52.0735C117.416 52.0623 111.836 52.0734 106.257 52.0548C105.745 52.0548 105.668 52.234 105.664 52.6894C105.646 54.4924 106.629 55.5974 108.487 55.8027C109.591 55.9259 110.331 56.7471 110.265 57.7811C110.202 58.7816 109.407 59.5095 108.351 59.5244C108.046 59.5244 107.736 59.502 107.438 59.446C104.2 58.8525 102.05 56.2655 101.991 52.9208C101.984 52.555 102.231 52.0511 101.454 52.0548C95.6907 52.0809 89.9273 52.0735 84.1639 52.0585C83.737 52.0585 83.6009 52.1556 83.5898 52.6185C83.5383 54.4551 84.5283 55.5862 86.4384 55.8064C87.4983 55.9259 88.2234 56.7098 88.1976 57.7102C88.1718 58.7517 87.3622 59.5169 86.2618 59.5281C85.9857 59.5281 85.7097 59.5132 85.4374 59.4647C82.1656 58.9047 79.9795 56.2917 79.9243 52.9022C79.9169 52.5177 80.123 52.0511 79.3648 52.0548C73.6015 52.0846 67.8381 52.0772 62.0747 52.0585C61.6147 52.0585 61.53 52.2004 61.519 52.6371C61.4785 54.4401 62.4869 55.616 64.2902 55.7989C65.387 55.9109 66.1047 56.6351 66.1231 57.6318C66.1378 58.5986 65.4127 59.4274 64.4411 59.5095C64.0805 59.5393 63.7014 59.5132 63.3444 59.4497C60.0689 58.8786 57.8865 56.2805 57.8681 52.876C57.8681 52.2526 57.7577 52.0324 57.0842 52.0473C54.692 52.0921 52.3034 52.0585 49.9112 52.066C48.406 52.0697 47.7398 52.7566 47.7362 54.302C47.7288 56.9748 47.7656 59.6513 47.7141 62.3241C47.6994 63.1006 47.8907 63.2797 48.6562 63.2797C61.1951 63.2536 73.734 63.2611 86.2728 63.2611L86.2691 63.2648ZM64.408 48.3368C65.1625 48.2696 66.4395 48.7399 66.8775 48.1763C67.3412 47.579 67.0174 46.3509 67.0395 45.399C67.0395 45.3355 67.0394 45.2758 67.0284 45.2123C66.8076 43.5064 65.1331 42.3715 63.5505 42.8568C61.795 43.3944 60.989 45.1152 61.5999 47.9261C61.8097 48.893 63.1199 48.1053 63.8928 48.3293C64.0069 48.3629 64.1357 48.333 64.408 48.333V48.3368ZM86.5598 48.3368C87.2628 48.2472 88.5362 48.7474 88.9742 48.1613C89.4305 47.5454 89.103 46.3285 89.114 45.3728C89.114 45.343 89.114 45.3094 89.1103 45.2795C88.9116 43.4168 87.0309 42.2558 85.338 42.9502C83.8143 43.5736 83.0415 45.4624 83.6745 47.9598C83.9137 48.9117 85.1577 48.1128 85.9085 48.333C86.0483 48.3741 86.2102 48.3405 86.5635 48.3405L86.5598 48.3368ZM108.668 48.3368C109.393 48.2621 110.659 48.7325 111.041 48.1688C111.487 47.5155 111.17 46.3285 111.185 45.3766C111.185 45.3467 111.185 45.3131 111.181 45.2832C110.997 43.5288 109.297 42.3603 107.674 42.868C105.922 43.4205 105.083 45.2496 105.749 47.9485C105.974 48.8668 107.28 48.124 108.064 48.3293C108.207 48.3666 108.369 48.333 108.668 48.333V48.3368Z" fill="#DB9099"/>
<path d="M86.409 72.5933C96.6145 72.5933 106.824 72.5933 117.029 72.5933C118.877 72.5933 119.473 73.1868 119.473 75.0271C119.473 90.9444 119.473 106.865 119.473 122.783C119.473 124.582 118.866 125.213 117.118 125.213C96.6108 125.213 76.104 125.213 55.601 125.213C53.8859 125.213 53.2529 124.582 53.2529 122.872C53.2529 106.892 53.2529 90.9108 53.2529 74.9301C53.2529 73.2204 53.886 72.597 55.6083 72.597C65.8764 72.597 76.1446 72.597 86.4126 72.597L86.409 72.5933ZM86.3133 121.48C95.849 121.48 105.381 121.472 114.917 121.499C115.627 121.499 115.815 121.331 115.811 120.595C115.789 106.137 115.789 91.6761 115.811 77.2184C115.811 76.4942 115.642 76.3113 114.92 76.3113C95.8821 76.3337 76.8438 76.3337 57.8055 76.3113C57.0952 76.3113 56.9075 76.4793 56.9112 77.2146C56.9333 91.6723 56.9333 106.134 56.9112 120.591C56.9112 121.316 57.0805 121.502 57.8018 121.499C67.3044 121.472 76.8107 121.48 86.3133 121.48Z" fill="#DB9099"/>
<path d="M69.7812 94.2333C69.9285 90.1159 71.5956 86.8458 75.1987 84.8226C78.7649 82.8217 82.3569 83.027 85.8164 85.1959C86.2581 85.4721 86.5193 85.4273 86.9463 85.166C90.7002 82.8889 94.5204 82.7881 98.1897 85.2406C101.888 87.7119 103.294 91.3739 102.827 95.7787C102.558 98.291 101.576 100.564 100.221 102.662C97.3947 107.052 93.7291 110.546 89.2906 113.241C87.3401 114.425 85.533 114.522 83.5567 113.294C77.8559 109.759 73.226 105.264 70.6498 98.8771C70.0536 97.4026 69.7813 95.8422 69.7849 94.2296L69.7812 94.2333ZM99.2312 94.838C99.2569 91.4784 97.8179 89.0221 95.3742 87.8873C92.7869 86.6853 90.3689 87.0362 88.1718 88.8504C86.5561 90.1868 86.144 90.2017 84.5725 88.8653C80.7854 85.6401 75.0772 87.3946 73.7486 92.2063C73.2334 94.0728 73.4174 95.9243 74.1498 97.6751C76.5052 103.308 80.6308 107.284 85.7906 110.259C86.2065 110.498 86.5819 110.46 86.9904 110.229C91.7601 107.534 95.5214 103.812 98.0755 98.8995C98.8079 97.4922 99.2091 95.9579 99.2312 94.8343V94.838Z" fill="#DB9099"/>
<path d="M53.98 227.8C52.6788 227.8 51.6563 227.094 51.6563 226.177V216.256C51.6563 213.377 49.5557 211.147 45.7634 211.147C41.9711 211.147 39.6474 213.447 39.6474 216.256V226.177C39.6474 227.165 38.625 227.8 37.3237 227.8C36.0224 227.8 35 227.094 35 226.177V209.538C35 208.621 36.0224 207.915 37.3237 207.915C38.625 207.915 39.6474 208.564 39.6474 209.538V210.286C40.7628 209.369 43.2538 207.915 46.5628 207.915C52.2698 207.915 56.2852 211.302 56.2852 215.804V226.163C56.2852 227.151 55.2627 227.786 53.9614 227.786L53.98 227.8Z" fill="#DB9099"/>
<path d="M96.2343 218.655C97.3125 218.655 98.1491 219.361 98.1491 220.207C98.1491 221.054 97.2939 221.76 96.2343 221.76H81.8273V228.604C81.8273 229.522 80.8049 230.227 79.5036 230.227C78.2023 230.227 77.1799 229.522 77.1799 228.604V221.76H62.7729C61.6947 221.76 60.8582 221.054 60.8582 220.207C60.8582 219.361 61.7133 218.655 62.7729 218.655H96.2343ZM64.3344 212.968L74.1869 209.439C75.2094 209.073 76.4549 209.341 76.994 210.117C77.4773 210.865 77.1241 211.881 76.1017 212.248L66.2492 215.776C65.2267 216.143 63.9812 215.875 63.4421 215.099C62.903 214.351 63.312 213.335 64.3344 212.968ZM92.758 215.776L79.8196 211.105C78.2209 210.526 77.1799 209.341 77.1799 207.718V205.248H66.119C65.0408 205.248 64.2043 204.571 64.2043 203.724C64.2043 202.877 65.0594 202.2 66.119 202.2H92.8881C93.9663 202.2 94.8029 202.877 94.8029 203.724C94.8029 204.571 93.9478 205.248 92.8881 205.248H81.8273V207.45C81.8273 208.099 82.0875 208.494 82.7196 208.706L94.6727 212.968C95.6952 213.335 96.1042 214.351 95.5651 215.099C95.026 215.875 93.7804 216.143 92.758 215.776Z" fill="#DB9099"/>
<path d="M107.965 217.498C104.582 217.498 102.611 216.002 102.611 213.433V203.47C102.611 202.552 103.634 201.847 104.935 201.847C106.236 201.847 107.259 202.552 107.259 203.47V213.095C107.259 213.97 107.891 214.449 109.043 214.449H123.803C124.882 214.449 125.718 215.127 125.718 215.974C125.718 216.82 124.863 217.498 123.803 217.498H107.965ZM134.474 227.179C135.552 227.179 136.389 227.856 136.389 228.703C136.389 229.55 135.533 230.227 134.474 230.227H110.921C107.537 230.227 105.567 228.731 105.567 226.163V221.689C105.567 220.772 106.589 220.066 107.891 220.066C109.192 220.066 110.214 220.772 110.214 221.689V225.824C110.214 226.699 110.846 227.179 111.999 227.179H134.492H134.474ZM135.273 221.35C135.273 222.268 134.251 222.973 132.949 222.973C131.648 222.973 130.626 222.268 130.626 221.35V212.643H122.818C121.74 212.643 120.903 211.994 120.903 211.147C120.903 210.3 121.758 209.651 122.818 209.651H130.626V207.21H122.818C121.74 207.21 120.903 206.56 120.903 205.714C120.903 204.867 121.758 204.218 122.818 204.218H130.626V202.623C130.626 201.706 131.648 201 132.949 201C134.251 201 135.273 201.706 135.273 202.623V221.322V221.35Z" fill="#DB9099"/>
</svg>
