<svg width="173" height="231" viewBox="0 0 173 231" fill="none" xmlns="http://www.w3.org/2000/svg">
<circle cx="86.8101" cy="86" r="83.5" stroke="#DB9099" stroke-width="5"/>
<path d="M119.596 66.9004C120.608 67.0684 120.965 67.6806 120.961 68.6773C120.935 72.5633 120.976 76.4492 120.927 80.3352C120.916 81.1416 121.164 81.2871 121.917 81.2834C123.853 81.2685 125.807 81.0632 127.72 81.3991C132.451 82.2316 135.56 85.9944 135.662 90.9443C135.71 93.2736 135.703 95.6067 135.662 97.9398C135.602 101.647 133.719 104.323 130.249 105.645C129.772 105.827 129.66 106.055 129.66 106.518C129.675 111.461 129.682 116.407 129.652 121.349C129.652 121.976 129.892 122.047 130.418 122.04C132.259 122.014 134.105 122.025 135.947 122.032C137.451 122.036 137.886 122.51 137.8 124.022C137.511 129.095 133.216 133.317 128.118 133.541C127.837 133.552 127.555 133.56 127.274 133.56C102.31 133.56 77.3467 133.563 52.3829 133.56C47.3114 133.56 43.279 130.465 42.1086 125.694C41.9548 125.067 41.8723 124.41 41.8385 123.764C41.7748 122.551 42.2587 122.051 43.4853 122.04C45.3909 122.021 47.2964 122.01 49.202 122.047C49.8097 122.058 49.986 121.894 49.9822 121.278C49.956 116.366 49.9597 111.453 49.9822 106.541C49.9822 106.007 49.7947 105.809 49.3183 105.622C46.0286 104.346 44.1755 101.938 44.0217 98.4288C43.8979 95.6067 43.9092 92.7659 44.0555 89.9438C44.2993 85.2851 48.313 81.4178 53.0169 81.3058C57.2332 81.205 61.4532 81.2573 65.6694 81.276C66.2996 81.276 66.5659 81.1901 66.6372 80.4622C67.2674 74.049 70.9623 69.6665 76.2063 66.333C76.5889 66.0903 77.2116 65.9821 77.2829 65.5155C77.4029 64.7241 77.3392 63.9066 77.3242 63.1003C77.3167 62.7718 77.0241 62.8501 76.8253 62.8501C72.8266 62.8464 68.8279 62.8501 64.8292 62.8389C64.4053 62.8389 64.304 62.9845 64.3115 63.3765C64.334 64.4329 64.3228 65.4893 64.319 66.5495C64.3115 67.8 63.8764 68.2517 62.6573 68.2592C60.8755 68.2666 59.0937 68.2704 57.3157 68.2592C56.1791 68.2517 55.7027 67.7963 55.6989 66.6913C55.6877 63.985 55.6764 61.2823 55.6989 58.5759C55.7214 56.1271 57.567 54.3017 60.0427 54.2644C61.6932 54.2382 63.34 54.2606 65.118 54.2606C64.3528 53.1296 63.7789 52.0246 63.5463 50.7591C63.2687 49.2473 63.6326 47.8661 64.2628 46.5185C65.6507 43.562 67.65 41.0236 69.7694 38.5673C70.3358 37.9141 71.1461 37.7909 71.6675 38.377C74.2895 41.3409 76.8553 44.3721 78.0031 48.2581C78.6408 50.4157 77.8756 52.3456 76.5177 54.2569C77.4029 54.2569 78.1869 54.2569 78.9747 54.2569C79.8487 54.2569 80.7227 54.2457 81.6004 54.2569C83.9824 54.298 85.858 55.9255 85.9255 58.2736C86.0305 62.126 85.9668 65.9821 85.9743 69.8382C85.9743 70.5475 85.5616 70.9469 84.9652 71.2717C83.1346 72.2684 81.2591 73.1941 79.5561 74.4073C77.3992 75.9416 75.8162 77.8528 75.3361 80.5406C75.2273 81.149 75.3623 81.276 75.9587 81.276C80.6139 81.2536 85.2691 81.2423 89.9242 81.2834C90.7232 81.2909 90.6707 80.8915 90.6669 80.3614C90.6594 73.2427 90.6557 66.1202 90.6669 59.0015C90.6707 55.9815 92.4149 54.2606 95.4346 54.2569C96.7137 54.2569 97.9966 54.2569 99.2757 54.2569H100.097C99.9247 53.9844 99.8159 53.8089 99.7034 53.6372C98.3079 51.5094 98.0079 49.2697 99.0582 46.9142C100.454 43.7823 102.535 41.1132 104.771 38.5487C105.383 37.8469 106.212 37.8245 106.812 38.5151C109.025 41.0535 111.084 43.7001 112.498 46.7873C113.706 49.4227 113.237 51.8529 111.489 54.2644C113.279 54.2644 114.944 54.2494 116.61 54.2681C118.774 54.2942 120.507 55.7538 120.893 57.8517C121.111 59.0313 120.766 59.5763 119.596 59.9011C118.924 59.7705 118.466 59.4196 118.324 58.714C118.016 57.1947 117.622 56.8849 116.043 56.8849C109.265 56.8849 102.487 56.8849 95.7047 56.8849C93.7953 56.8849 93.3189 57.3552 93.3189 59.2404C93.3189 65.8328 93.3189 72.4214 93.3189 79.0138C93.3189 81.2685 93.319 81.2274 95.6296 81.2797C96.4736 81.2984 96.665 81.0482 96.6612 80.2382C96.6274 74.2057 96.6387 68.1771 96.6424 62.1446C96.6424 60.6029 97.0326 60.2296 98.593 60.2296C103.406 60.2296 108.215 60.2296 113.027 60.2296C114.584 60.2296 114.955 60.6029 114.955 62.1484C114.955 68.2405 114.963 74.3364 114.944 80.4286C114.944 81.0557 115.075 81.3394 115.758 81.2722C116.313 81.2162 116.887 81.2162 117.442 81.2722C118.136 81.3431 118.339 81.1192 118.331 80.4062C118.294 76.4903 118.331 72.5707 118.301 68.6549C118.294 67.7067 118.635 67.102 119.592 66.9041L119.596 66.9004ZM89.8079 122.01H95.8059C105.866 122.01 115.931 121.999 125.991 122.028C126.831 122.028 127.038 121.801 127.015 120.991C126.959 118.814 126.955 116.638 127.015 114.462C127.038 113.618 126.816 113.383 125.946 113.387C112.105 113.417 98.2592 113.409 84.4175 113.405C83.0109 113.405 82.3357 112.969 82.3582 112.08C82.3807 111.173 83.0109 110.774 84.4363 110.774C98.2179 110.774 111.996 110.774 125.777 110.774C125.995 110.774 126.216 110.755 126.434 110.774C126.884 110.818 127.042 110.624 127.03 110.184C127.012 109.127 126.978 108.067 127.042 107.015C127.083 106.309 126.831 106.081 126.149 105.936C122.769 105.234 120.665 103.17 119.791 99.8473C119.524 98.8357 119.652 97.8054 119.599 96.7863C119.521 95.3081 118.526 94.3301 117.172 94.3674C115.863 94.4047 114.952 95.4014 114.925 96.8423C114.91 97.7457 114.944 98.6453 114.91 99.5487C114.772 103.061 112.06 105.936 108.717 106.137C104.962 106.365 101.992 104.028 101.395 100.385C101.189 99.1157 101.358 97.839 101.279 96.5661C101.219 95.5544 100.626 94.7929 99.6846 94.4831C98.7993 94.1919 97.8278 94.4532 97.2126 95.1513C96.7325 95.7 96.6124 96.357 96.6012 97.0588C96.5824 98.2683 96.7362 99.4927 96.4924 100.691C95.7797 104.23 92.6775 106.458 88.9976 106.122C85.6854 105.82 83.1046 102.916 83.0446 99.4293C83.0296 98.4662 83.0896 97.4956 83.0034 96.54C82.8833 95.1774 81.8368 94.3002 80.5464 94.3711C79.3085 94.4383 78.4007 95.4014 78.3632 96.7191C78.337 97.6188 78.3745 98.5221 78.3482 99.4255C78.2507 102.99 75.5499 105.921 72.1814 106.137C68.3852 106.38 65.4106 104.036 64.8179 100.325C64.6191 99.0895 64.7841 97.8427 64.7129 96.5997C64.6454 95.3865 63.7638 94.4682 62.601 94.3711C61.4156 94.274 60.3916 95.0094 60.1365 96.1965C60.039 96.6445 60.0427 97.1223 60.039 97.5852C60.024 102.095 57.6908 104.995 53.2457 105.981C52.7468 106.093 52.5855 106.294 52.6042 106.787C52.638 107.843 52.653 108.903 52.6005 109.956C52.5668 110.632 52.8181 110.785 53.4558 110.777C55.8302 110.744 58.2047 110.766 60.5791 110.762C61.063 110.762 61.5244 110.792 61.8583 111.195C62.1959 111.606 62.3384 112.062 62.1021 112.577C61.817 113.196 61.2994 113.398 60.6542 113.394C58.3435 113.394 56.0291 113.428 53.7184 113.376C52.9006 113.357 52.5855 113.525 52.6155 114.424C52.6868 116.601 52.683 118.777 52.6155 120.953C52.5892 121.831 52.8744 122.017 53.7109 122.014C65.7407 121.987 77.7705 121.995 89.8041 121.995L89.8079 122.01ZM89.8229 83.8778C78.2019 83.8778 66.5809 83.8778 54.96 83.8778C54.3035 83.8778 53.6471 83.8666 52.9944 83.9039C49.7572 84.0831 46.9213 86.7484 46.6925 89.9737C46.4862 92.8555 46.5274 95.756 46.67 98.6416C46.7975 101.206 48.9169 103.297 51.3889 103.517C54.1535 103.763 56.4942 102.18 57.2294 99.6047C57.4995 98.6528 57.387 97.6897 57.417 96.7341C57.5032 93.8896 59.6451 91.7543 62.4134 91.7543C65.1855 91.7543 67.3049 93.9008 67.3537 96.7639C67.3687 97.5702 67.3462 98.3803 67.3574 99.1903C67.3912 101.703 69.1392 103.532 71.5137 103.539C73.9031 103.547 75.6774 101.744 75.7262 99.2426C75.7449 98.3094 75.7112 97.3761 75.7449 96.4466C75.835 94.0016 77.8231 91.941 80.2425 91.7692C82.8421 91.5826 85.0665 93.2624 85.5466 95.7598C85.7829 96.9954 85.6254 98.2422 85.6704 99.4815C85.7529 101.792 87.5197 103.535 89.8079 103.543C92.1036 103.55 93.9041 101.818 93.9679 99.5114C93.9941 98.5483 93.9491 97.5814 93.9867 96.6221C94.0954 93.8336 96.2598 91.7506 98.9981 91.7618C101.729 91.773 103.852 93.9008 103.912 96.7005C103.931 97.5702 103.901 98.44 103.92 99.3135C103.972 101.751 105.754 103.547 108.098 103.547C110.447 103.547 112.221 101.762 112.285 99.321C112.311 98.328 112.266 97.3313 112.311 96.3384C112.423 93.9231 114.494 91.885 116.917 91.773C119.877 91.6349 122.154 93.7925 122.225 96.8087C122.248 97.8315 122.15 98.8581 122.491 99.8548C123.298 102.21 125.751 103.782 128.189 103.491C130.774 103.185 132.826 101.21 132.965 98.6565C133.126 95.7411 133.096 92.8145 132.957 89.8953C132.946 89.6489 132.89 89.4026 132.83 89.1637C132.008 85.9011 129.356 83.8927 125.811 83.889C113.815 83.8815 101.819 83.889 89.8229 83.889V83.8778ZM89.8229 124.638C75.081 124.638 60.3391 124.638 45.5972 124.638C44.4756 124.638 44.4756 124.642 44.8244 125.72C45.8672 128.931 48.7894 130.946 52.4317 130.946C72.4514 130.946 92.4712 130.946 112.495 130.946C117.525 130.946 122.551 130.961 127.582 130.939C130.886 130.924 133.752 128.856 134.791 125.81C135.185 124.656 135.17 124.634 133.959 124.634C119.247 124.634 104.539 124.634 89.8267 124.634L89.8229 124.638ZM112.318 72.0668C112.318 69.2372 112.296 66.4076 112.333 63.5781C112.341 62.9472 112.142 62.824 111.553 62.8277C107.742 62.8539 103.931 62.8539 100.12 62.8277C99.5045 62.824 99.272 62.9211 99.2757 63.6154C99.3057 69.2111 99.3057 74.8068 99.2757 80.4062C99.2757 81.1117 99.467 81.2909 100.165 81.2834C103.946 81.2498 107.727 81.2498 111.504 81.2834C112.161 81.2871 112.341 81.1192 112.33 80.4659C112.292 77.6699 112.315 74.8702 112.315 72.0705L112.318 72.0668ZM70.8647 56.8774C67.3349 56.8774 63.8051 56.87 60.2753 56.8812C59.0787 56.8812 58.3585 57.4859 58.3435 58.5685C58.3097 60.7448 58.3397 62.9211 58.3247 65.0974C58.3247 65.4893 58.4297 65.6573 58.8499 65.6424C59.6001 65.6163 60.3503 65.6013 61.0968 65.6424C61.6332 65.6722 61.7083 65.4259 61.697 64.9816C61.6745 63.9551 61.682 62.9285 61.6895 61.9057C61.697 60.6738 62.1433 60.2259 63.3887 60.2259C68.3552 60.2221 73.3217 60.2221 78.2882 60.2259C79.5261 60.2259 79.9799 60.6701 79.9987 61.9094C80.0175 63.216 79.9687 64.5225 80.0137 65.8253C80.0475 66.7809 79.6799 67.4155 78.8246 67.8411C78.2394 68.1323 77.6918 68.4981 77.1479 68.8564C72.9429 71.6375 69.9082 75.2024 69.2705 80.4062C69.1917 81.037 69.2555 81.3394 69.9832 81.2685C70.5722 81.2125 71.1761 81.2088 71.7613 81.2685C72.4214 81.3394 72.6052 81.0296 72.684 80.4547C73.0929 77.4422 74.6084 75.0569 76.9153 73.1195C78.6221 71.686 80.5689 70.6296 82.5345 69.6105C83.1572 69.2895 83.3447 68.9087 83.3372 68.2368C83.3035 65.1608 83.3259 62.0811 83.3184 59.0052C83.3147 57.4336 82.7483 56.8812 81.1691 56.8774C77.733 56.8774 74.297 56.8774 70.861 56.8774H70.8647ZM70.8347 41.3596C69.2105 43.3978 67.7213 45.3837 66.6297 47.6384C66.1871 48.5567 65.9357 49.4974 66.2021 50.5202C66.671 52.3232 67.7963 53.5476 69.5968 54.0255C71.5137 54.5369 73.1979 54.0031 74.4771 52.4838C75.6774 51.0503 75.9287 49.4526 75.0847 47.7168C73.9744 45.4397 72.489 43.4239 70.8385 41.3596H70.8347ZM105.799 41.3559C104.025 43.6255 102.277 45.8391 101.249 48.5156C101.043 49.0532 100.997 49.6168 101.103 50.1656C101.463 52.103 102.584 53.4506 104.49 53.9993C106.395 54.5518 108.102 54.0404 109.396 52.5435C110.672 51.069 110.897 49.4004 110.008 47.6123C108.894 45.3725 107.431 43.3754 105.803 41.3559H105.799Z" fill="#DB9099"/>
<path d="M72.2902 113.405C71.48 113.405 70.6734 113.428 69.8632 113.398C69.0117 113.368 68.4453 112.831 68.4453 112.11C68.4453 111.322 69.0042 110.792 69.9082 110.781C71.4949 110.763 73.0817 110.766 74.6647 110.781C75.5649 110.792 76.1314 111.326 76.1314 112.11C76.1314 112.831 75.5649 113.368 74.7134 113.402C73.9069 113.432 73.0967 113.409 72.2865 113.409L72.2902 113.405Z" fill="#DB9099"/>
<path d="M38.6032 227.861C37.2647 227.861 36.1865 227.085 36.1865 226.069V205.168H33.1936C31.8551 205.168 31 204.462 31 203.503C31 202.628 31.8551 201.809 33.1936 201.809H38.7333C39.9788 201.809 40.964 202.557 40.964 203.503V226.069C40.964 227.085 39.9416 227.861 38.6032 227.861Z" fill="#DB9099"/>
<path d="M49.8867 210.248C49.8867 204.518 55.4264 201.301 61.4867 201.301C67.5469 201.301 73.0866 204.518 73.0866 210.248V219.026C73.0866 224.756 67.5469 227.974 61.4867 227.974C55.4264 227.974 49.8867 224.756 49.8867 219.026V210.248ZM61.4867 204.631C57.9546 204.631 54.7944 206.353 54.7944 210.361V218.927C54.7944 222.921 57.9546 224.657 61.4867 224.657C65.0187 224.657 68.179 222.935 68.179 218.927V210.361C68.179 206.367 65.0187 204.631 61.4867 204.631Z" fill="#DB9099"/>
<path d="M79.3333 210.248C79.3333 204.518 84.873 201.301 90.9332 201.301C96.9934 201.301 102.533 204.518 102.533 210.248V219.026C102.533 224.756 96.9934 227.974 90.9332 227.974C84.873 227.974 79.3333 224.756 79.3333 219.026V210.248ZM90.9332 204.631C87.4012 204.631 84.2409 206.353 84.2409 210.361V218.927C84.2409 222.921 87.4012 224.657 90.9332 224.657C94.4652 224.657 97.6255 222.935 97.6255 218.927V210.361C97.6255 206.367 94.4652 204.631 90.9332 204.631Z" fill="#DB9099"/>
<path d="M117.609 205.267C115.787 205.267 114.226 204.9 113.148 203.841C112.348 203.065 112.441 201.978 113.464 201.372C114.486 200.765 115.955 200.934 116.68 201.64C117.126 202.077 117.665 202.345 118.502 202.345H121.811C126.718 202.345 130.734 204.984 130.734 208.64C130.734 212.295 126.718 214.934 121.811 214.934H116.996C112.088 214.934 108.073 212.295 108.073 208.64C108.073 207.285 108.612 206.198 109.374 205.281C110.006 204.505 111.382 204.265 112.367 204.702C113.482 205.21 113.668 206.156 113.166 206.904C112.85 207.384 112.627 207.892 112.627 208.626C112.627 210.658 114.412 212.013 117.182 212.013H121.643C124.413 212.013 126.198 210.658 126.198 208.626C126.198 206.593 124.413 205.239 121.643 205.239H117.628L117.609 205.267ZM115.955 230.472C112.962 230.472 110.731 228.75 110.731 226.549C110.731 224.347 112.962 222.625 115.955 222.625H135.771C136.626 222.625 137.24 222.188 137.24 221.539C137.24 220.889 136.608 220.452 135.771 220.452H113.018C111.939 220.452 111.196 219.803 111.196 218.998C111.196 218.194 111.958 217.545 113.018 217.545H136.571C139.564 217.545 141.794 219.238 141.794 221.44C141.794 223.641 139.564 225.335 136.571 225.335H116.754C115.899 225.335 115.286 225.815 115.286 226.45C115.286 227.085 115.918 227.565 116.754 227.565H140.4C141.478 227.565 142.222 228.214 142.222 229.018C142.222 229.823 141.46 230.472 140.4 230.472H115.955ZM141.348 214.892C141.348 215.809 140.326 216.515 139.025 216.515C137.723 216.515 136.701 215.809 136.701 214.892V202.628C136.701 201.71 137.723 201.005 139.025 201.005C140.326 201.005 141.348 201.71 141.348 202.628V214.892Z" fill="#DB9099"/>
</svg>
