<svg width="99" height="99" viewBox="0 0 99 99" fill="none" xmlns="http://www.w3.org/2000/svg">
<path d="M80.0558 29.8976C81.0985 30.0713 81.4654 30.7047 81.4615 31.7358C81.4345 35.7558 81.4769 39.7759 81.4267 43.796C81.4151 44.6301 81.67 44.7807 82.4462 44.7769C84.4389 44.7614 86.4508 44.549 88.4203 44.8966C93.29 45.7577 96.4914 49.6504 96.5956 54.771C96.6459 57.1808 96.6381 59.5944 96.5956 62.008C96.5339 65.8427 94.5953 68.6115 91.0232 69.9786C90.5327 70.1678 90.4169 70.4034 90.4169 70.8823C90.4323 75.9952 90.44 81.112 90.4091 86.225C90.4091 86.8737 90.6563 86.9471 91.1969 86.9394C93.0931 86.9124 94.993 86.924 96.8891 86.9317C98.4377 86.9355 98.8857 87.426 98.7969 88.99C98.4995 94.2381 94.0778 98.6057 88.8297 98.8374C88.5401 98.849 88.2504 98.8567 87.9608 98.8567C62.2609 98.8567 36.561 98.8606 10.8611 98.8567C5.63997 98.8567 1.48859 95.6553 0.283728 90.72C0.125397 90.0713 0.0404497 89.3916 0.00569403 88.7235C-0.0599556 87.4685 0.438215 86.951 1.70101 86.9394C3.66277 86.9201 5.62453 86.9085 7.5863 86.9471C8.2119 86.9587 8.39339 86.7888 8.38953 86.1516C8.36249 81.0695 8.36636 75.9875 8.38953 70.9054C8.38953 70.3532 8.19648 70.1485 7.70604 69.9554C4.31929 68.6347 2.41159 66.1439 2.25326 62.5139C2.12582 59.5944 2.13739 56.6556 2.288 53.7361C2.53901 48.9166 6.67108 44.9159 11.5137 44.8C15.8543 44.6958 20.1988 44.7498 24.5394 44.7691C25.1881 44.7691 25.4623 44.6803 25.5357 43.9273C26.1845 37.2928 29.9883 32.7591 35.387 29.3106C35.7809 29.0596 36.4219 28.9476 36.4953 28.4648C36.6189 27.6462 36.5532 26.8004 36.5378 25.9663C36.5301 25.6265 36.2289 25.7076 36.0242 25.7076C31.9076 25.7037 27.791 25.7076 23.6743 25.696C23.238 25.696 23.1337 25.8466 23.1414 26.2521C23.1646 27.345 23.153 28.4378 23.1492 29.5346C23.1414 30.8282 22.6934 31.2955 21.4384 31.3032C19.604 31.311 17.7697 31.3148 15.9393 31.3032C14.7691 31.2955 14.2787 30.8244 14.2748 29.6813C14.2632 26.8815 14.2517 24.0856 14.2748 21.2859C14.298 18.7526 16.198 16.8642 18.7468 16.8256C20.4459 16.7985 22.1412 16.8217 23.9717 16.8217C23.1839 15.6516 22.593 14.5085 22.3536 13.1994C22.0678 11.6354 22.4424 10.2065 23.0912 8.81245C24.5201 5.75395 26.5783 3.12794 28.7602 0.586912C29.3434 -0.0888932 30.1775 -0.216335 30.7143 0.389959C33.4137 3.45618 36.0551 6.59193 37.2368 10.612C37.8933 12.8441 37.1055 14.8406 35.7075 16.8178C36.6189 16.8178 37.426 16.8178 38.237 16.8178C39.1368 16.8178 40.0365 16.8063 40.9402 16.8178C43.3924 16.8603 45.3233 18.544 45.3928 20.9731C45.5009 24.9584 45.4353 28.9476 45.443 32.9368C45.443 33.6705 45.0182 34.0837 44.4042 34.4197C42.5196 35.4508 40.5888 36.4085 38.8356 37.6635C36.6151 39.2507 34.9854 41.2279 34.4911 44.0084C34.3791 44.6378 34.5181 44.7691 35.1321 44.7691C39.9245 44.746 44.717 44.7344 49.5094 44.7769C50.332 44.7846 50.2779 44.3714 50.274 43.823C50.2663 36.4587 50.2625 29.0904 50.274 21.7261C50.2779 18.6019 52.0736 16.8217 55.1823 16.8178C56.4992 16.8178 57.8199 16.8178 59.1367 16.8178H59.9825C59.8048 16.5359 59.6928 16.3544 59.577 16.1768C58.1404 13.9756 57.8315 11.6586 58.9128 9.22179C60.3493 5.98179 62.4926 3.22063 64.7942 0.567608C65.4237 -0.1584 66.2771 -0.181557 66.895 0.532866C69.1734 3.15885 71.2935 5.89682 72.7494 9.09048C73.9929 11.8169 73.5102 14.3309 71.7106 16.8256C73.5526 16.8256 75.2672 16.8101 76.9818 16.8294C79.2101 16.8564 80.9942 18.3664 81.392 20.5367C81.6159 21.757 81.2607 22.3208 80.0558 22.6568C79.3646 22.5216 78.8934 22.1586 78.7467 21.4288C78.43 19.857 78.0245 19.5365 76.3988 19.5365C69.4206 19.5365 62.4424 19.5365 55.4603 19.5365C53.4947 19.5365 53.0043 20.0231 53.0043 21.9733C53.0043 28.7931 53.0043 35.6091 53.0043 42.4289C53.0043 44.7614 53.0043 44.7189 55.3831 44.773C56.252 44.7923 56.449 44.5336 56.4451 43.6956C56.4103 37.455 56.4219 31.2183 56.4258 24.9777C56.4258 23.3828 56.8274 22.9966 58.4339 22.9966C63.3885 22.9966 68.3393 22.9966 73.2939 22.9966C74.8965 22.9966 75.2788 23.3828 75.2788 24.9816C75.2788 31.2839 75.2866 37.5902 75.2672 43.8925C75.2672 44.5413 75.4024 44.8348 76.1053 44.7653C76.6768 44.7074 77.2676 44.7074 77.8392 44.7653C78.5536 44.8387 78.7621 44.6069 78.7544 43.8694C78.7158 39.8184 78.7544 35.7636 78.7235 31.7126C78.7158 30.7317 79.0672 30.1061 80.0519 29.9014L80.0558 29.8976ZM49.3897 86.9085H55.5646C65.9218 86.9085 76.2829 86.8969 86.6401 86.9278C87.5051 86.9278 87.7175 86.6923 87.6944 85.8543C87.6364 83.6029 87.6326 81.3514 87.6944 79.1C87.7175 78.2273 87.4896 77.984 86.5937 77.9879C72.3439 78.0188 58.0902 78.011 43.8404 78.0072C42.3922 78.0072 41.6971 77.5553 41.7203 76.6362C41.7434 75.6978 42.3922 75.2846 43.8597 75.2846C58.0477 75.2846 72.2319 75.2846 86.42 75.2846C86.6439 75.2846 86.8718 75.2653 87.0958 75.2846C87.5592 75.331 87.7214 75.1302 87.7098 74.6745C87.6905 73.5816 87.6557 72.4849 87.7214 71.3959C87.7638 70.666 87.5051 70.4304 86.8023 70.2798C83.3228 69.5538 81.1564 67.4183 80.2566 63.9813C79.9824 62.9348 80.1137 61.8689 80.0597 60.8147C79.9786 59.2854 78.9552 58.2737 77.5611 58.3123C76.2133 58.3509 75.2749 59.382 75.2479 60.8726C75.2325 61.8072 75.2673 62.7378 75.2325 63.6724C75.0896 67.3063 72.2976 70.2798 68.8568 70.4884C64.9911 70.7239 61.9326 68.3065 61.3186 64.5374C61.1062 63.2244 61.28 61.9037 61.1989 60.5868C61.1371 59.5403 60.5269 58.7525 59.5576 58.432C58.6463 58.1308 57.6461 58.4011 57.0128 59.1232C56.5185 59.6909 56.3949 60.3706 56.3833 61.0966C56.364 62.3478 56.5223 63.6145 56.2713 64.8541C55.5376 68.515 52.3439 70.8205 48.5555 70.4729C45.1456 70.1601 42.4887 67.1557 42.427 63.5488C42.4115 62.5525 42.4733 61.5484 42.3845 60.5598C42.2609 59.1503 41.1835 58.2428 39.8551 58.3161C38.5807 58.3856 37.6461 59.382 37.6075 60.7452C37.5805 61.6759 37.6191 62.6104 37.592 63.5449C37.4916 67.2329 34.7112 70.2644 31.2434 70.4884C27.3353 70.7394 24.2729 68.3142 23.6627 64.4756C23.4581 63.1974 23.628 61.9076 23.5546 60.6216C23.4851 59.3665 22.5776 58.4165 21.3804 58.3161C20.1601 58.2157 19.1059 58.9765 18.8433 60.2045C18.7429 60.6679 18.7467 61.1623 18.7429 61.6411C18.7274 66.3061 16.3254 69.3067 11.7493 70.3262C11.2357 70.442 11.0696 70.6505 11.0889 71.1603C11.1236 72.2532 11.1391 73.3499 11.0851 74.4389C11.0503 75.1379 11.309 75.2962 11.9655 75.2885C14.41 75.2537 16.8545 75.2769 19.299 75.2731C19.7971 75.2731 20.2721 75.3039 20.6158 75.721C20.9634 76.1458 21.1101 76.6169 20.8668 77.1499C20.5734 77.7909 20.0404 77.9995 19.3762 77.9956C16.9974 77.9956 14.6147 78.0303 12.2359 77.9763C11.394 77.957 11.0696 78.1308 11.1005 79.0614C11.1739 81.3128 11.17 83.5642 11.1005 85.8156C11.0734 86.7231 11.367 86.9162 12.2281 86.9124C24.6127 86.8853 36.9973 86.893 49.3858 86.893L49.3897 86.9085ZM49.4052 47.4608C37.4415 47.4608 25.4778 47.4608 13.5141 47.4608C12.8383 47.4608 12.1625 47.4492 11.4905 47.4878C8.15783 47.6732 5.23838 50.4305 5.00282 53.767C4.79042 56.7483 4.83288 59.7488 4.97962 62.734C5.11092 65.387 7.29279 67.5496 9.83768 67.7774C12.6838 68.0323 15.0935 66.3949 15.8504 63.7303C16.1285 62.7456 16.0126 61.7492 16.0435 60.7606C16.1324 57.818 18.3374 55.6091 21.1874 55.6091C24.0412 55.6091 26.2231 57.8296 26.2733 60.7915C26.2887 61.6257 26.2656 62.4637 26.2772 63.3017C26.3119 65.9006 28.1115 67.7929 30.556 67.8006C33.0159 67.8083 34.8425 65.9431 34.8927 63.3557C34.912 62.3903 34.8773 61.4249 34.912 60.4633C35.0047 57.9338 37.0514 55.8021 39.5422 55.6245C42.2184 55.4314 44.5084 57.1692 45.0028 59.7527C45.246 61.0309 45.0838 62.3208 45.1302 63.6029C45.2151 65.9933 47.034 67.7967 49.3897 67.8044C51.7531 67.8122 53.6067 66.0203 53.6723 63.6338C53.6994 62.6374 53.6531 61.6372 53.6917 60.6448C53.8037 57.76 56.0319 55.6052 58.851 55.6168C61.6623 55.6284 63.848 57.8296 63.9098 60.7259C63.9291 61.6257 63.8983 62.5254 63.9176 63.4291C63.9716 65.9508 65.806 67.8083 68.2196 67.8083C70.637 67.8083 72.4636 65.9624 72.5293 63.4368C72.5563 62.4096 72.5099 61.3785 72.5563 60.3513C72.6721 57.8527 74.8038 55.7442 77.2985 55.6284C80.3454 55.4855 82.6895 57.7176 82.7629 60.8379C82.7861 61.896 82.6857 62.9579 83.0371 63.989C83.8673 66.4258 86.3929 68.0516 88.903 67.7504C91.5638 67.4337 93.6762 65.3909 93.8191 62.7494C93.9851 59.7334 93.9542 56.7058 93.8113 53.6859C93.7998 53.431 93.7418 53.1762 93.6801 52.929C92.8343 49.5538 90.104 47.4762 86.4547 47.4724C74.1048 47.4646 61.755 47.4724 49.4052 47.4724V47.4608ZM49.4052 89.6272C34.2285 89.6272 19.0518 89.6272 3.87517 89.6272C2.72051 89.6272 2.72049 89.631 3.07963 90.7471C4.15319 94.0682 7.1615 96.1535 10.9113 96.1535C31.5214 96.1535 52.1315 96.1535 72.7455 96.1535C77.9241 96.1535 83.0988 96.169 88.2774 96.1458C91.6796 96.1303 94.63 93.9909 95.6997 90.8398C96.1052 89.6465 96.0897 89.6233 94.8424 89.6233C79.6966 89.6233 64.5548 89.6233 49.409 89.6233L49.4052 89.6272ZM72.564 35.2422C72.564 32.315 72.5409 29.3878 72.5795 26.4606C72.5872 25.808 72.3825 25.6805 71.7762 25.6844C67.8527 25.7114 63.9291 25.7114 60.0056 25.6844C59.3723 25.6805 59.1329 25.781 59.1367 26.4992C59.1676 32.288 59.1676 38.0767 59.1367 43.8694C59.1367 44.5992 59.3337 44.7846 60.052 44.7769C63.9446 44.7421 67.8372 44.7421 71.726 44.7769C72.4018 44.7807 72.5872 44.6069 72.5756 43.9311C72.537 41.0387 72.5602 38.1424 72.5602 35.2461L72.564 35.2422ZM29.8879 19.5288C26.254 19.5288 22.6201 19.521 18.9862 19.5326C17.7543 19.5326 17.0128 20.1582 16.9974 21.2781C16.9626 23.5295 16.9935 25.7809 16.978 28.0323C16.978 28.4378 17.0862 28.6116 17.5187 28.5962C18.291 28.5691 19.0634 28.5537 19.8319 28.5962C20.3841 28.6271 20.4614 28.3722 20.4498 27.9126C20.4266 26.8506 20.4343 25.7887 20.4421 24.7305C20.4498 23.4562 20.9093 22.9928 22.1914 22.9928C27.3043 22.9889 32.4173 22.9889 37.5303 22.9928C38.8047 22.9928 39.2719 23.4523 39.2912 24.7344C39.3105 26.086 39.2603 27.4376 39.3067 28.7854C39.3414 29.774 38.963 30.4305 38.0825 30.8707C37.4801 31.1719 36.9163 31.5504 36.3563 31.9211C32.0273 34.7981 28.9031 38.4861 28.2466 43.8694C28.1655 44.522 28.2312 44.8348 28.9804 44.7614C29.5867 44.7035 30.2084 44.6996 30.8108 44.7614C31.4905 44.8348 31.6797 44.5143 31.7608 43.9196C32.1817 40.8031 33.7419 38.3355 36.1169 36.3312C37.874 34.8483 39.8782 33.7555 41.9018 32.7012C42.5428 32.3691 42.7359 31.9752 42.7282 31.2801C42.6934 28.098 42.7166 24.912 42.7089 21.73C42.705 20.1042 42.1219 19.5326 40.4961 19.5288C36.9587 19.5288 33.4214 19.5288 29.884 19.5288H29.8879ZM29.857 3.47551C28.1849 5.58403 26.6517 7.63848 25.528 9.97097C25.0723 10.921 24.8135 11.8941 25.0877 12.9522C25.5704 14.8174 26.729 16.0841 28.5826 16.5784C30.556 17.1075 32.2899 16.5552 33.6067 14.9835C34.8425 13.5006 35.1012 11.8478 34.2323 10.0521C33.0893 7.69639 31.56 5.61106 29.8609 3.47551H29.857ZM65.8523 3.47165C64.0257 5.81959 62.2261 8.1096 61.168 10.8785C60.9556 11.4346 60.9093 12.0177 61.0174 12.5854C61.3881 14.5896 62.5428 15.9837 64.5046 16.5514C66.4663 17.1229 68.2234 16.5938 69.5557 15.0453C70.8687 13.5199 71.1004 11.7937 70.1852 9.94394C69.0382 7.62689 67.5322 5.56085 65.8562 3.47165H65.8523Z" fill="#0D3F39"/>
<path d="M31.3554 78.0072C30.5212 78.0072 29.6909 78.0304 28.8568 77.9995C27.9802 77.9686 27.3971 77.4125 27.3971 76.6672C27.3971 75.8523 27.9725 75.304 28.9031 75.2924C30.5367 75.2731 32.1702 75.2769 33.7999 75.2924C34.7267 75.304 35.3098 75.8562 35.3098 76.6672C35.3098 77.4125 34.7267 77.9686 33.8501 78.0033C33.0198 78.0342 32.1857 78.011 31.3515 78.011L31.3554 78.0072Z" fill="#0D3F39"/>
</svg>
