<svg width="203" height="256" viewBox="0 0 203 256" fill="none" xmlns="http://www.w3.org/2000/svg">
<path d="M173.5 87.5C173.5 134.431 135.234 172.5 88 172.5C40.7662 172.5 2.5 134.431 2.5 87.5C2.5 40.5692 40.7662 2.5 88 2.5C135.234 2.5 173.5 40.5692 173.5 87.5Z" stroke="#DB9099" stroke-width="5"/>
<path d="M90.2939 88.6247C88.6603 87.015 87.3027 85.4775 86.2367 83.7121C84.0432 80.0865 83.307 76.2787 84.7872 72.2014C84.8946 71.9053 85.0135 71.6091 85.1745 71.3396C85.604 70.6334 86.2789 70.4474 86.9922 70.7739C87.7016 71.0966 88.0659 71.7268 87.7438 72.4975C85.8686 76.9659 87.3373 80.7547 90.1597 84.2664C91.337 85.7318 92.7175 86.9998 94.167 88.1995C94.5313 88.5032 94.8994 88.6323 95.3788 88.6323C98.9566 88.6171 102.534 88.6247 106.112 88.6209C106.427 88.6209 106.737 88.6475 107.017 88.4159C109.805 86.1494 112.325 83.659 113.74 80.2916C114.737 77.9226 114.852 75.5118 113.935 73.0897C112.16 68.3822 106.155 68.0785 103.267 70.7663C102.719 71.275 102.35 71.8939 102.086 72.581C101.844 73.2112 101.38 73.5605 100.705 73.5529C100.069 73.5491 99.6507 73.1884 99.3784 72.6266C97.9787 69.7489 94.9224 68.4391 91.6974 69.3237C90.2785 69.7147 89.4924 69.468 89.2355 68.553C88.967 67.5963 89.55 66.8902 90.9957 66.5561C94.493 65.7475 97.6452 66.3929 100.314 68.8605C100.652 69.1718 100.79 69.1756 101.135 68.8605C104.218 66.055 107.792 65.4589 111.608 66.9661C115.427 68.4771 117.087 71.6205 117.387 75.5194C117.736 80.1017 115.626 83.7501 112.693 87.0454C112.259 87.5351 111.792 87.9945 111.316 88.4956C111.696 88.7196 112.049 88.6171 112.382 88.6171C117.877 88.6247 123.369 88.6209 128.864 88.6247C130.597 88.6247 131 89.0271 131 90.7507C131 104.285 131 117.823 131 131.357C131 134.504 129.282 136.194 126.076 136.194C107.646 136.194 89.2125 136.194 70.7826 136.194C67.5116 136.194 65.828 134.523 65.828 131.296C65.828 121.27 65.828 111.248 65.828 101.157C65.4944 101.309 65.5174 101.605 65.4522 101.836C63.7879 107.793 62.1313 113.749 60.4709 119.71C60.4018 119.953 60.352 120.203 60.2599 120.439C59.957 121.198 59.2246 121.57 58.4922 121.354C57.7636 121.141 57.3226 120.431 57.5296 119.638C58.0742 117.561 58.6187 115.484 59.2591 113.438C59.5237 112.595 59.3128 112.311 58.4883 112.117C56.663 111.684 54.853 111.175 53.0507 110.655C52.4294 110.477 52.1302 110.503 51.9308 111.232C50.1784 117.656 48.3914 124.068 46.5852 130.476C46.3935 131.16 46.4548 131.505 47.2371 131.695C49.0931 132.147 50.9377 132.648 52.763 133.206C53.484 133.426 53.7485 133.202 53.9249 132.564C54.5538 130.249 55.2019 127.94 55.85 125.632C56.1682 124.493 56.8432 124.007 57.7406 124.25C58.5996 124.482 58.914 125.272 58.5957 126.422C57.9438 128.795 57.2957 131.167 56.6284 133.54C56.0571 135.575 54.343 136.558 52.2914 136.015C50.2283 135.473 48.169 134.918 46.1212 134.326C44.108 133.745 43.1876 132.075 43.7283 130.055C44.1271 128.563 44.4991 127.056 44.9785 125.59C45.22 124.846 45.1165 124.588 44.3035 124.417C41.9298 123.916 39.6366 123.149 37.5045 121.972C36.2659 121.289 35.1346 120.473 34.2526 119.364C32.5116 117.185 32.4119 114.949 33.9611 112.626C35.3647 110.519 37.3779 109.072 39.4641 107.705C39.9166 107.409 40.3499 107.056 40.8484 106.863C42.4398 106.248 43.2758 105.154 43.5327 103.465C43.7321 102.163 44.1885 100.899 44.5796 99.6343C44.7215 99.1712 44.6563 98.8219 44.4071 98.4081C42.9805 96.0467 41.7304 93.6018 41.0286 90.9215C39.6749 85.766 42.1599 82.4935 47.5669 82.3226C50.3778 82.2353 53.0852 82.8465 55.7312 83.6931C56.4329 83.9171 56.6553 83.7956 56.8202 83.1161C57.1806 81.6127 57.6102 80.1283 58.032 78.6401C58.6379 76.4989 60.352 75.5384 62.5187 76.1231C64.4859 76.6546 66.4531 77.1823 68.4127 77.7403C70.6023 78.3668 71.5304 80.0182 70.936 82.186C70.4106 84.1032 69.8623 86.0128 69.3254 87.9299C69.2218 88.3058 69.0914 88.6437 69.7587 88.6437C76.5309 88.6247 83.2993 88.6323 90.3131 88.6323L90.2939 88.6247ZM95.6779 112.436C95.6779 119.076 95.6971 125.716 95.6549 132.356C95.6472 133.233 95.9118 133.407 96.7133 133.358C97.8599 133.29 99.0141 133.29 100.161 133.358C100.943 133.407 101.165 133.206 101.162 132.397C101.123 125.347 101.139 118.294 101.142 111.244C101.142 110.868 101.108 110.488 101.246 110.116C101.499 109.429 102.013 109.091 102.719 109.152C103.417 109.213 103.903 109.611 103.995 110.348C104.038 110.689 104.026 111.043 104.026 111.388C104.026 118.408 104.038 125.427 104.015 132.447C104.015 133.111 104.118 133.366 104.881 133.362C112.003 133.328 119.127 133.343 126.249 133.339C127.645 133.339 128.124 132.849 128.124 131.441C128.124 118.411 128.12 105.386 128.139 92.3566C128.139 91.6694 128.009 91.453 127.265 91.4568C119.822 91.4872 112.382 91.491 104.939 91.4568C104.134 91.4568 104.007 91.7226 104.015 92.4287C104.045 96.3504 104.03 100.272 104.026 104.19C104.026 104.505 104.041 104.828 103.984 105.135C103.854 105.8 103.424 106.183 102.738 106.244C102.059 106.305 101.564 106.02 101.284 105.393C101.123 105.037 101.142 104.653 101.142 104.274C101.142 100.321 101.127 96.3694 101.158 92.4173C101.162 91.7112 101.031 91.4075 100.234 91.4568C99.0256 91.5289 97.8023 91.5289 96.5944 91.4568C95.7929 91.4075 95.6664 91.7112 95.6664 92.4211C95.6894 99.0914 95.6817 105.766 95.6817 112.436H95.6779ZM92.7941 112.375C92.7941 105.735 92.7827 99.0952 92.8133 92.4591C92.8133 91.6846 92.6369 91.453 91.8239 91.4568C84.4458 91.491 77.0716 91.4872 69.6935 91.4568C68.9151 91.4568 68.6849 91.6125 68.6888 92.4249C68.7156 105.386 68.7079 118.351 68.7079 131.312C68.7079 132.91 69.1375 133.343 70.7327 133.343C77.758 133.343 84.7833 133.331 91.8086 133.362C92.587 133.362 92.821 133.202 92.8172 132.394C92.7788 125.723 92.798 119.053 92.798 112.383L92.7941 112.375ZM61.5753 78.8223C60.9809 78.7046 60.885 79.1147 60.7662 79.5285C58.9523 86.0317 57.1423 92.5312 55.3131 99.0307C55.1712 99.5394 55.3055 99.7368 55.8117 99.8697C57.7521 100.375 59.6886 100.883 61.606 101.464C62.3154 101.681 62.5646 101.536 62.7525 100.83C63.7342 97.1742 64.7697 93.5335 65.7859 89.8889C66.549 87.1555 67.3159 84.422 68.0599 81.681C68.1749 81.2596 68.4663 80.7205 67.7339 80.5155C65.6823 79.9423 63.6231 79.3804 61.5715 78.8147L61.5753 78.8223ZM43.5481 88.4273C43.5673 88.6589 43.5596 88.9816 43.6209 89.2891C44.1846 92.1819 45.5191 94.7559 47.0415 97.2502C47.1911 97.4931 47.4097 97.5842 47.6589 97.6488C49.0395 98.0246 50.4238 98.3891 51.7967 98.7839C52.2223 98.9054 52.4179 98.8181 52.5406 98.3777C53.5606 94.6686 54.5961 90.9633 55.6391 87.258C55.7618 86.8252 55.6391 86.6316 55.2173 86.5025C53.9671 86.1266 52.7169 85.7546 51.4323 85.523C49.4766 85.1737 47.5171 84.8928 45.5652 85.5306C44.0428 86.0279 43.5136 86.791 43.5404 88.4235L43.5481 88.4273ZM35.7443 115.799C35.7366 116.259 35.9207 116.661 36.1393 117.049C36.5726 117.808 37.2092 118.389 37.9263 118.871C40.208 120.401 42.8003 121.152 45.4424 121.783C46.0062 121.916 46.0636 121.6 46.1749 121.209C47.1796 117.561 48.1804 113.909 49.2273 110.272C49.373 109.767 49.2542 109.615 48.7979 109.494C47.4135 109.133 46.033 108.746 44.6525 108.362C44.43 108.302 44.2192 108.26 44.0044 108.377C41.2549 109.866 38.5475 111.418 36.5649 113.913C36.1316 114.459 35.7942 115.074 35.7481 115.799H35.7443ZM54.5998 102.482C54.2547 102.417 54.3084 102.778 54.2509 102.971C53.8444 104.365 53.4878 105.773 53.0545 107.155C52.8934 107.668 53.1619 107.747 53.5223 107.842C55.5816 108.396 57.6408 108.939 59.6886 109.528C60.1372 109.657 60.3175 109.581 60.4364 109.148C60.8046 107.778 61.1842 106.411 61.5792 105.044C61.7096 104.596 61.6289 104.38 61.1151 104.251C59.5083 103.856 57.9207 103.397 56.3255 102.96C55.7733 102.808 55.2211 102.652 54.5998 102.478V102.482ZM51.5052 102.03C51.6164 101.586 51.2982 101.582 51.1294 101.533C49.9982 101.206 48.8515 100.933 47.728 100.595C47.2908 100.466 47.2563 100.697 47.1758 100.99C46.7808 102.421 46.3858 103.848 45.9716 105.272C45.8719 105.617 45.9218 105.769 46.3091 105.864C47.4212 106.138 48.5179 106.464 49.6223 106.764C49.8639 106.829 50.1439 106.946 50.2474 106.582C50.6807 105.033 51.1064 103.48 51.5052 102.026V102.03Z" fill="#DB9099"/>
<path d="M104.214 44.533C104.226 47.2322 103.236 49.0355 101.844 50.6566C100.149 52.6307 98.044 54.1 95.7584 55.33C95.2216 55.6185 94.677 55.6565 94.1171 55.3604C91.4213 53.9253 88.9786 52.1828 87.1878 49.6771C85.7382 47.646 85.1246 45.4251 85.8724 42.965C86.9576 39.3964 91.0455 37.9158 94.2935 39.9051C94.6425 40.1177 94.8726 40.3265 95.3519 40.019C97.3 38.7624 99.3631 38.6523 101.407 39.7761C103.462 40.9074 104.157 42.8094 104.21 44.5292L104.214 44.533ZM101.327 45.0113C101.334 43.4244 100.648 42.3652 99.3784 42.0008C98.0669 41.6249 97.0086 42.1033 96.1534 43.4624C95.4862 44.5216 94.2015 44.4381 93.5688 43.2953C92.9898 42.2513 92.0848 41.7768 90.896 41.8983C89.7916 42.0121 88.9747 42.6955 88.6372 43.7889C88.1809 45.2695 88.6066 46.5944 89.4196 47.8245C90.708 49.7682 92.5449 51.1198 94.5121 52.3194C94.7882 52.4865 94.9953 52.5016 95.2868 52.327C97.1198 51.2147 98.8263 49.958 100.115 48.2231C100.82 47.2702 101.342 46.2338 101.33 45.0075L101.327 45.0113Z" fill="#DB9099"/>
<path d="M127.756 53.0561C127.733 55.4365 126.805 57.198 125.451 58.7735C123.794 60.6983 121.762 62.1447 119.518 63.3292C118.974 63.6177 118.433 63.6481 117.881 63.352C115.266 61.9663 112.907 60.2693 111.17 57.8434C109.801 55.93 109.191 53.8306 109.836 51.4958C110.833 47.893 114.806 46.3516 118.073 48.303C118.422 48.5118 118.66 48.7054 119.135 48.4017C121.037 47.1982 123.054 47.1147 125.021 48.2081C127 49.3052 127.675 51.1655 127.752 53.0599L127.756 53.0561ZM124.86 53.618C124.853 51.8299 124.139 50.7327 123.035 50.4328C121.704 50.0721 120.723 50.5011 119.933 51.7881C119.269 52.8701 117.992 52.8207 117.348 51.6818C116.738 50.6036 115.898 50.1974 114.652 50.372C113.544 50.5315 112.838 51.2338 112.57 52.4183C112.267 53.7471 112.67 54.9239 113.394 56.0059C114.637 57.8662 116.393 59.1683 118.284 60.3187C118.571 60.4933 118.778 60.4819 119.062 60.3111C120.842 59.2253 122.494 58.0028 123.729 56.302C124.392 55.3909 124.845 54.3962 124.857 53.6142L124.86 53.618Z" fill="#DB9099"/>
<path d="M83.5255 61.0739C83.5255 63.625 82.5745 65.379 81.2208 66.9469C79.5872 68.8451 77.5739 70.2726 75.3728 71.4571C74.8014 71.7646 74.2338 71.8139 73.6433 71.4988C71.0932 70.1359 68.7885 68.4731 67.0552 66.1345C65.5366 64.0882 64.9384 61.8255 65.7053 59.3503C66.7484 55.9942 70.6981 54.5706 73.7928 56.427C74.299 56.7307 74.5981 56.7383 75.1119 56.4384C76.9871 55.3412 78.9506 55.3071 80.8373 56.3739C82.8046 57.4862 83.4871 59.3389 83.5217 61.0739H83.5255ZM80.6341 61.4269C80.6341 59.9843 79.9515 58.9061 78.8471 58.5948C77.5279 58.2227 76.5807 58.6517 75.6987 60.0146C75.0353 61.0397 73.7008 60.941 73.1179 59.7755C72.6194 58.7732 71.7681 58.4809 70.7595 58.4999C69.705 58.5188 68.9265 59.0352 68.5469 60.0184C67.9832 61.4649 68.3168 62.8202 69.1298 64.073C70.3684 65.9788 72.1438 67.3038 74.0651 68.4655C74.3335 68.6287 74.5483 68.6743 74.8435 68.4882C76.6957 67.3417 78.4329 66.0737 79.6754 64.2477C80.2544 63.3935 80.6532 62.4785 80.6379 61.4269H80.6341Z" fill="#DB9099"/>
<path d="M10.8556 231.581C9.84387 231.581 9.05894 230.919 9.05894 230.125C9.05894 229.33 9.86131 228.668 10.8556 228.668H26.9728C28.1938 228.668 29.1531 229.396 29.1531 230.323V238.269C29.1531 246.717 20.8678 252.822 10.4369 252.822H10.0183C9.00661 252.822 8.22168 252.16 8.22168 251.365C8.22168 250.571 9.02405 249.908 10.0183 249.908H10.4369C17.9374 249.908 24.7924 245.459 24.7924 238.282V231.608H10.8556V231.581ZM39.7061 239.076H42.8458C43.8575 239.076 44.6424 239.739 44.6424 240.533C44.6424 241.328 43.8401 241.99 42.8458 241.99H39.7061V253.113C39.7061 253.974 38.7467 254.636 37.5257 254.636C36.3047 254.636 35.3454 253.974 35.3454 253.113V228.761C35.3454 227.9 36.3047 227.238 37.5257 227.238C38.7467 227.238 39.7061 227.9 39.7061 228.761V239.063V239.076Z" fill="#DB9099"/>
<path d="M62.9749 240.44H54.5151C53.5907 240.44 52.8755 239.805 52.8755 239.037C52.8755 238.269 53.5907 237.633 54.5151 237.633H62.9749V229.847C62.9749 228.986 63.8994 228.324 65.103 228.324C66.3065 228.324 67.231 228.986 67.231 229.847V250.822C67.231 251.749 66.2716 252.478 65.0506 252.478H52.579C49.4044 252.478 47.5554 251.074 47.5554 248.664V229.847C47.5554 228.986 48.4799 228.324 49.6835 228.324C50.887 228.324 51.8115 228.986 51.8115 229.847V248.346C51.8115 249.167 52.4045 249.617 53.486 249.617H62.94V240.427L62.9749 240.44ZM78.22 253.126C78.22 253.987 77.2607 254.649 76.0397 254.649C74.8187 254.649 73.8593 253.987 73.8593 253.126V247.062H70.2137C69.2021 247.062 68.4171 246.426 68.4171 245.631C68.4171 244.837 69.2195 244.201 70.2137 244.201H73.8593V236.322H70.2137C69.2021 236.322 68.4171 235.687 68.4171 234.892C68.4171 234.098 69.2195 233.462 70.2137 233.462H73.8593V228.787C73.8593 227.927 74.8187 227.265 76.0397 227.265C77.2607 227.265 78.22 227.927 78.22 228.787V253.14V253.126Z" fill="#DB9099"/>
<path d="M103.844 243.844V247.525C103.844 248.386 102.884 249.048 101.663 249.048C100.442 249.048 99.483 248.386 99.483 247.525V243.844H85.5461C84.5344 243.844 83.7495 243.208 83.7495 242.414C83.7495 241.619 84.5519 240.984 85.5461 240.984H116.943C117.955 240.984 118.74 241.619 118.74 242.414C118.74 243.208 117.938 243.844 116.943 243.844H103.844ZM91.4593 229.794C92.1744 230.363 92.1744 231.251 91.4593 231.926C91.1627 232.217 90.9534 232.694 90.9534 233.224C90.9534 234.588 92.1221 235.382 94.3025 235.382H108.204C110.385 235.382 111.553 234.588 111.553 233.224C111.553 231.86 110.385 231.065 108.204 231.065H96.8666C95.07 231.065 93.1861 230.562 92.3488 229.225C91.7209 228.179 92.8024 227 94.442 227C95.07 227 95.7328 227.185 96.0816 227.636C96.4654 228.112 97.041 228.271 97.7213 228.271H108.641C112.74 228.271 115.844 230.271 115.844 233.224C115.844 236.177 112.74 238.176 108.641 238.176H93.9013C89.8022 238.176 86.6974 236.177 86.6974 233.224C86.6974 231.86 87.4125 230.589 88.6161 229.728C89.3661 229.185 90.7092 229.185 91.4593 229.794ZM114.658 251.922C115.67 251.922 116.455 252.557 116.455 253.352C116.455 254.146 115.653 254.782 114.658 254.782H92.1395C88.9649 254.782 87.116 253.378 87.116 250.968V247.605C87.116 246.744 88.0753 246.082 89.2963 246.082C90.5173 246.082 91.4767 246.744 91.4767 247.605V250.65C91.4767 251.471 92.0698 251.922 93.1512 251.922H114.676H114.658Z" fill="#DB9099"/>
<path d="M140.125 236.984L133.933 242.202C133.183 242.864 131.805 242.864 131.037 242.294C130.2 241.685 130.287 240.705 131.002 240.07L137.194 234.852C137.91 234.217 139.253 234.217 140.038 234.826C140.822 235.435 140.788 236.415 140.125 236.984ZM161.597 251.802C162.609 251.802 163.394 252.438 163.394 253.232C163.394 254.027 162.591 254.662 161.597 254.662H139.497C136.322 254.662 134.473 253.259 134.473 250.849V246.399C134.473 245.539 135.433 244.877 136.654 244.877C137.875 244.877 138.834 245.539 138.834 246.399V250.531C138.834 251.352 139.427 251.802 140.509 251.802H161.614H161.597ZM152.841 239.752C153.591 240.388 153.643 241.367 152.806 241.977C152.056 242.546 150.713 242.519 149.91 241.884L141.416 234.892C140.404 234.031 139.741 233.078 139.741 231.846V229.238C139.741 228.377 140.7 227.715 141.921 227.715C143.142 227.715 144.102 228.377 144.102 229.238V231.595C144.102 232.138 144.224 232.707 144.555 232.998L152.841 239.765V239.752ZM162.347 246.201C162.347 247.062 161.388 247.724 160.167 247.724C158.946 247.724 157.986 247.062 157.986 246.201V235.528H152.963C151.951 235.528 151.166 234.892 151.166 234.098C151.166 233.303 151.968 232.667 152.963 232.667H157.986V228.787C157.986 227.927 158.946 227.265 160.167 227.265C161.388 227.265 162.347 227.927 162.347 228.787V246.201Z" fill="#DB9099"/>
<path d="M187.57 241.394V243.526H195.07C197.878 243.526 199.971 245.022 199.971 247.022C199.971 249.022 197.878 250.518 195.07 250.518H176.476C175.673 250.518 175.098 250.862 175.098 251.405C175.098 251.948 175.691 252.292 176.476 252.292H198.663C199.675 252.292 200.373 252.901 200.373 253.656C200.373 254.411 199.657 255.02 198.663 255.02H175.726C172.917 255.02 170.824 253.497 170.824 251.498C170.824 249.498 172.917 247.975 175.726 247.975H194.32C195.122 247.975 195.698 247.658 195.698 247.115C195.698 246.572 195.105 246.254 194.32 246.254H172.97C171.958 246.254 171.26 245.645 171.26 244.89C171.26 244.135 171.976 243.526 172.97 243.526H183.226V241.394H169.708C168.696 241.394 167.911 240.785 167.911 239.99C167.911 239.196 168.714 238.587 169.708 238.587H201.105C202.117 238.587 202.902 239.196 202.902 239.99C202.902 240.785 202.099 241.394 201.105 241.394H187.587H187.57ZM176.685 236.72C173.511 236.72 171.662 235.316 171.662 232.906V230.615C170.65 230.615 169.865 230.046 169.865 229.251C169.865 228.457 170.667 227.887 171.662 227.887H197.372C198.593 227.887 199.553 228.616 199.553 229.542V235.078C199.553 236.005 198.593 236.733 197.372 236.733H176.685V236.72ZM175.935 232.721C175.935 233.542 176.528 233.992 177.61 233.992H195.279V230.628H175.935V232.721Z" fill="#DB9099"/>
</svg>
