<svg width="195" height="232" viewBox="0 0 195 232" fill="none" xmlns="http://www.w3.org/2000/svg">
<path d="M181.5 87.5C181.5 134.431 143.234 172.5 96 172.5C48.7662 172.5 10.5 134.431 10.5 87.5C10.5 40.5692 48.7662 2.5 96 2.5C143.234 2.5 181.5 40.5692 181.5 87.5Z" stroke="#DB9099" stroke-width="5"/>
<path d="M104.425 88.6247C102.792 87.015 101.434 85.4775 100.368 83.7121C98.1745 80.0865 97.4383 76.2787 98.9185 72.2014C99.0259 71.9053 99.1448 71.6091 99.3059 71.3396C99.7354 70.6334 100.41 70.4474 101.124 70.7739C101.833 71.0966 102.197 71.7268 101.875 72.4975C99.9999 76.9659 101.469 80.7547 104.291 84.2664C105.468 85.7318 106.849 86.9998 108.298 88.1995C108.663 88.5032 109.031 88.6323 109.51 88.6323C113.088 88.6171 116.666 88.6247 120.244 88.6209C120.558 88.6209 120.869 88.6475 121.149 88.4159C123.937 86.1494 126.456 83.659 127.871 80.2916C128.868 77.9226 128.983 75.5118 128.067 73.0897C126.291 68.3822 120.286 68.0785 117.398 70.7663C116.85 71.275 116.482 71.8939 116.217 72.581C115.976 73.2112 115.512 73.5605 114.837 73.5529C114.2 73.5491 113.782 73.1884 113.51 72.6266C112.11 69.7489 109.054 68.4391 105.829 69.3237C104.41 69.7147 103.624 69.468 103.367 68.553C103.098 67.5963 103.681 66.8902 105.127 66.5561C108.624 65.7475 111.777 66.3929 114.446 68.8605C114.783 69.1718 114.921 69.1756 115.266 68.8605C118.349 66.055 121.923 65.4589 125.739 66.9661C129.558 68.4771 131.219 71.6205 131.518 75.5194C131.867 80.1017 129.758 83.7501 126.824 87.0454C126.391 87.5351 125.923 87.9945 125.447 88.4956C125.827 88.7196 126.18 88.6171 126.514 88.6171C132.009 88.6247 137.5 88.6209 142.995 88.6247C144.729 88.6247 145.131 89.0271 145.131 90.7507C145.131 104.285 145.131 117.823 145.131 131.357C145.131 134.504 143.413 136.194 140.207 136.194C121.778 136.194 103.344 136.194 84.914 136.194C81.6429 136.194 79.9594 134.523 79.9594 131.296C79.9594 121.27 79.9594 111.248 79.9594 101.157C79.6258 101.309 79.6488 101.605 79.5836 101.836C77.9193 107.793 76.2627 113.749 74.6022 119.71C74.5332 119.953 74.4833 120.203 74.3913 120.439C74.0883 121.198 73.356 121.57 72.6235 121.354C71.8949 121.141 71.4539 120.431 71.661 119.638C72.2055 117.561 72.7501 115.484 73.3905 113.438C73.6551 112.595 73.4442 112.311 72.6197 112.117C70.7943 111.684 68.9843 111.175 67.182 110.655C66.5608 110.477 66.2616 110.503 66.0622 111.232C64.3097 117.656 62.5227 124.068 60.7165 130.476C60.5248 131.16 60.5861 131.505 61.3684 131.695C63.2245 132.147 65.069 132.648 66.8944 133.206C67.6153 133.426 67.8798 133.202 68.0562 132.564C68.6852 130.249 69.3332 127.94 69.9813 125.632C70.2996 124.493 70.9746 124.007 71.8719 124.25C72.7309 124.482 73.0453 125.272 72.7271 126.422C72.0752 128.795 71.427 131.167 70.7598 133.54C70.1884 135.575 68.4743 136.558 66.4227 136.015C64.3596 135.473 62.3003 134.918 60.2526 134.326C58.2393 133.745 57.319 132.075 57.8597 130.055C58.2585 128.563 58.6305 127.056 59.1098 125.59C59.3514 124.846 59.2478 124.588 58.4349 124.417C56.0612 123.916 53.768 123.149 51.6358 121.972C50.3972 121.289 49.2659 120.473 48.3839 119.364C46.6429 117.185 46.5432 114.949 48.0925 112.626C49.496 110.519 51.5093 109.072 53.5954 107.705C54.0479 107.409 54.4812 107.056 54.9797 106.863C56.5712 106.248 57.4072 105.154 57.6641 103.465C57.8635 102.163 58.3198 100.899 58.711 99.6343C58.8529 99.1712 58.7877 98.8219 58.5384 98.4081C57.1119 96.0467 55.8617 93.6018 55.16 90.9215C53.8063 85.766 56.2912 82.4935 61.6983 82.3226C64.5092 82.2353 67.2165 82.8465 69.8625 83.6931C70.5643 83.9171 70.7866 83.7956 70.9515 83.1161C71.312 81.6127 71.7415 80.1283 72.1634 78.6401C72.7693 76.4989 74.4834 75.5384 76.65 76.1231C78.6173 76.6546 80.5844 77.1823 82.544 77.7403C84.7337 78.3668 85.6617 80.0182 85.0673 82.186C84.542 84.1032 83.9936 86.0128 83.4567 87.9299C83.3532 88.3058 83.2228 88.6437 83.89 88.6437C90.6622 88.6247 97.4306 88.6323 104.444 88.6323L104.425 88.6247ZM109.809 112.436C109.809 119.076 109.828 125.716 109.786 132.356C109.779 133.233 110.043 133.407 110.845 133.358C111.991 133.29 113.145 133.29 114.292 133.358C115.074 133.407 115.297 133.206 115.293 132.397C115.255 125.347 115.27 118.294 115.274 111.244C115.274 110.868 115.239 110.488 115.377 110.116C115.63 109.429 116.144 109.091 116.85 109.152C117.548 109.213 118.035 109.611 118.127 110.348C118.169 110.689 118.158 111.043 118.158 111.388C118.158 118.408 118.169 125.427 118.146 132.447C118.146 133.111 118.25 133.366 119.013 133.362C126.134 133.328 133.259 133.343 140.38 133.339C141.776 133.339 142.255 132.849 142.255 131.441C142.255 118.411 142.251 105.386 142.271 92.3566C142.271 91.6694 142.14 91.453 141.396 91.4568C133.953 91.4872 126.513 91.491 119.07 91.4568C118.265 91.4568 118.138 91.7226 118.146 92.4287C118.177 96.3504 118.161 100.272 118.158 104.19C118.158 104.505 118.173 104.828 118.115 105.135C117.985 105.8 117.555 106.183 116.869 106.244C116.19 106.305 115.696 106.02 115.416 105.393C115.255 105.037 115.274 104.653 115.274 104.274C115.274 100.321 115.258 96.3694 115.289 92.4173C115.293 91.7112 115.163 91.4075 114.365 91.4568C113.157 91.5289 111.934 91.5289 110.726 91.4568C109.924 91.4075 109.798 91.7112 109.798 92.4211C109.821 99.0914 109.813 105.766 109.813 112.436H109.809ZM106.925 112.375C106.925 105.735 106.914 99.0952 106.945 92.4591C106.945 91.6846 106.768 91.453 105.955 91.4568C98.5772 91.491 91.2029 91.4872 83.8249 91.4568C83.0464 91.4568 82.8163 91.6125 82.8201 92.4249C82.8469 105.386 82.8393 118.351 82.8393 131.312C82.8393 132.91 83.2688 133.343 84.8641 133.343C91.8894 133.343 98.9146 133.331 105.94 133.362C106.718 133.362 106.952 133.202 106.949 132.394C106.91 125.723 106.929 119.053 106.929 112.383L106.925 112.375ZM75.7067 78.8223C75.1123 78.7046 75.0164 79.1147 74.8975 79.5285C73.0837 86.0317 71.2737 92.5312 69.4445 99.0307C69.3026 99.5394 69.4368 99.7368 69.943 99.8697C71.8834 100.375 73.8199 100.883 75.7373 101.464C76.4467 101.681 76.696 101.536 76.8839 100.83C77.8656 97.1742 78.901 93.5335 79.9173 89.8889C80.6804 87.1555 81.4473 84.422 82.1912 81.681C82.3063 81.2596 82.5977 80.7205 81.8652 80.5155C79.8136 79.9423 77.7544 79.3804 75.7028 78.8147L75.7067 78.8223ZM57.6794 88.4273C57.6986 88.6589 57.6909 88.9816 57.7523 89.2891C58.316 92.1819 59.6505 94.7559 61.1729 97.2502C61.3224 97.4931 61.541 97.5842 61.7903 97.6488C63.1708 98.0246 64.5552 98.3891 65.928 98.7839C66.3537 98.9054 66.5492 98.8181 66.6719 98.3777C67.692 94.6686 68.7274 90.9633 69.7705 87.258C69.8932 86.8252 69.7704 86.6316 69.3486 86.5025C68.0985 86.1266 66.8483 85.7546 65.5637 85.523C63.6079 85.1737 61.6484 84.8928 59.6965 85.5306C58.1741 86.0279 57.6449 86.791 57.6718 88.4235L57.6794 88.4273ZM49.8756 115.799C49.868 116.259 50.0521 116.661 50.2706 117.049C50.704 117.808 51.3406 118.389 52.0577 118.871C54.3393 120.401 56.9316 121.152 59.5738 121.783C60.1375 121.916 60.195 121.6 60.3062 121.209C61.3109 117.561 62.3118 113.909 63.3587 110.272C63.5044 109.767 63.3855 109.615 62.9292 109.494C61.5449 109.133 60.1643 108.746 58.7838 108.362C58.5614 108.302 58.3505 108.26 58.1358 108.377C55.3862 109.866 52.6789 111.418 50.6963 113.913C50.263 114.459 49.9255 115.074 49.8795 115.799H49.8756ZM68.7312 102.482C68.386 102.417 68.4398 102.778 68.3822 102.971C67.9758 104.365 67.6192 105.773 67.1858 107.155C67.0248 107.668 67.2932 107.747 67.6537 107.842C69.7129 108.396 71.7722 108.939 73.8199 109.528C74.2686 109.657 74.4489 109.581 74.5678 109.148C74.9359 107.778 75.3155 106.411 75.7105 105.044C75.8409 104.596 75.7603 104.38 75.2464 104.251C73.6397 103.856 72.0521 103.397 70.4568 102.96C69.9046 102.808 69.3524 102.652 68.7312 102.478V102.482ZM65.6366 102.03C65.7478 101.586 65.4295 101.582 65.2608 101.533C64.1295 101.206 62.9829 100.933 61.8593 100.595C61.4221 100.466 61.3876 100.697 61.3071 100.99C60.9121 102.421 60.5171 103.848 60.1029 105.272C60.0032 105.617 60.0531 105.769 60.4405 105.864C61.5525 106.138 62.6492 106.464 63.7537 106.764C63.9952 106.829 64.2752 106.946 64.3788 106.582C64.8121 105.033 65.2378 103.48 65.6366 102.026V102.03Z" fill="#DB9099"/>
<path d="M118.345 44.533C118.357 47.2322 117.368 49.0355 115.976 50.6566C114.281 52.6307 112.175 54.1 109.89 55.33C109.353 55.6185 108.808 55.6565 108.248 55.3604C105.553 53.9253 103.11 52.1828 101.319 49.6771C99.8696 47.646 99.256 45.4251 100.004 42.965C101.089 39.3964 105.177 37.9158 108.425 39.9051C108.774 40.1177 109.004 40.3265 109.483 40.019C111.431 38.7624 113.494 38.6523 115.538 39.7761C117.594 40.9074 118.288 42.8094 118.342 44.5292L118.345 44.533ZM115.458 45.0113C115.466 43.4244 114.779 42.3652 113.51 42.0008C112.198 41.6249 111.14 42.1033 110.285 43.4624C109.618 44.5216 108.333 44.4381 107.7 43.2953C107.121 42.2513 106.216 41.7768 105.027 41.8983C103.923 42.0121 103.106 42.6955 102.769 43.7889C102.312 45.2695 102.738 46.5944 103.551 47.8245C104.839 49.7682 106.676 51.1198 108.643 52.3194C108.92 52.4865 109.127 52.5016 109.418 52.327C111.251 51.2147 112.958 49.958 114.246 48.2231C114.952 47.2702 115.473 46.2338 115.462 45.0075L115.458 45.0113Z" fill="#DB9099"/>
<path d="M141.887 53.0561C141.864 55.4365 140.936 57.198 139.582 58.7735C137.926 60.6983 135.893 62.1447 133.65 63.3292C133.105 63.6177 132.565 63.6481 132.012 63.352C129.397 61.9663 127.039 60.2693 125.302 57.8434C123.933 55.93 123.323 53.8306 123.967 51.4958C124.964 47.893 128.937 46.3516 132.204 48.303C132.553 48.5118 132.791 48.7054 133.266 48.4017C135.168 47.1982 137.186 47.1147 139.153 48.2081C141.132 49.3052 141.806 51.1655 141.883 53.0599L141.887 53.0561ZM138.992 53.618C138.984 51.8299 138.271 50.7327 137.166 50.4328C135.836 50.0721 134.854 50.5011 134.064 51.7881C133.401 52.8701 132.124 52.8207 131.479 51.6818C130.87 50.6036 130.03 50.1974 128.784 50.372C127.675 50.5315 126.97 51.2338 126.701 52.4183C126.398 53.7471 126.801 54.9239 127.526 56.0059C128.768 57.8662 130.525 59.1683 132.415 60.3187C132.703 60.4933 132.91 60.4819 133.194 60.3111C134.973 59.2253 136.626 58.0028 137.86 56.302C138.524 55.3909 138.976 54.3962 138.988 53.6142L138.992 53.618Z" fill="#DB9099"/>
<path d="M97.6568 61.0739C97.6568 63.625 96.7058 65.379 95.3521 66.9469C93.7185 68.8451 91.7053 70.2726 89.5041 71.4571C88.9327 71.7646 88.3652 71.8139 87.7746 71.4988C85.2245 70.1359 82.9198 68.4731 81.1865 66.1345C79.668 64.0882 79.0697 61.8255 79.8367 59.3503C80.8797 55.9942 84.8295 54.5706 87.9242 56.427C88.4303 56.7307 88.7294 56.7383 89.2433 56.4384C91.1185 55.3412 93.082 55.3071 94.9687 56.3739C96.9359 57.4862 97.6185 59.3389 97.653 61.0739H97.6568ZM94.7654 61.4269C94.7654 59.9843 94.0829 58.9061 92.9784 58.5948C91.6593 58.2227 90.712 58.6517 89.83 60.0146C89.1666 61.0397 87.8321 60.941 87.2492 59.7755C86.7507 58.7732 85.8994 58.4809 84.8909 58.4999C83.8363 58.5188 83.0579 59.0352 82.6782 60.0184C82.1145 61.4649 82.4481 62.8202 83.2611 64.073C84.4997 65.9788 86.2752 67.3038 88.1964 68.4655C88.4648 68.6287 88.6796 68.6743 88.9749 68.4882C90.8271 67.3417 92.5643 66.0737 93.8067 64.2477C94.3858 63.3935 94.7846 62.4785 94.7693 61.4269H94.7654Z" fill="#DB9099"/>
<path d="M2.63388 207.581C1.62219 207.581 0.837264 206.919 0.837264 206.125C0.837264 205.33 1.63964 204.668 2.63388 204.668H18.7511C19.9721 204.668 20.9315 205.396 20.9315 206.323V214.269C20.9315 222.717 12.6461 228.822 2.21525 228.822H1.79662C0.784928 228.822 0 228.16 0 227.365C0 226.571 0.802371 225.908 1.79662 225.908H2.21525C9.7157 225.908 16.5707 221.459 16.5707 214.282V207.608H2.63388V207.581ZM31.4844 215.076H34.6241C35.6358 215.076 36.4208 215.739 36.4208 216.533C36.4208 217.328 35.6184 217.99 34.6241 217.99H31.4844V229.113C31.4844 229.974 30.5251 230.636 29.3041 230.636C28.0831 230.636 27.1237 229.974 27.1237 229.113V204.761C27.1237 203.9 28.0831 203.238 29.3041 203.238C30.5251 203.238 31.4844 203.9 31.4844 204.761V215.063V215.076Z" fill="#DB9099"/>
<path d="M54.7532 216.44H46.2934C45.369 216.44 44.6538 215.805 44.6538 215.037C44.6538 214.269 45.369 213.633 46.2934 213.633H54.7532V205.847C54.7532 204.986 55.6777 204.324 56.8813 204.324C58.0848 204.324 59.0093 204.986 59.0093 205.847V226.822C59.0093 227.749 58.05 228.478 56.829 228.478H44.3573C41.1827 228.478 39.3337 227.074 39.3337 224.664V205.847C39.3337 204.986 40.2582 204.324 41.4618 204.324C42.6653 204.324 43.5898 204.986 43.5898 205.847V224.346C43.5898 225.167 44.1829 225.617 45.2643 225.617H54.7184V216.427L54.7532 216.44ZM69.9983 229.126C69.9983 229.987 69.039 230.649 67.818 230.649C66.597 230.649 65.6376 229.987 65.6376 229.126V223.062H61.9921C60.9804 223.062 60.1954 222.426 60.1954 221.631C60.1954 220.837 60.9978 220.201 61.9921 220.201H65.6376V212.322H61.9921C60.9804 212.322 60.1954 211.687 60.1954 210.892C60.1954 210.098 60.9978 209.462 61.9921 209.462H65.6376V204.787C65.6376 203.927 66.597 203.265 67.818 203.265C69.039 203.265 69.9983 203.927 69.9983 204.787V229.14V229.126Z" fill="#DB9099"/>
<path d="M95.622 219.844V223.525C95.622 224.386 94.6627 225.048 93.4417 225.048C92.2207 225.048 91.2613 224.386 91.2613 223.525V219.844H77.3244C76.3128 219.844 75.5278 219.208 75.5278 218.414C75.5278 217.619 76.3302 216.984 77.3244 216.984H108.722C109.733 216.984 110.518 217.619 110.518 218.414C110.518 219.208 109.716 219.844 108.722 219.844H95.622ZM83.2376 205.794C83.9527 206.363 83.9527 207.251 83.2376 207.926C82.9411 208.217 82.7318 208.694 82.7318 209.224C82.7318 210.588 83.9004 211.382 86.0808 211.382H99.9828C102.163 211.382 103.332 210.588 103.332 209.224C103.332 207.86 102.163 207.065 99.9828 207.065H88.6449C86.8483 207.065 84.9644 206.562 84.1272 205.225C83.4992 204.179 84.5807 203 86.2203 203C86.8483 203 87.5111 203.185 87.8599 203.636C88.2437 204.112 88.8193 204.271 89.4996 204.271H100.419C104.518 204.271 107.623 206.271 107.623 209.224C107.623 212.177 104.518 214.176 100.419 214.176H85.6796C81.5805 214.176 78.4757 212.177 78.4757 209.224C78.4757 207.86 79.1908 206.589 80.3944 205.728C81.1444 205.185 82.4875 205.185 83.2376 205.794ZM106.437 227.922C107.448 227.922 108.233 228.557 108.233 229.352C108.233 230.146 107.431 230.782 106.437 230.782H83.9179C80.7433 230.782 78.8943 229.378 78.8943 226.968V223.605C78.8943 222.744 79.8537 222.082 81.0747 222.082C82.2957 222.082 83.255 222.744 83.255 223.605V226.65C83.255 227.471 83.8481 227.922 84.9295 227.922H106.454H106.437Z" fill="#DB9099"/>
<path d="M131.903 212.984L125.711 218.202C124.961 218.864 123.583 218.864 122.815 218.294C121.978 217.685 122.065 216.705 122.781 216.07L128.973 210.852C129.688 210.217 131.031 210.217 131.816 210.826C132.601 211.435 132.566 212.415 131.903 212.984ZM153.375 227.802C154.387 227.802 155.172 228.438 155.172 229.232C155.172 230.027 154.37 230.662 153.375 230.662H131.275C128.101 230.662 126.252 229.259 126.252 226.849V222.399C126.252 221.539 127.211 220.877 128.432 220.877C129.653 220.877 130.612 221.539 130.612 222.399V226.531C130.612 227.352 131.205 227.802 132.287 227.802H153.393H153.375ZM144.619 215.752C145.369 216.388 145.421 217.367 144.584 217.977C143.834 218.546 142.491 218.519 141.689 217.884L133.194 210.892C132.182 210.031 131.519 209.078 131.519 207.846V205.238C131.519 204.377 132.479 203.715 133.7 203.715C134.921 203.715 135.88 204.377 135.88 205.238V207.595C135.88 208.138 136.002 208.707 136.334 208.998L144.619 215.765V215.752ZM154.125 222.201C154.125 223.062 153.166 223.724 151.945 223.724C150.724 223.724 149.765 223.062 149.765 222.201V211.528H144.741C143.729 211.528 142.945 210.892 142.945 210.098C142.945 209.303 143.747 208.667 144.741 208.667H149.765V204.787C149.765 203.927 150.724 203.265 151.945 203.265C153.166 203.265 154.125 203.927 154.125 204.787V222.201Z" fill="#DB9099"/>
<path d="M179.348 217.394V219.526H186.848C189.657 219.526 191.75 221.022 191.75 223.022C191.75 225.022 189.657 226.518 186.848 226.518H168.254C167.452 226.518 166.876 226.862 166.876 227.405C166.876 227.948 167.469 228.292 168.254 228.292H190.442C191.453 228.292 192.151 228.901 192.151 229.656C192.151 230.411 191.436 231.02 190.442 231.02H167.504C164.696 231.02 162.603 229.497 162.603 227.498C162.603 225.498 164.696 223.975 167.504 223.975H186.098C186.901 223.975 187.476 223.658 187.476 223.115C187.476 222.572 186.883 222.254 186.098 222.254H164.748C163.736 222.254 163.039 221.645 163.039 220.89C163.039 220.135 163.754 219.526 164.748 219.526H175.005V217.394H161.486C160.475 217.394 159.69 216.785 159.69 215.99C159.69 215.196 160.492 214.587 161.486 214.587H192.884C193.895 214.587 194.68 215.196 194.68 215.99C194.68 216.785 193.878 217.394 192.884 217.394H179.365H179.348ZM168.463 212.72C165.289 212.72 163.44 211.316 163.44 208.906V206.615C162.428 206.615 161.643 206.046 161.643 205.251C161.643 204.457 162.446 203.887 163.44 203.887H189.151C190.372 203.887 191.331 204.616 191.331 205.542V211.078C191.331 212.005 190.372 212.733 189.151 212.733H168.463V212.72ZM167.713 208.721C167.713 209.542 168.306 209.992 169.388 209.992H187.058V206.628H167.713V208.721Z" fill="#DB9099"/>
</svg>
