<svg width="99" height="99" viewBox="0 0 99 99" fill="none" xmlns="http://www.w3.org/2000/svg">
<path d="M57.8292 50.4785C56.1841 48.8411 54.817 47.2771 53.7434 45.4814C51.5345 41.7934 50.7932 37.9201 52.2838 33.7726C52.3919 33.4714 52.5116 33.1702 52.6738 32.896C53.1063 32.1777 53.786 31.9885 54.5043 32.3206C55.2187 32.6488 55.5856 33.2899 55.2612 34.0738C53.3728 38.6191 54.8518 42.4731 57.6941 46.0452C58.8796 47.5358 60.2699 48.8257 61.7296 50.046C62.0965 50.3549 62.4672 50.4862 62.9499 50.4862C66.5529 50.4708 70.1559 50.4785 73.7589 50.4746C74.0756 50.4746 74.3884 50.5017 74.6703 50.2661C77.4778 47.9606 80.015 45.4273 81.44 42.002C82.444 39.5922 82.5599 37.14 81.6369 34.6762C79.8489 29.8877 73.8014 29.5787 70.8935 32.3128C70.3413 32.8303 69.9705 33.4598 69.7041 34.1588C69.4608 34.7998 68.9936 35.1551 68.3139 35.1474C67.6728 35.1435 67.2518 34.7767 66.9776 34.2051C65.5681 31.2779 62.4903 29.9456 59.2426 30.8454C57.8137 31.2432 57.0221 30.9922 56.7634 30.0615C56.493 29.0883 57.08 28.37 58.5359 28.0302C62.0578 27.2076 65.2322 27.8641 67.92 30.3743C68.2598 30.6909 68.3988 30.6948 68.7464 30.3743C71.8512 27.5204 75.4504 26.9141 79.2928 28.4472C83.1391 29.9842 84.8113 33.1817 85.1125 37.1478C85.4639 41.8089 83.3399 45.52 80.3856 48.872C79.9492 49.3702 79.4782 49.8375 78.9993 50.3472C79.3816 50.575 79.7369 50.4708 80.0729 50.4708C85.6068 50.4785 91.1368 50.4746 96.6707 50.4785C98.4162 50.4785 98.8217 50.8878 98.8217 52.6411C98.8217 66.4082 98.8217 80.1792 98.8217 93.9463C98.8217 97.1477 97.0916 98.8662 93.8632 98.8662C75.3036 98.8662 56.7402 98.8662 38.1807 98.8662C34.8866 98.8662 33.1912 97.167 33.1912 93.8845C33.1912 83.6856 33.1912 73.4906 33.1912 63.2261C32.8553 63.3806 32.8785 63.6818 32.8128 63.9174C31.1368 69.9765 29.4685 76.0355 27.7964 82.0985C27.7269 82.3456 27.6767 82.6005 27.584 82.8399C27.2789 83.6123 26.5414 83.9907 25.8038 83.7706C25.07 83.5543 24.6259 82.8322 24.8345 82.0251C25.3828 79.9127 25.9312 77.8004 26.5761 75.7189C26.8426 74.8616 26.6302 74.5719 25.7999 74.375C23.9617 73.9347 22.139 73.4173 20.324 72.8882C19.6984 72.7067 19.3971 72.7337 19.1963 73.4752C17.4315 80.0093 15.6319 86.5318 13.813 93.0504C13.62 93.7455 13.6817 94.0969 14.4695 94.29C16.3386 94.7495 18.1962 95.2593 20.0343 95.827C20.7604 96.051 21.0267 95.8231 21.2044 95.1743C21.8377 92.8187 22.4903 90.4707 23.143 88.1228C23.4635 86.9643 24.1432 86.47 25.0469 86.7171C25.9119 86.9527 26.2286 87.7559 25.908 88.926C25.2516 91.3396 24.5989 93.7532 23.9269 96.1668C23.3515 98.2367 21.6254 99.2369 19.5594 98.6847C17.4817 98.1324 15.408 97.5686 13.3458 96.9662C11.3184 96.3754 10.3916 94.6762 10.9361 92.6217C11.3377 91.1041 11.7123 89.5709 12.195 88.0803C12.4383 87.3234 12.334 87.0608 11.5153 86.887C9.1249 86.3773 6.81558 85.5972 4.66845 84.4001C3.42111 83.7049 2.28186 82.8747 1.39365 81.747C-0.359578 79.5304 -0.459987 77.2558 1.10016 74.8924C2.51356 72.7492 4.54101 71.2778 6.6418 69.8876C7.09749 69.5864 7.53386 69.2273 8.03588 69.0303C9.63851 68.4047 10.4804 67.2925 10.7391 65.5741C10.9399 64.2495 11.3995 62.9635 11.7934 61.6776C11.9362 61.2064 11.8706 60.8511 11.6196 60.4302C10.183 58.0282 8.92407 55.5413 8.21737 52.8149C6.85418 47.5706 9.35661 44.2418 14.8017 44.068C17.6323 43.9792 20.3587 44.6009 23.0233 45.4621C23.73 45.6899 23.954 45.5664 24.12 44.8751C24.483 43.3459 24.9156 41.8359 25.3404 40.3221C25.9505 38.1441 27.6767 37.1671 29.8586 37.7618C31.8397 38.3024 33.8207 38.8392 35.7941 39.4069C37.9991 40.0441 38.9337 41.7239 38.3351 43.929C37.8061 45.8792 37.2538 47.8216 36.7132 49.7718C36.6089 50.1541 36.4776 50.4978 37.1495 50.4978C43.9694 50.4785 50.7854 50.4862 57.8485 50.4862L57.8292 50.4785ZM63.2511 74.6994C63.2511 81.4536 63.2704 88.2078 63.2279 94.962C63.2202 95.854 63.4866 96.0316 64.2938 95.9814C65.4484 95.9119 66.6108 95.9119 67.7655 95.9814C68.5533 96.0316 68.7773 95.827 68.7734 95.0044C68.7348 87.8332 68.7502 80.658 68.7541 73.4868C68.7541 73.1045 68.7193 72.7183 68.8584 72.3398C69.1132 71.6409 69.6307 71.2972 70.3413 71.3589C71.0441 71.4207 71.5345 71.8262 71.6272 72.5754C71.6697 72.923 71.6581 73.2821 71.6581 73.6335C71.6581 80.7739 71.6697 87.9143 71.6465 95.0546C71.6465 95.7304 71.7508 95.9892 72.5193 95.9853C79.6906 95.9505 86.8657 95.966 94.0369 95.9621C95.4426 95.9621 95.9254 95.464 95.9254 94.0313C95.9254 80.7777 95.9214 67.5281 95.9407 54.2746C95.9407 53.5756 95.8094 53.3555 95.0602 53.3594C87.5646 53.3903 80.0728 53.3941 72.5772 53.3594C71.7662 53.3594 71.6388 53.6297 71.6465 54.348C71.6774 58.3371 71.662 62.3263 71.6581 66.3117C71.6581 66.6322 71.6735 66.9604 71.6156 67.2732C71.4843 67.949 71.0518 68.3391 70.3605 68.4009C69.677 68.4626 69.1788 68.173 68.8969 67.5358C68.7347 67.1728 68.7541 66.7828 68.7541 66.3966C68.7541 62.3765 68.7387 58.3565 68.7695 54.3364C68.7734 53.6181 68.6421 53.3092 67.8388 53.3594C66.6224 53.4327 65.3905 53.4327 64.174 53.3594C63.3669 53.3092 63.2395 53.6181 63.2395 54.3403C63.2627 61.1253 63.255 67.9143 63.255 74.6994H63.2511ZM60.3471 74.6376C60.3471 67.8834 60.3355 61.1292 60.3664 54.3789C60.3664 53.5911 60.1887 53.3555 59.37 53.3594C51.94 53.3941 44.5139 53.3903 37.0839 53.3594C36.3 53.3594 36.0682 53.5177 36.0721 54.3441C36.0991 67.5281 36.0914 80.716 36.0914 93.9C36.0914 95.5258 36.5239 95.966 38.1304 95.966C45.2052 95.966 52.2799 95.9544 59.3546 95.9853C60.1385 95.9853 60.3741 95.8231 60.3703 95.0006C60.3316 88.2155 60.3509 81.4304 60.3509 74.6453L60.3471 74.6376ZM28.9086 40.5075C28.3101 40.3878 28.2135 40.8048 28.0938 41.2258C26.2672 47.8409 24.4444 54.4522 22.6024 61.0635C22.4595 61.581 22.5947 61.7818 23.1044 61.917C25.0585 62.4306 27.0086 62.9481 28.9395 63.5389C29.6539 63.759 29.9049 63.6123 30.0941 62.894C31.0827 59.1751 32.1255 55.4717 33.1488 51.7645C33.9173 48.984 34.6896 46.2035 35.4388 43.4154C35.5547 42.9867 35.8481 42.4383 35.1105 42.2298C33.0445 41.6467 30.9708 41.0752 28.9048 40.4998L28.9086 40.5075ZM10.7546 50.2777C10.7739 50.5133 10.7661 50.8415 10.8279 51.1543C11.3956 54.097 12.7395 56.7152 14.2726 59.2524C14.4232 59.4995 14.6433 59.5922 14.8943 59.6579C16.2846 60.0402 17.6787 60.4109 19.0612 60.8125C19.4898 60.9361 19.6868 60.8473 19.8103 60.3993C20.8376 56.6264 21.8803 52.8573 22.9307 49.0883C23.0542 48.648 22.9306 48.4511 22.5058 48.3198C21.2469 47.9375 19.9879 47.559 18.6942 47.3234C16.7248 46.9682 14.7515 46.6824 12.7858 47.3312C11.2527 47.8371 10.7198 48.6133 10.7468 50.2738L10.7546 50.2777ZM2.89588 78.1209C2.88816 78.5881 3.07353 78.9975 3.29365 79.3914C3.73003 80.1637 4.37109 80.7546 5.09324 81.245C7.39097 82.8013 10.0015 83.5659 12.6622 84.207C13.2299 84.3421 13.2878 84.0216 13.3998 83.6238C14.4116 79.9127 15.4195 76.1977 16.4737 72.4982C16.6205 71.9846 16.5008 71.8301 16.0413 71.7065C14.6472 71.3396 13.2569 70.9458 11.8667 70.5557C11.6427 70.4939 11.4304 70.4514 11.2141 70.5712C8.44522 72.085 5.71882 73.6644 3.7223 76.2016C3.28592 76.7577 2.94609 77.3833 2.89974 78.1209H2.89588ZM21.884 64.5739C21.5365 64.5082 21.5906 64.8751 21.5327 65.072C21.1233 66.4893 20.7642 67.922 20.3278 69.3277C20.1657 69.849 20.436 69.9301 20.799 70.0267C22.8727 70.5905 24.9464 71.1427 27.0086 71.7413C27.4604 71.8726 27.642 71.7953 27.7617 71.3551C28.1324 69.961 28.5147 68.5708 28.9125 67.1806C29.0438 66.7249 28.9626 66.5047 28.4451 66.3734C26.8271 65.9718 25.2283 65.5045 23.6218 65.0604C23.0657 64.906 22.5096 64.7477 21.884 64.57V64.5739ZM18.7677 64.1143C18.8797 63.6625 18.5592 63.6586 18.3892 63.6084C17.25 63.2763 16.0953 62.9983 14.9638 62.6546C14.5236 62.5233 14.4889 62.7588 14.4078 63.0562C14.01 64.5121 13.6122 65.9641 13.1951 67.4123C13.0947 67.7637 13.145 67.9181 13.535 68.0147C14.6549 68.2927 15.7593 68.6248 16.8715 68.9299C17.1148 68.9956 17.3968 69.1153 17.501 68.7446C17.9374 67.169 18.3661 65.5895 18.7677 64.1105V64.1143Z" fill="#0D3F39"/>
<path d="M71.8474 5.62818C71.8589 8.37388 70.8626 10.2082 69.4608 11.8572C67.7539 13.8653 65.6338 15.3598 63.3322 16.611C62.7915 16.9045 62.2432 16.9431 61.6793 16.6419C58.9645 15.1821 56.5047 13.4096 54.7012 10.8608C53.2415 8.7948 52.6236 6.53568 53.3766 4.03327C54.4695 0.403232 58.5861 -1.10285 61.857 0.920707C62.2084 1.13696 62.4401 1.34936 62.9228 1.03655C64.8846 -0.241683 66.9622 -0.353667 69.0205 0.789409C71.0904 1.94021 71.7894 3.87494 71.8435 5.62431L71.8474 5.62818ZM68.9394 6.11476C68.9472 4.50055 68.2559 3.42311 66.9777 3.05239C65.6569 2.67007 64.5911 3.15666 63.73 4.53916C63.058 5.61659 61.7643 5.53163 61.1271 4.36924C60.544 3.30726 59.6327 2.82455 58.4355 2.94812C57.3233 3.06398 56.5007 3.75908 56.1609 4.87126C55.7014 6.37735 56.13 7.7251 56.9487 8.9763C58.2463 10.9535 60.096 12.3283 62.0771 13.5486C62.3552 13.7185 62.5637 13.734 62.8572 13.5563C64.7031 12.4248 66.4216 11.1466 67.7192 9.38178C68.4297 8.41248 68.9549 7.35824 68.9433 6.11089L68.9394 6.11476Z" fill="#0D3F39"/>
<path d="M95.5545 14.298C95.5313 16.7193 94.5967 18.5112 93.2336 20.1138C91.5653 22.0717 89.5186 23.543 87.2594 24.7479C86.7111 25.0414 86.1666 25.0723 85.6105 24.771C82.9768 23.3615 80.6018 21.6353 78.8524 19.1676C77.4738 17.2213 76.8598 15.0858 77.5085 12.7108C78.5126 9.046 82.5134 7.47814 85.8036 9.46308C86.155 9.67548 86.3944 9.87243 86.8733 9.56349C88.7887 8.33932 90.82 8.25436 92.8011 9.36654C94.7937 10.4826 95.4734 12.3748 95.5506 14.3018L95.5545 14.298ZM92.6389 14.8695C92.6312 13.0506 91.9129 11.9346 90.8007 11.6295C89.4607 11.2626 88.4721 11.699 87.6765 13.0082C87.0085 14.1088 85.7225 14.0586 85.0737 12.9C84.4597 11.8033 83.614 11.3901 82.3589 11.5677C81.2429 11.7299 80.5323 12.4444 80.262 13.6492C79.9569 15.0008 80.3624 16.198 81.0922 17.2986C82.3435 19.1908 84.1121 20.5154 86.016 21.6855C86.3056 21.8632 86.5141 21.8516 86.7999 21.6778C88.5918 20.5733 90.2561 19.3298 91.4996 17.5998C92.1677 16.673 92.6235 15.6612 92.6351 14.8657L92.6389 14.8695Z" fill="#0D3F39"/>
<path d="M51.0133 22.4538C51.0133 25.0489 50.0556 26.833 48.6924 28.4279C47.0473 30.3588 45.0199 31.8108 42.8032 33.0156C42.2278 33.3284 41.6563 33.3786 41.0616 33.0581C38.4935 31.6717 36.1726 29.9803 34.4271 27.6015C32.8979 25.52 32.2954 23.2184 33.0678 20.7005C34.1182 17.2868 38.0957 15.8386 41.2122 17.727C41.7219 18.0359 42.0231 18.0437 42.5406 17.7386C44.429 16.6225 46.4062 16.5878 48.3062 17.6729C50.2873 18.8044 50.9747 20.689 51.0094 22.4538H51.0133ZM48.1015 22.8129C48.1015 21.3455 47.4142 20.2487 46.302 19.932C44.9736 19.5536 44.0196 19.99 43.1314 21.3763C42.4633 22.419 41.1195 22.3186 40.5325 21.133C40.0305 20.1135 39.1732 19.8162 38.1575 19.8355C37.0956 19.8548 36.3116 20.38 35.9293 21.3802C35.3616 22.8515 35.6976 24.2302 36.5163 25.5045C37.7637 27.4431 39.5516 28.7909 41.4863 29.9726C41.7566 30.1386 41.9729 30.185 42.2703 29.9958C44.1355 28.8295 45.8849 27.5397 47.1361 25.6822C47.7192 24.8133 48.1209 23.8826 48.1054 22.8129H48.1015Z" fill="#0D3F39"/>
</svg>
