<svg width="58" height="93" viewBox="0 0 58 93" fill="none" xmlns="http://www.w3.org/2000/svg">
<path d="M27.0102 65.7691C27.2638 65.4989 27.1677 65.2325 27.1677 64.9932C27.1754 57.7589 27.1678 50.5208 27.1793 43.2865C27.1793 42.7538 27.1486 42.472 26.4687 42.3561C19.2511 41.1479 15.1794 36.7741 13.8426 30.0803C12.817 24.9421 13.0168 19.7847 13.5392 14.6196C13.9041 11.0411 14.4841 7.48955 15.1832 3.96119C15.2408 3.67939 15.2831 3.38986 15.3637 3.11578C15.6864 2.00786 16.639 1.66429 17.5955 2.30125C19.0052 3.24317 20.4265 4.16965 21.8131 5.14632C22.2664 5.46287 22.5238 5.46287 22.9232 5.04981C24.3406 3.56744 25.8041 2.12367 27.2561 0.676043C28.1588 -0.223416 28.8041 -0.227277 29.7183 0.676043C31.1319 2.07735 32.557 3.46321 33.9129 4.91856C34.4276 5.47059 34.7618 5.4204 35.3226 5.01121C36.5864 4.08472 37.8962 3.22001 39.2137 2.37073C40.3008 1.66815 41.4147 2.09279 41.6567 3.3088C43.0895 10.574 44.1651 17.8777 43.7809 25.3166C43.6695 27.5016 43.3123 29.6518 42.7669 31.775C41.384 37.1408 37.7234 40.1403 32.6415 41.6729C32.2151 41.8003 31.7849 41.9315 31.3508 42.0357C29.9449 42.3716 29.9449 42.3639 29.9449 43.8269V73.4782C31.5429 72.3008 33.0294 71.274 34.6389 70.4363C35.0307 70.2317 35.0192 69.7839 35.1421 69.4364C36.1024 66.6802 37.4199 64.1285 39.402 61.9744C42.7861 58.2955 46.973 56.8865 51.8859 57.6199C53.4339 57.8516 54.9781 58.1256 56.5222 58.3611C57.2559 58.4731 57.7898 58.8051 57.9627 59.5617C58.1163 60.245 57.7783 60.7237 57.2674 61.1328C55.5081 62.5457 53.9563 64.1671 52.6733 66.0278C49.7655 70.2394 45.7976 72.4282 40.685 72.5054C40.3008 72.5093 39.9129 72.5903 39.5364 72.5479C37.1165 72.2661 35.1229 73.2196 33.2753 74.6556C32.2151 75.4779 30.7862 76.0762 30.2407 77.2266C29.7644 78.2264 30.0909 79.62 30.087 80.8399C30.0794 84.1829 30.0871 87.5299 30.0794 90.8729C30.0794 91.2551 30.0717 91.6527 29.9834 92.0194C29.8144 92.7104 29.2919 93.0038 28.6236 93C27.959 92.9961 27.429 92.7066 27.2753 92.0079C27.187 91.6064 27.1793 91.1779 27.1793 90.7648C27.1754 84.3335 27.1678 77.9022 27.187 71.4708C27.187 70.8648 27.0833 70.3359 26.7068 69.8572C26.1498 69.1508 25.6466 68.4057 25.0512 67.734C23.365 65.8309 21.598 64.2443 18.7056 64.5222C16.8195 64.6998 14.8759 64.391 13.0206 63.839C10.036 62.9511 7.83499 60.99 6.00658 58.5619C4.51236 56.5738 2.82605 54.7864 0.897767 53.2269C0.321587 52.7636 -0.15087 52.2155 0.0450315 51.4241C0.248615 50.598 0.974617 50.4706 1.69292 50.3548C3.1449 50.1232 4.58533 49.8259 6.04114 49.6252C12.3945 48.745 17.703 51.4781 20.9796 57.2841C21.8016 58.7394 22.4661 60.2604 22.9578 61.8625C23.05 62.1558 23.073 62.484 23.3919 62.6847C24.744 63.534 25.9424 64.5801 27.0141 65.7846L27.0102 65.7691ZM41.434 22.8576C41.3495 16.959 40.6081 11.7166 39.7438 6.48586C39.6363 5.84118 39.3866 5.95699 39.0025 6.23493C37.347 7.4355 35.6529 8.5936 34.0243 9.83277C27.114 15.0983 21.2331 21.2555 17.4457 29.2233C17.269 29.5939 17.0577 29.9143 17.1576 30.3891C18.479 36.4923 24.1793 40.507 30.3329 39.3451C36.8437 38.1136 39.6401 34.8053 40.781 29.5553C41.3034 27.1541 41.3917 24.7182 41.4301 22.8614L41.434 22.8576ZM16.3548 24.9808C17.1422 23.6837 17.7876 22.5449 18.5059 21.4563C20.6185 18.2483 23.2113 15.465 26.0423 12.8979C26.4379 12.5389 26.6223 12.3536 26.0615 11.9212C23.6262 10.049 21.21 8.15738 18.6556 6.45111C18.4367 6.30442 18.2446 6.04578 17.9105 6.13071C16.7543 12.2995 16.0513 18.4954 16.3586 24.9769L16.3548 24.9808ZM53.5798 60.6542C46.0549 58.7201 40.3507 63.0244 38.4417 69.6063C39.7976 69.5252 41.1344 69.475 42.4634 69.3592C45.3943 69.1045 47.7066 67.7109 49.5427 65.4371C50.8295 63.8467 52.0357 62.1867 53.5798 60.6542ZM4.85038 52.837C6.80555 54.6822 8.11156 57.0061 10.0398 58.7935C12.4252 61.0055 16.8618 62.2639 20.0231 61.6C18.8976 58.5889 17.2882 55.9446 14.5878 54.1147C11.6301 52.1112 8.38428 51.9723 4.85038 52.837ZM32.5147 7.23862C31.3624 6.0921 30.2254 4.97646 29.1114 3.84152C28.8502 3.57516 28.6889 3.57516 28.4277 3.84538C27.429 4.87995 26.4149 5.89909 25.3816 6.90277C25.0589 7.21546 25.1165 7.36988 25.443 7.62466C26.4494 8.40831 27.4328 9.22284 28.42 10.0335C28.6351 10.2111 28.7964 10.3153 29.0692 10.0837C30.187 9.13791 31.3278 8.21529 32.5147 7.23862Z" fill="#0D3F39"/>
</svg>
