<svg width="201" height="252" viewBox="0 0 201 252" fill="none" xmlns="http://www.w3.org/2000/svg">
<circle cx="87.5" cy="87.5" r="85" stroke="#DB9099" stroke-width="5"/>
<path d="M87.3927 106.769C87.7249 106.499 87.5991 106.233 87.5991 105.993C87.6092 98.7589 87.5991 91.5208 87.6142 84.2865C87.6142 83.7538 87.574 83.472 86.6831 83.3561C77.2255 82.1479 71.8902 77.7741 70.1386 71.0803C68.7947 65.9421 69.0565 60.7847 69.741 55.6196C70.2191 52.0411 70.9792 48.4895 71.8953 44.9612C71.9707 44.6794 72.0261 44.3899 72.1318 44.1158C72.5546 43.0079 73.8029 42.6643 75.0562 43.3012C76.9034 44.2432 78.7657 45.1697 80.5827 46.1463C81.1767 46.4629 81.5139 46.4629 82.0374 46.0498C83.8946 44.5674 85.8123 43.1237 87.7149 41.676C88.8977 40.7766 89.7433 40.7727 90.9412 41.676C92.7935 43.0773 94.6609 44.4632 96.4376 45.9186C97.1121 46.4706 97.5499 46.4204 98.2848 46.0112C99.9408 45.0847 101.657 44.22 103.384 43.3707C104.808 42.6682 106.268 43.0928 106.585 44.3088C108.462 51.574 109.871 58.8777 109.368 66.3166C109.222 68.5016 108.754 70.6518 108.039 72.775C106.227 78.1408 101.431 81.1403 94.7716 82.6729C94.2129 82.8003 93.6491 82.9315 93.0804 83.0357C91.2382 83.3716 91.2382 83.3639 91.2382 84.8269V114.478C93.332 113.301 95.28 112.274 97.3889 111.436C97.9023 111.232 97.8872 110.784 98.0482 110.436C99.3066 107.68 101.033 105.128 103.63 102.974C108.064 99.2955 113.551 97.8865 119.988 98.6199C122.017 98.8516 124.04 99.1256 126.064 99.3611C127.025 99.4731 127.725 99.8051 127.951 100.562C128.152 101.245 127.709 101.724 127.04 102.133C124.735 103.546 122.701 105.167 121.02 107.028C117.21 111.239 112.011 113.428 105.311 113.505C104.808 113.509 104.3 113.59 103.806 113.548C100.635 113.266 98.0231 114.22 95.6021 115.656C94.2129 116.478 92.3405 117.076 91.6258 118.227C91.0016 119.226 91.4294 120.62 91.4244 121.84C91.4143 125.183 91.4245 128.53 91.4144 131.873C91.4144 132.255 91.4043 132.653 91.2886 133.019C91.0671 133.71 90.3825 134.004 89.5068 134C88.636 133.996 87.9414 133.707 87.7401 133.008C87.6243 132.606 87.6142 132.178 87.6142 131.765C87.6092 125.334 87.5991 118.902 87.6243 112.471C87.6243 111.865 87.4884 111.336 86.9951 110.857C86.2653 110.151 85.6059 109.406 84.8258 108.734C82.6161 106.831 80.3008 105.244 76.5107 105.522C74.0394 105.7 71.4926 105.391 69.0615 104.839C65.1506 103.951 62.2665 101.99 59.8707 99.5619C57.9127 97.5738 55.7031 95.7864 53.1764 94.2269C52.4214 93.7636 51.8023 93.2155 52.059 92.4241C52.3258 91.598 53.2771 91.4706 54.2183 91.3548C56.1209 91.1232 58.0084 90.8259 59.916 90.6252C68.2411 89.745 75.1971 92.4781 79.4905 98.2841C80.5676 99.7394 81.4384 101.26 82.0826 102.862C82.2034 103.156 82.2336 103.484 82.6514 103.685C84.4231 104.534 85.9935 105.58 87.3978 106.785L87.3927 106.769ZM106.293 63.8576C106.182 57.959 105.211 52.7166 104.078 47.4859C103.937 46.8412 103.61 46.957 103.107 47.2349C100.937 48.4355 98.7177 49.5936 96.5835 50.8328C87.5286 56.0983 79.8227 62.2555 74.8599 70.2233C74.6283 70.5939 74.3515 70.9143 74.4824 71.3891C76.2138 77.4923 83.6832 81.507 91.7465 80.3451C100.278 79.1136 103.942 75.8053 105.437 70.5553C106.122 68.1541 106.237 65.7182 106.288 63.8614L106.293 63.8576ZM73.4304 65.9808C74.4622 64.6837 75.3078 63.5449 76.2491 62.4563C79.0174 59.2483 82.4149 56.465 86.1244 53.8979C86.6428 53.5389 86.8844 53.3536 86.1495 52.9212C82.9584 51.049 79.7925 49.1574 76.4453 47.4511C76.1584 47.3044 75.9068 47.0458 75.4689 47.1307C73.9539 53.2995 73.0327 59.4954 73.4354 65.9769L73.4304 65.9808ZM122.208 101.654C112.348 99.7201 104.873 104.024 102.372 110.606C104.149 110.525 105.9 110.475 107.642 110.359C111.482 110.104 114.512 108.711 116.918 106.437C118.604 104.847 120.185 103.187 122.208 101.654ZM58.3557 93.837C60.9176 95.6822 62.6289 98.0061 65.1557 99.7935C68.2813 102.005 74.0948 103.264 78.2372 102.6C76.7624 99.5889 74.6535 96.9446 71.1151 95.1147C67.2394 93.1112 62.9863 92.9723 58.3557 93.837ZM94.6055 48.2386C93.0955 47.0921 91.6056 45.9765 90.146 44.8415C89.8037 44.5752 89.5923 44.5752 89.25 44.8454C87.9414 45.88 86.6126 46.8991 85.2586 47.9028C84.8358 48.2155 84.9113 48.3699 85.3392 48.6247C86.6579 49.4083 87.9464 50.2228 89.24 51.0335C89.5218 51.2111 89.7333 51.3153 90.0906 51.0837C91.5553 50.1379 93.0502 49.2153 94.6055 48.2386Z" fill="#DB9099"/>
<path d="M10.7967 249.861C9.78498 249.861 9 249.199 9 248.405C9 247.61 9.80242 246.948 10.7967 246.948H24.3149V243.585C24.3149 242.724 25.2743 242.062 26.4953 242.062C27.7163 242.062 28.6756 242.724 28.6756 243.585V246.948H42.1939C43.2056 246.948 43.9904 247.61 43.9904 248.405C43.9904 249.199 43.1881 249.861 42.1939 249.861H10.7967ZM11.9304 236.513C11.9304 233.997 14.3201 231.932 17.4599 231.932H34.7981C35.9319 231.932 36.804 231.164 36.804 230.157C36.804 229.151 35.9319 228.383 34.7981 228.383H17.1284C15.3318 228.383 13.4829 227.88 12.6456 226.635C12.1049 225.84 12.3491 224.887 13.3956 224.41C14.4073 223.96 15.6632 224.185 16.326 224.953C16.6574 225.337 17.2505 225.523 17.9657 225.523H35.5481C38.6879 225.523 41.0775 227.562 41.0775 230.065C41.0775 232.567 38.6879 234.607 35.5481 234.607H18.2099C17.0761 234.607 16.2039 235.401 16.2039 236.421C16.2039 237.44 17.0761 238.235 18.2099 238.235H39.56C40.5717 238.235 41.2693 238.897 41.2693 239.665C41.2693 240.433 40.5542 241.095 39.56 241.095H17.4599C14.3201 241.095 11.9304 239.029 11.9304 236.513Z" fill="#DB9099"/>
<path d="M52.8688 239.122C49.6942 239.122 47.8453 237.719 47.8453 235.309V227.814C46.8336 227.814 46.0486 227.205 46.0486 226.45C46.0486 225.695 46.851 225.086 47.8453 225.086H61.3286C62.5496 225.086 63.5089 225.814 63.5089 226.741V237.48C63.5089 238.407 62.5496 239.136 61.3286 239.136H52.8688V239.122ZM78.4924 248.524C79.5041 248.524 80.289 249.16 80.289 249.954C80.289 250.749 79.4867 251.385 78.4924 251.385H55.9736C52.799 251.385 50.95 249.981 50.95 247.571V243.122C50.95 242.261 51.9094 241.599 53.1304 241.599C54.3514 241.599 55.3108 242.261 55.3108 243.122V247.253C55.3108 248.074 55.9038 248.524 56.9853 248.524H78.5099H78.4924ZM52.0315 235.11C52.0315 235.931 52.6246 236.381 53.706 236.381H59.3227V227.814H52.0315V235.123V235.11ZM71.2013 231.588H74.9689V225.523C74.9689 224.662 75.9283 224 77.097 224C78.2657 224 79.225 224.662 79.225 225.523V242.777C79.225 243.638 78.2657 244.3 77.097 244.3C75.9283 244.3 74.9689 243.638 74.9689 242.777V234.448H71.2013V241.983C71.2013 242.843 70.2768 243.506 69.1081 243.506C67.9395 243.506 67.015 242.843 67.015 241.983V225.682C67.015 224.821 67.9395 224.159 69.1081 224.159C70.2768 224.159 71.2013 224.821 71.2013 225.682V231.588Z" fill="#DB9099"/>
<path d="M90.4582 235.176C90.4582 235.997 91.0513 236.448 92.1327 236.448H107.413C108.424 236.448 109.209 237.057 109.209 237.851C109.209 238.646 108.407 239.255 107.413 239.255H91.121C87.9464 239.255 86.0974 237.851 86.0974 235.441V227.867C85.0858 227.867 84.3008 227.258 84.3008 226.463C84.3008 225.668 85.1032 225.059 86.0974 225.059H104.273C105.285 225.059 106.07 225.668 106.07 226.463C106.07 227.258 105.267 227.867 104.273 227.867H90.4582V235.176ZM89.586 245.095C88.5743 245.095 87.7894 244.459 87.7894 243.664C87.7894 242.87 88.5918 242.234 89.586 242.234H114.32C115.541 242.234 116.5 242.963 116.5 243.89V250.312C116.5 251.173 115.541 251.835 114.32 251.835C113.099 251.835 112.14 251.173 112.14 250.312V245.095H89.5686H89.586ZM93.1443 233.428C92.2199 233.428 91.5047 232.859 91.5047 232.091C91.5047 231.323 92.2199 230.753 93.1443 230.753H103.61C104.535 230.753 105.25 231.323 105.25 232.091C105.25 232.859 104.535 233.428 103.61 233.428H93.1443ZM116.5 239.626C116.5 240.486 115.541 241.148 114.32 241.148C113.099 241.148 112.14 240.486 112.14 239.626V225.523C112.14 224.662 113.099 224 114.32 224C115.541 224 116.5 224.662 116.5 225.523V239.639V239.626Z" fill="#DB9099"/>
<path d="M136.246 245.042C136.246 245.863 136.839 246.313 137.92 246.313H147.252C148.264 246.313 149.049 246.922 149.049 247.717C149.049 248.511 148.246 249.12 147.252 249.12H136.996C133.821 249.12 131.972 247.717 131.972 245.306V228.184C130.96 228.184 130.176 227.575 130.176 226.781C130.176 225.986 130.978 225.377 131.972 225.377H146.031C147.043 225.377 147.828 225.986 147.828 226.781C147.828 227.575 147.025 228.184 146.031 228.184H136.228V245.028L136.246 245.042ZM155.346 249.557C155.346 250.418 154.421 251.08 153.252 251.08C152.084 251.08 151.159 250.418 151.159 249.557V238.434H145.473C144.461 238.434 143.676 237.798 143.676 237.004C143.676 236.209 144.479 235.574 145.473 235.574H151.159V225.682C151.159 224.821 152.084 224.159 153.252 224.159C154.421 224.159 155.346 224.821 155.346 225.682V249.557ZM163.387 249.875C163.387 250.736 162.427 251.398 161.259 251.398C160.09 251.398 159.131 250.736 159.131 249.875V225.523C159.131 224.662 160.09 224 161.259 224C162.427 224 163.387 224.662 163.387 225.523V249.875Z" fill="#DB9099"/>
<path d="M180.045 225.708C185.365 225.708 189.848 228.476 189.848 232.131V243.439C189.848 247.094 185.365 249.862 180.045 249.862C174.725 249.862 170.242 247.094 170.242 243.439V232.131C170.242 231.045 170.626 230.065 171.289 229.204C171.882 228.436 173.138 228.158 174.132 228.595C175.178 229.045 175.51 230.025 174.934 230.793C174.69 231.177 174.516 231.747 174.516 232.25V243.307C174.516 245.399 176.905 246.988 180.045 246.988C183.185 246.988 185.574 245.399 185.574 243.307V232.263C185.574 230.171 183.185 228.582 180.045 228.582H177.987C176.277 228.582 174.812 228.105 173.8 227.125C173.05 226.397 173.138 225.377 174.097 224.808C175.056 224.238 176.434 224.397 177.115 225.059C177.533 225.47 178.039 225.721 178.824 225.721H180.045V225.708ZM200.645 249.862C200.645 250.722 199.686 251.385 198.465 251.385C197.244 251.385 196.284 250.722 196.284 249.862V225.523C196.284 224.662 197.244 224 198.465 224C199.686 224 200.645 224.662 200.645 225.523V249.875V249.862Z" fill="#DB9099"/>
</svg>
