<svg width="99" height="84" viewBox="0 0 99 84" fill="none" xmlns="http://www.w3.org/2000/svg">
<path d="M33.7174 21.0572C39.066 21.1419 44.0817 22.4699 48.753 25.0565C49.2523 25.3337 49.6083 25.3914 50.1424 25.095C55.4755 22.1427 61.1956 20.7916 67.295 21.1534C68.0767 21.1996 68.336 20.9995 68.5992 20.2412C69.3345 18.0971 69.2107 16.1456 68.1232 14.1094C67.0898 12.1694 66.3623 10.0677 65.5069 8.03145C64.8955 6.57644 65.1354 5.84125 66.4706 5.07525C69.2029 3.51247 71.943 1.96894 74.6676 0.390761C75.461 -0.0672956 76.2273 -0.121186 77.0555 0.221394C82.9846 2.67719 88.9137 5.14069 94.8505 7.57724C95.7406 7.94292 96.2167 8.55494 96.4527 9.45951C97.2384 12.4927 98.0627 15.5182 98.8638 18.5475C99.2315 19.9409 98.8755 20.6646 97.5403 21.1919C94.7963 22.2774 92.0562 23.3821 89.2852 24.406C88.3022 24.7678 87.5398 25.249 87.0908 26.2305C86.758 26.9542 85.9608 27.6278 85.984 28.3014C86.0072 28.9981 87.0444 29.3946 87.5978 29.9643C96.1238 38.7366 99.2006 49.1218 95.938 60.8696C92.6406 72.7406 84.5752 80.1811 72.539 83.1181C64.702 85.0311 57.2055 83.7724 50.1463 79.9194C49.6161 79.6307 49.2484 79.6615 48.7491 79.9348C30.2188 90.0082 7.47001 80.1272 2.67488 59.6841C-0.127113 47.7284 3.39472 37.424 12.3851 29.0097C12.9192 28.5093 12.8921 28.2398 12.6057 27.6086C11.6962 25.5993 10.1907 24.483 8.10473 23.8132C5.84843 23.0934 3.68114 22.0888 1.47902 21.1958C0.136071 20.6492 -0.231634 19.9294 0.132162 18.5552C0.944895 15.4951 1.78862 12.4426 2.57813 9.37867C2.81808 8.45101 3.35216 7.89673 4.22295 7.53875C10.1017 5.12914 15.9766 2.70798 21.8399 0.259883C22.7533 -0.121189 23.5505 -0.0903934 24.402 0.406155C27.0956 1.97279 29.8124 3.49707 32.5138 5.04831C33.8606 5.822 34.116 6.57645 33.5123 8.00451C32.3551 10.7451 31.2096 13.4896 30.006 16.2072C29.6615 16.9809 29.5686 17.6968 29.8318 18.5013C30.1104 19.352 30.064 20.4798 30.6213 21.011C31.1554 21.5229 32.2739 21.0148 33.133 21.0533C33.3265 21.061 33.5201 21.0533 33.7136 21.0533L33.7174 21.0572ZM41.1017 32.5817C40.2773 32.3315 39.5537 32.1121 38.8261 31.8966C37.4599 31.4963 36.0589 31.2922 34.6424 31.2114C21.1472 30.4339 10.3455 42.0239 12.1374 55.346C13.9138 68.5565 27.3239 76.8939 40.0877 72.7521C40.9817 72.4596 40.9779 72.271 40.4476 71.5435C33.3188 61.728 32.0339 51.1773 36.5969 39.9491C37.6728 37.3009 39.2247 34.9105 41.0979 32.5779L41.1017 32.5817ZM65.0774 31.1883C63.2545 31.2191 61.0175 31.5886 58.8154 32.2661C57.9717 32.524 57.9369 32.7242 58.4594 33.4055C62.705 38.9599 64.9109 45.2418 64.969 52.2204C65.0309 59.4454 62.7939 65.9429 58.382 71.6821C57.875 72.3441 57.995 72.5019 58.7071 72.729C62.4689 73.9261 66.2655 74.1879 70.1395 73.3372C81.0263 70.9546 88.1861 61.012 86.7967 49.7492C85.4538 38.8829 76.235 31.2384 65.0812 31.1922L65.0774 31.1883ZM46.8876 77.8754C45.6608 76.9516 44.5268 76.0625 43.5399 75.0193C43.1297 74.5844 42.7891 74.6036 42.2782 74.8038C38.1759 76.405 33.9535 76.8669 29.5764 76.2203C16.5997 74.3072 7.31135 61.6087 9.50573 48.7176C11.8588 34.8836 25.0135 26.0612 38.7758 29.0828C49.0046 31.3269 56.9113 40.565 57.4686 50.8116C57.8208 57.2821 55.967 63.0021 51.8143 67.9791C51.4621 68.3987 51.4312 68.6181 51.8994 68.9337C52.7006 69.4688 53.4978 70.0153 54.2409 70.6235C55.0033 71.2471 55.4755 71.097 56.056 70.331C61.0485 63.745 63.0881 56.393 61.9154 48.2057C59.7365 32.9936 45.3202 22.0387 30.0253 23.9518C28.9068 24.0904 28.3998 23.7747 28.1134 22.697C27.8387 21.6769 27.5678 20.6569 27.351 19.6253C27.2465 19.1287 27.0685 19.1095 26.6544 19.2827C22.5946 20.9725 18.5348 22.6585 14.4595 24.3175C13.9293 24.533 13.9641 24.7332 14.2234 25.1335C14.6801 25.8302 15.0942 26.5539 15.5277 27.266C16.5146 28.8903 16.4759 29.1213 15.0246 30.2992C4.71834 38.6442 1.52544 53.3598 7.4584 65.1807C13.194 76.6052 25.2689 82.7793 38.0752 80.8316C41.1481 80.3659 44.0469 79.3728 46.8915 77.8793L46.8876 77.8754ZM52.0388 27.1236C53.2927 28.0782 54.4112 28.9481 55.3826 29.972C55.7812 30.3915 56.1024 30.43 56.6365 30.2222C60.8008 28.5785 65.089 28.1243 69.5242 28.8326C82.8182 30.9574 91.9633 43.9754 89.2929 57.0281C86.1271 72.5173 69.7951 80.8047 55.3439 74.2649C45.6453 69.8729 39.9794 59.2414 41.7209 48.7446C42.4447 44.3757 44.2056 40.4919 47.0579 37.1046C47.4681 36.6196 47.4642 36.3771 46.9572 36.0037C46.129 35.3917 45.2815 34.8143 44.4378 34.2292C43.8225 33.8058 43.4935 33.9097 43.0523 34.4756C37.7966 41.2078 35.7531 48.7792 37.1038 57.2052C39.7897 73.9454 56.6094 84.6963 73.1079 80.2466C87.8494 76.2703 96.9404 61.6087 93.8481 46.7969C92.4239 39.9838 88.9833 34.3986 83.5458 30.022C82.555 29.2252 82.4621 28.7248 83.1084 27.6393C83.6309 26.7579 84.1495 25.8726 84.7029 25.0103C84.9274 24.6562 84.8965 24.483 84.4862 24.329C83.5574 23.9749 82.6402 23.5861 81.7191 23.2089C78.6307 21.9425 75.5345 20.6915 72.4616 19.3866C71.7843 19.0979 71.5367 19.1903 71.4089 19.9178C71.2425 20.8609 70.991 21.7924 70.751 22.72C70.4879 23.7401 69.9499 24.075 68.9166 23.9787C68.0497 23.8979 67.1827 23.8248 66.3158 23.8017C61.331 23.6747 56.6288 24.7678 52.0465 27.1312L52.0388 27.1236ZM49.4574 66.5549C49.7167 66.2547 49.9257 66.016 50.1269 65.7697C56.3695 58.0866 56.3386 46.8084 50.096 39.1254C49.5193 38.4171 49.2948 38.5673 48.8111 39.1754C42.3479 47.278 42.5801 58.6063 49.4574 66.5549ZM87.7449 8.08149C87.9113 7.5349 87.5243 7.47716 87.2457 7.35783C85.7053 6.71502 84.1534 6.09914 82.6247 5.43323C82.1564 5.22922 81.9009 5.32545 81.5952 5.71422C80.2871 7.38093 78.9519 9.02455 77.6128 10.6643C77.3496 10.9876 77.2722 11.3341 77.2606 11.7267C77.2103 13.7437 77.1677 15.7645 77.0826 17.7815C77.0633 18.2588 77.2529 18.459 77.6593 18.6168C78.8822 19.0979 80.109 19.5868 81.3088 20.118C81.7655 20.322 82.0441 20.2642 82.3808 19.8986C83.7586 18.4166 85.1635 16.9616 86.5606 15.4951C86.758 15.2872 86.967 15.0871 87.0018 14.7714C87.2495 12.5119 87.5049 10.2524 87.7487 8.07379L87.7449 8.08149ZM21.9096 14.8138C21.8515 14.8138 21.7974 14.8138 21.7393 14.8138C21.7393 13.7591 21.7393 12.7044 21.7393 11.6497C21.7393 11.284 21.6464 10.9722 21.4103 10.6797C20.0558 9.013 18.7051 7.34629 17.3776 5.66034C17.0874 5.29081 16.8281 5.24847 16.414 5.42938C14.8852 6.0876 13.3449 6.72656 11.7968 7.34629C11.3402 7.5272 11.1853 7.74276 11.255 8.2624C11.5337 10.3525 11.7581 12.4503 11.9865 14.5482C12.0213 14.8792 12.1103 15.1563 12.3503 15.4065C13.7939 16.9116 15.2336 18.4166 16.6539 19.9448C16.979 20.295 17.2576 20.2796 17.6601 20.1026C18.8638 19.5791 20.079 19.0748 21.3058 18.6091C21.8128 18.4166 21.956 18.1318 21.9251 17.6006C21.867 16.6768 21.9096 15.7453 21.9096 14.8176V14.8138ZM79.3815 4.17069C79.2305 4.08215 79.1764 4.04366 79.1183 4.01672C77.1342 3.10317 75.203 3.18914 73.3246 4.27462C72.0978 4.98287 70.871 5.68728 69.5474 6.44942C71.4437 7.23466 73.1969 7.94292 74.9346 8.68582C75.3371 8.85903 75.5965 8.90522 75.9099 8.50105C77.0245 7.06145 78.1856 5.65264 79.3815 4.17454V4.17069ZM95.7213 17.2619C95.0788 14.8561 94.4945 12.6736 93.9101 10.4911C93.8443 10.237 93.7436 10.0369 93.4611 9.92526C92.5942 9.58653 91.735 9.2247 90.8797 8.86288C90.5237 8.71276 90.3766 8.78975 90.334 9.20161C90.1599 10.8914 89.9625 12.5774 89.7535 14.2633C89.7071 14.6405 89.8115 14.8484 90.1715 14.9947C91.9556 15.7106 93.732 16.4497 95.7213 17.2657V17.2619ZM29.4874 6.44557C27.324 5.20998 25.296 4.05136 23.268 2.8966C23.1054 2.80422 22.9506 2.73878 22.73 2.83501C21.7199 3.27767 20.6982 3.68953 19.6107 4.13989C20.8298 5.65263 21.9792 7.0653 23.1093 8.49336C23.3725 8.82439 23.5776 8.89752 23.9917 8.71661C25.7565 7.95446 27.5407 7.24236 29.4874 6.44173V6.44557ZM3.2786 17.2734C5.30657 16.4381 7.13331 15.6837 8.96002 14.9331C9.21932 14.8253 9.22319 14.6328 9.1961 14.3827C9.00646 12.6967 8.82069 11.0107 8.66201 9.32094C8.61557 8.83209 8.44529 8.71276 7.99248 8.91677C7.20297 9.26705 6.39795 9.59423 5.59683 9.92141C5.3801 10.0099 5.21759 10.1062 5.14792 10.3602C4.55192 12.5966 3.94428 14.8292 3.28248 17.2734H3.2786ZM14.3705 21.4421C13.1011 20.1026 11.8858 18.8285 10.6745 17.5467C10.4694 17.3273 10.2798 17.2888 9.99337 17.4081C8.30985 18.1241 6.62243 18.8208 4.73766 19.606C7.16425 20.5722 9.39735 21.4575 11.6227 22.3582C11.8626 22.4545 12.0562 22.4083 12.2613 22.3236C12.9308 22.0464 13.6042 21.7616 14.3666 21.4421H14.3705ZM68.9088 9.10538C69.7525 11.0993 70.604 12.8468 71.2193 14.6713C71.6721 16.0109 72.5468 16.6575 73.8007 17.0502C74.2845 17.2041 74.4238 17.1387 74.4277 16.6344C74.447 15.0678 74.4934 13.4973 74.536 11.9307C74.5438 11.6651 74.5438 11.4342 74.2303 11.3071C72.5236 10.6104 70.8246 9.90217 68.9088 9.10538ZM30.1143 9.10923C28.2257 9.89062 26.5692 10.5719 24.9167 11.2532C24.6729 11.3533 24.46 11.4457 24.46 11.7806C24.4716 13.5512 24.4639 15.3257 24.4639 17.2426C25.1295 16.9886 25.5359 16.8846 25.8959 16.6883C26.3796 16.4266 27.0143 16.4304 27.2852 15.7722C28.1676 13.6205 29.1004 11.4842 30.1143 9.10923ZM94.2584 19.5791C92.4239 18.8246 90.7907 18.1626 89.1652 17.4813C88.8518 17.3504 88.6118 17.2426 88.3138 17.5583C87.1179 18.8477 85.8911 20.1141 84.5559 21.5152C85.5931 21.6846 86.3245 22.6084 87.2689 22.2812C89.5639 21.4845 91.8047 20.5375 94.2584 19.5791Z" fill="#0D3F39"/>
</svg>
