<svg width="174" height="165" viewBox="0 0 174 165" fill="none" xmlns="http://www.w3.org/2000/svg">
<path d="M108.039 107.003H66.0945C66.5592 107.584 66.9214 108.03 67.2767 108.482C69.115 110.775 70.0921 113.306 70.0853 116.232C70.0443 130.355 70.0717 144.478 70.058 158.602C70.058 162.709 67.6253 164.995 63.3133 164.995C53.0835 165.002 42.8538 165.002 32.624 164.995C28.4487 164.995 26.057 162.644 25.975 158.66C25.893 154.475 26.262 150.284 25.7085 146.112C25.114 141.637 23.2416 137.678 20.3989 134.094C15.5949 128.037 10.8525 121.947 6.00067 115.928C1.9279 110.878 -0.0469863 105.26 0.000848293 98.8857C0.103351 85.5113 0.0281823 72.1435 0.0281823 58.7692C0.0281823 52.7117 4.61347 47.6552 10.6201 47.0804C16.5858 46.5057 22.3669 50.8001 23.5901 56.7156C24.0616 58.9952 24.0616 59.0146 26.3714 58.4075C28.7563 57.7811 31.107 57.8328 33.3689 58.7757C34.4417 59.2212 34.7356 59.0404 34.7219 57.9297C34.6672 54.6038 34.6809 51.2716 34.7219 47.9393C34.7287 47.1967 34.4964 46.8286 33.7242 46.525C31.4897 45.6532 30.4646 43.9225 30.451 41.6945C30.4168 36.7542 30.4373 31.8139 30.451 26.8736C30.451 25.737 30.6833 24.6263 31.1411 23.5736C31.9065 21.8171 33.2459 20.8549 35.3369 20.8678C39.8265 20.8936 44.3162 20.829 48.8058 20.9001C50.0358 20.9194 50.316 20.5578 50.2681 19.4535C50.1178 16.1793 50.3091 12.9181 50.8422 9.66334C52.2635 1.06142 61.1608 -1.42489 67.2631 0.764333C71.534 2.29486 74.5749 5.18154 77.2878 8.48153C78.2309 9.62458 78.8937 11.1616 80.1101 11.8526C81.3333 12.55 82.7068 11.1293 84.1213 10.8968C87.0734 10.3995 89.9025 10.6191 92.6017 11.8074C93.4969 12.2013 93.9411 12.1173 94.5151 11.3553C96.2167 9.07566 97.966 6.82187 100.098 4.87159C101.991 3.14087 104.137 1.80409 106.59 0.8354C112.631 -1.54111 121.89 1.06141 123.202 9.81832C123.681 13.0214 123.933 16.2245 123.776 19.447C123.722 20.5578 124.009 20.913 125.239 20.8936C129.557 20.8226 133.876 20.8549 138.195 20.8678C141.174 20.8742 142.691 22.0302 143.293 24.8007C143.484 25.6854 143.593 26.6089 143.593 27.513C143.621 32.0787 143.593 36.6444 143.614 41.2102C143.628 43.7029 142.637 45.6015 140.142 46.5961C139.48 46.8608 139.322 47.1966 139.329 47.7908C139.343 51.2264 139.336 54.662 139.329 58.104C139.329 58.6723 139.309 59.3181 140.211 58.9177C143.491 57.4712 146.73 57.8845 150.051 59.189C150.338 56.2183 151.185 53.6029 153.099 51.3491C156.297 47.5841 161.299 46.1117 165.898 47.6293C170.613 49.1857 173.948 53.506 173.961 58.1557C173.989 72.066 174.009 85.9763 173.996 99.8866C173.996 105.654 172.041 110.82 168.392 115.431C163.493 121.617 158.641 127.836 153.693 133.984C149.839 138.776 147.905 144.11 148.035 150.142C148.103 153.042 148.069 155.941 148.035 158.841C148.001 162.561 145.452 164.982 141.509 164.989C131.163 165.002 120.817 165.002 110.478 164.989C106.453 164.989 103.98 162.69 103.973 158.88C103.945 144.543 103.98 130.2 103.952 115.863C103.945 112.434 105.565 109.709 108.018 106.997L108.039 107.003ZM63.5661 136.626C63.5661 129.858 63.5457 123.09 63.5798 116.322C63.5867 114.578 63.1288 113.067 61.8851 111.743C56.1996 105.673 50.5552 99.5638 44.8628 93.4998C42.5394 91.0264 39.0954 90.71 36.854 92.6796C34.4554 94.7914 34.4076 97.9493 36.7583 100.41C41.7126 105.589 46.6874 110.749 51.628 115.941C52.9879 117.368 52.981 119.26 51.6963 120.423C50.357 121.63 48.2318 121.546 46.8446 120.106C38.3163 111.246 29.8018 102.379 21.3282 93.4804C19.3943 91.4526 18.2395 89.0051 17.7201 86.3121C17.1051 83.1155 17.4536 79.8865 17.4263 76.6705C17.3648 70.7099 17.4263 64.7492 17.399 58.7886C17.3853 56.0052 15.0072 53.4931 12.2602 53.2089C9.82743 52.9571 7.3742 54.6297 6.71135 57.0772C6.52002 57.7876 6.52685 58.5625 6.52685 59.3117C6.52002 72.5762 6.56785 85.8407 6.49268 99.1052C6.46535 103.981 8.00972 108.243 11.1053 112.105C16.1416 118.395 21.1164 124.73 26.1049 131.052C28.9954 134.714 30.9088 138.789 31.8723 143.277C32.8769 147.966 32.3848 152.699 32.4463 157.414C32.46 158.628 32.7812 158.912 34.0454 158.905C43.3663 158.854 52.6872 158.854 62.0081 158.905C63.2655 158.912 63.614 158.647 63.6003 157.42C63.532 150.491 63.5661 143.561 63.5661 136.639V136.626ZM167.524 79.6669C167.524 72.6343 167.538 65.6016 167.524 58.5625C167.524 56.2248 166.144 54.281 164.026 53.506C160.52 52.2144 156.673 54.9526 156.652 58.8273C156.618 66.777 156.618 74.7202 156.652 82.6699C156.673 87.0483 155.217 90.9102 152.128 94.1456C143.88 102.799 135.571 111.408 127.282 120.035C126.742 120.604 126.134 121.081 125.293 121.178C123.845 121.353 122.539 121.114 121.794 119.771C121.022 118.376 121.282 117.103 122.403 115.935C127.412 110.729 132.393 105.511 137.402 100.306C138.099 99.5767 138.673 98.8082 138.885 97.8201C139.398 95.4178 138.263 93.009 136.097 91.9305C133.938 90.8585 131.156 91.3945 129.305 93.3706C123.462 99.596 117.66 105.854 111.838 112.099C110.847 113.164 110.478 114.41 110.478 115.805C110.478 129.767 110.492 143.723 110.458 157.685C110.458 158.563 110.649 158.88 111.654 158.873C121.2 158.834 130.746 158.834 140.293 158.873C141.413 158.873 141.591 158.511 141.571 157.581C141.516 154.74 141.571 151.892 141.55 149.044C141.509 142.438 143.628 136.496 147.789 131.207C152.839 124.795 157.889 118.382 162.987 112.002C166.076 108.133 167.579 103.826 167.531 98.9761C167.47 92.5311 167.517 86.0926 167.517 79.6476L167.524 79.6669ZM75.2856 77.7619C75.2856 71.6463 75.1626 65.5241 75.3403 59.4085C75.4291 56.3539 74.8483 53.6352 73.1536 51.0262C72.5181 50.0446 71.9509 49.825 70.8848 50.0058C69.2653 50.29 67.6389 50.5354 66.0057 50.7097C64.024 50.9229 62.5206 49.8637 62.7325 48.1524C62.8965 46.8092 62.2405 46.9512 61.3521 46.9512C55.1063 46.9642 48.8604 46.9835 42.6078 46.9318C41.4666 46.9254 40.9814 47.1514 41.0634 48.3332C41.1727 49.8315 41.0907 51.3361 41.0907 52.8408C41.0907 63.1412 41.0907 73.448 41.0907 83.7483C41.0907 84.4393 40.7832 85.253 42.1021 85.337C44.9175 85.5178 47.1316 86.8998 48.9698 88.8243C52.4685 92.4859 55.9536 96.1669 59.3772 99.8931C60.0401 100.61 60.6892 100.894 61.6869 100.881C65.664 100.829 69.6411 100.81 73.6114 100.888C74.9098 100.913 75.3266 100.636 75.313 99.3312C75.2378 92.1436 75.2788 84.9495 75.2788 77.7619H75.2856ZM98.7655 77.6908C98.7655 84.943 98.7861 92.1953 98.7382 99.4411C98.7314 100.526 98.9569 100.913 100.207 100.894C104.355 100.817 108.503 100.842 112.658 100.881C113.478 100.888 113.991 100.623 114.524 100.048C118.05 96.2508 121.596 92.4794 125.17 88.7338C126.974 86.8481 129.147 85.5372 131.908 85.337C132.694 85.2789 132.974 85.027 132.974 84.265C132.954 72.1823 132.954 60.0995 132.974 48.0103C132.974 47.2935 132.824 46.9448 131.949 46.9448C125.355 46.9706 118.76 46.9706 112.166 46.9448C111.414 46.9448 111.271 47.1256 111.278 47.8489C111.305 50.0187 110.123 50.9487 107.82 50.671C106.187 50.4773 104.567 50.1996 102.934 49.9929C102.449 49.9348 101.724 49.6442 101.506 50.1221C100.57 52.1563 98.7587 53.8418 98.7655 56.2506C98.7792 63.3931 98.7655 70.5355 98.7655 77.6779V77.6908ZM92.3762 76.3734C92.3762 68.8048 92.3694 61.2361 92.3899 53.6675C92.3899 52.6794 92.2259 51.7753 91.8022 50.8712C89.8547 46.7188 89.8683 46.7059 85.037 46.9642C84.668 46.9835 84.176 46.8156 83.9847 47.2677C83.2057 49.1469 81.716 50.8453 81.7091 52.9183C81.6476 68.54 81.6818 84.1616 81.6613 99.7768C81.6613 100.61 81.9005 100.888 82.8025 100.875C85.4744 100.823 88.1463 100.791 90.8113 100.888C92.0824 100.933 92.4241 100.623 92.4172 99.3958C92.3489 91.7174 92.3831 84.0454 92.3831 76.367L92.3762 76.3734ZM102.954 23.5607C104.492 24.6134 105.845 25.5045 107.157 26.4345C108.77 27.5775 109.193 29.2953 108.244 30.6515C107.287 32.0141 105.189 32.3693 103.542 31.3813C102.49 30.7548 101.506 30.0186 100.46 29.3729C100.139 29.1727 99.7222 28.585 99.3601 29.0822C98.9979 29.5795 98.2735 30.0509 98.8339 30.9163C100.822 33.9838 103.399 36.3926 107.055 37.5873C111.906 39.163 114.961 37.6067 116.362 32.957C117.284 29.883 117.407 26.7122 117.619 23.5543C117.899 19.3244 118.344 15.088 117.366 10.8839C116.164 5.69174 112.125 4.13539 107.499 7.13185C103.925 9.44378 101.437 12.7437 98.8544 15.9469C98.1369 16.8316 98.8612 17.3676 99.2644 17.923C99.8042 18.6721 100.207 17.8584 100.583 17.6324C101.54 17.0576 102.428 16.3795 103.358 15.7725C105.052 14.6617 106.904 14.8619 108.039 16.2568C109.187 17.6711 108.824 19.5245 107.116 20.7386C105.811 21.6685 104.465 22.5469 102.954 23.5607ZM70.9327 23.6641C70.837 23.4639 70.8302 23.3993 70.796 23.3734C69.6001 22.5597 68.4043 21.7461 67.2084 20.9324C65.2062 19.5698 64.7347 17.8326 65.9442 16.2762C67.1127 14.7715 69.0671 14.6682 71.0488 15.9985C71.7869 16.4958 72.5044 17.0318 73.2766 17.4774C73.7139 17.7292 74.1444 18.5688 74.7321 17.923C75.2719 17.3288 75.8665 16.6443 75.0259 15.6821C73.2629 13.6479 71.6297 11.5103 69.6616 9.63748C68.1719 8.2232 66.5866 6.93165 64.6254 6.11149C61.8031 4.93615 59.1585 5.78214 57.6757 8.33301C56.842 9.76666 56.5071 11.3424 56.3295 12.9504C55.7418 18.22 56.3636 23.4639 56.8283 28.7012C56.9855 30.5094 57.375 32.3112 58.0378 34.0354C59.261 37.2256 60.8942 38.3622 64.4818 38.02C69.4908 37.5485 72.8187 34.6942 75.2514 30.7419C75.7093 29.9928 75.0191 29.502 74.6638 29.0564C74.2879 28.5914 73.8847 29.1985 73.5499 29.3987C72.5522 30.0122 71.6092 30.7096 70.6115 31.3167C68.8895 32.3693 66.7779 32.04 65.7734 30.6063C64.8099 29.2308 65.2404 27.6034 66.9146 26.4216C68.2334 25.4917 69.5796 24.594 70.9463 23.6576L70.9327 23.6641ZM144.81 92.6925C148.09 89.7155 150.263 86.4994 150.16 82.1662C150.065 77.9815 150.154 73.7967 150.133 69.612C150.119 66.4799 147.782 64.1099 144.769 64.1163C141.7 64.1228 139.377 66.4089 139.35 69.5797C139.309 74.9462 139.336 80.3128 139.336 85.6728C139.336 86.2153 139.302 86.6931 139.958 87.0225C142.343 88.2043 143.716 90.2127 144.81 92.6925ZM29.1868 92.6603C30.9498 89.2763 31.1753 88.9792 34.0864 87.0354C34.5921 86.6996 34.7082 86.3573 34.7014 85.8407C34.6877 80.3708 34.7424 74.8946 34.6741 69.4247C34.6331 66.3185 32.1525 64.0518 29.0843 64.1228C26.1732 64.1874 23.9181 66.5639 23.9045 69.6249C23.8908 73.8613 23.9591 78.1041 23.884 82.3405C23.8088 86.6092 25.9955 89.7607 29.1868 92.6603ZM118.959 40.8808C124.849 40.8808 130.453 40.8614 136.056 40.9002C136.979 40.9067 137.19 40.6225 137.184 39.8023C137.143 36.102 137.122 32.4081 137.184 28.7077C137.211 27.3709 136.698 26.9059 135.304 26.9318C131.792 26.9899 128.273 26.9963 124.753 26.9318C123.681 26.9124 123.496 27.2288 123.414 28.1781C123.045 32.647 121.999 36.935 118.952 40.8808H118.959ZM55.0584 40.8808C52.0175 36.8898 50.9652 32.5501 50.6098 28.0296C50.5483 27.2288 50.398 26.9253 49.4686 26.9382C45.84 26.9899 42.2114 26.9834 38.5828 26.9447C37.3665 26.9318 36.8471 27.3192 36.8676 28.5333C36.9223 32.2853 36.9086 36.0374 36.8676 39.7894C36.8608 40.5773 37.0111 40.9131 37.9678 40.9067C43.5713 40.8615 49.1816 40.8873 55.0584 40.8873V40.8808ZM94.2213 23.4961C94.2008 19.7376 90.9138 16.696 86.9163 16.7412C82.9938 16.7799 79.8436 19.8022 79.8367 23.5349C79.8299 27.3773 82.9801 30.3545 87.0393 30.3415C91.071 30.3351 94.2486 27.3063 94.2213 23.4961ZM71.9167 43.774C74.4724 43.1863 76.2355 44.1162 77.6637 45.9244C79.1397 42.7471 80.5269 39.7765 81.9141 36.7994C82.1806 36.2247 82.6795 35.5595 81.5656 35.327C80.7524 35.1591 80.0486 33.8288 79.0372 35.2237C77.5338 37.2902 75.9143 39.3051 73.8643 40.926C72.9486 41.6493 72.3882 42.4888 71.9235 43.7675L71.9167 43.774ZM102.216 43.7675C101.806 42.9603 101.677 42.2822 101.253 41.927C98.7177 39.8282 96.6403 37.3612 94.5698 34.8685C93.8864 34.0483 93.1347 35.2043 92.3899 35.3593C91.7065 35.5014 91.7134 35.9082 91.973 36.4572C93.4422 39.5569 94.8841 42.6761 96.408 45.9373C97.8362 44.0064 99.6334 43.2379 102.216 43.761V43.7675Z" fill="#767676"/>
</svg>
