<svg width="248" height="140" viewBox="0 0 248 140" fill="none" xmlns="http://www.w3.org/2000/svg">
<g clip-path="url(#clip0_4166_4)">
<path d="M141.93 0C134.56 0 128.05 3.63 124.06 9.2C124.06 9.2 124.06 9.2 124.06 9.19C124.06 9.19 124.06 9.19 124.06 9.2C120.06 3.63 113.54 0 106.17 0C92.5801 0 81.8201 12.23 85.2801 25.41C85.2901 25.46 85.3101 25.51 85.3201 25.57C89.2901 40.57 95.8801 55.21 101.52 69.64C107.61 85.25 113.84 100.8 119.86 116.43C120.6 118.34 122.32 119.3 124.05 119.3C125.77 119.3 127.5 118.35 128.24 116.43C134.27 100.8 140.49 85.24 146.58 69.64C152.22 55.2 158.81 40.56 162.78 25.57C162.79 25.52 162.81 25.47 162.82 25.41C166.29 12.23 155.53 0 141.93 0ZM124.05 54.24C115.87 54.1 109.28 47.42 109.28 39.21C109.28 31 115.87 24.32 124.05 24.18C132.23 24.32 138.82 31 138.82 39.21C138.82 47.42 132.23 54.1 124.05 54.24Z" fill="#383838" fill-opacity="0.77"/>
<path d="M139.79 112.94C154.94 114.89 165.6 119.56 165.6 125.02C165.6 132.23 147 138.07 124.05 138.07C101.1 138.07 82.5 132.23 82.5 125.02C82.5 119.77 92.38 115.24 106.61 113.17" stroke="#383838" stroke-opacity="0.77" stroke-width="3" stroke-miterlimit="10" stroke-linecap="round"/>
</g>
<path d="M49.829 0C43.9227 0 38.7056 2.93896 35.5081 7.44859C35.5081 7.44859 35.5081 7.44859 35.5081 7.4405C35.5081 7.4405 35.5081 7.4405 35.5081 7.44859C32.3025 2.93896 27.0774 0 21.1711 0C10.2802 0 1.65721 9.90177 4.43003 20.5727C4.43804 20.6132 4.45407 20.6537 4.46209 20.7022C7.64362 32.8467 12.9248 44.6996 17.4447 56.3826C22.3252 69.0209 27.3178 81.6107 32.1422 94.2652C32.7353 95.8116 34.1137 96.5888 35.5001 96.5888C36.8785 96.5888 38.2649 95.8197 38.8579 94.2652C43.6903 81.6107 48.675 69.0128 53.5555 56.3826C58.0753 44.6916 63.3565 32.8386 66.538 20.7022C66.5461 20.6617 66.5621 20.6213 66.5701 20.5727C69.3509 9.90177 60.7279 0 49.829 0ZM35.5001 43.9143C28.9447 43.801 23.6635 38.3926 23.6635 31.7456C23.6635 25.0985 28.9447 19.6902 35.5001 19.5768C42.0555 19.6902 47.3367 25.0985 47.3367 31.7456C47.3367 38.3926 42.0555 43.801 35.5001 43.9143Z" fill="#383838" fill-opacity="0.56"/>
<path d="M48.114 91.4396C60.2551 93.0184 68.798 96.7993 68.798 101.22C68.798 107.057 53.892 111.786 35.5001 111.786C17.1081 111.786 2.20215 107.057 2.20215 101.22C2.20215 96.9693 10.1199 93.3017 21.5238 91.6258" stroke="#383838" stroke-opacity="0.56" stroke-width="3" stroke-miterlimit="10" stroke-linecap="round"/>
<path d="M226.829 0C220.923 0 215.706 2.91295 212.508 7.38267C212.508 7.38267 212.508 7.38267 212.508 7.37465C212.508 7.37465 212.508 7.37465 212.508 7.38267C209.303 2.91295 204.077 0 198.171 0C187.28 0 178.657 9.81414 181.43 20.3906C181.438 20.4307 181.454 20.4709 181.462 20.519C184.644 32.556 189.925 44.3041 194.445 55.8836C199.325 68.4101 204.318 80.8884 209.142 93.431C209.735 94.9637 211.114 95.734 212.5 95.734C213.878 95.734 215.265 94.9717 215.858 93.431C220.69 80.8884 225.675 68.4021 230.555 55.8836C235.075 44.2961 240.357 32.548 243.538 20.519C243.546 20.4789 243.562 20.4388 243.57 20.3906C246.351 9.81414 237.728 0 226.829 0ZM212.5 43.5257C205.945 43.4133 200.663 38.0529 200.663 31.4646C200.663 24.8764 205.945 19.5159 212.5 19.4036C219.055 19.5159 224.337 24.8764 224.337 31.4646C224.337 38.0529 219.055 43.4133 212.5 43.5257Z" fill="#383838" fill-opacity="0.56"/>
<path d="M225.114 90.6304C237.255 92.1952 245.798 95.9427 245.798 100.324C245.798 106.11 230.892 110.796 212.5 110.796C194.108 110.796 179.202 106.11 179.202 100.324C179.202 96.1112 187.12 92.476 198.524 90.8149" stroke="#383838" stroke-opacity="0.56" stroke-width="3" stroke-miterlimit="10" stroke-linecap="round"/>
<defs>
<clipPath id="clip0_4166_4">
<rect width="86.1" height="139.57" fill="white" transform="translate(81)"/>
</clipPath>
</defs>
</svg>
