<svg width="175" height="64" viewBox="0 0 175 64" fill="none" xmlns="http://www.w3.org/2000/svg">
<path d="M0.0454545 50V3.45454H9.88636V41.8864H29.8409V50H0.0454545ZM50.8609 50.6818C47.3306 50.6818 44.2775 49.9318 41.7018 48.4318C39.1412 46.9167 37.1639 44.8106 35.77 42.1136C34.376 39.4015 33.679 36.2576 33.679 32.6818C33.679 29.0758 34.376 25.9242 35.77 23.2273C37.1639 20.5152 39.1412 18.4091 41.7018 16.9091C44.2775 15.3939 47.3306 14.6364 50.8609 14.6364C54.3912 14.6364 57.4366 15.3939 59.9972 16.9091C62.573 18.4091 64.5578 20.5152 65.9518 23.2273C67.3457 25.9242 68.0427 29.0758 68.0427 32.6818C68.0427 36.2576 67.3457 39.4015 65.9518 42.1136C64.5578 44.8106 62.573 46.9167 59.9972 48.4318C57.4366 49.9318 54.3912 50.6818 50.8609 50.6818ZM50.9063 43.1818C52.5124 43.1818 53.8533 42.7273 54.929 41.8182C56.0048 40.8939 56.8154 39.6364 57.3609 38.0455C57.9215 36.4545 58.2018 34.6439 58.2018 32.6136C58.2018 30.5833 57.9215 28.7727 57.3609 27.1818C56.8154 25.5909 56.0048 24.3333 54.929 23.4091C53.8533 22.4848 52.5124 22.0227 50.9063 22.0227C49.2851 22.0227 47.9215 22.4848 46.8154 23.4091C45.7245 24.3333 44.8987 25.5909 44.3381 27.1818C43.7927 28.7727 43.52 30.5833 43.52 32.6136C43.52 34.6439 43.7927 36.4545 44.3381 38.0455C44.8987 39.6364 45.7245 40.8939 46.8154 41.8182C47.9215 42.7273 49.2851 43.1818 50.9063 43.1818ZM88.9774 63.8182C85.841 63.8182 83.1516 63.3864 80.9092 62.5227C78.682 61.6742 76.9092 60.5152 75.591 59.0455C74.2729 57.5758 73.4168 55.9242 73.0229 54.0909L81.9774 52.8864C82.2501 53.5833 82.682 54.2348 83.2729 54.8409C83.8638 55.447 84.6441 55.9318 85.6138 56.2955C86.5986 56.6742 87.7956 56.8636 89.2047 56.8636C91.3107 56.8636 93.0456 56.3485 94.4092 55.3182C95.788 54.303 96.4774 52.5985 96.4774 50.2045V43.8182H96.0683C95.6441 44.7879 95.0077 45.7045 94.1592 46.5682C93.3107 47.4318 92.2198 48.1364 90.8865 48.6818C89.5532 49.2273 87.9623 49.5 86.1138 49.5C83.4926 49.5 81.1062 48.8939 78.9547 47.6818C76.8183 46.4545 75.1138 44.5833 73.841 42.0682C72.5835 39.5379 71.9547 36.3409 71.9547 32.4773C71.9547 28.5227 72.5986 25.2197 73.8865 22.5682C75.1744 19.9167 76.8865 17.9318 79.0229 16.6136C81.1744 15.2955 83.5304 14.6364 86.091 14.6364C88.0456 14.6364 89.682 14.9697 91.0001 15.6364C92.3183 16.2879 93.3789 17.1061 94.182 18.0909C95.0001 19.0606 95.6289 20.0152 96.0683 20.9545H96.432V15.0909H106.046V50.3409C106.046 53.3106 105.318 55.7955 103.864 57.7955C102.409 59.7955 100.394 61.2955 97.8183 62.2955C95.2577 63.3106 92.3107 63.8182 88.9774 63.8182ZM89.182 42.2273C90.7426 42.2273 92.0607 41.8409 93.1365 41.0682C94.2274 40.2803 95.0607 39.1591 95.6365 37.7045C96.2274 36.2348 96.5229 34.4773 96.5229 32.4318C96.5229 30.3864 96.235 28.6136 95.6592 27.1136C95.0835 25.5985 94.2501 24.4242 93.1592 23.5909C92.0683 22.7576 90.7426 22.3409 89.182 22.3409C87.591 22.3409 86.2501 22.7727 85.1592 23.6364C84.0683 24.4848 83.2426 25.6667 82.682 27.1818C82.1213 28.697 81.841 30.447 81.841 32.4318C81.841 34.447 82.1213 36.1894 82.682 37.6591C83.2577 39.1136 84.0835 40.2424 85.1592 41.0455C86.2501 41.8333 87.591 42.2273 89.182 42.2273ZM126.387 50V15.0909H136.068V50H126.387ZM131.25 10.5909C129.811 10.5909 128.576 10.1136 127.546 9.15909C126.531 8.18939 126.023 7.0303 126.023 5.68182C126.023 4.34848 126.531 3.20454 127.546 2.25C128.576 1.2803 129.811 0.795452 131.25 0.795452C132.69 0.795452 133.917 1.2803 134.932 2.25C135.962 3.20454 136.478 4.34848 136.478 5.68182C136.478 7.0303 135.962 8.18939 134.932 9.15909C133.917 10.1136 132.69 10.5909 131.25 10.5909ZM152.418 29.8182V50H142.736V15.0909H151.963V21.25H152.372C153.145 19.2197 154.441 17.6136 156.259 16.4318C158.077 15.2348 160.282 14.6364 162.872 14.6364C165.297 14.6364 167.41 15.1667 169.213 16.2273C171.016 17.2879 172.418 18.803 173.418 20.7727C174.418 22.7273 174.918 25.0606 174.918 27.7727V50H165.236V29.5C165.251 27.3636 164.706 25.697 163.6 24.5C162.494 23.2879 160.971 22.6818 159.032 22.6818C157.729 22.6818 156.577 22.9621 155.577 23.5227C154.592 24.0833 153.819 24.9015 153.259 25.9773C152.713 27.0379 152.433 28.3182 152.418 29.8182Z" fill="#3A3A3A"/>
</svg>
