<svg width="159" height="115" viewBox="0 0 159 115" fill="none" xmlns="http://www.w3.org/2000/svg">
<path d="M41.7256 11.1594V35.3006H79.0672V0H53.5302C47.0106 0 41.7256 4.99614 41.7256 11.1594ZM67.3926 21.4793C63.8837 27.2126 57.9272 30.1407 54.0501 28.0316C50.1729 25.9226 49.8914 19.5546 53.3786 13.8418C56.8875 8.10849 62.844 5.18043 66.7211 7.28945C70.5982 9.39848 70.8798 15.7665 67.3926 21.4793Z" fill="#E16877"/>
<path d="M81.3418 0V35.3006H118.683V11.1594C118.683 4.99614 113.398 0 106.879 0H81.3418ZM111.319 19.2065H103.998L109.175 24.1002C109.825 24.7145 109.825 25.6974 109.175 26.3116C108.525 26.9259 107.485 26.9259 106.835 26.3116L101.659 21.4179V28.3388C101.659 29.1988 100.922 29.8949 100.013 29.8949C99.1029 29.8949 98.3665 29.1988 98.3665 28.3388V21.4179L93.1898 26.3116C92.54 26.9259 91.5003 26.9259 90.8505 26.3116C90.2007 25.6974 90.2007 24.7145 90.8505 24.1002L96.0272 19.2065H88.7062C87.7964 19.2065 87.06 18.5103 87.06 17.6503C87.06 16.7903 87.7964 16.0941 88.7062 16.0941H96.0272L90.8505 11.2004C90.2007 10.5861 90.2007 9.60324 90.8505 8.98896C91.5003 8.37468 92.54 8.37468 93.1898 8.98896L98.3665 13.8827V6.96184C98.3665 6.10185 99.1029 5.40566 100.013 5.40566C100.922 5.40566 101.659 6.10185 101.659 6.96184V13.8827L106.835 8.98896C107.485 8.37468 108.525 8.37468 109.175 8.98896C109.825 9.60324 109.825 10.5861 109.175 11.2004L103.998 16.0941H111.319C112.229 16.0941 112.965 16.7903 112.965 17.6503C112.965 18.5103 112.229 19.2065 111.319 19.2065Z" fill="#C60B16"/>
<path d="M41.7256 38.2283V62.3695C41.7256 68.5327 47.0106 73.5289 53.5302 73.5289H79.0672V38.2283H41.7256ZM70.36 63.9052C69.082 65.9528 66.6994 67.1199 64.2302 67.1199C63.0606 67.1199 61.8476 66.8537 60.743 66.3009C59.9415 65.8913 59.6383 64.9699 60.0499 64.2123C60.483 63.4547 61.4577 63.168 62.2592 63.5571C64.1436 64.499 66.5045 63.9461 67.5008 62.3285C68.4755 60.7519 67.6958 58.7043 66.4179 57.7214C65.8547 57.2914 65.1832 57.0457 64.5118 56.9433C63.9703 58.1719 63.0173 59.6871 61.5227 60.1581C60.3098 60.5266 59.2051 60.3833 58.4903 59.7485C57.364 58.7452 57.6889 57.0867 58.1654 56.2267C58.7936 55.1005 60.2015 54.261 62.0426 53.9334C62.4324 51.9677 62.1075 50.2067 61.1978 49.2239C60.2881 48.2615 58.7069 47.6677 56.9958 47.7291C54.7648 47.7701 52.6205 48.7939 51.1693 50.5139C50.6061 51.1896 49.5665 51.292 48.8733 50.7596C48.1586 50.2272 48.0503 49.2444 48.6134 48.5891C50.6711 46.1525 53.7035 44.6987 56.9308 44.6373C59.6383 44.6373 62.1509 45.5382 63.667 47.1968C65.1616 48.8144 65.7681 51.2715 65.3782 53.9538C66.5478 54.1791 67.6091 54.65 68.4972 55.3257C70.8581 57.1686 72.201 60.8747 70.3166 63.9052H70.36Z" fill="#C60B16"/>
<path d="M81.3418 38.2283V73.5289H106.879C113.398 73.5289 118.683 68.5327 118.683 62.3695V38.2283H81.3418ZM107.745 47.4425C105.059 50.1658 100.186 56.37 101.81 64.6013C101.962 65.3385 101.247 65.9732 100.467 65.8709L92.8432 64.8266C92.3883 64.7652 92.0201 64.4785 91.8902 64.069C91.1321 61.8985 89.6592 54.5681 98.6481 44.883C98.908 44.5963 99.3412 44.453 99.7527 44.5144L107.052 45.6201C107.983 45.7634 108.395 46.8282 107.745 47.4834V47.4425Z" fill="#E16877"/>
<path d="M149.613 0C149.613 6.59327 145.151 11.917 139.65 11.917C134.148 11.917 129.686 6.59327 129.686 0H120.979V35.3006H158.321V0H149.613Z" fill="#FFCB46"/>
<path d="M149.613 38.2283C149.613 44.8215 145.151 50.1453 139.65 50.1453C134.148 50.1453 129.686 44.8011 129.686 38.2283H120.979V73.5289H158.321V38.2283H149.613Z" fill="#06564E"/>
<path d="M39.43 0H2.08838V35.3006H9.5827C9.5827 32.1064 12.3335 29.5059 15.7124 29.5059H22.5786C31.8707 29.5059 39.43 22.3803 39.43 13.5756V0Z" fill="#06564E"/>
<path d="M2.08838 38.2283V73.5289H9.5827C9.5827 70.3346 12.3335 67.7342 15.7124 67.7342H24.8746C32.9104 67.7342 39.43 61.5709 39.43 53.9743V38.2283H2.08838Z" fill="#FFCB46"/>
<path d="M132.778 107.084H132.057C132.057 105.961 132.411 103.81 133.119 100.631C133.852 97.4524 134.219 95.648 134.219 95.2178C134.219 94.4292 133.865 93.5927 133.157 92.7084L132.816 92.2782L132.853 91.8122C134.219 91.4537 136.405 91.2745 139.414 91.2745C139.768 91.7285 139.945 92.4694 139.945 93.4971C142.22 91.8958 144.028 91.0952 145.368 91.0952C147.061 91.0952 148.06 91.9197 148.363 93.5688C149.046 93.043 149.931 92.5053 151.018 91.9556C152.13 91.382 153.116 91.0952 153.976 91.0952C154.861 91.0952 155.594 91.3701 156.175 91.9197C156.757 92.4455 157.047 93.1864 157.047 94.1424C157.047 95.0983 156.769 96.6757 156.213 98.8744C155.657 101.073 155.379 102.555 155.379 103.32C155.379 104.061 155.493 104.431 155.72 104.431C155.872 104.431 156.39 104.204 157.275 103.75L157.692 103.535L158.375 104.789C157.717 105.411 156.82 106.008 155.682 106.582C154.57 107.132 153.584 107.406 152.724 107.406C150.828 107.406 149.88 106.391 149.88 104.359C149.88 103.618 150.146 102.137 150.677 99.914C151.233 97.6675 151.511 96.2097 151.511 95.5405C151.511 94.8474 151.296 94.5009 150.866 94.5009C150.133 94.5009 149.299 94.7638 148.363 95.2895C148.313 95.7675 147.959 97.3927 147.302 100.165C146.67 102.937 146.354 105.088 146.354 106.618C145.62 106.928 143.901 107.084 141.196 107.084C141.146 106.821 141.12 106.188 141.12 105.184C141.12 104.18 141.411 102.471 141.993 100.057C142.599 97.6436 142.903 96.1141 142.903 95.4688C142.903 94.8235 142.663 94.5009 142.182 94.5009C141.424 94.5009 140.59 94.7877 139.679 95.3612C139.629 95.5763 139.376 96.6279 138.921 98.5159C138.011 102.292 137.556 104.981 137.556 106.582C136.671 106.917 135.078 107.084 132.778 107.084Z" fill="black"/>
<path d="M122.212 107.406C120.468 107.406 119.103 106.833 118.117 105.686C117.131 104.515 116.638 102.889 116.638 100.81C116.638 98.1574 117.383 95.875 118.875 93.9631C120.392 92.0512 122.478 91.0952 125.132 91.0952L126.497 91.1669C126.927 90.9518 127.407 90.8442 127.938 90.8442C129.936 90.8442 130.934 92.6247 130.934 96.1857C131.971 96.1379 133.02 96.0065 134.082 95.7914L134.688 95.648L134.916 97.0461C134.082 97.3807 132.957 97.6794 131.541 97.9423L130.782 98.0857C130.302 100.595 129.329 102.782 127.862 104.646C126.396 106.486 124.513 107.406 122.212 107.406ZM124.26 104.323C125.322 104.323 126.27 103.678 127.104 102.388C127.964 101.097 128.558 99.7348 128.886 98.3008C126.181 98.3008 124.829 97.3448 124.829 95.4329C124.829 94.6681 124.993 93.9511 125.322 93.282L125.511 92.9235C125.41 92.8757 125.284 92.8518 125.132 92.8518C124.98 92.8518 124.867 92.8757 124.791 92.9235C124.159 93.3059 123.565 94.2021 123.009 95.6121C122.452 97.0222 122.174 98.6354 122.174 100.452C122.174 103.033 122.869 104.323 124.26 104.323Z" fill="black"/>
<path d="M106.325 107.406C104.581 107.406 103.216 106.833 102.23 105.686C101.244 104.515 100.751 102.889 100.751 100.81C100.751 98.1574 101.497 95.875 102.988 93.9631C104.505 92.0512 106.591 91.0952 109.245 91.0952L110.611 91.1669C111.04 90.9518 111.521 90.8442 112.052 90.8442C114.049 90.8442 115.047 92.6247 115.047 96.1857C116.084 96.1379 117.133 96.0065 118.195 95.7914L118.802 95.648L119.029 97.0461C118.195 97.3807 117.07 97.6794 115.654 97.9423L114.896 98.0857C114.415 100.595 113.442 102.782 111.976 104.646C110.509 106.486 108.626 107.406 106.325 107.406ZM108.373 104.323C109.435 104.323 110.383 103.678 111.217 102.388C112.077 101.097 112.671 99.7348 113 98.3008C110.295 98.3008 108.942 97.3448 108.942 95.4329C108.942 94.6681 109.106 93.9511 109.435 93.282L109.625 92.9235C109.524 92.8757 109.397 92.8518 109.245 92.8518C109.094 92.8518 108.98 92.8757 108.904 92.9235C108.272 93.3059 107.678 94.2021 107.122 95.6121C106.566 97.0222 106.288 98.6354 106.288 100.452C106.288 103.033 106.983 104.323 108.373 104.323Z" fill="black"/>
<path d="M81.549 115C81.4226 114.713 81.3594 114.08 81.3594 113.1C81.3594 112.12 81.8524 109.491 82.8383 105.213C83.8243 100.911 84.3173 97.6014 84.3173 95.2832C84.3173 94.8291 84.2035 94.3511 83.976 93.8492C83.7484 93.3234 83.5083 92.9172 83.2555 92.6304L82.9142 92.236L82.9521 91.77C84.1403 91.4115 86.2386 91.2323 89.2471 91.2323C89.5252 91.7341 89.7021 92.4392 89.778 93.3473C91.7246 91.8417 93.3426 91.0889 94.6319 91.0889C95.9466 91.0889 96.9957 91.6027 97.7794 92.6304C98.5884 93.658 98.9929 95.1637 98.9929 97.1473C98.9929 100.613 98.323 103.194 96.9831 104.891C95.6432 106.564 93.9494 107.4 91.9016 107.4C90.8398 107.4 89.9549 107.257 89.2471 106.97L88.8679 106.827L89.1333 105.428C89.3608 105.476 89.6263 105.5 89.9297 105.5C90.587 105.5 91.1558 105.213 91.6361 104.64C92.1418 104.066 92.521 103.337 92.7738 102.453C93.2794 100.684 93.5322 99.0473 93.5322 97.5417C93.5322 95.3907 93.0645 94.3153 92.1291 94.3153C91.396 94.3153 90.6123 94.5901 89.778 95.1398C89.6769 96.8127 89.1586 99.7404 88.2232 103.923C87.2878 108.105 86.8201 111.475 86.8201 114.032C85.4549 114.558 83.6979 114.881 81.549 115Z" fill="black"/>
<path d="M56.1199 107.084H55.3994C55.3994 105.961 55.7533 103.81 56.4612 100.631C57.1944 97.4524 57.5609 95.648 57.5609 95.2178C57.5609 94.4292 57.207 93.5927 56.4991 92.7084L56.1579 92.2782L56.1958 91.8122C57.561 91.4537 59.7478 91.2745 62.7562 91.2745C63.1101 91.7285 63.2871 92.4694 63.2871 93.4971C65.5624 91.8958 67.37 91.0952 68.7099 91.0952C70.4037 91.0952 71.4023 91.9197 71.7057 93.5688C72.3883 93.043 73.2731 92.5053 74.3602 91.9556C75.4726 91.382 76.4586 91.0952 77.3181 91.0952C78.203 91.0952 78.9361 91.3701 79.5176 91.9197C80.099 92.4455 80.3898 93.1864 80.3898 94.1424C80.3898 95.0983 80.1117 96.6757 79.5555 98.8744C78.9993 101.073 78.7212 102.555 78.7212 103.32C78.7212 104.061 78.835 104.431 79.0625 104.431C79.2142 104.431 79.7325 104.204 80.6173 103.75L81.0344 103.535L81.717 104.789C81.0597 105.411 80.1622 106.008 79.0246 106.582C77.9122 107.132 76.9263 107.406 76.0667 107.406C74.1706 107.406 73.2226 106.391 73.2226 104.359C73.2226 103.618 73.488 102.137 74.0189 99.914C74.5751 97.6675 74.8532 96.2097 74.8532 95.5405C74.8532 94.8474 74.6383 94.5009 74.2085 94.5009C73.4754 94.5009 72.6411 94.7638 71.7057 95.2895C71.6552 95.7675 71.3012 97.3927 70.6439 100.165C70.0119 102.937 69.6959 105.088 69.6959 106.618C68.9627 106.928 67.2436 107.084 64.5385 107.084C64.488 106.821 64.4627 106.188 64.4627 105.184C64.4627 104.18 64.7534 102.471 65.3349 100.057C65.9416 97.6436 66.245 96.1141 66.245 95.4688C66.245 94.8235 66.0048 94.5009 65.5245 94.5009C64.7661 94.5009 63.9318 94.7877 63.0217 95.3612C62.9711 95.5763 62.7183 96.6279 62.2632 98.5159C61.3531 102.292 60.8981 104.981 60.8981 106.582C60.0132 106.917 58.4205 107.084 56.1199 107.084Z" fill="black"/>
<path d="M45.5545 107.406C43.8101 107.406 42.4449 106.833 41.4589 105.686C40.473 104.515 39.98 102.889 39.98 100.81C39.98 98.1574 40.7258 95.875 42.2174 93.9631C43.7342 92.0512 45.8199 91.0952 48.4744 91.0952L49.8396 91.1669C50.2694 90.9518 50.7497 90.8442 51.2806 90.8442C53.2778 90.8442 54.2764 92.6247 54.2764 96.1857C55.313 96.1379 56.3621 96.0065 57.4239 95.7914L58.0307 95.648L58.2582 97.0461C57.4239 97.3807 56.2989 97.6794 54.8832 97.9423L54.1247 98.0857C53.6444 100.595 52.6711 102.782 51.2048 104.646C49.7385 106.486 47.855 107.406 45.5545 107.406ZM47.6022 104.323C48.664 104.323 49.6121 103.678 50.4464 102.388C51.3059 101.097 51.9 99.7348 52.2287 98.3008C49.5236 98.3008 48.1711 97.3448 48.1711 95.4329C48.1711 94.6681 48.3354 93.9511 48.664 93.282L48.8536 92.9235C48.7525 92.8757 48.6261 92.8518 48.4744 92.8518C48.3227 92.8518 48.209 92.8757 48.1331 92.9235C47.5011 93.3059 46.907 94.2021 46.3508 95.6121C45.7946 97.0222 45.5165 98.6354 45.5165 100.452C45.5165 103.033 46.2118 104.323 47.6022 104.323Z" fill="black"/>
<path d="M29.6673 107.406C27.9229 107.406 26.5577 106.833 25.5717 105.686C24.5858 104.515 24.0928 102.889 24.0928 100.81C24.0928 98.1574 24.8386 95.875 26.3301 93.9631C27.847 92.0512 29.9327 91.0952 32.5872 91.0952L33.9524 91.1669C34.3822 90.9518 34.8625 90.8442 35.3934 90.8442C37.3906 90.8442 38.3892 92.6247 38.3892 96.1857C39.4258 96.1379 40.4749 96.0065 41.5367 95.7914L42.1435 95.648L42.371 97.0461C41.5367 97.3807 40.4117 97.6794 38.996 97.9423L38.2375 98.0857C37.7572 100.595 36.7839 102.782 35.3176 104.646C33.8513 106.486 31.9678 107.406 29.6673 107.406ZM31.715 104.323C32.7768 104.323 33.7249 103.678 34.5591 102.388C35.4187 101.097 36.0128 99.7348 36.3415 98.3008C33.6364 98.3008 32.2838 97.3448 32.2838 95.4329C32.2838 94.6681 32.4482 93.9511 32.7768 93.282L32.9664 92.9235C32.8653 92.8757 32.7389 92.8518 32.5872 92.8518C32.4355 92.8518 32.3218 92.8757 32.2459 92.9235C31.6139 93.3059 31.0198 94.2021 30.4636 95.6121C29.9074 97.0222 29.6293 98.6354 29.6293 100.452C29.6293 103.033 30.3246 104.323 31.715 104.323Z" fill="black"/>
<path d="M9.21496 88.4066C9.21496 87.9525 9.15175 87.6179 9.02535 87.4028C8.92422 87.1877 8.68405 86.877 8.30484 86.4707L8.34276 86.2198C9.68266 85.4789 11.3512 85.1085 13.3484 85.1085C14.1321 85.1085 14.7136 85.1682 15.0928 85.2877C15.2192 85.5267 15.2824 86.0286 15.2824 86.7934C15.2824 87.5342 14.6757 90.2229 13.4622 94.8594C14.0184 95.0745 14.6504 95.182 15.3583 95.182C16.5718 95.182 17.5704 94.7877 18.3541 93.999C19.1378 93.2103 19.6434 92.3619 19.8709 91.4537C20.1237 90.5216 20.2501 89.5418 20.2501 88.5141C20.2501 86.6261 19.7066 85.2638 18.6195 84.4273C17.5577 83.567 15.826 83.1368 13.4243 83.1368C10.2894 83.1368 7.68545 83.7343 5.6124 84.9292C3.53935 86.1242 2.50283 87.3789 2.50283 88.6934C2.50283 89.3625 2.76828 89.9122 3.29918 90.3424C3.85537 90.7487 4.42419 91.0235 5.00565 91.1669C4.90453 92.0273 4.58852 92.9116 4.05761 93.8197C3.09693 93.7002 2.18681 93.2223 1.32726 92.3858C0.442419 91.5493 0 90.4499 0 89.0877C0 86.65 1.44102 84.6902 4.32307 83.2085C7.20511 81.7267 10.5675 80.9858 14.4102 80.9858C18.2529 80.9858 21.1603 81.5953 23.1322 82.8141C25.1041 84.0091 26.0901 85.8732 26.0901 88.4066C26.0901 91.7286 24.687 94.238 21.8808 95.9348C20.3639 96.8669 18.5437 97.3329 16.4201 97.3329C15.0802 97.3329 13.9299 97.1417 12.9692 96.7594C11.9074 100.846 11.2627 104.12 11.0352 106.582C9.54361 106.988 7.8877 107.191 6.06746 107.191C5.63768 107.191 5.32167 107.156 5.11942 107.084C5.24582 105.578 5.9537 102.447 7.24303 97.6914C8.55765 92.9355 9.21496 89.8405 9.21496 88.4066Z" fill="black"/>
</svg>
