<svg width="299" height="48" viewBox="0 0 299 48" fill="none" xmlns="http://www.w3.org/2000/svg">
<path d="M13.5227 47L0.204545 0.454544H10.9545L18.6591 32.7955H19.0455L27.5455 0.454544H36.75L45.2273 32.8636H45.6364L53.3409 0.454544H64.0909L50.7727 47H41.1818L32.3182 16.5682H31.9545L23.1136 47H13.5227ZM80.2472 47.6818C76.6563 47.6818 73.5654 46.9545 70.9745 45.5C68.3987 44.0303 66.4139 41.9545 65.02 39.2727C63.626 36.5758 62.929 33.3864 62.929 29.7045C62.929 26.1136 63.626 22.9621 65.02 20.25C66.4139 17.5379 68.376 15.4242 70.9063 13.9091C73.4518 12.3939 76.4366 11.6364 79.8609 11.6364C82.1639 11.6364 84.3078 12.0076 86.2927 12.75C88.2927 13.4773 90.0351 14.5758 91.52 16.0455C93.02 17.5152 94.1866 19.3636 95.02 21.5909C95.8533 23.803 96.27 26.3939 96.27 29.3636V32.0227H66.7927V26.0227H87.1563C87.1563 24.6288 86.8533 23.3939 86.2472 22.3182C85.6412 21.2424 84.8003 20.4015 83.7245 19.7955C82.6639 19.1742 81.429 18.8636 80.02 18.8636C78.5503 18.8636 77.2472 19.2045 76.1109 19.8864C74.9897 20.553 74.1109 21.4545 73.4745 22.5909C72.8381 23.7121 72.5124 24.9621 72.4972 26.3409V32.0455C72.4972 33.7727 72.8154 35.2652 73.4518 36.5227C74.1033 37.7803 75.02 38.75 76.2018 39.4318C77.3836 40.1136 78.7851 40.4545 80.4063 40.4545C81.4821 40.4545 82.4669 40.303 83.3609 40C84.2548 39.697 85.02 39.2424 85.6563 38.6364C86.2927 38.0303 86.7775 37.2879 87.1109 36.4091L96.0654 37C95.6109 39.1515 94.679 41.0303 93.27 42.6364C91.876 44.2273 90.073 45.4697 87.8609 46.3636C85.6639 47.2424 83.126 47.6818 80.2472 47.6818ZM111.182 0.454544V47H101.5V0.454544H111.182ZM133.622 47.6818C130.047 47.6818 126.971 46.9242 124.395 45.4091C121.834 43.8788 119.865 41.7576 118.486 39.0455C117.122 36.3333 116.441 33.2121 116.441 29.6818C116.441 26.1061 117.13 22.9697 118.509 20.2727C119.903 17.5606 121.88 15.447 124.441 13.9318C127.001 12.4015 130.047 11.6364 133.577 11.6364C136.622 11.6364 139.289 12.1894 141.577 13.2955C143.865 14.4015 145.675 15.9545 147.009 17.9545C148.342 19.9545 149.077 22.303 149.213 25H140.077C139.819 23.2576 139.138 21.8561 138.031 20.7955C136.941 19.7197 135.509 19.1818 133.736 19.1818C132.236 19.1818 130.925 19.5909 129.804 20.4091C128.698 21.2121 127.834 22.3864 127.213 23.9318C126.592 25.4773 126.281 27.3485 126.281 29.5455C126.281 31.7727 126.584 33.6667 127.191 35.2273C127.812 36.7879 128.683 37.9773 129.804 38.7955C130.925 39.6136 132.236 40.0227 133.736 40.0227C134.842 40.0227 135.834 39.7955 136.713 39.3409C137.607 38.8864 138.342 38.2273 138.918 37.3636C139.509 36.4848 139.895 35.4318 140.077 34.2045H149.213C149.062 36.8712 148.334 39.2197 147.031 41.25C145.744 43.2652 143.963 44.8409 141.691 45.9773C139.418 47.1136 136.728 47.6818 133.622 47.6818ZM170.097 47.6818C166.567 47.6818 163.514 46.9318 160.938 45.4318C158.377 43.9167 156.4 41.8106 155.006 39.1136C153.612 36.4015 152.915 33.2576 152.915 29.6818C152.915 26.0758 153.612 22.9242 155.006 20.2273C156.4 17.5152 158.377 15.4091 160.938 13.9091C163.514 12.3939 166.567 11.6364 170.097 11.6364C173.627 11.6364 176.673 12.3939 179.233 13.9091C181.809 15.4091 183.794 17.5152 185.188 20.2273C186.582 22.9242 187.279 26.0758 187.279 29.6818C187.279 33.2576 186.582 36.4015 185.188 39.1136C183.794 41.8106 181.809 43.9167 179.233 45.4318C176.673 46.9318 173.627 47.6818 170.097 47.6818ZM170.142 40.1818C171.748 40.1818 173.089 39.7273 174.165 38.8182C175.241 37.8939 176.051 36.6364 176.597 35.0455C177.157 33.4545 177.438 31.6439 177.438 29.6136C177.438 27.5833 177.157 25.7727 176.597 24.1818C176.051 22.5909 175.241 21.3333 174.165 20.4091C173.089 19.4848 171.748 19.0227 170.142 19.0227C168.521 19.0227 167.157 19.4848 166.051 20.4091C164.96 21.3333 164.135 22.5909 163.574 24.1818C163.029 25.7727 162.756 27.5833 162.756 29.6136C162.756 31.6439 163.029 33.4545 163.574 35.0455C164.135 36.6364 164.96 37.8939 166.051 38.8182C167.157 39.7273 168.521 40.1818 170.142 40.1818ZM192.486 47V12.0909H201.713V18.25H202.122C202.85 16.2045 204.062 14.5909 205.759 13.4091C207.456 12.2273 209.486 11.6364 211.85 11.6364C214.244 11.6364 216.282 12.2348 217.963 13.4318C219.645 14.6136 220.766 16.2197 221.327 18.25H221.691C222.403 16.25 223.691 14.6515 225.554 13.4545C227.433 12.2424 229.653 11.6364 232.213 11.6364C235.471 11.6364 238.115 12.6742 240.145 14.75C242.191 16.8106 243.213 19.7348 243.213 23.5227V47H233.554V25.4318C233.554 23.4924 233.039 22.0379 232.009 21.0682C230.979 20.0985 229.691 19.6136 228.145 19.6136C226.388 19.6136 225.016 20.1742 224.032 21.2955C223.047 22.4015 222.554 23.8636 222.554 25.6818V47H213.168V25.2273C213.168 23.5152 212.676 22.1515 211.691 21.1364C210.721 20.1212 209.441 19.6136 207.85 19.6136C206.774 19.6136 205.804 19.8864 204.941 20.4318C204.092 20.9621 203.418 21.7121 202.918 22.6818C202.418 23.6364 202.168 24.7576 202.168 26.0455V47H192.486ZM265.682 47.6818C262.091 47.6818 259 46.9545 256.41 45.5C253.834 44.0303 251.849 41.9545 250.455 39.2727C249.061 36.5758 248.364 33.3864 248.364 29.7045C248.364 26.1136 249.061 22.9621 250.455 20.25C251.849 17.5379 253.811 15.4242 256.341 13.9091C258.887 12.3939 261.872 11.6364 265.296 11.6364C267.599 11.6364 269.743 12.0076 271.728 12.75C273.728 13.4773 275.47 14.5758 276.955 16.0455C278.455 17.5152 279.622 19.3636 280.455 21.5909C281.288 23.803 281.705 26.3939 281.705 29.3636V32.0227H252.228V26.0227H272.591C272.591 24.6288 272.288 23.3939 271.682 22.3182C271.076 21.2424 270.235 20.4015 269.16 19.7955C268.099 19.1742 266.864 18.8636 265.455 18.8636C263.985 18.8636 262.682 19.2045 261.546 19.8864C260.425 20.553 259.546 21.4545 258.91 22.5909C258.273 23.7121 257.947 24.9621 257.932 26.3409V32.0455C257.932 33.7727 258.25 35.2652 258.887 36.5227C259.538 37.7803 260.455 38.75 261.637 39.4318C262.819 40.1136 264.22 40.4545 265.841 40.4545C266.917 40.4545 267.902 40.303 268.796 40C269.69 39.697 270.455 39.2424 271.091 38.6364C271.728 38.0303 272.213 37.2879 272.546 36.4091L281.5 37C281.046 39.1515 280.114 41.0303 278.705 42.6364C277.311 44.2273 275.508 45.4697 273.296 46.3636C271.099 47.2424 268.561 47.6818 265.682 47.6818ZM298.503 0.454544L297.617 33.0455H289.299L288.39 0.454544H298.503ZM293.458 47.5909C291.958 47.5909 290.67 47.0606 289.594 46C288.518 44.9242 287.988 43.6364 288.003 42.1364C287.988 40.6515 288.518 39.3788 289.594 38.3182C290.67 37.2576 291.958 36.7273 293.458 36.7273C294.897 36.7273 296.162 37.2576 297.253 38.3182C298.344 39.3788 298.897 40.6515 298.912 42.1364C298.897 43.1364 298.632 44.053 298.117 44.8864C297.617 45.7045 296.958 46.3636 296.14 46.8636C295.322 47.3485 294.428 47.5909 293.458 47.5909Z" fill="#3A3A3A"/>
</svg>
