<svg width="29" height="77" viewBox="0 0 29 77" fill="none" xmlns="http://www.w3.org/2000/svg">
<path d="M0.831597 2.07462C7.92214 1.34493 15.1232 0.924805 20.865 0.924805C25.2431 0.924805 28.1692 4.78701 28.1692 8.75241C28.1692 22.4176 23.6805 37.0261 15.6465 48.399H12.514C10.8483 36.7166 8.34227 23.1546 6.04264 13.4475C5.10657 9.4821 3.6398 6.2464 0.824219 5.20714V2.07462H0.831597ZM15.1232 51.1114C22.2138 51.1114 27.6386 56.5362 27.6386 63.6267C27.6386 70.7173 22.2138 76.1421 15.1232 76.1421C8.03266 76.1421 2.6079 70.7173 2.6079 63.6267C2.6079 56.5362 8.03266 51.1114 15.1232 51.1114Z" fill="#767676"/>
</svg>
