<svg width="94" height="105" viewBox="0 0 94 105" fill="none" xmlns="http://www.w3.org/2000/svg">
<path d="M65.6274 65.2825C67.9928 62.9138 70.2006 60.6987 72.416 58.4874C75.1777 55.7271 77.9162 52.94 80.724 50.2296C82.9086 48.1181 85.5703 47.5154 88.4473 48.383C91.3358 49.2545 93.182 51.2738 93.809 54.2299C94.409 57.0554 93.582 59.5239 91.5204 61.5778C87.0549 66.0273 82.5971 70.4845 78.1316 74.9416C74.7353 78.3315 71.3045 81.6945 67.9467 85.1266C65.6197 87.503 62.8696 88.6509 59.5388 88.624C53.4193 88.5741 47.3 88.624 41.1844 88.5971C40.2498 88.5971 39.5151 88.8697 38.8843 89.5454C38.2074 90.271 37.4996 90.9658 36.7804 91.6492C36.4612 91.9486 36.3996 92.1905 36.5496 92.6397C37.3843 95.1427 36.8497 97.3579 34.9842 99.2352C33.7226 100.506 32.4572 101.78 31.1764 103.032C28.5033 105.646 24.8339 105.666 22.1838 103.032C15.4452 96.329 8.71425 89.6145 2.00252 82.8846C-0.686019 80.1858 -0.655278 76.5463 2.02172 73.8436C3.2833 72.5691 4.54872 71.3022 5.82568 70.0468C7.68727 68.2194 9.87963 67.6819 12.3489 68.515C12.9066 68.7031 13.1567 68.5189 13.4875 68.1849C16.4491 65.2173 19.4492 62.2881 22.3762 59.2859C24.7031 56.8942 27.4917 55.8116 30.8071 55.8269C39.2958 55.8615 47.7884 55.9766 56.2733 55.7885C62.0696 55.658 66.0389 59.6814 65.6274 65.2787V65.2825ZM43.6152 59.9693C39.292 59.9693 34.965 60.0077 30.6418 59.9539C28.5225 59.9271 26.8032 60.6258 25.3262 62.1384C22.5069 65.0215 19.653 67.8701 16.7568 70.6726C16.1029 71.306 16.2414 71.5824 16.7991 72.1314C21.7146 76.9917 26.5955 81.8865 31.4918 86.7659C32.1918 87.4646 32.8688 88.6586 33.6226 88.7161C34.4727 88.7776 35.1419 87.5222 35.8304 86.7889C37.3266 85.1996 39.1074 84.4893 41.3036 84.5085C47.3884 84.5623 53.477 84.5085 59.5618 84.5393C61.7003 84.5508 63.4543 83.8405 64.9697 82.3126C70.4006 76.8343 75.8738 71.4058 81.3355 65.9544C83.7817 63.5127 86.228 61.0711 88.6742 58.6294C89.7358 57.5737 90.155 56.3183 89.7511 54.871C88.9588 52.0262 85.5587 51.1855 83.4086 53.32C78.2085 58.4836 73.0122 63.6509 67.8505 68.8529C65.5851 71.1371 62.8927 72.2619 59.6849 72.2504C54.3694 72.2312 49.05 72.2504 43.7345 72.2427C43.3537 72.2427 42.9613 72.2236 42.5921 72.1353C41.6536 71.9126 41.0536 71.1294 41.0459 70.1965C41.0382 69.2675 41.6344 68.4613 42.5652 68.2348C42.9614 68.1388 43.3883 68.1196 43.7998 68.1196C48.2538 68.1119 52.7039 68.1004 57.1579 68.1196C58.7541 68.1273 60.0426 67.5783 60.9003 66.2116C61.7311 64.891 61.7926 63.4935 61.0503 62.1191C60.2926 60.7064 59.0733 59.9731 57.4618 59.9693C52.8501 59.9578 48.2384 59.9654 43.6229 59.9616L43.6152 59.9693ZM10.2412 72.2658C9.63732 72.212 9.13729 72.523 8.69113 72.9722C7.53725 74.1277 6.37957 75.2794 5.22569 76.4312C3.72949 77.9246 3.72563 78.8267 5.21029 80.3086C10.1912 85.284 15.176 90.2556 20.1569 95.231C21.7646 96.8357 23.3647 98.4482 24.9839 100.041C26.1417 101.182 27.1878 101.193 28.3225 100.084C29.6033 98.8321 30.8764 97.569 32.1264 96.2829C33.0726 95.3078 33.0919 94.1791 32.138 93.227C25.3762 86.4549 18.5991 79.702 11.8297 72.9414C11.4066 72.5191 10.922 72.2351 10.2412 72.2658Z" fill="#0D3F39"/>
<path d="M87.8001 36.9918C87.3995 32.9521 85.9473 29.342 82.9851 26.4225C78.9945 22.4902 74.0755 20.8252 68.4708 21.0822C65.5318 21.2165 62.8199 22.049 60.4895 23.8713C60.3431 23.9864 60.2044 24.1974 59.9078 24.0823C60.6782 20.9058 62.3423 18.2663 64.9116 16.1985C68.1896 13.559 71.9839 12.481 76.2326 12.8685C77.6039 12.9912 78.6863 12.1664 78.7711 10.9695C78.8597 9.74949 77.9429 8.77887 76.5677 8.68296C75.5855 8.6139 74.6032 8.55637 73.6171 8.61008C69.8036 8.80573 66.3561 9.9835 63.2475 12.1281C62.3346 12.7572 61.5218 13.5092 60.6127 14.2995C60.5588 13.9388 60.5165 13.6972 60.4818 13.4516C59.6844 7.76223 54.8809 2.6176 49.1299 1.37844C45.6438 0.626506 42.0769 0.450024 38.5446 0.0165102C37.3582 -0.129273 36.3952 0.707067 36.2604 1.86566C35.8945 4.97699 36.4684 7.92719 38.0631 10.6549C40.6863 15.1473 44.6886 17.6487 49.935 18.2817C52.1576 18.5502 54.3802 18.7996 56.5989 19.0681C56.7761 19.0911 57.2076 18.9837 57.0034 19.4019C56.3216 20.7945 55.8748 22.26 55.5011 23.8176C55.0659 23.5069 54.7962 23.15 54.5112 22.8124C53.6984 21.8457 52.7469 21.017 51.6876 20.315C48.4327 18.1627 44.8195 17.3417 40.9405 17.6487C34.2265 18.1819 29.2343 21.3316 26.3068 27.232C23.7914 32.2999 22.9556 37.7821 23.0018 43.3795C23.0442 48.4052 23.9224 53.2966 25.7329 58C27.1658 57.6547 28.6142 57.4092 30.0741 57.2596C27.4855 50.8067 26.7344 44.1352 27.7783 37.2987C28.2444 34.2449 28.9916 31.2487 30.4978 28.4942C32.3506 25.1028 35.2627 23.0119 39.0801 22.1488C42.0576 21.4735 44.9929 21.6961 47.8048 22.9774C49.0606 23.5529 50.1854 24.3125 51.0521 25.3752C52.2462 26.833 53.6291 28.03 55.505 28.5824C58.055 29.3305 60.5357 29.1157 62.635 27.5466C66.2328 24.8611 70.1541 24.6846 74.2334 26.0005C79.9228 27.8305 82.9543 31.7935 83.5129 37.575C83.7555 40.0993 83.7209 42.6198 83.4281 45.1404C83.0892 47.6916 82.5499 50.1584 81.791 52.5331C83.3164 51.6085 85.0151 51.1482 86.7794 50.8988C87.9118 46.4064 88.2701 41.7758 87.7963 36.9995L87.8001 36.9918ZM46.734 13.0987C43.2903 11.4797 41.268 8.77888 40.6054 5.11894C40.5708 4.91945 40.5746 4.71228 40.5592 4.43606C43.4713 4.95014 46.422 4.84655 49.207 5.77112C53.0359 7.03714 56.1521 11.0232 56.2523 14.8135C53.0744 14.1997 49.7424 14.5143 46.7378 13.1025L46.734 13.0987Z" fill="#0D3F39"/>
</svg>
