<svg width="89" height="99" viewBox="0 0 89 99" fill="none" xmlns="http://www.w3.org/2000/svg">
<path d="M0.054725 54.2505C0.054725 41.6728 0.15131 29.0951 0.000702052 16.5212C-0.0495006 12.3467 2.59576 9.3307 6.96339 9.63577C9.23796 9.79411 11.528 9.63577 13.8141 9.67825C14.4243 9.68983 14.5556 9.51219 14.5517 8.92907C14.544 7.74351 14.4359 6.55409 14.6907 5.37239C15.4129 2.02426 18.5177 -0.281184 21.9199 0.0316176C25.2719 0.340557 27.9288 3.15576 28.037 6.51934C28.064 7.38824 28.064 8.25713 28.037 9.12602C28.0254 9.54309 28.1451 9.67438 28.5737 9.67052C31.4353 9.65121 34.3007 9.64735 37.1623 9.67052C37.699 9.67438 37.6951 9.42724 37.7029 9.02948C37.7338 7.81303 37.5909 6.58885 37.8496 5.37626C38.5679 2.0204 41.6612 -0.281188 45.0711 0.027752C48.4617 0.336692 51.1147 3.17892 51.1997 6.60429C51.219 7.40753 51.2306 8.21464 51.1997 9.01788C51.1804 9.5006 51.2962 9.67824 51.8253 9.67438C54.6251 9.64735 57.421 9.64349 60.2207 9.67438C60.827 9.68211 60.8695 9.43495 60.8733 8.94451C60.8849 7.75895 60.7614 6.56955 61.0124 5.38786C61.7307 2.02814 64.8123 -0.273464 68.2261 0.027752C71.6129 0.328968 74.2736 3.17508 74.3663 6.59658C74.3856 7.27239 74.4242 7.95205 74.3586 8.62013C74.2813 9.41951 74.4667 9.71301 75.3665 9.68598C77.8419 9.60874 80.3211 9.65122 82.7965 9.65894C86.3802 9.67053 88.8478 12.1343 88.8478 15.7296C88.8517 41.3986 88.8517 67.0676 88.8478 92.7367C88.8478 96.3744 86.3725 98.8305 82.7231 98.8305C57.2163 98.8305 31.7095 98.8305 6.19877 98.8305C2.50308 98.8305 0.062456 96.3706 0.062456 92.6517C0.062456 79.85 0.062456 67.0483 0.062456 54.2466L0.054725 54.2505ZM44.4455 28.9638C31.2576 28.9638 18.0698 28.9715 4.88191 28.9445C4.08252 28.9445 3.89332 29.126 3.89332 29.9292C3.92036 50.7711 3.9126 71.6168 3.9126 92.4586C3.9126 94.3586 4.54207 94.9764 6.47681 94.9764C31.7905 94.9764 57.1043 94.9764 82.418 94.9764C84.3489 94.9764 84.9784 94.3586 84.9784 92.4548C84.9784 71.6129 84.9745 50.7672 84.9977 29.9254C84.9977 29.1144 84.793 28.9445 84.0052 28.9445C70.8173 28.9715 57.6295 28.9638 44.4416 28.9638H44.4455ZM44.3528 25.1021C55.3858 25.1021 66.4188 25.1021 77.4557 25.1021C79.738 25.1021 82.0241 25.0827 84.3064 25.1136C84.8509 25.1214 85.0016 24.9669 84.9977 24.4224C84.9707 21.4952 84.9977 18.568 84.9784 15.6408C84.9706 14.3046 84.2137 13.5284 82.8891 13.5246C77.0347 13.513 71.1803 13.5245 65.3259 13.5052C64.7892 13.5052 64.7081 13.6906 64.7042 14.1617C64.6849 16.027 65.716 17.17 67.6662 17.3824C68.8247 17.5099 69.6009 18.3595 69.5314 19.4292C69.4657 20.4641 68.6316 21.2171 67.5233 21.2326C67.2028 21.2326 66.8784 21.2094 66.5656 21.1515C63.1673 20.5375 60.912 17.8613 60.8502 14.4012C60.8425 14.0227 61.1012 13.5014 60.2864 13.5052C54.2389 13.5323 48.1914 13.5245 42.1439 13.5091C41.6959 13.5091 41.5531 13.6095 41.5415 14.0884C41.4874 15.9883 42.5262 17.1585 44.5305 17.3863C45.6426 17.5099 46.4034 18.3208 46.3764 19.3558C46.3493 20.4332 45.4998 21.2249 44.3451 21.2364C44.0555 21.2364 43.7658 21.221 43.4801 21.1708C40.047 20.5915 37.7531 17.8883 37.6952 14.3819C37.6875 13.9841 37.9037 13.5014 37.1082 13.5052C31.0607 13.5361 25.0132 13.5284 18.9657 13.5091C18.483 13.5091 18.3942 13.6558 18.3826 14.1077C18.3401 15.9729 19.3982 17.1893 21.2905 17.3786C22.4413 17.4944 23.1943 18.2436 23.2136 19.2747C23.2291 20.2749 22.4683 21.1322 21.4488 21.2171C21.0704 21.248 20.6726 21.221 20.298 21.1553C16.8611 20.5645 14.571 17.8767 14.5517 14.3548C14.5517 13.7099 14.4359 13.4821 13.7292 13.4975C11.219 13.5439 8.71277 13.5091 6.20264 13.5168C4.62319 13.5207 3.9242 14.2312 3.92034 15.83C3.91261 18.595 3.95125 21.3639 3.89719 24.1289C3.88174 24.9321 4.08253 25.1175 4.88577 25.1175C18.0427 25.0905 31.1997 25.0982 44.3567 25.0982L44.3528 25.1021ZM21.4141 9.65894C22.2057 9.58943 23.5457 10.076 24.0053 9.49289C24.4919 8.87501 24.152 7.6045 24.1752 6.61975C24.1752 6.5541 24.1752 6.49232 24.1636 6.42667C23.9319 4.66185 22.1748 3.48788 20.5143 3.98991C18.6722 4.546 17.8265 6.32624 18.4675 9.23414C18.6877 10.2343 20.0624 9.41951 20.8734 9.65121C20.9931 9.68597 21.1283 9.65508 21.4141 9.65508V9.65894ZM44.6579 9.65894C45.3955 9.56626 46.7317 10.0837 47.1912 9.47743C47.6701 8.84024 47.3264 7.58132 47.338 6.59272C47.338 6.56182 47.3379 6.52707 47.3341 6.49617C47.1255 4.56916 45.1522 3.36817 43.3758 4.08645C41.777 4.73136 40.9661 6.6854 41.6303 9.2689C41.8813 10.2536 43.1866 9.42724 43.9744 9.65508C44.1211 9.69756 44.291 9.66281 44.6617 9.66281L44.6579 9.65894ZM67.8554 9.65894C68.6162 9.58171 69.9446 10.0683 70.3462 9.48516C70.8135 8.80936 70.4814 7.58133 70.4968 6.59658C70.4968 6.56569 70.4968 6.53093 70.493 6.50004C70.2999 4.68502 68.5157 3.47628 66.8127 4.00148C64.9745 4.57302 64.094 6.46527 64.793 9.25731C65.0286 10.2073 66.3995 9.43882 67.2221 9.65121C67.3727 9.68983 67.5426 9.65508 67.8554 9.65508V9.65894Z" fill="#0D3F39"/>
<path d="M44.4995 34.7524C55.2081 34.7524 65.9206 34.7524 76.6292 34.7524C78.5678 34.7524 79.1934 35.3665 79.1934 37.2703C79.1934 53.7368 79.1934 70.2071 79.1934 86.6736C79.1934 88.5349 78.5562 89.1876 76.7218 89.1876C55.2042 89.1876 33.6866 89.1876 12.1728 89.1876C10.3732 89.1876 9.70898 88.5349 9.70898 86.7663C9.70898 70.2341 9.70898 53.702 9.70898 37.1699C9.70898 35.4012 10.3732 34.7563 12.1805 34.7563C22.9548 34.7563 33.7291 34.7563 44.5033 34.7563L44.4995 34.7524ZM44.3991 85.3258C54.4048 85.3258 64.4067 85.3181 74.4125 85.3452C75.1578 85.3452 75.3548 85.1714 75.351 84.4106C75.3278 69.4541 75.3278 54.4937 75.351 39.5371C75.351 38.788 75.1733 38.5987 74.4164 38.5987C54.4396 38.6219 34.4628 38.6219 14.486 38.5987C13.7406 38.5987 13.5437 38.7725 13.5476 39.5333C13.5708 54.4898 13.5708 69.4502 13.5476 84.4067C13.5476 85.1559 13.7252 85.349 14.4821 85.3452C24.4532 85.3181 34.428 85.3258 44.3991 85.3258Z" fill="#0D3F39"/>
<path d="M27.0522 57.139C27.2067 52.8795 28.9561 49.4966 32.7367 47.4036C36.4788 45.3337 40.2479 45.5461 43.8779 47.7898C44.3413 48.0755 44.6155 48.0292 45.0634 47.7589C49.0024 45.4032 53.0109 45.2989 56.8611 47.8361C60.7421 50.3926 62.2173 54.1809 61.7269 58.7378C61.445 61.3367 60.4138 63.6886 58.9927 65.8589C56.0269 70.4003 52.1806 74.0149 47.5234 76.803C45.4766 78.0272 43.5805 78.1276 41.5068 76.8571C35.5249 73.2 30.6668 68.5505 27.9636 61.9431C27.338 60.4177 27.0522 58.8034 27.0561 57.1352L27.0522 57.139ZM57.9539 57.7646C57.981 54.2891 56.471 51.748 53.9068 50.5741C51.192 49.3306 48.6548 49.6936 46.3494 51.5704C44.6541 52.9529 44.2216 52.9684 42.5726 51.5859C38.5989 48.2493 32.6093 50.0643 31.2152 55.0421C30.6746 56.973 30.8676 58.8884 31.6361 60.6995C34.1077 66.5269 38.4367 70.6397 43.8508 73.7175C44.2872 73.9647 44.6811 73.926 45.1098 73.6866C50.1146 70.8984 54.0613 67.0483 56.7413 61.9662C57.5098 60.5103 57.9308 58.9231 57.9539 57.7608V57.7646Z" fill="#0D3F39"/>
</svg>
