<svg width="98" height="99" viewBox="0 0 98 99" fill="none" xmlns="http://www.w3.org/2000/svg">
<path d="M60.8493 64.2019H37.2257C37.4874 64.5507 37.6914 64.818 37.8915 65.0893C38.9268 66.4648 39.4772 67.9837 39.4733 69.739C39.4502 78.213 39.4656 86.6871 39.4579 95.1611C39.4579 97.6255 38.0878 98.9971 35.6592 98.9971C29.8976 99.001 24.136 99.001 18.3744 98.9971C16.0229 98.9971 14.6758 97.5867 14.6296 95.196C14.5834 92.6852 14.7913 90.1704 14.4795 87.6674C14.1447 84.9822 13.0901 82.607 11.489 80.4565C8.78334 76.822 6.11231 73.1681 3.37969 69.5568C1.08583 66.5268 -0.0264635 63.1558 0.000477774 59.3314C0.0582091 51.3068 0.0158728 43.2861 0.0158728 35.2615C0.0158728 31.627 2.59839 28.5931 5.98145 28.2482C9.34141 27.9034 12.5975 30.4801 13.2864 34.0294C13.552 35.3971 13.552 35.4088 14.8528 35.0445C16.1961 34.6687 17.52 34.6997 18.794 35.2654C19.3982 35.5327 19.5637 35.4243 19.556 34.7578C19.5252 32.7623 19.5329 30.763 19.556 28.7636C19.5599 28.318 19.429 28.0971 18.9941 27.915C17.7356 27.3919 17.1582 26.3535 17.1505 25.0167C17.1313 22.0525 17.1428 19.0883 17.1505 16.1242C17.1505 15.4422 17.2814 14.7758 17.5393 14.1442C17.9703 13.0903 18.7247 12.5129 19.9024 12.5207C22.431 12.5362 24.9597 12.4974 27.4883 12.54C28.1811 12.5517 28.3389 12.3347 28.3119 11.6721C28.2273 9.7076 28.335 7.75087 28.6352 5.798C29.4358 0.636849 34.4469 -0.854937 37.8838 0.4586C40.2893 1.37691 42.002 3.10893 43.5299 5.08892C44.0611 5.77475 44.4344 6.69695 45.1195 7.11155C45.8084 7.53002 46.582 6.67756 47.3787 6.53807C49.0414 6.23971 50.6347 6.37147 52.155 7.08442C52.6592 7.32078 52.9094 7.2704 53.2327 6.81318C54.191 5.4454 55.1763 4.09312 56.3771 2.92295C57.4432 1.88452 58.6517 1.08245 60.0334 0.50124C63.4357 -0.924664 68.6508 0.636845 69.3897 5.89099C69.6591 7.81286 69.8016 9.73472 69.713 11.6682C69.6822 12.3347 69.8439 12.5478 70.5367 12.5362C72.9691 12.4936 75.4015 12.5129 77.8339 12.5207C79.512 12.5245 80.3664 13.2181 80.7051 14.8804C80.8129 15.4112 80.8744 15.9653 80.8744 16.5078C80.8898 19.2472 80.8744 21.9867 80.886 24.7261C80.8937 26.2217 80.3356 27.3609 78.9308 27.9576C78.5575 28.1165 78.469 28.318 78.4728 28.6745C78.4805 30.7358 78.4767 32.7972 78.4728 34.8624C78.4728 35.2034 78.4613 35.5909 78.9693 35.3506C80.8167 34.4827 82.641 34.7307 84.5115 35.5134C84.6732 33.731 85.1504 32.1617 86.2281 30.8094C88.0293 28.5505 90.8466 27.667 93.4368 28.5776C96.0924 29.5114 97.9706 32.1036 97.9783 34.8934C97.9937 43.2396 98.0052 51.5858 97.9976 59.932C97.9976 63.3921 96.8968 66.4919 94.8416 69.2585C92.082 72.9705 89.3494 76.7019 86.5629 80.3906C84.3922 83.2657 83.303 86.4662 83.3761 90.0852C83.4146 91.825 83.3954 93.5647 83.3761 95.3045C83.3569 97.5363 81.9213 98.9894 79.7006 98.9932C73.8735 99.001 68.0465 99.001 62.2234 98.9932C59.9564 98.9932 58.5632 97.6138 58.5593 95.3277C58.5439 86.7258 58.5632 78.12 58.5478 69.5181C58.5439 67.4606 59.4561 65.8255 60.8378 64.1981L60.8493 64.2019ZM35.8016 81.9754C35.8016 77.9146 35.7901 73.8539 35.8093 69.7932C35.8132 68.747 35.5553 67.8403 34.8548 67.046C31.6527 63.4038 28.4736 59.7383 25.2676 56.0999C23.959 54.6158 22.0192 54.426 20.7568 55.6078C19.4059 56.8748 19.379 58.7696 20.7029 60.2458C23.4933 63.3534 26.2952 66.4493 29.0778 69.5646C29.8438 70.4209 29.8399 71.5562 29.1163 72.2537C28.362 72.9782 27.165 72.9279 26.3837 72.0638C21.5805 66.7477 16.7849 61.4276 12.0125 56.0882C10.9233 54.8716 10.2728 53.4031 9.98031 51.7873C9.63392 49.8693 9.83021 47.9319 9.81481 46.0023C9.78017 42.4259 9.81481 38.8495 9.79942 35.2731C9.79172 33.6031 8.45235 32.0959 6.90515 31.9254C5.53499 31.7743 4.15329 32.7778 3.77996 34.2463C3.67219 34.6726 3.67604 35.1375 3.67604 35.587C3.67219 43.5457 3.69913 51.5044 3.6568 59.4631C3.6414 62.3886 4.51122 64.9459 6.25471 67.263C9.09124 71.037 11.8931 74.8381 14.7027 78.6315C16.3308 80.8284 17.4084 83.2734 17.9511 85.9663C18.5169 88.7794 18.2397 91.6196 18.2744 94.4482C18.2821 95.1766 18.463 95.3471 19.175 95.3432C24.4247 95.3122 29.6744 95.3122 34.9241 95.3432C35.6323 95.3471 35.8286 95.1882 35.8209 94.452C35.7824 90.2944 35.8016 86.1369 35.8016 81.9831V81.9754ZM94.3528 47.8002C94.3528 43.5806 94.3605 39.361 94.3528 35.1375C94.3528 33.7349 93.5753 32.5686 92.3822 32.1036C90.4078 31.3287 88.241 32.9716 88.2294 35.2964C88.2102 40.0662 88.2102 44.8321 88.2294 49.6019C88.241 52.229 87.4212 54.5461 85.6815 56.4874C81.0361 61.6795 76.356 66.8445 71.6874 72.0212C71.3834 72.3621 71.0409 72.6489 70.5675 72.707C69.7515 72.8116 69.0164 72.6683 68.5969 71.8623C68.162 71.0254 68.3082 70.262 68.9394 69.5607C71.7606 66.4377 74.5663 63.3069 77.3875 60.1838C77.78 59.746 78.1033 59.2849 78.2226 58.6921C78.5113 57.2507 77.8724 55.8054 76.6523 55.1583C75.4361 54.5151 73.8697 54.8367 72.8267 56.0224C69.536 59.7576 66.2684 63.5122 62.9893 67.2591C62.4312 67.8985 62.2234 68.6463 62.2234 69.4832C62.2234 77.8604 62.231 86.2337 62.2118 94.6109C62.2118 95.1379 62.3196 95.3277 62.8853 95.3239C68.262 95.3006 73.6388 95.3006 79.0155 95.3239C79.6467 95.3239 79.7467 95.1069 79.7352 94.5489C79.7044 92.844 79.7352 91.1353 79.7236 89.4265C79.7006 85.4627 80.8937 81.8979 83.2376 78.7245C86.0818 74.8768 88.926 71.0292 91.7972 67.201C93.5368 64.88 94.3836 62.2956 94.3566 59.3856C94.322 55.5187 94.3489 51.6555 94.3489 47.7886L94.3528 47.8002ZM42.4022 46.6571C42.4022 42.9878 42.333 39.3145 42.433 35.6451C42.4831 33.8124 42.1559 32.1811 41.2014 30.6157C40.8435 30.0267 40.5241 29.895 39.9236 30.0035C39.0115 30.174 38.0955 30.3212 37.1756 30.4258C36.0595 30.5537 35.2128 29.9182 35.3321 28.8914C35.4244 28.0855 35.055 28.1707 34.5546 28.1707C31.0369 28.1785 27.5191 28.1901 23.9975 28.1591C23.3547 28.1552 23.0815 28.2909 23.1277 28.9999C23.1892 29.8989 23.1431 30.8017 23.1431 31.7045C23.1431 37.8847 23.1431 44.0688 23.1431 50.249C23.1431 50.6636 22.9699 51.1518 23.7127 51.2022C25.2984 51.3107 26.5454 52.1399 27.5807 53.2946C29.5512 55.4915 31.5141 57.7001 33.4423 59.9359C33.8157 60.3659 34.1813 60.5364 34.7432 60.5287C36.9832 60.4977 39.2232 60.4861 41.4593 60.5326C42.1906 60.5481 42.4253 60.3814 42.4176 59.5988C42.3753 55.2862 42.3984 50.9697 42.3984 46.6571H42.4022ZM55.6266 46.6145C55.6266 50.9658 55.6381 55.3172 55.6112 59.6646C55.6073 60.3156 55.7343 60.5481 56.4387 60.5365C58.7749 60.49 61.1111 60.5054 63.4511 60.5287C63.913 60.5326 64.2016 60.3737 64.5018 60.0288C66.4878 57.7505 68.4853 55.4877 70.4982 53.2403C71.5143 52.1089 72.7382 51.3223 74.2931 51.2022C74.7357 51.1673 74.8935 51.0162 74.8935 50.559C74.8819 43.3094 74.8819 36.0597 74.8935 28.8062C74.8935 28.3761 74.8088 28.1669 74.3161 28.1669C70.6021 28.1824 66.888 28.1824 63.174 28.1669C62.7506 28.1669 62.6698 28.2754 62.6737 28.7093C62.689 30.0113 62.0232 30.5692 60.7262 30.4026C59.8063 30.2864 58.8942 30.1197 57.9743 29.9958C57.7011 29.9609 57.2931 29.7865 57.1699 30.0732C56.6427 31.2938 55.6227 32.3051 55.6266 33.7504C55.6343 38.0358 55.6266 42.3213 55.6266 46.6068V46.6145ZM52.028 45.8241C52.028 41.2829 52.0241 36.7417 52.0357 32.2005C52.0357 31.6077 51.9433 31.0652 51.7047 30.5227C50.6078 28.0313 50.6155 28.0235 47.8944 28.1785C47.6866 28.1901 47.4095 28.0894 47.3017 28.3606C46.863 29.4882 46.0239 30.5072 46.0201 31.751C45.9854 41.124 46.0047 50.497 45.9931 59.8661C45.9931 60.366 46.1278 60.5326 46.6359 60.5248C48.1407 60.4938 49.6456 60.4745 51.1466 60.5326C51.8625 60.5597 52.0549 60.3737 52.0511 59.6375C52.0126 55.0304 52.0318 50.4272 52.0318 45.8202L52.028 45.8241ZM57.9859 14.1364C58.8518 14.768 59.6139 15.3027 60.3529 15.8607C61.2612 16.5465 61.4998 17.5772 60.9648 18.3909C60.426 19.2085 59.2444 19.4216 58.3169 18.8288C57.7242 18.4529 57.1699 18.0112 56.5811 17.6237C56.4002 17.5036 56.1654 17.151 55.9614 17.4493C55.7574 17.7477 55.3495 18.0305 55.6651 18.5498C56.7851 20.3903 58.236 21.8355 60.2951 22.5524C63.0277 23.4978 64.7481 22.564 65.5371 19.7742C66.0567 17.9298 66.126 16.0273 66.2453 14.1326C66.4031 11.5946 66.6533 9.05279 66.1029 6.53033C65.4255 3.41504 63.1509 2.48123 60.5453 4.27911C58.5324 5.66627 57.1314 7.64625 55.6766 9.56812C55.2725 10.099 55.6805 10.4206 55.9075 10.7538C56.2116 11.2033 56.4387 10.715 56.6503 10.5794C57.1892 10.2346 57.6895 9.82772 58.2129 9.46349C59.1674 8.79704 60.2105 8.91715 60.8493 9.7541C61.4959 10.6027 61.292 11.7147 60.3298 12.4432C59.5946 13.0011 58.8364 13.5281 57.9859 14.1364ZM39.9506 14.1984C39.8967 14.0783 39.8929 14.0396 39.8736 14.0241C39.2001 13.5358 38.5266 13.0476 37.853 12.5594C36.7253 11.7419 36.4598 10.6995 37.141 9.76573C37.7991 8.86292 38.8999 8.80093 40.016 9.59912C40.4317 9.89748 40.8358 10.2191 41.2707 10.4864C41.517 10.6375 41.7595 11.1413 42.0905 10.7538C42.3946 10.3973 42.7294 9.9866 42.256 9.40926C41.263 8.18872 40.3432 6.90616 39.2347 5.78249C38.3957 4.93392 37.5028 4.15899 36.3982 3.6669C34.8086 2.96169 33.3192 3.46928 32.484 4.99981C32.0145 5.86 31.8259 6.80542 31.7258 7.77023C31.3948 10.932 31.745 14.0783 32.0068 17.2207C32.0953 18.3057 32.3147 19.3867 32.688 20.4213C33.3769 22.3354 34.2968 23.0173 36.3174 22.812C39.1385 22.5291 41.0128 20.8165 42.383 18.4452C42.6409 17.9957 42.2521 17.7012 42.052 17.4338C41.8403 17.1549 41.6133 17.5191 41.4247 17.6392C40.8627 18.0073 40.3316 18.4258 39.7697 18.79C38.7998 19.4216 37.6105 19.224 37.0448 18.3638C36.5021 17.5385 36.7446 16.562 37.6875 15.853C38.4303 15.295 39.1885 14.7564 39.9583 14.1946L39.9506 14.1984ZM81.5595 55.6155C83.4069 53.8293 84.6308 51.8997 84.5731 49.2997C84.5192 46.7889 84.5692 44.278 84.5577 41.7672C84.55 39.888 83.2337 38.4659 81.5364 38.4698C79.8083 38.4737 78.4997 39.8453 78.4844 41.7478C78.4613 44.9677 78.4767 48.1877 78.4767 51.4037C78.4767 51.7292 78.4574 52.0159 78.8269 52.2135C80.1701 52.9226 80.9437 54.1276 81.5595 55.6155ZM16.4385 55.5962C17.4315 53.5658 17.5585 53.3876 19.1981 52.2213C19.4829 52.0198 19.5483 51.8144 19.5445 51.5044C19.5368 48.2225 19.5676 44.9367 19.5291 41.6548C19.506 39.7911 18.1089 38.4311 16.3808 38.4737C14.7412 38.5124 13.4711 39.9383 13.4634 41.7749C13.4557 44.3168 13.4942 46.8625 13.4519 49.4043C13.4096 51.9655 14.6412 53.8564 16.4385 55.5962ZM66.9997 24.5285C70.3173 24.5285 73.4733 24.5169 76.6292 24.5401C77.1488 24.544 77.2682 24.3735 77.2643 23.8814C77.2412 21.6612 77.2297 19.4448 77.2643 17.2246C77.2797 16.4225 76.991 16.1436 76.2059 16.1591C74.2276 16.1939 72.2455 16.1978 70.2634 16.1591C69.6591 16.1474 69.5552 16.3373 69.509 16.9069C69.3012 19.5882 68.7124 22.161 66.9958 24.5285H66.9997ZM31.0099 24.5285C29.2972 22.1339 28.7045 19.5301 28.5044 16.8178C28.4697 16.3373 28.3851 16.1552 27.8616 16.1629C25.8179 16.1939 23.7743 16.1901 21.7306 16.1668C21.0455 16.1591 20.753 16.3915 20.7645 17.12C20.7953 19.3712 20.7876 21.6224 20.7645 23.8736C20.7607 24.3464 20.8454 24.5479 21.3842 24.544C24.5402 24.5169 27.7 24.5324 31.0099 24.5324V24.5285ZM53.0672 14.0977C53.0556 11.8426 51.2044 10.0176 48.9528 10.0447C46.7436 10.068 44.9694 11.8813 44.9655 14.1209C44.9617 16.4264 46.736 18.2127 49.0221 18.2049C51.2929 18.2011 53.0826 16.3838 53.0672 14.0977ZM40.5048 26.2644C41.9442 25.9118 42.9372 26.4697 43.7416 27.5547C44.5729 25.6483 45.3542 23.8659 46.1355 22.0797C46.2856 21.7348 46.5666 21.3357 45.9393 21.1962C45.4813 21.0955 45.0848 20.2973 44.5152 21.1342C43.6685 22.3741 42.7563 23.583 41.6017 24.5556C41.086 24.9896 40.7704 25.4933 40.5087 26.2605L40.5048 26.2644ZM57.5702 26.2605C57.3393 25.7762 57.2661 25.3693 57.0275 25.1562C55.5996 23.8969 54.4296 22.4167 53.2634 20.9211C52.8786 20.429 52.4552 21.1226 52.0357 21.2156C51.6508 21.3008 51.6547 21.5449 51.8009 21.8743C52.6284 23.7342 53.4405 25.6057 54.2988 27.5624C55.1031 26.4039 56.1154 25.9428 57.5702 26.2566V26.2605Z" fill="#0D3F39"/>
</svg>
