<svg width="807" height="867" viewBox="0 0 807 867" fill="none" xmlns="http://www.w3.org/2000/svg">
<path d="M229.417 652.639C228.105 657.349 224.255 661.106 219.443 662.041C217.518 662.412 215.471 662.235 213.546 661.653C215.331 659.519 216.45 656.82 216.45 653.486C216.45 648.564 212.986 644.206 208.208 643.201C202.994 642.09 198.286 645.724 197.044 650.769C196.326 653.662 196.729 656.431 197.849 658.954C197.289 658.901 196.746 658.831 196.291 658.725C191.217 657.631 186.474 654.156 184.654 649.111C183.849 646.87 181.68 645.371 179.265 646.023C177.112 646.623 175.397 649.199 176.202 651.457C179.16 659.713 186.439 666.063 195.101 667.457C198.146 667.951 201.541 667.775 204.709 666.928C207.613 668.939 210.921 670.315 214.018 670.773C224.71 672.361 234.912 665.446 237.817 655.003C239.339 649.534 230.905 647.188 229.382 652.656L229.417 652.639ZM206.248 651.757C206.248 651.757 206.878 651.898 207.176 652.18C207.718 652.674 207.771 653.433 207.648 654.191C207.491 655.091 207.106 655.832 206.563 656.449C205.828 655.214 204.586 652.498 206.248 651.757Z" fill="#969696"/>
<path d="M148.331 49.0416C148.331 49.3571 148.296 49.6726 148.262 49.9881L148.417 48.8922C148.314 49.5065 148.158 50.0877 147.898 50.6688L148.331 49.6726C148.158 50.0545 147.95 50.4364 147.708 50.7851C147.466 51.1337 147.137 51.25 147.933 50.5194C147.777 50.6688 147.639 50.8349 147.5 50.9843C147.466 51.0175 147.033 51.4326 147.016 51.3994C147.016 51.3994 148.071 50.6854 147.293 51.1836C146.929 51.416 146.549 51.6153 146.133 51.7813L147.172 51.3662C146.583 51.5987 145.96 51.7647 145.32 51.8643L146.462 51.7149C145.805 51.7979 145.147 51.7979 144.49 51.7149L145.632 51.8643C144.991 51.7647 144.386 51.6153 143.78 51.3662L144.818 51.7813C144.42 51.6153 144.022 51.416 143.659 51.1836C143.296 50.9511 143.175 50.6356 143.936 51.3994C143.78 51.25 143.607 51.1171 143.452 50.9843C143.417 50.9511 142.984 50.536 143.019 50.5194C143.019 50.5194 143.763 51.5322 143.244 50.7851C143.002 50.4364 142.794 50.0711 142.621 49.6726L143.054 50.6688C142.811 50.1043 142.638 49.5065 142.534 48.8922L142.69 49.9881C142.604 49.3571 142.604 48.7261 142.69 48.0952L142.534 49.1911C142.638 48.5767 142.794 47.9956 143.054 47.4144L142.621 48.4107C142.794 48.0288 143.002 47.6469 143.244 47.2982C143.486 46.9495 143.815 46.8333 143.019 47.5638C143.175 47.4144 143.313 47.2484 143.452 47.0989C143.486 47.0657 143.919 46.6506 143.936 46.6838C143.936 46.6838 142.881 47.3978 143.659 46.8997C144.022 46.6672 144.403 46.468 144.818 46.3019L143.78 46.717C144.369 46.4846 144.991 46.3185 145.632 46.2189L144.49 46.3683C145.147 46.2853 145.805 46.2853 146.462 46.3683L145.32 46.2189C145.96 46.3185 146.566 46.468 147.172 46.717L146.133 46.3019C146.531 46.468 146.929 46.6672 147.293 46.8997C147.656 47.1321 147.777 47.4476 147.016 46.6838C147.172 46.8333 147.345 46.9661 147.5 47.0989C147.535 47.1321 147.968 47.5472 147.933 47.5638C147.933 47.5638 147.189 46.551 147.708 47.2982C147.95 47.6469 148.158 48.0122 148.331 48.4107L147.898 47.4144C148.141 47.9789 148.314 48.5767 148.417 49.1911L148.262 48.0952C148.296 48.4107 148.331 48.7261 148.331 49.0416C148.365 51.2168 150.303 53.2923 152.657 53.1927C155.01 53.093 157.017 51.3662 156.982 49.0416C156.913 44.2762 153.816 40.2746 149.213 38.6142C145.009 37.1032 139.731 38.4648 136.876 41.769C135.198 43.7117 134.298 45.8536 134.039 48.3608C133.831 50.4862 134.471 52.8274 135.613 54.6372C136.755 56.4471 138.416 58.0079 140.406 58.8879C142.846 59.9672 145.303 60.2494 147.933 59.7845C153.21 58.8713 156.93 54.0063 157 49.025C157.034 46.8499 154.992 44.7743 152.674 44.874C150.355 44.9736 148.383 46.7004 148.348 49.025L148.331 49.0416Z" fill="#515151"/>
<path d="M170.331 591.544C170.331 591.873 170.296 592.203 170.262 592.533L170.417 591.387C170.314 592.03 170.158 592.637 169.898 593.245L170.331 592.203C170.158 592.602 169.95 593.002 169.708 593.366C169.466 593.731 169.137 593.852 169.933 593.088C169.777 593.245 169.639 593.418 169.5 593.575C169.466 593.609 169.033 594.043 169.016 594.008C169.016 594.008 170.071 593.262 169.293 593.783C168.929 594.026 168.549 594.234 168.133 594.408L169.172 593.974C168.583 594.217 167.96 594.39 167.32 594.495L168.462 594.338C167.805 594.425 167.147 594.425 166.49 594.338L167.632 594.495C166.991 594.39 166.386 594.234 165.78 593.974L166.818 594.408C166.42 594.234 166.022 594.026 165.659 593.783C165.296 593.54 165.175 593.21 165.936 594.008C165.78 593.852 165.607 593.713 165.451 593.575C165.417 593.54 164.984 593.106 165.019 593.088C165.019 593.088 165.763 594.147 165.244 593.366C165.002 593.002 164.794 592.62 164.621 592.203L165.054 593.245C164.811 592.654 164.638 592.03 164.534 591.387L164.69 592.533C164.604 591.873 164.604 591.214 164.69 590.554L164.534 591.7C164.638 591.057 164.794 590.45 165.054 589.842L164.621 590.884C164.794 590.485 165.002 590.085 165.244 589.721C165.486 589.356 165.815 589.235 165.019 589.999C165.175 589.842 165.313 589.669 165.451 589.513C165.486 589.478 165.919 589.044 165.936 589.079C165.936 589.079 164.881 589.825 165.659 589.304C166.022 589.061 166.403 588.853 166.818 588.679L165.78 589.113C166.369 588.87 166.991 588.697 167.632 588.593L166.49 588.749C167.147 588.662 167.805 588.662 168.462 588.749L167.32 588.593C167.96 588.697 168.566 588.853 169.172 589.113L168.133 588.679C168.531 588.853 168.929 589.061 169.293 589.304C169.656 589.547 169.777 589.877 169.016 589.079C169.172 589.235 169.345 589.374 169.5 589.513C169.535 589.547 169.968 589.981 169.933 589.999C169.933 589.999 169.189 588.94 169.708 589.721C169.95 590.085 170.158 590.467 170.331 590.884L169.898 589.842C170.141 590.433 170.314 591.057 170.417 591.7L170.262 590.554C170.296 590.884 170.331 591.214 170.331 591.544C170.365 593.818 172.303 595.987 174.657 595.883C177.01 595.779 179.017 593.974 178.982 591.544C178.913 586.561 175.816 582.378 171.213 580.642C167.009 579.062 161.731 580.486 158.876 583.94C157.198 585.971 156.298 588.211 156.039 590.832C155.831 593.054 156.471 595.501 157.613 597.393C158.755 599.286 160.416 600.917 162.406 601.837C164.846 602.966 167.303 603.261 169.933 602.775C175.21 601.82 178.93 596.734 179 591.526C179.034 589.252 176.992 587.082 174.674 587.186C172.355 587.291 170.383 589.096 170.348 591.526L170.331 591.544Z" fill="#515151"/>
<path d="M326.331 632.544C326.331 632.873 326.296 633.203 326.262 633.533L326.417 632.387C326.314 633.03 326.158 633.637 325.898 634.245L326.331 633.203C326.158 633.602 325.95 634.002 325.708 634.366C325.466 634.731 325.137 634.852 325.933 634.088C325.777 634.245 325.639 634.418 325.5 634.574C325.466 634.609 325.033 635.043 325.016 635.008C325.016 635.008 326.071 634.262 325.293 634.783C324.929 635.026 324.549 635.234 324.133 635.408L325.172 634.974C324.583 635.217 323.96 635.39 323.32 635.494L324.462 635.338C323.805 635.425 323.147 635.425 322.49 635.338L323.632 635.494C322.991 635.39 322.386 635.234 321.78 634.974L322.818 635.408C322.42 635.234 322.022 635.026 321.659 634.783C321.296 634.54 321.175 634.21 321.936 635.008C321.78 634.852 321.607 634.713 321.452 634.574C321.417 634.54 320.984 634.106 321.019 634.088C321.019 634.088 321.763 635.147 321.244 634.366C321.002 634.002 320.794 633.62 320.621 633.203L321.054 634.245C320.811 633.654 320.638 633.03 320.534 632.387L320.69 633.533C320.604 632.873 320.604 632.214 320.69 631.554L320.534 632.7C320.638 632.057 320.794 631.45 321.054 630.842L320.621 631.884C320.794 631.485 321.002 631.085 321.244 630.721C321.486 630.356 321.815 630.235 321.019 630.999C321.175 630.842 321.313 630.669 321.452 630.512C321.486 630.478 321.919 630.044 321.936 630.079C321.936 630.079 320.881 630.825 321.659 630.304C322.022 630.061 322.403 629.853 322.818 629.679L321.78 630.113C322.369 629.87 322.991 629.697 323.632 629.592L322.49 629.749C323.147 629.662 323.805 629.662 324.462 629.749L323.32 629.592C323.96 629.697 324.566 629.853 325.172 630.113L324.133 629.679C324.531 629.853 324.929 630.061 325.293 630.304C325.656 630.547 325.777 630.877 325.016 630.079C325.172 630.235 325.345 630.374 325.5 630.512C325.535 630.547 325.968 630.981 325.933 630.999C325.933 630.999 325.189 629.94 325.708 630.721C325.95 631.085 326.158 631.467 326.331 631.884L325.898 630.842C326.141 631.433 326.314 632.057 326.417 632.7L326.262 631.554C326.296 631.884 326.331 632.214 326.331 632.544C326.365 634.818 328.303 636.987 330.657 636.883C333.01 636.779 335.017 634.974 334.982 632.544C334.913 627.561 331.816 623.378 327.213 621.642C323.009 620.062 317.731 621.486 314.876 624.94C313.198 626.971 312.298 629.211 312.039 631.832C311.831 634.054 312.471 636.501 313.613 638.393C314.755 640.286 316.416 641.917 318.406 642.837C320.846 643.966 323.303 644.261 325.933 643.775C331.21 642.82 334.93 637.734 335 632.526C335.034 630.252 332.992 628.082 330.674 628.186C328.355 628.291 326.383 630.096 326.348 632.526L326.331 632.544Z" fill="#969696"/>
<path d="M452.284 730.469C452.284 730.609 452.284 730.749 452.249 730.906L452.406 729.752C452.371 730.032 452.284 730.294 452.179 730.556L452.616 729.507C452.511 729.752 452.371 729.997 452.196 730.206L452.878 729.314C452.72 729.507 452.546 729.682 452.354 729.839L453.244 729.157C453.035 729.332 452.79 729.472 452.546 729.577L453.594 729.139C453.332 729.244 453.07 729.314 452.79 729.367L453.943 729.209C453.646 729.244 453.367 729.244 453.087 729.209L454.24 729.367C453.96 729.332 453.698 729.244 453.436 729.139L454.484 729.577C454.24 729.472 453.995 729.332 453.786 729.157L454.677 729.839C454.484 729.682 454.31 729.507 454.153 729.314L454.834 730.206C454.659 729.997 454.519 729.752 454.415 729.507L454.851 730.556C454.746 730.294 454.677 730.032 454.624 729.752L454.781 730.906C454.746 730.609 454.746 730.329 454.781 730.049L454.624 731.203C454.659 730.924 454.746 730.661 454.851 730.399L454.415 731.448C454.519 731.203 454.659 730.959 454.834 730.749L454.153 731.641C454.31 731.448 454.484 731.273 454.677 731.116L453.786 731.798C453.995 731.623 454.24 731.483 454.484 731.378L453.436 731.816C453.698 731.711 453.96 731.641 454.24 731.588L453.087 731.746C453.384 731.711 453.664 731.711 453.943 731.746L452.79 731.588C453.07 731.623 453.332 731.711 453.594 731.816L452.546 731.378C452.79 731.483 453.035 731.623 453.244 731.798L452.354 731.116C452.546 731.273 452.72 731.448 452.878 731.641L452.196 730.749C452.371 730.959 452.511 731.203 452.616 731.448L452.179 730.399C452.284 730.661 452.354 730.924 452.406 731.203L452.249 730.049C452.266 730.189 452.284 730.329 452.284 730.486C452.284 731.623 452.755 732.778 453.559 733.582C453.96 734.002 454.415 734.317 454.956 734.492C455.48 734.772 456.039 734.894 456.633 734.877C457.768 734.824 458.939 734.457 459.725 733.6C460.511 732.743 461.017 731.693 461 730.504C461 729.979 460.895 729.437 460.807 728.912C460.773 728.737 460.738 728.545 460.685 728.37C460.528 727.863 460.301 727.373 460.074 726.901C459.986 726.743 459.899 726.586 459.794 726.446C459.497 726.043 459.201 725.606 458.851 725.256C458.502 724.907 458.048 724.574 457.646 724.277C457.087 723.857 456.423 723.612 455.795 723.367C455.62 723.297 455.445 723.245 455.27 723.21C454.746 723.105 454.188 723.017 453.646 723C453.471 723 453.297 723 453.122 723.017C452.581 723.07 452.022 723.122 451.498 723.262C451.009 723.402 450.52 723.63 450.065 723.84C449.908 723.91 449.751 723.997 449.594 724.084C449.017 724.469 448.441 724.889 447.987 725.414C447.672 725.799 447.341 726.201 447.061 726.638C446.782 727.075 446.607 727.6 446.415 728.09C446.153 728.755 446.083 729.489 446.013 730.189C445.996 730.381 445.996 730.574 446.013 730.749C446.066 731.291 446.118 731.851 446.24 732.375C446.275 732.533 446.328 732.69 446.397 732.848C446.59 733.337 446.764 733.845 447.044 734.299C447.323 734.754 447.637 735.139 447.952 735.524C448.057 735.664 448.179 735.786 448.319 735.909C448.825 736.363 449.402 736.836 450.013 737.133C450.467 737.343 450.956 737.57 451.445 737.71C451.969 737.868 452.528 737.903 453.052 737.973C453.768 738.06 454.502 737.92 455.201 737.798C455.41 737.763 455.602 737.693 455.795 737.623C456.284 737.43 456.825 737.238 457.279 736.958C457.733 736.678 458.17 736.328 458.554 735.996C458.694 735.874 458.834 735.734 458.956 735.594C459.742 734.667 460.179 733.932 460.598 732.778C460.668 732.585 460.72 732.41 460.755 732.218C460.86 731.658 460.947 731.081 460.965 730.504C460.965 729.384 460.476 728.195 459.69 727.408C459.288 726.988 458.834 726.673 458.292 726.498C457.768 726.218 457.209 726.096 456.615 726.113C455.48 726.166 454.31 726.533 453.524 727.39C452.738 728.247 452.266 729.297 452.249 730.486L452.284 730.469Z" fill="#969696"/>
<path d="M162.704 25.8929C167.389 24.6831 171.466 21.7201 174.094 17.7226C176.901 13.4621 177.617 8.13204 176.49 3.24035C175.972 0.996131 173.218 -0.529235 170.983 0.172083C168.587 0.926 167.3 3.17022 167.854 5.57223C167.908 5.80016 167.961 6.04562 167.997 6.27355C168.068 6.65927 167.925 7.0976 167.997 6.09822C167.979 6.51901 168.068 6.95733 168.086 7.37812C168.104 7.79891 168.086 8.23724 168.051 8.65803C168.051 8.81582 167.925 9.6574 168.051 8.93855C168.158 8.25477 168.051 8.93855 168.015 9.06129C167.854 9.95547 167.586 10.8146 167.282 11.6737C167.014 12.4276 167.586 11.0776 167.335 11.551C167.246 11.7263 167.174 11.9016 167.085 12.0594C166.87 12.4802 166.638 12.8835 166.37 13.2692C166.28 13.4095 166.173 13.5673 166.066 13.7075C165.672 14.2686 165.923 13.8127 166.191 13.5673C165.905 13.8302 165.655 14.1809 165.386 14.4614C165.118 14.742 164.814 15.0225 164.51 15.2855C164.349 15.4257 164.171 15.566 163.992 15.7238C163.58 16.0745 164.796 15.1628 164.135 15.6011C163.473 16.0394 162.776 16.4777 162.043 16.8284C161.953 16.8634 161.113 17.2316 161.828 16.9336C162.543 16.6355 161.703 16.9686 161.614 17.0037C161.184 17.1615 160.755 17.2842 160.308 17.3894C158.055 17.968 156.446 20.5454 157.179 22.7896C157.912 25.0338 160.255 26.4715 162.686 25.8578L162.704 25.8929Z" fill="#969696"/>
<path d="M189.289 239.572C186.049 241.385 182.792 243.181 179.553 244.994C179.087 245.253 178.64 245.512 178.174 245.753C175.275 247.377 175.275 251.59 178.174 253.213C181.414 255.009 184.653 256.822 187.893 258.618C188.358 258.877 188.823 259.136 189.289 259.395C189.342 259.412 189.378 259.429 189.432 259.464C190.076 259.809 190.792 260.016 191.544 259.999C191.866 259.999 192.188 259.93 192.492 259.861C193.691 259.619 194.801 258.946 195.391 257.858C195.427 257.771 195.463 257.685 195.499 257.616C195.803 257.046 196 256.39 196 255.682V243.301C196 240.021 192.206 237.931 189.271 239.572H189.289Z" fill="#515151"/>
<path d="M806.922 594.552C806.922 594.447 806.886 594.343 806.869 594.256C806.869 594.222 806.869 594.187 806.851 594.152C806.851 594.135 806.851 594.118 806.833 594.1C806.656 593.423 806.32 592.781 805.717 592.225C805.629 592.156 805.523 592.086 805.434 592.017C805.434 592.017 805.399 591.999 805.381 591.982C805.222 591.86 805.044 591.739 804.85 591.635C804.743 591.583 804.637 591.531 804.531 591.478C804.371 591.409 804.212 591.34 804.053 591.287C803.999 591.287 803.964 591.253 803.911 591.253C803.025 590.975 802.051 590.906 801.183 591.149C795.072 592.104 788.962 593.058 782.833 594.031C781.948 594.17 781.08 594.309 780.194 594.447C777.307 594.899 776.244 598.614 777.555 600.819C780.106 605.16 782.656 609.5 785.224 613.841C786.535 616.063 790.361 616.914 792.185 614.726C796.135 609.952 800.085 605.195 804.035 600.42C804.566 599.778 805.098 599.135 805.629 598.493C806.656 597.486 807.188 595.906 806.94 594.569L806.922 594.552ZM788.413 601.878C789.564 601.705 790.733 601.514 791.884 601.34C791.14 602.226 790.396 603.129 789.67 604.014C789.245 603.302 788.838 602.59 788.413 601.878Z" fill="#515151"/>
<path d="M57.3773 273.867C57.0363 274.544 57.7695 272.79 57.3773 273.867C57.4796 273.658 57.5649 273.467 57.6672 273.259C57.9059 272.79 58.1786 272.355 58.4685 271.921C58.5537 271.799 58.639 271.678 58.7242 271.556L58.3321 272.077C58.4514 271.834 58.7242 271.591 58.9118 271.4C59.2357 271.052 59.5767 270.705 59.9518 270.392C60.702 269.749 59.2187 270.913 59.8665 270.444C60.0541 270.323 60.2246 270.184 60.4121 270.062C60.8725 269.767 61.3328 269.524 61.8272 269.263C62.5774 268.863 60.9577 269.576 61.7079 269.315C62.0148 269.211 62.3217 269.089 62.6286 269.002C63.1741 268.846 63.7368 268.724 64.2994 268.638L63.1741 268.794C64.3164 268.638 65.4417 268.637 66.567 268.776L65.4417 268.62C65.8509 268.672 66.243 268.759 66.6352 268.846C68.8005 269.35 71.3579 268.168 71.8864 265.806C72.3808 263.599 71.2385 260.993 68.9028 260.455C64.7086 259.482 60.2246 260.055 56.4907 262.314C53.0127 264.416 50.5575 267.699 49.1936 271.521C48.4264 273.658 50.0461 276.368 52.1772 276.872C54.5812 277.428 56.5931 276.125 57.4285 273.832L57.3773 273.867Z" fill="#515151"/>
<path d="M102.814 418.345C101.608 415.243 99.5856 412.474 97.0846 410.284C97.0846 409.863 97.0846 409.442 97.0314 409.022C96.0736 398.787 87.7725 389.446 77.2897 388.062C74.9129 387.746 72.5361 388.622 71.8266 391.129C71.259 393.161 72.5361 396.193 74.9307 396.526C80.2164 397.227 84.633 400.347 86.9566 405.131C87.0276 405.271 87.0808 405.412 87.134 405.552C85.0232 405.219 82.8238 405.236 80.6421 405.727C76.19 406.709 72.1459 409.916 71.2058 414.455C70.0884 419.765 73.6536 425.057 78.691 426.828C83.4978 428.527 89.1915 426.687 92.5794 423.042C93.2179 422.341 93.7855 421.587 94.2821 420.781C94.2999 420.816 94.3176 420.869 94.3354 420.904C96.588 426.091 93.8919 432.173 89.0851 434.837C84.1009 437.588 88.5707 445.159 93.5549 442.407C101.803 437.833 106.29 427.266 102.814 418.363V418.345ZM84.1186 418.345C82.54 418.959 80.039 418.591 79.8262 416.505C79.702 415.208 81.5822 414.402 82.9834 414.122C84.5266 413.824 86.123 414.034 87.6306 414.595C87.0098 416.26 85.9101 417.644 84.1009 418.345H84.1186Z" fill="#515151"/>
<path d="M96.1564 547.274C100.43 552.137 107.827 553.476 113.444 550.216C115.991 548.736 118.067 546.375 119.253 543.662C120.597 540.579 120.44 537.478 120.475 534.183C120.509 531.734 121.155 530.959 123.545 530.483C126.266 529.955 129.092 530.202 131.796 529.479C138.687 527.647 140.571 521.674 141.304 515.279C141.531 513.341 141.757 510.698 143.223 509.606C144.932 508.319 146.781 508.601 148.439 509.87C150.323 511.297 153.323 510.169 154.405 508.284C155.713 506.029 154.719 503.686 152.835 502.259C148.299 498.805 141.478 499.475 137.274 503.157C132.738 507.139 133.366 512.865 132.075 518.203C131.587 520.265 130.296 520.917 128.203 521.234C125.481 521.639 122.69 521.445 120.021 522.273C116.986 523.207 114.317 525.11 112.938 528.052C111.56 530.994 111.822 534.13 111.787 537.302C111.717 542.675 106.013 545.23 102.314 541.037C98.6161 536.844 92.4407 543.028 96.139 547.274H96.1564Z" fill="#969696"/>
<path d="M130.583 670.204C128.751 682.629 126.902 695.037 125.07 707.462C124.725 709.796 125.641 712.183 128.094 712.868C130.134 713.429 133.054 712.166 133.417 709.796C135.249 697.371 137.098 684.963 138.93 672.538C139.275 670.204 138.359 667.817 135.906 667.132C133.866 666.571 130.946 667.834 130.583 670.204Z" fill="#515151"/>
<path d="M118.162 688.116C126.652 693.836 137.246 696.643 147.537 695.876C149.856 695.701 152.103 693.993 151.996 691.516C151.889 689.302 150.034 686.966 147.537 687.157C145.237 687.332 142.918 687.332 140.617 687.14C138.941 687 136.8 686.634 134.535 686.024C132.27 685.414 130.255 684.699 128.667 683.984C126.581 683.025 124.583 681.874 122.675 680.601C120.766 679.328 117.645 680.183 116.575 682.17C115.38 684.385 116.111 686.756 118.18 688.134L118.162 688.116Z" fill="#515151"/>
<path d="M203.926 724.431C203.753 723.85 203.632 723.286 203.546 722.688L203.701 723.85C203.58 722.881 203.58 721.913 203.701 720.945L203.546 722.107C203.632 721.508 203.736 720.927 203.909 720.364C203.978 720.117 204.064 719.871 204.15 719.624C204.496 718.673 203.736 720.469 204.099 719.747C204.375 719.219 204.634 718.691 204.962 718.198C205.186 717.863 205.67 717.582 204.807 718.374C205.014 718.18 205.186 717.916 205.394 717.705C205.601 717.494 205.825 717.3 206.033 717.089C206.637 716.508 205.169 717.67 205.86 717.212C206.361 716.877 206.862 716.578 207.397 716.279C208.122 715.891 206.464 716.613 207.19 716.367C207.466 716.261 207.742 716.155 208.036 716.067C208.606 715.891 209.193 715.786 209.78 715.698L208.64 715.856C209.607 715.733 210.574 715.733 211.541 715.856L210.402 715.698C210.92 715.768 211.42 715.874 211.921 716.015C212.128 716.085 212.353 716.155 212.56 716.226C211.524 715.715 213.268 716.472 212.56 716.226C213.596 716.737 214.719 717.001 215.893 716.666C216.895 716.384 217.982 715.592 218.466 714.641C219.485 712.687 219.088 709.676 216.912 708.62C213.89 707.141 210.799 706.7 207.5 707.193C204.668 707.616 202.095 708.954 199.954 710.838C195.654 714.606 193.979 721.262 195.62 726.737C196.276 728.938 198.676 730.558 200.938 729.819C203.201 729.079 204.668 726.755 203.96 724.396L203.926 724.431Z" fill="#969696"/>
<path d="M290.901 793.54C290.527 792.541 290.459 792.058 290.561 791.456C290.527 791.645 290.833 790.577 290.799 790.68C290.867 790.525 291.258 789.802 291.513 789.475C291.649 789.302 292.414 788.665 292.788 788.527C293.4 788.269 294.336 788.338 295.322 788.476C298.11 788.855 300.711 789.578 303.533 789.044C306.134 788.545 308.463 786.736 309.688 784.359C310.793 782.24 311.048 779.794 311.116 777.434C311.15 776.401 311.116 775.385 311.15 774.351C311.201 773.025 311.082 773.214 311.473 771.974C311.286 772.56 311.575 771.733 311.728 771.526C311.422 771.957 311.915 771.561 311.813 771.561C312.68 771.475 313.649 771.388 314.618 771.388C317.457 771.388 320.313 771.113 322.676 769.373C328.848 764.843 328.253 755.731 321.911 751.683C317.27 748.72 313.003 756.179 317.627 759.124C318.596 759.744 318.987 760.847 318.307 761.846C317.338 763.275 314.992 762.759 313.445 762.776C308.055 762.862 303.737 765.79 302.904 771.371C302.581 773.559 302.649 775.712 302.564 777.899C302.513 779.105 302.632 778.847 302.258 780.07C302.071 780.69 302.428 780.07 302.02 780.552C302.411 780.121 301.731 780.604 301.986 780.552C300.269 780.862 297.872 780.19 295.849 779.932C293.23 779.605 290.663 779.863 288.317 781.172C283.438 783.911 280.633 790.457 282.673 795.831C283.506 798.001 285.529 799.5 287.909 798.845C289.949 798.277 291.7 795.727 290.884 793.54H290.901Z" fill="#969696"/>
<path d="M278.511 686.846C279.75 686.846 280.989 686.934 282.21 687.075L281.025 686.916C282.533 687.11 284.005 687.446 285.406 688.011L284.329 687.569C285.244 687.958 286.106 688.434 286.896 689.017L285.981 688.329C286.573 688.788 287.112 689.317 287.579 689.9L286.879 688.999C287.345 689.6 287.722 690.235 288.028 690.924L287.579 689.864C287.866 690.553 288.064 691.242 288.171 691.965L288.01 690.8C288.082 691.4 288.082 691.983 288.01 692.583L288.171 691.418C288.1 691.895 287.974 692.336 287.794 692.795L288.243 691.736C288.153 691.965 288.046 692.177 287.92 692.389C286.789 694.419 287.345 697.297 289.536 698.427C291.727 699.557 294.474 699.01 295.677 696.838C298.299 692.124 296.844 686.139 292.894 682.555C288.944 678.971 283.628 678.071 278.493 678C276.141 677.965 273.896 680.048 274.004 682.414C274.111 684.78 275.979 686.793 278.493 686.828L278.511 686.846Z" fill="#515151"/>
<path d="M439.884 692.797C439.214 690.293 436.895 689.256 434.594 689.667C431.021 690.329 427.449 690.973 423.876 691.634C425.113 689.542 426.47 687.522 427.964 685.626C429.424 683.767 429.716 681.138 427.964 679.297C426.452 677.723 423.361 677.419 421.884 679.297C419.651 682.158 417.658 685.179 415.855 688.344C413.485 685.537 411.114 682.712 408.727 679.905C407.233 678.134 404.158 678.206 402.647 679.905C400.981 681.782 401.066 684.339 402.647 686.234L409.431 694.281C406.339 694.853 403.231 695.407 400.139 695.979C397.855 696.391 396.566 699.305 397.133 701.486C397.803 703.99 400.122 705.027 402.423 704.616C404.776 704.186 407.13 703.757 409.483 703.328C408.624 706.278 407.971 709.3 407.507 712.358C407.164 714.736 408.091 717.168 410.513 717.865C412.54 718.437 415.443 717.15 415.803 714.736C416.319 711.267 417.109 707.888 418.139 704.598C420.303 707.173 422.485 709.747 424.649 712.322C426.143 714.092 429.218 714.021 430.729 712.322C432.395 710.445 432.309 707.888 430.729 705.992C429.132 704.097 427.535 702.202 425.937 700.324C429.578 699.663 433.22 699.001 436.861 698.322C439.145 697.91 440.434 694.996 439.867 692.814L439.884 692.797Z" fill="#515151"/>
<path d="M576.65 615.263C569.081 617.781 561.899 621.766 557.35 628.479C557.21 628.689 557.07 628.916 556.929 629.144C551.643 629.056 546.375 631.119 542.318 634.72C540.51 636.328 538.859 638.356 537.507 640.629C531.905 639.982 526.11 641.101 521.35 644.265C514.203 649.02 509.813 657.219 510.006 665.785C510.129 671.396 518.91 671.414 518.787 665.785C518.593 657.044 525.337 649.3 534.293 649.142H534.328C533.942 651.625 534.012 654.107 534.714 656.432C536.997 664.054 546.638 668.757 552.995 662.481C556.121 659.404 556.279 654.527 554.453 650.768C552.837 647.429 549.606 644.842 546.322 643.199C548.184 640.769 550.748 638.986 553.628 638.234C553.03 642.482 553.645 646.87 555.875 650.506C558.053 654.055 561.864 656.747 566.184 656.135C569.942 655.611 572.681 652.691 573.788 649.177C575.93 642.412 571.838 635.052 565.938 631.591C569.292 627.675 574.156 625.28 578.968 623.672C584.307 621.906 582.006 613.463 576.632 615.246L576.65 615.263ZM545.971 653.723C546.533 654.404 547.376 655.803 546.568 656.485C545.725 657.184 544.531 656.397 543.916 655.576C542.986 654.334 542.722 652.814 542.88 651.223C544.057 651.887 545.128 652.709 545.971 653.723ZM564.954 647.569C564.954 647.569 564.954 647.517 564.849 647.499C564.024 647.359 563.269 645.891 563.005 645.262C562.232 643.496 562.057 641.573 562.303 639.667C563.901 640.821 565.112 642.482 565.499 644.44C565.639 645.122 565.692 647.185 564.954 647.587V647.569Z" fill="#969696"/>
<path d="M677.866 621.124C676.899 623.46 676.828 626.018 677.233 628.473C677.637 630.928 678.745 633.009 680.275 634.901C683.088 638.363 688.082 640.409 692.601 639.931C693.796 639.795 694.816 639.539 695.713 638.687C696.469 637.953 697.049 636.726 696.997 635.669C696.944 634.611 696.575 633.418 695.713 632.65C694.904 631.934 693.744 631.286 692.601 631.406C691.757 631.491 690.93 631.491 690.104 631.389L691.264 631.542C690.368 631.406 689.488 631.184 688.644 630.843L689.699 631.269C688.855 630.911 688.082 630.468 687.361 629.939L688.258 630.604C687.607 630.093 687.009 629.53 686.499 628.882L687.185 629.752C686.71 629.138 686.323 628.49 686.007 627.791L686.446 628.814C686.095 627.978 685.849 627.126 685.708 626.222L685.866 627.348C685.743 626.444 685.743 625.557 685.866 624.653L685.708 625.779C685.831 624.96 686.042 624.159 686.359 623.392C686.763 622.437 686.429 620.953 685.919 620.101C685.409 619.248 684.336 618.379 683.299 618.14C682.174 617.884 680.908 617.952 679.905 618.566C678.903 619.18 678.34 620.033 677.883 621.107L677.866 621.124Z" fill="#515151"/>
<path d="M402.336 619.657C402.281 618.768 402.299 617.88 402.429 616.991L402.262 618.141C402.448 616.851 402.818 615.597 403.356 614.412L402.892 615.457C403.263 614.638 403.708 613.854 404.246 613.105C404.357 612.93 404.487 612.774 404.616 612.599C405.08 611.955 403.838 613.488 404.487 612.756C404.783 612.408 405.098 612.077 405.432 611.763C405.729 611.467 406.062 611.188 406.377 610.926C406.507 610.822 407.304 610.229 406.581 610.752C405.858 611.275 406.674 610.7 406.822 610.613C407.601 610.107 408.435 609.707 409.306 609.358L408.194 609.794C408.324 609.741 408.472 609.689 408.602 609.637C409.77 609.219 410.715 608.678 411.364 607.633C411.939 606.692 412.198 605.315 411.827 604.269C411.123 602.213 408.546 600.348 406.118 601.22C401.966 602.718 398.573 605.263 396.145 608.783C393.976 611.92 392.79 615.893 393.031 619.64C393.179 621.905 395.051 624.101 397.665 623.996C400.038 623.892 402.466 622.079 402.299 619.64L402.336 619.657Z" fill="#969696"/>
<path d="M620.347 762.11C618.583 759.674 616.435 757.998 613.658 756.886C611.231 755.915 608.629 755.827 606.096 756.215C600.962 757.009 596.893 761.298 595.531 766.24C594.78 768.958 594.78 772.117 595.828 774.765C596.264 775.877 596.771 776.777 597.836 777.394C598.779 777.942 600.159 778.189 601.206 777.836C603.25 777.165 605.171 774.694 604.263 772.4C604.07 771.905 603.913 771.411 603.791 770.899C603.547 769.752 603.826 771.729 603.791 770.97C603.791 770.741 603.756 770.529 603.756 770.299C603.756 769.999 603.756 769.699 603.774 769.399C603.774 769.258 603.791 769.099 603.809 768.958L603.721 769.682C603.634 769.258 603.966 768.552 604.088 768.146C604.14 768.005 604.175 767.864 604.228 767.723C604.385 767.299 604.332 767.44 604.036 768.146C604.158 767.952 604.228 767.74 604.332 767.546C604.577 767.07 604.909 766.664 605.171 766.222C604.507 767.352 604.909 766.558 605.206 766.258C605.363 766.099 605.52 765.94 605.677 765.781C606.515 765.005 605.048 766.169 605.66 765.781C605.887 765.64 606.096 765.499 606.323 765.358C606.55 765.216 606.812 765.146 607.022 765.005C606.323 765.287 606.184 765.358 606.603 765.199C606.708 765.163 606.812 765.128 606.917 765.093C607.162 765.005 607.406 764.952 607.668 764.881C607.843 764.846 608.838 764.687 607.965 764.81C607.092 764.934 608.087 764.81 608.262 764.81C608.524 764.81 608.786 764.81 609.048 764.81C609.31 764.81 609.572 764.863 609.833 764.863C608.489 764.846 609.24 764.775 609.659 764.863C610.165 764.969 610.654 765.146 611.161 765.305C611.475 765.428 611.3 765.358 610.637 765.075C610.777 765.128 610.899 765.199 611.038 765.269C611.266 765.393 611.493 765.516 611.72 765.658C611.947 765.799 612.139 765.975 612.366 766.099C611.772 765.622 611.667 765.534 611.999 765.816C612.086 765.887 612.174 765.958 612.243 766.046C612.436 766.222 612.628 766.399 612.802 766.593C613.571 767.44 612.383 765.958 612.82 766.575C613.518 767.528 614.252 768.27 615.422 768.605C616.47 768.887 617.867 768.764 618.792 768.164C620.609 766.981 621.796 764.122 620.364 762.128L620.347 762.11Z" fill="#515151"/>
<path d="M154.846 101.421C146.202 96.8882 135.582 98.7579 129.464 106.713C129.189 107.066 128.948 107.436 128.69 107.806C124.996 108.529 121.404 110.082 118.551 111.969C109.546 117.948 104.288 128.584 105.078 139.59C105.25 141.972 106.934 144 109.374 144C111.574 144 113.843 141.972 113.671 139.59C113.035 130.771 117.761 121.635 125.494 117.931C125.494 118.989 125.614 120.065 125.872 121.123C126.955 125.639 130.529 129.537 135.066 130.33C139.947 131.177 144.862 128.655 146.546 123.751C147.955 119.589 146.563 114.703 143.641 111.599C142.576 110.452 141.356 109.605 140.067 108.953C143.281 107.365 147.216 107.33 150.498 109.059C155.413 111.634 159.761 104.032 154.829 101.439L154.846 101.421ZM138.177 121.317C136.974 122.446 135.29 121.176 134.654 120.03C134.001 118.848 133.949 117.543 134.224 116.273C135.513 116.431 136.767 116.855 137.609 117.807C138.452 118.777 138.967 120.594 138.194 121.317H138.177Z" fill="#969696"/>
<path d="M498.65 720.024C498.964 720.739 499.47 721.35 499.976 721.961C500.377 722.379 500.83 722.693 501.371 722.868C501.895 723.147 502.453 723.269 503.046 723.252C503.639 723.269 504.215 723.147 504.721 722.868C505.261 722.693 505.732 722.397 506.116 721.961C506.884 721.123 507.442 720.042 507.39 718.873C507.337 718.489 507.285 718.105 507.233 717.721C507.111 717.303 506.919 716.919 506.709 716.57C506.605 716.431 506.535 716.256 506.448 716.099C506.448 716.064 506.43 716.029 506.413 715.977C506.413 715.942 506.413 715.907 506.413 715.855C506.448 715.715 506.465 715.558 506.535 715.419C506.709 714.843 506.744 714.267 506.605 713.674C506.57 713.099 506.413 712.558 506.081 712.052C505.802 711.546 505.436 711.127 504.965 710.831C504.546 710.447 504.058 710.185 503.482 710.046C503.098 709.993 502.714 709.941 502.331 709.889C501.546 709.889 500.813 710.098 500.133 710.482C499.836 710.709 499.539 710.935 499.243 711.162C498.702 711.703 498.336 712.348 498.126 713.081C497.847 713.814 497.76 714.634 497.69 715.401C497.603 716.204 497.76 717.006 497.882 717.791C498.004 718.559 498.336 719.274 498.65 719.989V720.024Z" fill="#515151"/>
<path d="M510.339 724.717C510.722 725.38 511.246 725.886 511.909 726.287C512.258 726.427 512.606 726.584 512.955 726.723C513.723 726.933 514.508 726.933 515.275 726.723C516.061 726.514 516.811 726.182 517.561 725.851C517.979 725.659 518.398 725.45 518.782 725.188C519.445 724.752 520.09 724.263 520.683 723.723C521.05 723.409 521.364 723.06 521.678 722.693C522.097 722.292 522.411 721.839 522.585 721.298C522.864 720.774 522.986 720.216 522.969 719.623C522.986 719.03 522.864 718.454 522.585 717.948C522.411 717.408 522.114 716.937 521.678 716.553C520.84 715.785 519.759 715.227 518.59 715.279C518.206 715.332 517.822 715.384 517.439 715.436C516.706 715.646 516.061 716.012 515.52 716.553C515.188 716.954 514.787 717.32 514.386 717.652C514.107 717.826 513.828 718.001 513.531 718.14C513.339 718.21 513.147 718.28 512.955 718.332C512.38 718.472 511.891 718.733 511.472 719.117C511.001 719.431 510.618 719.832 510.356 720.338C510.042 720.844 509.868 721.385 509.833 721.961C509.711 722.536 509.728 723.112 509.902 723.705C510.042 724.054 510.199 724.403 510.339 724.752V724.717Z" fill="#515151"/>
<path d="M505.872 726.147C504.826 725.589 503.674 725.415 502.505 725.711C501.843 725.886 501.197 726.182 500.587 726.461C500.273 726.601 499.993 726.775 499.714 726.967C499.174 727.351 498.633 727.752 498.144 728.223C497.656 728.694 497.255 729.27 496.853 729.811C496.26 730.613 495.841 731.59 495.545 732.532C495.336 733.195 495.283 733.876 495.196 734.556C495.161 734.905 495.144 735.254 495.161 735.603C495.144 736.196 495.266 736.771 495.545 737.277C495.719 737.818 496.016 738.289 496.452 738.673C496.853 739.092 497.307 739.406 497.848 739.58C498.371 739.859 498.929 739.981 499.522 739.964C500.656 739.912 501.825 739.545 502.61 738.69C503.36 737.87 503.953 736.754 503.884 735.603C503.884 735.481 503.884 735.358 503.884 735.254C503.919 735.132 503.953 735.009 503.988 734.887C504.041 734.783 504.11 734.695 504.163 734.591C504.25 734.504 504.32 734.434 504.407 734.347C504.512 734.277 504.616 734.207 504.738 734.155C504.756 734.155 504.791 734.137 504.808 734.137C505.855 733.876 506.867 733.056 507.408 732.131C507.722 731.625 507.896 731.084 507.931 730.509C508.053 729.933 508.036 729.357 507.861 728.764C507.512 727.717 506.867 726.688 505.855 726.165L505.872 726.147Z" fill="#515151"/>
<path d="M523.3 736.806C522.951 735.76 522.306 734.73 521.294 734.207C519.27 733.16 517.247 732.114 515.241 731.049C514.211 730.509 513.025 730.299 511.874 730.613C511.298 730.753 510.809 731.015 510.391 731.398C509.92 731.712 509.536 732.114 509.274 732.62C508.733 733.631 508.472 734.852 508.838 735.986C509.17 737.033 509.833 738.062 510.844 738.586C512.868 739.632 514.892 740.679 516.898 741.743C517.927 742.284 519.113 742.493 520.265 742.179C520.84 742.04 521.329 741.778 521.747 741.394C522.219 741.08 522.602 740.679 522.864 740.173C523.405 739.161 523.666 737.94 523.3 736.806Z" fill="#515151"/>
<path d="M337.105 830.871C344.533 835.251 355.033 832.609 359.422 825.366C360.599 823.44 359.932 820.611 357.842 819.538C355.753 818.464 353.084 819.009 351.837 821.072C351.661 821.361 351.451 821.651 351.258 821.941C350.801 822.588 351.978 821.157 351.416 821.719C351.328 821.821 351.222 821.924 351.135 822.026C350.871 822.299 350.59 822.554 350.309 822.81C350.204 822.912 350.046 823.083 349.906 823.134C350.081 823.066 350.819 822.503 350.204 822.895C349.589 823.287 349.01 823.611 348.378 823.918C347.711 824.241 348.624 823.884 348.747 823.781C348.641 823.867 348.273 823.952 348.15 824.003C347.816 824.105 347.482 824.207 347.131 824.293C346.78 824.378 346.446 824.446 346.095 824.497C345.375 824.633 347.061 824.412 346.534 824.446C346.359 824.446 346.183 824.48 346.007 824.497C345.288 824.548 344.603 824.463 343.9 824.446C345.182 824.446 344.655 824.548 344.234 824.48C344.094 824.463 343.953 824.429 343.813 824.395C343.444 824.31 343.058 824.207 342.689 824.088C342.583 824.054 342.267 823.986 342.197 823.918C342.285 824.02 343.251 824.395 342.566 824.071C342.215 823.901 341.881 823.73 341.548 823.526C339.581 822.367 336.631 823.048 335.542 825.059C334.454 827.07 335.016 829.644 337.123 830.888L337.105 830.871Z" fill="#515151"/>
<path d="M721.608 758.28C717.5 758.193 713.796 757.544 709.776 756.23C710.759 753.25 712.058 750.341 713.708 747.555C714.867 745.574 714.217 742.665 712.128 741.561C710.021 740.439 707.371 741.018 706.124 743.138C704.351 746.135 702.912 749.325 701.771 752.602C699.805 751.445 697.926 750.148 696.487 748.939C694.679 747.414 692.063 747.169 690.272 748.939C688.71 750.499 688.447 753.601 690.272 755.143C693.134 757.544 696.241 759.595 699.506 761.295C698.822 765.36 698.593 769.497 698.909 773.615C699.085 775.893 700.805 778.102 703.298 777.996C705.527 777.891 707.862 776.069 707.687 773.615C707.459 770.601 707.546 767.656 707.897 764.782C712.304 766.167 716.903 766.955 721.608 767.06C723.907 767.113 726.102 765.01 725.996 762.679C725.891 760.261 724.065 758.35 721.608 758.298V758.28Z" fill="#969696"/>
<path d="M144.5 221C150.5 221 150.5 212 144.5 212C138.5 212 138.5 221 144.5 221Z" fill="#969696"/>
<path d="M467 655C472.333 655 472.333 646 467 646C461.667 646 461.667 655 467 655Z" fill="#515151"/>
<path d="M237 707C242.333 707 242.333 698 237 698C231.667 698 231.667 707 237 707Z" fill="#515151"/>
<path d="M612 867C617.333 867 617.333 858 612 858C606.667 858 606.667 867 612 867Z" fill="#515151"/>
<path d="M752.5 617C758.5 617 758.5 608 752.5 608C746.5 608 746.5 617 752.5 617Z" fill="#969696"/>
<path d="M33 351C38.3333 351 38.3333 342 33 342C27.6667 342 27.6667 351 33 351Z" fill="#969696"/>
<path d="M181 487C186.333 487 186.333 478 181 478C175.667 478 175.667 487 181 487Z" fill="#515151"/>
<path d="M4 579C9.33333 579 9.33333 571 4 571C-1.33333 571 -1.33333 579 4 579Z" fill="#515151"/>
<path d="M169.605 333.154C169.741 337.271 170.967 345.73 178.495 350.936C179.177 351.404 179.16 352.424 178.495 352.926L172.143 357.752C171.768 358.029 171.274 358.081 170.865 357.873C168.651 356.731 161.923 352.095 161.004 337.876C160.97 337.444 161.174 337.011 161.515 336.769L167.663 332.237C168.447 331.666 169.554 332.185 169.588 333.171L169.605 333.154Z" fill="#969696"/>
<path d="M187.686 827.883C191.428 826.181 198.737 821.783 200.512 812.937C200.669 812.145 201.626 811.758 202.339 812.162L209.37 816.054C209.788 816.29 210.032 816.712 209.997 817.183C209.84 819.643 208.291 827.529 195.535 833.865C195.152 834.05 194.682 834.05 194.299 833.831L187.616 829.989C186.764 829.501 186.798 828.288 187.703 827.866L187.686 827.883Z" fill="#969696"/>
<path d="M517.842 822.18C521.384 824.401 529.197 828.085 537.757 824.347C538.521 824.004 539.372 824.6 539.441 825.467L539.997 833.846C540.031 834.333 539.788 834.803 539.389 835.056C537.184 836.374 529.579 839.751 517.078 832.51C516.696 832.293 516.453 831.877 516.419 831.426L516.002 823.372C515.95 822.343 517.009 821.656 517.86 822.18H517.842Z" fill="#969696"/>
<path d="M273.544 522.715C277.527 523.867 286.032 525.234 293.32 519.261C293.98 518.721 294.954 519.063 295.233 519.873L297.929 527.77C298.085 528.238 297.981 528.742 297.65 529.102C295.876 530.991 289.389 536.333 275.457 532.843C275.04 532.736 274.692 532.412 274.553 531.98L272.066 524.37C271.753 523.399 272.605 522.445 273.562 522.715H273.544Z" fill="#515151"/>
<path d="M57.6562 476.883C61.2352 475.181 68.2267 470.783 69.9246 461.937C70.0744 461.145 70.9899 460.758 71.6724 461.162L78.3976 465.054C78.7971 465.29 79.0301 465.712 78.9969 466.183C78.847 468.643 77.3655 476.529 65.1637 482.865C64.7975 483.05 64.348 483.05 63.9818 482.831L57.5896 478.989C56.774 478.501 56.8072 477.288 57.6729 476.866L57.6562 476.883Z" fill="#969696"/>
</svg>
