<svg width="449" height="395" viewBox="0 0 449 395" fill="none" xmlns="http://www.w3.org/2000/svg">
<path d="M221.739 37.6855C172.986 37.6855 148.149 55.7852 125.825 79.1355H323.187C300.863 55.7852 270.493 37.6855 221.739 37.6855Z" fill="white" stroke="#767676" stroke-width="8" stroke-miterlimit="10"/>
<path d="M429.614 75.0655H373.156C343.481 34.9488 296.026 4 220.123 4C144.219 4 106.321 34.9488 76.6465 75.0655H28.9431C13.7342 75.1009 4 77.3191 4 90.4514C4 98.9467 10.8906 105.837 19.3859 105.837L21.9345 106.404C21.9345 217.527 21.9345 390.972 224.5 390.972C427.065 390.972 427.065 217.527 427.065 106.404L429.614 105.837C438.109 105.837 445 98.9467 445 90.4514C445 81.9561 438.109 75.0655 429.614 75.0655Z" fill="white" stroke="#767676" stroke-width="8" stroke-miterlimit="10"/>
</svg>
