<svg width="286" height="253" viewBox="0 0 286 253" fill="none" xmlns="http://www.w3.org/2000/svg">
<path d="M141.017 26.7988C110.562 26.7988 95.0468 38.1054 81.1016 52.6918H204.39C190.445 38.1054 171.473 26.7988 141.017 26.7988Z" stroke="#767676" stroke-width="10" stroke-miterlimit="10"/>
<path d="M270.873 50.1491H235.605C217.068 25.089 187.423 5.75586 140.008 5.75586C92.5925 5.75586 68.9181 25.089 50.381 50.1491H20.5815C11.0808 50.1713 5 51.5569 5 59.7604C5 65.0673 9.30445 69.3717 14.6113 69.3717L16.2034 69.7255C16.2034 139.142 16.2034 247.49 142.742 247.49C269.281 247.49 269.281 139.142 269.281 69.7255L270.873 69.3717C276.18 69.3717 280.485 65.0673 280.485 59.7604C280.485 54.4536 276.18 50.1491 270.873 50.1491Z" stroke="#767676" stroke-width="10" stroke-miterlimit="10"/>
<path d="M127.832 105.075C134.922 104.345 142.123 103.925 147.865 103.925C152.243 103.925 155.169 107.787 155.169 111.752C155.169 125.418 150.681 140.026 142.647 151.399H139.514C137.848 139.717 135.342 126.155 133.043 116.447C132.107 112.482 130.64 109.246 127.824 108.207V105.075H127.832ZM142.123 154.111C149.214 154.111 154.639 159.536 154.639 166.627C154.639 173.717 149.214 179.142 142.123 179.142C135.033 179.142 129.608 173.717 129.608 166.627C129.608 159.536 135.033 154.111 142.123 154.111Z" fill="#767676"/>
</svg>
