<svg width="98" height="73" viewBox="0 0 98 73" fill="none" xmlns="http://www.w3.org/2000/svg">
<path d="M46.7817 19.1728C45.0477 18.385 43.7849 17.1454 42.8079 15.5389C41.2593 12.9901 41.1435 10.4144 42.3908 7.73818C43.4837 5.39024 44.986 3.30489 46.6002 1.30451C47.8707 -0.274945 50.5276 -0.47962 51.8406 1.03032C54.0109 3.52501 56.0267 6.18961 56.9381 9.44893C57.9614 13.1099 55.7023 17.4891 52.1147 19.0801C51.8367 19.2037 51.4698 19.1882 51.2728 19.5512C54.9955 20.2309 58.224 21.822 60.6723 24.726C64.0127 28.6881 64.8546 33.0867 62.6341 37.8907C62.3947 38.4043 62.5955 38.7209 62.7847 39.1148C65.0824 43.8957 65.4686 48.7615 63.0511 53.581C60.9619 57.7401 57.247 59.7752 52.8484 60.7329C52.1572 60.8835 51.4544 61.065 50.7593 61.0611C49.9329 61.0573 49.8517 61.4435 49.8633 62.1231C49.8981 64.1158 49.9174 66.1123 49.8556 68.105C49.8324 68.9005 50.041 69.1245 50.8519 69.1206C59.5988 69.0897 68.3495 69.1013 77.0963 69.1013C79.7339 69.1013 82.3715 69.0897 85.0091 69.1052C86.4302 69.1129 87.1523 69.7617 87.1137 70.9163C87.0828 71.8007 86.5228 72.4263 85.6423 72.5305C85.3257 72.5691 85.0013 72.5576 84.6808 72.5576C60.9774 72.5576 37.274 72.5576 13.5706 72.5576C11.9101 72.5576 11.0683 71.9706 11.0837 70.8275C11.0953 69.6921 11.9565 69.0974 13.6016 69.0974C24.2136 69.0974 34.8296 69.0858 45.4416 69.1167C46.2372 69.1167 46.4688 68.9391 46.4418 68.1243C46.3761 66.1007 46.3917 64.0733 46.438 62.0459C46.4534 61.4126 46.2449 61.2349 45.6425 61.2002C42.7114 61.038 39.9695 60.2038 37.3976 58.7943C35.3045 57.6512 34.1576 55.9019 34.1576 53.496C34.146 45.1353 34.1499 36.7708 34.1576 28.4101C34.1576 26.039 35.4667 24.3591 37.2084 22.9843C39.788 20.9492 42.7539 19.8061 46.0093 19.4006C46.2526 19.3698 46.5307 19.4393 46.7971 19.1612L46.7817 19.1728ZM37.5405 40.9646C37.5405 44.9499 37.5714 48.9353 37.5251 52.9206C37.5096 54.3803 38.0619 55.3303 39.3903 55.9675C44.8431 58.5896 50.3229 58.4352 55.7679 56.0679C58.2433 54.9943 59.8807 52.994 60.6106 50.3873C61.6648 46.6221 61.3173 43.0114 59.0775 39.7018C58.5252 38.8831 58.5213 38.1455 59.0156 37.2921C61.2168 33.496 60.6917 29.5763 57.6177 26.4754C52.7558 21.5748 43.6537 21.4898 38.6874 26.2784C37.8958 27.043 37.5173 27.8965 37.5251 29.0048C37.5598 32.9901 37.5367 36.9754 37.5367 40.9608L37.5405 40.9646ZM53.7289 11.4377C53.7251 10.8469 53.6826 10.4723 53.5474 10.1016C52.6785 7.75362 51.1879 5.78413 49.7205 3.80306C49.4463 3.43619 49.2222 3.49798 48.9751 3.83395C47.6119 5.6567 46.3491 7.52964 45.3412 9.59181C44.2097 11.9011 46.1406 15.369 48.3418 16.0371C49.3188 16.3344 50.2611 16.2456 51.1145 15.705C52.7442 14.67 53.559 13.1369 53.7328 11.4416L53.7289 11.4377Z" fill="#0D3F39"/>
<path d="M0.0158566 40.2386C0.0158566 35.1566 -0.0266112 30.0745 0.0274532 24.9924C0.0737941 20.6016 4.78512 17.8945 8.61597 20.0224C10.5314 21.0844 11.5779 22.7604 11.6127 24.9654C11.659 27.8579 11.6513 30.7542 11.6127 33.6505C11.605 34.3417 11.8019 34.5039 12.47 34.4923C15.0419 34.4537 17.6177 34.4576 20.1896 34.4923C20.8113 34.5001 21.0083 34.3456 21.0006 33.6968C20.9659 30.9009 20.962 28.1011 20.9929 25.3014C21.0276 22.2969 22.8736 19.9644 25.5807 19.4315C29.2802 18.7017 32.5743 21.3508 32.6245 25.1508C32.667 28.1745 32.6322 31.1983 32.6322 34.222C32.6322 41.2349 32.6438 48.244 32.6284 55.2569C32.6206 58.3734 30.6704 60.6904 27.6737 61.2195C24.4955 61.7794 21.2439 59.3774 21.0662 56.1451C20.904 53.1639 20.9581 50.1633 21.0045 47.1743C21.0199 46.2668 20.7458 46.066 19.8846 46.0853C17.3783 46.1432 14.8682 46.1278 12.3581 46.0891C11.7479 46.0814 11.605 46.2629 11.6127 46.8499C11.6397 49.7462 11.6474 52.6387 11.6127 55.535C11.5779 58.6128 9.2918 61.0302 6.22557 61.2928C3.3563 61.54 0.656982 59.4662 0.093167 56.5468C-0.00337667 56.0486 0.00426008 55.5234 0.00426008 55.0098C-0.00346341 50.0899 0.00426008 45.1662 0.00426008 40.2463H0.0081256L0.0158566 40.2386ZM29.1682 40.3661C29.1682 36.1529 29.1682 31.9397 29.1682 27.7266C29.1682 26.8268 29.2069 25.9231 29.1489 25.0272C29.0601 23.6988 28.0985 22.7874 26.8434 22.7603C25.5999 22.7333 24.6384 23.6138 24.4762 24.95C24.4376 25.2666 24.4375 25.591 24.4375 25.9115C24.4375 29.194 24.4414 32.4726 24.4337 35.7551C24.4298 37.3578 23.8236 37.9447 22.2017 37.9486C18.5678 37.9525 14.9338 37.9486 11.2999 37.9486C8.43445 37.9486 8.17191 37.686 8.17191 34.8013C8.17191 31.6153 8.19121 28.4333 8.16418 25.2473C8.14487 23.4014 6.58469 22.3085 4.94731 22.9341C4.01663 23.2894 3.48756 24.1042 3.4837 25.3091C3.47597 35.311 3.47983 45.3129 3.4837 55.3187C3.4837 55.5118 3.4876 55.7049 3.52235 55.8941C3.75019 57.2419 5.07862 58.0876 6.4032 57.7362C7.57331 57.4272 8.16418 56.6085 8.17191 55.2067C8.18349 51.7968 8.17191 48.3869 8.17577 44.977C8.17577 43.2353 8.75888 42.6367 10.4774 42.6367C14.37 42.6329 18.2588 42.6329 22.1514 42.6367C23.8776 42.6367 24.4375 43.2122 24.4414 44.9731C24.4453 48.2208 24.4414 51.4686 24.4453 54.7201C24.4453 55.1372 24.4646 55.5582 24.5379 55.9675C24.6885 56.8325 25.2138 57.4002 26.0441 57.6821C27.7239 58.2498 29.1682 57.0951 29.172 55.1334C29.1836 50.2135 29.1759 45.2898 29.1759 40.3699L29.1682 40.3661Z" fill="#0D3F39"/>
<path d="M81.6917 19.7016C82.9969 20.0955 84.2713 20.3967 85.4878 20.8601C92.1029 23.3819 95.706 28.3597 96.9109 35.1834C97.6716 39.4776 97.5711 43.7796 96.2697 47.9657C94.0261 55.1911 89.002 59.3193 81.6531 60.7249C78.1273 61.4007 74.5513 61.4278 70.9869 61.2656C67.8357 61.1227 65.4839 58.5933 65.4801 55.4305C65.4607 45.3359 65.4607 35.2374 65.4801 25.1428C65.4878 21.8294 68.0134 19.3193 71.3692 19.2845C73.5472 19.2614 75.7292 19.1687 77.9034 19.4197C78.1158 19.4429 78.4787 19.5935 78.5598 19.2575C78.6409 18.9293 78.2625 18.8984 78.0578 18.7787C73.9605 16.3573 72.5278 11.7348 74.5706 7.46761C75.6442 5.22394 77.0962 3.21584 78.6564 1.29655C80.008 -0.367864 82.7421 -0.414202 84.1168 1.21545C85.9203 3.35486 87.5268 5.65646 88.6004 8.25541C90.6741 13.268 87.214 19.0142 81.6994 19.6939L81.6917 19.7016ZM68.9402 40.2809C68.9402 45.2664 68.9324 50.248 68.9402 55.2335C68.9402 56.7782 69.8439 57.8093 71.3152 57.8209C74.3969 57.8441 77.4901 57.9985 80.5525 57.4579C86.2331 56.4538 90.508 53.6193 92.6088 48.0545C94.0145 44.3318 94.0841 40.4585 93.6438 36.5543C92.8715 29.7422 88.805 25.1042 82.1705 23.4398C78.7567 22.5825 75.2812 22.7601 71.8134 22.7447C69.8207 22.737 68.944 23.6252 68.9402 25.6217C68.9402 30.5106 68.9402 35.3957 68.9402 40.2847V40.2809ZM85.8006 11.2444C85.7697 10.9664 85.7851 10.6613 85.6963 10.3948C84.8506 7.89627 83.2827 5.81865 81.7226 3.74489C81.4677 3.40506 81.2476 3.54408 81.0429 3.81827C79.6604 5.66804 78.386 7.56802 77.3627 9.65722C76.3277 11.7657 78.0655 15.3494 80.4636 16.0561C81.402 16.3303 82.3211 16.2338 83.1475 15.7086C84.7772 14.6775 85.5998 13.1521 85.8045 11.2405L85.8006 11.2444Z" fill="#0D3F39"/>
<path d="M16.3278 19.6516C12.945 19.6516 9.69726 16.8982 8.73182 13.2179C8.27227 11.4724 8.43065 9.78485 9.16438 8.14361C10.2881 5.63347 11.8289 3.38208 13.559 1.2697C14.8063 -0.255684 17.4362 -0.475808 18.7337 0.987793C21.0816 3.63309 23.2057 6.49464 24.0205 10.032C25.04 14.4614 20.8345 19.6439 16.3278 19.6477V19.6516ZM11.941 11.0785C11.941 12.8858 13.0956 14.863 14.5786 15.7242C15.3972 16.1992 16.2738 16.3305 17.1736 16.0911C19.6143 15.4346 21.298 12.1096 20.3634 9.76168C19.4868 7.56821 18.0773 5.69913 16.6755 3.82232C16.3318 3.36277 16.1039 3.59061 15.8683 3.90727C14.5785 5.62575 13.3273 7.37126 12.4198 9.32916C12.1495 9.90843 11.9062 10.507 11.9371 11.0824L11.941 11.0785Z" fill="#0D3F39"/>
<path d="M42.2903 47.0277C42.2903 45.8035 42.2787 44.5832 42.2903 43.359C42.3057 42.0885 42.9275 41.4358 44.1671 41.4281C47.2565 41.4127 50.3421 41.4358 53.4315 41.4165C54.1845 41.4127 54.7097 41.7332 55.1499 42.3009C56.629 44.2086 56.8916 47.9159 55.679 49.9973C55.1113 50.9744 54.3042 51.6849 53.2422 52.0904C50.1451 53.2644 46.9823 53.4188 43.7771 52.6349C42.6958 52.3684 42.2981 51.8085 42.2865 50.6963C42.2749 49.4721 42.2865 48.2518 42.2865 47.0277H42.2903ZM45.7544 47.1358C45.7544 47.7459 45.7814 48.36 45.7466 48.9662C45.7196 49.4181 45.8586 49.5609 46.322 49.5996C47.8088 49.7309 49.2762 49.6266 50.7244 49.3022C52.8406 48.8272 53.5473 47.4138 52.8135 45.3246C52.6668 44.9114 52.439 44.8882 52.103 44.8921C50.7205 44.8998 49.3419 44.8921 47.9594 44.8921C46.4919 44.8921 45.7582 45.64 45.7582 47.1358H45.7544Z" fill="#0D3F39"/>
<path d="M48.2181 36.6626C46.8704 36.6626 45.5226 36.6781 44.171 36.6588C42.9198 36.6395 42.3057 36.0062 42.2942 34.7395C42.2787 33.3261 42.3058 31.9127 42.2865 30.5032C42.2749 29.6768 42.6379 29.1207 43.3253 28.692C46.1984 26.8963 51.2689 27.213 53.8718 29.3678C56.1811 31.2794 56.2312 34.0598 54.003 35.9946C53.4662 36.458 52.8908 36.6974 52.1687 36.6742C50.8518 36.6395 49.535 36.6626 48.2181 36.6626ZM48.778 33.2218C49.6122 33.2218 50.4502 33.2218 51.2843 33.2218C51.6048 33.2218 51.9679 33.2798 52.1146 32.8974C52.2614 32.5229 51.9756 32.2912 51.7207 32.0981C50.0138 30.8198 48.1023 30.6731 46.1405 31.2485C45.3296 31.4841 45.8586 32.3105 45.7775 32.855C45.7002 33.4033 46.1984 33.2025 46.4687 33.2103C47.2372 33.2373 48.0096 33.218 48.7819 33.218L48.778 33.2218Z" fill="#0D3F39"/>
<path d="M76.9302 27.4949C78.5135 27.5181 80.0698 27.7189 81.6029 28.1205C85.2445 29.0743 87.6079 31.3451 88.5386 35.0021C89.3418 38.161 89.4422 41.3701 88.7432 44.5561C87.7315 49.167 84.5687 52.0401 79.8149 52.8241C78.4131 53.0558 77.0036 53.133 75.5863 53.1021C74.312 53.0751 73.6593 52.4688 73.6555 51.1983C73.6362 43.9305 73.6362 36.6627 73.6555 29.3949C73.6555 28.1166 74.3081 27.5258 75.5747 27.4949C76.0227 27.4833 76.4745 27.4949 76.9264 27.4949H76.9302ZM77.104 40.2657C77.104 43.1234 77.1001 45.9849 77.1117 48.8426C77.1117 49.1516 76.934 49.6072 77.5558 49.5763C81.4137 49.3794 84.4336 48.0085 85.3411 43.9266C85.8431 41.6714 85.8315 39.3929 85.4801 37.1261C85.09 34.5928 83.947 32.5731 81.3712 31.6694C80.2436 31.2717 79.0735 31.1095 77.8841 30.9975C77.2044 30.9319 77.0847 31.179 77.0924 31.7892C77.1194 34.616 77.104 37.4428 77.104 40.2696V40.2657Z" fill="#0D3F39"/>
</svg>
