<svg width="259" height="266" viewBox="0 0 259 266" fill="none" xmlns="http://www.w3.org/2000/svg">
<path d="M237.6 23.7344H21.7922C12.7347 23.7344 5.39209 30.8845 5.39209 39.7047V244.357C5.39209 253.177 12.7347 260.327 21.7922 260.327H237.6C246.658 260.327 254 253.177 254 244.357V39.7047C254 30.8845 246.658 23.7344 237.6 23.7344Z" stroke="#767676" stroke-width="10" stroke-miterlimit="10"/>
<path d="M5.39209 67.126H254" stroke="#767676" stroke-width="12" stroke-miterlimit="10"/>
<path d="M129.758 122.115C128.838 123.011 128.628 124.111 128.628 125.606C128.628 127.798 129.656 130.294 129.656 133.792C129.656 138.086 125.247 141.378 119.099 141.378C112.641 141.378 109.469 138.382 109.469 133.792C109.469 128.102 114.596 119.422 129.041 119.422L129.758 122.115ZM133.856 133.594C133.856 129.406 133.139 122.912 131.293 119.422C148.098 119.422 153.739 125.81 153.739 135.392C153.739 148.866 136.108 150.664 136.108 156.347C136.108 159.443 138.569 161.734 141.538 162.334V165.33C124.117 165.33 114.581 160.543 114.581 153.358C114.581 143.078 133.849 146.173 133.849 133.601L133.856 133.594ZM130.474 167.326C137.44 167.326 142.769 172.515 142.769 179.298C142.769 186.081 137.44 191.27 130.474 191.27C123.509 191.27 118.18 186.081 118.18 179.298C118.18 172.515 123.509 167.326 130.474 167.326Z" fill="#767676"/>
<path d="M52.4058 44.4286C49.886 45.8388 47.0477 46.6355 44.0356 46.6355C33.7249 46.6355 25.3691 37.3142 25.3691 25.8213C25.3691 14.3283 33.7249 5 44.0356 5C53.586 5 61.4638 13.0028 62.5644 23.3253" stroke="#767676" stroke-width="10" stroke-miterlimit="10" stroke-linecap="round"/>
<path d="M107.435 44.4294C104.915 45.8395 102.077 46.6363 99.0646 46.6363C88.7539 46.6363 80.3982 37.315 80.3982 25.822C80.3982 14.3291 88.7539 5.00781 99.0646 5.00781C108.615 5.00781 116.493 13.0106 117.593 23.3331" stroke="#767676" stroke-width="10" stroke-miterlimit="10" stroke-linecap="round"/>
<path d="M162.464 44.4294C159.944 45.8395 157.106 46.6363 154.094 46.6363C143.783 46.6363 135.427 37.315 135.427 25.822C135.427 14.3291 143.783 5.00781 154.094 5.00781C163.644 5.00781 171.522 13.0106 172.623 23.3331" stroke="#767676" stroke-width="10" stroke-miterlimit="10" stroke-linecap="round"/>
<path d="M217.5 44.4294C214.98 45.8395 212.142 46.6363 209.13 46.6363C198.819 46.6363 190.463 37.315 190.463 25.822C190.463 14.3291 198.819 5.00781 209.13 5.00781C218.68 5.00781 226.558 13.0106 227.659 23.3331" stroke="#767676" stroke-width="10" stroke-miterlimit="10" stroke-linecap="round"/>
</svg>
