<svg width="324" height="95" viewBox="0 0 324 95" fill="none" xmlns="http://www.w3.org/2000/svg">
<mask id="path-1-inside-1_3696_9803" fill="white">
<path fill-rule="evenodd" clip-rule="evenodd" d="M29 0C12.9837 0 0 12.9837 0 29V51.1125C0 67.1288 12.9837 80.1125 29 80.1125H40.5198V83.7482C40.5198 86.9197 37 95 37 95L52.2816 86.8987L60.1125 80.1125H295C311.016 80.1125 324 67.1288 324 51.1125V29C324 12.9837 311.016 0 295 0H29Z"/>
</mask>
<path fill-rule="evenodd" clip-rule="evenodd" d="M29 0C12.9837 0 0 12.9837 0 29V51.1125C0 67.1288 12.9837 80.1125 29 80.1125H40.5198V83.7482C40.5198 86.9197 37 95 37 95L52.2816 86.8987L60.1125 80.1125H295C311.016 80.1125 324 67.1288 324 51.1125V29C324 12.9837 311.016 0 295 0H29Z" fill="white"/>
<path d="M40.5198 80.1125H43.5198V77.1125H40.5198V80.1125ZM37 95L34.2496 93.8019L30.822 101.671L38.4052 97.6506L37 95ZM52.2816 86.8987L53.6868 89.5493L53.9884 89.3894L54.2463 89.1659L52.2816 86.8987ZM60.1125 80.1125V77.1125H58.9935L58.1478 77.8454L60.1125 80.1125ZM3 29C3 14.6406 14.6406 3 29 3V-3C11.3269 -3 -3 11.3269 -3 29H3ZM3 51.1125V29H-3V51.1125H3ZM29 77.1125C14.6406 77.1125 3 65.4719 3 51.1125H-3C-3 68.7856 11.3269 83.1125 29 83.1125V77.1125ZM40.5198 77.1125H29V83.1125H40.5198V77.1125ZM43.5198 83.7482V80.1125H37.5198V83.7482H43.5198ZM37 95C39.7504 96.1981 39.7505 96.1979 39.7506 96.1976C39.7507 96.1975 39.7508 96.1972 39.7509 96.1969C39.7511 96.1964 39.7514 96.1958 39.7517 96.1951C39.7524 96.1936 39.7532 96.1916 39.7543 96.1891C39.7565 96.1841 39.7595 96.1772 39.7633 96.1685C39.7709 96.1509 39.7817 96.1258 39.7956 96.0935C39.8233 96.029 39.8632 95.9358 39.9135 95.817C40.0141 95.5797 40.1565 95.2399 40.3269 94.8233C40.6668 93.9919 41.1218 92.845 41.5789 91.5899C42.0335 90.3414 42.5033 88.95 42.8631 87.6376C43.2041 86.394 43.5198 84.9674 43.5198 83.7482H37.5198C37.5198 84.1148 37.3957 84.8876 37.0767 86.051C36.7765 87.1457 36.3663 88.3689 35.941 89.5369C35.5181 90.6984 35.0932 91.7698 34.7731 92.5526C34.6135 92.943 34.4809 93.2592 34.389 93.4762C34.3431 93.5846 34.3073 93.6681 34.2835 93.7234C34.2716 93.7511 34.2627 93.7718 34.257 93.785C34.2541 93.7916 34.2521 93.7963 34.2508 93.7992C34.2502 93.8006 34.2498 93.8015 34.2496 93.802C34.2495 93.8022 34.2495 93.8023 34.2495 93.8023C34.2495 93.8023 34.2495 93.8022 34.2495 93.8022C34.2496 93.8021 34.2496 93.8019 37 95ZM50.8765 84.2482L35.5949 92.3494L38.4052 97.6506L53.6868 89.5493L50.8765 84.2482ZM58.1478 77.8454L50.3169 84.6316L54.2463 89.1659L62.0772 82.3797L58.1478 77.8454ZM295 77.1125H60.1125V83.1125H295V77.1125ZM321 51.1125C321 65.4719 309.359 77.1125 295 77.1125V83.1125C312.673 83.1125 327 68.7856 327 51.1125H321ZM321 29V51.1125H327V29H321ZM295 3C309.359 3 321 14.6406 321 29H327C327 11.3269 312.673 -3 295 -3V3ZM29 3H295V-3H29V3Z" fill="#0C3F39" mask="url(#path-1-inside-1_3696_9803)"/>
<path d="M237.524 60.0582C234.462 60.0582 232.065 58.9932 230.335 56.8631C228.604 54.6886 227.739 51.671 227.739 47.8103C227.739 42.8844 229.048 38.6465 231.666 35.0963C234.328 31.5462 237.99 29.7711 242.649 29.7711L245.045 29.9043C245.8 29.5049 246.643 29.3052 247.575 29.3052C251.081 29.3052 252.834 32.6112 252.834 39.2234C254.653 39.1346 256.495 38.8905 258.358 38.4911L259.423 38.2249L259.823 40.8209C258.358 41.4422 256.384 41.9969 253.899 42.4851L252.567 42.7513C251.724 47.4109 250.016 51.4713 247.442 54.9327C244.868 58.3497 241.562 60.0582 237.524 60.0582ZM241.118 54.3336C242.982 54.3336 244.646 53.1355 246.11 50.7391C247.619 48.3428 248.662 45.8133 249.239 43.1507C244.491 43.1507 242.117 41.3756 242.117 37.8255C242.117 36.4054 242.405 35.0741 242.982 33.8316L243.315 33.1659C243.137 33.0772 242.915 33.0328 242.649 33.0328C242.383 33.0328 242.183 33.0772 242.05 33.1659C240.941 33.876 239.898 35.5401 238.921 38.1583C237.945 40.7765 237.457 43.772 237.457 47.1446C237.457 51.9373 238.677 54.3336 241.118 54.3336Z" fill="#06564E"/>
<path d="M209.636 60.0582C206.574 60.0582 204.178 58.9932 202.447 56.8631C200.717 54.6886 199.851 51.671 199.851 47.8103C199.851 42.8844 201.16 38.6465 203.779 35.0963C206.441 31.5462 210.102 29.7711 214.762 29.7711L217.158 29.9043C217.913 29.5049 218.756 29.3052 219.688 29.3052C223.193 29.3052 224.946 32.6112 224.946 39.2234C226.766 39.1346 228.607 38.8905 230.471 38.4911L231.536 38.2249L231.936 40.8209C230.471 41.4422 228.496 41.9969 226.011 42.4851L224.68 42.7513C223.837 47.4109 222.128 51.4713 219.555 54.9327C216.981 58.3497 213.675 60.0582 209.636 60.0582ZM213.231 54.3336C215.095 54.3336 216.759 53.1355 218.223 50.7391C219.732 48.3428 220.775 45.8133 221.352 43.1507C216.604 43.1507 214.229 41.3756 214.229 37.8255C214.229 36.4054 214.518 35.0741 215.095 33.8316L215.428 33.1659C215.25 33.0772 215.028 33.0328 214.762 33.0328C214.496 33.0328 214.296 33.0772 214.163 33.1659C213.053 33.876 212.011 35.5401 211.034 38.1583C210.058 40.7765 209.57 43.772 209.57 47.1446C209.57 51.9373 210.79 54.3336 213.231 54.3336Z" fill="#06564E"/>
<path d="M166.145 74.1582C165.923 73.6256 165.812 72.4496 165.812 70.6302C165.812 68.8108 166.678 63.9293 168.408 55.9859C170.139 47.9981 171.004 41.8519 171.004 37.5474C171.004 36.7042 170.805 35.8167 170.405 34.8848C170.006 33.9085 169.584 33.1541 169.141 32.6216L168.541 31.8894L168.608 31.024C170.694 30.3584 174.377 30.0255 179.658 30.0255C180.146 30.9574 180.457 32.2666 180.59 33.9529C184.007 31.1571 186.847 29.7593 189.11 29.7593C191.418 29.7593 193.259 30.7134 194.635 32.6216C196.055 34.5298 196.765 37.3255 196.765 41.0088C196.765 47.4434 195.589 52.2361 193.237 55.3868C190.885 58.4932 187.912 60.0464 184.317 60.0464C182.454 60.0464 180.9 59.7801 179.658 59.2476L178.992 58.9813L179.458 56.3853C179.857 56.474 180.323 56.5184 180.856 56.5184C182.01 56.5184 183.008 55.9859 183.851 54.9209C184.739 53.8558 185.405 52.5023 185.848 50.8604C186.736 47.5765 187.18 44.5367 187.18 41.741C187.18 37.7471 186.359 35.7501 184.717 35.7501C183.43 35.7501 182.054 36.2605 180.59 37.2811C180.412 40.3875 179.502 45.8236 177.861 53.5896C176.219 61.3555 175.398 67.6126 175.398 72.3609C173.001 73.3372 169.917 73.9363 166.145 74.1582Z" fill="black"/>
<path d="M102.963 60.0582C99.9013 60.0582 97.505 58.9932 95.7743 56.8631C94.0436 54.6886 93.1782 51.671 93.1782 47.8103C93.1782 42.8844 94.4873 38.6465 97.1056 35.0963C99.7682 31.5462 103.429 29.7711 108.089 29.7711L110.485 29.9043C111.24 29.5049 112.083 29.3052 113.015 29.3052C116.52 29.3052 118.273 32.6112 118.273 39.2234C120.093 39.1346 121.934 38.8905 123.798 38.4911L124.863 38.2249L125.263 40.8209C123.798 41.4422 121.823 41.9969 119.338 42.4851L118.007 42.7513C117.164 47.4109 115.455 51.4713 112.881 54.9327C110.308 58.3497 107.002 60.0582 102.963 60.0582ZM106.558 54.3336C108.422 54.3336 110.086 53.1355 111.55 50.7391C113.059 48.3428 114.102 45.8133 114.679 43.1507C109.93 43.1507 107.556 41.3756 107.556 37.8255C107.556 36.4054 107.845 35.0741 108.422 33.8316L108.754 33.1659C108.577 33.0772 108.355 33.0328 108.089 33.0328C107.823 33.0328 107.623 33.0772 107.49 33.1659C106.38 33.876 105.337 35.5401 104.361 38.1583C103.385 40.7765 102.897 43.772 102.897 47.1446C102.897 51.9373 104.117 54.3336 106.558 54.3336Z" fill="#06564E"/>
<path d="M75.0763 60.0582C72.0143 60.0582 69.618 58.9932 67.8873 56.8631C66.1566 54.6886 65.2913 51.671 65.2913 47.8103C65.2913 42.8844 66.6004 38.6465 69.2186 35.0963C71.8812 31.5462 75.5423 29.7711 80.2018 29.7711L82.5982 29.9043C83.3526 29.5049 84.1957 29.3052 85.1276 29.3052C88.6334 29.3052 90.3863 32.6112 90.3863 39.2234C92.2057 39.1346 94.0474 38.8905 95.9112 38.4911L96.9762 38.2249L97.3756 40.8209C95.9112 41.4422 93.9364 41.9969 91.4513 42.4851L90.12 42.7513C89.2769 47.4109 87.5684 51.4713 84.9945 54.9327C82.4207 58.3497 79.1146 60.0582 75.0763 60.0582ZM78.6708 54.3336C80.5347 54.3336 82.1988 53.1355 83.6632 50.7391C85.172 48.3428 86.2149 45.8133 86.7918 43.1507C82.0435 43.1507 79.6693 41.3756 79.6693 37.8255C79.6693 36.4054 79.9578 35.0741 80.5347 33.8316L80.8675 33.1659C80.69 33.0772 80.4681 33.0328 80.2018 33.0328C79.9356 33.0328 79.7359 33.0772 79.6027 33.1659C78.4933 33.876 77.4505 35.5401 76.4742 38.1583C75.4979 40.7765 75.0098 43.772 75.0098 47.1446C75.0098 51.9373 76.2301 54.3336 78.6708 54.3336Z" fill="#06564E"/>
<path d="M39.1753 24.779C39.1753 23.9358 39.0644 23.3145 38.8425 22.9151C38.665 22.5158 38.2434 21.9389 37.5777 21.1844L37.6443 20.7185C39.9963 19.3428 42.9251 18.655 46.4309 18.655C47.8066 18.655 48.8272 18.7659 49.4929 18.9878C49.7148 19.4316 49.8257 20.3635 49.8257 21.7835C49.8257 23.1592 48.7607 28.1516 46.6306 36.7607C47.6069 37.1601 48.7163 37.3598 49.9588 37.3598C52.0889 37.3598 53.8418 36.6275 55.2175 35.1631C56.5932 33.6987 57.4807 32.1233 57.8801 30.437C58.3238 28.7063 58.5457 26.8869 58.5457 24.9787C58.5457 21.4729 57.5916 18.9434 55.6834 17.3902C53.8196 15.7927 50.7798 14.9939 46.564 14.9939C41.0613 14.9939 36.4905 16.1033 32.8516 18.3222C29.2127 20.541 27.3933 22.8708 27.3933 25.3115C27.3933 26.554 27.8592 27.5747 28.7912 28.3735C29.7674 29.1279 30.7659 29.6382 31.7866 29.9045C31.6091 31.502 31.0544 33.144 30.1225 34.8303C28.4361 34.6084 26.8386 33.7209 25.3298 32.1677C23.7766 30.6145 23 28.5732 23 26.0437C23 21.5173 25.5295 17.8784 30.5884 15.127C35.6474 12.3757 41.5495 11 48.2947 11C55.04 11 60.1433 12.1316 63.6047 14.3948C67.0661 16.6137 68.7967 20.075 68.7967 24.779C68.7967 30.9473 66.3338 35.6069 61.408 38.7576C58.7454 40.4883 55.5503 41.3537 51.8227 41.3537C49.4707 41.3537 47.4516 40.9986 45.7652 40.2886C43.9014 47.877 42.7698 53.9566 42.3704 58.5274C39.7522 59.2818 36.8455 59.659 33.6504 59.659C32.896 59.659 32.3413 59.5925 31.9863 59.4593C32.2082 56.6636 33.4507 50.8503 35.7139 42.0193C38.0215 33.1883 39.1753 27.4416 39.1753 24.779Z" fill="black"/>
<path d="M256.068 59.4595H254.804C254.804 57.3738 255.425 53.3799 256.668 47.4778C257.954 41.5757 258.598 38.2252 258.598 37.4265C258.598 35.962 257.977 34.4088 256.734 32.7669L256.135 31.9681L256.202 31.1028C258.598 30.4371 262.436 30.1043 267.717 30.1043C268.339 30.9475 268.649 32.3231 268.649 34.2313C272.643 31.2581 275.816 29.7715 278.168 29.7715C281.141 29.7715 282.894 31.3025 283.427 34.3645C284.625 33.3882 286.178 32.3897 288.086 31.369C290.039 30.304 291.769 29.7715 293.278 29.7715C294.831 29.7715 296.118 30.2818 297.139 31.3025C298.16 32.2788 298.67 33.6544 298.67 35.4295C298.67 37.2046 298.182 40.1334 297.206 44.2161C296.229 48.2988 295.741 51.0501 295.741 52.4702C295.741 53.8458 295.941 54.5337 296.34 54.5337C296.607 54.5337 297.516 54.1121 299.069 53.2689L299.802 52.8696L301 55.1993C299.846 56.3531 298.271 57.4625 296.274 58.5276C294.321 59.5482 292.59 60.0586 291.082 60.0586C287.753 60.0586 286.089 58.1726 286.089 54.4005C286.089 53.0249 286.555 50.2735 287.487 46.1465C288.463 41.9751 288.952 39.2681 288.952 38.0255C288.952 36.7386 288.574 36.0952 287.82 36.0952C286.533 36.0952 285.069 36.5833 283.427 37.5596C283.338 38.4471 282.717 41.4647 281.563 46.6124C280.453 51.7601 279.899 55.754 279.899 58.5941C278.612 59.171 275.594 59.4595 270.846 59.4595C270.757 58.9713 270.713 57.7954 270.713 55.9315C270.713 54.0677 271.223 50.8948 272.244 46.4127C273.309 41.9307 273.841 39.0906 273.841 37.8924C273.841 36.6943 273.42 36.0952 272.577 36.0952C271.245 36.0952 269.781 36.6277 268.183 37.6927C268.095 38.0921 267.651 40.0447 266.852 43.5504C265.254 50.562 264.456 55.5543 264.456 58.5276C262.902 59.1488 260.107 59.4595 256.068 59.4595Z" fill="black"/>
<path d="M121.508 59.4595H120.244C120.244 57.3738 120.865 53.3799 122.107 47.4778C123.394 41.5757 124.038 38.2252 124.038 37.4265C124.038 35.962 123.417 34.4088 122.174 32.7669L121.575 31.9681L121.642 31.1028C124.038 30.4371 127.876 30.1043 133.157 30.1043C133.779 30.9475 134.089 32.3231 134.089 34.2313C138.083 31.2581 141.256 29.7715 143.608 29.7715C146.581 29.7715 148.334 31.3025 148.867 34.3645C150.065 33.3882 151.618 32.3897 153.526 31.369C155.479 30.304 157.209 29.7715 158.718 29.7715C160.271 29.7715 161.558 30.2818 162.579 31.3025C163.6 32.2788 164.11 33.6544 164.11 35.4295C164.11 37.2046 163.622 40.1334 162.646 44.2161C161.669 48.2988 161.181 51.0501 161.181 52.4702C161.181 53.8458 161.381 54.5337 161.78 54.5337C162.046 54.5337 162.956 54.1121 164.509 53.2689L165.242 52.8696L166.44 55.1993C165.286 56.3531 163.711 57.4625 161.714 58.5276C159.761 59.5482 158.03 60.0586 156.522 60.0586C153.193 60.0586 151.529 58.1726 151.529 54.4005C151.529 53.0249 151.995 50.2735 152.927 46.1465C153.903 41.9751 154.392 39.2681 154.392 38.0255C154.392 36.7386 154.014 36.0952 153.26 36.0952C151.973 36.0952 150.509 36.5833 148.867 37.5596C148.778 38.4471 148.157 41.4647 147.003 46.6124C145.893 51.7601 145.339 55.754 145.339 58.5941C144.052 59.171 141.034 59.4595 136.286 59.4595C136.197 58.9713 136.153 57.7954 136.153 55.9315C136.153 54.0677 136.663 50.8948 137.684 46.4127C138.749 41.9307 139.281 39.0906 139.281 37.8924C139.281 36.6943 138.86 36.0952 138.017 36.0952C136.685 36.0952 135.221 36.6277 133.623 37.6927C133.534 38.0921 133.091 40.0447 132.292 43.5504C130.694 50.562 129.896 55.5543 129.896 58.5276C128.342 59.1488 125.547 59.4595 121.508 59.4595Z" fill="black"/>
</svg>
