<svg width="919" height="706" viewBox="0 0 919 706" fill="none" xmlns="http://www.w3.org/2000/svg">
<path d="M235.953 68.4839V216.635H452.588V0H304.437C266.614 0 235.953 30.6607 235.953 68.4839ZM384.858 131.816C364.502 167 329.946 184.969 307.453 172.027C284.96 159.084 283.326 120.004 303.557 84.9452C323.914 49.7608 358.47 31.7916 380.963 44.7344C403.456 57.6773 405.089 96.7571 384.858 131.816Z" fill="#E2696D"/>
<path d="M465.783 0V216.635H682.418V68.4839C682.418 30.6607 651.757 0 613.934 0H465.783ZM639.694 117.868H597.222L627.254 147.9C631.024 151.67 631.024 157.701 627.254 161.471C623.484 165.241 617.453 165.241 613.683 161.471L583.65 131.439V173.911C583.65 179.189 579.378 183.461 574.1 183.461C568.823 183.461 564.55 179.189 564.55 173.911V131.439L534.518 161.471C530.748 165.241 524.717 165.241 520.947 161.471C517.177 157.701 517.177 151.67 520.947 147.9L550.979 117.868H508.507C503.229 117.868 498.957 113.595 498.957 108.318C498.957 103.04 503.229 98.7676 508.507 98.7676H550.979L520.947 68.7352C517.177 64.9655 517.177 58.9338 520.947 55.1641C524.717 51.3943 530.748 51.3943 534.518 55.1641L564.55 85.1965V42.7239C564.55 37.4462 568.823 33.1739 574.1 33.1739C579.378 33.1739 583.65 37.4462 583.65 42.7239V85.1965L613.683 55.1641C617.453 51.3943 623.484 51.3943 627.254 55.1641C631.024 58.9338 631.024 64.9655 627.254 68.7352L597.222 98.7676H639.694C644.972 98.7676 649.244 103.04 649.244 108.318C649.244 113.595 644.972 117.868 639.694 117.868Z" fill="#9D1B23"/>
<path d="M235.953 234.604V382.755C235.953 420.578 266.614 451.239 304.437 451.239H452.588V234.604H235.953ZM402.074 392.179C394.66 404.745 380.837 411.908 366.512 411.908C359.727 411.908 352.69 410.274 346.281 406.881C341.632 404.368 339.873 398.714 342.26 394.064C344.773 389.415 350.428 387.656 355.077 390.043C366.01 395.823 379.706 392.431 385.487 382.504C391.141 372.828 386.618 360.262 379.204 354.23C375.937 351.592 372.041 350.084 368.146 349.455C365.004 356.995 359.475 366.294 350.805 369.184C343.768 371.446 337.36 370.566 333.213 366.671C326.679 360.513 328.563 350.335 331.328 345.057C334.972 338.146 343.14 332.994 353.821 330.984C356.083 318.92 354.198 308.114 348.92 302.082C343.642 296.176 334.469 292.532 324.542 292.909C311.6 293.16 299.159 299.443 290.74 309.999C287.473 314.145 281.441 314.774 277.42 311.507C273.274 308.239 272.645 302.208 275.913 298.187C287.85 283.233 305.442 274.312 324.165 273.935C339.873 273.935 354.449 279.464 363.245 289.642C371.916 299.569 375.434 314.648 373.172 331.109C379.958 332.492 386.115 335.382 391.267 339.528C404.964 350.838 412.755 373.582 401.822 392.179H402.074Z" fill="#9D1B23"/>
<path d="M465.783 234.604V451.239H613.934C651.757 451.239 682.418 420.578 682.418 382.755V234.604H465.783ZM618.96 291.15C603.379 307.862 575.106 345.937 584.53 396.452C585.41 400.975 581.263 404.871 576.739 404.242L532.507 397.834C529.869 397.457 527.732 395.698 526.978 393.185C522.58 379.865 514.036 334.879 566.184 275.443C567.692 273.683 570.205 272.804 572.592 273.181L614.939 279.966C620.343 280.846 622.73 287.38 618.96 291.401V291.15Z" fill="#E2696D"/>
<path d="M861.856 0C861.856 40.462 835.971 73.1333 804.054 73.1333C772.136 73.1333 746.251 40.462 746.251 0H695.736V216.635H912.371V0H861.856Z" fill="#FFCB46"/>
<path d="M861.856 234.604C861.856 275.066 835.971 307.737 804.054 307.737C772.136 307.737 746.251 274.94 746.251 234.604H695.736V451.239H912.371V234.604H861.856Z" fill="#06564E"/>
<path d="M222.635 0H6V216.635H49.4778C49.4778 197.033 65.4365 181.074 85.0392 181.074H124.873C178.78 181.074 222.635 137.345 222.635 83.3116V0Z" fill="#06564E"/>
<path d="M6 234.604V451.239H49.4778C49.4778 431.636 65.4365 415.677 85.0392 415.677H138.193C184.812 415.677 222.635 377.854 222.635 331.235V234.604H6Z" fill="#FFCB46"/>
<path d="M770.301 657.16H766.121C766.121 650.267 768.174 637.067 772.281 617.56C776.534 598.053 778.661 586.98 778.661 584.34C778.661 579.5 776.607 574.367 772.501 568.94L770.521 566.3L770.741 563.44C778.661 561.24 791.347 560.14 808.801 560.14C810.854 562.927 811.881 567.473 811.881 573.78C825.081 563.953 835.567 559.04 843.341 559.04C853.167 559.04 858.961 564.1 860.721 574.22C864.681 570.993 869.814 567.693 876.121 564.32C882.574 560.8 888.294 559.04 893.281 559.04C898.414 559.04 902.667 560.727 906.041 564.1C909.414 567.327 911.101 571.873 911.101 577.74C911.101 583.607 909.487 593.287 906.261 606.78C903.034 620.273 901.421 629.367 901.421 634.06C901.421 638.607 902.081 640.88 903.401 640.88C904.281 640.88 907.287 639.487 912.421 636.7L914.841 635.38L918.801 643.08C914.987 646.893 909.781 650.56 903.181 654.08C896.727 657.453 891.007 659.14 886.021 659.14C875.021 659.14 869.521 652.907 869.521 640.44C869.521 635.893 871.061 626.8 874.141 613.16C877.367 599.373 878.981 590.427 878.981 586.32C878.981 582.067 877.734 579.94 875.241 579.94C870.987 579.94 866.147 581.553 860.721 584.78C860.427 587.713 858.374 597.687 854.561 614.7C850.894 631.713 849.061 644.913 849.061 654.3C844.807 656.207 834.834 657.16 819.141 657.16C818.847 655.547 818.701 651.66 818.701 645.5C818.701 639.34 820.387 628.853 823.761 614.04C827.281 599.227 829.041 589.84 829.041 585.88C829.041 581.92 827.647 579.94 824.861 579.94C820.461 579.94 815.621 581.7 810.341 585.22C810.047 586.54 808.581 592.993 805.941 604.58C800.661 627.753 798.021 644.253 798.021 654.08C792.887 656.133 783.647 657.16 770.301 657.16Z" fill="black"/>
<path d="M709.008 659.14C698.888 659.14 690.968 655.62 685.248 648.58C679.528 641.393 676.668 631.42 676.668 618.66C676.668 602.38 680.995 588.373 689.648 576.64C698.448 564.907 710.548 559.04 725.948 559.04L733.868 559.48C736.362 558.16 739.148 557.5 742.228 557.5C753.815 557.5 759.608 568.427 759.608 590.28C765.622 589.987 771.708 589.18 777.868 587.86L781.388 586.98L782.708 595.56C777.868 597.613 771.342 599.447 763.128 601.06L758.728 601.94C755.942 617.34 750.295 630.76 741.788 642.2C733.282 653.493 722.355 659.14 709.008 659.14ZM720.888 640.22C727.048 640.22 732.548 636.26 737.388 628.34C742.375 620.42 745.822 612.06 747.728 603.26C732.035 603.26 724.188 597.393 724.188 585.66C724.188 580.967 725.142 576.567 727.048 572.46L728.148 570.26C727.562 569.967 726.828 569.82 725.948 569.82C725.068 569.82 724.408 569.967 723.968 570.26C720.302 572.607 716.855 578.107 713.628 586.76C710.402 595.413 708.788 605.313 708.788 616.46C708.788 632.3 712.822 640.22 720.888 640.22Z" fill="black"/>
<path d="M616.841 659.14C606.721 659.14 598.801 655.62 593.081 648.58C587.361 641.393 584.5 631.42 584.5 618.66C584.5 602.38 588.827 588.373 597.48 576.64C606.28 564.907 618.381 559.04 633.781 559.04L641.701 559.48C644.194 558.16 646.98 557.5 650.06 557.5C661.647 557.5 667.44 568.427 667.44 590.28C673.454 589.987 679.541 589.18 685.701 587.86L689.221 586.98L690.54 595.56C685.7 597.613 679.174 599.447 670.961 601.06L666.56 601.94C663.774 617.34 658.127 630.76 649.62 642.2C641.114 653.493 630.187 659.14 616.841 659.14ZM628.721 640.22C634.881 640.22 640.381 636.26 645.221 628.34C650.207 620.42 653.654 612.06 655.56 603.26C639.867 603.26 632.021 597.393 632.021 585.66C632.021 580.967 632.974 576.567 634.88 572.46L635.98 570.26C635.394 569.967 634.661 569.82 633.781 569.82C632.901 569.82 632.24 569.967 631.8 570.26C628.134 572.607 624.687 578.107 621.461 586.76C618.234 595.413 616.62 605.313 616.62 616.46C616.62 632.3 620.654 640.22 628.721 640.22Z" fill="black"/>
<path d="M473.1 705.74C472.367 703.98 472 700.093 472 694.08C472 688.067 474.86 671.933 480.58 645.68C486.3 619.28 489.16 598.967 489.16 584.74C489.16 581.953 488.5 579.02 487.18 575.94C485.86 572.713 484.467 570.22 483 568.46L481.02 566.04L481.24 563.18C488.133 560.98 500.307 559.88 517.76 559.88C519.373 562.96 520.4 567.287 520.84 572.86C532.133 563.62 541.52 559 549 559C556.627 559 562.713 562.153 567.26 568.46C571.953 574.767 574.3 584.007 574.3 596.18C574.3 617.447 570.413 633.287 562.64 643.7C554.867 653.967 545.04 659.1 533.16 659.1C527 659.1 521.867 658.22 517.76 656.46L515.56 655.58L517.1 647C518.42 647.293 519.96 647.44 521.72 647.44C525.533 647.44 528.833 645.68 531.62 642.16C534.553 638.64 536.753 634.167 538.22 628.74C541.153 617.887 542.62 607.84 542.62 598.6C542.62 585.4 539.907 578.8 534.48 578.8C530.227 578.8 525.68 580.487 520.84 583.86C520.253 594.127 517.247 612.093 511.82 637.76C506.393 663.427 503.68 684.107 503.68 699.8C495.76 703.027 485.567 705.007 473.1 705.74Z" fill="black"/>
<path d="M325.574 657.16H321.394C321.394 650.267 323.447 637.067 327.554 617.56C331.807 598.053 333.934 586.98 333.934 584.34C333.934 579.5 331.881 574.367 327.774 568.94L325.794 566.3L326.014 563.44C333.934 561.24 346.621 560.14 364.074 560.14C366.127 562.927 367.154 567.473 367.154 573.78C380.354 563.953 390.841 559.04 398.614 559.04C408.441 559.04 414.234 564.1 415.994 574.22C419.954 570.993 425.087 567.693 431.394 564.32C437.847 560.8 443.567 559.04 448.554 559.04C453.687 559.04 457.941 560.727 461.314 564.1C464.687 567.327 466.374 571.873 466.374 577.74C466.374 583.607 464.761 593.287 461.534 606.78C458.307 620.273 456.694 629.367 456.694 634.06C456.694 638.607 457.354 640.88 458.674 640.88C459.554 640.88 462.561 639.487 467.694 636.7L470.114 635.38L474.074 643.08C470.261 646.893 465.054 650.56 458.454 654.08C452.001 657.453 446.281 659.14 441.294 659.14C430.294 659.14 424.794 652.907 424.794 640.44C424.794 635.893 426.334 626.8 429.414 613.16C432.641 599.373 434.254 590.427 434.254 586.32C434.254 582.067 433.007 579.94 430.514 579.94C426.261 579.94 421.421 581.553 415.994 584.78C415.701 587.713 413.647 597.687 409.834 614.7C406.167 631.713 404.334 644.913 404.334 654.3C400.081 656.207 390.107 657.16 374.414 657.16C374.121 655.547 373.974 651.66 373.974 645.5C373.974 639.34 375.661 628.853 379.034 614.04C382.554 599.227 384.314 589.84 384.314 585.88C384.314 581.92 382.921 579.94 380.134 579.94C375.734 579.94 370.894 581.7 365.614 585.22C365.321 586.54 363.854 592.993 361.214 604.58C355.934 627.753 353.294 644.253 353.294 654.08C348.161 656.133 338.921 657.16 325.574 657.16Z" fill="black"/>
<path d="M264.282 659.14C254.162 659.14 246.242 655.62 240.522 648.58C234.802 641.393 231.942 631.42 231.942 618.66C231.942 602.38 236.269 588.373 244.922 576.64C253.722 564.907 265.822 559.04 281.222 559.04L289.142 559.48C291.635 558.16 294.422 557.5 297.502 557.5C309.089 557.5 314.882 568.427 314.882 590.28C320.895 589.987 326.982 589.18 333.142 587.86L336.662 586.98L337.982 595.56C333.142 597.613 326.615 599.447 318.402 601.06L314.002 601.94C311.215 617.34 305.569 630.76 297.062 642.2C288.555 653.493 277.629 659.14 264.282 659.14ZM276.162 640.22C282.322 640.22 287.822 636.26 292.662 628.34C297.649 620.42 301.095 612.06 303.002 603.26C287.309 603.26 279.462 597.393 279.462 585.66C279.462 580.967 280.415 576.567 282.322 572.46L283.422 570.26C282.835 569.967 282.102 569.82 281.222 569.82C280.342 569.82 279.682 569.967 279.242 570.26C275.575 572.607 272.129 578.107 268.902 586.76C265.675 595.413 264.062 605.313 264.062 616.46C264.062 632.3 268.095 640.22 276.162 640.22Z" fill="black"/>
<path d="M172.114 659.14C161.994 659.14 154.074 655.62 148.354 648.58C142.634 641.393 139.774 631.42 139.774 618.66C139.774 602.38 144.101 588.373 152.754 576.64C161.554 564.907 173.654 559.04 189.054 559.04L196.974 559.48C199.467 558.16 202.254 557.5 205.334 557.5C216.921 557.5 222.714 568.427 222.714 590.28C228.727 589.987 234.814 589.18 240.974 587.86L244.494 586.98L245.814 595.56C240.974 597.613 234.447 599.447 226.234 601.06L221.834 601.94C219.047 617.34 213.401 630.76 204.894 642.2C196.387 653.493 185.461 659.14 172.114 659.14ZM183.994 640.22C190.154 640.22 195.654 636.26 200.494 628.34C205.481 620.42 208.927 612.06 210.834 603.26C195.141 603.26 187.294 597.393 187.294 585.66C187.294 580.967 188.247 576.567 190.154 572.46L191.254 570.26C190.667 569.967 189.934 569.82 189.054 569.82C188.174 569.82 187.514 569.967 187.074 570.26C183.407 572.607 179.961 578.107 176.734 586.76C173.507 595.413 171.894 605.313 171.894 616.46C171.894 632.3 175.927 640.22 183.994 640.22Z" fill="black"/>
<path d="M53.46 542.54C53.46 539.753 53.0933 537.7 52.36 536.38C51.7733 535.06 50.38 533.153 48.18 530.66L48.4 529.12C56.1733 524.573 65.8533 522.3 77.44 522.3C81.9867 522.3 85.36 522.667 87.56 523.4C88.2933 524.867 88.66 527.947 88.66 532.64C88.66 537.187 85.14 553.687 78.1 582.14C81.3267 583.46 84.9933 584.12 89.1 584.12C96.14 584.12 101.933 581.7 106.48 576.86C111.027 572.02 113.96 566.813 115.28 561.24C116.747 555.52 117.48 549.507 117.48 543.2C117.48 531.613 114.327 523.253 108.02 518.12C101.86 512.84 91.8133 510.2 77.88 510.2C59.6933 510.2 44.5867 513.867 32.56 521.2C20.5333 528.533 14.52 536.233 14.52 544.3C14.52 548.407 16.06 551.78 19.14 554.42C22.3667 556.913 25.6667 558.6 29.04 559.48C28.4533 564.76 26.62 570.187 23.54 575.76C17.9667 575.027 12.6867 572.093 7.7 566.96C2.56667 561.827 0 555.08 0 546.72C0 531.76 8.36 519.733 25.08 510.64C41.8 501.547 61.3067 497 83.6 497C105.893 497 122.76 500.74 134.2 508.22C145.64 515.553 151.36 526.993 151.36 542.54C151.36 562.927 143.22 578.327 126.94 588.74C118.14 594.46 107.58 597.32 95.26 597.32C87.4867 597.32 80.8133 596.147 75.24 593.8C69.08 618.88 65.34 638.973 64.02 654.08C55.3667 656.573 45.76 657.82 35.2 657.82C32.7067 657.82 30.8733 657.6 29.7 657.16C30.4333 647.92 34.54 628.707 42.02 599.52C49.6467 570.333 53.46 551.34 53.46 542.54Z" fill="black"/>
</svg>
