<svg width="37" height="24" viewBox="0 0 37 24" fill="none" xmlns="http://www.w3.org/2000/svg">
<path d="M36.775 0.625981C36.4323 0.138322 35.8496 -0.0970973 35.2669 0.0374294L1.1288 7.41958C0.528983 7.55411 0.1005 8.00814 0.0148121 8.59669C-0.070876 9.18525 0.220503 9.74017 0.75177 10.026L8.27516 13.9273V22.4193C8.27516 23.0415 8.61792 23.5796 9.2006 23.8487C9.42339 23.9496 9.64615 24 9.86894 24C10.2288 24 10.6059 23.8655 10.8972 23.6132L16.9982 18.4508L21.8482 20.9732C22.0538 21.074 22.2766 21.1245 22.5165 21.1245C22.9792 21.1245 23.4248 20.9227 23.699 20.5359L36.7408 2.20667C37.0835 1.73582 37.0835 1.11364 36.7579 0.625981H36.775ZM14.2905 14.8354L13.5364 15.3567C13.5364 15.3567 13.4507 15.4239 13.4336 15.4744L12.9366 16.332L10.2803 20.9059V12.8511L10.3831 12.8175L13.7421 11.6067L22.7736 8.36127L25.19 7.50366L14.2905 14.8522V14.8354Z" fill="#D8D8D8"/>
</svg>
