<svg width="166" height="23" viewBox="0 0 166 23" fill="none" xmlns="http://www.w3.org/2000/svg">
<path d="M17.736 8.936C17.144 11.176 16.136 12.992 14.712 14.384C13.288 15.76 11.608 16.648 9.672 17.048C10.296 17.528 10.992 17.768 11.76 17.768C12.16 17.768 12.512 17.688 12.816 17.528C13.136 17.384 13.448 17.192 13.752 16.952C13.784 16.92 13.872 16.856 14.016 16.76C14.16 16.648 14.288 16.592 14.4 16.592C14.544 16.592 14.672 16.752 14.784 17.072C14.912 17.408 14.976 17.816 14.976 18.296C14.976 18.776 14.912 19.232 14.784 19.664C14.544 20.496 14.112 21.144 13.488 21.608C12.88 22.072 12.112 22.304 11.184 22.304C9.2 22.304 7.808 21.096 7.008 18.68L6.528 17.264C4.784 17.136 3.416 16.6 2.424 15.656C1.448 14.696 0.96 13.384 0.96 11.72C0.96 10.904 1.096 9.976 1.368 8.936C1.832 7.16 2.56 5.656 3.552 4.424C4.56 3.176 5.752 2.24 7.128 1.616C8.52 0.975999 10.04 0.655999 11.688 0.655999C13.704 0.655999 15.28 1.136 16.416 2.096C17.552 3.04 18.12 4.408 18.12 6.2C18.12 7.048 17.992 7.96 17.736 8.936ZM11.4 9.104C12.024 6.896 12.336 5.344 12.336 4.448C12.336 3.936 12.248 3.568 12.072 3.344C11.896 3.12 11.624 3.008 11.256 3.008C10.776 3.008 10.344 3.2 9.96 3.584C9.576 3.968 9.192 4.6 8.808 5.48C8.44 6.344 8.04 7.552 7.608 9.104C6.968 11.344 6.648 12.888 6.648 13.736C6.648 14.232 6.736 14.592 6.912 14.816C7.088 15.04 7.368 15.152 7.752 15.152C8.232 15.152 8.664 14.96 9.048 14.576C9.432 14.176 9.808 13.544 10.176 12.68C10.544 11.816 10.952 10.624 11.4 9.104ZM32.2656 4.256C32.5696 3.152 32.9936 2.32 33.5376 1.76C34.0976 1.2 34.8656 0.92 35.8416 0.92C36.6096 0.92 37.2256 1.168 37.6896 1.664C38.1536 2.144 38.3856 2.744 38.3856 3.464C38.3856 3.704 38.3456 3.984 38.2656 4.304C38.0896 5.008 37.7776 5.52 37.3296 5.84C36.8816 6.144 36.3936 6.296 35.8656 6.296C35.5936 6.296 35.3456 6.28 35.1216 6.248C34.9136 6.2 34.7136 6.144 34.5216 6.08L33.1056 11.288C32.5936 13.192 31.7376 14.648 30.5376 15.656C29.3376 16.648 27.7056 17.144 25.6416 17.144C23.7536 17.144 22.2816 16.784 21.2256 16.064C20.1856 15.344 19.6656 14.224 19.6656 12.704C19.6656 11.968 19.7936 11.16 20.0496 10.28L21.8736 3.824C21.9376 3.616 21.9696 3.416 21.9696 3.224C21.9696 3.032 21.9376 2.88 21.8736 2.768C21.8256 2.64 21.7536 2.496 21.6576 2.336C21.5136 2.128 21.4416 1.96 21.4416 1.832C21.4416 1.768 21.4576 1.688 21.4896 1.592C21.5536 1.384 21.6976 1.24 21.9216 1.16C22.1456 1.064 22.4736 1.016 22.9056 1.016H28.5456C29.2336 1.016 29.5776 1.224 29.5776 1.64C29.5776 1.736 29.5696 1.816 29.5536 1.88C29.5056 2.024 29.4336 2.144 29.3376 2.24C29.2576 2.32 29.1296 2.416 28.9536 2.528C28.6976 2.672 28.4896 2.832 28.3296 3.008C28.1696 3.184 28.0336 3.456 27.9216 3.824L25.8336 11.168C25.6896 11.712 25.6176 12.176 25.6176 12.56C25.6176 13.632 26.1936 14.168 27.3456 14.168C28.0496 14.168 28.6336 13.944 29.0976 13.496C29.5776 13.032 29.9776 12.248 30.2976 11.144L32.2656 4.256ZM51.7189 1.016C52.3109 1.016 52.7669 1.144 53.0869 1.4C53.4229 1.656 53.5909 2.008 53.5909 2.456C53.5909 2.68 53.5589 2.896 53.4949 3.104L52.8709 5.336C52.7589 5.768 52.5909 6.072 52.3669 6.248C52.1589 6.408 51.8549 6.488 51.4549 6.488C51.0709 6.488 50.7669 6.408 50.5429 6.248C50.3349 6.072 50.1749 5.792 50.0629 5.408L49.6789 4.04C49.5989 3.752 49.5029 3.56 49.3909 3.464C49.2789 3.368 49.0629 3.32 48.7429 3.32H46.2229L45.0229 7.592H46.0789C46.1909 7.592 46.3429 7.512 46.5349 7.352L47.3509 6.632C47.5909 6.424 47.7989 6.272 47.9749 6.176C48.1509 6.08 48.3669 6.032 48.6229 6.032C48.9109 6.032 49.1429 6.112 49.3189 6.272C49.5109 6.416 49.6069 6.608 49.6069 6.848C49.6069 6.912 49.5909 7.008 49.5589 7.136L48.5749 10.472C48.4789 10.824 48.3109 11.088 48.0709 11.264C47.8469 11.424 47.5989 11.504 47.3269 11.504C46.8789 11.504 46.5429 11.272 46.3189 10.808L45.9109 9.968C45.7989 9.728 45.6229 9.608 45.3829 9.608H44.4469L43.0309 14.696H45.1429C45.4469 14.696 45.7109 14.64 45.9349 14.528C46.1749 14.4 46.4309 14.184 46.7029 13.88L48.1429 12.296C48.3989 12.024 48.6389 11.832 48.8629 11.72C49.1029 11.592 49.3909 11.528 49.7269 11.528C50.0789 11.528 50.3669 11.608 50.5909 11.768C50.8149 11.928 50.9269 12.168 50.9269 12.488C50.9269 12.616 50.9029 12.768 50.8549 12.944L50.1589 15.368C49.9829 15.976 49.7269 16.4 49.3909 16.64C49.0549 16.88 48.5669 17 47.9269 17H36.4789C36.1429 17 35.8869 16.944 35.7109 16.832C35.5189 16.72 35.4229 16.568 35.4229 16.376C35.4229 16.28 35.4469 16.176 35.4949 16.064C35.5589 15.888 35.6629 15.752 35.8069 15.656C35.9509 15.56 36.0389 15.504 36.0709 15.488C36.3269 15.328 36.5349 15.168 36.6949 15.008C36.8549 14.832 36.9909 14.552 37.1029 14.168L40.0549 3.824C40.1189 3.616 40.1509 3.424 40.1509 3.248C40.1509 3.056 40.1189 2.896 40.0549 2.768C40.0069 2.64 39.9269 2.504 39.8149 2.36C39.6709 2.152 39.5989 1.984 39.5989 1.856C39.5989 1.808 39.6149 1.72 39.6469 1.592C39.7109 1.384 39.8549 1.24 40.0789 1.16C40.3029 1.064 40.6309 1.016 41.0629 1.016H51.7189ZM70.4844 5.888C70.2284 6.816 69.7484 7.544 69.0444 8.072C68.3404 8.584 67.4524 8.904 66.3804 9.032C67.1484 9.096 67.7244 9.32 68.1084 9.704C68.4924 10.088 68.6844 10.592 68.6844 11.216C68.6844 11.456 68.6444 11.752 68.5644 12.104L68.3004 13.28C68.2684 13.44 68.2524 13.552 68.2524 13.616C68.2524 13.824 68.3004 13.984 68.3964 14.096C68.4924 14.192 68.6284 14.24 68.8044 14.24C69.1404 14.24 69.3804 14.288 69.5244 14.384C69.6844 14.48 69.7404 14.656 69.6924 14.912C69.6284 15.28 69.4364 15.64 69.1164 15.992C68.7964 16.344 68.3404 16.64 67.7484 16.88C67.1724 17.104 66.4684 17.216 65.6364 17.216C64.5804 17.216 63.7404 16.984 63.1164 16.52C62.4924 16.04 62.1804 15.36 62.1804 14.48C62.1804 14.144 62.2284 13.784 62.3244 13.4L62.7084 11.864C62.7724 11.656 62.8044 11.44 62.8044 11.216C62.8044 10.848 62.6764 10.584 62.4204 10.424C62.1804 10.264 61.7884 10.184 61.2444 10.184H60.3324L59.2284 14.168C59.1964 14.264 59.1804 14.384 59.1804 14.528C59.1804 14.752 59.2364 14.944 59.3484 15.104C59.4604 15.264 59.6124 15.432 59.8044 15.608C59.9484 15.72 60.0604 15.832 60.1404 15.944C60.2204 16.04 60.2604 16.144 60.2604 16.256C60.2604 16.528 60.1324 16.72 59.8764 16.832C59.6204 16.944 59.2444 17 58.7484 17H52.7244C52.3084 17 51.9964 16.928 51.7884 16.784C51.5804 16.624 51.5084 16.408 51.5724 16.136C51.6044 15.992 51.6684 15.88 51.7644 15.8C51.8444 15.704 51.9724 15.6 52.1484 15.488C52.4204 15.328 52.6364 15.16 52.7964 14.984C52.9564 14.808 53.0844 14.536 53.1804 14.168L56.1084 3.824C56.1724 3.616 56.2044 3.416 56.2044 3.224C56.2044 3.048 56.1724 2.904 56.1084 2.792C56.0604 2.664 55.9884 2.52 55.8924 2.36C55.7484 2.152 55.6764 1.984 55.6764 1.856C55.6764 1.808 55.6924 1.72 55.7244 1.592C55.7884 1.384 55.9244 1.24 56.1324 1.16C56.3564 1.064 56.6924 1.016 57.1404 1.016H65.1804C66.2844 1.016 67.2444 1.184 68.0604 1.52C68.8924 1.856 69.5244 2.32 69.9564 2.912C70.4044 3.488 70.6284 4.144 70.6284 4.88C70.6284 5.216 70.5804 5.552 70.4844 5.888ZM64.3404 5.648C64.4204 5.28 64.4604 5 64.4604 4.808C64.4604 3.96 63.9964 3.536 63.0684 3.536H62.0604L61.0044 7.784H62.0124C62.6364 7.784 63.1244 7.632 63.4764 7.328C63.8444 7.024 64.1324 6.464 64.3404 5.648ZM87.1208 0.92C87.8248 0.92 88.4008 1.152 88.8488 1.616C89.2968 2.064 89.5208 2.64 89.5208 3.344C89.5208 3.44 89.5048 3.616 89.4728 3.872C89.3448 4.64 89.0408 5.208 88.5608 5.576C88.0968 5.944 87.5528 6.128 86.9288 6.128C86.5128 6.128 86.1608 6.064 85.8728 5.936C85.5848 5.808 85.3128 5.592 85.0568 5.288L81.0968 10.448L79.9928 14.168C79.9608 14.264 79.9448 14.392 79.9448 14.552C79.9448 14.776 80.0008 14.968 80.1128 15.128C80.2248 15.272 80.3848 15.432 80.5928 15.608C80.7688 15.768 80.8968 15.904 80.9768 16.016C81.0568 16.128 81.0728 16.256 81.0248 16.4C80.9608 16.624 80.8008 16.784 80.5448 16.88C80.3048 16.96 79.9688 17 79.5368 17H73.4888C73.0728 17 72.7608 16.928 72.5528 16.784C72.3608 16.624 72.2968 16.408 72.3608 16.136C72.3928 15.992 72.4488 15.88 72.5288 15.8C72.6248 15.704 72.7688 15.592 72.9608 15.464C73.2008 15.32 73.4008 15.16 73.5608 14.984C73.7208 14.792 73.8568 14.52 73.9688 14.168L75.0728 10.424L72.8648 4.136C72.7048 3.672 72.5128 3.32 72.2888 3.08C72.0808 2.824 71.8328 2.576 71.5448 2.336C71.3688 2.208 71.2408 2.096 71.1608 2C71.0808 1.904 71.0408 1.792 71.0408 1.664C71.0408 1.472 71.1208 1.32 71.2808 1.208C71.4568 1.08 71.7048 1.016 72.0248 1.016H78.4328C78.9928 1.016 79.3768 1.064 79.5848 1.16C79.7928 1.256 79.9048 1.424 79.9208 1.664C79.9208 1.808 79.8888 1.936 79.8248 2.048C79.7608 2.144 79.6648 2.264 79.5368 2.408C79.3928 2.6 79.2808 2.76 79.2008 2.888C79.1368 3 79.1048 3.144 79.1048 3.32C79.1048 3.368 79.1208 3.472 79.1528 3.632L80.2568 7.856L83.3048 3.512C83.9608 2.584 84.5768 1.92 85.1528 1.52C85.7448 1.12 86.4008 0.92 87.1208 0.92ZM112.135 3.32C112.135 3.896 112.007 4.392 111.751 4.808C111.511 5.224 111.199 5.544 110.815 5.768C110.431 5.976 110.047 6.08 109.663 6.08C109.279 6.08 108.927 6 108.607 5.84C108.303 5.68 108.047 5.464 107.839 5.192L102.055 14.936C101.623 15.672 101.223 16.2 100.855 16.52C100.487 16.84 100.071 17 99.6069 17C99.1109 17 98.7109 16.84 98.4069 16.52C98.1189 16.184 97.9109 15.656 97.7829 14.936L95.7669 3.848C95.7189 3.56 95.6309 3.328 95.5029 3.152C95.3749 2.976 95.2069 2.784 94.9989 2.576C94.8389 2.432 94.7269 2.32 94.6629 2.24C94.5989 2.144 94.5669 2.032 94.5669 1.904C94.4869 1.312 94.8389 1.016 95.6229 1.016H101.623C101.991 1.016 102.271 1.096 102.463 1.256C102.655 1.4 102.743 1.6 102.727 1.856C102.727 2 102.695 2.12 102.631 2.216C102.583 2.312 102.495 2.432 102.367 2.576C102.223 2.736 102.111 2.888 102.031 3.032C101.951 3.176 101.911 3.352 101.911 3.56C101.911 3.656 101.919 3.736 101.935 3.8L102.847 9.392L106.039 3.728C106.599 2.704 107.151 1.984 107.695 1.568C108.239 1.136 108.911 0.92 109.711 0.92C110.447 0.92 111.031 1.136 111.463 1.568C111.911 1.984 112.135 2.568 112.135 3.32ZM119.969 1.016C120.305 1.016 120.561 1.072 120.737 1.184C120.929 1.28 121.025 1.424 121.025 1.616C121.025 1.696 121.001 1.8 120.953 1.928C120.905 2.04 120.833 2.144 120.737 2.24C120.657 2.32 120.577 2.384 120.497 2.432C120.433 2.464 120.385 2.496 120.353 2.528C120.097 2.672 119.889 2.832 119.729 3.008C119.569 3.184 119.433 3.456 119.321 3.824L116.417 14.168C116.353 14.376 116.321 14.576 116.321 14.768C116.321 14.96 116.345 15.12 116.393 15.248C116.457 15.376 116.545 15.512 116.657 15.656C116.801 15.864 116.873 16.032 116.873 16.16C116.873 16.192 116.857 16.272 116.825 16.4C116.761 16.624 116.617 16.784 116.393 16.88C116.169 16.96 115.833 17 115.385 17H109.745C109.409 17 109.152 16.944 108.976 16.832C108.784 16.72 108.688 16.568 108.688 16.376C108.688 16.28 108.712 16.176 108.76 16.064C108.824 15.888 108.928 15.752 109.072 15.656C109.216 15.56 109.304 15.504 109.337 15.488C109.593 15.328 109.801 15.168 109.961 15.008C110.121 14.832 110.257 14.552 110.369 14.168L113.297 3.824C113.361 3.616 113.393 3.416 113.393 3.224C113.393 3.048 113.361 2.904 113.297 2.792C113.249 2.664 113.177 2.52 113.081 2.36C112.937 2.152 112.865 1.984 112.865 1.856C112.865 1.808 112.881 1.72 112.913 1.592C112.977 1.384 113.113 1.24 113.321 1.16C113.545 1.064 113.881 1.016 114.329 1.016H119.969ZM135.414 1.016C136.006 1.016 136.462 1.144 136.782 1.4C137.118 1.656 137.286 2.008 137.286 2.456C137.286 2.68 137.254 2.896 137.19 3.104L136.566 5.336C136.454 5.768 136.286 6.072 136.062 6.248C135.854 6.408 135.55 6.488 135.15 6.488C134.766 6.488 134.462 6.408 134.238 6.248C134.03 6.072 133.87 5.792 133.758 5.408L133.374 4.04C133.294 3.752 133.198 3.56 133.086 3.464C132.974 3.368 132.758 3.32 132.438 3.32H129.918L128.718 7.592H129.774C129.886 7.592 130.038 7.512 130.23 7.352L131.046 6.632C131.286 6.424 131.494 6.272 131.67 6.176C131.846 6.08 132.062 6.032 132.318 6.032C132.606 6.032 132.838 6.112 133.014 6.272C133.206 6.416 133.302 6.608 133.302 6.848C133.302 6.912 133.286 7.008 133.254 7.136L132.27 10.472C132.174 10.824 132.006 11.088 131.766 11.264C131.542 11.424 131.294 11.504 131.022 11.504C130.574 11.504 130.238 11.272 130.014 10.808L129.606 9.968C129.494 9.728 129.318 9.608 129.078 9.608H128.142L126.726 14.696H128.838C129.142 14.696 129.406 14.64 129.63 14.528C129.87 14.4 130.126 14.184 130.398 13.88L131.838 12.296C132.094 12.024 132.334 11.832 132.558 11.72C132.798 11.592 133.086 11.528 133.422 11.528C133.774 11.528 134.062 11.608 134.286 11.768C134.51 11.928 134.622 12.168 134.622 12.488C134.622 12.616 134.598 12.768 134.55 12.944L133.854 15.368C133.678 15.976 133.422 16.4 133.086 16.64C132.75 16.88 132.262 17 131.622 17H120.174C119.838 17 119.582 16.944 119.406 16.832C119.214 16.72 119.118 16.568 119.118 16.376C119.118 16.28 119.142 16.176 119.19 16.064C119.254 15.888 119.358 15.752 119.502 15.656C119.646 15.56 119.734 15.504 119.766 15.488C120.022 15.328 120.23 15.168 120.39 15.008C120.55 14.832 120.686 14.552 120.798 14.168L123.75 3.824C123.814 3.616 123.846 3.424 123.846 3.248C123.846 3.056 123.814 2.896 123.75 2.768C123.702 2.64 123.622 2.504 123.51 2.36C123.366 2.152 123.294 1.984 123.294 1.856C123.294 1.808 123.31 1.72 123.342 1.592C123.406 1.384 123.55 1.24 123.774 1.16C123.998 1.064 124.326 1.016 124.758 1.016H135.414ZM165.964 3.32C165.964 3.896 165.828 4.4 165.556 4.832C165.284 5.248 164.94 5.568 164.524 5.792C164.124 6 163.732 6.104 163.348 6.104C162.98 6.104 162.628 6.016 162.292 5.84C161.972 5.648 161.764 5.432 161.668 5.192L155.836 14.936C155.388 15.688 154.98 16.224 154.612 16.544C154.26 16.848 153.852 17 153.388 17C152.316 17 151.708 16.312 151.564 14.936L150.796 7.88L145.948 14.936C145.388 15.752 144.932 16.304 144.58 16.592C144.244 16.864 143.852 17 143.404 17C142.428 17 141.836 16.232 141.628 14.696L140.092 3.848C140.044 3.528 139.948 3.272 139.804 3.08C139.676 2.888 139.508 2.704 139.3 2.528C139.156 2.4 139.052 2.296 138.988 2.216C138.924 2.12 138.892 2.016 138.892 1.904C138.812 1.312 139.164 1.016 139.948 1.016H145.924C146.292 1.016 146.564 1.096 146.74 1.256C146.932 1.4 147.02 1.6 147.004 1.856C147.004 1.984 146.964 2.112 146.884 2.24C146.82 2.352 146.748 2.456 146.668 2.552C146.492 2.744 146.364 2.928 146.284 3.104C146.204 3.28 146.18 3.512 146.212 3.8L146.836 9.584L150.436 4.424L150.364 3.848C150.332 3.544 150.252 3.296 150.124 3.104C149.996 2.912 149.82 2.728 149.596 2.552C149.436 2.408 149.324 2.296 149.26 2.216C149.196 2.12 149.164 2.016 149.164 1.904C149.084 1.312 149.436 1.016 150.22 1.016H156.22C156.588 1.016 156.868 1.096 157.06 1.256C157.252 1.4 157.34 1.6 157.324 1.856C157.324 2.064 157.212 2.296 156.988 2.552C156.828 2.744 156.708 2.928 156.628 3.104C156.548 3.28 156.516 3.512 156.532 3.8L156.82 9.032L160.06 3.368C160.588 2.456 161.1 1.824 161.596 1.472C162.092 1.104 162.74 0.92 163.54 0.92C164.26 0.92 164.844 1.136 165.292 1.568C165.74 2 165.964 2.584 165.964 3.32Z" fill="#0E5649"/>
</svg>
