<svg width="183" height="18" viewBox="0 0 183 18" fill="none" xmlns="http://www.w3.org/2000/svg">
<path d="M19.336 5.888C19.08 6.816 18.6 7.544 17.896 8.072C17.192 8.584 16.304 8.904 15.232 9.032C16 9.096 16.576 9.32 16.96 9.704C17.344 10.088 17.536 10.592 17.536 11.216C17.536 11.456 17.496 11.752 17.416 12.104L17.152 13.28C17.12 13.44 17.104 13.552 17.104 13.616C17.104 13.824 17.152 13.984 17.248 14.096C17.344 14.192 17.48 14.24 17.656 14.24C17.992 14.24 18.232 14.288 18.376 14.384C18.536 14.48 18.592 14.656 18.544 14.912C18.48 15.28 18.288 15.64 17.968 15.992C17.648 16.344 17.192 16.64 16.6 16.88C16.024 17.104 15.32 17.216 14.488 17.216C13.432 17.216 12.592 16.984 11.968 16.52C11.344 16.04 11.032 15.36 11.032 14.48C11.032 14.144 11.08 13.784 11.176 13.4L11.56 11.864C11.624 11.656 11.656 11.44 11.656 11.216C11.656 10.848 11.528 10.584 11.272 10.424C11.032 10.264 10.64 10.184 10.096 10.184H9.184L8.08 14.168C8.048 14.264 8.032 14.384 8.032 14.528C8.032 14.752 8.088 14.944 8.2 15.104C8.312 15.264 8.464 15.432 8.656 15.608C8.8 15.72 8.912 15.832 8.992 15.944C9.072 16.04 9.112 16.144 9.112 16.256C9.112 16.528 8.984 16.72 8.728 16.832C8.472 16.944 8.096 17 7.6 17H1.576C1.16 17 0.848 16.928 0.64 16.784C0.432 16.624 0.36 16.408 0.424 16.136C0.456 15.992 0.52 15.88 0.616 15.8C0.696 15.704 0.824 15.6 1 15.488C1.272 15.328 1.488 15.16 1.648 14.984C1.808 14.808 1.936 14.536 2.032 14.168L4.96 3.824C5.024 3.616 5.056 3.416 5.056 3.224C5.056 3.048 5.024 2.904 4.96 2.792C4.912 2.664 4.84 2.52 4.744 2.36C4.6 2.152 4.528 1.984 4.528 1.856C4.528 1.808 4.544 1.72 4.576 1.592C4.64 1.384 4.776 1.24 4.984 1.16C5.208 1.064 5.544 1.016 5.992 1.016H14.032C15.136 1.016 16.096 1.184 16.912 1.52C17.744 1.856 18.376 2.32 18.808 2.912C19.256 3.488 19.48 4.144 19.48 4.88C19.48 5.216 19.432 5.552 19.336 5.888ZM13.192 5.648C13.272 5.28 13.312 5 13.312 4.808C13.312 3.96 12.848 3.536 11.92 3.536H10.912L9.856 7.784H10.864C11.488 7.784 11.976 7.632 12.328 7.328C12.696 7.024 12.984 6.464 13.192 5.648ZM34.8829 1.016C35.4749 1.016 35.9309 1.144 36.2509 1.4C36.5869 1.656 36.7549 2.008 36.7549 2.456C36.7549 2.68 36.7229 2.896 36.6589 3.104L36.0349 5.336C35.9229 5.768 35.7549 6.072 35.5309 6.248C35.3229 6.408 35.0189 6.488 34.6189 6.488C34.2349 6.488 33.9309 6.408 33.7069 6.248C33.4989 6.072 33.3389 5.792 33.2269 5.408L32.8429 4.04C32.7629 3.752 32.6669 3.56 32.5549 3.464C32.4429 3.368 32.2269 3.32 31.9069 3.32H29.3869L28.1869 7.592H29.2429C29.3549 7.592 29.5069 7.512 29.6989 7.352L30.5149 6.632C30.7549 6.424 30.9629 6.272 31.1389 6.176C31.3149 6.08 31.5309 6.032 31.7869 6.032C32.0749 6.032 32.3069 6.112 32.4829 6.272C32.6749 6.416 32.7709 6.608 32.7709 6.848C32.7709 6.912 32.7549 7.008 32.7229 7.136L31.7389 10.472C31.6429 10.824 31.4749 11.088 31.2349 11.264C31.0109 11.424 30.7629 11.504 30.4909 11.504C30.0429 11.504 29.7069 11.272 29.4829 10.808L29.0749 9.968C28.9629 9.728 28.7869 9.608 28.5469 9.608H27.6109L26.1949 14.696H28.3069C28.6109 14.696 28.8749 14.64 29.0989 14.528C29.3389 14.4 29.5949 14.184 29.8669 13.88L31.3069 12.296C31.5629 12.024 31.8029 11.832 32.0269 11.72C32.2669 11.592 32.5549 11.528 32.8909 11.528C33.2429 11.528 33.5309 11.608 33.7549 11.768C33.9789 11.928 34.0909 12.168 34.0909 12.488C34.0909 12.616 34.0669 12.768 34.0189 12.944L33.3229 15.368C33.1469 15.976 32.8909 16.4 32.5549 16.64C32.2189 16.88 31.7309 17 31.0909 17H19.6429C19.3069 17 19.0509 16.944 18.8749 16.832C18.6829 16.72 18.5869 16.568 18.5869 16.376C18.5869 16.28 18.6109 16.176 18.6589 16.064C18.7229 15.888 18.8269 15.752 18.9709 15.656C19.1149 15.56 19.2029 15.504 19.2349 15.488C19.4909 15.328 19.6989 15.168 19.8589 15.008C20.0189 14.832 20.1549 14.552 20.2669 14.168L23.2189 3.824C23.2829 3.616 23.3149 3.424 23.3149 3.248C23.3149 3.056 23.2829 2.896 23.2189 2.768C23.1709 2.64 23.0909 2.504 22.9789 2.36C22.8349 2.152 22.7629 1.984 22.7629 1.856C22.7629 1.808 22.7789 1.72 22.8109 1.592C22.8749 1.384 23.0189 1.24 23.2429 1.16C23.4669 1.064 23.7949 1.016 24.2269 1.016H34.8829ZM43.6645 17.144C42.3205 17.144 41.1125 16.896 40.0405 16.4C38.9685 15.904 38.1125 15.176 37.4725 14.216C36.8485 13.24 36.5365 12.064 36.5365 10.688C36.5365 9.728 36.7045 8.688 37.0405 7.568C37.7765 5.168 38.8885 3.44 40.3765 2.384C41.8645 1.312 43.4565 0.775999 45.1525 0.775999C46.0645 0.775999 46.8725 0.911999 47.5765 1.184C48.2805 1.456 48.9285 1.848 49.5205 2.36L50.1685 1.856C50.6005 1.52 50.9605 1.288 51.2485 1.16C51.5525 1.032 51.8885 0.967999 52.2565 0.967999C52.6565 0.967999 52.9765 1.056 53.2165 1.232C53.4565 1.408 53.5765 1.664 53.5765 2C53.5765 2.176 53.5445 2.352 53.4805 2.528L52.1365 6.272C51.9925 6.704 51.8165 7.008 51.6085 7.184C51.4165 7.36 51.1205 7.448 50.7205 7.448C50.3045 7.448 49.9605 7.304 49.6885 7.016C49.4325 6.712 49.1365 6.2 48.8005 5.48C48.4165 4.728 48.1045 4.232 47.8645 3.992C47.6245 3.752 47.2725 3.632 46.8085 3.632C46.1525 3.632 45.5205 4.04 44.9125 4.856C44.3045 5.656 43.7525 6.864 43.2565 8.48C42.8405 9.84 42.6325 10.976 42.6325 11.888C42.6325 12.688 42.7845 13.288 43.0885 13.688C43.3925 14.072 43.8005 14.264 44.3125 14.264C45.0645 14.264 45.6805 14.096 46.1605 13.76C46.6565 13.424 47.1605 12.968 47.6725 12.392C47.9925 12.04 48.2485 11.784 48.4405 11.624C48.6485 11.448 48.8645 11.36 49.0885 11.36C49.3765 11.36 49.6805 11.504 50.0005 11.792C50.3205 12.08 50.4725 12.368 50.4565 12.656C50.4725 13.008 50.1845 13.552 49.5925 14.288C49.0165 15.024 48.2085 15.688 47.1685 16.28C46.1445 16.856 44.9765 17.144 43.6645 17.144ZM67.3673 1.016C67.9593 1.016 68.4153 1.144 68.7353 1.4C69.0713 1.656 69.2393 2.008 69.2393 2.456C69.2393 2.68 69.2073 2.896 69.1433 3.104L68.5193 5.336C68.4073 5.768 68.2393 6.072 68.0153 6.248C67.8073 6.408 67.5033 6.488 67.1033 6.488C66.7193 6.488 66.4153 6.408 66.1913 6.248C65.9833 6.072 65.8233 5.792 65.7113 5.408L65.3273 4.04C65.2473 3.752 65.1513 3.56 65.0393 3.464C64.9273 3.368 64.7113 3.32 64.3913 3.32H61.8713L60.6713 7.592H61.7273C61.8393 7.592 61.9913 7.512 62.1833 7.352L62.9993 6.632C63.2393 6.424 63.4473 6.272 63.6233 6.176C63.7993 6.08 64.0153 6.032 64.2713 6.032C64.5593 6.032 64.7913 6.112 64.9673 6.272C65.1593 6.416 65.2553 6.608 65.2553 6.848C65.2553 6.912 65.2393 7.008 65.2073 7.136L64.2233 10.472C64.1273 10.824 63.9593 11.088 63.7193 11.264C63.4953 11.424 63.2473 11.504 62.9753 11.504C62.5273 11.504 62.1913 11.272 61.9673 10.808L61.5593 9.968C61.4473 9.728 61.2713 9.608 61.0313 9.608H60.0953L58.6793 14.696H60.7913C61.0953 14.696 61.3593 14.64 61.5833 14.528C61.8233 14.4 62.0793 14.184 62.3513 13.88L63.7913 12.296C64.0473 12.024 64.2873 11.832 64.5113 11.72C64.7513 11.592 65.0393 11.528 65.3753 11.528C65.7273 11.528 66.0153 11.608 66.2393 11.768C66.4633 11.928 66.5753 12.168 66.5753 12.488C66.5753 12.616 66.5513 12.768 66.5033 12.944L65.8073 15.368C65.6313 15.976 65.3753 16.4 65.0393 16.64C64.7033 16.88 64.2153 17 63.5753 17H52.1273C51.7913 17 51.5353 16.944 51.3593 16.832C51.1673 16.72 51.0713 16.568 51.0713 16.376C51.0713 16.28 51.0953 16.176 51.1433 16.064C51.2073 15.888 51.3113 15.752 51.4553 15.656C51.5993 15.56 51.6873 15.504 51.7193 15.488C51.9753 15.328 52.1833 15.168 52.3433 15.008C52.5033 14.832 52.6393 14.552 52.7513 14.168L55.7033 3.824C55.7673 3.616 55.7993 3.424 55.7993 3.248C55.7993 3.056 55.7673 2.896 55.7033 2.768C55.6553 2.64 55.5753 2.504 55.4633 2.36C55.3193 2.152 55.2473 1.984 55.2473 1.856C55.2473 1.808 55.2633 1.72 55.2953 1.592C55.3593 1.384 55.5033 1.24 55.7273 1.16C55.9513 1.064 56.2793 1.016 56.7113 1.016H67.3673ZM86.2585 1.016C86.9145 1.016 87.2425 1.224 87.2425 1.64C87.2425 1.752 87.2345 1.832 87.2185 1.88C87.1705 2.04 87.0985 2.168 87.0025 2.264C86.9065 2.344 86.7705 2.44 86.5945 2.552C86.3545 2.696 86.1545 2.856 85.9945 3.032C85.8345 3.208 85.6985 3.48 85.5865 3.848L82.6105 14.504C82.3385 15.464 81.9945 16.136 81.5785 16.52C81.1785 16.904 80.6185 17.096 79.8985 17.096C79.2585 17.096 78.7225 16.912 78.2905 16.544C77.8745 16.16 77.4825 15.576 77.1145 14.792L73.4905 7.16L71.4745 14.168C71.4265 14.376 71.4025 14.56 71.4025 14.72C71.4025 14.928 71.4345 15.104 71.4985 15.248C71.5785 15.376 71.6825 15.512 71.8105 15.656C71.9865 15.864 72.0745 16.04 72.0745 16.184C72.0745 16.28 72.0665 16.352 72.0505 16.4C71.9865 16.624 71.8425 16.784 71.6185 16.88C71.3945 16.96 71.0585 17 70.6105 17H67.9945C67.3385 17 67.0105 16.792 67.0105 16.376C67.0105 16.264 67.0185 16.184 67.0345 16.136C67.0825 15.976 67.1545 15.856 67.2505 15.776C67.3465 15.68 67.4825 15.576 67.6585 15.464C67.8985 15.32 68.0985 15.16 68.2585 14.984C68.4185 14.808 68.5545 14.536 68.6665 14.168L71.7145 3.392L71.3305 2.6C71.1705 2.28 71.0905 2 71.0905 1.76C71.0905 1.264 71.4105 1.016 72.0505 1.016H75.6025C76.1145 1.016 76.4985 1.136 76.7545 1.376C77.0265 1.6 77.3145 2.008 77.6185 2.6L81.1225 9.632L82.7785 3.848C82.8265 3.624 82.8505 3.44 82.8505 3.296C82.8505 3.088 82.8105 2.92 82.7305 2.792C82.6665 2.648 82.5705 2.504 82.4425 2.36C82.2665 2.152 82.1785 1.976 82.1785 1.832C82.1785 1.736 82.1865 1.664 82.2025 1.616C82.2665 1.392 82.4105 1.24 82.6345 1.16C82.8585 1.064 83.1945 1.016 83.6425 1.016H86.2585ZM104.224 1.016C105.104 1.016 105.544 1.376 105.544 2.096C105.544 2.32 105.496 2.6 105.4 2.936L104.824 4.88C104.648 5.472 104.432 5.888 104.176 6.128C103.92 6.368 103.552 6.488 103.072 6.488C102.672 6.488 102.36 6.384 102.136 6.176C101.928 5.968 101.728 5.64 101.536 5.192L101.128 4.208C101 3.904 100.864 3.696 100.72 3.584C100.576 3.472 100.352 3.416 100.048 3.416H99.496L96.448 14.144C96.4 14.352 96.376 14.536 96.376 14.696C96.376 14.888 96.4 15.048 96.448 15.176C96.512 15.304 96.6 15.44 96.712 15.584C96.856 15.808 96.928 15.992 96.928 16.136C96.928 16.168 96.912 16.248 96.88 16.376C96.8 16.584 96.64 16.736 96.4 16.832C96.176 16.928 95.848 16.976 95.416 16.976H89.776C89.44 16.976 89.176 16.92 88.984 16.808C88.808 16.696 88.72 16.536 88.72 16.328C88.72 16.232 88.744 16.136 88.792 16.04C88.856 15.896 88.928 15.792 89.008 15.728C89.104 15.648 89.24 15.552 89.416 15.44C89.656 15.296 89.856 15.136 90.016 14.96C90.176 14.784 90.312 14.512 90.424 14.144L93.448 3.416H92.896C92.544 3.416 92.256 3.472 92.032 3.584C91.808 3.696 91.568 3.904 91.312 4.208L90.52 5.192C90.152 5.624 89.792 5.952 89.44 6.176C89.104 6.384 88.736 6.488 88.336 6.488C87.968 6.488 87.68 6.392 87.472 6.2C87.264 6.008 87.16 5.744 87.16 5.408C87.16 5.248 87.184 5.072 87.232 4.88L87.856 2.696C87.984 2.248 88.128 1.912 88.288 1.688C88.448 1.448 88.672 1.28 88.96 1.184C89.264 1.072 89.688 1.016 90.232 1.016H104.224ZM128.44 3.32C128.44 3.896 128.312 4.392 128.056 4.808C127.816 5.224 127.504 5.544 127.12 5.768C126.736 5.976 126.352 6.08 125.968 6.08C125.584 6.08 125.232 6 124.912 5.84C124.608 5.68 124.352 5.464 124.144 5.192L118.36 14.936C117.928 15.672 117.528 16.2 117.16 16.52C116.792 16.84 116.376 17 115.912 17C115.416 17 115.016 16.84 114.712 16.52C114.424 16.184 114.216 15.656 114.088 14.936L112.072 3.848C112.024 3.56 111.936 3.328 111.808 3.152C111.68 2.976 111.512 2.784 111.304 2.576C111.144 2.432 111.032 2.32 110.968 2.24C110.904 2.144 110.872 2.032 110.872 1.904C110.792 1.312 111.144 1.016 111.928 1.016H117.928C118.296 1.016 118.576 1.096 118.768 1.256C118.96 1.4 119.048 1.6 119.032 1.856C119.032 2 119 2.12 118.936 2.216C118.888 2.312 118.8 2.432 118.672 2.576C118.528 2.736 118.416 2.888 118.336 3.032C118.256 3.176 118.216 3.352 118.216 3.56C118.216 3.656 118.224 3.736 118.24 3.8L119.152 9.392L122.344 3.728C122.904 2.704 123.456 1.984 124 1.568C124.544 1.136 125.216 0.92 126.016 0.92C126.752 0.92 127.336 1.136 127.768 1.568C128.216 1.984 128.44 2.568 128.44 3.32ZM136.273 1.016C136.609 1.016 136.865 1.072 137.041 1.184C137.233 1.28 137.329 1.424 137.329 1.616C137.329 1.696 137.305 1.8 137.257 1.928C137.209 2.04 137.137 2.144 137.041 2.24C136.961 2.32 136.881 2.384 136.801 2.432C136.737 2.464 136.689 2.496 136.657 2.528C136.401 2.672 136.193 2.832 136.033 3.008C135.873 3.184 135.737 3.456 135.625 3.824L132.721 14.168C132.657 14.376 132.625 14.576 132.625 14.768C132.625 14.96 132.649 15.12 132.697 15.248C132.761 15.376 132.849 15.512 132.961 15.656C133.105 15.864 133.177 16.032 133.177 16.16C133.177 16.192 133.161 16.272 133.129 16.4C133.065 16.624 132.921 16.784 132.697 16.88C132.473 16.96 132.137 17 131.689 17H126.049C125.713 17 125.457 16.944 125.281 16.832C125.089 16.72 124.993 16.568 124.993 16.376C124.993 16.28 125.017 16.176 125.065 16.064C125.129 15.888 125.233 15.752 125.377 15.656C125.521 15.56 125.609 15.504 125.641 15.488C125.897 15.328 126.105 15.168 126.265 15.008C126.425 14.832 126.561 14.552 126.673 14.168L129.601 3.824C129.665 3.616 129.697 3.416 129.697 3.224C129.697 3.048 129.665 2.904 129.601 2.792C129.553 2.664 129.481 2.52 129.385 2.36C129.241 2.152 129.169 1.984 129.169 1.856C129.169 1.808 129.185 1.72 129.217 1.592C129.281 1.384 129.417 1.24 129.625 1.16C129.849 1.064 130.185 1.016 130.633 1.016H136.273ZM151.719 1.016C152.311 1.016 152.767 1.144 153.087 1.4C153.423 1.656 153.591 2.008 153.591 2.456C153.591 2.68 153.559 2.896 153.495 3.104L152.871 5.336C152.759 5.768 152.591 6.072 152.367 6.248C152.159 6.408 151.855 6.488 151.455 6.488C151.071 6.488 150.767 6.408 150.543 6.248C150.335 6.072 150.175 5.792 150.063 5.408L149.679 4.04C149.599 3.752 149.503 3.56 149.391 3.464C149.279 3.368 149.063 3.32 148.743 3.32H146.223L145.023 7.592H146.079C146.191 7.592 146.343 7.512 146.535 7.352L147.351 6.632C147.591 6.424 147.799 6.272 147.975 6.176C148.151 6.08 148.367 6.032 148.623 6.032C148.911 6.032 149.143 6.112 149.319 6.272C149.511 6.416 149.607 6.608 149.607 6.848C149.607 6.912 149.591 7.008 149.559 7.136L148.575 10.472C148.479 10.824 148.311 11.088 148.071 11.264C147.847 11.424 147.599 11.504 147.327 11.504C146.879 11.504 146.543 11.272 146.319 10.808L145.911 9.968C145.799 9.728 145.623 9.608 145.383 9.608H144.447L143.031 14.696H145.143C145.447 14.696 145.711 14.64 145.935 14.528C146.175 14.4 146.431 14.184 146.703 13.88L148.143 12.296C148.399 12.024 148.639 11.832 148.863 11.72C149.103 11.592 149.391 11.528 149.727 11.528C150.079 11.528 150.367 11.608 150.591 11.768C150.815 11.928 150.927 12.168 150.927 12.488C150.927 12.616 150.903 12.768 150.855 12.944L150.159 15.368C149.983 15.976 149.727 16.4 149.391 16.64C149.055 16.88 148.567 17 147.927 17H136.479C136.143 17 135.887 16.944 135.711 16.832C135.519 16.72 135.423 16.568 135.423 16.376C135.423 16.28 135.447 16.176 135.495 16.064C135.559 15.888 135.663 15.752 135.807 15.656C135.951 15.56 136.039 15.504 136.071 15.488C136.327 15.328 136.535 15.168 136.695 15.008C136.855 14.832 136.991 14.552 137.103 14.168L140.055 3.824C140.119 3.616 140.151 3.424 140.151 3.248C140.151 3.056 140.119 2.896 140.055 2.768C140.007 2.64 139.927 2.504 139.815 2.36C139.671 2.152 139.599 1.984 139.599 1.856C139.599 1.808 139.615 1.72 139.647 1.592C139.711 1.384 139.855 1.24 140.079 1.16C140.303 1.064 140.631 1.016 141.063 1.016H151.719ZM182.268 3.32C182.268 3.896 182.132 4.4 181.86 4.832C181.588 5.248 181.244 5.568 180.828 5.792C180.428 6 180.036 6.104 179.652 6.104C179.284 6.104 178.932 6.016 178.596 5.84C178.276 5.648 178.068 5.432 177.972 5.192L172.14 14.936C171.692 15.688 171.284 16.224 170.916 16.544C170.564 16.848 170.156 17 169.692 17C168.62 17 168.012 16.312 167.868 14.936L167.1 7.88L162.252 14.936C161.692 15.752 161.236 16.304 160.884 16.592C160.548 16.864 160.156 17 159.708 17C158.732 17 158.14 16.232 157.932 14.696L156.396 3.848C156.348 3.528 156.252 3.272 156.108 3.08C155.98 2.888 155.812 2.704 155.604 2.528C155.46 2.4 155.356 2.296 155.292 2.216C155.228 2.12 155.196 2.016 155.196 1.904C155.116 1.312 155.468 1.016 156.252 1.016H162.228C162.596 1.016 162.868 1.096 163.044 1.256C163.236 1.4 163.324 1.6 163.308 1.856C163.308 1.984 163.268 2.112 163.188 2.24C163.124 2.352 163.052 2.456 162.972 2.552C162.796 2.744 162.668 2.928 162.588 3.104C162.508 3.28 162.484 3.512 162.516 3.8L163.14 9.584L166.74 4.424L166.668 3.848C166.636 3.544 166.556 3.296 166.428 3.104C166.3 2.912 166.124 2.728 165.9 2.552C165.74 2.408 165.628 2.296 165.564 2.216C165.5 2.12 165.468 2.016 165.468 1.904C165.388 1.312 165.74 1.016 166.524 1.016H172.524C172.892 1.016 173.172 1.096 173.364 1.256C173.556 1.4 173.644 1.6 173.628 1.856C173.628 2.064 173.516 2.296 173.292 2.552C173.132 2.744 173.012 2.928 172.932 3.104C172.852 3.28 172.82 3.512 172.836 3.8L173.124 9.032L176.364 3.368C176.892 2.456 177.404 1.824 177.9 1.472C178.396 1.104 179.044 0.92 179.844 0.92C180.564 0.92 181.148 1.136 181.596 1.568C182.044 2 182.268 2.584 182.268 3.32Z" fill="#0E5649"/>
</svg>
