<svg width="247" height="18" viewBox="0 0 247 18" fill="none" xmlns="http://www.w3.org/2000/svg">
<path d="M9.976 0.871999C10.872 0.871999 11.696 0.983999 12.448 1.208C13.216 1.416 13.992 1.752 14.776 2.216L15.328 1.76C15.712 1.456 16.024 1.248 16.264 1.136C16.52 1.024 16.808 0.967999 17.128 0.967999C17.512 0.967999 17.816 1.056 18.04 1.232C18.264 1.392 18.376 1.632 18.376 1.952C18.376 2.08 18.352 2.216 18.304 2.36L17.296 5.672C17.184 6.056 17.04 6.328 16.864 6.488C16.704 6.648 16.456 6.728 16.12 6.728C15.768 6.728 15.456 6.624 15.184 6.416C14.928 6.192 14.52 5.744 13.96 5.072C13.4 4.432 12.888 3.984 12.424 3.728C11.976 3.456 11.512 3.32 11.032 3.32C10.68 3.32 10.384 3.44 10.144 3.68C9.904 3.904 9.784 4.184 9.784 4.52C9.784 4.904 9.976 5.264 10.36 5.6C10.744 5.92 11.344 6.328 12.16 6.824C12.992 7.32 13.68 7.768 14.224 8.168C14.768 8.568 15.232 9.064 15.616 9.656C16 10.248 16.192 10.928 16.192 11.696C16.192 12.192 16.112 12.688 15.952 13.184C15.568 14.464 14.824 15.44 13.72 16.112C12.616 16.768 11.328 17.096 9.856 17.096C8.752 17.096 7.824 16.968 7.072 16.712C6.32 16.456 5.552 16.024 4.768 15.416L3.904 16.136C3.504 16.472 3.176 16.704 2.92 16.832C2.664 16.944 2.376 17 2.056 17C1.688 17 1.392 16.912 1.168 16.736C0.96 16.56 0.856 16.32 0.856 16.016C0.856 15.856 0.888 15.688 0.952 15.512L2.128 11.936C2.256 11.52 2.432 11.224 2.656 11.048C2.88 10.872 3.168 10.784 3.52 10.784C3.888 10.784 4.216 10.912 4.504 11.168C4.808 11.424 5.2 11.888 5.68 12.56C6.192 13.296 6.664 13.808 7.096 14.096C7.544 14.384 8.072 14.528 8.68 14.528C9.112 14.528 9.44 14.464 9.664 14.336C9.904 14.192 10.072 13.968 10.168 13.664C10.2 13.584 10.216 13.464 10.216 13.304C10.216 12.92 10.032 12.568 9.664 12.248C9.296 11.928 8.728 11.544 7.96 11.096C7.144 10.6 6.48 10.16 5.968 9.776C5.456 9.376 5.008 8.88 4.624 8.288C4.256 7.696 4.072 7 4.072 6.2C4.072 5.64 4.16 5.088 4.336 4.544C4.672 3.44 5.36 2.552 6.4 1.88C7.44 1.208 8.632 0.871999 9.976 0.871999ZM32.2109 4.256C32.5149 3.152 32.9389 2.32 33.4829 1.76C34.0429 1.2 34.8109 0.92 35.7869 0.92C36.5549 0.92 37.1709 1.168 37.6349 1.664C38.0989 2.144 38.3309 2.744 38.3309 3.464C38.3309 3.704 38.2909 3.984 38.2109 4.304C38.0349 5.008 37.7229 5.52 37.2749 5.84C36.8269 6.144 36.3389 6.296 35.8109 6.296C35.5389 6.296 35.2909 6.28 35.0669 6.248C34.8589 6.2 34.6589 6.144 34.4669 6.08L33.0509 11.288C32.5389 13.192 31.6829 14.648 30.4829 15.656C29.2829 16.648 27.6509 17.144 25.5869 17.144C23.6989 17.144 22.2269 16.784 21.1709 16.064C20.1309 15.344 19.6109 14.224 19.6109 12.704C19.6109 11.968 19.7389 11.16 19.9949 10.28L21.8189 3.824C21.8829 3.616 21.9149 3.416 21.9149 3.224C21.9149 3.032 21.8829 2.88 21.8189 2.768C21.7709 2.64 21.6989 2.496 21.6029 2.336C21.4589 2.128 21.3869 1.96 21.3869 1.832C21.3869 1.768 21.4029 1.688 21.4349 1.592C21.4989 1.384 21.6429 1.24 21.8669 1.16C22.0909 1.064 22.4189 1.016 22.8509 1.016H28.4909C29.1789 1.016 29.5229 1.224 29.5229 1.64C29.5229 1.736 29.5149 1.816 29.4989 1.88C29.4509 2.024 29.3789 2.144 29.2829 2.24C29.2029 2.32 29.0749 2.416 28.8989 2.528C28.6429 2.672 28.4349 2.832 28.2749 3.008C28.1149 3.184 27.9789 3.456 27.8669 3.824L25.7789 11.168C25.6349 11.712 25.5629 12.176 25.5629 12.56C25.5629 13.632 26.1389 14.168 27.2909 14.168C27.9949 14.168 28.5789 13.944 29.0429 13.496C29.5229 13.032 29.9229 12.248 30.2429 11.144L32.2109 4.256ZM49.6002 1.016C50.6882 1.016 51.6322 1.184 52.4322 1.52C53.2482 1.84 53.8642 2.288 54.2802 2.864C54.7122 3.424 54.9282 4.072 54.9282 4.808C54.9282 5.224 54.8722 5.608 54.7602 5.96C54.2962 7.576 52.9602 8.6 50.7522 9.032C51.5202 9.256 52.1282 9.632 52.5762 10.16C53.0242 10.672 53.2482 11.312 53.2482 12.08C53.2482 12.432 53.1842 12.848 53.0562 13.328C52.7042 14.576 51.9922 15.504 50.9202 16.112C49.8642 16.704 48.3602 17 46.4082 17H36.4242C36.0882 17 35.8322 16.944 35.6562 16.832C35.4642 16.72 35.3682 16.568 35.3682 16.376C35.3682 16.28 35.3922 16.176 35.4402 16.064C35.5042 15.888 35.6082 15.752 35.7522 15.656C35.8962 15.56 35.9842 15.504 36.0162 15.488C36.2722 15.328 36.4802 15.168 36.6402 15.008C36.8002 14.832 36.9362 14.552 37.0482 14.168L39.9762 3.824C40.0402 3.616 40.0722 3.416 40.0722 3.224C40.0722 3.048 40.0402 2.904 39.9762 2.792C39.9282 2.664 39.8562 2.52 39.7602 2.36C39.6162 2.152 39.5442 1.984 39.5442 1.856C39.5442 1.808 39.5602 1.72 39.5922 1.592C39.6562 1.384 39.7922 1.24 40.0002 1.16C40.2242 1.064 40.5602 1.016 41.0082 1.016H49.6002ZM48.5202 5.408C48.6322 5.056 48.6882 4.728 48.6882 4.424C48.6882 3.592 48.2162 3.176 47.2722 3.176H46.1922L44.9202 7.664H45.9762C46.6482 7.664 47.1762 7.504 47.5602 7.184C47.9602 6.848 48.2802 6.256 48.5202 5.408ZM46.7682 12.464C46.8802 12.08 46.9362 11.728 46.9362 11.408C46.9362 10.544 46.4402 10.112 45.4482 10.112H44.2482L42.8802 14.84H44.1042C44.7922 14.84 45.3442 14.672 45.7602 14.336C46.1762 13.984 46.5122 13.36 46.7682 12.464ZM63.226 0.871999C64.122 0.871999 64.946 0.983999 65.698 1.208C66.466 1.416 67.242 1.752 68.026 2.216L68.578 1.76C68.962 1.456 69.274 1.248 69.514 1.136C69.77 1.024 70.058 0.967999 70.378 0.967999C70.762 0.967999 71.066 1.056 71.29 1.232C71.514 1.392 71.626 1.632 71.626 1.952C71.626 2.08 71.602 2.216 71.554 2.36L70.546 5.672C70.434 6.056 70.29 6.328 70.114 6.488C69.954 6.648 69.706 6.728 69.37 6.728C69.018 6.728 68.706 6.624 68.434 6.416C68.178 6.192 67.77 5.744 67.21 5.072C66.65 4.432 66.138 3.984 65.674 3.728C65.226 3.456 64.762 3.32 64.282 3.32C63.93 3.32 63.634 3.44 63.394 3.68C63.154 3.904 63.034 4.184 63.034 4.52C63.034 4.904 63.226 5.264 63.61 5.6C63.994 5.92 64.594 6.328 65.41 6.824C66.242 7.32 66.93 7.768 67.474 8.168C68.018 8.568 68.482 9.064 68.866 9.656C69.25 10.248 69.442 10.928 69.442 11.696C69.442 12.192 69.362 12.688 69.202 13.184C68.818 14.464 68.074 15.44 66.97 16.112C65.866 16.768 64.578 17.096 63.106 17.096C62.002 17.096 61.074 16.968 60.322 16.712C59.57 16.456 58.802 16.024 58.018 15.416L57.154 16.136C56.754 16.472 56.426 16.704 56.17 16.832C55.914 16.944 55.626 17 55.306 17C54.938 17 54.642 16.912 54.418 16.736C54.21 16.56 54.106 16.32 54.106 16.016C54.106 15.856 54.138 15.688 54.202 15.512L55.378 11.936C55.506 11.52 55.682 11.224 55.906 11.048C56.13 10.872 56.418 10.784 56.77 10.784C57.138 10.784 57.466 10.912 57.754 11.168C58.058 11.424 58.45 11.888 58.93 12.56C59.442 13.296 59.914 13.808 60.346 14.096C60.794 14.384 61.322 14.528 61.93 14.528C62.362 14.528 62.69 14.464 62.914 14.336C63.154 14.192 63.322 13.968 63.418 13.664C63.45 13.584 63.466 13.464 63.466 13.304C63.466 12.92 63.282 12.568 62.914 12.248C62.546 11.928 61.978 11.544 61.21 11.096C60.394 10.6 59.73 10.16 59.218 9.776C58.706 9.376 58.258 8.88 57.874 8.288C57.506 7.696 57.322 7 57.322 6.2C57.322 5.64 57.41 5.088 57.586 4.544C57.922 3.44 58.61 2.552 59.65 1.88C60.69 1.208 61.882 0.871999 63.226 0.871999ZM78.6801 17.144C77.3361 17.144 76.1281 16.896 75.0561 16.4C73.9841 15.904 73.1281 15.176 72.4881 14.216C71.8641 13.24 71.5521 12.064 71.5521 10.688C71.5521 9.728 71.7201 8.688 72.0561 7.568C72.7921 5.168 73.9041 3.44 75.3921 2.384C76.8801 1.312 78.4721 0.775999 80.1681 0.775999C81.0801 0.775999 81.8881 0.911999 82.5921 1.184C83.2961 1.456 83.9441 1.848 84.5361 2.36L85.1841 1.856C85.6161 1.52 85.9761 1.288 86.2641 1.16C86.5681 1.032 86.9041 0.967999 87.2721 0.967999C87.6721 0.967999 87.9921 1.056 88.2321 1.232C88.4721 1.408 88.5921 1.664 88.5921 2C88.5921 2.176 88.5601 2.352 88.4961 2.528L87.1521 6.272C87.0081 6.704 86.8321 7.008 86.6241 7.184C86.4321 7.36 86.1361 7.448 85.7361 7.448C85.3201 7.448 84.9761 7.304 84.7041 7.016C84.4481 6.712 84.1521 6.2 83.8161 5.48C83.4321 4.728 83.1201 4.232 82.8801 3.992C82.6401 3.752 82.2881 3.632 81.8241 3.632C81.1681 3.632 80.5361 4.04 79.9281 4.856C79.3201 5.656 78.7681 6.864 78.2721 8.48C77.8561 9.84 77.6481 10.976 77.6481 11.888C77.6481 12.688 77.8001 13.288 78.1041 13.688C78.4081 14.072 78.8161 14.264 79.3281 14.264C80.0801 14.264 80.6961 14.096 81.1761 13.76C81.6721 13.424 82.1761 12.968 82.6881 12.392C83.0081 12.04 83.2641 11.784 83.4561 11.624C83.6641 11.448 83.8801 11.36 84.1041 11.36C84.3921 11.36 84.6961 11.504 85.0161 11.792C85.3361 12.08 85.4881 12.368 85.4721 12.656C85.4881 13.008 85.2001 13.552 84.6081 14.288C84.0321 15.024 83.2241 15.688 82.1841 16.28C81.1601 16.856 79.9921 17.144 78.6801 17.144ZM105.281 5.888C105.025 6.816 104.545 7.544 103.841 8.072C103.137 8.584 102.249 8.904 101.177 9.032C101.945 9.096 102.521 9.32 102.905 9.704C103.289 10.088 103.481 10.592 103.481 11.216C103.481 11.456 103.441 11.752 103.361 12.104L103.097 13.28C103.065 13.44 103.049 13.552 103.049 13.616C103.049 13.824 103.097 13.984 103.193 14.096C103.289 14.192 103.425 14.24 103.601 14.24C103.937 14.24 104.177 14.288 104.321 14.384C104.481 14.48 104.537 14.656 104.489 14.912C104.425 15.28 104.233 15.64 103.913 15.992C103.593 16.344 103.137 16.64 102.545 16.88C101.969 17.104 101.265 17.216 100.433 17.216C99.3773 17.216 98.5373 16.984 97.9133 16.52C97.2893 16.04 96.9773 15.36 96.9773 14.48C96.9773 14.144 97.0253 13.784 97.1213 13.4L97.5053 11.864C97.5693 11.656 97.6013 11.44 97.6013 11.216C97.6013 10.848 97.4733 10.584 97.2173 10.424C96.9773 10.264 96.5853 10.184 96.0413 10.184H95.1293L94.0253 14.168C93.9933 14.264 93.9773 14.384 93.9773 14.528C93.9773 14.752 94.0333 14.944 94.1453 15.104C94.2573 15.264 94.4093 15.432 94.6013 15.608C94.7453 15.72 94.8573 15.832 94.9373 15.944C95.0173 16.04 95.0573 16.144 95.0573 16.256C95.0573 16.528 94.9293 16.72 94.6733 16.832C94.4173 16.944 94.0413 17 93.5453 17H87.5213C87.1053 17 86.7933 16.928 86.5853 16.784C86.3773 16.624 86.3053 16.408 86.3693 16.136C86.4013 15.992 86.4653 15.88 86.5613 15.8C86.6413 15.704 86.7693 15.6 86.9453 15.488C87.2173 15.328 87.4333 15.16 87.5933 14.984C87.7533 14.808 87.8813 14.536 87.9773 14.168L90.9053 3.824C90.9693 3.616 91.0013 3.416 91.0013 3.224C91.0013 3.048 90.9693 2.904 90.9053 2.792C90.8573 2.664 90.7853 2.52 90.6893 2.36C90.5453 2.152 90.4733 1.984 90.4733 1.856C90.4733 1.808 90.4893 1.72 90.5213 1.592C90.5853 1.384 90.7213 1.24 90.9293 1.16C91.1533 1.064 91.4893 1.016 91.9373 1.016H99.9773C101.081 1.016 102.041 1.184 102.857 1.52C103.689 1.856 104.321 2.32 104.753 2.912C105.201 3.488 105.425 4.144 105.425 4.88C105.425 5.216 105.377 5.552 105.281 5.888ZM99.1373 5.648C99.2173 5.28 99.2573 5 99.2573 4.808C99.2573 3.96 98.7933 3.536 97.8653 3.536H96.8573L95.8013 7.784H96.8093C97.4333 7.784 97.9213 7.632 98.2733 7.328C98.6413 7.024 98.9293 6.464 99.1373 5.648ZM115.812 1.016C116.148 1.016 116.404 1.072 116.58 1.184C116.772 1.28 116.868 1.424 116.868 1.616C116.868 1.696 116.844 1.8 116.796 1.928C116.748 2.04 116.676 2.144 116.58 2.24C116.5 2.32 116.42 2.384 116.34 2.432C116.276 2.464 116.228 2.496 116.196 2.528C115.94 2.672 115.732 2.832 115.572 3.008C115.412 3.184 115.276 3.456 115.164 3.824L112.26 14.168C112.196 14.376 112.164 14.576 112.164 14.768C112.164 14.96 112.188 15.12 112.236 15.248C112.3 15.376 112.388 15.512 112.5 15.656C112.644 15.864 112.716 16.032 112.716 16.16C112.716 16.192 112.7 16.272 112.668 16.4C112.604 16.624 112.46 16.784 112.236 16.88C112.012 16.96 111.676 17 111.228 17H105.588C105.252 17 104.996 16.944 104.82 16.832C104.628 16.72 104.532 16.568 104.532 16.376C104.532 16.28 104.556 16.176 104.604 16.064C104.668 15.888 104.772 15.752 104.916 15.656C105.06 15.56 105.148 15.504 105.18 15.488C105.436 15.328 105.644 15.168 105.804 15.008C105.964 14.832 106.1 14.552 106.212 14.168L109.14 3.824C109.204 3.616 109.236 3.416 109.236 3.224C109.236 3.048 109.204 2.904 109.14 2.792C109.092 2.664 109.02 2.52 108.924 2.36C108.78 2.152 108.708 1.984 108.708 1.856C108.708 1.808 108.724 1.72 108.756 1.592C108.82 1.384 108.956 1.24 109.164 1.16C109.388 1.064 109.724 1.016 110.172 1.016H115.812ZM129.194 1.016C130.282 1.016 131.226 1.184 132.026 1.52C132.842 1.84 133.458 2.288 133.874 2.864C134.306 3.424 134.522 4.072 134.522 4.808C134.522 5.224 134.466 5.608 134.354 5.96C133.89 7.576 132.554 8.6 130.346 9.032C131.114 9.256 131.722 9.632 132.17 10.16C132.618 10.672 132.842 11.312 132.842 12.08C132.842 12.432 132.778 12.848 132.65 13.328C132.298 14.576 131.586 15.504 130.514 16.112C129.458 16.704 127.954 17 126.002 17H116.018C115.682 17 115.426 16.944 115.25 16.832C115.058 16.72 114.962 16.568 114.962 16.376C114.962 16.28 114.986 16.176 115.034 16.064C115.098 15.888 115.202 15.752 115.346 15.656C115.49 15.56 115.578 15.504 115.61 15.488C115.866 15.328 116.074 15.168 116.234 15.008C116.394 14.832 116.53 14.552 116.642 14.168L119.57 3.824C119.634 3.616 119.666 3.416 119.666 3.224C119.666 3.048 119.634 2.904 119.57 2.792C119.522 2.664 119.45 2.52 119.354 2.36C119.21 2.152 119.138 1.984 119.138 1.856C119.138 1.808 119.154 1.72 119.186 1.592C119.25 1.384 119.386 1.24 119.594 1.16C119.818 1.064 120.154 1.016 120.602 1.016H129.194ZM128.114 5.408C128.226 5.056 128.282 4.728 128.282 4.424C128.282 3.592 127.81 3.176 126.866 3.176H125.786L124.514 7.664H125.57C126.242 7.664 126.77 7.504 127.154 7.184C127.554 6.848 127.874 6.256 128.114 5.408ZM126.362 12.464C126.474 12.08 126.53 11.728 126.53 11.408C126.53 10.544 126.034 10.112 125.042 10.112H123.842L122.474 14.84H123.698C124.386 14.84 124.938 14.672 125.354 14.336C125.77 13.984 126.106 13.36 126.362 12.464ZM149.047 1.016C149.639 1.016 150.095 1.144 150.415 1.4C150.751 1.656 150.919 2.008 150.919 2.456C150.919 2.68 150.887 2.896 150.823 3.104L150.199 5.336C150.087 5.768 149.919 6.072 149.695 6.248C149.487 6.408 149.183 6.488 148.783 6.488C148.399 6.488 148.095 6.408 147.871 6.248C147.663 6.072 147.503 5.792 147.391 5.408L147.007 4.04C146.927 3.752 146.831 3.56 146.719 3.464C146.607 3.368 146.391 3.32 146.071 3.32H143.551L142.351 7.592H143.407C143.519 7.592 143.671 7.512 143.863 7.352L144.679 6.632C144.919 6.424 145.127 6.272 145.303 6.176C145.479 6.08 145.695 6.032 145.951 6.032C146.239 6.032 146.471 6.112 146.647 6.272C146.839 6.416 146.935 6.608 146.935 6.848C146.935 6.912 146.919 7.008 146.887 7.136L145.903 10.472C145.807 10.824 145.639 11.088 145.399 11.264C145.175 11.424 144.927 11.504 144.655 11.504C144.207 11.504 143.871 11.272 143.647 10.808L143.239 9.968C143.127 9.728 142.951 9.608 142.711 9.608H141.775L140.359 14.696H142.471C142.775 14.696 143.039 14.64 143.263 14.528C143.503 14.4 143.759 14.184 144.031 13.88L145.471 12.296C145.727 12.024 145.967 11.832 146.191 11.72C146.431 11.592 146.719 11.528 147.055 11.528C147.407 11.528 147.695 11.608 147.919 11.768C148.143 11.928 148.255 12.168 148.255 12.488C148.255 12.616 148.231 12.768 148.183 12.944L147.487 15.368C147.311 15.976 147.055 16.4 146.719 16.64C146.383 16.88 145.895 17 145.255 17H133.807C133.471 17 133.215 16.944 133.039 16.832C132.847 16.72 132.751 16.568 132.751 16.376C132.751 16.28 132.775 16.176 132.823 16.064C132.887 15.888 132.991 15.752 133.135 15.656C133.279 15.56 133.367 15.504 133.399 15.488C133.655 15.328 133.863 15.168 134.023 15.008C134.183 14.832 134.319 14.552 134.431 14.168L137.383 3.824C137.447 3.616 137.479 3.424 137.479 3.248C137.479 3.056 137.447 2.896 137.383 2.768C137.335 2.64 137.255 2.504 137.143 2.36C136.999 2.152 136.927 1.984 136.927 1.856C136.927 1.808 136.943 1.72 136.975 1.592C137.039 1.384 137.183 1.24 137.407 1.16C137.631 1.064 137.959 1.016 138.391 1.016H149.047ZM160.738 1.016C163.138 1.016 164.946 1.48 166.162 2.408C167.378 3.32 167.986 4.664 167.986 6.44C167.986 7.32 167.826 8.336 167.506 9.488C166.978 11.344 166.266 12.816 165.37 13.904C164.474 14.992 163.29 15.784 161.818 16.28C160.362 16.776 158.49 17.016 156.202 17L149.674 16.976C149.338 16.976 149.082 16.92 148.906 16.808C148.714 16.696 148.618 16.544 148.618 16.352C148.618 16.256 148.642 16.152 148.69 16.04C148.738 15.896 148.81 15.792 148.906 15.728C148.986 15.664 149.114 15.576 149.29 15.464C149.546 15.32 149.746 15.16 149.89 14.984C150.05 14.808 150.186 14.528 150.298 14.144L153.226 3.824C153.29 3.616 153.322 3.416 153.322 3.224C153.322 3.048 153.29 2.904 153.226 2.792C153.178 2.664 153.106 2.52 153.01 2.36C152.866 2.152 152.794 1.984 152.794 1.856C152.794 1.808 152.81 1.72 152.842 1.592C152.906 1.384 153.042 1.24 153.25 1.16C153.474 1.064 153.81 1.016 154.258 1.016H160.738ZM161.362 8.96C161.778 7.456 161.986 6.272 161.986 5.408C161.986 4.56 161.81 3.976 161.458 3.656C161.106 3.336 160.602 3.176 159.946 3.176H159.418L156.178 14.84H156.754C157.49 14.84 158.106 14.688 158.602 14.384C159.114 14.064 159.586 13.488 160.018 12.656C160.45 11.808 160.898 10.576 161.362 8.96ZM193.01 3.32C193.01 3.896 192.882 4.392 192.626 4.808C192.386 5.224 192.074 5.544 191.69 5.768C191.306 5.976 190.922 6.08 190.538 6.08C190.154 6.08 189.802 6 189.482 5.84C189.178 5.68 188.922 5.464 188.714 5.192L182.93 14.936C182.498 15.672 182.098 16.2 181.73 16.52C181.362 16.84 180.946 17 180.482 17C179.986 17 179.586 16.84 179.282 16.52C178.994 16.184 178.786 15.656 178.658 14.936L176.642 3.848C176.594 3.56 176.506 3.328 176.378 3.152C176.25 2.976 176.082 2.784 175.874 2.576C175.714 2.432 175.602 2.32 175.538 2.24C175.474 2.144 175.442 2.032 175.442 1.904C175.362 1.312 175.714 1.016 176.498 1.016H182.498C182.866 1.016 183.146 1.096 183.338 1.256C183.53 1.4 183.618 1.6 183.602 1.856C183.602 2 183.57 2.12 183.506 2.216C183.458 2.312 183.37 2.432 183.242 2.576C183.098 2.736 182.986 2.888 182.906 3.032C182.826 3.176 182.786 3.352 182.786 3.56C182.786 3.656 182.794 3.736 182.81 3.8L183.722 9.392L186.914 3.728C187.474 2.704 188.026 1.984 188.57 1.568C189.114 1.136 189.786 0.92 190.586 0.92C191.322 0.92 191.906 1.136 192.338 1.568C192.786 1.984 193.01 2.568 193.01 3.32ZM200.844 1.016C201.18 1.016 201.436 1.072 201.612 1.184C201.804 1.28 201.9 1.424 201.9 1.616C201.9 1.696 201.876 1.8 201.828 1.928C201.78 2.04 201.708 2.144 201.612 2.24C201.532 2.32 201.452 2.384 201.372 2.432C201.308 2.464 201.26 2.496 201.228 2.528C200.972 2.672 200.764 2.832 200.604 3.008C200.444 3.184 200.308 3.456 200.196 3.824L197.292 14.168C197.228 14.376 197.196 14.576 197.196 14.768C197.196 14.96 197.22 15.12 197.268 15.248C197.332 15.376 197.42 15.512 197.532 15.656C197.676 15.864 197.748 16.032 197.748 16.16C197.748 16.192 197.732 16.272 197.7 16.4C197.636 16.624 197.492 16.784 197.268 16.88C197.044 16.96 196.708 17 196.26 17H190.62C190.284 17 190.027 16.944 189.851 16.832C189.659 16.72 189.563 16.568 189.563 16.376C189.563 16.28 189.587 16.176 189.635 16.064C189.699 15.888 189.803 15.752 189.947 15.656C190.091 15.56 190.179 15.504 190.212 15.488C190.468 15.328 190.676 15.168 190.836 15.008C190.996 14.832 191.132 14.552 191.244 14.168L194.172 3.824C194.236 3.616 194.268 3.416 194.268 3.224C194.268 3.048 194.236 2.904 194.172 2.792C194.124 2.664 194.052 2.52 193.956 2.36C193.812 2.152 193.74 1.984 193.74 1.856C193.74 1.808 193.756 1.72 193.788 1.592C193.852 1.384 193.988 1.24 194.196 1.16C194.42 1.064 194.756 1.016 195.204 1.016H200.844ZM216.289 1.016C216.881 1.016 217.337 1.144 217.657 1.4C217.993 1.656 218.161 2.008 218.161 2.456C218.161 2.68 218.129 2.896 218.065 3.104L217.441 5.336C217.329 5.768 217.161 6.072 216.937 6.248C216.729 6.408 216.425 6.488 216.025 6.488C215.641 6.488 215.337 6.408 215.113 6.248C214.905 6.072 214.745 5.792 214.633 5.408L214.249 4.04C214.169 3.752 214.073 3.56 213.961 3.464C213.849 3.368 213.633 3.32 213.313 3.32H210.793L209.593 7.592H210.649C210.761 7.592 210.913 7.512 211.105 7.352L211.921 6.632C212.161 6.424 212.369 6.272 212.545 6.176C212.721 6.08 212.937 6.032 213.193 6.032C213.481 6.032 213.713 6.112 213.889 6.272C214.081 6.416 214.177 6.608 214.177 6.848C214.177 6.912 214.161 7.008 214.129 7.136L213.145 10.472C213.049 10.824 212.881 11.088 212.641 11.264C212.417 11.424 212.169 11.504 211.897 11.504C211.449 11.504 211.113 11.272 210.889 10.808L210.481 9.968C210.369 9.728 210.193 9.608 209.953 9.608H209.017L207.601 14.696H209.713C210.017 14.696 210.281 14.64 210.505 14.528C210.745 14.4 211.001 14.184 211.273 13.88L212.713 12.296C212.969 12.024 213.209 11.832 213.433 11.72C213.673 11.592 213.961 11.528 214.297 11.528C214.649 11.528 214.937 11.608 215.161 11.768C215.385 11.928 215.497 12.168 215.497 12.488C215.497 12.616 215.473 12.768 215.425 12.944L214.729 15.368C214.553 15.976 214.297 16.4 213.961 16.64C213.625 16.88 213.137 17 212.497 17H201.049C200.713 17 200.457 16.944 200.281 16.832C200.089 16.72 199.993 16.568 199.993 16.376C199.993 16.28 200.017 16.176 200.065 16.064C200.129 15.888 200.233 15.752 200.377 15.656C200.521 15.56 200.609 15.504 200.641 15.488C200.897 15.328 201.105 15.168 201.265 15.008C201.425 14.832 201.561 14.552 201.673 14.168L204.625 3.824C204.689 3.616 204.721 3.424 204.721 3.248C204.721 3.056 204.689 2.896 204.625 2.768C204.577 2.64 204.497 2.504 204.385 2.36C204.241 2.152 204.169 1.984 204.169 1.856C204.169 1.808 204.185 1.72 204.217 1.592C204.281 1.384 204.425 1.24 204.649 1.16C204.873 1.064 205.201 1.016 205.633 1.016H216.289ZM246.839 3.32C246.839 3.896 246.703 4.4 246.431 4.832C246.159 5.248 245.815 5.568 245.399 5.792C244.999 6 244.607 6.104 244.223 6.104C243.855 6.104 243.503 6.016 243.167 5.84C242.847 5.648 242.639 5.432 242.543 5.192L236.711 14.936C236.263 15.688 235.855 16.224 235.487 16.544C235.135 16.848 234.727 17 234.263 17C233.191 17 232.583 16.312 232.439 14.936L231.671 7.88L226.823 14.936C226.263 15.752 225.807 16.304 225.455 16.592C225.119 16.864 224.727 17 224.279 17C223.303 17 222.711 16.232 222.503 14.696L220.967 3.848C220.919 3.528 220.823 3.272 220.679 3.08C220.551 2.888 220.383 2.704 220.175 2.528C220.031 2.4 219.927 2.296 219.863 2.216C219.799 2.12 219.767 2.016 219.767 1.904C219.687 1.312 220.039 1.016 220.823 1.016H226.799C227.167 1.016 227.439 1.096 227.615 1.256C227.807 1.4 227.895 1.6 227.879 1.856C227.879 1.984 227.839 2.112 227.759 2.24C227.695 2.352 227.623 2.456 227.543 2.552C227.367 2.744 227.239 2.928 227.159 3.104C227.079 3.28 227.055 3.512 227.087 3.8L227.711 9.584L231.311 4.424L231.239 3.848C231.207 3.544 231.127 3.296 230.999 3.104C230.871 2.912 230.695 2.728 230.471 2.552C230.311 2.408 230.199 2.296 230.135 2.216C230.071 2.12 230.039 2.016 230.039 1.904C229.959 1.312 230.311 1.016 231.095 1.016H237.095C237.463 1.016 237.743 1.096 237.935 1.256C238.127 1.4 238.215 1.6 238.199 1.856C238.199 2.064 238.087 2.296 237.863 2.552C237.703 2.744 237.583 2.928 237.503 3.104C237.423 3.28 237.391 3.512 237.407 3.8L237.695 9.032L240.935 3.368C241.463 2.456 241.975 1.824 242.471 1.472C242.967 1.104 243.615 0.92 244.415 0.92C245.135 0.92 245.719 1.136 246.167 1.568C246.615 2 246.839 2.584 246.839 3.32Z" fill="#0E5649"/>
</svg>
