<svg width="45" height="73" viewBox="0 0 45 73" fill="none" xmlns="http://www.w3.org/2000/svg">
<path d="M20.7576 3.11532C19.838 4.01079 19.628 5.11072 19.628 6.60551C19.628 8.79834 20.6562 11.2944 20.6562 14.7916C20.6562 19.0856 16.2466 22.3784 10.0993 22.3784C3.64064 22.3784 0.469238 19.3817 0.469238 14.7916C0.469238 9.10153 5.59562 0.421875 20.0407 0.421875L20.7576 3.11532ZM24.8558 14.5942C24.8558 10.4059 24.139 3.91207 22.2926 0.421875C39.0981 0.421875 44.7386 6.80998 44.7386 16.3921C44.7386 29.8664 27.1076 31.6644 27.1076 37.3474C27.1076 40.4427 29.5694 42.7343 32.5381 43.3336V46.3302C15.1171 46.3302 5.58114 41.5427 5.58114 34.3578C5.58114 24.0776 24.8485 27.173 24.8485 14.6012L24.8558 14.5942ZM21.4744 48.3256C28.4399 48.3256 33.769 53.5151 33.769 60.2981C33.769 67.081 28.4399 72.2705 21.4744 72.2705C14.5089 72.2705 9.17975 67.081 9.17975 60.2981C9.17975 53.5151 14.5089 48.3256 21.4744 48.3256Z" fill="#767676"/>
</svg>
