<svg width="2375" height="1205" viewBox="0 0 2375 1205" fill="none" xmlns="http://www.w3.org/2000/svg">
<g style="mix-blend-mode:screen" opacity="0.3">
<path d="M98.5902 479.413L111.288 539.15L198.638 520.583L180.071 433.232L120.334 445.93C105.084 449.172 95.3485 464.162 98.5902 479.413ZM164.059 492.187C158.866 508.119 146.473 518.326 136.294 515.035C126.115 511.744 122.107 496.127 127.26 480.257C132.453 464.325 144.846 454.118 155.025 457.409C165.204 460.7 169.212 476.317 164.059 492.187Z" fill="#E16877"/>
<path d="M185.391 432.102L203.958 519.452L291.309 500.885L278.612 441.148C275.37 425.898 260.379 416.163 245.128 419.404L185.391 432.102ZM265.617 464.722L248.491 468.363L263.175 477.898C265.018 479.095 265.535 481.527 264.338 483.37C263.141 485.213 260.709 485.73 258.866 484.533L244.183 474.998L247.823 492.123C248.275 494.251 246.918 496.34 244.79 496.793C242.662 497.245 240.574 495.888 240.121 493.76L236.481 476.635L226.946 491.318C225.749 493.161 223.317 493.678 221.473 492.481C219.63 491.285 219.113 488.852 220.31 487.009L229.846 472.326L212.72 475.966C210.592 476.418 208.503 475.062 208.051 472.934C207.599 470.806 208.955 468.717 211.083 468.265L228.209 464.624L213.525 455.089C211.682 453.892 211.165 451.46 212.362 449.617C213.559 447.774 215.991 447.257 217.834 448.454L232.518 457.989L228.878 440.864C228.425 438.736 229.782 436.647 231.91 436.194C234.038 435.742 236.127 437.099 236.579 439.227L240.219 456.352L249.755 441.669C250.952 439.826 253.384 439.309 255.227 440.506C257.07 441.703 257.587 444.135 256.39 445.978L246.854 460.661L263.98 457.021C266.108 456.569 268.197 457.925 268.649 460.053C269.102 462.181 267.745 464.27 265.617 464.722Z" fill="#C60B16"/>
<path d="M112.329 544.05L125.027 603.787C128.268 619.038 143.259 628.773 158.51 625.531L218.247 612.834L199.68 525.483L112.329 544.05ZM192.817 593.349C190.904 599.052 185.945 603.124 180.169 604.352C177.433 604.934 174.455 604.878 171.581 604.059C169.491 603.444 168.297 601.315 168.861 599.236C169.476 597.146 171.605 595.952 173.684 596.516C178.588 597.91 183.82 595.368 185.3 590.87C186.75 586.484 183.849 581.805 180.343 580.008C178.799 579.224 177.1 578.95 175.475 579.03C174.854 582.34 173.422 586.563 170.174 588.471C167.53 589.986 164.871 590.181 162.865 588.966C159.702 587.043 159.59 582.777 160.252 580.413C161.13 577.313 163.981 574.536 168.116 572.81C167.994 567.752 166.308 563.556 163.663 561.577C161.028 559.647 157.017 558.964 153.047 559.967C147.85 561.178 143.372 564.777 140.882 569.755C139.92 571.707 137.542 572.477 135.641 571.505C133.689 570.543 132.918 568.164 133.891 566.263C137.423 559.21 143.752 554.105 151.269 552.349C157.602 551.002 163.954 551.983 168.373 555.333C172.719 558.592 175.43 564.371 175.929 571.202C178.784 571.178 181.514 571.816 183.947 573.046C190.439 576.432 195.53 584.935 192.716 593.371L192.817 593.349Z" fill="#C60B16"/>
<path d="M205 524.352L223.567 611.703L283.304 599.005C298.555 595.764 308.29 580.773 305.048 565.522L292.351 505.785L205 524.352ZM271.61 534.024C266.76 542.099 258.623 559.874 266.752 579.435C267.494 581.183 266.156 583.109 264.278 583.244L245.894 584.451C244.798 584.525 243.786 583.998 243.266 583.05C240.351 578.056 233.051 560.649 248.983 532.214C249.441 531.376 250.379 530.806 251.374 530.753L269.03 529.86C271.284 529.751 272.807 532.181 271.632 534.126L271.61 534.024Z" fill="#E16877"/>
<path d="M345.095 398.156C348.563 414.471 340.925 429.863 328.056 432.598C315.186 435.334 301.948 424.379 298.481 408.064L278.112 412.393L296.679 499.744L384.03 481.177L365.463 393.826L345.095 398.156Z" fill="#FFCB46"/>
<path d="M364.703 490.406C368.171 506.721 360.534 522.113 347.664 524.849C334.794 527.584 321.546 516.579 318.089 500.314L297.721 504.644L316.288 591.995L403.638 573.428L385.071 486.077L364.703 490.406Z" fill="#06564E"/>
<path d="M87.3507 452.941L0 471.508L18.567 558.858L36.0979 555.132C34.4178 547.228 39.4848 539.426 47.3889 537.745L63.4505 534.331C85.1869 529.711 99.1219 508.32 94.491 486.533L87.3507 452.941Z" fill="#06564E"/>
<path d="M19.6084 563.759L38.1754 651.109L55.7063 647.383C54.0262 639.479 59.0932 631.676 66.9973 629.996L88.4297 625.441C107.227 621.445 119.237 602.952 115.241 584.155L106.959 545.192L19.6084 563.759Z" fill="#FFCB46"/>
<path d="M177.039 848.485L189.736 908.222L277.087 889.655L258.52 802.304L198.783 815.002C183.532 818.243 173.797 833.234 177.039 848.485ZM242.508 861.259C237.315 877.191 224.921 887.398 214.743 884.107C204.564 880.816 200.556 865.198 205.709 849.328C210.901 833.397 223.295 823.19 233.473 826.48C243.652 829.771 247.66 845.389 242.508 861.259Z" fill="#E16877"/>
<path d="M263.84 801.173L282.407 888.524L369.757 869.957L357.06 810.22C353.818 794.969 338.828 785.234 323.577 788.476L263.84 801.173ZM344.066 833.794L326.94 837.434L341.623 846.97C343.467 848.167 343.984 850.599 342.787 852.442C341.59 854.285 339.158 854.802 337.314 853.605L322.631 844.07L326.271 861.195C326.723 863.323 325.367 865.412 323.239 865.864C321.111 866.317 319.022 864.96 318.57 862.832L314.93 845.707L305.394 860.39C304.197 862.233 301.765 862.75 299.922 861.553C298.079 860.356 297.562 857.924 298.759 856.081L308.294 841.398L291.169 845.038C289.041 845.49 286.952 844.134 286.5 842.005C286.047 839.877 287.404 837.789 289.532 837.336L306.657 833.696L291.974 824.161C290.131 822.964 289.614 820.532 290.811 818.688C292.008 816.845 294.44 816.328 296.283 817.525L310.966 827.061L307.326 809.935C306.874 807.807 308.23 805.718 310.358 805.266C312.486 804.814 314.575 806.17 315.028 808.298L318.668 825.424L328.203 810.74C329.4 808.897 331.832 808.38 333.675 809.577C335.519 810.774 336.035 813.206 334.839 815.049L325.303 829.733L342.429 826.093C344.557 825.64 346.645 826.997 347.098 829.125C347.55 831.253 346.194 833.342 344.066 833.794Z" fill="#C60B16"/>
<path d="M190.778 913.122L203.475 972.859C206.717 988.11 221.708 997.845 236.959 994.603L296.695 981.905L278.128 894.555L190.778 913.122ZM271.265 962.421C269.353 968.123 264.393 972.196 258.617 973.424C255.881 974.005 252.904 973.95 250.029 973.131C247.939 972.516 246.745 970.387 247.309 968.308C247.924 966.217 250.053 965.023 252.133 965.588C257.036 966.981 262.268 964.439 263.748 959.941C265.199 955.555 262.298 950.876 258.791 949.08C257.248 948.296 255.548 948.022 253.923 948.102C253.303 951.411 251.871 955.635 248.622 957.543C245.979 959.058 243.319 959.253 241.313 958.037C238.151 956.115 238.039 951.849 238.701 949.484C239.578 946.385 242.43 943.608 246.564 941.882C246.442 936.824 244.756 932.628 242.111 930.648C239.477 928.719 235.466 928.036 231.496 929.039C226.298 930.249 221.821 933.849 219.331 938.827C218.369 940.779 215.991 941.549 214.089 940.576C212.137 939.614 211.367 937.236 212.34 935.335C215.871 928.282 222.2 923.177 229.717 921.42C236.051 920.074 242.402 921.054 246.821 924.404C251.168 927.664 253.879 933.443 254.378 940.274C257.232 940.25 259.963 940.887 262.395 942.118C268.887 945.504 273.978 954.007 271.164 962.443L271.265 962.421Z" fill="#C60B16"/>
<path d="M283.448 893.424L302.015 980.775L361.752 968.077C377.003 964.835 386.738 949.845 383.497 934.594L370.799 874.857L283.448 893.424ZM350.058 903.096C345.208 911.17 337.071 928.946 345.201 948.506C345.943 950.255 344.605 952.181 342.727 952.315L324.343 953.522C323.246 953.596 322.234 953.07 321.715 952.121C318.8 947.128 311.499 929.721 327.432 901.286C327.889 900.447 328.827 899.877 329.822 899.825L347.479 898.931C349.733 898.823 351.255 901.253 350.08 903.197L350.058 903.096Z" fill="#E16877"/>
<path d="M423.543 767.227C427.011 783.542 419.374 798.934 406.504 801.67C393.635 804.405 380.397 793.45 376.929 777.135L356.561 781.465L375.128 868.816L462.478 850.249L443.911 762.898L423.543 767.227Z" fill="#FFCB46"/>
<path d="M443.152 859.478C446.619 875.793 438.982 891.185 426.112 893.921C413.243 896.656 399.995 885.65 396.538 869.386L376.169 873.716L394.736 961.066L482.087 942.499L463.52 855.149L443.152 859.478Z" fill="#06564E"/>
<path d="M165.799 822.013L78.4485 840.579L97.0154 927.93L114.546 924.204C112.866 916.3 117.933 908.497 125.837 906.817L141.899 903.403C163.635 898.783 177.57 877.392 172.939 855.605L165.799 822.013Z" fill="#06564E"/>
<path d="M98.0569 932.83L116.624 1020.18L134.155 1016.45C132.475 1008.55 137.542 1000.75 145.446 999.068L166.878 994.512C185.676 990.517 197.685 972.024 193.689 953.227L185.408 914.263L98.0569 932.83Z" fill="#FFCB46"/>
<path d="M1210.25 243.122L1222.95 302.859L1310.3 284.292L1291.73 196.941L1232 209.639C1216.75 212.88 1207.01 227.871 1210.25 243.122ZM1275.72 255.896C1270.53 271.828 1258.14 282.035 1247.96 278.744C1237.78 275.453 1233.77 259.835 1238.92 243.965C1244.12 228.034 1256.51 217.826 1266.69 221.117C1276.87 224.408 1280.87 240.026 1275.72 255.896Z" fill="#E16877"/>
<path d="M1297.05 195.81L1315.62 283.161L1402.97 264.594L1390.27 204.857C1387.03 189.606 1372.04 179.871 1356.79 183.113L1297.05 195.81ZM1377.28 228.431L1360.15 232.071L1374.84 241.607C1376.68 242.804 1377.2 245.236 1376 247.079C1374.8 248.922 1372.37 249.439 1370.53 248.242L1355.85 238.706L1359.49 255.832C1359.94 257.96 1358.58 260.049 1356.45 260.501C1354.33 260.954 1352.24 259.597 1351.78 257.469L1348.14 240.343L1338.61 255.027C1337.41 256.87 1334.98 257.387 1333.14 256.19C1331.29 254.993 1330.78 252.561 1331.97 250.718L1341.51 236.035L1324.38 239.675C1322.26 240.127 1320.17 238.77 1319.71 236.642C1319.26 234.514 1320.62 232.426 1322.75 231.973L1339.87 228.333L1325.19 218.797C1323.35 217.601 1322.83 215.169 1324.03 213.325C1325.22 211.482 1327.65 210.965 1329.5 212.162L1344.18 221.698L1340.54 204.572C1340.09 202.444 1341.45 200.355 1343.57 199.903C1345.7 199.451 1347.79 200.807 1348.24 202.935L1351.88 220.061L1361.42 205.377C1362.62 203.534 1365.05 203.017 1366.89 204.214C1368.73 205.411 1369.25 207.843 1368.05 209.686L1358.52 224.37L1375.64 220.73C1377.77 220.277 1379.86 221.634 1380.31 223.762C1380.76 225.89 1379.41 227.979 1377.28 228.431Z" fill="#C60B16"/>
<path d="M1223.99 307.759L1236.69 367.496C1239.93 382.746 1254.92 392.482 1270.17 389.24L1329.91 376.542L1311.34 289.192L1223.99 307.759ZM1304.48 357.058C1302.57 362.76 1297.61 366.833 1291.83 368.061C1289.1 368.642 1286.12 368.587 1283.24 367.768C1281.15 367.153 1279.96 365.024 1280.52 362.944C1281.14 360.854 1283.27 359.66 1285.35 360.225C1290.25 361.618 1295.48 359.076 1296.96 354.578C1298.41 350.192 1295.51 345.513 1292.01 343.717C1290.46 342.933 1288.76 342.658 1287.14 342.739C1286.52 346.048 1285.08 350.272 1281.84 352.18C1279.19 353.695 1276.53 353.89 1274.53 352.674C1271.37 350.752 1271.25 346.486 1271.92 344.121C1272.79 341.022 1275.64 338.245 1279.78 336.519C1279.66 331.461 1277.97 327.265 1275.33 325.285C1272.69 323.356 1268.68 322.673 1264.71 323.676C1259.51 324.886 1255.04 328.486 1252.54 333.464C1251.58 335.416 1249.2 336.186 1247.3 335.213C1245.35 334.251 1244.58 331.873 1245.55 329.972C1249.09 322.919 1255.41 317.814 1262.93 316.057C1269.27 314.711 1275.62 315.691 1280.04 319.041C1284.38 322.301 1287.09 328.079 1287.59 334.911C1290.45 334.887 1293.18 335.524 1295.61 336.755C1302.1 340.141 1307.19 348.644 1304.38 357.08L1304.48 357.058Z" fill="#C60B16"/>
<path d="M1316.66 288.061L1335.23 375.412L1394.97 362.714C1410.22 359.472 1419.95 344.482 1416.71 329.231L1404.01 269.494L1316.66 288.061ZM1383.27 297.733C1378.42 305.807 1370.29 323.583 1378.42 343.143C1379.16 344.892 1377.82 346.818 1375.94 346.952L1357.56 348.159C1356.46 348.233 1355.45 347.707 1354.93 346.758C1352.01 341.765 1344.71 324.358 1360.65 295.923C1361.1 295.084 1362.04 294.514 1363.04 294.462L1380.69 293.568C1382.95 293.46 1384.47 295.89 1383.29 297.834L1383.27 297.733Z" fill="#E16877"/>
<path d="M1456.76 161.864C1460.23 178.179 1452.59 193.571 1439.72 196.307C1426.85 199.042 1413.61 188.087 1410.14 171.772L1389.78 176.102L1408.34 263.452L1495.69 244.886L1477.13 157.535L1456.76 161.864Z" fill="#FFCB46"/>
<path d="M1476.37 254.115C1479.83 270.43 1472.2 285.822 1459.33 288.558C1446.46 291.293 1433.21 280.287 1429.75 264.023L1409.38 268.353L1427.95 355.703L1515.3 337.136L1496.73 249.786L1476.37 254.115Z" fill="#06564E"/>
<path d="M1199.01 216.649L1111.66 235.216L1130.23 322.567L1147.76 318.841C1146.08 310.937 1151.15 303.134 1159.05 301.454L1175.11 298.04C1196.85 293.42 1210.79 272.029 1206.15 250.242L1199.01 216.649Z" fill="#06564E"/>
<path d="M1131.27 327.467L1149.84 414.818L1167.37 411.092C1165.69 403.187 1170.76 395.385 1178.66 393.705L1200.09 389.149C1218.89 385.154 1230.9 366.661 1226.9 347.863L1218.62 308.9L1131.27 327.467Z" fill="#FFCB46"/>
<path d="M1288.7 612.193L1301.4 671.93L1388.75 653.363L1370.18 566.013L1310.45 578.71C1295.2 581.952 1285.46 596.943 1288.7 612.193ZM1354.17 624.968C1348.98 640.899 1336.58 651.106 1326.41 647.815C1316.23 644.525 1312.22 628.907 1317.37 613.037C1322.56 597.105 1334.96 586.898 1345.14 590.189C1355.32 593.48 1359.32 609.098 1354.17 624.968Z" fill="#E16877"/>
<path d="M1375.5 564.882L1394.07 652.233L1481.42 633.666L1468.72 573.929C1465.48 558.678 1450.49 548.943 1435.24 552.184L1375.5 564.882ZM1455.73 597.503L1438.6 601.143L1453.29 610.678C1455.13 611.875 1455.65 614.307 1454.45 616.151C1453.25 617.994 1450.82 618.511 1448.98 617.314L1434.29 607.778L1437.93 624.904C1438.39 627.032 1437.03 629.121 1434.9 629.573C1432.77 630.025 1430.69 628.669 1430.23 626.541L1426.59 609.415L1417.06 624.099C1415.86 625.942 1413.43 626.459 1411.59 625.262C1409.74 624.065 1409.23 621.633 1410.42 619.79L1419.96 605.106L1402.83 608.746C1400.7 609.199 1398.62 607.842 1398.16 605.714C1397.71 603.586 1399.07 601.497 1401.2 601.045L1418.32 597.405L1403.64 587.869C1401.79 586.672 1401.28 584.24 1402.47 582.397C1403.67 580.554 1406.1 580.037 1407.95 581.234L1422.63 590.77L1418.99 573.644C1418.54 571.516 1419.89 569.427 1422.02 568.975C1424.15 568.522 1426.24 569.879 1426.69 572.007L1430.33 589.133L1439.87 574.449C1441.06 572.606 1443.5 572.089 1445.34 573.286C1447.18 574.483 1447.7 576.915 1446.5 578.758L1436.97 593.441L1454.09 589.801C1456.22 589.349 1458.31 590.706 1458.76 592.834C1459.21 594.962 1457.86 597.05 1455.73 597.503Z" fill="#C60B16"/>
<path d="M1302.44 676.83L1315.14 736.567C1318.38 751.818 1333.37 761.553 1348.62 758.312L1408.36 745.614L1389.79 658.263L1302.44 676.83ZM1382.93 726.13C1381.02 731.832 1376.06 735.905 1370.28 737.132C1367.54 737.714 1364.57 737.658 1361.69 736.84C1359.6 736.225 1358.41 734.095 1358.97 732.016C1359.59 729.926 1361.72 728.732 1363.8 729.296C1368.7 730.69 1373.93 728.148 1375.41 723.65C1376.86 719.264 1373.96 714.585 1370.45 712.788C1368.91 712.004 1367.21 711.73 1365.59 711.811C1364.97 715.12 1363.53 719.343 1360.29 721.252C1357.64 722.767 1354.98 722.961 1352.98 721.746C1349.81 719.823 1349.7 715.558 1350.36 713.193C1351.24 710.094 1354.09 707.316 1358.23 705.59C1358.11 700.532 1356.42 696.336 1353.77 694.357C1351.14 692.428 1347.13 691.745 1343.16 692.747C1337.96 693.958 1333.48 697.558 1330.99 702.535C1330.03 704.487 1327.65 705.258 1325.75 704.285C1323.8 703.323 1323.03 700.945 1324 699.043C1327.53 691.991 1333.86 686.886 1341.38 685.129C1347.71 683.783 1354.07 684.763 1358.48 688.113C1362.83 691.373 1365.54 697.151 1366.04 703.982C1368.9 703.958 1371.63 704.596 1374.06 705.826C1380.55 709.212 1385.64 717.716 1382.83 726.151L1382.93 726.13Z" fill="#C60B16"/>
<path d="M1395.11 657.133L1413.68 744.483L1473.42 731.786C1488.67 728.544 1498.4 713.553 1495.16 698.303L1482.46 638.566L1395.11 657.133ZM1461.72 666.805C1456.87 674.879 1448.73 692.654 1456.86 712.215C1457.61 713.964 1456.27 715.89 1454.39 716.024L1436.01 717.231C1434.91 717.305 1433.9 716.779 1433.38 715.83C1430.46 710.836 1423.16 693.43 1439.1 664.994C1439.55 664.156 1440.49 663.586 1441.49 663.533L1459.14 662.64C1461.4 662.531 1462.92 664.962 1461.74 666.906L1461.72 666.805Z" fill="#E16877"/>
<path d="M1535.21 530.936C1538.67 547.251 1531.04 562.643 1518.17 565.378C1505.3 568.114 1492.06 557.159 1488.59 540.844L1468.22 545.173L1486.79 632.524L1574.14 613.957L1555.57 526.607L1535.21 530.936Z" fill="#FFCB46"/>
<path d="M1554.81 623.187C1558.28 639.502 1550.65 654.894 1537.78 657.629C1524.91 660.365 1511.66 649.359 1508.2 633.095L1487.83 637.424L1506.4 724.775L1593.75 706.208L1575.18 618.857L1554.81 623.187Z" fill="#06564E"/>
<path d="M1277.46 585.721L1190.11 604.288L1208.68 691.639L1226.21 687.912C1224.53 680.008 1229.6 672.206 1237.5 670.526L1253.56 667.112C1275.3 662.492 1289.23 641.101 1284.6 619.314L1277.46 585.721Z" fill="#06564E"/>
<path d="M1209.72 696.539L1228.29 783.889L1245.82 780.163C1244.14 772.259 1249.21 764.457 1257.11 762.776L1278.54 758.221C1297.34 754.225 1309.35 735.733 1305.35 716.935L1297.07 677.972L1209.72 696.539Z" fill="#FFCB46"/>
<path d="M137.824 663.993L150.521 723.73L237.872 705.163L219.305 617.812L159.568 630.509C144.317 633.751 134.582 648.742 137.824 663.993ZM203.293 676.767C198.1 692.699 185.707 702.906 175.528 699.615C165.349 696.324 161.341 680.706 166.494 664.836C171.686 648.904 184.08 638.697 194.259 641.988C204.437 645.279 208.445 660.897 203.293 676.767Z" fill="#E16877"/>
<path d="M224.625 616.681L243.192 704.032L330.543 685.465L317.845 625.728C314.603 610.477 299.613 600.742 284.362 603.984L224.625 616.681ZM304.851 649.302L287.725 652.942L302.409 662.478C304.252 663.675 304.769 666.107 303.572 667.95C302.375 669.793 299.943 670.31 298.1 669.113L283.416 659.577L287.056 676.703C287.509 678.831 286.152 680.92 284.024 681.372C281.896 681.824 279.807 680.468 279.355 678.34L275.715 661.214L266.179 675.898C264.982 677.741 262.55 678.258 260.707 677.061C258.864 675.864 258.347 673.432 259.544 671.589L269.08 656.905L251.954 660.546C249.826 660.998 247.737 659.641 247.285 657.513C246.832 655.385 248.189 653.296 250.317 652.844L267.443 649.204L252.759 639.668C250.916 638.471 250.399 636.039 251.596 634.196C252.793 632.353 255.225 631.836 257.068 633.033L271.751 642.569L268.111 625.443C267.659 623.315 269.016 621.226 271.144 620.774C273.272 620.322 275.36 621.678 275.813 623.806L279.453 640.932L288.988 626.248C290.185 624.405 292.617 623.888 294.461 625.085C296.304 626.282 296.821 628.714 295.624 630.557L286.088 645.241L303.214 641.601C305.342 641.148 307.431 642.505 307.883 644.633C308.335 646.761 306.979 648.85 304.851 649.302Z" fill="#C60B16"/>
<path d="M151.563 728.63L164.26 788.366C167.502 803.617 182.493 813.352 197.744 810.111L257.481 797.413L238.914 710.063L151.563 728.63ZM232.051 777.929C230.138 783.631 225.179 787.704 219.402 788.932C216.666 789.513 213.689 789.458 210.814 788.639C208.724 788.024 207.53 785.895 208.094 783.815C208.709 781.725 210.839 780.531 212.918 781.095C217.821 782.489 223.053 779.947 224.533 775.449C225.984 771.063 223.083 766.384 219.577 764.587C218.033 763.803 216.333 763.529 214.709 763.61C214.088 766.919 212.656 771.142 209.407 773.051C206.764 774.566 204.104 774.761 202.099 773.545C198.936 771.623 198.824 767.357 199.486 764.992C200.363 761.893 203.215 759.116 207.349 757.389C207.228 752.332 205.541 748.136 202.896 746.156C200.262 744.227 196.251 743.544 192.281 744.547C187.083 745.757 182.606 749.357 180.116 754.334C179.154 756.286 176.776 757.057 174.874 756.084C172.922 755.122 172.152 752.744 173.125 750.842C176.657 743.79 182.985 738.685 190.502 736.928C196.836 735.582 203.187 736.562 207.606 739.912C211.953 743.172 214.664 748.95 215.163 755.782C218.017 755.757 220.748 756.395 223.181 757.625C229.673 761.012 234.763 769.515 231.949 777.95L232.051 777.929Z" fill="#C60B16"/>
<path d="M244.234 708.932L262.801 796.282L322.538 783.585C337.788 780.343 347.523 765.353 344.282 750.102L331.584 690.365L244.234 708.932ZM310.844 718.604C305.993 726.678 297.856 744.453 305.986 764.014C306.728 765.763 305.39 767.689 303.512 767.823L285.128 769.03C284.032 769.104 283.019 768.578 282.5 767.629C279.585 762.635 272.284 745.229 288.217 716.794C288.674 715.955 289.612 715.385 290.607 715.332L308.264 714.439C310.518 714.331 312.041 716.761 310.865 718.705L310.844 718.604Z" fill="#E16877"/>
<path d="M384.328 582.735C387.796 599.05 380.159 614.442 367.289 617.178C354.42 619.913 341.182 608.958 337.714 592.643L317.346 596.973L335.913 684.323L423.264 665.756L404.697 578.406L384.328 582.735Z" fill="#FFCB46"/>
<path d="M403.937 674.986C407.405 691.301 399.767 706.693 386.898 709.428C374.028 712.164 360.78 701.158 357.323 684.894L336.954 689.223L355.521 776.574L442.872 758.007L424.305 670.656L403.937 674.986Z" fill="#06564E"/>
<path d="M126.584 637.52L39.2336 656.087L57.8006 743.438L75.3315 739.712C73.6515 731.808 78.7185 724.005 86.6226 722.325L102.684 718.911C124.42 714.291 138.356 692.9 133.725 671.113L126.584 637.52Z" fill="#06564E"/>
<path d="M58.842 748.338L77.409 835.689L94.9399 831.962C93.2599 824.058 98.3269 816.256 106.231 814.576L127.663 810.02C146.461 806.025 158.47 787.532 154.475 768.734L146.193 729.771L58.842 748.338Z" fill="#FFCB46"/>
<path d="M216.272 1033.06L228.97 1092.8L316.32 1074.23L297.753 986.883L238.017 999.581C222.766 1002.82 213.031 1017.81 216.272 1033.06ZM281.741 1045.84C276.549 1061.77 264.155 1071.98 253.976 1068.69C243.798 1065.4 239.79 1049.78 244.942 1033.91C250.135 1017.98 262.528 1007.77 272.707 1011.06C282.886 1014.35 286.894 1029.97 281.741 1045.84Z" fill="#E16877"/>
<path d="M303.073 985.753L321.64 1073.1L408.991 1054.54L396.294 994.8C393.052 979.549 378.061 969.814 362.81 973.055L303.073 985.753ZM383.299 1018.37L366.174 1022.01L380.857 1031.55C382.7 1032.75 383.217 1035.18 382.02 1037.02C380.823 1038.86 378.391 1039.38 376.548 1038.18L361.865 1028.65L365.505 1045.77C365.957 1047.9 364.601 1049.99 362.473 1050.44C360.345 1050.9 358.256 1049.54 357.803 1047.41L354.163 1030.29L344.628 1044.97C343.431 1046.81 340.999 1047.33 339.156 1046.13C337.312 1044.94 336.796 1042.5 337.992 1040.66L347.528 1025.98L330.402 1029.62C328.274 1030.07 326.186 1028.71 325.733 1026.58C325.281 1024.46 326.637 1022.37 328.765 1021.92L345.891 1018.28L331.208 1008.74C329.364 1007.54 328.847 1005.11 330.044 1003.27C331.241 1001.42 333.673 1000.91 335.516 1002.1L350.2 1011.64L346.56 994.515C346.107 992.387 347.464 990.298 349.592 989.846C351.72 989.393 353.809 990.75 354.261 992.878L357.901 1010L367.437 995.32C368.634 993.477 371.066 992.96 372.909 994.157C374.752 995.354 375.269 997.786 374.072 999.629L364.537 1014.31L381.662 1010.67C383.79 1010.22 385.879 1011.58 386.331 1013.7C386.784 1015.83 385.427 1017.92 383.299 1018.37Z" fill="#C60B16"/>
<path d="M230.011 1097.7L242.709 1157.44C245.951 1172.69 260.941 1182.42 276.192 1179.18L335.929 1166.48L317.362 1079.13L230.011 1097.7ZM310.499 1147C308.587 1152.7 303.627 1156.78 297.851 1158C295.115 1158.58 292.138 1158.53 289.263 1157.71C287.173 1157.1 285.979 1154.97 286.543 1152.89C287.158 1150.8 289.287 1149.6 291.366 1150.17C296.27 1151.56 301.502 1149.02 302.982 1144.52C304.432 1140.13 301.531 1135.46 298.025 1133.66C296.482 1132.88 294.782 1132.6 293.157 1132.68C292.537 1135.99 291.104 1140.21 287.856 1142.12C285.212 1143.64 282.553 1143.83 280.547 1142.62C277.385 1140.69 277.272 1136.43 277.935 1134.06C278.812 1130.96 281.663 1128.19 285.798 1126.46C285.676 1121.4 283.99 1117.21 281.345 1115.23C278.711 1113.3 274.7 1112.62 270.729 1113.62C265.532 1114.83 261.054 1118.43 258.564 1123.41C257.602 1125.36 255.224 1126.13 253.323 1125.16C251.371 1124.19 250.6 1121.82 251.573 1119.91C255.105 1112.86 261.434 1107.76 268.951 1106C275.284 1104.65 281.636 1105.63 286.055 1108.98C290.402 1112.24 293.113 1118.02 293.611 1124.85C296.466 1124.83 299.196 1125.47 301.629 1126.7C308.121 1130.08 313.212 1138.59 310.398 1147.02L310.499 1147Z" fill="#C60B16"/>
<path d="M322.682 1078L341.249 1165.35L400.986 1152.66C416.237 1149.41 425.972 1134.42 422.73 1119.17L410.033 1059.44L322.682 1078ZM389.292 1087.68C384.442 1095.75 376.305 1113.53 384.434 1133.09C385.177 1134.83 383.838 1136.76 381.961 1136.89L363.576 1138.1C362.48 1138.18 361.468 1137.65 360.949 1136.7C358.034 1131.71 350.733 1114.3 366.666 1085.87C367.123 1085.03 368.061 1084.46 369.056 1084.4L386.712 1083.51C388.966 1083.4 390.489 1085.83 389.314 1087.78L389.292 1087.68Z" fill="#E16877"/>
<path d="M462.777 951.807C466.245 968.122 458.607 983.514 445.738 986.249C432.868 988.985 419.631 978.03 416.163 961.715L395.794 966.044L414.361 1053.39L501.712 1034.83L483.145 947.477L462.777 951.807Z" fill="#FFCB46"/>
<path d="M482.385 1044.06C485.853 1060.37 478.216 1075.76 465.346 1078.5C452.477 1081.24 439.228 1070.23 435.771 1053.97L415.403 1058.29L433.97 1145.65L521.32 1127.08L502.754 1039.73L482.385 1044.06Z" fill="#06564E"/>
<path d="M205.033 1006.59L117.682 1025.16L136.249 1112.51L153.78 1108.78C152.1 1100.88 157.167 1093.08 165.071 1091.4L181.133 1087.98C202.869 1083.36 216.804 1061.97 212.173 1040.18L205.033 1006.59Z" fill="#06564E"/>
<path d="M137.291 1117.41L155.857 1204.76L173.388 1201.03C171.708 1193.13 176.775 1185.33 184.679 1183.65L206.112 1179.09C224.909 1175.1 236.919 1156.6 232.923 1137.81L224.641 1098.84L137.291 1117.41Z" fill="#FFCB46"/>
<path d="M1249.49 427.701L1262.18 487.438L1349.54 468.871L1330.97 381.521L1271.23 394.218C1255.98 397.46 1246.25 412.451 1249.49 427.701ZM1314.96 440.476C1309.76 456.407 1297.37 466.614 1287.19 463.323C1277.01 460.032 1273 444.415 1278.16 428.545C1283.35 412.613 1295.74 402.406 1305.92 405.697C1316.1 408.988 1320.11 424.606 1314.96 440.476Z" fill="#E16877"/>
<path d="M1336.29 380.39L1354.86 467.741L1442.21 449.174L1429.51 389.437C1426.27 374.186 1411.28 364.451 1396.03 367.692L1336.29 380.39ZM1416.51 413.011L1399.39 416.651L1414.07 426.186C1415.92 427.383 1416.43 429.815 1415.24 431.658C1414.04 433.502 1411.61 434.019 1409.76 432.822L1395.08 423.286L1398.72 440.412C1399.17 442.54 1397.82 444.629 1395.69 445.081C1393.56 445.533 1391.47 444.177 1391.02 442.049L1387.38 424.923L1377.84 439.607C1376.65 441.45 1374.21 441.967 1372.37 440.77C1370.53 439.573 1370.01 437.141 1371.21 435.298L1380.74 420.614L1363.62 424.254C1361.49 424.707 1359.4 423.35 1358.95 421.222C1358.5 419.094 1359.85 417.005 1361.98 416.553L1379.11 412.913L1364.42 403.377C1362.58 402.18 1362.06 399.748 1363.26 397.905C1364.46 396.062 1366.89 395.545 1368.73 396.742L1383.42 406.277L1379.77 389.152C1379.32 387.024 1380.68 384.935 1382.81 384.483C1384.94 384.03 1387.02 385.387 1387.48 387.515L1391.12 404.64L1400.65 389.957C1401.85 388.114 1404.28 387.597 1406.12 388.794C1407.97 389.991 1408.48 392.423 1407.29 394.266L1397.75 408.949L1414.88 405.309C1417.01 404.857 1419.09 406.213 1419.55 408.341C1420 410.469 1418.64 412.558 1416.51 413.011Z" fill="#C60B16"/>
<path d="M1263.23 492.338L1275.92 552.075C1279.17 567.326 1294.16 577.061 1309.41 573.819L1369.14 561.122L1350.58 473.771L1263.23 492.338ZM1343.71 541.638C1341.8 547.34 1336.84 551.413 1331.07 552.64C1328.33 553.222 1325.35 553.166 1322.48 552.348C1320.39 551.733 1319.19 549.603 1319.76 547.524C1320.37 545.434 1322.5 544.24 1324.58 544.804C1329.48 546.198 1334.72 543.656 1336.2 539.158C1337.65 534.772 1334.75 530.093 1331.24 528.296C1329.7 527.512 1328 527.238 1326.37 527.319C1325.75 530.628 1324.32 534.851 1321.07 536.76C1318.43 538.275 1315.77 538.469 1313.76 537.254C1310.6 535.331 1310.49 531.066 1311.15 528.701C1312.03 525.602 1314.88 522.824 1319.01 521.098C1318.89 516.04 1317.2 511.844 1314.56 509.865C1311.93 507.936 1307.91 507.253 1303.94 508.255C1298.75 509.466 1294.27 513.066 1291.78 518.043C1290.82 519.995 1288.44 520.765 1286.54 519.793C1284.59 518.831 1283.82 516.453 1284.79 514.551C1288.32 507.499 1294.65 502.394 1302.17 500.637C1308.5 499.291 1314.85 500.271 1319.27 503.621C1323.62 506.881 1326.33 512.659 1326.83 519.49C1329.68 519.466 1332.41 520.104 1334.84 521.334C1341.34 524.72 1346.43 533.223 1343.61 541.659L1343.71 541.638Z" fill="#C60B16"/>
<path d="M1355.9 472.641L1374.46 559.991L1434.2 547.294C1449.45 544.052 1459.19 529.061 1455.95 513.81L1443.25 454.074L1355.9 472.641ZM1422.51 482.313C1417.66 490.387 1409.52 508.162 1417.65 527.723C1418.39 529.471 1417.05 531.398 1415.18 531.532L1396.79 532.739C1395.69 532.813 1394.68 532.287 1394.16 531.338C1391.25 526.344 1383.95 508.938 1399.88 480.502C1400.34 479.664 1401.28 479.094 1402.27 479.041L1419.93 478.148C1422.18 478.039 1423.7 480.469 1422.53 482.414L1422.51 482.313Z" fill="#E16877"/>
<path d="M1495.99 346.444C1499.46 362.759 1491.82 378.151 1478.95 380.886C1466.08 383.622 1452.85 372.667 1449.38 356.352L1429.01 360.681L1447.58 448.032L1534.93 429.465L1516.36 342.114L1495.99 346.444Z" fill="#FFCB46"/>
<path d="M1515.6 438.695C1519.07 455.01 1511.43 470.402 1498.56 473.137C1485.69 475.873 1472.44 464.867 1468.99 448.603L1448.62 452.932L1467.18 540.283L1554.54 521.716L1535.97 434.365L1515.6 438.695Z" fill="#06564E"/>
<path d="M1238.25 401.229L1150.9 419.796L1169.46 507.147L1186.99 503.42C1185.31 495.516 1190.38 487.714 1198.29 486.034L1214.35 482.62C1236.08 477.999 1250.02 456.609 1245.39 434.822L1238.25 401.229Z" fill="#06564E"/>
<path d="M1170.51 512.047L1189.07 599.397L1206.6 595.671C1204.92 587.767 1209.99 579.964 1217.89 578.284L1239.33 573.729C1258.12 569.733 1270.13 551.241 1266.14 532.443L1257.86 493.48L1170.51 512.047Z" fill="#FFCB46"/>
<path d="M1327.94 796.773L1340.63 856.51L1427.98 837.943L1409.42 750.592L1349.68 763.29C1334.43 766.531 1324.69 781.522 1327.94 796.773ZM1393.4 809.547C1388.21 825.479 1375.82 835.686 1365.64 832.395C1355.46 829.104 1351.45 813.486 1356.61 797.616C1361.8 781.685 1374.19 771.478 1384.37 774.769C1394.55 778.06 1398.56 793.677 1393.4 809.547Z" fill="#E16877"/>
<path d="M1414.74 749.461L1433.3 836.812L1520.65 818.245L1507.96 758.508C1504.72 743.257 1489.72 733.522 1474.47 736.764L1414.74 749.461ZM1494.96 782.082L1477.84 785.722L1492.52 795.258C1494.36 796.455 1494.88 798.887 1493.68 800.73C1492.49 802.573 1490.05 803.09 1488.21 801.893L1473.53 792.358L1477.17 809.483C1477.62 811.611 1476.26 813.7 1474.14 814.152C1472.01 814.605 1469.92 813.248 1469.47 811.12L1465.83 793.995L1456.29 808.678C1455.09 810.521 1452.66 811.038 1450.82 809.841C1448.98 808.644 1448.46 806.212 1449.66 804.369L1459.19 789.686L1442.07 793.326C1439.94 793.778 1437.85 792.422 1437.4 790.294C1436.94 788.166 1438.3 786.077 1440.43 785.624L1457.55 781.984L1442.87 772.449C1441.03 771.252 1440.51 768.82 1441.71 766.977C1442.9 765.133 1445.34 764.616 1447.18 765.813L1461.86 775.349L1458.22 758.223C1457.77 756.095 1459.13 754.006 1461.26 753.554C1463.38 753.102 1465.47 754.458 1465.92 756.586L1469.56 773.712L1479.1 759.028C1480.3 757.185 1482.73 756.668 1484.57 757.865C1486.42 759.062 1486.93 761.494 1485.74 763.337L1476.2 778.021L1493.33 774.381C1495.45 773.928 1497.54 775.285 1497.99 777.413C1498.45 779.541 1497.09 781.63 1494.96 782.082Z" fill="#C60B16"/>
<path d="M1341.67 861.41L1354.37 921.147C1357.61 936.398 1372.6 946.133 1387.86 942.891L1447.59 930.193L1429.02 842.843L1341.67 861.41ZM1422.16 910.709C1420.25 916.411 1415.29 920.484 1409.51 921.712C1406.78 922.293 1403.8 922.238 1400.93 921.419C1398.84 920.804 1397.64 918.675 1398.21 916.596C1398.82 914.506 1400.95 913.312 1403.03 913.876C1407.93 915.269 1413.16 912.728 1414.64 908.229C1416.1 903.843 1413.19 899.164 1409.69 897.368C1408.14 896.584 1406.44 896.31 1404.82 896.39C1404.2 899.699 1402.77 903.923 1399.52 905.831C1396.88 907.346 1394.22 907.541 1392.21 906.326C1389.05 904.403 1388.94 900.137 1389.6 897.772C1390.47 894.673 1393.33 891.896 1397.46 890.17C1397.34 885.112 1395.65 880.916 1393.01 878.936C1390.37 877.007 1386.36 876.324 1382.39 877.327C1377.19 878.537 1372.72 882.137 1370.23 887.115C1369.27 889.067 1366.89 889.837 1364.99 888.864C1363.03 887.902 1362.26 885.524 1363.24 883.623C1366.77 876.57 1373.1 871.465 1380.61 869.708C1386.95 868.362 1393.3 869.342 1397.72 872.692C1402.06 875.952 1404.78 881.731 1405.27 888.562C1408.13 888.538 1410.86 889.175 1413.29 890.406C1419.78 893.792 1424.87 902.295 1422.06 910.731L1422.16 910.709Z" fill="#C60B16"/>
<path d="M1434.35 841.712L1452.91 929.063L1512.65 916.365C1527.9 913.124 1537.64 898.133 1534.39 882.882L1521.7 823.145L1434.35 841.712ZM1500.96 851.384C1496.1 859.458 1487.97 877.234 1496.1 896.794C1496.84 898.543 1495.5 900.469 1493.62 900.603L1475.24 901.81C1474.14 901.884 1473.13 901.358 1472.61 900.41C1469.7 895.416 1462.4 878.009 1478.33 849.574C1478.79 848.735 1479.72 848.165 1480.72 848.113L1498.38 847.219C1500.63 847.111 1502.15 849.541 1500.98 851.485L1500.96 851.384Z" fill="#E16877"/>
<path d="M1574.44 715.515C1577.91 731.83 1570.27 747.222 1557.4 749.958C1544.53 752.693 1531.29 741.738 1527.83 725.424L1507.46 729.753L1526.02 817.104L1613.38 798.537L1594.81 711.186L1574.44 715.515Z" fill="#FFCB46"/>
<path d="M1594.05 807.766C1597.52 824.081 1589.88 839.473 1577.01 842.209C1564.14 844.944 1550.89 833.938 1547.43 817.674L1527.07 822.004L1545.63 909.354L1632.98 890.787L1614.42 803.437L1594.05 807.766Z" fill="#06564E"/>
<path d="M1316.7 770.301L1229.35 788.868L1247.91 876.218L1265.44 872.492C1263.76 864.588 1268.83 856.785 1276.73 855.105L1292.8 851.691C1314.53 847.071 1328.47 825.68 1323.84 803.893L1316.7 770.301Z" fill="#06564E"/>
<path d="M1248.95 881.118L1267.52 968.469L1285.05 964.743C1283.37 956.839 1288.44 949.036 1296.34 947.356L1317.77 942.8C1336.57 938.805 1348.58 920.312 1344.59 901.515L1336.3 862.551L1248.95 881.118Z" fill="#FFCB46"/>
<path d="M469.26 400.625L481.957 460.362L569.308 441.795L550.741 354.444L491.004 367.142C475.753 370.383 466.018 385.374 469.26 400.625ZM534.728 413.399C529.536 429.331 517.142 439.538 506.964 436.247C496.785 432.956 492.777 417.338 497.93 401.468C503.122 385.537 515.516 375.33 525.694 378.621C535.873 381.912 539.881 397.529 534.728 413.399Z" fill="#E16877"/>
<path d="M556.061 353.313L574.628 440.664L661.979 422.097L649.281 362.36C646.04 347.109 631.049 337.374 615.798 340.616L556.061 353.313ZM636.287 385.934L619.161 389.574L633.845 399.11C635.688 400.307 636.205 402.739 635.008 404.582C633.811 406.425 631.379 406.942 629.536 405.745L614.852 396.21L618.492 413.335C618.945 415.463 617.588 417.552 615.46 418.004C613.332 418.457 611.243 417.1 610.791 414.972L607.151 397.847L597.615 412.53C596.418 414.373 593.986 414.89 592.143 413.693C590.3 412.496 589.783 410.064 590.98 408.221L600.516 393.538L583.39 397.178C581.262 397.63 579.173 396.274 578.721 394.146C578.268 392.018 579.625 389.929 581.753 389.476L598.879 385.836L584.195 376.301C582.352 375.104 581.835 372.672 583.032 370.829C584.229 368.985 586.661 368.469 588.504 369.665L603.187 379.201L599.547 362.075C599.095 359.947 600.452 357.859 602.58 357.406C604.708 356.954 606.796 358.31 607.249 360.438L610.889 377.564L620.425 362.881C621.621 361.037 624.053 360.52 625.897 361.717C627.74 362.914 628.257 365.346 627.06 367.19L617.524 381.873L634.65 378.233C636.778 377.781 638.867 379.137 639.319 381.265C639.771 383.393 638.415 385.482 636.287 385.934Z" fill="#C60B16"/>
<path d="M482.999 465.262L495.696 524.999C498.938 540.25 513.928 549.985 529.179 546.743L588.916 534.046L570.349 446.695L482.999 465.262ZM563.486 514.561C561.574 520.263 556.614 524.336 550.838 525.564C548.102 526.145 545.125 526.09 542.25 525.271C540.16 524.656 538.966 522.527 539.53 520.448C540.145 518.358 542.274 517.164 544.353 517.728C549.257 519.122 554.489 516.58 555.969 512.081C557.419 507.695 554.518 503.016 551.012 501.22C549.469 500.436 547.769 500.162 546.144 500.242C545.524 503.551 544.091 507.775 540.843 509.683C538.199 511.198 535.54 511.393 533.534 510.178C530.372 508.255 530.259 503.989 530.922 501.624C531.799 498.525 534.651 495.748 538.785 494.022C538.663 488.964 536.977 484.768 534.332 482.788C531.698 480.859 527.687 480.176 523.716 481.179C518.519 482.39 514.041 485.989 511.551 490.967C510.589 492.919 508.211 493.689 506.31 492.716C504.358 491.754 503.588 489.376 504.56 487.475C508.092 480.422 514.421 475.317 521.938 473.56C528.271 472.214 534.623 473.194 539.042 476.544C543.389 479.804 546.1 485.583 546.599 492.414C549.453 492.39 552.183 493.027 554.616 494.258C561.108 497.644 566.199 506.147 563.385 514.583L563.486 514.561Z" fill="#C60B16"/>
<path d="M575.669 445.564L594.236 532.915L653.973 520.217C669.224 516.976 678.959 501.985 675.718 486.734L663.02 426.997L575.669 445.564ZM642.279 455.236C637.429 463.31 629.292 481.086 637.422 500.646C638.164 502.395 636.826 504.321 634.948 504.455L616.564 505.662C615.467 505.737 614.455 505.21 613.936 504.262C611.021 499.268 603.72 481.861 619.653 453.426C620.11 452.587 621.048 452.017 622.043 451.965L639.7 451.071C641.954 450.963 643.476 453.393 642.301 455.338L642.279 455.236Z" fill="#E16877"/>
<path d="M715.764 319.367C719.232 335.682 711.595 351.074 698.725 353.81C685.856 356.545 672.618 345.59 669.15 329.276L648.782 333.605L667.349 420.956L754.699 402.389L736.132 315.038L715.764 319.367Z" fill="#FFCB46"/>
<path d="M735.372 411.618C738.84 427.933 731.203 443.325 718.333 446.061C705.464 448.796 692.216 437.791 688.758 421.526L668.39 425.856L686.957 513.206L774.308 494.639L755.741 407.289L735.372 411.618Z" fill="#06564E"/>
<path d="M458.02 374.153L370.669 392.72L389.236 480.07L406.767 476.344C405.087 468.44 410.154 460.637 418.058 458.957L434.12 455.543C455.856 450.923 469.791 429.532 465.16 407.745L458.02 374.153Z" fill="#06564E"/>
<path d="M390.278 484.97L408.845 572.321L426.376 568.595C424.696 560.691 429.763 552.888 437.667 551.208L459.099 546.652C477.897 542.657 489.906 524.164 485.91 505.367L477.628 466.403L390.278 484.97Z" fill="#FFCB46"/>
<path d="M547.708 769.697L560.406 829.434L647.756 810.867L629.19 723.516L569.453 736.213C554.202 739.455 544.467 754.446 547.708 769.697ZM613.177 782.471C607.985 798.403 595.591 808.61 585.412 805.319C575.234 802.028 571.226 786.41 576.378 770.54C581.571 754.608 593.964 744.401 604.143 747.692C614.322 750.983 618.33 766.601 613.177 782.471Z" fill="#E16877"/>
<path d="M634.51 722.385L653.077 809.736L740.427 791.169L727.73 731.432C724.488 716.181 709.498 706.446 694.247 709.688L634.51 722.385ZM714.735 755.006L697.61 758.646L712.293 768.182C714.136 769.379 714.653 771.811 713.456 773.654C712.26 775.497 709.828 776.014 707.984 774.817L693.301 765.281L696.941 782.407C697.393 784.535 696.037 786.624 693.909 787.076C691.781 787.528 689.692 786.172 689.24 784.044L685.599 766.918L676.064 781.602C674.867 783.445 672.435 783.962 670.592 782.765C668.749 781.568 668.232 779.136 669.429 777.293L678.964 762.609L661.839 766.249C659.711 766.702 657.622 765.345 657.169 763.217C656.717 761.089 658.074 759 660.202 758.548L677.327 754.908L662.644 745.372C660.801 744.175 660.284 741.743 661.481 739.9C662.678 738.057 665.11 737.54 666.953 738.737L681.636 748.273L677.996 731.147C677.544 729.019 678.9 726.93 681.028 726.478C683.156 726.026 685.245 727.382 685.698 729.51L689.338 746.636L698.873 731.952C700.07 730.109 702.502 729.592 704.345 730.789C706.188 731.986 706.705 734.418 705.508 736.261L695.973 750.945L713.098 747.304C715.227 746.852 717.315 748.209 717.768 750.337C718.22 752.465 716.864 754.554 714.735 755.006Z" fill="#C60B16"/>
<path d="M561.447 834.333L574.145 894.07C577.386 909.321 592.377 919.056 607.628 915.815L667.365 903.117L648.798 815.767L561.447 834.333ZM641.935 883.633C640.022 889.335 635.063 893.408 629.287 894.636C626.551 895.217 623.573 895.162 620.699 894.343C618.608 893.728 617.414 891.599 617.979 889.519C618.594 887.429 620.723 886.235 622.802 886.799C627.706 888.193 632.938 885.651 634.417 881.153C635.868 876.767 632.967 872.088 629.461 870.291C627.917 869.507 626.217 869.233 624.593 869.314C623.972 872.623 622.54 876.846 619.292 878.755C616.648 880.27 613.989 880.465 611.983 879.249C608.82 877.327 608.708 873.061 609.37 870.696C610.247 867.597 613.099 864.82 617.234 863.093C617.112 858.036 615.426 853.84 612.781 851.86C610.146 849.931 606.135 849.248 602.165 850.251C596.968 851.461 592.49 855.061 590 860.038C589.038 861.99 586.66 862.761 584.759 861.788C582.807 860.826 582.036 858.448 583.009 856.546C586.541 849.494 592.87 844.389 600.387 842.632C606.72 841.286 613.071 842.266 617.49 845.616C621.837 848.876 624.548 854.654 625.047 861.486C627.902 861.461 630.632 862.099 633.065 863.329C639.557 866.716 644.648 875.219 641.833 883.654L641.935 883.633Z" fill="#C60B16"/>
<path d="M654.118 814.636L672.685 901.986L732.422 889.289C747.673 886.047 757.408 871.057 754.166 855.806L741.469 796.069L654.118 814.636ZM720.728 824.308C715.878 832.382 707.741 850.157 715.87 869.718C716.613 871.467 715.274 873.393 713.397 873.527L695.012 874.734C693.916 874.808 692.904 874.282 692.385 873.333C689.47 868.339 682.169 850.933 698.102 822.498C698.559 821.659 699.497 821.089 700.492 821.036L718.148 820.143C720.402 820.035 721.925 822.465 720.75 824.409L720.728 824.308Z" fill="#E16877"/>
<path d="M794.213 688.439C797.681 704.754 790.043 720.146 777.174 722.882C764.304 725.617 751.067 714.662 747.599 698.347L727.23 702.677L745.797 790.027L833.148 771.46L814.581 684.11L794.213 688.439Z" fill="#FFCB46"/>
<path d="M813.821 780.69C817.289 797.005 809.652 812.397 796.782 815.132C783.913 817.868 770.664 806.862 767.207 790.598L746.839 794.927L765.406 882.278L852.757 863.711L834.19 776.36L813.821 780.69Z" fill="#06564E"/>
<path d="M536.469 743.224L449.118 761.791L467.685 849.142L485.216 845.416C483.536 837.511 488.603 829.709 496.507 828.029L512.569 824.615C534.305 819.995 548.24 798.604 543.609 776.817L536.469 743.224Z" fill="#06564E"/>
<path d="M468.727 854.042L487.294 941.393L504.824 937.666C503.144 929.762 508.211 921.96 516.116 920.28L537.548 915.724C556.345 911.729 568.355 893.236 564.359 874.438L556.077 835.475L468.727 854.042Z" fill="#FFCB46"/>
<path d="M1580.92 164.334L1593.62 224.071L1680.97 205.504L1662.4 118.153L1602.67 130.85C1587.42 134.092 1577.68 149.083 1580.92 164.334ZM1646.39 177.108C1641.2 193.04 1628.81 203.247 1618.63 199.956C1608.45 196.665 1604.44 181.047 1609.59 165.177C1614.79 149.245 1627.18 139.038 1637.36 142.329C1647.54 145.62 1651.54 161.238 1646.39 177.108Z" fill="#E16877"/>
<path d="M1667.72 117.022L1686.29 204.373L1773.64 185.806L1760.94 126.069C1757.7 110.818 1742.71 101.083 1727.46 104.325L1667.72 117.022ZM1747.95 149.643L1730.82 153.283L1745.51 162.819C1747.35 164.016 1747.87 166.448 1746.67 168.291C1745.47 170.134 1743.04 170.651 1741.2 169.454L1726.52 159.918L1730.16 177.044C1730.61 179.172 1729.25 181.261 1727.12 181.713C1725 182.166 1722.91 180.809 1722.45 178.681L1718.81 161.555L1709.28 176.239C1708.08 178.082 1705.65 178.599 1703.81 177.402C1701.96 176.205 1701.45 173.773 1702.64 171.93L1712.18 157.246L1695.05 160.887C1692.93 161.339 1690.84 159.982 1690.38 157.854C1689.93 155.726 1691.29 153.637 1693.42 153.185L1710.54 149.545L1695.86 140.009C1694.02 138.812 1693.5 136.38 1694.7 134.537C1695.89 132.694 1698.32 132.177 1700.17 133.374L1714.85 142.91L1711.21 125.784C1710.76 123.656 1712.11 121.567 1714.24 121.115C1716.37 120.663 1718.46 122.019 1718.91 124.147L1722.55 141.273L1732.09 126.589C1733.28 124.746 1735.72 124.229 1737.56 125.426C1739.4 126.623 1739.92 129.055 1738.72 130.898L1729.19 145.582L1746.31 141.942C1748.44 141.489 1750.53 142.846 1750.98 144.974C1751.43 147.102 1750.08 149.191 1747.95 149.643Z" fill="#C60B16"/>
<path d="M1594.66 228.971L1607.36 288.707C1610.6 303.958 1625.59 313.693 1640.84 310.452L1700.58 297.754L1682.01 210.404L1594.66 228.971ZM1675.15 278.27C1673.24 283.972 1668.28 288.045 1662.5 289.273C1659.77 289.854 1656.79 289.799 1653.91 288.98C1651.82 288.365 1650.63 286.236 1651.19 284.156C1651.81 282.066 1653.94 280.872 1656.02 281.437C1660.92 282.83 1666.15 280.288 1667.63 275.79C1669.08 271.404 1666.18 266.725 1662.68 264.929C1661.13 264.145 1659.43 263.87 1657.81 263.951C1657.19 267.26 1655.75 271.483 1652.51 273.392C1649.86 274.907 1647.2 275.102 1645.2 273.886C1642.03 271.964 1641.92 267.698 1642.58 265.333C1643.46 262.234 1646.31 259.457 1650.45 257.731C1650.33 252.673 1648.64 248.477 1645.99 246.497C1643.36 244.568 1639.35 243.885 1635.38 244.888C1630.18 246.098 1625.7 249.698 1623.21 254.675C1622.25 256.627 1619.87 257.398 1617.97 256.425C1616.02 255.463 1615.25 253.085 1616.22 251.184C1619.76 244.131 1626.08 239.026 1633.6 237.269C1639.93 235.923 1646.29 236.903 1650.7 240.253C1655.05 243.513 1657.76 249.291 1658.26 256.123C1661.12 256.098 1663.85 256.736 1666.28 257.967C1672.77 261.353 1677.86 269.856 1675.05 278.292L1675.15 278.27Z" fill="#C60B16"/>
<path d="M1687.33 209.273L1705.9 296.623L1765.64 283.926C1780.89 280.684 1790.62 265.694 1787.38 250.443L1774.68 190.706L1687.33 209.273ZM1753.94 218.945C1749.09 227.019 1740.96 244.795 1749.08 264.355C1749.83 266.104 1748.49 268.03 1746.61 268.164L1728.23 269.371C1727.13 269.445 1726.12 268.919 1725.6 267.97C1722.68 262.976 1715.38 245.57 1731.32 217.135C1731.77 216.296 1732.71 215.726 1733.71 215.673L1751.36 214.78C1753.62 214.672 1755.14 217.102 1753.96 219.046L1753.94 218.945Z" fill="#E16877"/>
<path d="M1827.43 83.0762C1830.9 99.3911 1823.26 114.783 1810.39 117.519C1797.52 120.254 1784.28 109.299 1780.81 92.9843L1760.44 97.3137L1779.01 184.664L1866.36 166.097L1847.8 78.7468L1827.43 83.0762Z" fill="#FFCB46"/>
<path d="M1847.04 175.327C1850.5 191.642 1842.87 207.034 1830 209.769C1817.13 212.505 1803.88 201.499 1800.42 185.235L1780.05 189.564L1798.62 276.915L1885.97 258.348L1867.4 170.997L1847.04 175.327Z" fill="#06564E"/>
<path d="M1569.68 137.861L1482.33 156.428L1500.9 243.779L1518.43 240.053C1516.75 232.149 1521.82 224.346 1529.72 222.666L1545.78 219.252C1567.52 214.632 1581.45 193.241 1576.82 171.454L1569.68 137.861Z" fill="#06564E"/>
<path d="M1501.94 248.679L1520.51 336.03L1538.04 332.303C1536.36 324.399 1541.43 316.597 1549.33 314.917L1570.76 310.361C1589.56 306.366 1601.57 287.873 1597.57 269.075L1589.29 230.112L1501.94 248.679Z" fill="#FFCB46"/>
<path d="M1659.37 533.405L1672.07 593.142L1759.42 574.575L1740.85 487.225L1681.12 499.922C1665.86 503.164 1656.13 518.154 1659.37 533.405ZM1724.84 546.18C1719.65 562.111 1707.25 572.318 1697.08 569.027C1686.9 565.736 1682.89 550.119 1688.04 534.249C1693.23 518.317 1705.63 508.11 1715.81 511.401C1725.98 514.692 1729.99 530.309 1724.84 546.18Z" fill="#E16877"/>
<path d="M1746.17 486.094L1764.74 573.444L1852.09 554.877L1839.39 495.141C1836.15 479.89 1821.16 470.155 1805.91 473.396L1746.17 486.094ZM1826.4 518.715L1809.27 522.355L1823.96 531.89C1825.8 533.087 1826.32 535.519 1825.12 537.362C1823.92 539.205 1821.49 539.722 1819.65 538.525L1804.96 528.99L1808.6 546.116C1809.06 548.244 1807.7 550.332 1805.57 550.785C1803.44 551.237 1801.36 549.881 1800.9 547.753L1797.26 530.627L1787.73 545.31C1786.53 547.153 1784.1 547.67 1782.25 546.474C1780.41 545.277 1779.89 542.845 1781.09 541.001L1790.63 526.318L1773.5 529.958C1771.37 530.41 1769.28 529.054 1768.83 526.926C1768.38 524.798 1769.74 522.709 1771.86 522.257L1788.99 518.617L1774.31 509.081C1772.46 507.884 1771.95 505.452 1773.14 503.609C1774.34 501.766 1776.77 501.249 1778.62 502.446L1793.3 511.981L1789.66 494.856C1789.21 492.728 1790.56 490.639 1792.69 490.186C1794.82 489.734 1796.91 491.091 1797.36 493.219L1801 510.344L1810.54 495.661C1811.73 493.818 1814.17 493.301 1816.01 494.498C1817.85 495.695 1818.37 498.127 1817.17 499.97L1807.64 514.653L1824.76 511.013C1826.89 510.561 1828.98 511.917 1829.43 514.045C1829.88 516.173 1828.53 518.262 1826.4 518.715Z" fill="#C60B16"/>
<path d="M1673.11 598.042L1685.81 657.779C1689.05 673.03 1704.04 682.765 1719.29 679.523L1779.03 666.826L1760.46 579.475L1673.11 598.042ZM1753.6 647.342C1751.69 653.044 1746.73 657.116 1740.95 658.344C1738.21 658.926 1735.24 658.87 1732.36 658.051C1730.27 657.437 1729.08 655.307 1729.64 653.228C1730.26 651.138 1732.39 649.944 1734.47 650.508C1739.37 651.902 1744.6 649.36 1746.08 644.862C1747.53 640.476 1744.63 635.797 1741.12 634C1739.58 633.216 1737.88 632.942 1736.26 633.022C1735.64 636.332 1734.2 640.555 1730.95 642.463C1728.31 643.979 1725.65 644.173 1723.65 642.958C1720.48 641.035 1720.37 636.77 1721.03 634.405C1721.91 631.306 1724.76 628.528 1728.9 626.802C1728.77 621.744 1727.09 617.548 1724.44 615.569C1721.81 613.64 1717.8 612.956 1713.83 613.959C1708.63 615.17 1704.15 618.769 1701.66 623.747C1700.7 625.699 1698.32 626.469 1696.42 625.497C1694.47 624.535 1693.7 622.156 1694.67 620.255C1698.2 613.203 1704.53 608.097 1712.05 606.341C1718.38 604.994 1724.73 605.975 1729.15 609.325C1733.5 612.584 1736.21 618.363 1736.71 625.194C1739.56 625.17 1742.3 625.808 1744.73 627.038C1751.22 630.424 1756.31 638.927 1753.5 647.363L1753.6 647.342Z" fill="#C60B16"/>
<path d="M1765.78 578.344L1784.35 665.695L1844.09 652.998C1859.34 649.756 1869.07 634.765 1865.83 619.514L1853.13 559.777L1765.78 578.344ZM1832.39 588.016C1827.54 596.091 1819.4 613.866 1827.53 633.427C1828.28 635.175 1826.94 637.101 1825.06 637.236L1806.68 638.443C1805.58 638.517 1804.57 637.991 1804.05 637.042C1801.13 632.048 1793.83 614.641 1809.76 586.206C1810.22 585.368 1811.16 584.798 1812.15 584.745L1829.81 583.852C1832.07 583.743 1833.59 586.173 1832.41 588.118L1832.39 588.016Z" fill="#E16877"/>
<path d="M1905.88 452.148C1909.34 468.463 1901.71 483.855 1888.84 486.59C1875.97 489.326 1862.73 478.371 1859.26 462.056L1838.89 466.385L1857.46 553.736L1944.81 535.169L1926.24 447.818L1905.88 452.148Z" fill="#FFCB46"/>
<path d="M1925.48 544.398C1928.95 560.713 1921.31 576.105 1908.45 578.841C1895.58 581.576 1882.33 570.571 1878.87 554.307L1858.5 558.636L1877.07 645.987L1964.42 627.42L1945.85 540.069L1925.48 544.398Z" fill="#06564E"/>
<path d="M1648.13 506.933L1560.78 525.5L1579.35 612.851L1596.88 609.124C1595.2 601.22 1600.27 593.418 1608.17 591.738L1624.23 588.324C1645.97 583.703 1659.9 562.312 1655.27 540.525L1648.13 506.933Z" fill="#06564E"/>
<path d="M1580.39 617.751L1598.96 705.101L1616.49 701.375C1614.81 693.471 1619.87 685.668 1627.78 683.988L1649.21 679.433C1668.01 675.437 1680.02 656.945 1676.02 638.147L1667.74 599.184L1580.39 617.751Z" fill="#FFCB46"/>
<path d="M508.493 585.204L521.19 644.941L608.541 626.374L589.974 539.024L530.237 551.721C514.986 554.963 505.251 569.954 508.493 585.204ZM573.962 597.979C568.769 613.91 556.376 624.117 546.197 620.826C536.018 617.535 532.01 601.918 537.163 586.048C542.356 570.116 554.749 559.909 564.928 563.2C575.107 566.491 579.115 582.109 573.962 597.979Z" fill="#E16877"/>
<path d="M595.294 537.893L613.861 625.244L701.212 606.677L688.515 546.94C685.273 531.689 670.282 521.954 655.031 525.195L595.294 537.893ZM675.52 570.514L658.395 574.154L673.078 583.689C674.921 584.886 675.438 587.318 674.241 589.162C673.044 591.005 670.612 591.522 668.769 590.325L654.086 580.789L657.726 597.915C658.178 600.043 656.822 602.132 654.694 602.584C652.566 603.036 650.477 601.68 650.024 599.552L646.384 582.426L636.849 597.11C635.652 598.953 633.22 599.47 631.377 598.273C629.533 597.076 629.016 594.644 630.213 592.801L639.749 578.117L622.623 581.757C620.495 582.21 618.406 580.853 617.954 578.725C617.502 576.597 618.858 574.508 620.986 574.056L638.112 570.416L623.428 560.88C621.585 559.683 621.068 557.251 622.265 555.408C623.462 553.565 625.894 553.048 627.737 554.245L642.421 563.78L638.781 546.655C638.328 544.527 639.685 542.438 641.813 541.986C643.941 541.533 646.03 542.89 646.482 545.018L650.122 562.143L659.658 547.46C660.855 545.617 663.287 545.1 665.13 546.297C666.973 547.494 667.49 549.926 666.293 551.769L656.758 566.452L673.883 562.812C676.011 562.36 678.1 563.716 678.552 565.845C679.005 567.973 677.648 570.061 675.52 570.514Z" fill="#C60B16"/>
<path d="M522.232 649.841L534.929 709.578C538.171 724.829 553.162 734.564 568.413 731.322L628.15 718.625L609.583 631.274L522.232 649.841ZM602.719 699.141C600.807 704.843 595.848 708.916 590.071 710.143C587.335 710.725 584.358 710.669 581.483 709.851C579.393 709.236 578.199 707.106 578.763 705.027C579.378 702.937 581.507 701.743 583.587 702.307C588.49 703.701 593.722 701.159 595.202 696.661C596.653 692.275 593.752 687.596 590.246 685.799C588.702 685.015 587.002 684.741 585.378 684.822C584.757 688.131 583.325 692.354 580.076 694.263C577.433 695.778 574.773 695.972 572.767 694.757C569.605 692.834 569.493 688.569 570.155 686.204C571.032 683.105 573.884 680.327 578.018 678.601C577.896 673.543 576.21 669.347 573.565 667.368C570.931 665.439 566.92 664.756 562.95 665.758C557.752 666.969 553.275 670.569 550.785 675.546C549.823 677.498 547.445 678.269 545.543 677.296C543.591 676.334 542.821 673.956 543.794 672.054C547.325 665.002 553.654 659.897 561.171 658.14C567.505 656.794 573.856 657.774 578.275 661.124C582.622 664.384 585.333 670.162 585.832 676.993C588.686 676.969 591.417 677.607 593.85 678.837C600.342 682.223 605.432 690.727 602.618 699.162L602.719 699.141Z" fill="#C60B16"/>
<path d="M614.903 630.144L633.47 717.494L693.207 704.797C708.458 701.555 718.193 686.564 714.951 671.314L702.254 611.577L614.903 630.144ZM681.513 639.816C676.662 647.89 668.525 665.665 676.655 685.226C677.397 686.974 676.059 688.901 674.181 689.035L655.797 690.242C654.701 690.316 653.689 689.79 653.169 688.841C650.254 683.847 642.953 666.441 658.886 638.005C659.344 637.167 660.281 636.597 661.276 636.544L678.933 635.651C681.187 635.542 682.71 637.973 681.534 639.917L681.513 639.816Z" fill="#E16877"/>
<path d="M754.997 503.947C758.465 520.262 750.828 535.654 737.958 538.389C725.089 541.125 711.851 530.17 708.383 513.855L688.015 518.184L706.582 605.535L793.933 586.968L775.366 499.617L754.997 503.947Z" fill="#FFCB46"/>
<path d="M774.606 596.198C778.074 612.513 770.436 627.905 757.567 630.64C744.697 633.376 731.449 622.37 727.992 606.106L707.624 610.435L726.19 697.786L813.541 679.219L794.974 591.868L774.606 596.198Z" fill="#06564E"/>
<path d="M497.253 558.732L409.903 577.299L428.47 664.65L446.001 660.923C444.321 653.019 449.388 645.217 457.292 643.537L473.353 640.123C495.09 635.503 509.025 614.112 504.394 592.325L497.253 558.732Z" fill="#06564E"/>
<path d="M429.511 669.55L448.078 756.9L465.609 753.174C463.929 745.27 468.996 737.468 476.9 735.787L498.333 731.232C517.13 727.236 529.139 708.744 525.144 689.946L516.862 650.983L429.511 669.55Z" fill="#FFCB46"/>
<path d="M586.942 954.276L599.639 1014.01L686.99 995.446L668.423 908.095L608.686 920.793C593.435 924.035 583.7 939.025 586.942 954.276ZM652.411 967.05C647.218 982.982 634.824 993.189 624.646 989.898C614.467 986.607 610.459 970.99 615.612 955.119C620.804 939.188 633.198 928.981 643.376 932.272C653.555 935.563 657.563 951.18 652.411 967.05Z" fill="#E16877"/>
<path d="M673.743 906.965L692.31 994.315L779.661 975.748L766.963 916.011C763.722 900.76 748.731 891.025 733.48 894.267L673.743 906.965ZM753.969 939.585L736.843 943.226L751.527 952.761C753.37 953.958 753.887 956.39 752.69 958.233C751.493 960.076 749.061 960.593 747.218 959.396L732.534 949.861L736.174 966.986C736.627 969.114 735.27 971.203 733.142 971.656C731.014 972.108 728.925 970.751 728.473 968.623L724.833 951.498L715.297 966.181C714.1 968.024 711.668 968.541 709.825 967.344C707.982 966.147 707.465 963.715 708.662 961.872L718.198 947.189L701.072 950.829C698.944 951.281 696.855 949.925 696.403 947.797C695.951 945.669 697.307 943.58 699.435 943.128L716.561 939.487L701.877 929.952C700.034 928.755 699.517 926.323 700.714 924.48C701.911 922.637 704.343 922.12 706.186 923.317L720.87 932.852L717.229 915.727C716.777 913.599 718.134 911.51 720.262 911.057C722.39 910.605 724.479 911.962 724.931 914.09L728.571 931.215L738.107 916.532C739.304 914.689 741.736 914.172 743.579 915.369C745.422 916.565 745.939 918.998 744.742 920.841L735.206 935.524L752.332 931.884C754.46 931.432 756.549 932.788 757.001 934.916C757.453 937.044 756.097 939.133 753.969 939.585Z" fill="#C60B16"/>
<path d="M600.681 1018.91L613.378 1078.65C616.62 1093.9 631.61 1103.64 646.861 1100.39L706.598 1087.7L688.031 1000.35L600.681 1018.91ZM681.168 1068.21C679.256 1073.91 674.296 1077.99 668.52 1079.22C665.784 1079.8 662.807 1079.74 659.932 1078.92C657.842 1078.31 656.648 1076.18 657.212 1074.1C657.827 1072.01 659.956 1070.81 662.036 1071.38C666.939 1072.77 672.171 1070.23 673.651 1065.73C675.102 1061.35 672.201 1056.67 668.694 1054.87C667.151 1054.09 665.451 1053.81 663.826 1053.89C663.206 1057.2 661.773 1061.43 658.525 1063.33C655.882 1064.85 653.222 1065.04 651.216 1063.83C648.054 1061.91 647.941 1057.64 648.604 1055.28C649.481 1052.18 652.333 1049.4 656.467 1047.67C656.345 1042.62 654.659 1038.42 652.014 1036.44C649.38 1034.51 645.369 1033.83 641.398 1034.83C636.201 1036.04 631.724 1039.64 629.233 1044.62C628.272 1046.57 625.893 1047.34 623.992 1046.37C622.04 1045.41 621.27 1043.03 622.242 1041.13C625.774 1034.07 632.103 1028.97 639.62 1027.21C645.954 1025.87 652.305 1026.85 656.724 1030.2C661.071 1033.46 663.782 1039.23 664.281 1046.07C667.135 1046.04 669.866 1046.68 672.298 1047.91C678.79 1051.3 683.881 1059.8 681.067 1068.23L681.168 1068.21Z" fill="#C60B16"/>
<path d="M693.352 999.215L711.919 1086.57L771.655 1073.87C786.906 1070.63 796.641 1055.64 793.4 1040.39L780.702 980.648L693.352 999.215ZM759.962 1008.89C755.111 1016.96 746.974 1034.74 755.104 1054.3C755.846 1056.05 754.508 1057.97 752.63 1058.11L734.246 1059.31C733.149 1059.39 732.137 1058.86 731.618 1057.91C728.703 1052.92 721.402 1035.51 737.335 1007.08C737.792 1006.24 738.73 1005.67 739.725 1005.62L757.382 1004.72C759.636 1004.61 761.158 1007.04 759.983 1008.99L759.962 1008.89Z" fill="#E16877"/>
<path d="M833.446 873.019C836.914 889.333 829.277 904.726 816.407 907.461C803.538 910.197 790.3 899.242 786.832 882.927L766.464 887.256L785.031 974.607L872.382 956.04L853.815 868.689L833.446 873.019Z" fill="#FFCB46"/>
<path d="M853.055 965.269C856.522 981.584 848.885 996.976 836.016 999.712C823.146 1002.45 809.898 991.442 806.441 975.177L786.072 979.507L804.639 1066.86L891.99 1048.29L873.423 960.94L853.055 965.269Z" fill="#06564E"/>
<path d="M575.702 927.804L488.352 946.371L506.919 1033.72L524.449 1030C522.769 1022.09 527.836 1014.29 535.741 1012.61L551.802 1009.19C573.538 1004.57 587.474 983.183 582.843 961.396L575.702 927.804Z" fill="#06564E"/>
<path d="M507.96 1038.62L526.527 1125.97L544.058 1122.25C542.378 1114.34 547.445 1106.54 555.349 1104.86L576.781 1100.3C595.579 1096.31 607.588 1077.82 603.593 1059.02L595.311 1020.05L507.96 1038.62Z" fill="#FFCB46"/>
<path d="M1620.16 348.913L1632.85 408.65L1720.2 390.083L1701.64 302.732L1641.9 315.43C1626.65 318.672 1616.91 333.662 1620.16 348.913ZM1685.63 361.687C1680.43 377.619 1668.04 387.826 1657.86 384.535C1647.68 381.244 1643.67 365.627 1648.83 349.757C1654.02 333.825 1666.41 323.618 1676.59 326.909C1686.77 330.2 1690.78 345.817 1685.63 361.687Z" fill="#E16877"/>
<path d="M1706.96 301.602L1725.52 388.952L1812.88 370.385L1800.18 310.648C1796.94 295.398 1781.95 285.663 1766.69 288.904L1706.96 301.602ZM1787.18 334.222L1770.06 337.863L1784.74 347.398C1786.58 348.595 1787.1 351.027 1785.9 352.87C1784.71 354.713 1782.28 355.23 1780.43 354.033L1765.75 344.498L1769.39 361.623C1769.84 363.751 1768.49 365.84 1766.36 366.293C1764.23 366.745 1762.14 365.388 1761.69 363.26L1758.05 346.135L1748.51 360.818C1747.32 362.661 1744.88 363.178 1743.04 361.981C1741.2 360.785 1740.68 358.352 1741.88 356.509L1751.41 341.826L1734.29 345.466C1732.16 345.918 1730.07 344.562 1729.62 342.434C1729.17 340.306 1730.52 338.217 1732.65 337.765L1749.78 334.124L1735.09 324.589C1733.25 323.392 1732.73 320.96 1733.93 319.117C1735.13 317.274 1737.56 316.757 1739.4 317.954L1754.08 327.489L1750.44 310.364C1749.99 308.236 1751.35 306.147 1753.48 305.694C1755.6 305.242 1757.69 306.599 1758.15 308.727L1761.79 325.852L1771.32 311.169C1772.52 309.326 1774.95 308.809 1776.79 310.006C1778.64 311.203 1779.15 313.635 1777.96 315.478L1768.42 330.161L1785.55 326.521C1787.67 326.069 1789.76 327.425 1790.22 329.553C1790.67 331.681 1789.31 333.77 1787.18 334.222Z" fill="#C60B16"/>
<path d="M1633.9 413.55L1646.59 473.287C1649.83 488.538 1664.83 498.273 1680.08 495.031L1739.81 482.334L1721.25 394.983L1633.9 413.55ZM1714.38 462.849C1712.47 468.552 1707.51 472.624 1701.74 473.852C1699 474.434 1696.02 474.378 1693.15 473.559C1691.06 472.944 1689.86 470.815 1690.43 468.736C1691.04 466.646 1693.17 465.452 1695.25 466.016C1700.15 467.41 1705.39 464.868 1706.87 460.37C1708.32 455.984 1705.42 451.305 1701.91 449.508C1700.37 448.724 1698.67 448.45 1697.04 448.53C1696.42 451.84 1694.99 456.063 1691.74 457.971C1689.1 459.486 1686.44 459.681 1684.43 458.466C1681.27 456.543 1681.16 452.277 1681.82 449.913C1682.7 446.813 1685.55 444.036 1689.68 442.31C1689.56 437.252 1687.87 433.056 1685.23 431.077C1682.59 429.147 1678.58 428.464 1674.61 429.467C1669.42 430.678 1664.94 434.277 1662.45 439.255C1661.49 441.207 1659.11 441.977 1657.21 441.005C1655.25 440.043 1654.48 437.664 1655.46 435.763C1658.99 428.71 1665.32 423.605 1672.83 421.849C1679.17 420.502 1685.52 421.483 1689.94 424.833C1694.29 428.092 1697 433.871 1697.5 440.702C1700.35 440.678 1703.08 441.316 1705.51 442.546C1712.01 445.932 1717.1 454.435 1714.28 462.871L1714.38 462.849Z" fill="#C60B16"/>
<path d="M1726.57 393.852L1745.13 481.203L1804.87 468.505C1820.12 465.264 1829.86 450.273 1826.61 435.022L1813.92 375.285L1726.57 393.852ZM1793.18 403.524C1788.33 411.599 1780.19 429.374 1788.32 448.935C1789.06 450.683 1787.72 452.609 1785.84 452.744L1767.46 453.951C1766.36 454.025 1765.35 453.498 1764.83 452.55C1761.92 447.556 1754.62 430.149 1770.55 401.714C1771.01 400.876 1771.95 400.306 1772.94 400.253L1790.6 399.36C1792.85 399.251 1794.37 401.681 1793.2 403.626L1793.18 403.524Z" fill="#E16877"/>
<path d="M1866.66 267.656C1870.13 283.971 1862.49 299.363 1849.62 302.098C1836.75 304.834 1823.51 293.879 1820.05 277.564L1799.68 281.893L1818.25 369.244L1905.6 350.677L1887.03 263.326L1866.66 267.656Z" fill="#FFCB46"/>
<path d="M1886.27 359.906C1889.74 376.221 1882.1 391.613 1869.23 394.349C1856.36 397.084 1843.11 386.079 1839.66 369.814L1819.29 374.144L1837.85 461.495L1925.2 442.928L1906.64 355.577L1886.27 359.906Z" fill="#06564E"/>
<path d="M1608.92 322.441L1521.57 341.008L1540.13 428.358L1557.66 424.632C1555.98 416.728 1561.05 408.926 1568.96 407.245L1585.02 403.831C1606.75 399.211 1620.69 377.82 1616.06 356.033L1608.92 322.441Z" fill="#06564E"/>
<path d="M1541.17 433.259L1559.74 520.609L1577.27 516.883C1575.59 508.979 1580.66 501.176 1588.56 499.496L1610 494.941C1628.79 490.945 1640.8 472.452 1636.81 453.655L1628.53 414.692L1541.17 433.259Z" fill="#FFCB46"/>
<path d="M1698.6 717.985L1711.3 777.722L1798.65 759.155L1780.09 671.804L1720.35 684.501C1705.1 687.743 1695.36 702.734 1698.6 717.985ZM1764.07 730.759C1758.88 746.691 1746.49 756.898 1736.31 753.607C1726.13 750.316 1722.12 734.698 1727.27 718.828C1732.47 702.896 1744.86 692.689 1755.04 695.98C1765.22 699.271 1769.23 714.889 1764.07 730.759Z" fill="#E16877"/>
<path d="M1785.41 670.673L1803.97 758.024L1891.32 739.457L1878.63 679.72C1875.38 664.469 1860.39 654.734 1845.14 657.976L1785.41 670.673ZM1865.63 703.294L1848.51 706.934L1863.19 716.47C1865.03 717.667 1865.55 720.099 1864.35 721.942C1863.16 723.785 1860.72 724.302 1858.88 723.105L1844.2 713.569L1847.84 730.695C1848.29 732.823 1846.93 734.912 1844.81 735.364C1842.68 735.817 1840.59 734.46 1840.14 732.332L1836.5 715.206L1826.96 729.89C1825.76 731.733 1823.33 732.25 1821.49 731.053C1819.65 729.856 1819.13 727.424 1820.33 725.581L1829.86 710.897L1812.74 714.538C1810.61 714.99 1808.52 713.633 1808.07 711.505C1807.61 709.377 1808.97 707.288 1811.1 706.836L1828.22 703.196L1813.54 693.66C1811.7 692.463 1811.18 690.031 1812.38 688.188C1813.57 686.345 1816.01 685.828 1817.85 687.025L1832.53 696.561L1828.89 679.435C1828.44 677.307 1829.8 675.218 1831.92 674.766C1834.05 674.314 1836.14 675.67 1836.59 677.798L1840.23 694.924L1849.77 680.24C1850.97 678.397 1853.4 677.88 1855.24 679.077C1857.08 680.274 1857.6 682.706 1856.4 684.549L1846.87 699.233L1863.99 695.593C1866.12 695.14 1868.21 696.497 1868.66 698.625C1869.12 700.753 1867.76 702.842 1865.63 703.294Z" fill="#C60B16"/>
<path d="M1712.34 782.622L1725.04 842.358C1728.28 857.609 1743.27 867.344 1758.52 864.103L1818.26 851.405L1799.69 764.055L1712.34 782.622ZM1792.83 831.921C1790.92 837.623 1785.96 841.696 1780.18 842.924C1777.45 843.505 1774.47 843.45 1771.6 842.631C1769.5 842.016 1768.31 839.887 1768.88 837.807C1769.49 835.717 1771.62 834.523 1773.7 835.088C1778.6 836.481 1783.83 833.939 1785.31 829.441C1786.76 825.055 1783.86 820.376 1780.36 818.58C1778.81 817.796 1777.11 817.521 1775.49 817.602C1774.87 820.911 1773.44 825.134 1770.19 827.043C1767.54 828.558 1764.89 828.753 1762.88 827.537C1759.72 825.615 1759.6 821.349 1760.27 818.984C1761.14 815.885 1764 813.108 1768.13 811.382C1768.01 806.324 1766.32 802.128 1763.68 800.148C1761.04 798.219 1757.03 797.536 1753.06 798.539C1747.86 799.749 1743.39 803.349 1740.9 808.326C1739.93 810.278 1737.56 811.049 1735.66 810.076C1733.7 809.114 1732.93 806.736 1733.91 804.835C1737.44 797.782 1743.77 792.677 1751.28 790.92C1757.62 789.574 1763.97 790.554 1768.39 793.904C1772.73 797.164 1775.44 802.942 1775.94 809.774C1778.8 809.749 1781.53 810.387 1783.96 811.618C1790.45 815.004 1795.54 823.507 1792.73 831.943L1792.83 831.921Z" fill="#C60B16"/>
<path d="M1805.01 762.924L1823.58 850.274L1883.32 837.577C1898.57 834.335 1908.3 819.345 1905.06 804.094L1892.37 744.357L1805.01 762.924ZM1871.62 772.596C1866.77 780.67 1858.64 798.446 1866.77 818.006C1867.51 819.755 1866.17 821.681 1864.29 821.815L1845.91 823.022C1844.81 823.096 1843.8 822.57 1843.28 821.621C1840.37 816.627 1833.07 799.221 1849 770.786C1849.46 769.947 1850.39 769.377 1851.39 769.324L1869.04 768.431C1871.3 768.323 1872.82 770.753 1871.65 772.697L1871.62 772.596Z" fill="#E16877"/>
<path d="M1945.11 636.727C1948.58 653.042 1940.94 668.434 1928.07 671.17C1915.2 673.905 1901.96 662.95 1898.5 646.635L1878.13 650.965L1896.69 738.315L1984.04 719.748L1965.48 632.398L1945.11 636.727Z" fill="#FFCB46"/>
<path d="M1964.72 728.978C1968.19 745.293 1960.55 760.685 1947.68 763.42C1934.81 766.156 1921.56 755.15 1918.1 738.886L1897.74 743.215L1916.3 830.566L2003.65 811.999L1985.09 724.648L1964.72 728.978Z" fill="#06564E"/>
<path d="M1687.37 691.512L1600.01 710.079L1618.58 797.43L1636.11 793.704C1634.43 785.8 1639.5 777.997 1647.4 776.317L1663.47 772.903C1685.2 768.283 1699.14 746.892 1694.51 725.105L1687.37 691.512Z" fill="#06564E"/>
<path d="M1619.62 802.33L1638.19 889.681L1655.72 885.954C1654.04 878.05 1659.11 870.248 1667.01 868.568L1688.44 864.012C1707.24 860.017 1719.25 841.524 1715.26 822.726L1706.97 783.763L1619.62 802.33Z" fill="#FFCB46"/>
<path d="M839.734 321.878L852.431 381.615L939.782 363.048L921.215 275.697L861.478 288.395C846.227 291.637 836.492 306.627 839.734 321.878ZM905.203 334.652C900.01 350.584 887.616 360.791 877.438 357.5C867.259 354.209 863.251 338.592 868.404 322.722C873.596 306.79 885.99 296.583 896.168 299.874C906.347 303.165 910.355 318.782 905.203 334.652Z" fill="#E16877"/>
<path d="M926.535 274.567L945.102 361.917L1032.45 343.35L1019.76 283.613C1016.51 268.363 1001.52 258.627 986.272 261.869L926.535 274.567ZM1006.76 307.187L989.635 310.828L1004.32 320.363C1006.16 321.56 1006.68 323.992 1005.48 325.835C1004.28 327.678 1001.85 328.195 1000.01 326.998L985.326 317.463L988.966 334.588C989.419 336.716 988.062 338.805 985.934 339.258C983.806 339.71 981.717 338.353 981.265 336.225L977.625 319.1L968.089 333.783C966.892 335.626 964.46 336.143 962.617 334.946C960.774 333.749 960.257 331.317 961.454 329.474L970.99 314.791L953.864 318.431C951.736 318.883 949.647 317.527 949.195 315.399C948.743 313.271 950.099 311.182 952.227 310.73L969.353 307.089L954.669 297.554C952.826 296.357 952.309 293.925 953.506 292.082C954.703 290.239 957.135 289.722 958.978 290.919L973.662 300.454L970.021 283.329C969.569 281.201 970.926 279.112 973.054 278.659C975.182 278.207 977.271 279.564 977.723 281.692L981.363 298.817L990.899 284.134C992.096 282.291 994.528 281.774 996.371 282.971C998.214 284.168 998.731 286.6 997.534 288.443L987.998 303.126L1005.12 299.486C1007.25 299.034 1009.34 300.39 1009.79 302.518C1010.25 304.646 1008.89 306.735 1006.76 307.187Z" fill="#C60B16"/>
<path d="M853.473 386.515L866.17 446.252C869.412 461.503 884.402 471.238 899.653 467.996L959.39 455.299L940.823 367.948L853.473 386.515ZM933.96 435.814C932.048 441.517 927.088 445.589 921.312 446.817C918.576 447.399 915.599 447.343 912.724 446.524C910.634 445.909 909.44 443.78 910.004 441.701C910.619 439.611 912.748 438.417 914.828 438.981C919.731 440.375 924.963 437.833 926.443 433.335C927.894 428.949 924.993 424.27 921.486 422.473C919.943 421.689 918.243 421.415 916.618 421.495C915.998 424.805 914.565 429.028 911.317 430.936C908.674 432.451 906.014 432.646 904.008 431.431C900.846 429.508 900.733 425.242 901.396 422.877C902.273 419.778 905.125 417.001 909.259 415.275C909.137 410.217 907.451 406.021 904.806 404.041C902.172 402.112 898.161 401.429 894.19 402.432C888.993 403.643 884.516 407.242 882.025 412.22C881.064 414.172 878.685 414.942 876.784 413.969C874.832 413.008 874.062 410.629 875.034 408.728C878.566 401.675 884.895 396.57 892.412 394.814C898.746 393.467 905.097 394.447 909.516 397.798C913.863 401.057 916.574 406.836 917.073 413.667C919.927 413.643 922.658 414.281 925.09 415.511C931.582 418.897 936.673 427.4 933.859 435.836L933.96 435.814Z" fill="#C60B16"/>
<path d="M946.144 366.817L964.711 454.168L1024.45 441.47C1039.7 438.229 1049.43 423.238 1046.19 407.987L1033.49 348.25L946.144 366.817ZM1012.75 376.489C1007.9 384.564 999.766 402.339 1007.9 421.9C1008.64 423.648 1007.3 425.574 1005.42 425.709L987.038 426.916C985.941 426.99 984.929 426.463 984.41 425.515C981.495 420.521 974.194 403.114 990.127 374.679C990.584 373.841 991.522 373.271 992.517 373.218L1010.17 372.325C1012.43 372.216 1013.95 374.646 1012.78 376.591L1012.75 376.489Z" fill="#E16877"/>
<path d="M1086.24 240.621C1089.71 256.936 1082.07 272.328 1069.2 275.063C1056.33 277.799 1043.09 266.844 1039.62 250.529L1019.26 254.858L1037.82 342.209L1125.17 323.642L1106.61 236.291L1086.24 240.621Z" fill="#FFCB46"/>
<path d="M1105.85 332.871C1109.31 349.186 1101.68 364.578 1088.81 367.314C1075.94 370.049 1062.69 359.044 1059.23 342.779L1038.86 347.109L1057.43 434.46L1144.78 415.893L1126.21 328.542L1105.85 332.871Z" fill="#06564E"/>
<path d="M828.494 295.406L741.144 313.973L759.711 401.323L777.241 397.597C775.561 389.693 780.628 381.89 788.533 380.21L804.594 376.796C826.33 372.176 840.265 350.785 835.635 328.998L828.494 295.406Z" fill="#06564E"/>
<path d="M760.752 406.224L779.319 493.574L796.85 489.848C795.17 481.944 800.237 474.141 808.141 472.461L829.573 467.906C848.371 463.91 860.38 445.417 856.385 426.62L848.103 387.657L760.752 406.224Z" fill="#FFCB46"/>
<path d="M918.182 690.95L930.88 750.687L1018.23 732.12L999.664 644.769L939.927 657.467C924.676 660.708 914.941 675.699 918.182 690.95ZM983.651 703.724C978.459 719.656 966.065 729.863 955.886 726.572C945.708 723.281 941.7 707.663 946.852 691.793C952.045 675.862 964.438 665.654 974.617 668.945C984.796 672.236 988.804 687.854 983.651 703.724Z" fill="#E16877"/>
<path d="M1004.98 643.638L1023.55 730.989L1110.9 712.422L1098.2 652.685C1094.96 637.434 1079.97 627.699 1064.72 630.941L1004.98 643.638ZM1085.21 676.259L1068.08 679.899L1082.77 689.435C1084.61 690.632 1085.13 693.064 1083.93 694.907C1082.73 696.75 1080.3 697.267 1078.46 696.07L1063.78 686.534L1067.42 703.66C1067.87 705.788 1066.51 707.877 1064.38 708.329C1062.25 708.782 1060.17 707.425 1059.71 705.297L1056.07 688.171L1046.54 702.855C1045.34 704.698 1042.91 705.215 1041.07 704.018C1039.22 702.821 1038.71 700.389 1039.9 698.546L1049.44 683.863L1032.31 687.503C1030.18 687.955 1028.1 686.598 1027.64 684.47C1027.19 682.342 1028.55 680.254 1030.68 679.801L1047.8 676.161L1033.12 666.625C1031.27 665.429 1030.76 662.997 1031.95 661.153C1033.15 659.31 1035.58 658.793 1037.43 659.99L1052.11 669.526L1048.47 652.4C1048.02 650.272 1049.37 648.183 1051.5 647.731C1053.63 647.279 1055.72 648.635 1056.17 650.763L1059.81 667.889L1069.35 653.205C1070.54 651.362 1072.98 650.845 1074.82 652.042C1076.66 653.239 1077.18 655.671 1075.98 657.514L1066.45 672.198L1083.57 668.558C1085.7 668.105 1087.79 669.462 1088.24 671.59C1088.69 673.718 1087.34 675.807 1085.21 676.259Z" fill="#C60B16"/>
<path d="M931.921 755.587L944.619 815.324C947.861 830.574 962.851 840.31 978.102 837.068L1037.84 824.37L1019.27 737.02L931.921 755.587ZM1012.41 804.886C1010.5 810.588 1005.54 814.661 999.761 815.889C997.025 816.47 994.047 816.415 991.173 815.596C989.083 814.981 987.889 812.852 988.453 810.772C989.068 808.682 991.197 807.488 993.276 808.053C998.18 809.446 1003.41 806.904 1004.89 802.406C1006.34 798.02 1003.44 793.341 999.935 791.545C998.391 790.761 996.692 790.486 995.067 790.567C994.447 793.876 993.014 798.1 989.766 800.008C987.122 801.523 984.463 801.718 982.457 800.502C979.295 798.58 979.182 794.314 979.845 791.949C980.722 788.85 983.573 786.073 987.708 784.347C987.586 779.289 985.9 775.093 983.255 773.113C980.621 771.184 976.609 770.501 972.639 771.504C967.442 772.714 962.964 776.314 960.474 781.292C959.512 783.244 957.134 784.014 955.233 783.041C953.281 782.079 952.51 779.701 953.483 777.8C957.015 770.747 963.344 765.642 970.861 763.885C977.194 762.539 983.546 763.519 987.965 766.869C992.311 770.129 995.023 775.907 995.521 782.739C998.376 782.715 1001.11 783.352 1003.54 784.583C1010.03 787.969 1015.12 796.472 1012.31 804.908L1012.41 804.886Z" fill="#C60B16"/>
<path d="M1024.59 735.889L1043.16 823.24L1102.9 810.542C1118.15 807.3 1127.88 792.31 1124.64 777.059L1111.94 717.322L1024.59 735.889ZM1091.2 745.561C1086.35 753.635 1078.21 771.411 1086.34 790.971C1087.09 792.72 1085.75 794.646 1083.87 794.78L1065.49 795.987C1064.39 796.061 1063.38 795.535 1062.86 794.586C1059.94 789.593 1052.64 772.186 1068.58 743.751C1069.03 742.912 1069.97 742.342 1070.97 742.29L1088.62 741.396C1090.88 741.288 1092.4 743.718 1091.22 745.662L1091.2 745.561Z" fill="#E16877"/>
<path d="M1164.69 609.692C1168.15 626.007 1160.52 641.399 1147.65 644.135C1134.78 646.87 1121.54 635.915 1118.07 619.6L1097.7 623.93L1116.27 711.28L1203.62 692.714L1185.06 605.363L1164.69 609.692Z" fill="#FFCB46"/>
<path d="M1184.3 701.943C1187.76 718.258 1180.13 733.65 1167.26 736.386C1154.39 739.121 1141.14 728.115 1137.68 711.851L1117.31 716.181L1135.88 803.531L1223.23 784.964L1204.66 697.614L1184.3 701.943Z" fill="#06564E"/>
<path d="M906.943 664.477L819.592 683.044L838.159 770.395L855.69 766.669C854.01 758.765 859.077 750.962 866.981 749.282L883.043 745.868C904.779 741.248 918.714 719.857 914.083 698.07L906.943 664.477Z" fill="#06564E"/>
<path d="M839.201 775.295L857.768 862.646L875.299 858.92C873.618 851.015 878.686 843.213 886.59 841.533L908.022 836.977C926.82 832.982 938.829 814.489 934.833 795.691L926.551 756.728L839.201 775.295Z" fill="#FFCB46"/>
<path d="M1951.4 85.5869L1964.09 145.324L2051.45 126.757L2032.88 39.4062L1973.14 52.1037C1957.89 55.3453 1948.16 70.336 1951.4 85.5869ZM2016.87 98.3612C2011.67 114.293 1999.28 124.5 1989.1 121.209C1978.92 117.918 1974.91 102.3 1980.07 86.4302C1985.26 70.4987 1997.65 60.2916 2007.83 63.5825C2018.01 66.8735 2022.02 82.4911 2016.87 98.3612Z" fill="#E16877"/>
<path d="M2038.2 38.2754L2056.77 125.626L2144.12 107.059L2131.42 47.3222C2128.18 32.0713 2113.19 22.3362 2097.94 25.5779L2038.2 38.2754ZM2118.42 70.8962L2101.3 74.5363L2115.98 84.0719C2117.83 85.2688 2118.34 87.7009 2117.15 89.544C2115.95 91.3871 2113.52 91.9041 2111.67 90.7071L2096.99 81.1716L2100.63 98.2972C2101.08 100.425 2099.73 102.514 2097.6 102.966C2095.47 103.419 2093.38 102.062 2092.93 99.9341L2089.29 82.8086L2079.75 97.492C2078.56 99.3351 2076.12 99.8521 2074.28 98.6552C2072.44 97.4582 2071.92 95.0262 2073.12 93.1831L2082.65 78.4996L2065.53 82.1398C2063.4 82.5921 2061.31 81.2356 2060.86 79.1075C2060.41 76.9795 2061.76 74.8906 2063.89 74.4383L2081.02 70.7981L2066.33 61.2626C2064.49 60.0656 2063.97 57.6336 2065.17 55.7905C2066.37 53.9474 2068.8 53.4304 2070.64 54.6274L2085.33 64.1629L2081.69 47.0373C2081.23 44.9093 2082.59 42.8204 2084.72 42.3681C2086.85 41.9158 2088.93 43.2723 2089.39 45.4003L2093.03 62.5259L2102.56 47.8425C2103.76 45.9994 2106.19 45.4824 2108.03 46.6793C2109.88 47.8763 2110.39 50.3083 2109.2 52.1514L2099.66 66.8349L2116.79 63.1947C2118.92 62.7424 2121 64.0989 2121.46 66.227C2121.91 68.355 2120.55 70.4439 2118.42 70.8962Z" fill="#C60B16"/>
<path d="M1965.14 150.224L1977.83 209.961C1981.08 225.212 1996.07 234.947 2011.32 231.705L2071.05 219.007L2052.49 131.657L1965.14 150.224ZM2045.62 199.523C2043.71 205.225 2038.75 209.298 2032.98 210.526C2030.24 211.107 2027.26 211.052 2024.39 210.233C2022.3 209.618 2021.1 207.489 2021.67 205.41C2022.28 203.319 2024.41 202.126 2026.49 202.69C2031.39 204.083 2036.63 201.542 2038.11 197.043C2039.56 192.657 2036.66 187.978 2033.15 186.182C2031.61 185.398 2029.91 185.124 2028.28 185.204C2027.66 188.513 2026.23 192.737 2022.98 194.645C2020.34 196.16 2017.68 196.355 2015.67 195.139C2012.51 193.217 2012.4 188.951 2013.06 186.586C2013.94 183.487 2016.79 180.71 2020.92 178.984C2020.8 173.926 2019.11 169.73 2016.47 167.75C2013.84 165.821 2009.82 165.138 2005.85 166.141C2000.66 167.351 1996.18 170.951 1993.69 175.929C1992.73 177.881 1990.35 178.651 1988.45 177.678C1986.5 176.716 1985.73 174.338 1986.7 172.437C1990.23 165.384 1996.56 160.279 2004.08 158.522C2010.41 157.176 2016.76 158.156 2021.18 161.506C2025.53 164.766 2028.24 170.545 2028.74 177.376C2031.59 177.352 2034.32 177.989 2036.75 179.22C2043.25 182.606 2048.34 191.109 2045.52 199.545L2045.62 199.523Z" fill="#C60B16"/>
<path d="M2057.81 130.526L2076.37 217.877L2136.11 205.179C2151.36 201.938 2161.1 186.947 2157.86 171.696L2145.16 111.959L2057.81 130.526ZM2124.42 140.198C2119.57 148.272 2111.43 166.048 2119.56 185.608C2120.3 187.357 2118.96 189.283 2117.09 189.417L2098.7 190.624C2097.61 190.698 2096.59 190.172 2096.07 189.223C2093.16 184.23 2085.86 166.823 2101.79 138.388C2102.25 137.549 2103.19 136.979 2104.18 136.927L2121.84 136.033C2124.09 135.925 2125.61 138.355 2124.44 140.299L2124.42 140.198Z" fill="#E16877"/>
<path d="M2197.9 4.32936C2201.37 20.6443 2193.73 36.0364 2180.86 38.7719C2167.99 41.5074 2154.76 30.5524 2151.29 14.2375L2130.92 18.5669L2149.49 105.918L2236.84 87.3506L2218.27 -6.69032e-05L2197.9 4.32936Z" fill="#FFCB46"/>
<path d="M2217.51 96.5801C2220.98 112.895 2213.34 128.287 2200.47 131.023C2187.6 133.758 2174.35 122.752 2170.9 106.488L2150.53 110.818L2169.09 198.168L2256.45 179.601L2237.88 92.2507L2217.51 96.5801Z" fill="#06564E"/>
<path d="M1940.16 59.1146L1852.81 77.6815L1871.37 165.032L1888.91 161.306C1887.22 153.402 1892.29 145.599 1900.2 143.919L1916.26 140.505C1937.99 135.885 1951.93 114.494 1947.3 92.7071L1940.16 59.1146Z" fill="#06564E"/>
<path d="M1872.42 169.932L1890.98 257.283L1908.51 253.557C1906.83 245.652 1911.9 237.85 1919.8 236.17L1941.24 231.614C1960.03 227.619 1972.04 209.126 1968.05 190.329L1959.77 151.365L1872.42 169.932Z" fill="#FFCB46"/>
<path d="M2029.85 454.658L2042.54 514.395L2129.89 495.828L2111.33 408.478L2051.59 421.175C2036.34 424.417 2026.6 439.408 2029.85 454.658ZM2095.31 467.433C2090.12 483.364 2077.73 493.571 2067.55 490.28C2057.37 486.989 2053.36 471.372 2058.52 455.502C2063.71 439.57 2076.1 429.363 2086.28 432.654C2096.46 435.945 2100.47 451.563 2095.31 467.433Z" fill="#E16877"/>
<path d="M2116.65 407.347L2135.21 494.698L2222.57 476.131L2209.87 416.394C2206.63 401.143 2191.64 391.408 2176.38 394.649L2116.65 407.347ZM2196.87 439.968L2179.75 443.608L2194.43 453.143C2196.27 454.34 2196.79 456.772 2195.59 458.616C2194.4 460.459 2191.97 460.976 2190.12 459.779L2175.44 450.243L2179.08 467.369C2179.53 469.497 2178.17 471.586 2176.05 472.038C2173.92 472.49 2171.83 471.134 2171.38 469.006L2167.74 451.88L2158.2 466.564C2157 468.407 2154.57 468.924 2152.73 467.727C2150.89 466.53 2150.37 464.098 2151.57 462.255L2161.1 447.571L2143.98 451.211C2141.85 451.664 2139.76 450.307 2139.31 448.179C2138.85 446.051 2140.21 443.962 2142.34 443.51L2159.46 439.87L2144.78 430.334C2142.94 429.137 2142.42 426.705 2143.62 424.862C2144.82 423.019 2147.25 422.502 2149.09 423.699L2163.77 433.234L2160.13 416.109C2159.68 413.981 2161.04 411.892 2163.17 411.44C2165.29 410.987 2167.38 412.344 2167.84 414.472L2171.48 431.597L2181.01 416.914C2182.21 415.071 2184.64 414.554 2186.48 415.751C2188.33 416.948 2188.84 419.38 2187.65 421.223L2178.11 435.906L2195.24 432.266C2197.36 431.814 2199.45 433.17 2199.91 435.298C2200.36 437.427 2199 439.515 2196.87 439.968Z" fill="#C60B16"/>
<path d="M2043.58 519.295L2056.28 579.032C2059.52 594.283 2074.51 604.018 2089.77 600.776L2149.5 588.079L2130.94 500.728L2043.58 519.295ZM2124.07 568.595C2122.16 574.297 2117.2 578.37 2111.42 579.597C2108.69 580.179 2105.71 580.123 2102.84 579.305C2100.75 578.69 2099.55 576.56 2100.12 574.481C2100.73 572.391 2102.86 571.197 2104.94 571.761C2109.84 573.155 2115.08 570.613 2116.56 566.115C2118.01 561.729 2115.1 557.05 2111.6 555.253C2110.06 554.469 2108.36 554.195 2106.73 554.276C2106.11 557.585 2104.68 561.808 2101.43 563.717C2098.79 565.232 2096.13 565.426 2094.12 564.211C2090.96 562.288 2090.85 558.023 2091.51 555.658C2092.39 552.559 2095.24 549.781 2099.37 548.055C2099.25 542.997 2097.56 538.801 2094.92 536.822C2092.28 534.893 2088.27 534.21 2084.3 535.212C2079.11 536.423 2074.63 540.023 2072.14 545C2071.18 546.952 2068.8 547.722 2066.9 546.75C2064.94 545.788 2064.17 543.41 2065.15 541.508C2068.68 534.456 2075.01 529.351 2082.52 527.594C2088.86 526.248 2095.21 527.228 2099.63 530.578C2103.98 533.838 2106.69 539.616 2107.18 546.447C2110.04 546.423 2112.77 547.061 2115.2 548.291C2121.69 551.677 2126.79 560.181 2123.97 568.616L2124.07 568.595Z" fill="#C60B16"/>
<path d="M2136.26 499.598L2154.82 586.948L2214.56 574.251C2229.81 571.009 2239.55 556.018 2236.3 540.767L2223.61 481.031L2136.26 499.598ZM2202.87 509.27C2198.02 517.344 2189.88 535.119 2198.01 554.68C2198.75 556.428 2197.41 558.355 2195.53 558.489L2177.15 559.696C2176.05 559.77 2175.04 559.244 2174.52 558.295C2171.61 553.301 2164.31 535.895 2180.24 507.459C2180.7 506.621 2181.63 506.051 2182.63 505.998L2200.29 505.105C2202.54 504.996 2204.06 507.427 2202.89 509.371L2202.87 509.27Z" fill="#E16877"/>
<path d="M2276.35 373.401C2279.82 389.716 2272.18 405.108 2259.31 407.843C2246.44 410.579 2233.2 399.624 2229.74 383.309L2209.37 387.638L2227.94 474.989L2315.29 456.422L2296.72 369.071L2276.35 373.401Z" fill="#FFCB46"/>
<path d="M2295.96 465.652C2299.43 481.967 2291.79 497.359 2278.92 500.094C2266.05 502.83 2252.8 491.824 2249.34 475.56L2228.98 479.889L2247.54 567.24L2334.89 548.673L2316.33 461.322L2295.96 465.652Z" fill="#06564E"/>
<path d="M2018.61 428.186L1931.26 446.753L1949.82 534.104L1967.35 530.377C1965.67 522.473 1970.74 514.671 1978.64 512.991L1994.71 509.577C2016.44 504.957 2030.38 483.566 2025.75 461.779L2018.61 428.186Z" fill="#06564E"/>
<path d="M1950.86 539.004L1969.43 626.354L1986.96 622.628C1985.28 614.724 1990.35 606.922 1998.25 605.241L2019.69 600.686C2038.48 596.69 2050.49 578.198 2046.5 559.4L2038.21 520.437L1950.86 539.004Z" fill="#FFCB46"/>
<path d="M878.968 506.458L891.665 566.195L979.016 547.628L960.449 460.277L900.712 472.975C885.461 476.216 875.726 491.207 878.968 506.458ZM944.436 519.232C939.244 535.164 926.85 545.371 916.672 542.08C906.493 538.789 902.485 523.171 907.638 507.301C912.83 491.37 925.224 481.162 935.402 484.453C945.581 487.744 949.589 503.362 944.436 519.232Z" fill="#E16877"/>
<path d="M965.769 459.146L984.336 546.497L1071.69 527.93L1058.99 468.193C1055.75 452.942 1040.76 443.207 1025.51 446.449L965.769 459.146ZM1045.99 491.767L1028.87 495.407L1043.55 504.943C1045.4 506.14 1045.91 508.572 1044.72 510.415C1043.52 512.258 1041.09 512.775 1039.24 511.578L1024.56 502.042L1028.2 519.168C1028.65 521.296 1027.3 523.385 1025.17 523.837C1023.04 524.29 1020.95 522.933 1020.5 520.805L1016.86 503.679L1007.32 518.363C1006.13 520.206 1003.69 520.723 1001.85 519.526C1000.01 518.329 999.491 515.897 1000.69 514.054L1010.22 499.37L993.098 503.011C990.97 503.463 988.881 502.106 988.429 499.978C987.976 497.85 989.333 495.761 991.461 495.309L1008.59 491.669L993.903 482.133C992.06 480.936 991.543 478.504 992.74 476.661C993.937 474.818 996.369 474.301 998.212 475.498L1012.9 485.034L1009.26 467.908C1008.8 465.78 1010.16 463.691 1012.29 463.239C1014.42 462.787 1016.5 464.143 1016.96 466.271L1020.6 483.397L1030.13 468.713C1031.33 466.87 1033.76 466.353 1035.6 467.55C1037.45 468.747 1037.96 471.179 1036.77 473.022L1027.23 487.706L1044.36 484.066C1046.49 483.613 1048.57 484.97 1049.03 487.098C1049.48 489.226 1048.12 491.315 1045.99 491.767Z" fill="#C60B16"/>
<path d="M892.707 571.095L905.404 630.832C908.646 646.082 923.636 655.817 938.887 652.576L998.624 639.878L980.057 552.528L892.707 571.095ZM973.194 620.394C971.282 626.096 966.322 630.169 960.546 631.397C957.81 631.978 954.833 631.923 951.958 631.104C949.868 630.489 948.674 628.36 949.238 626.28C949.853 624.19 951.982 622.996 954.061 623.561C958.965 624.954 964.197 622.412 965.677 617.914C967.127 613.528 964.226 608.849 960.72 607.053C959.177 606.269 957.477 605.994 955.852 606.075C955.232 609.384 953.799 613.607 950.551 615.516C947.907 617.031 945.248 617.226 943.242 616.01C940.08 614.088 939.967 609.822 940.63 607.457C941.507 604.358 944.359 601.581 948.493 599.855C948.371 594.797 946.685 590.601 944.04 588.621C941.406 586.692 937.395 586.009 933.424 587.012C928.227 588.222 923.749 591.822 921.259 596.799C920.297 598.752 917.919 599.522 916.018 598.549C914.066 597.587 913.296 595.209 914.268 593.308C917.8 586.255 924.129 581.15 931.646 579.393C937.979 578.047 944.331 579.027 948.75 582.377C953.097 585.637 955.808 591.415 956.307 598.247C959.161 598.222 961.891 598.86 964.324 600.091C970.816 603.477 975.907 611.98 973.093 620.416L973.194 620.394Z" fill="#C60B16"/>
<path d="M985.377 551.397L1003.94 638.748L1063.68 626.05C1078.93 622.808 1088.67 607.818 1085.43 592.567L1072.73 532.83L985.377 551.397ZM1051.99 561.069C1047.14 569.143 1039 586.919 1047.13 606.479C1047.87 608.228 1046.53 610.154 1044.66 610.288L1026.27 611.495C1025.18 611.569 1024.16 611.043 1023.64 610.094C1020.73 605.101 1013.43 587.694 1029.36 559.259C1029.82 558.42 1030.76 557.85 1031.75 557.798L1049.41 556.904C1051.66 556.796 1053.18 559.226 1052.01 561.17L1051.99 561.069Z" fill="#E16877"/>
<path d="M1125.47 425.2C1128.94 441.515 1121.3 456.907 1108.43 459.643C1095.56 462.378 1082.33 451.423 1078.86 435.108L1058.49 439.438L1077.06 526.788L1164.41 508.221L1145.84 420.871L1125.47 425.2Z" fill="#FFCB46"/>
<path d="M1145.08 517.451C1148.55 533.766 1140.91 549.158 1128.04 551.893C1115.17 554.629 1101.92 543.623 1098.47 527.359L1078.1 531.688L1096.67 619.039L1184.02 600.472L1165.45 513.122L1145.08 517.451Z" fill="#06564E"/>
<path d="M867.728 479.985L780.377 498.552L798.944 585.903L816.475 582.177C814.795 574.273 819.862 566.47 827.766 564.79L843.828 561.376C865.564 556.756 879.499 535.365 874.868 513.578L867.728 479.985Z" fill="#06564E"/>
<path d="M799.986 590.803L818.553 678.154L836.084 674.427C834.404 666.523 839.471 658.721 847.375 657.041L868.807 652.485C887.605 648.49 899.614 629.997 895.618 611.199L887.337 572.236L799.986 590.803Z" fill="#FFCB46"/>
<path d="M957.416 875.529L970.114 935.266L1057.46 916.699L1038.9 829.349L979.161 842.046C963.91 845.288 954.175 860.278 957.416 875.529ZM1022.89 888.304C1017.69 904.235 1005.3 914.442 995.12 911.151C984.942 907.86 980.934 892.243 986.086 876.373C991.279 860.441 1003.67 850.234 1013.85 853.525C1024.03 856.816 1028.04 872.433 1022.89 888.304Z" fill="#E16877"/>
<path d="M1044.22 828.218L1062.78 915.568L1150.14 897.001L1137.44 837.265C1134.2 822.014 1119.21 812.279 1103.95 815.52L1044.22 828.218ZM1124.44 860.839L1107.32 864.479L1122 874.014C1123.84 875.211 1124.36 877.643 1123.16 879.486C1121.97 881.329 1119.54 881.846 1117.69 880.65L1103.01 871.114L1106.65 888.24C1107.1 890.368 1105.74 892.456 1103.62 892.909C1101.49 893.361 1099.4 892.005 1098.95 889.877L1095.31 872.751L1085.77 887.434C1084.57 889.278 1082.14 889.794 1080.3 888.598C1078.46 887.401 1077.94 884.969 1079.14 883.125L1088.67 868.442L1071.55 872.082C1069.42 872.534 1067.33 871.178 1066.88 869.05C1066.43 866.922 1067.78 864.833 1069.91 864.381L1087.04 860.741L1072.35 851.205C1070.51 850.008 1069.99 847.576 1071.19 845.733C1072.39 843.89 1074.82 843.373 1076.66 844.57L1091.34 854.105L1087.7 836.98C1087.25 834.852 1088.61 832.763 1090.74 832.31C1092.86 831.858 1094.95 833.215 1095.41 835.343L1099.05 852.468L1108.58 837.785C1109.78 835.942 1112.21 835.425 1114.05 836.622C1115.9 837.819 1116.41 840.251 1115.22 842.094L1105.68 856.777L1122.81 853.137C1124.93 852.685 1127.02 854.041 1127.48 856.169C1127.93 858.297 1126.57 860.386 1124.44 860.839Z" fill="#C60B16"/>
<path d="M971.155 940.166L983.853 999.903C987.094 1015.15 1002.09 1024.89 1017.34 1021.65L1077.07 1008.95L1058.51 921.599L971.155 940.166ZM1051.64 989.466C1049.73 995.168 1044.77 999.24 1038.99 1000.47C1036.26 1001.05 1033.28 1000.99 1030.41 1000.18C1028.32 999.561 1027.12 997.431 1027.69 995.352C1028.3 993.262 1030.43 992.068 1032.51 992.632C1037.41 994.026 1042.65 991.484 1044.13 986.986C1045.58 982.6 1042.68 977.921 1039.17 976.124C1037.63 975.34 1035.93 975.066 1034.3 975.146C1033.68 978.456 1032.25 982.679 1029 984.587C1026.36 986.103 1023.7 986.297 1021.69 985.082C1018.53 983.159 1018.42 978.894 1019.08 976.529C1019.96 973.43 1022.81 970.652 1026.94 968.926C1026.82 963.868 1025.13 959.672 1022.49 957.693C1019.85 955.764 1015.84 955.08 1011.87 956.083C1006.68 957.294 1002.2 960.893 999.708 965.871C998.746 967.823 996.368 968.593 994.467 967.621C992.515 966.659 991.744 964.28 992.717 962.379C996.249 955.327 1002.58 950.221 1010.09 948.465C1016.43 947.119 1022.78 948.099 1027.2 951.449C1031.55 954.708 1034.26 960.487 1034.76 967.318C1037.61 967.294 1040.34 967.932 1042.77 969.162C1049.26 972.548 1054.36 981.051 1051.54 989.487L1051.64 989.466Z" fill="#C60B16"/>
<path d="M1063.83 920.468L1082.39 1007.82L1142.13 995.122C1157.38 991.88 1167.12 976.889 1163.87 961.638L1151.18 901.901L1063.83 920.468ZM1130.44 930.14C1125.59 938.215 1117.45 955.99 1125.58 975.551C1126.32 977.299 1124.98 979.225 1123.1 979.36L1104.72 980.567C1103.62 980.641 1102.61 980.115 1102.09 979.166C1099.18 974.172 1091.88 956.765 1107.81 928.33C1108.27 927.492 1109.2 926.922 1110.2 926.869L1127.86 925.976C1130.11 925.867 1131.63 928.297 1130.46 930.242L1130.44 930.14Z" fill="#E16877"/>
<path d="M1203.92 794.272C1207.39 810.587 1199.75 825.979 1186.88 828.714C1174.01 831.45 1160.77 820.495 1157.31 804.18L1136.94 808.509L1155.51 895.86L1242.86 877.293L1224.29 789.942L1203.92 794.272Z" fill="#FFCB46"/>
<path d="M1223.53 886.522C1227 902.837 1219.36 918.229 1206.49 920.965C1193.62 923.7 1180.37 912.695 1176.92 896.431L1156.55 900.76L1175.11 988.111L1262.46 969.544L1243.9 882.193L1223.53 886.522Z" fill="#06564E"/>
<path d="M946.177 849.057L858.826 867.624L877.393 954.975L894.924 951.248C893.244 943.344 898.311 935.542 906.215 933.862L922.277 930.448C944.013 925.827 957.948 904.436 953.317 882.649L946.177 849.057Z" fill="#06564E"/>
<path d="M878.435 959.875L897.002 1047.23L914.532 1043.5C912.852 1035.59 917.919 1027.79 925.824 1026.11L947.256 1021.56C966.053 1017.56 978.063 999.069 974.067 980.271L965.785 941.308L878.435 959.875Z" fill="#FFCB46"/>
<path d="M1990.63 270.166L2003.33 329.903L2090.68 311.336L2072.11 223.986L2012.37 236.683C1997.12 239.925 1987.39 254.915 1990.63 270.166ZM2056.1 282.941C2050.91 298.872 2038.51 309.079 2028.33 305.788C2018.16 302.497 2014.15 286.88 2019.3 271.01C2024.49 255.078 2036.89 244.871 2047.07 248.162C2057.24 251.453 2061.25 267.071 2056.1 282.941Z" fill="#E16877"/>
<path d="M2077.43 222.855L2096 310.206L2183.35 291.639L2170.65 231.902C2167.41 216.651 2152.42 206.916 2137.17 210.157L2077.43 222.855ZM2157.66 255.476L2140.53 259.116L2155.22 268.651C2157.06 269.848 2157.58 272.28 2156.38 274.123C2155.18 275.967 2152.75 276.484 2150.91 275.287L2136.22 265.751L2139.86 282.877C2140.32 285.005 2138.96 287.094 2136.83 287.546C2134.7 287.998 2132.61 286.642 2132.16 284.514L2128.52 267.388L2118.99 282.071C2117.79 283.915 2115.36 284.432 2113.51 283.235C2111.67 282.038 2111.15 279.606 2112.35 277.763L2121.89 263.079L2104.76 266.719C2102.63 267.172 2100.54 265.815 2100.09 263.687C2099.64 261.559 2101 259.47 2103.12 259.018L2120.25 255.378L2105.57 245.842C2103.72 244.645 2103.21 242.213 2104.4 240.37C2105.6 238.527 2108.03 238.01 2109.88 239.207L2124.56 248.742L2120.92 231.617C2120.47 229.489 2121.82 227.4 2123.95 226.948C2126.08 226.495 2128.17 227.852 2128.62 229.98L2132.26 247.105L2141.8 232.422C2142.99 230.579 2145.42 230.062 2147.27 231.259C2149.11 232.456 2149.63 234.888 2148.43 236.731L2138.9 251.414L2156.02 247.774C2158.15 247.322 2160.24 248.678 2160.69 250.806C2161.14 252.934 2159.79 255.023 2157.66 255.476Z" fill="#C60B16"/>
<path d="M2004.37 334.803L2017.07 394.54C2020.31 409.791 2035.3 419.526 2050.55 416.284L2110.29 403.587L2091.72 316.236L2004.37 334.803ZM2084.86 384.103C2082.94 389.805 2077.99 393.878 2072.21 395.105C2069.47 395.687 2066.5 395.631 2063.62 394.812C2061.53 394.198 2060.34 392.068 2060.9 389.989C2061.52 387.899 2063.65 386.705 2065.72 387.269C2070.63 388.663 2075.86 386.121 2077.34 381.623C2078.79 377.237 2075.89 372.558 2072.38 370.761C2070.84 369.977 2069.14 369.703 2067.52 369.784C2066.89 373.093 2065.46 377.316 2062.21 379.225C2059.57 380.74 2056.91 380.934 2054.91 379.719C2051.74 377.796 2051.63 373.531 2052.29 371.166C2053.17 368.067 2056.02 365.289 2060.16 363.563C2060.03 358.505 2058.35 354.309 2055.7 352.33C2053.07 350.401 2049.06 349.717 2045.09 350.72C2039.89 351.931 2035.41 355.53 2032.92 360.508C2031.96 362.46 2029.58 363.23 2027.68 362.258C2025.73 361.296 2024.96 358.918 2025.93 357.016C2029.46 349.964 2035.79 344.858 2043.31 343.102C2049.64 341.756 2055.99 342.736 2060.41 346.086C2064.76 349.345 2067.47 355.124 2067.97 361.955C2070.82 361.931 2073.55 362.569 2075.99 363.799C2082.48 367.185 2087.57 375.688 2084.76 384.124L2084.86 384.103Z" fill="#C60B16"/>
<path d="M2097.04 315.105L2115.61 402.456L2175.34 389.759C2190.6 386.517 2200.33 371.526 2197.09 356.275L2184.39 296.539L2097.04 315.105ZM2163.65 324.778C2158.8 332.852 2150.66 350.627 2158.79 370.188C2159.54 371.936 2158.2 373.862 2156.32 373.997L2137.93 375.204C2136.84 375.278 2135.83 374.752 2135.31 373.803C2132.39 368.809 2125.09 351.403 2141.02 322.967C2141.48 322.129 2142.42 321.559 2143.41 321.506L2161.07 320.613C2163.32 320.504 2164.85 322.934 2163.67 324.879L2163.65 324.778Z" fill="#E16877"/>
<path d="M2237.14 188.909C2240.6 205.224 2232.97 220.616 2220.1 223.351C2207.23 226.087 2193.99 215.132 2190.52 198.817L2170.15 203.146L2188.72 290.497L2276.07 271.93L2257.5 184.579L2237.14 188.909Z" fill="#FFCB46"/>
<path d="M2256.74 281.16C2260.21 297.474 2252.57 312.867 2239.7 315.602C2226.84 318.338 2213.59 307.332 2210.13 291.068L2189.76 295.397L2208.33 382.748L2295.68 364.181L2277.11 276.83L2256.74 281.16Z" fill="#06564E"/>
<path d="M1979.39 243.694L1892.04 262.261L1910.61 349.612L1928.14 345.885C1926.46 337.981 1931.53 330.179 1939.43 328.499L1955.49 325.085C1977.23 320.464 1991.16 299.074 1986.53 277.287L1979.39 243.694Z" fill="#06564E"/>
<path d="M1911.65 354.512L1930.22 441.862L1947.75 438.136C1946.07 430.232 1951.13 422.429 1959.04 420.749L1980.47 416.194C1999.27 412.198 2011.28 393.706 2007.28 374.908L1999 335.945L1911.65 354.512Z" fill="#FFCB46"/>
<path d="M2069.08 639.238L2081.78 698.975L2169.13 680.408L2150.56 593.057L2090.82 605.755C2075.57 608.996 2065.84 623.987 2069.08 639.238ZM2134.55 652.012C2129.36 667.944 2116.96 678.151 2106.78 674.86C2096.6 671.569 2092.6 655.952 2097.75 640.081C2102.94 624.15 2115.34 613.943 2125.51 617.234C2135.69 620.525 2139.7 636.142 2134.55 652.012Z" fill="#E16877"/>
<path d="M2155.88 591.927L2174.45 679.277L2261.8 660.71L2249.1 600.973C2245.86 585.722 2230.87 575.987 2215.62 579.229L2155.88 591.927ZM2236.11 624.547L2218.98 628.187L2233.66 637.723C2235.51 638.92 2236.02 641.352 2234.83 643.195C2233.63 645.038 2231.2 645.555 2229.36 644.358L2214.67 634.823L2218.31 651.948C2218.76 654.076 2217.41 656.165 2215.28 656.617C2213.15 657.07 2211.06 655.713 2210.61 653.585L2206.97 636.46L2197.44 651.143C2196.24 652.986 2193.81 653.503 2191.96 652.306C2190.12 651.109 2189.6 648.677 2190.8 646.834L2200.34 632.151L2183.21 635.791C2181.08 636.243 2178.99 634.887 2178.54 632.759C2178.09 630.631 2179.44 628.542 2181.57 628.089L2198.7 624.449L2184.01 614.914C2182.17 613.717 2181.65 611.285 2182.85 609.442C2184.05 607.599 2186.48 607.082 2188.32 608.278L2203.01 617.814L2199.37 600.688C2198.91 598.56 2200.27 596.472 2202.4 596.019C2204.53 595.567 2206.62 596.923 2207.07 599.051L2210.71 616.177L2220.24 601.494C2221.44 599.65 2223.87 599.134 2225.72 600.33C2227.56 601.527 2228.08 603.959 2226.88 605.803L2217.34 620.486L2234.47 616.846C2236.6 616.394 2238.69 617.75 2239.14 619.878C2239.59 622.006 2238.23 624.095 2236.11 624.547Z" fill="#C60B16"/>
<path d="M2082.82 703.875L2095.52 763.612C2098.76 778.863 2113.75 788.598 2129 785.356L2188.74 772.659L2170.17 685.308L2082.82 703.875ZM2163.31 753.174C2161.39 758.876 2156.43 762.949 2150.66 764.177C2147.92 764.758 2144.94 764.703 2142.07 763.884C2139.98 763.269 2138.79 761.14 2139.35 759.061C2139.96 756.971 2142.09 755.777 2144.17 756.341C2149.08 757.735 2154.31 755.193 2155.79 750.695C2157.24 746.308 2154.34 741.629 2150.83 739.833C2149.29 739.049 2147.59 738.775 2145.96 738.855C2145.34 742.164 2143.91 746.388 2140.66 748.296C2138.02 749.811 2135.36 750.006 2133.35 748.791C2130.19 746.868 2130.08 742.602 2130.74 740.237C2131.62 737.138 2134.47 734.361 2138.6 732.635C2138.48 727.577 2136.8 723.381 2134.15 721.401C2131.52 719.472 2127.51 718.789 2123.54 719.792C2118.34 721.003 2113.86 724.602 2111.37 729.58C2110.41 731.532 2108.03 732.302 2106.13 731.329C2104.18 730.367 2103.41 727.989 2104.38 726.088C2107.91 719.035 2114.24 713.93 2121.76 712.173C2128.09 710.827 2134.44 711.807 2138.86 715.158C2143.21 718.417 2145.92 724.196 2146.42 731.027C2149.27 731.003 2152 731.64 2154.44 732.871C2160.93 736.257 2166.02 744.76 2163.2 753.196L2163.31 753.174Z" fill="#C60B16"/>
<path d="M2175.49 684.177L2194.06 771.528L2253.79 758.83C2269.04 755.589 2278.78 740.598 2275.54 725.347L2262.84 665.61L2175.49 684.177ZM2242.1 693.849C2237.25 701.923 2229.11 719.699 2237.24 739.259C2237.98 741.008 2236.65 742.934 2234.77 743.069L2216.38 744.275C2215.29 744.35 2214.28 743.823 2213.76 742.875C2210.84 737.881 2203.54 720.474 2219.47 692.039C2219.93 691.2 2220.87 690.63 2221.86 690.578L2239.52 689.684C2241.77 689.576 2243.3 692.006 2242.12 693.951L2242.1 693.849Z" fill="#E16877"/>
<path d="M2315.58 557.98C2319.05 574.295 2311.41 589.687 2298.54 592.423C2285.68 595.158 2272.44 584.204 2268.97 567.889L2248.6 572.218L2267.17 659.569L2354.52 641.002L2335.95 553.651L2315.58 557.98Z" fill="#FFCB46"/>
<path d="M2335.19 650.231C2338.66 666.546 2331.02 681.938 2318.15 684.674C2305.28 687.409 2292.04 676.404 2288.58 660.139L2268.21 664.469L2286.78 751.819L2374.13 733.252L2355.56 645.902L2335.19 650.231Z" fill="#06564E"/>
<path d="M2057.84 612.766L1970.49 631.333L1989.06 718.683L2006.59 714.957C2004.91 707.053 2009.97 699.25 2017.88 697.57L2033.94 694.156C2055.68 689.536 2069.61 668.145 2064.98 646.358L2057.84 612.766Z" fill="#06564E"/>
<path d="M1990.1 723.583L2008.66 810.934L2026.2 807.208C2024.52 799.304 2029.58 791.501 2037.49 789.821L2058.92 785.265C2077.72 781.27 2089.73 762.777 2085.73 743.98L2077.45 705.016L1990.1 723.583Z" fill="#FFCB46"/>
</g>
</svg>
