<svg width="463" height="49" viewBox="0 0 463 49" fill="none" xmlns="http://www.w3.org/2000/svg">
<path d="M42.1136 17.75H32.1591C31.9773 16.4621 31.6061 15.3182 31.0455 14.3182C30.4849 13.303 29.7652 12.4394 28.8864 11.7273C28.0076 11.0151 26.9924 10.4697 25.8409 10.0909C24.7045 9.71212 23.4697 9.52273 22.1364 9.52273C19.7273 9.52273 17.6288 10.1212 15.8409 11.3182C14.053 12.5 12.6667 14.2273 11.6818 16.5C10.697 18.7576 10.2045 21.5 10.2045 24.7273C10.2045 28.0455 10.697 30.8333 11.6818 33.0909C12.6818 35.3485 14.0758 37.053 15.8636 38.2045C17.6515 39.3561 19.7197 39.9318 22.0682 39.9318C23.3864 39.9318 24.6061 39.7576 25.7273 39.4091C26.8636 39.0606 27.8712 38.553 28.75 37.8864C29.6288 37.2045 30.3561 36.3788 30.9318 35.4091C31.5227 34.4394 31.9318 33.3333 32.1591 32.0909L42.1136 32.1364C41.8561 34.2727 41.2121 36.3333 40.1818 38.3182C39.1667 40.2879 37.7955 42.053 36.0682 43.6136C34.3561 45.1591 32.3106 46.3864 29.9318 47.2955C27.5682 48.1894 24.8939 48.6364 21.9091 48.6364C17.7576 48.6364 14.0455 47.697 10.7727 45.8182C7.51515 43.9394 4.93939 41.2197 3.04545 37.6591C1.16667 34.0985 0.227273 29.7879 0.227273 24.7273C0.227273 19.6515 1.18182 15.3333 3.09091 11.7727C5 8.21212 7.59091 5.5 10.8636 3.63636C14.1364 1.75757 17.8182 0.81818 21.9091 0.81818C24.6061 0.81818 27.1061 1.19697 29.4091 1.95454C31.7273 2.71212 33.7803 3.81818 35.5682 5.27272C37.3561 6.71212 38.8106 8.47727 39.9318 10.5682C41.0682 12.6591 41.7955 15.053 42.1136 17.75ZM47.9006 48V13.0909H57.287V19.1818H57.6506C58.287 17.0152 59.3552 15.3788 60.8552 14.2727C62.3552 13.1515 64.0825 12.5909 66.037 12.5909C66.5218 12.5909 67.0446 12.6212 67.6052 12.6818C68.1658 12.7424 68.6582 12.8258 69.0825 12.9318V21.5227C68.6279 21.3864 67.9991 21.2652 67.1961 21.1591C66.3931 21.053 65.6582 21 64.9915 21C63.5673 21 62.2946 21.3106 61.1734 21.9318C60.0673 22.5379 59.1885 23.3864 58.537 24.4773C57.9006 25.5682 57.5825 26.8258 57.5825 28.25V48H47.9006ZM87.2842 48.6818C83.6933 48.6818 80.6024 47.9545 78.0115 46.5C75.4357 45.0303 73.4509 42.9545 72.057 40.2727C70.663 37.5758 69.966 34.3864 69.966 30.7045C69.966 27.1136 70.663 23.9621 72.057 21.25C73.4509 18.5379 75.413 16.4242 77.9433 14.9091C80.4888 13.3939 83.4736 12.6364 86.8979 12.6364C89.2009 12.6364 91.3448 13.0076 93.3297 13.75C95.3297 14.4773 97.0721 15.5758 98.557 17.0455C100.057 18.5152 101.224 20.3636 102.057 22.5909C102.89 24.803 103.307 27.3939 103.307 30.3636V33.0227H73.8297V27.0227H94.1933C94.1933 25.6288 93.8903 24.3939 93.2842 23.3182C92.6782 22.2424 91.8373 21.4015 90.7615 20.7955C89.7009 20.1742 88.466 19.8636 87.057 19.8636C85.5873 19.8636 84.2842 20.2045 83.1479 20.8864C82.0266 21.553 81.1479 22.4545 80.5115 23.5909C79.8751 24.7121 79.5494 25.9621 79.5342 27.3409V33.0455C79.5342 34.7727 79.8524 36.2652 80.4888 37.5227C81.1403 38.7803 82.057 39.75 83.2388 40.4318C84.4206 41.1136 85.8221 41.4545 87.4433 41.4545C88.5191 41.4545 89.5039 41.303 90.3979 41C91.2918 40.697 92.057 40.2424 92.6933 39.6364C93.3297 39.0303 93.8145 38.2879 94.1479 37.4091L103.102 38C102.648 40.1515 101.716 42.0303 100.307 43.6364C98.913 45.2273 97.11 46.4697 94.8979 47.3636C92.7009 48.2424 90.163 48.6818 87.2842 48.6818ZM118.492 48.6591C116.264 48.6591 114.28 48.2727 112.537 47.5C110.795 46.7121 109.416 45.553 108.401 44.0227C107.401 42.4773 106.901 40.553 106.901 38.25C106.901 36.3106 107.257 34.6818 107.969 33.3636C108.681 32.0455 109.651 30.9848 110.878 30.1818C112.105 29.3788 113.499 28.7727 115.06 28.3636C116.636 27.9545 118.287 27.6667 120.014 27.5C122.045 27.2879 123.681 27.0909 124.924 26.9091C126.166 26.7121 127.067 26.4242 127.628 26.0455C128.189 25.6667 128.469 25.1061 128.469 24.3636V24.2273C128.469 22.7879 128.014 21.6742 127.105 20.8864C126.211 20.0985 124.939 19.7045 123.287 19.7045C121.545 19.7045 120.158 20.0909 119.128 20.8636C118.098 21.6212 117.416 22.5758 117.083 23.7273L108.128 23C108.583 20.8788 109.477 19.0455 110.81 17.5C112.143 15.9394 113.863 14.7424 115.969 13.9091C118.09 13.0606 120.545 12.6364 123.333 12.6364C125.272 12.6364 127.128 12.8636 128.901 13.3182C130.689 13.7727 132.272 14.4773 133.651 15.4318C135.045 16.3864 136.143 17.6136 136.946 19.1136C137.749 20.5985 138.151 22.3788 138.151 24.4545V48H128.969V43.1591H128.696C128.136 44.25 127.386 45.2121 126.446 46.0455C125.507 46.8636 124.378 47.5076 123.06 47.9773C121.742 48.4318 120.219 48.6591 118.492 48.6591ZM121.264 41.9773C122.689 41.9773 123.946 41.697 125.037 41.1364C126.128 40.5606 126.984 39.7879 127.605 38.8182C128.227 37.8485 128.537 36.75 128.537 35.5227V31.8182C128.234 32.0152 127.817 32.197 127.287 32.3636C126.772 32.5152 126.189 32.6591 125.537 32.7955C124.886 32.9167 124.234 33.0303 123.583 33.1364C122.931 33.2273 122.34 33.3106 121.81 33.3864C120.674 33.553 119.681 33.8182 118.833 34.1818C117.984 34.5455 117.325 35.0379 116.855 35.6591C116.386 36.2652 116.151 37.0227 116.151 37.9318C116.151 39.25 116.628 40.2576 117.583 40.9545C118.552 41.6364 119.78 41.9773 121.264 41.9773ZM163.142 13.0909V20.3636H142.12V13.0909H163.142ZM146.892 4.72727H156.574V37.2727C156.574 38.1667 156.71 38.8636 156.983 39.3636C157.256 39.8485 157.635 40.1894 158.12 40.3864C158.62 40.5833 159.195 40.6818 159.847 40.6818C160.301 40.6818 160.756 40.6439 161.21 40.5682C161.665 40.4773 162.014 40.4091 162.256 40.3636L163.779 47.5682C163.294 47.7197 162.612 47.8939 161.733 48.0909C160.854 48.303 159.786 48.4318 158.529 48.4773C156.195 48.5682 154.15 48.2576 152.392 47.5455C150.65 46.8333 149.294 45.7273 148.324 44.2273C147.354 42.7273 146.877 40.8333 146.892 38.5455V4.72727ZM183.895 48.6818C180.304 48.6818 177.213 47.9545 174.622 46.5C172.047 45.0303 170.062 42.9545 168.668 40.2727C167.274 37.5758 166.577 34.3864 166.577 30.7045C166.577 27.1136 167.274 23.9621 168.668 21.25C170.062 18.5379 172.024 16.4242 174.554 14.9091C177.1 13.3939 180.085 12.6364 183.509 12.6364C185.812 12.6364 187.956 13.0076 189.941 13.75C191.941 14.4773 193.683 15.5758 195.168 17.0455C196.668 18.5152 197.835 20.3636 198.668 22.5909C199.501 24.803 199.918 27.3939 199.918 30.3636V33.0227H170.441V27.0227H190.804C190.804 25.6288 190.501 24.3939 189.895 23.3182C189.289 22.2424 188.448 21.4015 187.372 20.7955C186.312 20.1742 185.077 19.8636 183.668 19.8636C182.198 19.8636 180.895 20.2045 179.759 20.8864C178.638 21.553 177.759 22.4545 177.122 23.5909C176.486 24.7121 176.16 25.9621 176.145 27.3409V33.0455C176.145 34.7727 176.463 36.2652 177.1 37.5227C177.751 38.7803 178.668 39.75 179.85 40.4318C181.032 41.1136 182.433 41.4545 184.054 41.4545C185.13 41.4545 186.115 41.303 187.009 41C187.903 40.697 188.668 40.2424 189.304 39.6364C189.941 39.0303 190.426 38.2879 190.759 37.4091L199.713 38C199.259 40.1515 198.327 42.0303 196.918 43.6364C195.524 45.2273 193.721 46.4697 191.509 47.3636C189.312 48.2424 186.774 48.6818 183.895 48.6818ZM228.827 48.6591C226.6 48.6591 224.615 48.2727 222.873 47.5C221.13 46.7121 219.751 45.553 218.736 44.0227C217.736 42.4773 217.236 40.553 217.236 38.25C217.236 36.3106 217.592 34.6818 218.304 33.3636C219.017 32.0455 219.986 30.9848 221.214 30.1818C222.441 29.3788 223.835 28.7727 225.395 28.3636C226.971 27.9545 228.623 27.6667 230.35 27.5C232.38 27.2879 234.017 27.0909 235.259 26.9091C236.501 26.7121 237.403 26.4242 237.964 26.0455C238.524 25.6667 238.804 25.1061 238.804 24.3636V24.2273C238.804 22.7879 238.35 21.6742 237.441 20.8864C236.547 20.0985 235.274 19.7045 233.623 19.7045C231.88 19.7045 230.494 20.0909 229.464 20.8636C228.433 21.6212 227.751 22.5758 227.418 23.7273L218.464 23C218.918 20.8788 219.812 19.0455 221.145 17.5C222.479 15.9394 224.198 14.7424 226.304 13.9091C228.426 13.0606 230.88 12.6364 233.668 12.6364C235.607 12.6364 237.464 12.8636 239.236 13.3182C241.024 13.7727 242.607 14.4773 243.986 15.4318C245.38 16.3864 246.479 17.6136 247.282 19.1136C248.085 20.5985 248.486 22.3788 248.486 24.4545V48H239.304V43.1591H239.032C238.471 44.25 237.721 45.2121 236.782 46.0455C235.842 46.8636 234.714 47.5076 233.395 47.9773C232.077 48.4318 230.554 48.6591 228.827 48.6591ZM231.6 41.9773C233.024 41.9773 234.282 41.697 235.373 41.1364C236.464 40.5606 237.32 39.7879 237.941 38.8182C238.562 37.8485 238.873 36.75 238.873 35.5227V31.8182C238.57 32.0152 238.153 32.197 237.623 32.3636C237.107 32.5152 236.524 32.6591 235.873 32.7955C235.221 32.9167 234.57 33.0303 233.918 33.1364C233.267 33.2273 232.676 33.3106 232.145 33.3864C231.009 33.553 230.017 33.8182 229.168 34.1818C228.32 34.5455 227.661 35.0379 227.191 35.6591C226.721 36.2652 226.486 37.0227 226.486 37.9318C226.486 39.25 226.964 40.2576 227.918 40.9545C228.888 41.6364 230.115 41.9773 231.6 41.9773ZM270.682 48.6818C267.107 48.6818 264.031 47.9242 261.455 46.4091C258.894 44.8788 256.925 42.7576 255.546 40.0455C254.182 37.3333 253.501 34.2121 253.501 30.6818C253.501 27.1061 254.19 23.9697 255.569 21.2727C256.963 18.5606 258.94 16.447 261.501 14.9318C264.061 13.4015 267.107 12.6364 270.637 12.6364C273.682 12.6364 276.349 13.1894 278.637 14.2955C280.925 15.4015 282.735 16.9545 284.069 18.9545C285.402 20.9545 286.137 23.303 286.273 26H277.137C276.879 24.2576 276.198 22.8561 275.091 21.7955C274.001 20.7197 272.569 20.1818 270.796 20.1818C269.296 20.1818 267.985 20.5909 266.864 21.4091C265.758 22.2121 264.894 23.3864 264.273 24.9318C263.652 26.4773 263.341 28.3485 263.341 30.5455C263.341 32.7727 263.644 34.6667 264.251 36.2273C264.872 37.7879 265.743 38.9773 266.864 39.7955C267.985 40.6136 269.296 41.0227 270.796 41.0227C271.902 41.0227 272.894 40.7955 273.773 40.3409C274.667 39.8864 275.402 39.2273 275.978 38.3636C276.569 37.4848 276.955 36.4318 277.137 35.2045H286.273C286.122 37.8712 285.394 40.2197 284.091 42.25C282.804 44.2652 281.023 45.8409 278.751 46.9773C276.478 48.1136 273.788 48.6818 270.682 48.6818ZM307.157 48.6818C303.581 48.6818 300.505 47.9242 297.93 46.4091C295.369 44.8788 293.399 42.7576 292.021 40.0455C290.657 37.3333 289.975 34.2121 289.975 30.6818C289.975 27.1061 290.664 23.9697 292.043 21.2727C293.437 18.5606 295.414 16.447 297.975 14.9318C300.536 13.4015 303.581 12.6364 307.111 12.6364C310.157 12.6364 312.824 13.1894 315.111 14.2955C317.399 15.4015 319.21 16.9545 320.543 18.9545C321.877 20.9545 322.611 23.303 322.748 26H313.611C313.354 24.2576 312.672 22.8561 311.566 21.7955C310.475 20.7197 309.043 20.1818 307.271 20.1818C305.771 20.1818 304.46 20.5909 303.339 21.4091C302.233 22.2121 301.369 23.3864 300.748 24.9318C300.127 26.4773 299.816 28.3485 299.816 30.5455C299.816 32.7727 300.119 34.6667 300.725 36.2273C301.346 37.7879 302.217 38.9773 303.339 39.7955C304.46 40.6136 305.771 41.0227 307.271 41.0227C308.377 41.0227 309.369 40.7955 310.248 40.3409C311.142 39.8864 311.877 39.2273 312.452 38.3636C313.043 37.4848 313.43 36.4318 313.611 35.2045H322.748C322.596 37.8712 321.869 40.2197 320.566 42.25C319.278 44.2652 317.498 45.8409 315.225 46.9773C312.952 48.1136 310.263 48.6818 307.157 48.6818ZM343.631 48.6818C340.101 48.6818 337.048 47.9318 334.472 46.4318C331.912 44.9167 329.934 42.8106 328.54 40.1136C327.147 37.4015 326.45 34.2576 326.45 30.6818C326.45 27.0758 327.147 23.9242 328.54 21.2273C329.934 18.5152 331.912 16.4091 334.472 14.9091C337.048 13.3939 340.101 12.6364 343.631 12.6364C347.162 12.6364 350.207 13.3939 352.768 14.9091C355.343 16.4091 357.328 18.5152 358.722 21.2273C360.116 23.9242 360.813 27.0758 360.813 30.6818C360.813 34.2576 360.116 37.4015 358.722 40.1136C357.328 42.8106 355.343 44.9167 352.768 46.4318C350.207 47.9318 347.162 48.6818 343.631 48.6818ZM343.677 41.1818C345.283 41.1818 346.624 40.7273 347.7 39.8182C348.775 38.8939 349.586 37.6364 350.131 36.0455C350.692 34.4545 350.972 32.6439 350.972 30.6136C350.972 28.5833 350.692 26.7727 350.131 25.1818C349.586 23.5909 348.775 22.3333 347.7 21.4091C346.624 20.4848 345.283 20.0227 343.677 20.0227C342.056 20.0227 340.692 20.4848 339.586 21.4091C338.495 22.3333 337.669 23.5909 337.109 25.1818C336.563 26.7727 336.29 28.5833 336.29 30.6136C336.29 32.6439 336.563 34.4545 337.109 36.0455C337.669 37.6364 338.495 38.8939 339.586 39.8182C340.692 40.7273 342.056 41.1818 343.677 41.1818ZM388.407 33.1364V13.0909H398.089V48H388.793V41.6591H388.43C387.642 43.7045 386.331 45.3485 384.498 46.5909C382.68 47.8333 380.46 48.4545 377.839 48.4545C375.505 48.4545 373.452 47.9242 371.68 46.8636C369.907 45.803 368.521 44.2955 367.521 42.3409C366.536 40.3864 366.036 38.0455 366.021 35.3182V13.0909H375.702V33.5909C375.718 35.6515 376.271 37.2803 377.362 38.4773C378.452 39.6742 379.915 40.2727 381.748 40.2727C382.915 40.2727 384.005 40.0076 385.021 39.4773C386.036 38.9318 386.854 38.1288 387.475 37.0682C388.112 36.0076 388.422 34.697 388.407 33.1364ZM414.427 27.8182V48H404.745V13.0909H413.972V19.25H414.382C415.154 17.2197 416.45 15.6136 418.268 14.4318C420.086 13.2348 422.291 12.6364 424.882 12.6364C427.306 12.6364 429.419 13.1667 431.222 14.2273C433.025 15.2879 434.427 16.803 435.427 18.7727C436.427 20.7273 436.927 23.0606 436.927 25.7727V48H427.245V27.5C427.26 25.3636 426.715 23.697 425.609 22.5C424.503 21.2879 422.98 20.6818 421.041 20.6818C419.738 20.6818 418.586 20.9621 417.586 21.5227C416.601 22.0833 415.828 22.9015 415.268 23.9773C414.722 25.0379 414.442 26.3182 414.427 27.8182ZM462.038 13.0909V20.3636H441.015V13.0909H462.038ZM445.788 4.72727H455.47V37.2727C455.47 38.1667 455.606 38.8636 455.879 39.3636C456.151 39.8485 456.53 40.1894 457.015 40.3864C457.515 40.5833 458.091 40.6818 458.742 40.6818C459.197 40.6818 459.651 40.6439 460.106 40.5682C460.561 40.4773 460.909 40.4091 461.151 40.3636L462.674 47.5682C462.189 47.7197 461.508 47.8939 460.629 48.0909C459.75 48.303 458.682 48.4318 457.424 48.4773C455.091 48.5682 453.045 48.2576 451.288 47.5455C449.545 46.8333 448.189 45.7273 447.22 44.2273C446.25 42.7273 445.773 40.8333 445.788 38.5455V4.72727Z" fill="#3A3A3A"/>
</svg>
