<svg width="1339" height="1339" viewBox="0 0 1339 1339" fill="none" xmlns="http://www.w3.org/2000/svg">
<g filter="url(#filter0_i_3708_49)">
<path d="M0 0H1339V1339H25C11.1929 1339 0 1327.81 0 1314V0Z" fill="#F2F2F2"/>
</g>
<path fill-rule="evenodd" clip-rule="evenodd" d="M405.981 421.988C391.077 421.988 378.988 434.077 378.988 448.981V890.633C378.988 905.532 391.073 917.612 405.981 917.612H932.901C947.805 917.612 959.881 905.536 959.881 890.633V448.981C959.881 434.073 947.801 421.988 932.901 421.988H405.981ZM363 448.981C363 425.247 382.247 406 405.981 406H932.901C956.639 406 975.869 425.251 975.869 448.981V890.633C975.869 914.366 956.635 933.6 932.901 933.6H405.981C382.251 933.6 363 914.37 363 890.633V448.981Z" fill="#C5C5C5"/>
<path fill-rule="evenodd" clip-rule="evenodd" d="M623.817 622.726C615.219 612.573 599.57 612.573 590.972 622.726L378.988 872.834V890.633C378.988 905.532 391.073 917.612 405.981 917.612H932.901C947.805 917.612 959.881 905.536 959.881 890.633V880.681L793.092 683.909C793.092 683.909 793.092 683.909 793.092 683.909C784.493 673.766 768.853 673.766 760.255 683.909L746.585 700.03C746.585 700.03 746.585 700.03 746.585 700.03C731.601 717.705 704.327 717.706 689.344 700.03L623.817 622.726ZM636.018 612.393C621.034 594.7 593.756 594.7 578.772 612.393L363 866.97V890.633C363 914.37 382.251 933.6 405.981 933.6H932.901C956.635 933.6 975.869 914.366 975.869 890.633V874.817L805.287 673.571C790.304 655.895 763.044 655.895 748.06 673.57C748.06 673.57 748.06 673.57 748.06 673.57L734.39 689.691C725.792 699.834 710.137 699.835 701.539 689.692L636.018 612.393Z" fill="#C5C5C5"/>
<path fill-rule="evenodd" clip-rule="evenodd" d="M816.827 506.337C786.298 506.337 761.549 531.086 761.549 561.615C761.549 592.144 786.298 616.893 816.827 616.893C847.357 616.893 872.106 592.144 872.106 561.615C872.106 531.086 847.357 506.337 816.827 506.337ZM745.562 561.615C745.562 522.256 777.468 490.349 816.827 490.349C856.187 490.349 888.093 522.256 888.093 561.615C888.093 600.974 856.187 632.881 816.827 632.881C777.468 632.881 745.562 600.974 745.562 561.615Z" fill="#C5C5C5"/>
<defs>
<filter id="filter0_i_3708_49" x="0" y="0" width="1339" height="1343" filterUnits="userSpaceOnUse" color-interpolation-filters="sRGB">
<feFlood flood-opacity="0" result="BackgroundImageFix"/>
<feBlend mode="normal" in="SourceGraphic" in2="BackgroundImageFix" result="shape"/>
<feColorMatrix in="SourceAlpha" type="matrix" values="0 0 0 0 0 0 0 0 0 0 0 0 0 0 0 0 0 0 127 0" result="hardAlpha"/>
<feOffset dy="4"/>
<feGaussianBlur stdDeviation="50"/>
<feComposite in2="hardAlpha" operator="arithmetic" k2="-1" k3="1"/>
<feColorMatrix type="matrix" values="0 0 0 0 0 0 0 0 0 0 0 0 0 0 0 0 0 0 0.05 0"/>
<feBlend mode="normal" in2="shape" result="effect1_innerShadow_3708_49"/>
</filter>
</defs>
</svg>
