<svg width="75" height="69" viewBox="0 0 75 69" fill="none" xmlns="http://www.w3.org/2000/svg">
<circle cx="62" cy="34.1191" r="10" fill="#8C8C8C"/>
<circle cx="27" cy="34.1191" r="10" fill="#8C8C8C"/>
<mask id="path-3-outside-1_3879_400" maskUnits="userSpaceOnUse" x="0" y="0" width="75" height="69" fill="black">
<rect fill="white" width="75" height="69"/>
<path fill-rule="evenodd" clip-rule="evenodd" d="M37.5 47.5184C34.5599 58.5667 28.0962 66.2381 20.5952 66.2381C10.3254 66.2381 2 51.8579 2 34.119C2 16.3802 10.3254 2 20.5952 2C28.0962 2 34.5599 9.67135 37.5 20.7197C40.4401 9.67135 46.9038 2 54.4048 2C64.6746 2 73 16.3802 73 34.119C73 51.8579 64.6746 66.2381 54.4048 66.2381C46.9038 66.2381 40.4401 58.5667 37.5 47.5184Z"/>
</mask>
<path d="M37.5 47.5184L39.4327 47.0041L37.5 39.7413L35.5673 47.0041L37.5 47.5184ZM37.5 20.7197L35.5673 21.234L37.5 28.4968L39.4327 21.234L37.5 20.7197ZM35.5673 47.0041C34.1558 52.3081 31.9264 56.6849 29.2606 59.6955C26.5985 62.702 23.6133 64.2381 20.5952 64.2381V68.2381C25.0781 68.2381 29.0753 65.9386 32.2553 62.3473C35.4316 58.7601 37.9041 53.777 39.4327 48.0328L35.5673 47.0041ZM20.5952 64.2381C16.4745 64.2381 12.3665 61.3373 9.17727 55.8286C6.01801 50.3717 4 42.7006 4 34.119H0C0 43.2764 2.14468 51.6648 5.71557 57.8327C9.25648 63.9488 14.4461 68.2381 20.5952 68.2381V64.2381ZM4 34.119C4 25.5375 6.01801 17.8664 9.17727 12.4095C12.3665 6.90084 16.4745 4 20.5952 4V0C14.4461 0 9.25648 4.28925 5.71557 10.4054C2.14468 16.5733 0 24.9617 0 34.119H4ZM20.5952 4C23.6133 4 26.5985 5.53614 29.2606 8.54258C31.9264 11.5532 34.1558 15.93 35.5673 21.234L39.4327 20.2053C37.9041 14.4611 35.4316 9.47797 32.2553 5.89085C29.0753 2.29954 25.0781 0 20.5952 0V4ZM39.4327 21.234C40.8442 15.93 43.0736 11.5532 45.7394 8.54258C48.4015 5.53614 51.3867 4 54.4048 4V0C49.9219 0 45.9247 2.29954 42.7447 5.89085C39.5684 9.47797 37.0959 14.4611 35.5673 20.2053L39.4327 21.234ZM54.4048 4C58.5255 4 62.6335 6.90084 65.8227 12.4095C68.982 17.8664 71 25.5375 71 34.119H75C75 24.9617 72.8553 16.5733 69.2844 10.4054C65.7435 4.28925 60.5539 0 54.4048 0V4ZM71 34.119C71 42.7006 68.982 50.3717 65.8227 55.8286C62.6335 61.3373 58.5255 64.2381 54.4048 64.2381V68.2381C60.5539 68.2381 65.7435 63.9488 69.2844 57.8327C72.8553 51.6648 75 43.2764 75 34.119H71ZM54.4048 64.2381C51.3867 64.2381 48.4015 62.702 45.7394 59.6955C43.0736 56.6849 40.8442 52.3081 39.4327 47.0041L35.5673 48.0328C37.0959 53.777 39.5684 58.7601 42.7447 62.3473C45.9247 65.9386 49.9219 68.2381 54.4048 68.2381V64.2381Z" fill="#8C8C8C" mask="url(#path-3-outside-1_3879_400)"/>
<path d="M30.1801 33.6789C29.1552 33.6789 28.325 32.8475 28.325 31.8211C28.325 31.3695 27.9561 31 27.5051 31C27.0542 31 26.6852 31.3695 26.6852 31.8211C26.6852 32.8475 25.8448 33.6789 24.8302 33.6789C24.369 33.6789 24 34.0484 24 34.5C24 34.9516 24.369 35.3211 24.8302 35.3211C25.8448 35.3211 26.6852 36.1525 26.6852 37.1789C26.6852 37.6408 27.0439 38 27.5051 38C27.9663 38 28.325 37.6408 28.325 37.1789C28.325 36.1525 29.1552 35.3211 30.1801 35.3211C30.631 35.3211 31 34.9516 31 34.5C31 34.0484 30.631 33.6789 30.1801 33.6789Z" fill="white"/>
<path d="M65.1801 33.6789C64.1552 33.6789 63.325 32.8475 63.325 31.8211C63.325 31.3695 62.9561 31 62.5051 31C62.0542 31 61.6852 31.3695 61.6852 31.8211C61.6852 32.8475 60.8448 33.6789 59.8302 33.6789C59.369 33.6789 59 34.0484 59 34.5C59 34.9516 59.369 35.3211 59.8302 35.3211C60.8448 35.3211 61.6852 36.1525 61.6852 37.1789C61.6852 37.6408 62.0439 38 62.5051 38C62.9663 38 63.325 37.6408 63.325 37.1789C63.325 36.1525 64.1552 35.3211 65.1801 35.3211C65.631 35.3211 66 34.9516 66 34.5C66 34.0484 65.631 33.6789 65.1801 33.6789Z" fill="white"/>
</svg>
