<svg width="28" height="37" viewBox="0 0 28 37" fill="none" xmlns="http://www.w3.org/2000/svg">
<path d="M14.0867 23.9445C13.9195 23.9445 13.7522 23.9392 13.585 23.9285C12.6068 23.8643 11.8618 22.976 11.9227 21.9432C11.9835 20.9104 12.8248 20.1185 13.8029 20.188C15.1358 20.2736 16.4281 19.7546 17.3657 18.7646L23.1026 12.7071C24.9119 10.7968 24.9119 7.69309 23.1026 5.78808C21.2934 3.87772 18.3539 3.87772 16.5447 5.78808L10.8077 11.8456C10.1134 12.5787 8.99337 12.5787 8.29906 11.8456C7.60474 11.1125 7.60474 9.92987 8.29906 9.19676L14.036 3.13926C17.2238 -0.231966 22.4185 -0.231966 25.6062 3.13926C28.7991 6.51048 28.7991 11.9901 25.6062 15.3559L19.8693 21.4134C18.3286 23.0402 16.2457 23.9445 14.0816 23.9445H14.0867Z" fill="#C9464B"/>
<path d="M8.80923 36.3893C6.55472 36.3893 4.29475 35.5491 2.57522 33.8632C-0.858405 30.4915 -0.858405 25.0111 2.57522 21.6447L8.75464 15.5863C10.7799 13.6007 13.6676 12.7016 16.4898 13.1833C17.5325 13.3599 18.2258 14.3286 18.0456 15.3455C17.8655 16.3624 16.8774 17.0474 15.8402 16.8708C14.2353 16.5978 12.5977 17.1116 11.4568 18.2302L5.27735 24.2886C3.32854 26.1992 3.32854 29.3034 5.27735 31.2087C7.22616 33.1193 10.3923 33.114 12.3356 31.2087L18.5151 25.1503C19.2629 24.417 20.4693 24.417 21.2172 25.1503C21.9651 25.8835 21.9651 27.0663 21.2172 27.7995L15.0378 33.8579C13.3182 35.5437 11.0637 36.384 8.80377 36.384L8.80923 36.3893Z" fill="#C9464B"/>
</svg>
