<svg width="333" height="44" viewBox="0 0 333 44" fill="none" xmlns="http://www.w3.org/2000/svg">
<path d="M15.9811 31.0839C15.1859 31.835 15.3791 33.3519 15.3345 34.4376C15.3196 36.2594 15.275 38.0366 16.1818 39.3454C16.4196 40.0667 19.3331 43.0114 17.9284 43.1155C14.1825 43.1973 4.98862 43.1378 1.7481 43.1526C-0.875532 43.3757 0.885943 41.6283 1.40621 40.2451C1.63661 39.7098 1.69607 39.3528 1.70351 38.8174C1.66634 34.2517 1.79269 15.2005 1.65148 10.8579C1.52513 9.71272 -0.258644 7.80166 0.573783 6.99113C2.99674 5.54853 10.0278 2.84181 13.3798 1.26537C13.9075 1.0869 14.4203 0.663047 14.896 0.945617C15.4014 1.95692 14.0636 4.82724 16.6426 3.18387C23.9189 -1.41905 34.0195 1.51819 35.7141 11.4899C36.554 16.368 35.2161 21.8484 31.7081 25.2615C28.1479 28.8754 22.8412 30.5411 17.9804 30.6452C17.3338 30.6824 16.5608 30.6675 16.0703 31.0319L16.0034 31.0839H15.9811ZM15.7953 7.02831C14.9778 7.55627 15.446 10.3299 15.3271 11.7502C15.3791 15.7285 15.2156 21.3427 15.4014 25.0012C15.5352 26.5033 17.1703 28.5036 18.8798 27.7451C20.3068 27.1131 21.3547 25.0235 21.8899 21.8484C22.7818 17.699 22.5959 3.8308 15.8548 6.97625L15.7879 7.02831H15.7953Z" fill="black"/>
<path d="M38.0778 15.795C37.8994 6.12815 46.5953 1.01215 55.202 1.16087C61.0067 1.1683 67.3911 3.28014 70.483 8.55974C74.712 16.1891 71.6053 26.2427 63.2067 29.1576C53.0763 33.2102 37.8177 28.8899 38.0704 15.9735V15.8025L38.0778 15.795ZM58.4128 16.903C58.2939 13.3857 58.5391 7.80126 56.6513 4.76735C55.7074 3.41399 53.8939 3.49579 53.0838 5.30275C52.1919 7.34023 52.1622 9.82387 52.0358 12.0249C51.9466 15.163 51.9615 17.4309 52.1845 20.5838C52.4372 22.8964 52.5115 25.2685 53.8567 27.1499C54.823 28.3545 56.5398 28.2058 57.3054 26.4732C58.4574 23.707 58.331 19.9443 58.4054 17.0294V16.9104L58.4128 16.903Z" fill="black"/>
<path d="M74.7267 15.7953C74.5484 6.12845 83.2517 1.01244 91.8584 1.15373C97.6631 1.16116 104.047 3.273 107.139 8.5526C111.368 16.182 108.262 26.2355 99.8631 29.1505C89.7327 33.2031 74.474 28.8828 74.7267 15.9663V15.7953ZM95.0692 16.9033C94.9503 13.386 95.1955 7.80156 93.3077 4.76765C92.3638 3.41429 90.5503 3.49608 89.7402 5.30304C88.8483 7.34052 88.8185 9.82416 88.6922 12.0252C88.603 15.1632 88.6179 17.4312 88.8408 20.5841C89.0935 22.8967 89.1679 25.2688 90.5131 27.1502C91.4793 28.3548 93.1962 28.2061 93.9617 26.4735C95.1138 23.7073 94.9874 19.9446 95.0617 17.0297V16.9107L95.0692 16.9033Z" fill="black"/>
<path d="M165.461 29.7229C165.461 30.2136 164.956 30.2508 164.51 30.2731C161.775 30.3029 153.845 30.2806 150.582 30.2806C150.18 30.2806 149.608 30.2731 149.355 30.0649C148.82 29.6113 149.779 28.3621 150.173 27.1574C150.478 26.2874 150.47 25.462 150.47 24.5251C150.47 21.9299 150.47 17.6839 150.47 14.6797C150.441 12.3746 150.567 11.0138 150.299 9.71246C150.151 9.05065 149.801 8.44833 149.244 8.04678C147.676 6.90906 145.119 7.86832 145.29 9.98015C145.253 13.2966 145.275 22.1753 145.275 25.3579C145.253 26.4361 145.58 27.4103 146.07 28.3546C147.267 30.578 146.07 30.2806 143.476 30.288C140.124 30.288 133.837 30.3029 131.339 30.2731C129.303 30.3401 130.931 28.3472 131.22 27.3656C131.659 26.2651 131.585 25.3059 131.585 23.4097C131.585 20.9335 131.585 18.3308 131.585 15.8546C131.399 13.2148 132.112 10.575 130.886 8.5673C130.143 7.52626 128.619 7.31061 127.519 7.86832C126.523 8.36653 126.352 9.30347 126.382 10.9245V14.94C126.382 18.9034 126.367 23.5881 126.389 25.5884C126.367 26.7782 126.939 27.8639 127.43 28.8975C127.564 29.2544 127.772 29.6857 127.571 29.9906C127.408 30.2062 127.043 30.2508 126.739 30.2657C124.412 30.3029 118.414 30.2731 115.218 30.2806C111.146 30.2508 110.722 30.7267 112.335 27.3582C112.781 26.2205 112.691 25.2017 112.699 23.1791C112.58 19.0893 112.952 14.6946 112.528 10.7089C112.179 9.16962 110.707 7.61549 111.822 6.8124C113.858 5.68212 116.11 4.90877 118.296 3.89003C120.317 3.02001 123.691 1.49562 125.23 0.908173C125.497 0.826376 125.728 0.774324 125.921 0.923045C126.464 1.83768 125.661 4.00157 126.047 4.90877C126.278 5.52596 126.761 5.24339 127.341 4.87902C130.886 1.88973 136.587 -0.088258 140.964 1.7187C142.763 2.22435 143.67 4.55927 145.431 4.8939C146.977 4.78235 148.189 3.22078 149.623 2.64077C152.529 1.0792 156.751 0.551242 159.471 1.55511C166.19 3.91977 163.693 14.9326 164.161 20.6509C164.265 22.7925 163.856 25.7892 164.57 27.4772C164.837 28.191 165.357 28.9346 165.469 29.6634V29.7303L165.461 29.7229Z" fill="black"/>
<path d="M182.675 31.0837C181.88 31.8348 182.073 33.3517 182.028 34.4374C182.013 36.2592 181.969 38.0364 182.876 39.3452C183.113 40.0665 186.027 43.0111 184.622 43.1152C180.876 43.197 171.682 43.1376 168.442 43.1524C165.818 43.3755 167.58 41.628 168.1 40.2449C168.33 39.7095 168.39 39.3526 168.397 38.8172C168.36 34.2515 168.486 15.2003 168.345 10.8576C168.219 9.7125 166.435 7.80143 167.268 6.9909C169.691 5.55574 176.722 2.84902 180.074 1.28002C180.601 1.10155 181.114 0.677695 181.582 0.960265C182.088 1.97157 180.75 4.84188 183.329 3.19852C190.605 -1.4044 200.706 1.53284 202.393 11.5046C203.233 16.3826 201.895 21.863 198.387 25.2762C194.827 28.8901 189.52 30.5558 184.659 30.6599C184.013 30.697 183.24 30.6822 182.749 31.0465L182.682 31.0986L182.675 31.0837ZM182.489 7.02808C181.672 7.55604 182.14 10.3297 182.021 11.75C182.073 15.7283 181.909 21.3425 182.095 25.001C182.229 26.5031 183.864 28.5034 185.574 27.7449C187.001 27.1129 188.049 25.0233 188.584 21.8481C189.468 17.6988 189.29 3.83058 182.549 6.97603L182.482 7.02808H182.489Z" fill="black"/>
<path d="M204.764 15.7953C204.585 6.12845 213.281 1.01244 221.895 1.15373C227.7 1.16116 234.084 3.273 237.176 8.5526C241.405 16.182 238.299 26.2355 229.9 29.1505C219.77 33.2031 204.511 28.8828 204.764 15.9663V15.7953ZM225.106 16.9033C224.987 13.386 225.232 7.80156 223.345 4.76765C222.401 3.41429 220.587 3.49608 219.777 5.30304C218.283 9.48211 218.744 13.9512 218.744 18.3087C218.982 21.2311 218.863 24.674 220.55 27.1427C221.516 28.3474 223.233 28.1986 223.999 26.466C225.151 23.6998 225.024 19.9372 225.099 17.0223V16.9033H225.106Z" fill="black"/>
<path d="M241.421 15.7953C241.242 6.12845 249.938 1.01244 258.552 1.15373C264.357 1.16116 270.741 3.273 273.833 8.5526C278.062 16.182 274.955 26.2355 266.557 29.1505C256.427 33.2031 241.168 28.8828 241.421 15.9663V15.7953ZM261.763 16.9033C261.644 13.386 261.889 7.80156 260.001 4.76765C259.058 3.41429 257.244 3.49608 256.434 5.30304C254.94 9.48211 255.401 13.9512 255.401 18.3087C255.639 21.2311 255.52 24.674 257.207 27.1427C258.173 28.3474 259.89 28.1986 260.656 26.466C261.808 23.6998 261.681 19.9372 261.756 17.0223V16.9033H261.763Z" fill="black"/>
<path d="M332.155 29.7229C332.155 30.2136 331.65 30.2508 331.204 30.2731C328.469 30.3029 320.538 30.2806 317.276 30.2806C316.874 30.2806 316.302 30.2731 316.049 30.0649C315.514 29.6113 316.473 28.3621 316.867 27.1574C317.171 26.2874 317.164 25.462 317.164 24.5251C317.164 21.9299 317.164 17.6839 317.164 14.6797C317.134 12.3746 317.261 11.0138 316.993 9.71245C316.844 9.05065 316.495 8.44833 315.938 8.04678C314.369 6.90906 311.813 7.86832 311.984 9.98015C311.947 13.2966 311.969 22.1753 311.969 25.3579C311.947 26.4361 312.274 27.4103 312.764 28.3546C313.961 30.578 312.764 30.2806 310.17 30.288C306.818 30.288 300.53 30.3029 298.033 30.2731C295.997 30.3401 297.624 28.3472 297.914 27.3656C298.353 26.2651 298.278 25.3059 298.278 23.4097C298.278 20.9335 298.278 18.3308 298.278 15.8546C298.093 13.2148 298.806 10.575 297.58 8.5673C296.836 7.52626 295.313 7.31061 294.213 7.86832C293.217 8.36653 293.046 9.30347 293.076 10.9245V14.94C293.076 18.9034 293.061 23.5881 293.083 25.5884C293.061 26.7782 293.633 27.8639 294.124 28.8975C294.257 29.2544 294.466 29.6857 294.265 29.9906C294.101 30.2062 293.737 30.2508 293.432 30.2657C291.106 30.3029 285.108 30.2731 281.912 30.2806C277.839 30.2508 277.416 30.7267 279.028 27.3582C279.474 26.2205 279.385 25.2017 279.393 23.1791C279.274 19.0893 279.645 14.6946 279.222 10.7089C278.872 9.16962 277.401 7.61549 278.516 6.8124C280.552 5.68212 282.804 4.90877 284.989 3.89003C287.011 3.02001 290.385 1.49562 291.924 0.908173C292.191 0.826376 292.422 0.774324 292.615 0.923045C293.157 1.83768 292.355 4.00157 292.741 4.90877C292.972 5.52596 293.455 5.24339 294.034 4.87902C297.58 1.88973 303.28 -0.0882578 307.658 1.7187C309.457 2.22435 310.363 4.55927 312.125 4.8939C313.671 4.78235 314.882 3.22078 316.317 2.64077C319.223 1.0792 323.444 0.551242 326.165 1.55511C332.884 3.91977 330.386 14.9326 330.855 20.6509C330.959 22.7925 330.55 25.7892 331.263 27.4772C331.531 28.191 332.051 28.9346 332.163 29.6634V29.7303L332.155 29.7229Z" fill="black"/>
</svg>
