<svg width="216" height="216" viewBox="0 0 216 216" fill="none" xmlns="http://www.w3.org/2000/svg">
<path d="M108 214C166.542 214 214 166.542 214 108C214 49.4578 166.542 2 108 2C49.4578 2 2 49.4578 2 108C2 166.542 49.4578 214 108 214Z" fill="#EAEAE9" stroke="white" stroke-width="4" stroke-miterlimit="10"/>
<path d="M108 186.887C97.7532 186.887 89.4616 178.596 89.4616 168.349C89.4616 145.288 70.7114 126.538 47.6505 126.538C37.4038 126.538 29.1123 118.247 29.1123 108C29.1123 97.7532 37.4038 89.4616 47.6505 89.4616C70.7114 89.4616 89.4616 70.7114 89.4616 47.6505C89.4616 37.4039 97.7532 29.1123 108 29.1123C118.246 29.1123 126.538 37.4039 126.538 47.6505C126.538 70.7114 145.288 89.4616 168.349 89.4616C178.596 89.4616 186.887 97.7532 186.887 108C186.887 118.247 178.596 126.538 168.349 126.538C145.288 126.538 126.538 145.288 126.538 168.349C126.538 178.596 118.246 186.887 108 186.887ZM98.4127 108C101.875 110.921 105.079 114.124 108 117.587C110.921 114.124 114.124 110.921 117.587 108C114.124 105.079 110.921 101.875 108 98.4128C105.079 101.875 101.875 105.079 98.4127 108Z" fill="#D0D2D3"/>
</svg>
